<svg viewBox="0 0 1284.3333740234375 400" xmlns="http://www.w3.org/2000/svg"><g><g><g><g><g><line x1="41.171875" y1="377" x2="36.171875" y2="377" style="visibility: inherit;" fill="rgb(0, 0, 0)" stroke="rgb(204, 204, 204)" stroke-width="1px"></line><line x1="41.171875" y1="339.3" x2="36.171875" y2="339.3" style="visibility: inherit;" fill="rgb(0, 0, 0)" stroke="rgb(204, 204, 204)" stroke-width="1px"></line><line x1="41.171875" y1="301.6" x2="36.171875" y2="301.6" style="visibility: inherit;" fill="rgb(0, 0, 0)" stroke="rgb(204, 204, 204)" stroke-width="1px"></line><line x1="41.171875" y1="263.9" x2="36.171875" y2="263.9" style="visibility: inherit;" fill="rgb(0, 0, 0)" stroke="rgb(204, 204, 204)" stroke-width="1px"></line><line x1="41.171875" y1="226.2" x2="36.171875" y2="226.2" style="visibility: inherit;" fill="rgb(0, 0, 0)" stroke="rgb(204, 204, 204)" stroke-width="1px"></line><line x1="41.171875" y1="188.5" x2="36.171875" y2="188.5" style="visibility: inherit;" fill="rgb(0, 0, 0)" stroke="rgb(204, 204, 204)" stroke-width="1px"></line><line x1="41.171875" y1="150.8" x2="36.171875" y2="150.8" style="visibility: inherit;" fill="rgb(0, 0, 0)" stroke="rgb(204, 204, 204)" stroke-width="1px"></line><line x1="41.171875" y1="113.10000000000002" x2="36.171875" y2="113.10000000000002" style="visibility: inherit;" fill="rgb(0, 0, 0)" stroke="rgb(204, 204, 204)" stroke-width="1px"></line><line x1="41.171875" y1="75.39999999999998" x2="36.171875" y2="75.39999999999998" style="visibility: inherit;" fill="rgb(0, 0, 0)" stroke="rgb(204, 204, 204)" stroke-width="1px"></line><line x1="41.171875" y1="37.69999999999999" x2="36.171875" y2="37.69999999999999" style="visibility: inherit;" fill="rgb(0, 0, 0)" stroke="rgb(204, 204, 204)" stroke-width="1px"></line><line x1="41.171875" y1="0" x2="36.171875" y2="0" style="visibility: inherit;" fill="rgb(0, 0, 0)" stroke="rgb(204, 204, 204)" stroke-width="1px"></line></g><g transform="translate(31.171875, 0)"><text x="0" y="377" dx="0em" dy="0.3em" style="text-anchor: end; visibility: hidden; font-family: Roboto, sans-serif; font-size: 12px; font-weight: 200;" fill="rgb(255, 255, 255)" stroke="none" stroke-width="1px">560</text><text x="0" y="339.3" dx="0em" dy="0.3em" style="text-anchor: end; visibility: inherit; font-family: Roboto, sans-serif; font-size: 12px; font-weight: 200;" fill="rgb(255, 255, 255)" stroke="none" stroke-width="1px">580</text><text x="0" y="301.6" dx="0em" dy="0.3em" style="text-anchor: end; visibility: inherit; font-family: Roboto, sans-serif; font-size: 12px; font-weight: 200;" fill="rgb(255, 255, 255)" stroke="none" stroke-width="1px">600</text><text x="0" y="263.9" dx="0em" dy="0.3em" style="text-anchor: end; visibility: inherit; font-family: Roboto, sans-serif; font-size: 12px; font-weight: 200;" fill="rgb(255, 255, 255)" stroke="none" stroke-width="1px">620</text><text x="0" y="226.2" dx="0em" dy="0.3em" style="text-anchor: end; visibility: inherit; font-family: Roboto, sans-serif; font-size: 12px; font-weight: 200;" fill="rgb(255, 255, 255)" stroke="none" stroke-width="1px">640</text><text x="0" y="188.5" dx="0em" dy="0.3em" style="text-anchor: end; visibility: inherit; font-family: Roboto, sans-serif; font-size: 12px; font-weight: 200;" fill="rgb(255, 255, 255)" stroke="none" stroke-width="1px">660</text><text x="0" y="150.8" dx="0em" dy="0.3em" style="text-anchor: end; visibility: inherit; font-family: Roboto, sans-serif; font-size: 12px; font-weight: 200;" fill="rgb(255, 255, 255)" stroke="none" stroke-width="1px">680</text><text x="0" y="113.10000000000002" dx="0em" dy="0.3em" style="text-anchor: end; visibility: inherit; font-family: Roboto, sans-serif; font-size: 12px; font-weight: 200;" fill="rgb(255, 255, 255)" stroke="none" stroke-width="1px">700</text><text x="0" y="75.39999999999998" dx="0em" dy="0.3em" style="text-anchor: end; visibility: inherit; font-family: Roboto, sans-serif; font-size: 12px; font-weight: 200;" fill="rgb(255, 255, 255)" stroke="none" stroke-width="1px">720</text><text x="0" y="37.69999999999999" dx="0em" dy="0.3em" style="text-anchor: end; visibility: inherit; font-family: Roboto, sans-serif; font-size: 12px; font-weight: 200;" fill="rgb(255, 255, 255)" stroke="none" stroke-width="1px">740</text><text x="0" y="0" dx="0em" dy="0.3em" style="text-anchor: end; visibility: hidden; font-family: Roboto, sans-serif; font-size: 12px; font-weight: 200;" fill="rgb(255, 255, 255)" stroke="none" stroke-width="1px">760</text></g><line x1="41.171875" y1="0" x2="41.171875" y2="377" fill="rgb(0, 0, 0)" stroke="rgb(204, 204, 204)" stroke-width="1px"></line></g></g><g transform="translate(41, 0)" clip-path="url(#clip_0)"><clipPath id="clip_0"><rect width="1243" height="377"></rect></clipPath><g><g><g><line x1="0" y1="0" x2="0" y2="377" fill="rgb(0, 0, 0)" stroke="rgb(189, 189, 189)" stroke-width="1px" opacity="0.25"></line><line x1="82.87720833333333" y1="0" x2="82.87720833333333" y2="377" fill="rgb(0, 0, 0)" stroke="rgb(189, 189, 189)" stroke-width="1px" opacity="0.25"></line><line x1="165.75441666666666" y1="0" x2="165.75441666666666" y2="377" fill="rgb(0, 0, 0)" stroke="rgb(189, 189, 189)" stroke-width="1px" opacity="0.25"></line><line x1="248.63162499999999" y1="0" x2="248.63162499999999" y2="377" fill="rgb(0, 0, 0)" stroke="rgb(189, 189, 189)" stroke-width="1px" opacity="0.25"></line><line x1="331.5088333333333" y1="0" x2="331.5088333333333" y2="377" fill="rgb(0, 0, 0)" stroke="rgb(189, 189, 189)" stroke-width="1px" opacity="0.25"></line><line x1="414.38604166666664" y1="0" x2="414.38604166666664" y2="377" fill="rgb(0, 0, 0)" stroke="rgb(189, 189, 189)" stroke-width="1px" opacity="0.25"></line><line x1="497.26324999999997" y1="0" x2="497.26324999999997" y2="377" fill="rgb(0, 0, 0)" stroke="rgb(189, 189, 189)" stroke-width="1px" opacity="0.25"></line><line x1="580.1404583333333" y1="0" x2="580.1404583333333" y2="377" fill="rgb(0, 0, 0)" stroke="rgb(189, 189, 189)" stroke-width="1px" opacity="0.25"></line><line x1="663.0176666666666" y1="0" x2="663.0176666666666" y2="377" fill="rgb(0, 0, 0)" stroke="rgb(189, 189, 189)" stroke-width="1px" opacity="0.25"></line><line x1="745.894875" y1="0" x2="745.894875" y2="377" fill="rgb(0, 0, 0)" stroke="rgb(189, 189, 189)" stroke-width="1px" opacity="0.25"></line><line x1="828.7720833333333" y1="0" x2="828.7720833333333" y2="377" fill="rgb(0, 0, 0)" stroke="rgb(189, 189, 189)" stroke-width="1px" opacity="0.25"></line><line x1="911.6492916666665" y1="0" x2="911.6492916666665" y2="377" fill="rgb(0, 0, 0)" stroke="rgb(189, 189, 189)" stroke-width="1px" opacity="0.25"></line><line x1="994.5264999999999" y1="0" x2="994.5264999999999" y2="377" fill="rgb(0, 0, 0)" stroke="rgb(189, 189, 189)" stroke-width="1px" opacity="0.25"></line><line x1="1077.4037083333333" y1="0" x2="1077.4037083333333" y2="377" fill="rgb(0, 0, 0)" stroke="rgb(189, 189, 189)" stroke-width="1px" opacity="0.25"></line><line x1="1160.2809166666666" y1="0" x2="1160.2809166666666" y2="377" fill="rgb(0, 0, 0)" stroke="rgb(189, 189, 189)" stroke-width="1px" opacity="0.25"></line><line x1="1243.158125" y1="0" x2="1243.158125" y2="377" fill="rgb(0, 0, 0)" stroke="rgb(189, 189, 189)" stroke-width="1px" opacity="0.25"></line></g><g><line x1="0" y1="377" x2="1243.158125" y2="377" fill="rgb(0, 0, 0)" stroke="rgb(189, 189, 189)" stroke-width="1px" opacity="0.25"></line><line x1="0" y1="339.3" x2="1243.158125" y2="339.3" fill="rgb(0, 0, 0)" stroke="rgb(189, 189, 189)" stroke-width="1px" opacity="0.25"></line><line x1="0" y1="301.6" x2="1243.158125" y2="301.6" fill="rgb(0, 0, 0)" stroke="rgb(189, 189, 189)" stroke-width="1px" opacity="0.25"></line><line x1="0" y1="263.9" x2="1243.158125" y2="263.9" fill="rgb(0, 0, 0)" stroke="rgb(189, 189, 189)" stroke-width="1px" opacity="0.25"></line><line x1="0" y1="226.2" x2="1243.158125" y2="226.2" fill="rgb(0, 0, 0)" stroke="rgb(189, 189, 189)" stroke-width="1px" opacity="0.25"></line><line x1="0" y1="188.5" x2="1243.158125" y2="188.5" fill="rgb(0, 0, 0)" stroke="rgb(189, 189, 189)" stroke-width="1px" opacity="0.25"></line><line x1="0" y1="150.8" x2="1243.158125" y2="150.8" fill="rgb(0, 0, 0)" stroke="rgb(189, 189, 189)" stroke-width="1px" opacity="0.25"></line><line x1="0" y1="113.10000000000002" x2="1243.158125" y2="113.10000000000002" fill="rgb(0, 0, 0)" stroke="rgb(189, 189, 189)" stroke-width="1px" opacity="0.25"></line><line x1="0" y1="75.39999999999998" x2="1243.158125" y2="75.39999999999998" fill="rgb(0, 0, 0)" stroke="rgb(189, 189, 189)" stroke-width="1px" opacity="0.25"></line><line x1="0" y1="37.69999999999999" x2="1243.158125" y2="37.69999999999999" fill="rgb(0, 0, 0)" stroke="rgb(189, 189, 189)" stroke-width="1px" opacity="0.25"></line><line x1="0" y1="0" x2="1243.158125" y2="0" fill="rgb(0, 0, 0)" stroke="rgb(189, 189, 189)" stroke-width="1px" opacity="0.25"></line></g></g></g><g><g><line x1="0" y1="1432.6" x2="1243.158125" y2="1432.6" fill="rgb(0, 0, 0)" stroke="rgb(153, 153, 153)" stroke-width="1.5px"></line></g></g><g><g><line x1="82.87720833333333" y1="0" x2="82.87720833333333" y2="377" fill="rgb(0, 0, 0)" stroke="rgb(153, 153, 153)" stroke-width="1.5px"></line></g></g><g><g><g><g><g><path stroke="rgb(255, 112, 67)" stroke-width="2px" d="M84.5347525,119.07173614501954L84.94913854166666,162.83662997975054L87.83326539166666,163.89432908846356L89.49080955833334,155.46429179207036L89.90519559999998,141.82347103934768L91.54616432499999,158.0745304224799L91.96055036666667,134.72858836596376L92.37493640833333,134.7908953561443L93.20370849166666,137.4415948740565L93.61809453333332,151.54991509823998L94.86125265833333,133.85321562215478L95.6734493,165.2339759294368L98.15976555,172.76478645343144L100.62950635833333,162.19872238873606L101.45827844166665,181.6784184841146L104.75679133333333,184.52236486654775L105.17117737499998,157.79452670015812L105.58556341666666,163.39064877043825L106.41433549999999,156.35546654711067L108.05530422499999,138.23344815677387L109.29846235,127.90201028483068L110.54162047499999,127.23346984767865L110.95600651666666,110.8785755969418L111.37039255833332,104.75475784041636L112.1825892,147.6327524440072L113.01136128333333,167.67926951115294L113.42574732499999,173.3388574804272L113.84013336666666,144.68950682490666L114.25451940833332,149.39137947652546L115.08329149166666,132.45704146429213L115.49767753333333,123.7390058618511L118.38180438333333,139.21308233360082L119.21057646666665,147.70682776028292L119.62496250833333,149.50913281365413L120.85154519166666,123.63871897882493L122.09470331666665,123.11573373429876L123.75224748333333,112.90701340225709L128.6917291,138.73174472522612L129.10611514166666,122.59228914764951L130.34927326666667,108.47083456240114L131.59243139166665,105.01103452550907L132.0068174333333,114.57392020542216L133.23340011666664,96.33661073605667L136.13410240833332,105.9380885777155L138.60384321666666,107.38134035097754L140.26138738333333,102.7381002513987L141.073584025,60.77562076505094L141.90235610833332,79.79390163371718L142.73112819166667,77.39163748447004L143.14551423333333,95.76034835171042L145.61525504166667,79.12063450585649L146.02964108333333,89.15767538268739L149.328153975,107.93450349894485L150.1569260583333,121.266081309319L150.5713121,113.74394555345397L151.814470225,115.83861391211342L155.11298311666667,138.02053016806198L156.35614124166665,153.06520844403246L157.582723925,148.38489908125416L158.41149600833333,124.86454876021224L160.89781225833332,134.8761548083161L161.7100089,147.3613867685873L162.12439494166665,170.61245426257045L163.36755306666666,151.3799166814046L163.78193910833335,153.9333125573282L164.19632515,141.4082312039319L166.25167991666666,137.74025274836043L167.49483804166667,117.61410682438584L167.90922408333333,119.96075197438392L168.323610125,126.73801518221478L170.37896489166667,99.62806152449497L170.7933509333333,82.27338589539339L171.207736975,104.75218558709115L172.4508951,83.50905047973842L174.50624986666665,112.90548764912002L175.74940799166666,132.95967146306046L176.16379403333335,138.90246625217654L176.57818007499998,140.32611224078286L176.99256611666664,121.35744946697453L178.21914879999997,142.61861651287705L179.04792088333332,131.6181767616474L179.87669296666667,144.5220326320815L180.70546505,137.82572752995623L181.53423713333333,87.58726134615972L182.346433775,128.63761321575205L183.5895919,112.03925381157251L184.00397794166665,77.55824231653705L184.4183639833333,90.35399273559003L184.832750025,114.98262316198387L185.66152210833332,135.70927017334992L188.13126291666663,117.22826011743867L191.84416185,103.90643045867171L192.67293393333333,93.62407270168565L193.50170601666667,89.36575210577952L195.14267474166664,111.6371396637428L195.55706078333333,133.4713230209677L195.971446825,131.9541649147263L199.26995971666668,127.27766904138248L199.68434575833334,132.5126810425908L201.34188992499998,127.76510082038978L201.75627596666666,131.1588674492729L202.17066200833332,117.95225927747921L203.39724469166666,131.54376887216497L207.11014362499998,154.31149023077916L207.52452966666664,129.0267271215065L208.76768779166665,125.40045272895105L209.596459875,128.09749168443548L210.42523195833334,139.4124668658725L211.65181464166668,147.26122653145254L212.48058672499997,145.3965065212356L212.89497276666665,139.09917394963068L213.72374484999997,145.55455018271022L214.55251693333332,132.5585525595377L215.364713575,149.70460632903L216.19348565833332,133.72356796669814L218.26541586666664,133.39399931619062L218.6798019083333,142.34812023056193L219.49199854999998,121.07997917482115L219.90638459166667,128.6304188940544L223.61928352500001,126.34891975171702L224.4480556083333,121.93907390432693L224.86244165,112.77813057214023L226.10559977499997,126.33834761998055L228.16095454166665,120.50356501367389L228.989726625,107.08197829765783L229.40411266666663,78.0453033569444L230.64727079166664,93.00563666626728L231.87385347499998,77.32428883655322L233.94578368333333,78.5781466863198L234.77455576666668,93.80458131201573L235.1889418083333,83.21583127754185L237.65868261666665,96.04628681981633L238.0730686583333,83.32019236933051L238.90184074166666,60.65502735872676L240.54280946666663,100.8230962690288L241.37158154999997,83.01088558900372L241.78596759166663,106.58012339130664L243.44351175833333,84.82829963075054L244.67009444166666,101.52015596344918L245.08448048333332,111.20898316733437L245.49886652499998,83.886376321382L247.15641069166665,32.12984852628568L249.2117654583333,49.75511103993333L249.6261515,54.60561483732837L250.04053754166665,32.39894213539742L250.4549235833333,49.102785434719465L250.869309625,57.46781336021176L251.28369566666666,68.9819915384276L254.58220855833332,95.86746786840325L255.82536668333333,96.51215753107581L256.637563325,111.73088051101092L259.9526516583333,95.05698604764906L262.00800642499996,90.8249812367722L262.4223924666666,91.52424559376793L262.83677850833334,103.92222734776654L263.25116455,109.09022067297768L263.66555059166666,137.19016240565463L265.30651931666665,120.95356381823554L267.37844952499995,128.45978153799916L268.2072216083333,97.40964831561311L270.262576375,121.49123804334137L270.67696241666664,87.58740859200884L272.33450658333334,100.46626243042176L273.146703225,85.30633511731077L273.5610892666666,94.73108231771323L274.80424739166665,57.61712609163746L276.04740551666663,32.72017326170491L276.46179155833335,72.0792888857325L278.10276028333334,43.516115867473665L278.51714632499994,76.2468657324756L280.17469049166664,82.38446778641469L282.6444313,59.33428748466997L283.05881734166667,98.86632686182766L283.4732033833333,105.95102005083798L284.30197546666665,91.30380867059628L284.7163615083333,56.04036348763036L285.52855815,46.914381058772946L286.3573302333333,64.79423376384621L286.77171627499996,88.16494181462404L287.1861023166666,108.94116364645757L287.60048835833334,109.39582367727624L289.655843125,122.03528281188635L290.4846152083333,141.0672540901466L290.89900125,137.76160764825894L291.31338729166663,166.34361509987517L292.14215937499995,146.46984383285212L294.19751414166666,121.55038610535988L294.6119001833333,100.05859473664245L296.26944435,53.038463581274655L296.6838303916666,75.55924884771241L297.91041307499995,95.64464100248065L298.7391851583333,86.42593107478321L300.39672932499997,106.3246371039108L300.8111153666667,109.02556729231752L302.4520840916667,127.6848604224933L302.8664701333333,74.03841999594056L303.280856175,105.12602833553734L303.69524221666666,93.51008348233704L304.5240143,79.84234435682544L304.93840034166664,73.26382088986577L306.57936906666663,93.43851635874596L306.99375510833335,73.88131582123934L307.40814115,92.49746483707463L308.2369132333333,75.93196812276881L309.4800713583333,85.1229049991707L311.53542612499996,95.18564601773016L313.19297029166665,106.77455008228422L313.60735633333326,105.74925002952271L315.2483250583333,95.83029170157408L316.49148318333334,111.64528948773291L316.90586922499995,27.713617253229373L317.32025526666666,37.54889285606901L317.7346413083333,46.42032561570352L318.54683795,85.82252776619762L318.96122399166666,97.9986467556744L320.20438211666664,70.82615767892322L320.6187681583333,74.3453741569845L321.0331542,86.19552512400061L321.4475402416666,69.50411822766962L323.0885089666666,87.24798163632182L325.9892112583333,77.09048414859912L327.6301799833333,88.04838199483972L328.044566025,100.89190319350696L328.8733381083333,111.57338008701743L329.28772415,125.74556943005287L329.7021101916667,120.07398575924014L330.92869287499997,143.1707353134505L331.7574649583333,149.0983677772768L332.58623704166666,134.12477437524615L333.415009125,93.74966020842425L333.82939516666664,108.81748233022311L335.47036389166664,96.30354060967174L336.29913597499996,113.75576257594005L337.54229409999994,93.68069405096074L337.95668014166665,92.46665972483272L340.8408069916666,104.87847339185548L341.25519303333334,73.56058628152536L341.66957907499994,89.2506148343236L343.7249338416666,107.0009620002374L344.96809196666663,102.10894103932631L345.79686405,69.61646646068273L347.437832775,83.85493033107161L349.0953769416667,103.73249795416211L350.7529211083333,110.4820235007747L351.56511774999996,131.65572095493687L351.9795037916667,119.19614504931512L352.808275875,86.68564757333893L353.6370479583333,94.16684484186472L354.051434,89.7962231214831L354.4658200416667,107.03455857761621L355.69240272499997,127.41273162322791L356.52117480833334,81.0925702173142L356.93556084999994,56.83914528249118L357.34994689166666,52.961853541005574L357.7643329333333,67.9951784906669L359.00749105833336,60.51231497642581L359.8196877,88.6151674805684L361.89161790833333,111.26542741706199L362.72038999166665,115.52682391118168L364.36135871666664,100.7494980513037L364.7757447583333,99.86324009709425L365.6045168416666,92.46521225131542L366.433288925,82.95701789965133L367.2620610083333,78.59859108810564L368.4886436916666,88.8488156110392L368.9030297333333,105.58204107543258L370.1461878583333,119.15201929845706L370.9749599416666,118.63612469056059L371.3893459833333,82.64452919623415L373.44470075,88.36659832432669L375.1022449166667,117.33988646618883L376.74321364166667,109.14983016378339L377.15759968333333,106.68998786513679L377.571985725,114.93941920945332L377.98637176666665,95.16901519954703L378.40075780833337,119.84907000857947L380.8704986166666,92.36038516933573L381.69927069999994,105.66934728577122L382.11365674166666,125.13583493963948L382.5280427833333,121.7460174106285L382.942428825,97.6759483629771L383.35681486666664,81.26514182039266L384.99778359166663,107.05021929990957L385.826555675,123.99017307170418L389.12506856666664,119.31389266508552L390.3682266916666,144.9896162840169L392.8379675,155.27887776111652L393.25235354166665,139.50540367228353L393.6667395833333,125.07918647074493L394.9098977083333,75.22374074070302L395.73866979166667,89.95542323650974L396.15305583333327,71.52198376555687L396.96525247499994,78.80089284731545L398.2084106,48.2788102958553L400.2803408083333,50.888944093085L401.50692349166667,59.167169526048134L402.33569557499993,72.25799562746231L402.75008161666665,78.6539235688624L403.57885369999997,78.92986096963928L405.219822425,99.36552868582754L405.6342084666666,114.66978539380013L406.46298054999994,111.64353806911706L408.12052471666664,79.82471422772763L408.5349107583333,76.80880752776875L409.76149344166663,83.61244346768025L411.0046515666666,84.18451075086257L411.83342365,64.46124825436355L413.474392375,54.39349798459728L413.8887784166667,62.846032939803905L414.71755049999996,66.07278217041166L415.5463225833333,78.88171955297956L415.960708625,67.68774885310113L416.7894807083333,63.34765262124316L417.60167735,67.13797014663793L418.4304494333333,69.21727066148442L418.84483547499997,110.81409993056839L419.2592215166667,130.08322712913215L421.72896232499994,112.0125467101191L423.38650649166664,92.73049128472984L423.80089253333335,68.97635836464279L424.21527857499996,72.78930223464461L429.17133563333334,54.250594266888L429.983532275,79.73661075000511L430.81230435833334,75.45594921079453L433.2986206083333,85.5138244512184L434.11081724999997,97.95816869300143L435.353975375,114.96984812050127L435.7683614166666,93.19398032375513L437.0115195416666,95.05655755841575L438.65248826666664,96.44009215246321L439.0668743083333,92.2550403368024L439.8956463916667,70.52521771940424L440.3100324333333,45.99014980958892L440.724418475,77.16246976539377L441.13880451666665,57.41459834261163L441.5531905583333,69.1384068281095L444.4373174083333,75.35978257630747L445.68047553333327,56.90653322821993L449.3933744666666,37.46985548631647L451.863115275,35.91184378671073L452.27750131666664,57.68087588629302L452.6918873583333,29.587622794477337L453.1062734,11.94584434846816L454.747242125,22.4050534157537L458.0623304583333,19.183569587072604L458.87452709999997,47.66223406251328L459.7032991833333,65.4704614267671L460.53207126666666,70.74404357979172L462.1896154333333,-5.873629058354764L463.001812075,23.868801852755087L464.65935624166667,66.92431278618629L465.0737422833333,53.61165392957845L465.90251436666665,81.13302609787284L466.31690040833325,74.47734977485865L467.1290970499999,93.56685672594601L467.9578691333333,101.13575976065238L468.37225517499996,92.66484002947816L469.61541329999994,97.04583788025383L470.4441853833333,103.4925931079746L472.91392619166663,133.75959447245717L473.3283122333333,109.89422458408903L474.57147035833333,92.69399831603998L476.2124390833333,100.96921343304449L477.4555972083333,74.05657327398073L478.2843692916666,64.21681686795849L479.9253380166667,64.01789561738546L480.3397240583333,41.315635635783075L481.99726822499997,46.368435454081265L482.41165426666663,39.55689029148958L488.59429400833335,29.61781786346653L489.00868004999995,21.68737503128203L489.42306609166667,46.61849623161422L491.0806102583333,72.10283856696404L492.30719294166664,74.23009716533184L493.5503510666666,98.19983959166L494.37912314999994,60.59822710014841L494.79350919166666,83.1957476480825L496.4344779166666,84.54364569862848L496.8488639583333,96.32517650075864L497.67763604166663,115.32340953075558L498.9207941666666,79.97312299965395L499.3351802083333,73.48555795644722L500.5617628916666,74.3936543024233L500.9761489333333,82.70595663230172L502.2193070583333,67.51892165677131L504.27466182499995,34.51630082380248L504.68904786666667,59.020875267823804L505.51781995,34.68513993967387L506.3465920333333,26.589401760261897L508.40194679999996,41.618221582525194L508.8163328416666,44.58277149570701L509.64510492499994,32.953141249387436L510.05949096666666,29.456306510069137L510.47387700833326,19.951196783610897L510.88826305,37.51005610179908L511.7170351333333,49.750934199237754L513.7723898999999,55.14851728175149L514.6011619833333,40.08764025884703L515.0155480249999,65.09472962040206L516.65651675,93.84973895693773L518.3140609166667,105.63967463069616L519.5572190416666,105.64310842312803L521.1981877666666,104.82794625141423L521.6125738083333,86.8014549846327L523.270117975,91.34344073045392L524.0988900583333,93.85323236385673L524.9110866999999,98.5458267416138L525.7398587833333,92.74812742518439L526.5686308666667,97.72113600549048L526.9830169083333,72.7872821423198L528.2261750333333,42.58346468712379L530.6959158416666,48.68440385764667L531.524687925,77.98420034561646L531.9390739666667,46.84772707664819L533.16565665,63.574639788614554L533.5800426916667,107.6370231816199L535.2375868583333,59.20200262239746L537.2929416249999,76.45024909519987L538.1217137083333,84.8149987990131L538.9504857916667,89.90125187537362L539.779257875,91.44089154103315L540.6080299583333,84.42191771886L541.4202266,88.47038210657117L542.663384725,100.69790968651384L543.0777707666666,81.80361054154598L543.4921568083333,18.442112095879132L544.3209288916667,5.628113721021773L546.7906697,74.63035501975423L547.6194417833333,90.17534333194315L548.4482138666666,49.13379453157883L548.8625999083333,59.75214100486882L549.67479655,47.70367420999984L551.7467267583332,48.64774900998818L553.802081525,48.69094862950141L554.6308536083334,40.722801095094205L555.04523965,63.38182026363632L557.9293664999999,90.23076002438918L558.3437525416666,96.33133075364464L558.7581385833333,85.86504325240479L559.1725246249999,107.420077243236L559.5869106666667,96.17215740278479L561.2444548333333,87.02037089972272L562.8854235583333,86.03369093473762L565.3717398083334,73.70435950270506L566.18393645,62.46332569974503L567.427094575,79.08509407258533L568.2558666583333,77.21929555662027L568.6702527,69.47228685789584L569.0846387416666,66.2186034250387L570.311221425,62.79083447028091L571.55437955,55.19500206742894L572.3831516333332,46.867625928401445L573.2119237166667,59.24784565720519L573.6263097583333,52.31874235677206L574.4385063999999,16.019956899496407L574.8528924416667,13.479455883114198L575.2672784833333,22.58501279493779L575.681664525,36.53682353165182L576.92482265,25.58481950194148L577.3392086916666,18.432764886710665L578.5657913749999,30.243324702923967L578.9801774166666,56.74208589800374L579.3945634583333,65.17362159710845L580.6377215833334,54.80697536455803L581.052107625,64.18290536871612L581.4664936666667,52.28343399613838L583.5218484333333,48.868242023615196L586.820361325,36.38893439455797L587.6491334083333,56.082461198993315L588.4779054916667,-9.109370666564097L588.8922915333333,24.311445324664835L589.306677575,45.89796280758768L590.9476463,35.72780336594611L591.7764183833333,69.79237516744163L592.6051904666666,56.139789539816555L593.0195765083333,74.1974587569732L593.8483485916666,50.841529418455465L596.3180894,69.20363452724497L597.1468614833333,24.652783396366413L597.561247525,49.64100446876519L599.20221625,55.50801346138755L599.6166022916666,76.18886049108646L600.4453743749999,84.4922739990339L600.8597604166666,78.1775118127513L601.6885325,51.869076933476755L602.1029185416667,11.760462740152493L603.329501225,68.36557269740354L603.7438872666667,65.81232068798712L604.1582733083333,50.818493133934815L605.4014314333333,51.13448077725043L606.6445895583333,61.285954293098726L608.6999443249999,45.89410117167306L609.5287164083333,17.55154416001489L610.3574884916666,40.61868708266468L610.7718745333333,50.61193987510151L611.584071175,32.840912386448L611.9984572166667,53.112834715435405L614.8991595083332,46.73732872219147L616.1257421916666,52.657287850895486L616.954514275,64.3015550478729L618.1976724,37.37770141803251L621.0817992499999,51.78395016620683L621.4961852916666,74.66476368201847L622.324957375,60.50374180397548L622.7393434166667,22.557668670741897L623.1537294583333,4.8170656098025555L625.209084225,57.343646976666626L626.0378563083333,54.74960201696733L626.8666283916666,77.50778980176975L628.093211075,88.62835422842622L628.5075971166666,99.87381365814062L628.9219831583332,45.39070044448756L630.1651412833332,28.214471329207615L630.579527325,56.20033949465431L630.9939133666666,39.5939602109553L632.22049605,18.875106040490927L632.6348820916666,32.21532779890024L633.8780402166666,48.43243295044118L635.5355843833333,62.48012683239864L636.347781025,69.38395056856771L636.7621670666666,61.321473802538485L637.5909391499999,74.49573280313432L639.2484833166666,89.18146437820963L639.6628693583333,68.97217673710998L641.718224125,67.06027341080109L643.7901543333334,18.065829906847767L645.0167370166668,34.974909181863644L646.6742811833333,41.57352111358393L647.9174393083333,54.46547207320981L648.7296359499999,42.27585629963569L650.8015661583333,40.00269666926643L651.6303382416667,19.11635156619151L652.8569209249999,35.52572060194932L653.2713069666667,70.90931350339577L653.6856930083333,56.22761109666423L654.5144650916667,81.8665724881239L655.7576232166667,96.59335333568082L656.1720092583333,122.43346906959566L656.9842058999999,85.4747294351427L657.3985919416666,76.0188161893167L658.2273640249999,81.48016376416228L659.0561361083332,66.95573154775538L659.4705221499999,46.07277676238385L661.1114908750001,7.512700294947883L661.5258769166667,50.626320992596305L664.0121931666666,27.135887890618108L666.0675479333332,53.93393707519071L668.1394781416666,54.401594117916744L668.5538641833333,42.81169043698506L669.366060825,55.51194670310626L671.0236049916666,43.662800161656875L672.2667631166667,72.64000418054272L674.736503925,90.65887157872376L675.97966205,57.46064211194263L678.4494028583333,73.48150498983455L678.8637888999999,66.70192937789378L680.106947025,56.18097486262132L682.1623017916666,54.010526367457835L683.8198459583333,41.27074531879264L686.2895867666666,46.97364843213909L688.361516975,-8.132313834319097L689.1902890583333,39.77276575298837L690.8312577833333,65.18305754808807L691.2456438249999,81.32387813766557L692.0744159083333,68.84463409944205L695.3729288,65.37734939939453L699.5002137749999,67.19771287791598L699.9145998166666,48.79502480799821L700.7433718999999,60.50138275256159L701.1577579416667,75.20160293655877L702.7987266666667,74.78764006096226L703.2131127083333,75.76257863349394L704.0418847916667,75.72266322826022L705.6994289583333,52.39563232618834L706.9260116416666,83.19670391983577L708.5835558083332,83.79391619359211L708.9979418500001,57.278267000797726L709.4123278916667,68.21957596305842L709.8267139333333,34.323837512519745L710.638910575,60.41211045309985L712.2964547416666,64.77790563137889L713.5396128666666,66.8590408084203L713.9539989083332,54.42646650534728L716.0093536749999,48.5490590549638L718.0812838833332,49.394699553806674L718.893480525,81.68522853043795L720.5510246916666,84.47190353209758L721.7941828166666,88.4208440081129L723.8495375833334,86.6120214697416L732.518493575,70.25996657300851L732.9328796166666,87.2986232685863L734.5904237833333,46.612162142502754L739.5299054,64.75039075805272L739.9442914416667,85.97769619909394L741.6018356083333,84.14686307789123L742.4306076916666,53.13279890550045L742.8449937333332,26.608714147180414L743.6571903749999,44.586912647167004L744.0715764166666,52.22363014330017L745.3147345416667,43.91242455367923L746.5578926666667,52.20598701301482L747.78447535,69.47600609465736L748.6132474333333,-33.14087767343714L749.0276334749999,-11.812784079657794L749.8564055583332,17.799586392042457L750.2707915999999,52.57421093219338L751.0995636833333,53.13393556757443L751.911760325,71.64065724105193L752.3261463666666,42.10061225989857L752.7405324083333,37.94778579018095L753.15491845,22.9778887433122L753.9836905333333,27.896375758013967L757.282203425,22.937168474945572L758.52536155,40.528389392422675L758.9397475916667,7.78313914574077L760.166330275,12.50024195768258L763.0670325666666,39.36493252345384L765.1223873333333,22.47530643463063L765.9511594166665,46.880912868499266L766.3655454583334,31.87530102577182L767.6087035833334,29.28102095973947L768.420900225,45.26457230731562L770.0784443916666,56.552531578255646L770.4928304333333,52.645908060589534L770.9072164749999,57.721446494463315L771.7359885583334,72.38365097385876L775.03450145,53.08946449517773L775.4488874916666,63.26498546766927L775.8632735333333,73.70798817941926L777.0898562166666,94.1511234638747L777.9186282999999,147.62398796279817L778.3330143416665,188.85793229051149L781.6315272333333,206.94830394613155L783.7034574416667,228.95687959578825L786.5875842916666,254.2757689641221L787.8307424166667,282.85314688694604L788.2451284583333,313.7180247202764L789.8860971833333,329.8300057014102L793.184610075,333.46993151173905L794.4277682000001,329.9385820020649L794.8421542416667,354.68767567537117L795.2565402833333,330.28090938023064L799.3838252583332,338.46101757812426L800.6269833833333,342.4903517089839L801.439180025,335.6358791918942L802.2679521083332,344.4502349716795L803.0967241916666,324.5818806972168L803.5111102333333,335.5397414453271L803.925496275,339.9336643486431L804.3398823166666,342.15826108897204L805.9808510416666,339.4778184068118L806.809623125,325.26495207178004L807.6383952083332,328.39572179082217L808.05278125,326.9281815231069L808.4671672916666,334.20278434766897L810.1081360166665,341.1399224625577L812.180066225,319.5053298180287L814.6498070333333,318.9816577219853L815.0641930749999,289.3461133167666L815.4785791166665,293.690290002889L817.1361232833333,287.4252802420125L817.948319925,311.9720152917231L818.3627059666666,319.7390374742256L822.0756048999999,336.7419880971923L822.9043769833333,317.0115353447924L823.318763025,303.77786783217505L824.1475351083333,285.5790623226105L827.0316619583333,290.64962789706755L827.8604340416666,318.1491085159844L828.6892061249999,337.0549027251052L829.1035921666667,341.22832604209515L831.1589469333333,351.1929654975329L832.8164910999999,321.15529929798015L833.6452631833333,323.46571387259974L835.2862319083333,324.04878520276316L835.7006179499999,340.95984321493233L837.7725481583333,350.03856233907567L838.5847448000001,335.86781742885694L839.4135168833333,345.3775906389204L840.2422889666666,363.2975945141388L840.6566750083333,363.03128265159654L841.07106105,352.7726204208149L841.4854470916666,312.33364035536135L842.712029775,287.7560518498272L843.5408018583332,284.20588650239864L845.198346025,305.6749282909369L846.0271181083333,303.3960030263121L847.2537007916666,318.37890695240293L848.4968589166666,315.00280151707284L848.9112449583332,314.1570309472048L850.9665997249999,316.43297809004514L852.20975785,325.34209024774844L853.0385299333332,309.8409925313341L853.452915975,325.84260367696305L854.2816880583332,325.7656927215792L855.9226567833333,313.8403243216094L856.3370428249999,325.2873789721481L856.7514288666666,330.10774804417565L857.1658149083333,322.5086349041164L859.6355557166665,315.9934358208209L860.0499417583334,300.6970978846333L860.4643278,309.87072779658695L862.1218719666666,337.9358976412044L862.5362580083333,312.22509615279824L863.7628406916665,329.6706894077888L864.5916127749999,314.66539756347953L865.8347709,326.18340366064666L866.6635429833333,299.1636083925308L867.475739625,300.35354592482037L867.8901256666667,330.6863150025988L868.3045117083333,323.897699798694L870.7908279583334,313.58789898384174L872.846182725,312.05330556432403L873.2605687666667,307.4097165744703L873.6749548083333,315.3113309295218L874.0893408499999,307.6165812173156L876.5590816583333,290.67837262970886L880.2719805916666,289.84507992648963L880.6863666333333,279.71620130376726L882.3439107999999,301.7631114509671L883.1726828833332,319.4269882573763L884.8136516083332,310.160981868054L885.22803765,347.581137594503L885.6424236916666,348.2993404445701L886.0568097333332,327.0969816400565L886.8855818166667,341.8770861226491L887.2999678583333,309.41138533468256L888.9409365833333,322.1363150406742L891.0128667916666,330.33105773550324L891.4272528333332,326.67208385967643L892.6538355166666,330.76837041441996L893.8969936416667,329.05682251641224L897.1955065333334,325.8261627243792L897.609892575,306.4872842744971L898.0242786166666,337.60009795455034L899.2674367416666,353.8254737195523L901.3227915083334,358.74491018645034L901.73717755,332.9627205167458L902.1515635916666,335.57167676162436L903.3947217166666,326.2223145107249L903.8091077583333,316.8852595312868L905.0356904416666,346.1418055122328L905.8644625249999,318.30299539542824L906.6932346083333,329.69791309149696L908.7485893749999,374.9777680001074L909.5773614583333,370.9081557397235L912.0636777083333,370.47912793260144L913.2902603916667,366.5545899312389L914.9478045583332,338.9341802370235L917.4175453666667,328.06661992201987L919.0750895333333,354.72405786509154L920.3182476583332,342.41188741108175L921.1304442999999,327.9479122216927L921.9592163833332,291.40025944141524L922.3736024249998,308.83079849131497L923.2023745083333,321.2582170554929L923.6167605499999,333.59667729284905L924.0311465916667,337.92535510475005L925.257729275,323.28024109651835L925.6721153166666,352.4937203422698L926.0865013583333,360.9954496375381L929.38501425,344.3053296388547L929.7994002916666,333.4539972877256L930.2137863333332,338.5520623836345L930.628172375,355.25084204500905L931.8713305,344.5719846036255L935.998615475,376.16108535901236L938.0539702416665,363.01592530917L938.4683562833333,379.1440467947881L938.882742325,363.7645254138224L939.2971283666666,350.42801681921674L940.9546725333332,350.7889357785788L941.766869175,375.6129751377787L942.5956412583333,346.0988975073337L943.0100272999999,315.56315724072937L943.8387993833334,323.1048835304246L945.0819575083333,316.26784715171726L946.7229262333333,325.38892797324297L947.137312275,315.54451795285206L947.9660843583333,306.96949453721135L948.7948564416665,310.53988805837207L950.0214391249999,305.9768678994054L952.0933693333333,324.61870239652717L954.1487240999999,343.4191463955865L955.3918822249999,347.0081349903382L957.0494263916665,329.05694800275825L958.2760090749999,325.96734944177456L958.6903951166667,299.68338395860735L959.1047811583333,304.1850110744921L960.3479392833333,296.54719424506425L962.8176800916666,312.9116908787715L965.3039963416667,334.3034024872103L965.7183823833333,321.90952676057844L966.5305790249998,331.87726220774675L967.7737371499999,318.27080836842083L969.0168952749999,339.0186612558438L970.657864,356.4642649359755L971.0722500416666,334.8632981993236L972.7297942083333,338.9935061272219L973.14418025,336.02815088329373L973.5585662916666,322.17420107118653L975.1995350166666,329.85317018098294L976.0283071,311.71902170847505L977.271465225,329.6466459454443L977.6858512666666,324.60642709467214L978.9124339499999,325.09921222310646L980.155592075,327.5992676784889L981.8131362416666,322.5054932343173L982.2275222833332,329.4571708865807L983.039718925,335.415618985841L983.4541049666666,316.22452099760824L983.8684910083332,340.29416430159733L984.6972630916666,346.3313512293797L985.1116491333332,318.7740316759954L985.526035175,308.11278771885105L985.9404212166666,326.3845504022191L988.8245480666666,322.1071010225201L989.6533201499999,325.90202735638906L990.4820922333333,313.43431911285114L991.2942888749999,311.97662188973806L991.7086749166666,308.4249448320939L992.1230609583333,315.27953035219235L992.5374469999999,321.404856610304L993.3662190833334,327.42508453321864L994.1949911666666,308.0599235836535L994.6093772083333,308.44593613258087L996.2503459333333,326.9740910838223L996.6647319749999,355.99017268811895L997.9078900999999,356.0090090347596L1007.8034287749999,356.30663573106995L1008.2178148166666,350.4188678511045L1009.8753589833333,357.44555319889815L1010.2897450249999,368.6810653703323L1010.7041310666666,370.7181398937541L1011.9307137499999,376.4623803902275L1012.3450997916666,348.4539727001611L1013.1738718749999,336.3354053407962L1014.4170299999998,336.03659175247327L1014.8314160416667,334.07721630803L1016.057998725,343.18842336386325L1016.4723847666667,340.5069127426437L1016.8867708083333,322.57789067766305L1018.544314975,336.44778769555563L1018.9587010166666,345.5439985670647L1020.1852837,306.6724161539277L1020.5996697416666,302.9385660330912L1021.8428278666667,337.62232956666975L1022.67159995,347.2173271688367L1025.1413407583332,337.9110608724337L1025.5557268,327.0139459188091L1025.9701128416666,341.4577231417014L1026.3844988833332,323.53780512497224L1030.9261698999999,339.95920464583025L1031.3405559416665,347.01029450940547L1032.5671386249999,355.6214277447185L1034.2246827916665,332.5523062450335L1035.8822269583334,309.42770693133787L1036.6944236,310.2933290560379L1038.7663538083334,308.8208518541191L1039.5951258916666,311.39876991238526L1040.0095119333332,302.68437056708757L1041.2360946166666,311.5681081640512L1041.6504806583332,330.9967616828535L1042.0648666999998,336.23657262501894L1043.7224108666665,316.99785907725936L1044.1367969083333,315.59129655061486L1044.9489935499998,312.9595597765924L1045.3633795916667,303.75997642003074L1046.1921516749999,302.3165765421172L1047.4353098,317.11696777625946L1047.8496958416667,337.8090757466044L1048.2640818833333,312.6050742140293L1049.076278525,332.07831891759383L1050.31943665,339.030622406134L1050.7338226916665,338.9035840607586L1052.3913668583332,349.5358593369157L1053.2035635,341.031966404005L1054.8611076666666,325.19897197230534L1055.2754937083332,311.8473524631332L1056.1042657916666,328.9025513567615L1056.5186518333333,320.8176791382095L1057.330848475,329.1629188842953L1058.1596205583332,315.3979175171024L1058.5740066,320.85585454834876L1061.8725194916667,336.028864388678L1062.2869055333333,338.1023752686077L1062.701291575,344.55059005618944L1063.9444497,329.15334910500655L1065.9998044666665,323.76144013766464L1068.4861207166666,295.89913019719535L1068.9005067583332,301.0545438785153L1070.955861525,307.7291621602731L1071.3702475666666,310.93055651756214L1073.0277917333333,298.7252924858774L1073.8399883749998,279.88556600720415L1074.2543744166667,320.1419944716444L1074.6687604583333,336.6135665708248L1077.96727335,339.8272205375657L1079.6248175166666,343.75312133186253L1080.4535896,347.6747058063272L1080.8679756416666,358.7060604828862L1084.1664885333332,344.2244713419266L1084.9952606166667,337.3483721268486L1086.2218432999998,340.45382844533697L1087.0506153833333,341.9405501815113L1089.1225455916665,332.7132747449778L1091.5922864,320.75336214570325L1092.4210584833334,327.88207377787114L1092.835444525,349.1816212917265L1093.2498305666666,348.1187943280366L1094.8907992916666,368.76240926448884L1096.1339574166666,363.6727471540876L1096.9627294999998,372.0694250830565L1097.3771155416666,349.21718691360826L1098.6036982249998,360.1244621749749L1099.0180842666666,373.3079023310761L1099.4324703083332,354.9215551608061L1101.5044005166667,315.87495793629466L1101.9187865583333,326.1426709643418L1102.7309832,317.6999179233303L1103.5597552833333,337.94481449457345L1104.3885273666667,331.3903771652444L1107.2726542166665,310.9880828633274L1108.5158123416666,278.8719998927569L1109.7589704666666,288.02032619446106L1111.3999391916666,335.66837799432585L1112.228711275,307.77650732674107L1116.7703822916667,324.50083759942186L1118.0135404166665,332.6062578283844L1118.427926458333,340.88627388196863L1121.3120533083334,329.8804738401807L1122.1408253916666,307.3751485216226L1122.5552114333334,309.3466910928214L1125.853724325,322.87276793245553L1126.6824964083332,338.0606345131681L1128.7378511749998,326.66397635526255L1129.1522372166664,343.29937179707247L1130.8097813833333,338.6039460306558L1133.6939082333333,326.58503275978916L1134.108294275,324.534013623991L1134.5226803166668,304.3471637848406L1137.8211932083332,336.0151383981677L1140.2909340166666,344.0196447302798L1140.7053200583332,344.6069204701314L1141.1197060999998,342.12210400316417L1141.9484781833332,358.6419211969902L1142.7772502666667,325.9363657424341L1144.8326050333333,331.06779265910814L1145.2469910749999,345.70457531425654L1146.4901492,352.0780425942473L1148.9598900083333,348.4509282473697L1151.4462062583332,344.74322289327586L1152.6727889416666,354.0695107250001L1153.9159470666666,353.56633527239273L1156.385687875,334.3008917829601L1157.2144599583332,326.26426612429276L1157.628846,332.6463911026786L1158.0432320416667,328.61853886586925L1158.8720041249999,329.87403171050295L1159.2863901666665,328.14051107064313L1159.7007762083333,323.9749806132196L1161.3417449333333,339.67943244365796L1161.756130975,340.7918996771134L1162.1705170166665,341.5171279002L1163.8280611833331,326.298441129261L1165.0546438666665,339.34469086445733L1166.2978019916666,329.7804980521416L1167.5409601166666,333.41598205935077L1169.1819288416666,331.99545230360604L1170.4250869666666,354.88258412961414L1171.2538590499998,304.36492873325915L1173.7235998583333,311.46045768164066L1176.2099161083333,317.92891958979504L1178.6796569166668,311.1213360590479L1179.508429,318.3266174617925L1180.3372010833332,312.67227214635034L1181.149397725,305.7502220942421L1181.5637837666666,292.0373370150417L1181.9781698083332,304.04387590076374L1182.3925558499998,328.3463410907397L1182.8069418916666,315.89836079110563L1184.0501000166666,316.043733840395L1187.3486129083333,320.921491770552L1188.5917710333333,345.05129457507974L1189.403967675,339.14153755021186L1190.6471258,323.91060134007984L1192.3046699666666,329.19018528131744L1196.4319549416666,346.15971566493977L1198.0729236666666,330.8532100841101L1199.7304678333333,299.28259923172874L1200.144853875,288.1233393291535L1200.9736259583333,259.7800724547237L1201.7858225999998,255.92582589530855L1202.6145946833333,273.3898749711984L1203.0289807249999,296.95011264463386L1204.27213885,351.51338263847526L1205.913107575,349.1374818606046L1207.5706517416666,365.2713445717103L1208.399423825,361.646637977541L1209.2281959083334,324.81675928569473" style="fill: none;" fill="none"></path></g></g></g></g><g opacity="0.2"><g><g><g><path stroke="rgb(255, 112, 67)" stroke-width="2px" d="M84.5347525,119.07173614501954L84.94913854166666,193.4720556640625L87.83326539166666,165.15299102783203L89.49080955833334,142.5410446166992L89.90519559999998,117.63693176269533L91.54616432499999,189.6205993652344L91.96055036666667,86.66351928710935L92.37493640833333,134.92430541992186L93.20370849166666,143.27000946044922L93.61809453333332,183.1409118652344L94.86125265833333,93.72732208251952L95.6734493,237.00791625976564L98.15976555,190.0934600830078L100.62950635833333,137.783444519043L101.45827844166665,226.82277252197267L104.75679133333333,191.12673553466794L105.17117737499998,95.6368280029297L105.58556341666666,176.41789093017576L106.41433549999999,139.96677246093748L108.05530422499999,95.9969384765625L109.29846235,103.81455718994143L110.54162047499999,125.67441345214844L110.95600651666666,72.73207611083983L111.37039255833332,90.46976043701173L112.1825892,247.66223907470703L113.01136128333333,214.44820312500002L113.42574732499999,186.54332305908204L113.84013336666666,77.84541473388674L114.25451940833332,160.36191101074218L115.08329149166666,92.94485839843752L115.49767753333333,103.39738128662108L118.38180438333333,175.31869110107422L119.21057646666665,167.52534820556642L119.62496250833333,153.71447875976563L120.85154519166666,63.274746704101574L122.09470331666665,121.89543945312501L123.75224748333333,89.08672912597658L128.6917291,198.9893392944336L129.10611514166666,84.93360839843751L130.34927326666667,75.52080383300779L131.59243139166665,96.93817291259768L132.0068174333333,136.88731018066406L133.23340011666664,53.78290191650389L136.13410240833332,128.34153198242188L138.60384321666666,110.7489273071289L140.26138738333333,91.90387451171877L141.073584025,-37.136824035644516L141.90235610833332,124.16988800048827L142.73112819166667,71.78635467529296L143.14551423333333,138.62067260742185L145.61525504166667,40.29463623046875L146.02964108333333,112.57743713378906L149.328153975,151.74710205078125L150.1569260583333,152.3730960083008L150.5713121,96.19229553222655L151.814470225,120.7261734008789L155.11298311666667,189.77833465576174L156.35614124166665,188.16945770263672L157.582723925,137.46417724609378L158.41149600833333,69.98373138427736L160.89781225833332,158.2365689086914L161.7100089,176.49359466552735L162.12439494166665,224.8649450683594L163.36755306666666,106.50399566650391L163.78193910833335,159.89123626708982L164.19632515,112.18304138183595L166.25167991666666,129.18163635253907L167.49483804166667,70.65309967041014L167.90922408333333,125.43625732421874L168.323610125,142.5516293334961L170.37896489166667,36.371502990722675L170.7933509333333,41.77914276123045L171.207736975,157.2027182006836L172.4508951,33.94173522949218L174.50624986666665,181.49717437744144L175.74940799166666,179.7527670288086L176.16379403333335,152.7689874267578L176.57818007499998,143.64795288085938L176.99256611666664,77.09723632812499L178.21914879999997,192.22800628662108L179.04792088333332,105.95048400878906L179.87669296666667,174.63102966308594L180.70546505,122.20101562499998L181.53423713333333,-29.635826416015593L182.346433775,224.42176757812499L183.5895919,73.30974853515623L184.00397794166665,-2.89745117187496L184.4183639833333,120.21074371337892L184.832750025,172.44942749023434L185.66152210833332,184.07144653320316L188.13126291666663,74.10590332031249L191.84416185,72.82216125488283L192.67293393333333,69.63190460205078L193.50170601666667,79.42967071533201L195.14267474166664,163.6037106323242L195.55706078333333,184.4177508544922L195.971446825,128.4141293334961L199.26995971666668,116.36584533691405L199.68434575833334,144.72770904541017L201.34188992499998,116.68741363525389L201.75627596666666,139.07765625L202.17066200833332,87.13684020996095L203.39724469166666,163.25729125976562L207.11014362499998,207.43617340087889L207.52452966666664,70.02894653320311L208.76768779166665,116.93914581298829L209.596459875,134.39058258056642L210.42523195833334,165.8140756225586L211.65181464166668,165.57499908447267L212.48058672499997,141.04549316406252L212.89497276666665,124.40539794921877L213.72374484999997,160.6170947265625L214.55251693333332,102.23455810546875L215.364713575,189.7120651245117L216.19348565833332,96.43447845458984L218.26541586666664,132.62500579833986L218.6798019083333,163.2410690307617L219.49199854999998,71.4543167114258L219.90638459166667,146.24811157226563L223.61928352500001,121.02542175292967L224.4480556083333,111.64943359374999L224.86244165,91.40259613037108L226.10559977499997,157.97885406494137L228.16095454166665,106.88907226562502L228.989726625,75.76494262695311L229.40411266666663,10.293061828613299L230.64727079166664,127.91308105468748L231.87385347499998,40.73447723388671L233.94578368333333,81.50381500244141L234.77455576666668,129.3329287719727L235.1889418083333,58.50874786376954L237.65868261666665,125.98401641845703L238.0730686583333,53.62597198486327L238.90184074166666,7.769642333984372L240.54280946666663,194.5485903930664L241.37158154999997,41.44906066894531L241.78596759166663,161.5750115966797L243.44351175833333,34.07404418945312L244.67009444166666,140.46782073974612L245.08448048333332,133.8162466430664L245.49886652499998,20.13362701416017L247.15641069166665,-88.63538299560544L249.2117654583333,90.88072357177737L249.6261515,65.92345703124998L250.04053754166665,-19.416627502441422L250.4549235833333,88.0784197998047L250.869309625,76.98621185302736L251.28369566666666,95.84840728759767L254.58220855833332,158.6002459716797L255.82536668333333,98.01643341064452L256.637563325,147.2412341308594L259.9526516583333,56.1512322998047L262.00800642499996,80.95030334472656L262.4223924666666,93.15586242675784L262.83677850833334,132.85085144042966L263.25116455,121.14887176513673L263.66555059166666,202.75669311523438L265.30651931666665,83.06816711425779L267.37844952499995,145.97428955078124L268.2072216083333,24.959337463378905L270.262576375,177.68161407470703L270.67696241666664,8.47847320556641L272.33450658333334,130.51692138671876L273.146703225,49.93317138671877L273.5610892666666,116.72215911865234L274.80424739166665,-28.982105102539037L276.04740551666663,-25.372716674804646L276.46179155833335,163.91722534179686L278.10276028333334,-23.131287841796837L278.51714632499994,152.61861541748047L280.17469049166664,96.70553924560548L282.6444313,5.55053344726561L283.05881734166667,191.10775207519532L283.4732033833333,122.48197082519532L284.30197546666665,57.1269821166992L284.7163615083333,-26.241008605957006L285.52855815,25.620422058105458L286.3573302333333,106.5138900756836L286.77171627499996,142.69659393310545L287.1861023166666,157.41901458740233L287.60048835833334,110.45669708251955L289.655843125,151.52735412597653L290.4846152083333,185.4751870727539L290.89900125,130.0484326171875L291.31338729166663,233.03496582031246L292.14215937499995,100.09771087646484L294.19751414166666,63.404984741210946L294.6119001833333,49.911081542968745L296.26944435,-56.67517578125002L296.6838303916666,128.10774780273437L297.91041307499995,142.51055603027345L298.7391851583333,64.91560791015624L300.39672932499997,152.75495117187498L300.8111153666667,115.32773773193358L302.4520840916667,171.2232110595703L302.8664701333333,-51.13660766601563L303.280856175,177.66378112792967L303.69524221666666,66.40621215820313L304.5240143,47.95095306396485L304.93840034166664,57.91393280029297L306.57936906666663,140.51280578613282L306.99375510833335,28.247847900390642L307.40814115,135.93514587402345L308.2369132333333,37.2791424560547L309.4800713583333,106.56842437744139L311.53542612499996,118.66537506103516L313.19297029166665,133.81532623291017L313.60735633333326,103.35688323974608L315.2483250583333,72.68605560302733L316.49148318333334,148.5469509887695L316.90586922499995,-168.12695129394533L317.32025526666666,60.49786926269532L317.7346413083333,67.1203353881836L318.54683795,177.76099945068358L318.96122399166666,126.40959106445314L320.20438211666664,7.423683166503906L320.6187681583333,82.55687927246093L321.0331542,113.84587738037109L321.4475402416666,30.557502136230486L323.0885089666666,128.65032958984375L325.9892112583333,53.38965667724607L327.6301799833333,113.61681030273436L328.044566025,130.86011932373046L328.8733381083333,136.496826171875L329.28772415,158.81401123046874L329.7021101916667,106.84029052734374L330.92869287499997,197.0631509399414L331.7574649583333,162.9295101928711L332.58623704166666,99.18638977050783L333.415009125,-0.45893951416014955L333.82939516666664,143.9757339477539L335.47036389166664,67.10434326171877L336.29913597499996,154.47761383056638L337.54229409999994,46.838867492675796L337.95668014166665,89.63391296386717L340.8408069916666,133.8393719482422L341.25519303333334,0.48551635742188337L341.66957907499994,125.86068145751952L343.7249338416666,148.41843872070314L344.96809196666663,90.69422546386717L345.79686405,-6.199307556152364L347.437832775,117.0780126953125L349.0953769416667,150.11348907470702L350.7529211083333,126.23091644287108L351.56511774999996,181.0610150146484L351.9795037916667,90.12380126953126L352.808275875,10.827820129394542L353.6370479583333,111.62297180175781L354.051434,79.5981057739258L354.4658200416667,147.25734130859374L355.69240272499997,174.96180206298828L356.52117480833334,-26.987806396484388L356.93556084999994,0.24782043457032255L357.34994689166666,43.914839477539054L357.7643329333333,103.07293670654296L359.00749105833336,43.05230010986326L359.8196877,154.1884899902344L361.89161790833333,164.11603393554685L362.72038999166665,125.47008239746096L364.36135871666664,66.26907104492186L364.7757447583333,97.79530487060549L365.6045168416666,75.20314727783204L366.433288925,60.77123107910155L367.2620610083333,68.42892852783201L368.4886436916666,112.76600616455077L368.9030297333333,144.62623382568358L370.1461878583333,150.81530181884764L370.9749599416666,117.43237060546873L371.3893459833333,-1.3358602905273504L373.44470075,101.71809295654298L375.1022449166667,184.94422546386718L376.74321364166667,90.0396987915039L377.15759968333333,100.95035583496094L377.571985725,134.18809234619144L377.98637176666665,49.03807250976561L378.40075780833337,177.43586456298831L380.8704986166666,28.220120544433613L381.69927069999994,136.7235922241211L382.11365674166666,170.55763946533204L382.5280427833333,113.83644317626953L382.942428825,41.51245391845701L383.35681486666664,42.973259887695306L384.99778359166663,167.21540008544923L385.826555675,163.51673187255858L389.12506856666664,108.4025717163086L390.3682266916666,204.8996380615234L392.8379675,179.28715454101564L393.25235354166665,102.70063079833983L393.6667395833333,91.41801300048826L394.9098977083333,-41.105632629394506L395.73866979166667,124.3293490600586L396.15305583333327,28.51062500000002L396.96525247499994,95.78501403808592L398.2084106,-22.93938232421871L400.2803408083333,56.97925628662107L401.50692349166667,78.4830288696289L402.33569557499993,102.80325653076173L402.75008161666665,93.5777554321289L403.57885369999997,79.57371490478515L405.219822425,147.04875335693362L405.6342084666666,150.3797177124023L406.46298054999994,104.58229431152346L408.12052471666664,5.580791931152341L408.5349107583333,69.77169189453127L409.76149344166663,99.48759399414064L411.0046515666666,85.51933441162112L411.83342365,18.440302429199228L413.474392375,30.90208068847655L413.8887784166667,82.56861450195314L414.71755049999996,73.60186370849611L415.5463225833333,108.76924011230469L415.960708625,41.56848388671876L416.7894807083333,53.22076141357424L417.60167735,75.98204437255858L418.4304494333333,74.06897186279296L418.84483547499997,207.87336822509764L419.2592215166667,175.04452392578125L421.72896232499994,69.84762573242188L423.38650649166664,47.73902862548827L423.80089253333335,13.550048217773456L424.21527857499996,81.68617126464844L429.17133563333334,10.993609008789072L429.983532275,139.2039825439453L430.81230435833334,65.46773895263674L433.2986206083333,108.98220001220704L434.11081724999997,126.99497192382812L435.353975375,154.66376678466796L435.7683614166666,42.38362213134765L437.0115195416666,99.40257110595701L438.65248826666664,99.66833953857423L439.0668743083333,82.48991943359376L439.8956463916667,19.822298278808592L440.3100324333333,-11.258341979980502L440.724418475,149.89788299560547L441.13880451666665,11.336231689453122L441.5531905583333,96.49395996093752L444.4373174083333,89.87632598876951L445.68047553333327,13.848951416015638L449.3933744666666,-7.88239257812503L451.863115275,32.27648315429689L452.27750131666664,108.47528411865235L452.6918873583333,-35.963301086425766L453.1062734,-29.218305358886678L454.747242125,46.80987457275391L458.0623304583333,11.666773986816398L458.87452709999997,114.11245117187502L459.7032991833333,107.02299194335939L460.53207126666666,83.04906860351561L462.1896154333333,-184.64819854736328L463.001812075,93.26780731201173L464.65935624166667,167.38717163085934L465.0737422833333,22.54878326416015L465.90251436666665,145.34956115722656L466.31690040833325,58.947438354492206L467.1290970499999,138.10903961181643L467.9578691333333,118.79653350830077L468.37225517499996,72.89936065673828L469.61541329999994,107.26816619873046L470.4441853833333,118.53502197265624L472.91392619166663,204.38259765625L473.3283122333333,54.20836151123045L474.57147035833333,52.560137023925776L476.2124390833333,120.27804870605468L477.4555972083333,11.260412902832027L478.2843692916666,41.25738525390625L479.9253380166667,63.553746032714855L480.3397240583333,-11.656304321289056L481.99726822499997,58.158301696777364L482.41165426666663,23.663284912109358L488.59429400833335,6.426648864746095L489.00868004999995,3.183008422851561L489.42306609166667,104.79111236572264L491.0806102583333,131.5663040161133L492.30719294166664,79.19370056152344L493.5503510666666,154.12923858642577L494.37912314999994,-27.13886871337889L494.79350919166666,135.92329559326174L496.4344779166666,87.68874114990233L496.8488639583333,123.81541503906249L497.67763604166663,159.65261993408205L498.9207941666666,-2.5108789062499763L499.3351802083333,58.347906188964856L500.5617628916666,76.51254577636718L500.9761489333333,102.10132873535154L502.2193070583333,32.0825067138672L504.27466182499995,-42.48981445312503L504.68904786666667,116.19821563720701L505.51781995,-22.09824249267582L506.3465920333333,7.699346008300771L508.40194679999996,76.68546783447268L508.8163328416666,51.50005462646485L509.64510492499994,5.817337341308606L510.05949096666666,21.297025451660158L510.47387700833326,-2.2273925781249835L510.88826305,78.48072784423827L511.7170351333333,78.31298309326174L513.7723898999999,67.7428778076172L514.6011619833333,4.945593872070319L515.0155480249999,123.44460479736327L516.65651675,160.9447607421875L518.3140609166667,133.14952453613282L519.5572190416666,105.65112060546873L521.1981877666666,102.92590118408204L521.6125738083333,44.739642028808575L523.270117975,101.94140747070313L524.0988900583333,99.70941284179688L524.9110866999999,109.4952136230469L525.7398587833333,79.22016235351562L526.5686308666667,109.3248226928711L526.9830169083333,14.608289794921888L528.2261750333333,-27.892109374999997L530.6959158416666,62.919928588867194L531.524687925,146.35039215087892L531.9390739666667,-25.804043884277363L533.16565665,102.60410278320312L533.5800426916667,210.4492510986328L535.2375868583333,-53.81304534912107L537.2929416249999,116.6961575317383L538.1217137083333,104.33274810791015L538.9504857916667,101.76917572021483L539.779257875,95.03338409423829L540.6080299583333,68.04431213378905L541.4202266,97.91679901123045L542.663384725,129.22880737304686L543.0777707666666,37.7169125366211L543.4921568083333,-129.40138427734374L544.3209288916667,-24.271215820312484L546.7906697,235.63558471679684L547.6194417833333,126.4469827270508L548.4482138666666,-46.62981933593749L548.8625999083333,84.52828277587889L549.67479655,19.59058502197266L551.7467267583332,50.850590209960934L553.802081525,48.791747741699204L554.6308536083334,22.13045684814452L555.04523965,116.25286499023436L557.9293664999999,152.8782861328125L558.3437525416666,110.56599578857424L558.7581385833333,61.44370574951171L559.1725246249999,157.71515655517578L559.5869106666667,69.92701110839846L561.2444548333333,65.66620239257814L562.8854235583333,83.73143768310547L565.3717398083334,44.9359194946289L566.18393645,36.23424682617189L567.427094575,117.86922027587892L568.2558666583333,72.86576568603518L568.6702527,51.395933227539075L569.0846387416666,58.626675415039074L570.311221425,54.79270690917968L571.55437955,37.47139312744141L572.3831516333332,27.43708160400391L573.2119237166667,88.13502502441406L573.6263097583333,36.150834655761734L574.4385063999999,-68.67720916748043L574.8528924416667,7.551620178222644L575.2672784833333,43.83131225585939L575.681664525,69.09104858398439L576.92482265,0.03014343261717578L577.3392086916666,1.7446374511718683L578.5657913749999,57.801297607421866L578.9801774166666,118.57252868652346L579.3945634583333,84.84720489501953L580.6377215833334,30.61813415527342L581.052107625,86.06007537841799L581.4664936666667,24.518000793457023L583.5218484333333,40.899460754394525L586.820361325,7.2705499267577975L587.6491334083333,102.03402374267577L588.4779054916667,-161.2236450195312L588.8922915333333,102.29334930419923L589.306677575,96.26650360107422L590.9476463,11.997431335449228L591.7764183833333,149.27637603759766L592.6051904666666,24.283756408691392L593.0195765083333,116.33202026367186L593.8483485916666,-3.655639038085914L596.3180894,112.04854644775389L597.1468614833333,-79.29920257568362L597.561247525,107.94685363769531L599.20221625,69.19770111083983L599.6166022916666,124.44417022705078L600.4453743749999,103.86690551757813L600.8597604166666,63.4430667114258L601.6885325,-9.517271118164075L602.1029185416667,-81.82630371093754L603.329501225,200.44416259765626L603.7438872666667,59.85473266601561L604.1582733083333,15.832895507812498L605.4014314333333,51.87178527832033L606.6445895583333,84.97272583007812L608.6999443249999,9.979777221679667L609.5287164083333,-48.581088867187475L610.3574884916666,94.44202056884764L610.7718745333333,73.92952972412111L611.584071175,-8.624818420410174L611.9984572166667,100.41398681640624L614.8991595083332,31.861148071289055L616.1257421916666,66.4705258178711L616.954514275,91.47151184082031L618.1976724,-25.444623718261678L621.0817992499999,85.3985305786133L621.4961852916666,128.05332855224611L622.324957375,27.46135742187501L622.7393434166667,-65.98316864013673L623.1537294583333,-36.577674865722656L625.209084225,179.90567016601562L626.0378563083333,48.69683044433592L626.8666283916666,130.61022796630857L628.093211075,114.57633789062501L628.5075971166666,126.11321899414062L628.9219831583332,-81.73656372070313L630.1651412833332,-11.863396606445306L630.579527325,121.50069854736327L630.9939133666666,0.8457418823242003L632.22049605,-29.468887023925813L632.6348820916666,63.342511901855474L633.8780402166666,86.2723449707031L635.5355843833333,95.2580792236328L636.347781025,85.49287261962888L636.7621670666666,42.50902801513673L637.5909391499999,105.23567047119138L639.2484833166666,123.44817138671876L639.6628693583333,21.81717224121093L641.718224125,62.599165649414054L643.7901543333334,-96.25453826904301L645.0167370166668,74.42942749023439L646.6742811833333,56.97028228759765L647.9174393083333,84.54669097900391L648.7296359499999,13.833419494628895L650.8015661583333,34.698657531738284L651.6303382416667,-29.618453674316438L652.8569209249999,73.81424835205078L653.2713069666667,153.47103027343752L653.6856930083333,21.970305480957038L654.5144650916667,141.6908157348633L655.7576232166667,130.95584197998045L656.1720092583333,182.72707244873047L656.9842058999999,-0.7623297119140859L657.3985919416666,53.95501861572267L658.2273640249999,94.22330810546876L659.0561361083332,33.06538970947267L659.4705221499999,-2.654117736816433L661.1114908750001,-82.46081146240232L661.5258769166667,151.22476928710935L664.0121931666666,-27.675122680664053L666.0675479333332,116.46271850585939L668.1394781416666,55.49279388427736L668.5538641833333,15.768581848144528L669.366060825,85.14587799072264L671.0236049916666,16.01479156494142L672.2667631166667,140.25348022460938L674.736503925,132.7028955078125L675.97966205,-20.001893310546837L678.4494028583333,110.86351837158202L678.8637888999999,50.88291961669923L680.106947025,31.632080993652337L682.1623017916666,48.946146545410166L683.8198459583333,11.544589538574222L686.2895867666666,60.28042236328123L688.361516975,-136.71289245605467L689.1902890583333,151.55128479003906L690.8312577833333,124.47373840332031L691.2456438249999,118.98579284667969L692.0744159083333,39.72639801025391L695.3729288,57.28701843261717L699.5002137749999,71.44522766113282L699.9145998166666,5.8554193115234225L700.7433718999999,87.81621795654299L701.1577579416667,109.50211669921876L702.7987266666667,73.8217266845703L703.2131127083333,78.03743530273438L704.0418847916667,75.62952728271483L705.6994289583333,-2.0341064453125335L706.9260116416666,155.0658709716797L708.5835558083332,85.18741149902343L708.9979418500001,-4.591581115722616L709.4123278916667,93.749296875L709.8267139333333,-44.76621887207035L710.638910575,121.28474731445311L712.2964547416666,74.96476104736328L713.5396128666666,71.71502288818361L713.9539989083332,25.417126464843758L716.0093536749999,34.83510833740235L718.0812838833332,51.367860717773425L718.893480525,157.02979614257814L720.5510246916666,90.97414520263672L721.7941828166666,97.63503845214845L723.8495375833334,82.39143554687499L732.518493575,32.10517181396482L732.9328796166666,127.05548889160157L734.5904237833333,-48.3229138183594L739.5299054,107.07292419433595L739.9442914416667,135.50807556152344L741.6018356083333,79.87491912841796L742.4306076916666,-19.233350830078138L742.8449937333332,-35.280816955566394L743.6571903749999,86.53604248046875L744.0715764166666,70.04263763427736L745.3147345416667,24.519611511230455L746.5578926666667,71.55763275146485L747.78447535,109.77271728515626L748.6132474333333,-272.58027313232424L749.0276334749999,37.952767639160164L749.8564055583332,86.89511749267578L750.2707915999999,133.7150015258789L751.0995636833333,54.439959716796864L751.911760325,114.8230078125L752.3261463666666,-26.82615936279295L752.7405324083333,28.25785736083985L753.15491845,-11.951871032714864L753.9836905333333,39.372845458984386L757.282203425,11.365684814453136L758.52536155,81.57457153320311L758.9397475916667,-68.62244476318362L760.166330275,23.506815185546873L763.0670325666666,102.0492105102539L765.1223873333333,-16.933821105957016L765.9511594166665,103.82732788085936L766.3655454583334,-3.1377932739258183L767.6087035833334,23.227700805664078L768.420900225,82.55952545166015L770.0784443916666,82.8911032104492L770.4928304333333,43.53045318603515L770.9072164749999,69.56436950683594L771.7359885583334,106.59546142578127L775.03450145,8.069696044921892L775.4488874916666,87.0078677368164L775.8632735333333,98.07499450683592L777.0898562166666,141.8517724609375L777.9186282999999,272.3940051269531L778.3330143416665,285.07046905517575L781.6315272333333,249.15917114257815L783.7034574416667,280.31022277832034L786.5875842916666,313.3531774902344L787.8307424166667,349.5336953735351L788.2451284583333,385.7360729980469L789.8860971833333,367.4246279907226L793.184610075,341.96309173583984L794.4277682000001,321.6987664794922L794.8421542416667,412.43556091308596L795.2565402833333,273.3317880249023L799.3838252583332,357.547936706543L800.6269833833333,351.89213134765623L801.439180025,319.64210998535157L802.2679521083332,365.01706512451176L803.0967241916666,278.22238739013676L803.5111102333333,361.10808319091797L803.925496275,350.1861511230469L804.3398823166666,347.34898681640624L805.9808510416666,333.2234521484375L806.809623125,292.1015972900391L807.6383952083332,335.7008511352539L808.05278125,323.50392089843746L808.4671672916666,351.1768576049805L810.1081360166665,357.3265780639648L812.180066225,269.02461364746097L814.6498070333333,317.7597561645508L815.0641930749999,220.19650970458983L815.4785791166665,303.8267022705078L817.1361232833333,272.8069241333008L817.948319925,369.2477304077148L818.3627059666666,337.8620892333985L822.0756048999999,376.41553955078126L822.9043769833333,270.9738122558594L823.318763025,272.89931030273436L824.1475351083333,243.11518280029296L827.0316619583333,302.4809475708008L827.8604340416666,382.314563293457L828.6892061249999,381.1684225463867L829.1035921666667,350.9663137817383L831.1589469333333,374.4437908935547L832.8164910999999,251.06741149902345L833.6452631833333,328.85668121337886L835.2862319083333,325.4092849731445L835.7006179499999,380.41897857666015L837.7725481583333,371.2222402954102L838.5847448000001,302.80274597167966L839.4135168833333,367.56706146240236L840.2422889666666,405.11093688964837L840.6566750083333,362.4098883056641L841.07106105,328.8357418823242L841.4854470916666,217.9760202026367L842.712029775,230.4083453369141L843.5408018583332,275.92216735839844L845.198346025,355.76935913085936L846.0271181083333,298.0785107421875L847.2537007916666,353.3390161132812L848.4968589166666,307.12522216796873L848.9112449583332,312.1835662841797L850.9665997249999,321.7435214233398L852.20975785,346.13001861572263L853.0385299333332,273.6717645263672L853.452915975,363.1796963500977L854.2816880583332,325.58623382568356L855.9226567833333,286.01446472167964L856.3370428249999,351.9971731567383L856.7514288666666,341.35527587890624L857.1658149083333,304.77737091064455L859.6355557166665,300.79130462646486L860.0499417583334,265.0056427001953L860.4643278,331.27586425781254L862.1218719666666,403.4212939453125L862.5362580083333,252.23322601318358L863.7628406916665,370.37707366943357L864.5916127749999,279.65304992675783L865.8347709,353.05875122070313L866.6635429833333,236.11741943359374L867.475739625,303.1300668334961L867.8901256666667,401.46277618408203L868.3045117083333,308.05759765625L870.7908279583334,289.53169708251954L872.846182725,308.4725875854492L873.2605687666667,296.57467559814455L873.6749548083333,333.7484310913086L874.0893408499999,289.66216522216797L876.5590816583333,251.15588592529298L880.2719805916666,287.9007302856445L880.6863666333333,256.082151184082L882.3439107999999,353.2059017944336L883.1726828833332,360.64270080566405L884.8136516083332,288.5403002929687L885.22803765,434.8948342895507L885.6424236916666,349.9751470947266L886.0568097333332,277.62481109619137L886.8855818166667,376.3639965820313L887.2999678583333,233.65808349609375L888.9409365833333,351.8278176879883L891.0128667916666,349.4521240234375L891.4272528333332,318.13447814941406L892.6538355166666,340.3263723754883L893.8969936416667,325.06321075439456L897.1955065333334,318.28795654296874L897.609892575,261.3632345581055L898.0242786166666,410.1966632080078L899.2674367416666,391.68468383789065L901.3227915083334,370.2235952758789L901.73717755,272.80427795410156L902.1515635916666,341.65924133300786L903.3947217166666,304.40713592529295L903.8091077583333,295.09879791259766L905.0356904416666,414.40707946777337L905.8644625249999,253.34577178955078L906.6932346083333,356.2860543823242L908.7485893749999,480.6307627868652L909.5773614583333,361.41239379882813L912.0636777083333,369.4780630493164L913.2902603916667,357.39733459472654L914.9478045583332,274.48655761718754L917.4175453666667,302.7089791870117L919.0750895333333,416.9247463989258L920.3182476583332,313.6834896850586L921.1304442999999,294.19863677978515L921.9592163833332,206.12240295410157L922.3736024249998,349.50205627441403L923.2023745083333,350.2555270385742L923.6167605499999,362.3864178466797L924.0311465916667,348.02560333251955L925.257729275,289.10830841064455L925.6721153166666,420.6585052490234L926.0865013583333,380.83281799316404L929.38501425,305.36171630859377L929.7994002916666,308.1342218017578L930.2137863333332,350.4475476074219L930.628172375,394.21466125488286L931.8713305,319.65465057373046L935.998615475,449.86898712158205L938.0539702416665,332.3438851928711L938.4683562833333,416.77633026123044L938.882742325,327.8789755249024L939.2971283666666,319.3094967651367L940.9546725333332,351.6310800170898L941.766869175,433.5357336425781L942.5956412583333,277.2327163696289L943.0100272999999,244.31309661865237L943.8387993833334,340.7022448730469L945.0819575083333,300.3147622680664L946.7229262333333,346.6714498901367L947.137312275,292.57422790527346L947.9660843583333,286.96110656738284L948.7948564416665,318.87080627441406L950.0214391249999,295.3298208618164L952.0933693333333,368.1163162231445L954.1487240999999,387.2868490600586L955.3918822249999,355.38244171142577L957.0494263916665,287.1708450317383L958.2760090749999,318.75828613281254L958.6903951166667,238.35413116455078L959.1047811583333,314.68880767822264L960.3479392833333,278.7256216430664L962.8176800916666,351.09551635742184L965.3039963416667,384.2173962402344L965.7183823833333,292.9904833984375L966.5305790249998,355.1353115844727L967.7737371499999,286.52241607666014L969.0168952749999,387.43031799316407L970.657864,397.17067352294924L971.0722500416666,284.4610424804688L972.7297942083333,348.6306579589844L973.14418025,329.10898864746093L973.5585662916666,289.8483181762696L975.1995350166666,347.7707647705078L976.0283071,269.406008605957L977.271465225,371.4777691650391L977.6858512666666,312.8459164428711L978.9124339499999,326.2490441894531L980.155592075,333.4327304077148L981.8131362416666,310.62001953125L982.2275222833332,345.6777520751953L983.039718925,349.31866455078125L983.4541049666666,271.44529235839843L983.8684910083332,396.4566653442383L984.6972630916666,360.4181207275391L985.1116491333332,254.4736193847656L985.526035175,283.23655181884766L985.9404212166666,369.0186633300781L988.8245480666666,312.12638580322266L989.6533201499999,334.75685546875L990.4820922333333,284.3429998779297L991.2942888749999,308.5753283691406L991.7086749166666,300.1376983642578L992.1230609583333,331.2735632324219L992.5374469999999,335.69728454589847L993.3662190833334,341.4722830200196L994.1949911666666,262.874548034668L994.6093772083333,309.34663208007817L996.2503459333333,370.2064526367188L996.6647319749999,423.69436309814455L997.9078900999999,356.0529605102539L1007.8034287749999,357.00109802246095L1008.2178148166666,336.68074279785156L1009.8753589833333,373.84115234374997L1010.2897450249999,394.89726043701165L1010.7041310666666,375.4713137817383L1011.9307137499999,389.86560821533203L1012.3450997916666,283.1010214233399L1013.1738718749999,308.05874816894527L1014.4170299999998,335.33936004638673L1014.8314160416667,329.5053402709961L1016.057998725,364.4479064941406L1016.4723847666667,334.2500546264649L1016.8867708083333,280.743505859375L1018.544314975,368.81088073730473L1018.9587010166666,366.76849060058595L1020.1852837,215.97205718994138L1020.5996697416666,294.2262490844726L1021.8428278666667,418.5511111450195L1022.67159995,369.60565490722655L1025.1413407583332,316.19643951416015L1025.5557268,301.58734436035155L1025.9701128416666,375.1598699951172L1026.3844988833332,281.7246630859375L1030.9261698999999,378.275803527832L1031.3405559416665,363.46283752441406L1032.5671386249999,375.7140719604492L1034.2246827916665,278.72435607910154L1035.8822269583334,255.47030853271485L1036.6944236,312.3131140136719L1038.7663538083334,305.3850717163086L1039.5951258916666,317.41391204833985L1040.0095119333332,282.35077209472655L1041.2360946166666,332.2968292236328L1041.6504806583332,376.3302865600586L1042.0648666999998,348.4627981567383L1043.7224108666665,272.1075274658203L1044.1367969083333,312.3093173217773L1044.9489935499998,306.8188406372071L1045.3633795916667,282.2942819213867L1046.1921516749999,298.94864349365236L1047.4353098,351.65121398925777L1047.8496958416667,386.09066101074217L1048.2640818833333,253.79573730468752L1049.076278525,377.51588989257806L1050.31943665,355.25266387939456L1050.7338226916665,338.6071612548828L1052.3913668583332,374.3445016479492L1053.2035635,321.1895495605469L1054.8611076666666,288.2553182983399L1055.2754937083332,280.6935736083985L1056.1042657916666,368.69801544189454L1056.5186518333333,301.9529772949219L1057.330848475,348.6351449584961L1058.1596205583332,283.2795809936523L1058.5740066,333.5910409545898L1061.8725194916667,371.4325540161133L1062.2869055333333,342.94056732177734L1062.701291575,359.5964245605469L1063.9444497,293.2264535522461L1065.9998044666665,311.18031921386716L1068.4861207166666,230.88707366943362L1068.9005067583332,313.0838424682617L1070.955861525,323.303271484375L1071.3702475666666,318.4004766845703L1073.0277917333333,270.2463430786133L1073.8399883749998,235.92620422363282L1074.2543744166667,414.0736608886719L1074.6687604583333,375.0472348022461L1077.96727335,347.3257464599609L1079.6248175166666,352.9135565185547L1080.4535896,356.8250695800781L1080.8679756416666,384.4458880615234L1084.1664885333332,310.43409667968746L1084.9952606166667,321.304140625L1086.2218432999998,347.69989318847655L1087.0506153833333,345.40956756591794L1089.1225455916665,311.1829653930664L1091.5922864,292.8468994140625L1092.4210584833334,344.5157342529297L1092.835444525,398.88056549072263L1093.2498305666666,345.63886474609376L1094.8907992916666,416.9308441162109L1096.1339574166666,351.7968688964844L1096.9627294999998,391.6616735839844L1097.3771155416666,295.89529785156253L1098.6036982249998,385.5747711181641L1099.0180842666666,404.06926269531255L1099.4324703083332,312.0200784301758L1101.5044005166667,224.76623107910157L1101.9187865583333,350.1006680297852L1102.7309832,298.00016082763676L1103.5597552833333,385.1829064941406L1104.3885273666667,316.09669006347656L1107.2726542166665,263.3827294921875L1108.5158123416666,203.93447296142577L1109.7589704666666,309.36642089843747L1111.3999391916666,446.84716552734375L1112.228711275,242.69547576904296L1116.7703822916667,363.5242749023438L1118.0135404166665,351.51890502929683L1118.427926458333,360.20631134033204L1121.3120533083334,304.2002737426758L1122.1408253916666,254.8627227783203L1122.5552114333334,313.9469570922852L1125.853724325,354.43361389160157L1126.6824964083332,373.4989898681641L1128.7378511749998,300.0717739868164L1129.1522372166664,382.1152944946289L1130.8097813833333,327.6479525756836L1133.6939082333333,298.54090179443364L1134.108294275,319.74830230712894L1134.5226803166668,257.24451416015626L1137.8211932083332,409.90707916259765L1140.2909340166666,362.696826171875L1140.7053200583332,345.9772305297852L1141.1197060999998,336.3241989135742L1141.9484781833332,397.18816131591797L1142.7772502666667,249.62340301513672L1144.8326050333333,343.04112213134766L1145.2469910749999,379.85706817626954L1146.4901492,366.9494662475586L1148.9598900083333,339.9876614379883L1151.4462062583332,336.09191040039065L1152.6727889416666,375.83084899902343L1153.9159470666666,352.3922592163086L1156.385687875,289.3481903076172L1157.2144599583332,307.5121395874024L1157.628846,347.53801605224606L1158.0432320416667,319.2202169799805L1158.8720041249999,332.80351501464844L1159.2863901666665,324.0956295776367L1159.7007762083333,314.25540954589843L1161.3417449333333,376.32315338134765L1161.756130975,343.38765655517574L1162.1705170166665,343.2093270874023L1163.8280611833331,290.7881719970703L1165.0546438666665,369.7859402465821L1166.2978019916666,307.4640481567383L1167.5409601166666,341.8987780761719L1169.1819288416666,328.68088287353515L1170.4250869666666,408.28589172363286L1171.2538590499998,186.4903994750977L1173.7235998583333,328.0166918945312L1176.2099161083333,333.02199737548824L1178.6796569166668,295.2369744873047L1179.508429,335.13894073486324L1180.3372010833332,299.4787997436523L1181.149397725,289.5987719726562L1181.5637837666666,260.04060516357424L1181.9781698083332,332.05913330078124L1182.3925558499998,385.0520932006836L1182.8069418916666,286.85307342529296L1184.0501000166666,316.3829376220703L1187.3486129083333,332.3029269409179L1188.5917710333333,401.3541677856445L1189.403967675,325.3521044921875L1190.6471258,288.37175018310546L1192.3046699666666,341.5092144775391L1196.4319549416666,385.75528656005855L1198.0729236666666,295.13803039550777L1199.7304678333333,225.6178405761719L1200.144853875,262.0850662231445L1200.9736259583333,193.6457830810547L1201.7858225999998,246.93258392333988L1202.6145946833333,314.1393228149414L1203.0289807249999,351.9240005493164L1204.27213885,478.8276792907715L1205.913107575,343.5937133789063L1207.5706517416666,402.91702423095705L1208.399423825,353.1889892578125L1209.2281959083334,238.88037567138673" style="fill: none;" fill="none"></path></g></g></g></g></g></g><g transform="translate(41, 377)" clip-path="url(#clip_1)"><clipPath id="clip_1"><rect width="1243" height="23"></rect></clipPath><g><g><line x1="0" y1="0" x2="0" y2="5" style="visibility: inherit;" fill="rgb(0, 0, 0)" stroke="rgb(204, 204, 204)" stroke-width="1px"></line><line x1="82.87720833333333" y1="0" x2="82.87720833333333" y2="5" style="visibility: inherit;" fill="rgb(0, 0, 0)" stroke="rgb(204, 204, 204)" stroke-width="1px"></line><line x1="165.75441666666666" y1="0" x2="165.75441666666666" y2="5" style="visibility: inherit;" fill="rgb(0, 0, 0)" stroke="rgb(204, 204, 204)" stroke-width="1px"></line><line x1="248.63162499999999" y1="0" x2="248.63162499999999" y2="5" style="visibility: inherit;" fill="rgb(0, 0, 0)" stroke="rgb(204, 204, 204)" stroke-width="1px"></line><line x1="331.5088333333333" y1="0" x2="331.5088333333333" y2="5" style="visibility: inherit;" fill="rgb(0, 0, 0)" stroke="rgb(204, 204, 204)" stroke-width="1px"></line><line x1="414.38604166666664" y1="0" x2="414.38604166666664" y2="5" style="visibility: inherit;" fill="rgb(0, 0, 0)" stroke="rgb(204, 204, 204)" stroke-width="1px"></line><line x1="497.26324999999997" y1="0" x2="497.26324999999997" y2="5" style="visibility: inherit;" fill="rgb(0, 0, 0)" stroke="rgb(204, 204, 204)" stroke-width="1px"></line><line x1="580.1404583333333" y1="0" x2="580.1404583333333" y2="5" style="visibility: inherit;" fill="rgb(0, 0, 0)" stroke="rgb(204, 204, 204)" stroke-width="1px"></line><line x1="663.0176666666666" y1="0" x2="663.0176666666666" y2="5" style="visibility: inherit;" fill="rgb(0, 0, 0)" stroke="rgb(204, 204, 204)" stroke-width="1px"></line><line x1="745.894875" y1="0" x2="745.894875" y2="5" style="visibility: inherit;" fill="rgb(0, 0, 0)" stroke="rgb(204, 204, 204)" stroke-width="1px"></line><line x1="828.7720833333333" y1="0" x2="828.7720833333333" y2="5" style="visibility: inherit;" fill="rgb(0, 0, 0)" stroke="rgb(204, 204, 204)" stroke-width="1px"></line><line x1="911.6492916666665" y1="0" x2="911.6492916666665" y2="5" style="visibility: inherit;" fill="rgb(0, 0, 0)" stroke="rgb(204, 204, 204)" stroke-width="1px"></line><line x1="994.5264999999999" y1="0" x2="994.5264999999999" y2="5" style="visibility: inherit;" fill="rgb(0, 0, 0)" stroke="rgb(204, 204, 204)" stroke-width="1px"></line><line x1="1077.4037083333333" y1="0" x2="1077.4037083333333" y2="5" style="visibility: inherit;" fill="rgb(0, 0, 0)" stroke="rgb(204, 204, 204)" stroke-width="1px"></line><line x1="1160.2809166666666" y1="0" x2="1160.2809166666666" y2="5" style="visibility: inherit;" fill="rgb(0, 0, 0)" stroke="rgb(204, 204, 204)" stroke-width="1px"></line><line x1="1243.158125" y1="0" x2="1243.158125" y2="5" style="visibility: inherit;" fill="rgb(0, 0, 0)" stroke="rgb(204, 204, 204)" stroke-width="1px"></line></g><g transform="translate(0, 8)"><text x="0" y="0" dx="0em" dy="0.95em" style="text-anchor: middle; visibility: hidden; font-family: Roboto, sans-serif; font-size: 12px; font-weight: 200;" fill="rgb(255, 255, 255)" stroke="none" stroke-width="1px">-20k</text><text x="82.87720833333333" y="0" dx="0em" dy="0.95em" style="text-anchor: middle; visibility: inherit; font-family: Roboto, sans-serif; font-size: 12px; font-weight: 200;" fill="rgb(255, 255, 255)" stroke="none" stroke-width="1px">0</text><text x="165.75441666666666" y="0" dx="0em" dy="0.95em" style="text-anchor: middle; visibility: inherit; font-family: Roboto, sans-serif; font-size: 12px; font-weight: 200;" fill="rgb(255, 255, 255)" stroke="none" stroke-width="1px">20k</text><text x="248.63162499999999" y="0" dx="0em" dy="0.95em" style="text-anchor: middle; visibility: inherit; font-family: Roboto, sans-serif; font-size: 12px; font-weight: 200;" fill="rgb(255, 255, 255)" stroke="none" stroke-width="1px">40k</text><text x="331.5088333333333" y="0" dx="0em" dy="0.95em" style="text-anchor: middle; visibility: inherit; font-family: Roboto, sans-serif; font-size: 12px; font-weight: 200;" fill="rgb(255, 255, 255)" stroke="none" stroke-width="1px">60k</text><text x="414.38604166666664" y="0" dx="0em" dy="0.95em" style="text-anchor: middle; visibility: inherit; font-family: Roboto, sans-serif; font-size: 12px; font-weight: 200;" fill="rgb(255, 255, 255)" stroke="none" stroke-width="1px">80k</text><text x="497.26324999999997" y="0" dx="0em" dy="0.95em" style="text-anchor: middle; visibility: inherit; font-family: Roboto, sans-serif; font-size: 12px; font-weight: 200;" fill="rgb(255, 255, 255)" stroke="none" stroke-width="1px">100k</text><text x="580.1404583333333" y="0" dx="0em" dy="0.95em" style="text-anchor: middle; visibility: inherit; font-family: Roboto, sans-serif; font-size: 12px; font-weight: 200;" fill="rgb(255, 255, 255)" stroke="none" stroke-width="1px">120k</text><text x="663.0176666666666" y="0" dx="0em" dy="0.95em" style="text-anchor: middle; visibility: inherit; font-family: Roboto, sans-serif; font-size: 12px; font-weight: 200;" fill="rgb(255, 255, 255)" stroke="none" stroke-width="1px">140k</text><text x="745.894875" y="0" dx="0em" dy="0.95em" style="text-anchor: middle; visibility: inherit; font-family: Roboto, sans-serif; font-size: 12px; font-weight: 200;" fill="rgb(255, 255, 255)" stroke="none" stroke-width="1px">160k</text><text x="828.7720833333333" y="0" dx="0em" dy="0.95em" style="text-anchor: middle; visibility: inherit; font-family: Roboto, sans-serif; font-size: 12px; font-weight: 200;" fill="rgb(255, 255, 255)" stroke="none" stroke-width="1px">180k</text><text x="911.6492916666665" y="0" dx="0em" dy="0.95em" style="text-anchor: middle; visibility: inherit; font-family: Roboto, sans-serif; font-size: 12px; font-weight: 200;" fill="rgb(255, 255, 255)" stroke="none" stroke-width="1px">200k</text><text x="994.5264999999999" y="0" dx="0em" dy="0.95em" style="text-anchor: middle; visibility: inherit; font-family: Roboto, sans-serif; font-size: 12px; font-weight: 200;" fill="rgb(255, 255, 255)" stroke="none" stroke-width="1px">220k</text><text x="1077.4037083333333" y="0" dx="0em" dy="0.95em" style="text-anchor: middle; visibility: inherit; font-family: Roboto, sans-serif; font-size: 12px; font-weight: 200;" fill="rgb(255, 255, 255)" stroke="none" stroke-width="1px">240k</text><text x="1160.2809166666666" y="0" dx="0em" dy="0.95em" style="text-anchor: middle; visibility: inherit; font-family: Roboto, sans-serif; font-size: 12px; font-weight: 200;" fill="rgb(255, 255, 255)" stroke="none" stroke-width="1px">260k</text><text x="1243.158125" y="0" dx="0em" dy="0.95em" style="text-anchor: middle; visibility: hidden; font-family: Roboto, sans-serif; font-size: 12px; font-weight: 200;" fill="rgb(255, 255, 255)" stroke="none" stroke-width="1px">280k</text></g><line x1="0" y1="0" x2="1243.158125" y2="0" fill="rgb(0, 0, 0)" stroke="rgb(204, 204, 204)" stroke-width="1px"></line></g></g></g></g></svg>