<svg viewBox="0 0 1284.3333740234375 400" xmlns="http://www.w3.org/2000/svg"><g><g><g><g><g><line x1="30.78125" y1="377" x2="25.78125" y2="377" style="visibility: inherit;" fill="rgb(0, 0, 0)" stroke="rgb(204, 204, 204)" stroke-width="1px"></line><line x1="30.78125" y1="339.3" x2="25.78125" y2="339.3" style="visibility: inherit;" fill="rgb(0, 0, 0)" stroke="rgb(204, 204, 204)" stroke-width="1px"></line><line x1="30.78125" y1="301.6" x2="25.78125" y2="301.6" style="visibility: inherit;" fill="rgb(0, 0, 0)" stroke="rgb(204, 204, 204)" stroke-width="1px"></line><line x1="30.78125" y1="263.9" x2="25.78125" y2="263.9" style="visibility: inherit;" fill="rgb(0, 0, 0)" stroke="rgb(204, 204, 204)" stroke-width="1px"></line><line x1="30.78125" y1="226.2" x2="25.78125" y2="226.2" style="visibility: inherit;" fill="rgb(0, 0, 0)" stroke="rgb(204, 204, 204)" stroke-width="1px"></line><line x1="30.78125" y1="188.5" x2="25.78125" y2="188.5" style="visibility: inherit;" fill="rgb(0, 0, 0)" stroke="rgb(204, 204, 204)" stroke-width="1px"></line><line x1="30.78125" y1="150.8" x2="25.78125" y2="150.8" style="visibility: inherit;" fill="rgb(0, 0, 0)" stroke="rgb(204, 204, 204)" stroke-width="1px"></line><line x1="30.78125" y1="113.10000000000002" x2="25.78125" y2="113.10000000000002" style="visibility: inherit;" fill="rgb(0, 0, 0)" stroke="rgb(204, 204, 204)" stroke-width="1px"></line><line x1="30.78125" y1="75.39999999999998" x2="25.78125" y2="75.39999999999998" style="visibility: inherit;" fill="rgb(0, 0, 0)" stroke="rgb(204, 204, 204)" stroke-width="1px"></line><line x1="30.78125" y1="37.69999999999999" x2="25.78125" y2="37.69999999999999" style="visibility: inherit;" fill="rgb(0, 0, 0)" stroke="rgb(204, 204, 204)" stroke-width="1px"></line><line x1="30.78125" y1="0" x2="25.78125" y2="0" style="visibility: inherit;" fill="rgb(0, 0, 0)" stroke="rgb(204, 204, 204)" stroke-width="1px"></line></g><g transform="translate(20.78125, 0)"><text x="0" y="377" dx="0em" dy="0.3em" style="text-anchor: end; visibility: hidden; font-family: Roboto, sans-serif; font-size: 12px; font-weight: 200;" fill="rgb(255, 255, 255)" stroke="none" stroke-width="1px">30</text><text x="0" y="339.3" dx="0em" dy="0.3em" style="text-anchor: end; visibility: inherit; font-family: Roboto, sans-serif; font-size: 12px; font-weight: 200;" fill="rgb(255, 255, 255)" stroke="none" stroke-width="1px">35</text><text x="0" y="301.6" dx="0em" dy="0.3em" style="text-anchor: end; visibility: inherit; font-family: Roboto, sans-serif; font-size: 12px; font-weight: 200;" fill="rgb(255, 255, 255)" stroke="none" stroke-width="1px">40</text><text x="0" y="263.9" dx="0em" dy="0.3em" style="text-anchor: end; visibility: inherit; font-family: Roboto, sans-serif; font-size: 12px; font-weight: 200;" fill="rgb(255, 255, 255)" stroke="none" stroke-width="1px">45</text><text x="0" y="226.2" dx="0em" dy="0.3em" style="text-anchor: end; visibility: inherit; font-family: Roboto, sans-serif; font-size: 12px; font-weight: 200;" fill="rgb(255, 255, 255)" stroke="none" stroke-width="1px">50</text><text x="0" y="188.5" dx="0em" dy="0.3em" style="text-anchor: end; visibility: inherit; font-family: Roboto, sans-serif; font-size: 12px; font-weight: 200;" fill="rgb(255, 255, 255)" stroke="none" stroke-width="1px">55</text><text x="0" y="150.8" dx="0em" dy="0.3em" style="text-anchor: end; visibility: inherit; font-family: Roboto, sans-serif; font-size: 12px; font-weight: 200;" fill="rgb(255, 255, 255)" stroke="none" stroke-width="1px">60</text><text x="0" y="113.10000000000002" dx="0em" dy="0.3em" style="text-anchor: end; visibility: inherit; font-family: Roboto, sans-serif; font-size: 12px; font-weight: 200;" fill="rgb(255, 255, 255)" stroke="none" stroke-width="1px">65</text><text x="0" y="75.39999999999998" dx="0em" dy="0.3em" style="text-anchor: end; visibility: inherit; font-family: Roboto, sans-serif; font-size: 12px; font-weight: 200;" fill="rgb(255, 255, 255)" stroke="none" stroke-width="1px">70</text><text x="0" y="37.69999999999999" dx="0em" dy="0.3em" style="text-anchor: end; visibility: inherit; font-family: Roboto, sans-serif; font-size: 12px; font-weight: 200;" fill="rgb(255, 255, 255)" stroke="none" stroke-width="1px">75</text><text x="0" y="0" dx="0em" dy="0.3em" style="text-anchor: end; visibility: hidden; font-family: Roboto, sans-serif; font-size: 12px; font-weight: 200;" fill="rgb(255, 255, 255)" stroke="none" stroke-width="1px">80</text></g><line x1="30.78125" y1="0" x2="30.78125" y2="377" fill="rgb(0, 0, 0)" stroke="rgb(204, 204, 204)" stroke-width="1px"></line></g></g><g transform="translate(30, 0)" clip-path="url(#clip_0)"><clipPath id="clip_0"><rect width="1253" height="377"></rect></clipPath><g><g><g><line x1="0" y1="0" x2="0" y2="377" fill="rgb(0, 0, 0)" stroke="rgb(189, 189, 189)" stroke-width="1px" opacity="0.25"></line><line x1="83.56991666666666" y1="0" x2="83.56991666666666" y2="377" fill="rgb(0, 0, 0)" stroke="rgb(189, 189, 189)" stroke-width="1px" opacity="0.25"></line><line x1="167.1398333333333" y1="0" x2="167.1398333333333" y2="377" fill="rgb(0, 0, 0)" stroke="rgb(189, 189, 189)" stroke-width="1px" opacity="0.25"></line><line x1="250.70974999999999" y1="0" x2="250.70974999999999" y2="377" fill="rgb(0, 0, 0)" stroke="rgb(189, 189, 189)" stroke-width="1px" opacity="0.25"></line><line x1="334.2796666666666" y1="0" x2="334.2796666666666" y2="377" fill="rgb(0, 0, 0)" stroke="rgb(189, 189, 189)" stroke-width="1px" opacity="0.25"></line><line x1="417.84958333333327" y1="0" x2="417.84958333333327" y2="377" fill="rgb(0, 0, 0)" stroke="rgb(189, 189, 189)" stroke-width="1px" opacity="0.25"></line><line x1="501.41949999999997" y1="0" x2="501.41949999999997" y2="377" fill="rgb(0, 0, 0)" stroke="rgb(189, 189, 189)" stroke-width="1px" opacity="0.25"></line><line x1="584.9894166666667" y1="0" x2="584.9894166666667" y2="377" fill="rgb(0, 0, 0)" stroke="rgb(189, 189, 189)" stroke-width="1px" opacity="0.25"></line><line x1="668.5593333333333" y1="0" x2="668.5593333333333" y2="377" fill="rgb(0, 0, 0)" stroke="rgb(189, 189, 189)" stroke-width="1px" opacity="0.25"></line><line x1="752.12925" y1="0" x2="752.12925" y2="377" fill="rgb(0, 0, 0)" stroke="rgb(189, 189, 189)" stroke-width="1px" opacity="0.25"></line><line x1="835.6991666666665" y1="0" x2="835.6991666666665" y2="377" fill="rgb(0, 0, 0)" stroke="rgb(189, 189, 189)" stroke-width="1px" opacity="0.25"></line><line x1="919.2690833333332" y1="0" x2="919.2690833333332" y2="377" fill="rgb(0, 0, 0)" stroke="rgb(189, 189, 189)" stroke-width="1px" opacity="0.25"></line><line x1="1002.8389999999999" y1="0" x2="1002.8389999999999" y2="377" fill="rgb(0, 0, 0)" stroke="rgb(189, 189, 189)" stroke-width="1px" opacity="0.25"></line><line x1="1086.4089166666665" y1="0" x2="1086.4089166666665" y2="377" fill="rgb(0, 0, 0)" stroke="rgb(189, 189, 189)" stroke-width="1px" opacity="0.25"></line><line x1="1169.9788333333333" y1="0" x2="1169.9788333333333" y2="377" fill="rgb(0, 0, 0)" stroke="rgb(189, 189, 189)" stroke-width="1px" opacity="0.25"></line><line x1="1253.54875" y1="0" x2="1253.54875" y2="377" fill="rgb(0, 0, 0)" stroke="rgb(189, 189, 189)" stroke-width="1px" opacity="0.25"></line></g><g><line x1="0" y1="377" x2="1253.54875" y2="377" fill="rgb(0, 0, 0)" stroke="rgb(189, 189, 189)" stroke-width="1px" opacity="0.25"></line><line x1="0" y1="339.3" x2="1253.54875" y2="339.3" fill="rgb(0, 0, 0)" stroke="rgb(189, 189, 189)" stroke-width="1px" opacity="0.25"></line><line x1="0" y1="301.6" x2="1253.54875" y2="301.6" fill="rgb(0, 0, 0)" stroke="rgb(189, 189, 189)" stroke-width="1px" opacity="0.25"></line><line x1="0" y1="263.9" x2="1253.54875" y2="263.9" fill="rgb(0, 0, 0)" stroke="rgb(189, 189, 189)" stroke-width="1px" opacity="0.25"></line><line x1="0" y1="226.2" x2="1253.54875" y2="226.2" fill="rgb(0, 0, 0)" stroke="rgb(189, 189, 189)" stroke-width="1px" opacity="0.25"></line><line x1="0" y1="188.5" x2="1253.54875" y2="188.5" fill="rgb(0, 0, 0)" stroke="rgb(189, 189, 189)" stroke-width="1px" opacity="0.25"></line><line x1="0" y1="150.8" x2="1253.54875" y2="150.8" fill="rgb(0, 0, 0)" stroke="rgb(189, 189, 189)" stroke-width="1px" opacity="0.25"></line><line x1="0" y1="113.10000000000002" x2="1253.54875" y2="113.10000000000002" fill="rgb(0, 0, 0)" stroke="rgb(189, 189, 189)" stroke-width="1px" opacity="0.25"></line><line x1="0" y1="75.39999999999998" x2="1253.54875" y2="75.39999999999998" fill="rgb(0, 0, 0)" stroke="rgb(189, 189, 189)" stroke-width="1px" opacity="0.25"></line><line x1="0" y1="37.69999999999999" x2="1253.54875" y2="37.69999999999999" fill="rgb(0, 0, 0)" stroke="rgb(189, 189, 189)" stroke-width="1px" opacity="0.25"></line><line x1="0" y1="0" x2="1253.54875" y2="0" fill="rgb(0, 0, 0)" stroke="rgb(189, 189, 189)" stroke-width="1px" opacity="0.25"></line></g></g></g><g><g><line x1="0" y1="603.2" x2="1253.54875" y2="603.2" fill="rgb(0, 0, 0)" stroke="rgb(153, 153, 153)" stroke-width="1.5px"></line></g></g><g><g><line x1="83.56991666666666" y1="0" x2="83.56991666666666" y2="377" fill="rgb(0, 0, 0)" stroke="rgb(153, 153, 153)" stroke-width="1.5px"></line></g></g><g><g><g><g><g><path stroke="rgb(255, 112, 67)" stroke-width="2px" d="M85.241315,5.756820373535144L85.65916458333332,38.37957401051241L88.56739768333333,42.166641215842525L90.23879601666667,32.49363418163435L90.65664559999999,27.009378665102737L92.31132994999999,44.309257284731025L92.72917953333334,50.09773581861687L93.14702911666666,37.66596698200985L93.98272828333333,29.813389165575135L94.40057786666665,33.73947182986414L95.65412661666666,27.495341694299302L96.4731118,41.476987743374856L98.9802093,38.39852994041801L101.47059281666667,27.658486838262085L102.30629198333332,40.706832733840116L105.63237466666666,54.632792542973576L106.05022424999999,43.509684796025404L106.46807383333332,42.05395836252791L107.30377299999999,38.468170680368516L108.95845734999999,33.44610103175685L110.2120061,30.78746472225181L111.46555484999999,34.862898759703164L111.88340443333333,45.490243916416034L112.30125401666665,46.41044272217779L113.1202392,56.37287530621307L113.95593836666666,48.94160393882877L114.37378795,47.76774441160149L114.79163753333333,28.038894782668315L115.20948711666665,31.426055946543375L116.04518628333332,16.754366327599957L116.46303586666666,19.336978371648502L119.37126896666666,29.787739935797866L120.20696813333332,30.658659520895995L120.62481771666666,43.92458894591145L121.86165248333333,41.50673455121794L123.11520123333332,43.256520980356235L124.78659956666667,44.02343544879416L129.7673666,38.58166812914801L130.18521618333332,27.59474754106938L131.43876493333335,26.715799098533672L132.6923136833333,30.08846161366684L133.11016326666666,32.73923663964388L134.3469980333333,32.421016832529844L137.27194511666667,26.92679710926782L139.7623286333333,26.1120365758259L141.43372696666665,32.40986862547532L142.25271214999998,5.524737514995246L143.08841131666665,25.456860296515984L143.92411048333332,33.01190260613582L144.34196006666664,41.31764596903227L146.83234358333334,37.523792133002146L147.25019316666666,41.284210449702044L150.57627585,45.056494518237386L151.41197501666664,50.23514738141723L151.8298246,41.227298818475134L153.08337335,31.211884603401327L156.40945603333333,46.63550549400433L157.66300478333332,50.82810873296239L158.89983955,56.47980920433356L159.73553871666664,50.084284561122274L162.24263621666665,57.813799015480654L163.06162139999998,57.4001957029454L163.4794709833333,78.23494072951789L164.73301973333332,72.89045237597745L165.15086931666667,73.8518068213474L165.5687189,69.61632262075935L167.64125283333334,62.605538962900305L168.89480158333333,50.61303543102774L169.31265116666665,53.47514653029373L169.73050074999998,51.040118898074894L171.80303468333332,48.69154254869726L172.22088426666664,29.276466899430023L172.63873385,38.82616428081989L173.89228260000002,37.37538379844883L175.9648165333333,51.33026263172609L177.2183652833333,55.140753574880655L177.63621486666668,45.79826337276674L178.05406445,55.30382339292705L178.47191403333332,46.93941740287615L179.70874879999997,61.9839140509159L180.54444796666667,66.50236155500279L181.38014713333334,70.74546816723809L182.21584629999998,71.74602258706199L183.05154546666665,47.13742090432468L183.87053065,60.12457642318937L185.1240794,55.421461552872884L185.54192898333332,33.07672187851419L185.95977856666664,51.04715503725056L186.37762815,60.93843490241823L187.21332731666664,69.80506353508646L189.7037108333333,60.044077280956856L193.4476431,54.34604553343737L194.28334226666664,60.07386543358689L195.11904143333334,46.03067342436044L196.7737257833333,64.17040933955721L197.19157536666668,71.89055431417923L197.60942495,63.477458530789775L200.93550763333334,66.40659162279786L201.35335721666667,73.44987623617827L203.02475554999998,71.87756400009037L203.44260513333333,71.15972100855944L203.86045471666665,77.80270860613813L205.09728948333333,85.441711103032L208.84122175,91.10362054739097L209.2590713333333,67.77141737877922L210.5126200833333,55.65831144004781L211.34831924999997,57.89590417441521L212.18401841666667,65.17202951327715L213.42085318333332,74.02583702587108L214.25655234999996,70.15781628004825L214.67440193333334,63.990172888343345L215.51010109999999,72.9040176435444L216.34580026666666,62.05754272767836L217.16478544999998,72.96616908478983L218.00048461666663,72.56930488584213L220.08973253333332,78.06535366056802L220.50758211666664,75.67577928542003L221.3265673,72.87718549918365L221.74441688333334,65.96200276507804L225.48834915,60.52933252332313L226.32404831666665,63.65420076559386L226.7418979,61.43627241457775L227.99544664999996,75.4148846172064L230.0679805833333,78.5777921873668L230.90367974999998,75.74721473928662L231.3215293333333,67.66161010143624L232.57507808333332,74.91037026558543L233.81191284999997,71.97651983654461L235.90116076666666,81.08703156746598L236.73685993333333,88.35673317815883L237.15470951666666,79.6601157057903L239.64509303333332,85.03233200113328L240.06294261666665,63.32589947537823L240.89864178333332,68.82574909382436L242.55332613333331,87.77504434706134L243.3890253,92.65850035751815L243.8068748833333,94.63807688295311L245.47827321666668,79.88148906892168L246.71510798333333,86.3266805928741L247.13295756666665,72.68053212790241L247.55080714999997,69.67153330190958L249.22220548333334,51.33943277788942L251.29473941666663,55.42945671954702L251.71258899999998,55.97257392731571L252.1304385833333,52.27381455124497L252.54828816666665,52.60523645479242L252.96613775,59.9802588868849L253.38398733333332,63.92325989513585L256.71007001666663,73.20652597566738L257.9636187666667,63.81230866148275L258.78260395,72.28763399211505L262.12540061666664,73.67472057975891L264.19793455,61.69830603852156L264.6157841333333,68.76728283963602L265.03363371666666,78.67608262214458L265.4514833,80.65409075176105L265.8693328833333,90.1574906166868L267.5240172333333,82.32065879117786L269.61326514999996,91.84231943019175L270.44896431666666,72.74863588445939L272.52149825,82.43425805552293L272.93934783333333,79.84877287519417L274.6107461666666,76.73076579901289L275.42973135,77.59224486057859L275.8475809333333,80.55318118939223L277.1011296833333,67.68673415679332L278.35467843333333,58.245189373622466L278.7725280166667,78.82923204121096L280.42721236666665,72.51884981898435L280.84506194999994,80.7084114107646L282.51646028333334,78.72757269517687L285.0068438,73.1139904465603L285.4246933833333,83.74987004904233L285.84254296666666,79.20004529531602L286.6782421333333,86.95695788469976L287.09609171666665,77.0792252861355L287.9150769,76.8971755652851L288.7507760666667,78.34762865436655L289.16862564999997,76.91539112922352L289.5864752333333,77.04313455400626L290.00432481666667,70.65986832110517L292.07685875,79.49394780280096L292.91255791666663,90.26287840641871L293.3304075,93.38813129379487L293.7482570833333,118.55957454268035L294.58395624999997,112.86681797882648L296.6564901833333,106.31936296298622L297.07433976666664,95.98287916259135L298.7457381,74.88083801513223L299.16358768333333,82.07145976427911L300.40042244999995,82.00802595486847L301.23612161666665,81.13180160957008L302.90751995,92.94455118102043L303.32536953333334,99.9440174307182L304.9800538833333,101.82265058040899L305.39790346666666,82.15296349954801L305.81575305,94.8019961873545L306.2336026333333,93.5424323348102L307.0693018,84.19948185494816L307.4871513833333,84.2273656004656L309.1418357333333,90.2913557799451L309.5596853166667,86.82517121393033L309.97753489999997,95.91645203358918L310.81323406666667,98.6885917866717L312.06678281666666,104.26297245684695L314.13931675,101.49597703632114L315.8107150833333,101.16321708277341L316.2285646666666,99.4309197130684L317.8832490166667,97.08398082002195L319.1367977666667,102.9173621813151L319.55464735,77.7017268148845L319.97249693333333,79.63686282315355L320.3903465166667,74.78091571631983L321.2093317,90.9737183787432L321.6271812833333,95.37103691663395L322.8807300333333,95.08789678585771L323.29857961666664,99.19371491440695L323.7164292,98.1406620855927L324.1342787833333,86.17273790449502L325.7889631333333,101.48596163812695L328.71391021666665,95.90429417940378L330.3685945666666,93.47676682035797L330.78644414999997,85.93057489375744L331.6221433166666,98.00173704324504L332.03999289999996,97.68378955392873L332.45784248333337,93.83493685217883L333.69467725,98.93196591310227L334.5303764166666,103.80432604456713L335.3660755833333,106.58343295531802L336.20177474999997,82.69458020800488L336.6196243333333,102.8074220879862L338.2743086833333,105.48140781815765L339.11000784999993,109.52711457732461L340.3635566,96.83048414089481L340.78140618333333,91.05956446930504L343.6896392833333,93.56705700595495L344.10748886666664,96.82089058776228L344.52533844999994,98.51956132342094L346.5978723833333,118.94130861853334L347.8514211333333,113.95884588832001L348.6871203,105.32296308740013L350.34180465,111.52498086131432L352.0132029833334,115.93011732496586L353.68460131666666,111.25760629739788L354.5035865,122.19535534537339L354.92143608333333,110.8102567068493L355.75713525,99.79548189511189L356.5928344166666,106.72545959525509L357.01068399999997,103.49102618445198L357.4285335833333,109.276108076736L358.66536834999994,123.51489921175971L359.5010675166667,103.60972432433044L359.9189171,93.03206689946785L360.33676668333334,83.8753780735239L360.7546162666667,92.13243748777043L362.0081650166667,110.6794803961024L362.82715019999995,117.24706247813836L364.91639811666664,119.9183253951583L365.7520972833333,113.14615346020454L367.4067816333333,98.00357745693317L367.82463121666666,111.01723046191866L368.6603303833333,113.53959615915852L369.49602955,106.6498991198827L370.33172871666665,104.96676829688172L371.56856348333326,98.90232054097154L371.9864130666666,105.56487857484704L373.23996181666666,126.19985920863077L374.0756609833333,133.9485602290005L374.49351056666666,113.5331597628395L376.5660445,109.79492214587734L378.2374428333333,120.15162459452134L379.89212718333334,118.57469796140425L380.3099767666667,115.42439787168908L380.72782635,116.65094858159345L381.14567593333334,117.8097143458605L381.5635255166667,126.09241213316683L384.0539090333333,129.4878833861001L384.88960819999994,131.01230415975985L385.3074577833333,126.46910474837972L385.72530736666664,124.33656228870956L386.14315694999993,114.61032829753127L386.5610065333333,112.5250147051225L388.2156908833333,120.74786046753594L389.05139005,125.50547785217746L392.37747273333326,133.5291338510775L393.63102148333326,145.30690425483627L396.121405,145.0268210612711L396.53925458333333,137.84234737472576L396.9571041666666,136.53430174690268L398.2106529166666,120.74059053801746L399.0463520833333,127.13885991744478L399.4642016666666,122.31484731269472L400.28318685,128.5706427526753L401.5367356,119.31020473339129L403.6259835166666,110.39299331947747L404.8628182833333,110.00387378127583L405.69851744999994,114.24313359818699L406.1163670333333,117.62393715581584L406.95206619999993,118.92526870438354L408.60675055,123.56475932109583L409.0246001333333,125.61371809092918L409.86029929999995,121.1157444330596L411.5316976333333,120.63423538231659L411.94954721666664,114.91569618241651L413.18638198333326,129.98628924572134L414.4399307333333,115.23557643745903L415.2756299,115.31360002416567L416.93031425,112.83513273359081L417.34816383333333,116.93013820922889L418.183863,124.84253185845974L419.0195621666666,115.67542029591688L419.43741174999997,113.56406338743962L420.2731109166666,115.88216691149094L421.0920961,121.57788729855395L421.92779526666664,110.92235388791843L422.34564485,116.62391909910637L422.76349443333334,117.8539223397114L425.25387794999995,117.21989088621108L426.9252762833333,112.2116341000841L427.3431258666667,104.79136146039089L427.76097544999993,112.74457102611885L432.75845646666664,108.35165386562203L433.57744165,120.72959656396762L434.41314081666667,118.87989130083203L436.92023831666666,127.05649779363905L437.7392235,131.23454084141162L438.99277225,151.0103478776234L439.41062183333327,135.79300668267126L440.66417058333326,136.2421188227674L442.31885493333334,138.7287141863742L442.73670451666663,141.76951670902633L443.57240368333333,125.50182917678724L443.9902532666666,122.17273661576766L444.40810285,130.43653145287576L444.8259524333333,119.44627267008912L445.2438020166666,130.40579010001937L448.1520351166666,131.94423307031877L449.40558386666663,124.02128347698192L453.1495161333333,118.74038317509826L455.63989965,106.22545282339881L456.0577492333333,114.85566251165751L456.47559881666666,111.23386601035749L456.8934484,107.86098919675226L458.54813275,109.01531519468456L461.89092941666667,105.09613408842758L462.7099146,115.78440229085433L463.54561376666663,128.4314771800751L464.38131293333333,128.24220229997835L466.0527112666666,114.82498139880322L466.87169644999994,113.36314615884982L468.54309478333334,126.9881718699107L468.96094436666664,127.7450891520161L469.79664353333334,130.13638025461685L470.21449311666663,125.59990566187444L471.03347829999996,131.90271121550938L471.86917746666666,133.42087105642292L472.28702704999995,130.90059303112204L473.54057579999994,127.893525435201L474.37627496666664,133.64210433265586L476.8666584833333,151.63357816591574L477.28450806666666,142.4471015713046L478.53805681666665,137.42924797827013L480.1927411666666,149.68028731312165L481.4462899166666,142.49694773936335L482.28198908333326,133.46778555195377L483.93667343333334,131.38674956135543L484.35452301666663,130.37969937861772L486.02592135,121.19756236166329L486.44377093333327,114.98347504964867L492.67808671666666,113.45679950863106L493.09593629999995,115.89332750424734L493.5137858833333,128.6162153003364L495.1851842166667,136.1953274558409L496.4220189833333,142.49943439639583L497.6755677333333,146.98485195650534L498.51126689999995,124.78150150261037L498.9291164833333,131.66112418720323L500.58380083333327,141.4161836442991L501.0016504166666,131.11563914366076L501.83734958333326,132.40378175877782L503.0908983333333,126.15202221588565L503.50874791666666,123.88538787167663L504.7455826833333,135.20818657975374L505.16343226666663,142.2094699933398L506.4169810166666,124.27584666196384L508.48951494999994,119.1168855253132L508.90736453333335,133.8669756065498L509.7430637,116.47669693520497L510.57876286666664,115.392741489287L512.6512968,124.08890901747648L513.0691463833333,131.82945262845672L513.90484555,130.59577872041282L514.3226951333334,127.26868893363475L514.7405447166666,116.54377340039491L515.1583942999999,123.82248007961726L515.9940934666666,133.81497077405484L518.0666273999999,139.28968277364993L518.9023265666667,130.15777977260964L519.32017615,142.36515651129795L520.9748605,145.37788434581142L522.6462588333333,143.82835329347182L523.8998075833333,137.06785152448546L525.5544919333332,136.80057390222288L525.9723415166667,131.32094283873377L527.64373985,119.17322433342717L528.4794390166667,125.0304374304327L529.2984242,129.40240739759193L530.1341233666666,135.47263113168347L530.9698225333333,141.2418192320588L531.3876721166666,137.81010428061748L532.6412208666666,136.3476454604215L535.1316043833333,142.62868183175553L535.96730355,152.65161283520735L536.3851531333333,145.17574334926917L537.6219878999999,147.19825960993032L538.0398374833333,158.48971708309136L539.7112358166667,135.92279112442367L541.7837697499999,129.62849326158388L542.6194689166666,140.80348701589682L543.4551680833333,137.8684013145702L544.2908672499999,154.10069412210345L545.1265664166666,157.0113193129016L545.9455516,159.9802753027835L547.19910035,154.29015909683616L547.6169499333333,151.28344884642303L548.0347995166667,131.97034920531345L548.8704986833333,126.95538963109735L551.3608822,143.68079388282035L552.1965813666666,144.52246191456845L553.0322805333333,139.51666904179703L553.4501301166666,133.31586692239756L554.2691153,134.60732682401078L556.3583632166666,140.48088192011812L558.43089715,135.4857978860749L559.2665963166667,126.20501347630706L559.6844458999999,134.95555622449166L562.592679,134.3426536622589L563.0105285833333,141.58564032420142L563.4283781666667,129.14457685853276L563.8462277499999,138.91586781769655L564.2640773333333,137.30187611099842L565.9354756666667,146.89799538371696L567.5901600166667,139.10534928630204L570.0972575166667,147.7379324581751L570.9162427,146.33175198524893L572.1697914499999,159.7162477367201L573.0054906166666,153.80646248888524L573.4233402,149.66747286178756L573.8411897833332,149.44918632551688L575.07802455,138.51295240051812L576.3315733,135.4461583017616L577.1672724666666,135.54336814613305L578.0029716333333,139.76930176357243L578.4208212166666,138.6540708505895L579.2398063999999,133.11663748298588L579.6576559833333,141.74883403563652L580.0755055666666,141.71452463762867L580.49335515,146.18961384057832L581.7469039,137.22494947600248L582.1647534833334,139.770987399315L583.4015882499999,134.68291875673L583.8194378333333,152.01370686414703L584.2372874166666,161.54638842215144L585.4908361666667,146.7251313498517L585.9086857499999,148.15194025727416L586.3265353333333,139.36148868851473L588.3990692666666,126.98465249455795L591.7251519499999,134.84695231809L592.5608511166666,140.72128327152774L593.3965502833332,136.4700655798033L593.8143998666666,133.4790954587798L594.23224945,131.11529037461264L595.8869338,134.85852174367415L596.7226329666667,142.9414898864044L597.5583321333334,141.4111786474118L597.9761817166666,163.20910142800517L598.8118808833333,159.78767301681552L601.3022644,168.554679804703L602.1379635666666,155.04190057337513L602.55581315,172.43844104284213L604.2104975,169.31231368299245L604.6283470833333,159.69899814102197L605.4640462499999,158.03747571592731L605.8818958333333,164.7452370676164L606.717595,165.35300482977772L607.1354445833333,153.6987061259006L608.37227935,166.77807990672173L608.7901289333333,162.6931617864508L609.2079785166667,155.5654694455839L610.4615272666666,138.6787538285835L611.7150760166667,145.99747874659778L613.7876099499999,134.95690390008426L614.6233091166666,132.62497267604283L615.4590082833333,133.70633223736576L615.8768578666667,135.20070504235224L616.69584305,128.8473586572101L617.1136926333334,138.3000935115241L620.0386397166666,146.20702026916302L621.2754744833334,144.2709716682725L622.11117365,149.65479672968047L623.3647224,145.04082726949207L626.2729555,157.79469870992136L626.6908050833333,164.71726355373207L627.52650425,159.2191185681178L627.9443538333333,152.88198755090514L628.3622034166666,137.04589343712286L630.43473735,153.75902192087855L631.2704365166666,146.9861840427351L632.1061356833333,143.1380241424146L633.3429704499999,148.4127487585159L633.7608200333333,145.7116080451457L634.1786696166665,132.03249539783735L635.4322183666666,140.0554478969554L635.85006795,151.22731744174823L636.2679175333333,145.69176143804452L637.5047523,139.16569405857206L637.9226018833333,148.29616148492138L639.1761506333332,143.23331793751626L640.8475489666667,145.61370274424968L641.66653415,159.7563331166535L642.0843837333332,150.74166800679177L642.9200829,150.82781006843828L644.5914812333333,165.7475936195621L645.0093308166666,161.83922192102256L647.0818647499999,163.55733865312646L649.1711126666667,158.97824537170268L650.4079474333333,159.78986638757223L652.0793457666666,162.35148006444015L653.3328945166667,151.2693802605012L654.1518796999999,143.06275311777563L656.2411276166666,146.17217219281895L657.0768267833333,138.150799343567L658.3136615499999,142.95417662881476L658.7315111333334,149.56062411777046L659.1493607166666,148.38758020824497L659.9850598833333,152.4067829371533L661.2386086333333,160.8396481185683L661.6564582166666,170.94492725172339L662.4754433999999,166.2260027032205L662.8932929833334,147.14531759965175L663.72899215,151.81872381511755L664.5646913166667,145.26898089238404L664.9825408999999,140.41405210471038L666.63722525,157.0298632753602L667.0550748333333,168.25213092391667L669.5621723333334,154.8963772592295L671.6347062666666,163.94415986698314L673.7239541833333,167.423530849149L674.1418037666666,160.32088584000977L674.96078895,158.50754546489887L676.6321872833333,154.52020724809773L677.8857360333333,166.9336911552114L680.37611955,171.03618246434863L681.6296682999999,157.07094392835216L684.1200518166667,167.7058783935843L684.5379014,166.1147321698205L685.79145015,161.46114452723617L687.8639840833332,160.10919283929238L689.5353824166667,159.526920781572L692.0257659333332,161.34992997343096L694.11501385,159.65797251918244L694.9507130166667,167.1712021547241L696.6053973666667,164.500761239447L697.0232469499999,169.60385291308407L697.8589461166666,165.43964470151238L701.1850287999999,161.28805600144685L705.34681065,163.6667146786129L705.7646602333333,162.1940687671555L706.6003593999999,167.9555674592135L707.0182089833334,168.67631350410326L708.6728933333333,176.57021636601928L709.0907429166666,170.4720482381349L709.9264420833333,174.3734749806837L711.5978404166666,159.1581755361002L712.8346751833333,173.3825887352555L714.5060735166666,166.55305346294543L714.9239231,168.5372208438616L715.3417726833333,179.3351861519824L715.7596222666666,165.63124316802097L716.57860745,169.12232341890865L718.2500057833333,174.70638386241328L719.5035545333333,168.53687302345247L719.9214041166666,160.0159074146345L721.99393805,153.6054222004371L724.0831859666665,144.65110195967853L724.90217115,162.23809852021247L726.5735694833332,177.23935787558668L727.8271182333333,179.016131758333L729.8996521666667,178.81374804900935L738.6410654499999,172.13594492336904L739.0589150333333,176.86279080274258L740.7303133666667,169.3344781514584L745.7110803999999,177.6718563551908L746.1289299833334,183.1982282969002L747.8003283166667,183.73536764169242L748.6360274833334,158.67515171258808L749.0538770666666,156.62406436684142L749.8728622499999,161.28282208468207L750.2907118333334,158.6069963409303L751.5442605833333,160.54955053008186L752.7978093333334,169.32454522670915L754.0346441,176.44887466711927L754.8703432666666,166.064532182755L755.2881928499999,161.00838568558234L756.1238920166666,166.64031167607462L756.5417415999999,172.81164590762728L757.3774407666666,172.7535626730588L758.19642595,175.94897160093853L758.6142755333333,171.74628364543722L759.0321251166666,177.62764654527527L759.4499747,172.3923733794222L760.2856738666666,170.74569293603014L763.61175655,174.54134871794085L764.8653053,176.1206599152417L765.2831548833333,168.59787615575704L766.51998965,168.5081301608366L769.4449367333333,165.6091273461061L771.5174706666667,154.59948415112436L772.3531698333333,152.54242717483007L772.7710194166667,141.9606917439387L774.0245681666667,147.19237087847196L774.84355335,157.89461399115106L776.5149516833333,161.37789573313682L776.9328012666667,165.56490609492184L777.35065085,169.82553565346922L778.1863500166667,177.0926639512639L781.5124327,175.72482021022066L781.9302822833332,168.7508327500597L782.3481318666667,177.84670942803254L783.5849666333332,186.09375509419064L784.4206657999999,202.9145168563387L784.8385153833332,214.605453837401L788.1645980666666,222.43600012026272L790.2538459833333,230.45083735987973L793.1620790833333,243.12099942858816L794.4156278333334,258.69708991220654L794.8334774166666,274.8877817022775L796.4881617666666,278.61617282330815L799.81424445,279.40416948705786L801.0677932,272.1323469780377L801.4856427833333,285.7115701612377L801.9034923666666,279.3614887918215L806.0652742166666,286.9537658252345L807.3188229666666,292.49997521188044L808.13780815,297.08061108154385L808.9735073166665,298.0163755720221L809.8092064833332,294.64845324160194L810.2270560666666,301.7467240928519L810.6449056499999,299.3353314072327L811.0627552333333,302.5435531367962L812.7174395833333,302.68108299806454L813.55313875,299.99089268879413L814.3888379166666,299.04951163905287L814.8066875,299.73711071539117L815.2245370833333,297.2374487989916L816.8792214333332,301.76754328374477L818.96846935,289.9167218193123L821.4588528666667,293.9002351425982L821.8767024499999,287.4906043352313L822.2945520333333,292.10906338500376L823.9659503666667,289.6044239288288L824.7849355499999,297.3816927050752L825.2027851333332,300.0553434018534L828.9467173999999,310.41024451642926L829.7824165666666,301.7963640554824L830.20026615,294.2643398943797L831.0359653166666,293.40288510929327L833.9441984166666,295.7393605417763L834.7798975833333,304.3880390659499L835.6155967499999,317.41978657162883L836.0334463333334,319.8136763981749L838.1059802666666,319.39190821077807L839.7773785999999,309.78831233293283L840.6130777666666,308.6311156301233L842.2677621166666,307.122408969956L842.6856116999999,319.8175526806415L844.7748596166666,320.0567215306849L845.5938448,321.4549150629345L846.4295439666666,324.3365956572743L847.2652431333333,330.6093545852141L847.6830927166666,324.08206992290667L848.1009423,321.45949144939163L848.5187918833333,321.8054727728139L849.75562665,312.8163485114653L850.5913258166665,309.64963127492024L852.26272415,313.13795925389434L853.0984233166665,315.32890516455467L854.3352580833333,328.3369036591336L855.5888068333333,323.19831556310254L856.0066564166666,322.2160079440375L858.07919035,319.8449998265733L859.3327391,321.3770781027835L860.1684382666665,314.9499360257082L860.58628785,325.5479382731105L861.4219870166665,324.26309826456605L863.0766713666667,318.3240936127719L863.4945209499999,319.5693707474461L863.9123705333333,320.4551987901801L864.3302201166666,321.21854313719587L866.8206036333332,322.2049752674483L867.2384532166667,312.7647216322211L867.6563027999999,322.4599360095591L869.3277011333332,323.207153761684L869.7455507166667,315.91773601910415L870.9823854833332,322.34471319463506L871.81808465,316.79417658609805L873.0716333999999,319.08945295292006L873.9073325666667,307.21661311501765L874.7263177499999,312.0010023341989L875.1441673333334,318.11591305972047L875.5620169166666,320.160150814778L878.0691144166666,316.30183359005895L880.1416483499999,317.56726023575857L880.5594979333333,317.0566356089397L880.9773475166667,321.7712249586064L881.3951970999999,326.8713369555826L883.8855806166666,331.60935543983067L887.6295128833333,322.92980260731997L888.0473624666666,317.2912270366108L889.7187607999999,323.1532710273732L890.5544599666666,328.35452391105576L892.2091443166665,324.80807333869114L892.6269939,340.2440539631214L893.0448434833332,339.4153653239286L893.4626930666666,328.84600569623245L894.2983922333333,340.0192096521882L894.7162418166666,328.53727266137787L896.3709261666665,332.117940655445L898.4601740833333,335.38488563776656L898.8780236666665,337.6893154542491L900.1148584333332,341.44287904093574L901.3684071833333,341.9809245693777L904.6944898666667,337.69858404243644L905.1123394499999,329.9965165201351L905.5301890333333,340.22192867911536L906.7837377833332,343.1016522222924L908.8562717166667,342.5206681370255L909.2741212999999,332.9151298052929L909.6919708833333,338.5308036398891L910.9455196333332,333.5826159384253L911.3633692166667,334.08326941983717L912.6002039833332,342.0565263792254L913.43590315,330.54378775714474L914.2716023166666,332.11279815088756L916.3441362499999,347.66481808825074L917.1798354166666,345.311468471712L919.6869329166666,346.0464184712751L920.9237676833334,349.1596155266333L922.5951660166667,330.13256032115794L925.0855495333333,326.49976792518896L926.7569478666666,336.93247375521287L928.0104966166666,337.12576888298247L928.8294817999999,335.3391037469574L929.6651809666666,332.8430714372622L930.0830305499999,331.64901820066365L930.9187297166666,337.541764598985L931.3365792999999,337.9965026829736L931.7544288833333,335.4240440198052L932.9912636500001,329.50644913051406L933.4091132333333,343.44635244220206L933.8269628166665,345.84186927118697L937.1530455,345.7193665876702L937.5708950833333,345.31138774235063L937.9887446666665,343.6642398064863L938.40659425,345.4365700984271L939.660143,342.47399588133794L943.82192485,347.3447921044243L945.8944587833332,348.19392947767466L946.3123083666666,356.49094629400975L946.7301579499999,347.33601333506704L947.1480075333333,348.8450693656749L948.8194058666666,351.0540756174348L949.63839105,361.24936061881937L950.4740902166667,351.68848960510957L950.8919397999999,340.5224104130908L951.7276389666666,345.68466300480077L952.9811877166667,337.31819273037473L954.6358720666667,336.32165351325204L955.0537216499999,330.1714483680899L955.8894208166666,324.8532179363373L956.7251199833332,328.21118347126855L957.9619547499999,334.7080143887503L960.0512026666667,338.7536662702453L962.1237365999999,345.6780250073358L963.37728535,345.6749144030232L965.0486836833333,348.66031068758497L966.2855184499999,350.7232955223862L966.7033680333333,338.5778856086513L967.1212176166666,339.38135043142694L968.3747663666667,337.1405142335785L970.8651498833333,331.80318583020414L973.3722473833333,339.3888860946317L973.7900969666666,340.26245042981634L974.6090821499998,349.5579333146349L975.8626308999999,339.8702452376638L977.1161796499999,350.03644625971793L978.770864,356.531303027402L979.1887135833333,349.6385332663371L980.8601119166666,345.6550880477885L981.2779615000001,345.21254014144756L981.6958110833333,343.3402970885763L983.3504954333333,338.27459157558985L984.1861946,333.4765091315994L985.43974335,341.79633762686075L985.8575929333333,339.00116609801887L987.0944277,342.2858101574682L988.34797645,337.689906107115L990.0193747833333,338.39079535896485L990.4372243666666,340.76178126909764L991.25620955,344.33227740594646L991.6740591333332,331.115719077351L992.0919087166666,335.6145382509963L992.9276078833333,337.48102520251626L993.3454574666665,335.2917102336193L993.76330705,334.647184216451L994.1811566333332,339.58877676950885L997.0893897333333,340.31946795740623L997.9250889,341.9281698599182L998.7607880666667,337.8391510918841L999.5797732499999,335.9586365916504L999.9976228333333,337.7039028987012L1000.4154724166666,338.0260235711441L1000.833322,336.26305969285505L1001.6690211666667,339.09535417208355L1002.5047203333332,340.139124690478L1002.9225699166667,343.8018629150485L1004.5772542666666,348.93330982361493L1004.99510385,355.6673095523117L1006.2486525999999,353.528020090854L1016.2269006499998,349.8673954051505L1016.6447502333333,352.55724991898137L1018.3161485666666,353.04996345494465L1018.7339981499999,353.2666814344525L1019.1518477333333,351.2123420813262L1020.3886824999998,354.8442904006844L1020.8065320833333,351.1830797041241L1021.6422312499999,351.97240052097527L1022.8957799999998,350.9850386334204L1023.3136295833333,344.1219484530012L1024.55046435,347.7382870738391L1024.9683139333333,345.0756770198026L1025.3861635166666,339.09293112058793L1027.05756185,342.72143980015863L1027.4754114333332,351.26988514892935L1028.7122462,332.2634099683253L1029.1300957833332,339.2870387951495L1030.3836445333334,348.4758755590094L1031.2193437,343.6433454733989L1033.7097272166666,336.1635555612376L1034.1275768,333.92636439640637L1034.5454263833333,342.4243857339176L1034.9632759666665,336.8232568347262L1039.5429073999999,341.6336326666936L1039.9607569833333,343.11804720781095L1041.19759175,343.0973339884608L1042.8689900833333,344.43651071452996L1044.5403884166667,339.13464079790043L1045.3593736,342.9486340565772L1047.4486215166667,340.951052445561L1048.2843206833331,338.50642880478824L1048.7021702666666,336.01602479103735L1049.9390050333332,336.809311836148L1050.3568546166666,337.6962192893319L1050.7747041999999,339.50838739230284L1052.4461025333333,331.36830562285417L1052.8639521166667,334.83038022780704L1053.6829372999998,332.4824866031905L1054.1007868833333,330.04848118467226L1054.93648605,330.7334264990704L1056.1900348,335.14027260330437L1056.6078843833334,345.5762456089952L1057.0257339666666,337.0360107507595L1057.84471915,338.75380122212584L1059.0982678999999,342.1705801822703L1059.5161174833333,344.6933026958876L1061.1875158166665,345.87227440390603L1062.0065009999998,345.82092432760726L1063.6778993333332,340.81176159231336L1064.0957489166667,339.694157186885L1064.9314480833334,342.6022186245695L1065.3492976666666,336.67481811288224L1066.16828285,343.37257940509176L1067.0039820166667,331.3109913593211L1067.4218316,330.8945523499623L1070.7479142833333,334.29296360725385L1071.1657638666666,337.2714354259566L1071.58361345,339.25111104511785L1072.8371622,335.8440695635527L1074.9096961333332,338.69066268984824L1077.4167936333333,328.94976552626537L1077.8346432166666,337.40272663834423L1079.90717715,332.53675436522474L1080.3250267333333,326.5547771889581L1081.9964250666665,322.1299273452589L1082.81541025,319.7258860542179L1083.2332598333332,334.2705195490182L1083.6511094166667,345.4979371324939L1086.9771921,348.4597593084806L1088.6485904333333,350.4431740376039L1089.4842896,352.87180615402053L1089.9021391833332,350.2918810070331L1093.2282218666667,341.65303563039924L1094.0639210333331,339.7304922813674L1095.3007558,344.4931404953947L1096.1364549666666,338.8286187340443L1098.2257028833333,333.4692133201299L1100.7160864,330.33107139440347L1101.5517855666667,335.46757889453943L1101.96963515,347.3995477951473L1102.3874847333334,353.57179650897126L1104.0421690833334,354.2465022996271L1105.2957178333334,357.1789448401772L1106.1314169999998,357.3567834447036L1106.5492665833333,350.8203196927256L1107.7861013499999,351.06267627666824L1108.2039509333333,357.4395806080232L1108.6218005166666,352.1589881715269L1110.7110484333332,339.5509264780644L1111.1288980166667,337.2850781153336L1111.9478832,335.7653832253502L1112.7835823666667,343.47520815337504L1113.6192815333334,342.15402050136885L1116.5275146333333,333.01496857153927L1117.7810633833333,334.83715090504575L1119.0346121333332,338.7126617767205L1120.6892964833332,348.9030997587495L1121.52499565,338.810974854318L1126.1046270833333,345.48970959681407L1127.3581758333332,342.3222649642298L1127.7760254166665,343.3204634580541L1130.6842585166667,341.924757320113L1131.5199576833331,339.6082383500923L1131.9378072666666,338.36599047787706L1135.26388995,334.8403721217454L1136.0995891166667,341.5300083489913L1138.17212305,335.3019758607734L1138.5899726333332,341.7239830399803L1140.2613709666666,339.87177654656534L1143.1696040666666,332.5057454212798L1143.5874536499998,337.2092908760116L1144.0053032333333,330.5926916014893L1147.3313859166667,343.4925428544105L1149.8217694333332,346.7065064537758L1150.2396190166667,348.92003119458394L1150.6574686,351.2922416466946L1151.4931677666666,360.0253054541083L1152.3288669333333,340.930508434575L1154.4014008666666,343.6455481420565L1154.8192504499998,345.5084369144664L1156.0727992,350.0325973989644L1158.5631827166665,348.3514103118434L1161.0702802166666,351.3149408926067L1162.3071149833333,350.7392436971514L1163.5606637333333,345.88118287590885L1166.05104725,341.79371873731833L1166.8867464166665,339.6466774722019L1167.304596,334.7785075816766L1167.7224455833332,335.72549934403884L1168.5581447499999,334.8332685776924L1168.9759943333333,338.6694403481347L1169.3938439166666,341.96129074644085L1171.0485282666666,343.8875476875477L1171.4663778499998,343.4673421733976L1171.8842274333333,342.56834215046763L1173.5556257666665,338.22674897493187L1174.7924605333333,343.6235638744323L1176.0460092833332,338.3820252144219L1177.2995580333331,339.53439307581556L1178.9542423833332,339.2462830998482L1180.207791133333,347.9247923349328L1181.0434903,334.6092580692064L1183.5338738166665,335.056193722175L1186.0409713166666,335.7573984869922L1188.5313548333334,332.2090621196055L1189.3670539999998,333.20427350691716L1190.2027531666665,331.81728833747144L1191.0217383499999,333.6216510610835L1191.4395879333333,334.6931532326877L1191.8574375166666,335.7674940136748L1192.2752870999998,341.54745712091267L1192.6931366833333,341.38433237324966L1193.9466854333334,334.2426927030839L1197.2727681166666,337.3561608549883L1198.5263168666665,347.70315296867L1199.34530205,347.3048339701589L1200.5988507999998,338.2300247245458L1202.2702491333332,342.14783926000183L1206.4320309833333,347.17490838043875L1208.0867153333334,340.136611334752L1209.7581136666665,337.0443476685183L1210.17596325,332.77731907902233L1211.0116624166665,327.50304751913393L1211.8306476,324.7031764762844L1212.6663467666665,325.5158096311164L1213.08419635,332.63707862837816L1214.3377451,350.14786613453026L1215.99242945,352.0632027815979L1217.6638277833333,355.49257630533384L1218.49952695,358.0768415721505L1219.3352261166667,345.1333882902636" style="fill: none;" fill="none"></path></g></g></g></g><g opacity="0.2"><g><g><g><path stroke="rgb(255, 112, 67)" stroke-width="2px" d="M85.241315,5.756820373535144L85.65916458333332,61.21550155639649L88.56739768333333,46.67325119018555L90.23879601666667,17.664914398193364L90.65664559999999,17.28524520874024L92.31132994999999,77.89126266479491L92.72917953333334,62.01516540527345L93.14702911666666,11.047395477294923L93.98272828333333,12.546973724365238L94.40057786666665,42.530657653808575L95.65412661666666,13.33726089477538L96.4731118,73.45574859619141L98.9802093,31.314884643554684L101.47059281666667,2.841191101074227L102.30629198333332,70.94648040771483L105.63237466666666,86.97243194580079L106.05022424999999,17.642019195556628L106.46807383333332,38.66516510009764L107.30377299999999,30.11495742797853L108.95845734999999,21.741295928955097L110.2120061,24.58892990112305L111.46555484999999,44.366933441162125L111.88340443333333,70.2776873779297L112.30125401666665,48.55698562622071L113.1202392,79.61409790039063L113.95593836666666,31.60429611206053L114.37378795,45.028995971679684L114.79163753333333,-17.992062683105488L115.20948711666665,39.32906845092774L116.04518628333332,-17.478473815917994L116.46303586666666,25.36293731689455L119.37126896666666,54.17246551513671L120.20696813333332,32.6907827758789L120.62481771666666,74.87818496704101L121.86165248333333,35.86510482788084L123.11520123333332,47.33934051513673L124.78659956666667,45.81289779663088L129.7673666,25.884234619140617L130.18521618333332,1.9586328125000185L131.43876493333335,24.664921264648434L132.6923136833333,37.95800247192381L133.11016326666666,38.924375610351575L134.3469980333333,31.678504180908195L137.27194511666667,14.106953887939458L139.7623286333333,24.21092895507813L141.43372696666665,47.10480850219725L142.25271214999998,-57.207230377197234L143.08841131666665,71.96514434814452L143.92411048333332,50.64033401489256L144.34196006666664,60.697713317871084L146.83234358333334,28.6714666748047L147.25019316666666,50.05851974487303L150.57627585,53.85849060058592L151.41197501666664,62.31867065429686L151.8298246,20.20898559570313L153.08337335,7.842584838867186L156.40945603333333,82.62395416259767L157.66300478333332,60.610849609374995L158.89983955,69.66711029052736L159.73553871666664,35.161393737792984L162.24263621666665,75.84933273315428L163.06162139999998,56.43512130737305L163.4794709833333,126.84934577941897L164.73301973333332,60.41997955322265L165.15086931666667,76.09496719360352L165.5687189,59.73352615356444L167.64125283333334,46.247043762207014L168.89480158333333,22.6305271911621L169.31265116666665,60.153405761718766L169.73050074999998,45.35838775634767L171.80303468333332,43.211531066894516L172.22088426666664,-16.025376281738275L172.63873385,61.10879150390623L173.89228260000002,33.9902293395996L175.9648165333333,83.89164657592772L177.2183652833333,64.0318991088867L177.63621486666668,23.9991195678711L178.05406445,77.48346343994139L178.47191403333332,27.422470092773438L179.70874879999997,97.0877395629883L180.54444796666667,77.04540573120119L181.38014713333334,80.64605026245118L182.21584629999998,74.08064956665038L183.05154546666665,-10.282649688720733L183.87053065,90.42793930053709L185.1240794,44.44752685546874L185.54192898333332,-19.06100402832029L185.95977856666664,92.97816574096682L186.37762815,84.0180879211426L187.21332731666664,90.49386367797854L189.7037108333333,37.26844268798829L193.4476431,41.05063812255858L194.28334226666664,73.43877853393553L195.11904143333334,13.263225402832047L196.7737257833333,106.49645980834963L197.19157536666668,89.90422592163088L197.60942495,43.84690170288087L200.93550763333334,73.2412355041504L201.35335721666667,89.88420700073242L203.02475554999998,68.20883544921877L203.44260513333333,69.4847540283203L203.86045471666665,93.30301300048826L205.09728948333333,103.26605026245116L208.84122175,104.31474258422853L209.2590713333333,13.329609985351583L210.5126200833333,27.394397583007827L211.34831924999997,63.11695388793946L212.18401841666667,82.14965530395507L213.42085318333332,94.68472122192382L214.25655234999996,61.13243453979491L214.67440193333334,49.59900497436523L215.51010109999999,93.70298873901369L216.34580026666666,36.749101257324234L217.16478544999998,98.41963058471681L218.00048461666663,71.64328842163087L220.08973253333332,90.88946746826171L220.50758211666664,70.10010574340819L221.3265673,66.34713333129882L221.74441688333334,49.82657638549803L225.48834915,47.85310195922851L226.32404831666665,70.9455599975586L226.7418979,56.261106262207036L227.99544664999996,108.03164642333984L230.0679805833333,85.95790985107422L230.90367974999998,69.14253402709961L231.3215293333333,48.79519927978514L232.57507808333332,91.82414398193362L233.81191284999997,65.1308688354492L235.90116076666666,102.34489227294922L236.73685993333333,105.31937026977539L237.15470951666666,59.36800827026365L239.64509303333332,97.56750335693357L240.06294261666665,12.67755691528319L240.89864178333332,81.65873153686525L242.55332613333331,131.99006660461427L243.3890253,104.053231048584L243.8068748833333,99.25708877563478L245.47827321666668,45.44945083618166L246.71510798333333,101.36546081542967L247.13295756666665,40.83951904296875L247.55080714999997,62.65053604125976L249.22220548333334,8.56453155517578L251.29473941666663,64.97284591674803L251.71258899999998,57.23984741210937L252.1304385833333,43.64337600708006L252.54828816666665,53.37855422973631L252.96613775,77.18864456176756L253.38398733333332,73.1235955810547L256.71007001666663,94.8674801635742L257.9636187666667,41.89246826171876L258.78260395,92.06339309692382L262.12540061666664,76.91125595092775L264.19793455,33.75333877563476L264.6157841333333,85.26156204223632L265.03363371666666,101.79661544799806L265.4514833,85.26944305419923L265.8693328833333,112.33209030151366L267.5240172333333,64.03471786499024L269.61326514999996,114.05952758789061L270.44896431666666,28.196707611083966L272.52149825,105.0340431213379L272.93934783333333,73.81597412109373L274.6107461666666,69.45541595458984L275.42973135,79.60236267089844L275.8475809333333,87.46203262329102L277.1011296833333,37.66502441406248L278.35467843333333,36.21491821289064L278.7725280166667,126.85866493225096L280.42721236666665,57.79462463378908L280.84506194999994,99.81738845825194L282.51646028333334,74.10561569213868L285.0068438,60.01563186645507L285.4246933833333,108.56692245483399L285.84254296666666,68.58378753662112L286.6782421333333,105.05642059326172L287.09609171666665,54.03118255615235L287.9150769,76.4723928833008L288.7507760666667,81.73201919555665L289.16862564999997,73.57350357055665L289.5864752333333,77.34120254516603L290.00432481666667,55.765580444335946L292.07685875,100.10679992675783L292.91255791666663,115.39038314819334L293.3304075,100.68038803100588L293.7482570833333,177.2929421234131L294.58395624999997,99.583719329834L296.6564901833333,91.04196792602541L297.07433976666664,71.8644169616699L298.7457381,25.642742004394545L299.16358768333333,98.84957717895507L300.40042244999995,81.86001373291016L301.23612161666665,79.08727813720704L302.90751995,120.5076335144043L303.32536953333334,116.27610534667967L304.9800538833333,106.20612792968751L305.39790346666666,36.25702697753908L305.81575305,124.31640579223634L306.2336026333333,90.60345001220702L307.0693018,62.39926406860351L307.4871513833333,84.29242767333983L309.1418357333333,104.44066619873047L309.5596853166667,78.73740722656251L309.97753489999997,117.12944061279298L310.81323406666667,105.15691787719727L312.06678281666666,117.26986068725584L314.13931675,95.03965438842772L315.8107150833333,100.38677719116211L316.2285646666666,95.38889251708986L317.8832490166667,91.60779006958009L319.1367977666667,116.528585357666L319.55464735,18.865244293212875L319.97249693333333,84.15218017578124L320.3903465166667,63.45037246704102L321.2093317,128.75692459106443L321.6271812833333,105.6314468383789L322.8807300333333,94.42723648071288L323.29857961666664,108.77395721435546L323.7164292,95.68353881835935L324.1342787833333,58.247581481933594L325.7889631333333,137.2168170166016L328.71391021666665,82.8804034423828L330.3685945666666,87.81253631591798L330.78644414999997,68.32279373168946L331.6221433166666,126.16778205871582L332.03999289999996,96.9419120788574L332.45784248333337,84.85428054809572L333.69467725,110.82503372192384L334.5303764166666,115.17316635131837L335.3660755833333,113.0680157470703L336.20177474999997,26.953923797607438L336.6196243333333,149.73738647460937L338.2743086833333,111.7207078552246L339.11000784999993,118.96709701538086L340.3635566,67.20501312255861L340.78140618333333,77.59408523559571L343.6896392833333,99.4178729248047L344.10748886666664,104.4131689453125L344.52533844999994,102.48312637329101L346.5978723833333,166.5920523071289L347.8514211333333,102.33309951782225L348.6871203,85.17256988525389L350.34180465,125.99635566711424L352.0132029833334,126.20876907348632L353.68460131666666,100.35508056640624L354.5035865,147.71676979064944L354.92143608333333,84.24502655029296L355.75713525,74.09434066772462L356.5928344166666,122.89540756225584L357.01068399999997,95.94401489257814L357.4285335833333,122.77463249206544L358.66536834999994,156.73874519348144L359.5010675166667,57.16431625366212L359.9189171,68.35086624145507L360.33676668333334,62.50977081298827L360.7546162666667,111.39890945434568L362.0081650166667,153.95591384887697L362.82715019999995,132.57142066955566L364.91639811666664,126.15127220153806L365.7520972833333,97.34441894531248L367.4067816333333,62.6709001159668L367.82463121666666,141.38242080688477L368.6603303833333,119.42511611938478L369.49602955,90.57393936157227L370.33172871666665,101.03946304321289L371.56856348333326,84.75194244384767L371.9864130666666,121.11084732055666L373.23996181666666,174.34814735412596L374.0756609833333,152.02886260986327L374.49351056666666,65.89722534179687L376.5660445,101.07236770629883L378.2374428333333,144.31726364135744L379.89212718333334,114.89520248413088L380.3099767666667,108.07369766235354L380.72782635,119.51290023803709L381.14567593333334,120.51350112915038L381.5635255166667,145.41870697021486L384.0539090333333,137.41064964294435L384.88960819999994,134.56928596496584L385.3074577833333,115.86830612182617L385.72530736666664,119.36062988281252L386.14315694999993,91.91578231811525L386.5610065333333,107.65928298950196L388.2156908833333,139.93450057983395L389.05139005,136.60658508300781L392.37747273333326,152.25099784851076L393.63102148333326,172.78836853027346L396.121405,144.37329360961914L396.53925458333333,121.07857543945313L396.9571041666666,133.4821952819824L398.2106529166666,83.88859771728515L399.0463520833333,142.0681551361084L399.4642016666666,111.05881790161133L400.28318685,143.16749877929686L401.5367356,97.7025160217285L403.6259835166666,89.58616668701173L404.8628182833333,109.09592819213867L405.69851744999994,124.13473983764648L406.1163670333333,125.5124787902832L406.95206619999993,121.961708984375L408.60675055,134.39023742675784L409.0246001333333,130.39462188720705L409.86029929999995,110.62047256469725L411.5316976333333,119.51071426391601L411.94954721666664,101.57243804931642L413.18638198333326,165.1510063934326L414.4399307333333,80.81724655151369L415.2756299,115.49565505981445L416.93031425,107.05204238891599L417.34816383333333,126.48515098571777L418.183863,143.304783706665L419.0195621666666,94.28549331665037L419.43741174999997,108.63756393432617L420.2731109166666,121.29107513427732L421.0920961,134.86790153503418L421.92779526666664,86.05944259643556L422.34564485,129.9275712585449L422.76349443333334,120.72392990112306L425.25387794999995,115.74048416137694L426.9252762833333,100.5257015991211L427.3431258666667,87.47739196777344L427.76097544999993,131.30206001281735L432.75845646666664,98.10151382446288L433.57744165,149.61146286010742L434.41314081666667,114.56391235351562L436.92023831666666,146.13524627685547L437.7392235,140.9833079528809L438.99277225,197.15389762878416L439.41062183333327,100.2858772277832L440.66417058333326,137.2900471496582L442.31885493333334,144.53077003479004L442.73670451666663,148.86472259521486L443.57240368333333,87.54389160156249L443.9902532666666,114.40485397338865L444.40810285,149.71871940612792L444.8259524333333,93.80233551025391L445.2438020166666,155.97799743652342L448.1520351166666,135.53393333435056L449.40558386666663,105.53440109252928L453.1495161333333,106.41828247070312L455.63989965,77.0239486694336L456.0577492333333,134.99281845092776L456.47559881666666,102.7830075073242L456.8934484,99.99094329833986L458.54813275,111.70874252319334L461.89092941666667,95.95137817382813L462.7099146,140.72369476318357L463.54561376666663,157.94131858825685L464.38131293333333,127.80056091308593L466.0527112666666,83.51813262939451L466.87169644999994,109.95219726562499L468.54309478333334,158.7798985290527L468.96094436666664,129.5112294769287L469.79664353333334,135.71605949401857L470.21449311666663,115.01479827880861L471.03347829999996,146.60925750732423L471.86917746666666,136.9632440185547L472.28702704999995,125.01994430541994L473.54057579999994,120.87703437805175L474.37627496666664,147.05545509338376L476.8666584833333,193.61368377685548L477.28450806666666,121.0119895172119L478.53805681666665,125.72092292785644L480.1927411666666,178.2660457611084L481.4462899166666,125.73582206726076L482.28198908333326,112.39974044799804L483.93667343333334,126.53099891662598L484.35452301666663,128.0299156188965L486.02592135,99.77257598876952L486.44377093333327,100.48393798828126L492.67808671666666,109.89455657958986L493.09593629999995,121.57855949401858L493.5137858833333,158.30295349121093L495.1851842166667,153.87992248535159L496.4220189833333,157.20901725769042L497.6755677333333,157.45082626342776L498.51126689999995,72.97368377685545L498.9291164833333,147.71357711791993L500.58380083333327,164.17798904418947L501.0016504166666,107.08103530883788L501.83734958333326,135.40944786071776L503.0908983333333,111.56458328247069L503.50874791666666,118.59657440185549L504.7455826833333,161.62805023193357L505.16343226666663,158.545797958374L506.4169810166666,82.43072555541991L508.48951494999994,107.07930953979493L508.90736453333335,168.28385246276852L509.7430637,75.8993800354004L510.57876286666664,112.86351211547853L512.6512968,144.37996658325196L513.0691463833333,149.89072105407715L513.90484555,127.71720626831055L514.3226951333334,119.50547943115237L514.7405447166666,91.51897048950195L515.1583942999999,140.80612899780274L515.9940934666666,157.13078239440918L518.0666273999999,152.06401077270507L518.9023265666667,108.85000610351562L519.32017615,170.84903556823733L520.9748605,152.4075826263428L522.6462588333333,140.21278083801266L523.8998075833333,121.29334739685059L525.5544919333332,136.17692611694335L525.9723415166667,118.5351370239258L527.64373985,90.82854782104494L528.4794390166667,138.6972679901123L529.2984242,139.60367065429688L530.1341233666666,149.63648651123046L530.9698225333333,154.7032581329346L531.3876721166666,129.8027693939209L532.6412208666666,132.93524154663086L535.1316043833333,157.28443336486816L535.96730355,176.0384518432617L536.3851531333333,127.7320478820801L537.6219878999999,151.91746421813963L538.0398374833333,184.83645118713378L539.7112358166667,83.2666305541992L541.7837697499999,114.94179824829102L542.6194689166666,166.878472442627L543.4551680833333,131.01986801147464L544.2908672499999,191.97604400634762L545.1265664166666,163.80277809143067L545.9455516,166.9078392791748L547.19910035,141.013221282959L547.6169499333333,144.267791595459L548.0347995166667,86.90645004272461L548.8704986833333,115.25381729125976L551.3608822,182.70673713684084L552.1965813666666,146.4863539886475L553.0322805333333,127.83648567199708L553.4501301166666,118.84732864379882L554.2691153,137.6207332611084L556.3583632166666,154.18584381103517L558.43089715,123.83060180664064L559.2665963166667,104.54984985351564L559.6844458999999,155.37348930358885L562.592679,132.91254768371584L563.0105285833333,158.48594253540037L563.4283781666667,100.11542877197267L563.8462277499999,161.71554672241214L564.2640773333333,133.53589546203617L565.9354756666667,169.28894035339354L567.5901600166667,120.92250839233397L570.0972575166667,167.8806265258789L570.9162427,143.0506642150879L572.1697914499999,190.94673782348633L573.0054906166666,140.01696357727053L573.4233402,140.00983039855956L573.8411897833332,148.93985107421875L575.07802455,112.99507324218749L576.3315733,128.2903054046631L577.1672724666666,135.770191116333L578.0029716333333,149.62981353759767L578.4208212166666,136.0518653869629L579.2398063999999,120.19595962524416L579.6576559833333,161.8906259918213L580.0755055666666,141.63446937561037L580.49335515,156.63148864746094L581.7469039,116.3073992919922L582.1647534833334,145.71174255371093L583.4015882499999,122.81075859069824L583.8194378333333,192.45221244812015L584.2372874166666,183.7893120574951L585.4908361666667,112.14219818115237L585.9086857499999,151.48116104125975L586.3265353333333,118.85043502807618L588.3990692666666,98.10536804199216L591.7251519499999,153.19231857299803L592.5608511166666,154.42805549621582L593.3965502833332,126.5505576324463L593.8143998666666,126.50016517639159L594.23224945,125.59974517822263L595.8869338,143.59272827148436L596.7226329666667,161.80174888610838L597.5583321333334,137.8404524230957L597.9761817166666,214.0709212493896L598.8118808833333,151.80434005737303L601.3022644,189.01102897644043L602.1379635666666,123.51208236694336L602.55581315,213.03036880493164L604.2104975,162.01801651000974L604.6283470833333,137.26792854309082L605.4640462499999,154.160590057373L605.8818958333333,180.39668022155763L606.717595,166.7711296081543L607.1354445833333,126.50534248352051L608.37227935,197.2966187286377L608.7901289333333,153.16168617248536L609.2079785166667,138.9341873168945L610.4615272666666,99.276417388916L611.7150760166667,163.07450355529784L613.7876099499999,109.19556259155273L614.6233091166666,127.1837998199463L615.4590082833333,136.22950454711912L615.8768578666667,138.6875749206543L616.69584305,114.02288375854494L617.1136926333334,160.35647483825682L620.0386397166666,164.65651603698728L621.2754744833334,139.75352493286132L622.11117365,162.2170552062988L623.3647224,134.27489852905273L626.2729555,187.55373207092285L626.6908050833333,180.86991485595703L627.52650425,146.39011360168456L627.9443538333333,138.09534851074218L628.3622034166666,100.09500717163085L630.43473735,192.7563217163086L631.2704365166666,131.1828956604004L632.1061356833333,134.158984375L633.3429704499999,160.72043952941897L633.7608200333333,139.40894638061525L634.1786696166665,100.11456588745118L635.4322183666666,158.77567039489747L635.85006795,177.29501304626467L636.2679175333333,132.77546409606936L637.5047523,123.93820350646972L637.9226018833333,169.60058547973634L639.1761506333332,131.42001632690432L640.8475489666667,151.16793395996095L641.66653415,192.7558039855957L642.0843837333332,129.70744941711425L642.9200829,151.0288082122803L644.5914812333333,200.56042190551756L645.0093308166666,152.71968795776368L647.0818647499999,167.56627769470214L649.1711126666667,148.29369438171383L650.4079474333333,161.68364875793455L652.0793457666666,168.3285786437988L653.3328945166667,125.41114738464356L654.1518796999999,123.91395645141603L656.2411276166666,153.42748336791993L657.0768267833333,119.43426269531248L658.3136615499999,154.1620569610596L658.7315111333334,164.975668258667L659.1493607166666,145.65047775268556L659.9850598833333,161.78492263793947L661.2386086333333,180.5163335418701L661.6564582166666,194.52391189575195L662.4754433999999,155.21517875671387L662.8932929833334,102.62371902465821L663.72899215,162.72333831787108L664.5646913166667,129.98624740600587L664.9825408999999,129.08588493347165L666.63722525,195.80008934020995L667.0550748333333,194.4374221038818L669.5621723333334,123.73295204162596L671.6347062666666,185.0556526184082L673.7239541833333,175.54206314086912L674.1418037666666,143.74804748535155L674.96078895,154.27641792297362L676.6321872833333,145.21641807556153L677.8857360333333,195.89848693847654L680.37611955,180.60866218566895L681.6296682999999,124.48538734436036L684.1200518166667,192.52072547912599L684.5379014,162.40205764770508L685.79145015,150.60277336120603L687.8639840833332,156.95463890075683L689.5353824166667,158.1682859802246L692.0257659333332,165.60361808776855L694.11501385,155.71007179260255L694.9507130166667,184.70207130432132L696.6053973666667,158.26973243713377L697.0232469499999,181.51106681823728L697.8589461166666,155.72315887451174L701.1850287999999,151.60101570129393L705.34681065,169.216918258667L705.7646602333333,158.75789497375487L706.6003593999999,181.39906440734865L707.0182089833334,170.35805427551273L708.6728933333333,194.98932304382322L709.0907429166666,156.2429892730713L709.9264420833333,183.47680404663086L711.5978404166666,123.65581016540528L712.8346751833333,206.57288619995117L714.5060735166666,150.61747116088867L714.9239231,173.16694473266602L715.3417726833333,204.5304385375977L715.7596222666666,133.65537620544433L716.57860745,177.2681773376465L718.2500057833333,187.73585823059082L719.5035545333333,154.14134773254395L719.9214041166666,140.13365432739258L721.99393805,138.6476233673096L724.0831859666665,123.7576880645752L724.90217115,203.274423828125L726.5735694833332,212.24229637146L727.8271182333333,183.1619374847412L729.8996521666667,178.34151939392092L738.6410654499999,156.55440429687502L739.0589150333333,187.89209785461424L740.7303133666667,151.76841529846192L745.7110803999999,197.1257388305664L746.1289299833334,196.09309616088865L747.8003283166667,184.98869277954103L748.6360274833334,100.20131454467776L749.0538770666666,151.83819389343262L749.8728622499999,172.15325675964357L750.2907118333334,152.3634029388428L751.5442605833333,165.08217697143556L752.7978093333334,189.79953285217283L754.0346441,193.07231002807617L754.8703432666666,141.8343997192383L755.2881928499999,149.2107105255127L756.1238920166666,179.78147232055667L756.5417415999999,187.21142578125L757.3774407666666,172.61803512573243L758.19642595,183.4049257659912L758.6142755333333,161.94001174926757L759.0321251166666,191.35082664489744L759.4499747,160.17673599243167L760.2856738666666,166.90343856811523L763.61175655,183.39787887573243L764.8653053,179.80571937561035L765.2831548833333,151.04471405029298L766.51998965,168.2987228393555L769.4449367333333,158.84478744506836L771.5174706666667,128.910316696167L772.3531698333333,147.74262756347656L772.7710194166667,117.2699757385254L774.0245681666667,159.39962219238282L774.84355335,182.86651458740232L776.5149516833333,169.50555313110348L776.9328012666667,175.33459693908694L777.35065085,179.76700462341307L778.1863500166667,194.04929664611817L781.5124327,172.53318481445314L781.9302822833332,152.47819534301757L782.3481318666667,199.07042167663573L783.5849666333332,205.3368616485596L784.4206657999999,242.16296096801756L784.8385153833332,241.88430679321286L788.1645980666666,240.70727478027342L790.2538459833333,249.1521242523193L793.1620790833333,272.6847109222412L794.4156278333334,295.04130104064944L794.8334774166666,312.66606254577636L796.4881617666666,287.31575210571293L799.81424445,281.2428283691406L801.0677932,255.16476112365723L801.4856427833333,317.3964242553711L801.9034923666666,264.5446322631836L806.0652742166666,304.6690789031983L807.3188229666666,305.4411304473877L808.13780815,307.7687614440918L808.9735073166665,300.1998260498047L809.8092064833332,286.7899678039551L810.2270560666666,318.3093560791015L810.6449056499999,293.70874847412114L811.0627552333333,310.0294038391113L812.7174395833333,303.00198600769045L813.55313875,293.71378196716313L814.3888379166666,296.85295585632326L814.8066875,301.34150856018067L815.2245370833333,291.40490432739256L816.8792214333332,312.3377637481689L818.96846935,262.26480506896974L821.4588528666667,303.1950995635986L821.8767024499999,272.534799118042L822.2945520333333,302.88546783447265L823.9659503666667,283.76026519775394L824.7849355499999,315.5286531829834L825.2027851333332,306.29386169433593L828.9467173999999,334.57168045043943L829.7824165666666,281.69730964660647L830.20026615,276.68961685180665L831.0359653166666,291.3928239440918L833.9441984166666,301.1911365509033L834.7798975833333,324.56828895568844L835.6155967499999,347.82719741821285L836.0334463333334,325.3994193267822L838.1059802666666,318.40778244018554L839.7773785999999,287.37992195129397L840.6130777666666,305.93098999023437L842.2677621166666,303.6020934295654L842.6856116999999,349.43955467224123L844.7748596166666,320.61478218078616L845.5938448,324.7173666381836L846.4295439666666,331.06051704406735L847.2652431333333,345.24579208374024L847.6830927166666,308.85173904418946L848.1009423,315.3401416778564L848.5187918833333,322.61276252746586L849.75562665,291.84172523498535L850.5913258166665,302.26062438964846L852.26272415,321.277391204834L853.0984233166665,320.4411122894287L854.3352580833333,358.68890014648434L855.5888068333333,311.20827667236324L856.0066564166666,319.9239568328857L858.07919035,314.3126475524902L859.3327391,324.95192741394044L860.1684382666665,299.95327117919925L860.58628785,350.27661018371583L861.4219870166665,321.26513824462893L863.0766713666667,304.4664160919189L863.4945209499999,322.47501739501956L863.9123705333333,322.52213088989254L864.3302201166666,322.9996799468994L866.8206036333332,324.50665023803714L867.2384532166667,290.7374631500244L867.6563027999999,345.08210289001465L869.3277011333332,324.9506618499756L869.7455507166667,298.909094619751L870.9823854833332,337.340993270874L871.81808465,303.8429244995117L873.0716333999999,324.4450978088379L873.9073325666667,279.5133201599121L874.7263177499999,323.1645771789551L875.1441673333334,332.3840380859375L875.5620169166666,324.9300389099121L878.0691144166666,307.2990933990478L880.1416483499999,320.5199224090576L880.5594979333333,315.8651781463623L880.9773475166667,332.7719334411621L881.3951970999999,338.77159828186035L883.8855806166666,342.66473190307613L887.6295128833333,302.6775126647949L888.0473624666666,304.1345507049561L889.7187607999999,336.83137367248537L890.5544599666666,340.49078063964845L892.2091443166665,316.53302200317387L892.6269939,376.261342086792L893.0448434833332,337.4817584991455L893.4626930666666,304.18416656494145L894.2983922333333,366.09001888275145L894.7162418166666,301.7460863494873L896.3709261666665,340.47283264160154L898.4601740833333,343.00775726318363L898.8780236666665,343.06631835937503L900.1148584333332,350.2011940765381L901.3684071833333,343.2363641357422L904.6944898666667,327.7064561462402L905.1123394499999,312.02502563476565L905.5301890333333,364.08122371673585L906.7837377833332,349.82100715637205L908.8562717166667,341.1650386047363L909.2741212999999,310.50220703125L909.6919708833333,351.6340425872803L910.9455196333332,322.03684463500974L911.3633692166667,335.2514608764649L912.6002039833332,360.6607926177979L913.43590315,303.68073097229L914.2716023166666,335.7738224029541L916.3441362499999,383.9528646087646L917.1798354166666,339.82031936645507L919.6869329166666,347.7613018035889L920.9237676833334,356.42374198913575L922.5951660166667,285.7360981750488L925.0855495333333,318.02325233459476L926.7569478666666,361.2754540252686L928.0104966166666,337.57679084777834L928.8294817999999,331.1702184295654L929.6651809666666,327.01899604797364L930.0830305499999,328.86289398193355L930.9187297166666,351.29150619506834L931.3365792999999,339.05755821228024L931.7544288833333,329.42164047241215L932.9912636500001,315.698727722168L933.4091132333333,375.9727935028076L933.8269628166665,351.4314085388184L937.1530455,345.43352699279785L937.5708950833333,344.3594371032715L937.9887446666665,339.8208946228027L938.40659425,349.5720074462891L939.660143,335.56132270812986L943.82192485,358.709983291626L945.8944587833332,350.17525001525877L946.3123083666666,375.8506521987915L946.7301579499999,325.9745030975342L947.1480075333333,352.3662001037598L948.8194058666666,356.20842353820797L949.63839105,385.0383589553833L950.4740902166667,329.37979057312015L950.8919397999999,314.46822563171384L951.7276389666666,357.72991905212405L952.9811877166667,317.7964287567139L954.6358720666667,333.99639533996583L955.0537216499999,315.8209696960449L955.8894208166666,312.44401359558105L956.7251199833332,336.04643638610844L957.9619547499999,349.86728652954105L960.0512026666667,348.1935206604004L962.1237365999999,361.83486206054687L963.37728535,345.6676563262939L965.0486836833333,355.6262353515625L966.2855184499999,355.53692680358887L966.7033680333333,310.23859580993656L967.1212176166666,341.25610168457035L968.3747663666667,331.9118964385986L970.8651498833333,319.34941955566404L973.3722473833333,357.0888533782959L973.7900969666666,342.3007672119141L974.6090821499998,371.2473933792114L975.8626308999999,317.26563972473144L977.1161796499999,373.75758197784427L978.770864,371.68596881866455L979.1887135833333,333.55540382385254L980.8601119166666,336.3603825378418L981.2779615000001,344.17992835998535L981.6958110833333,338.97172996520993L983.3504954333333,326.4546120452881L984.1861946,322.2809834289551L985.43974335,361.2092707824707L985.8575929333333,332.47909919738765L987.0944277,349.94997962951663L988.34797645,326.966129989624L990.0193747833333,340.02620361328127L990.4372243666666,346.29408172607424L991.25620955,352.6634350585938L991.6740591333332,300.2770829772949L992.0919087166666,346.11178298950193L992.9276078833333,341.8361614227295L993.3454574666665,330.1833086395264L993.76330705,333.14329017639164L994.1811566333332,351.11915939331055L997.0893897333333,342.0244140625L997.9250889,345.6818076324463L998.7607880666667,328.29810729980466L999.5797732499999,331.5707694244385L999.9976228333333,341.7761909484863L1000.4154724166666,338.77763847351076L1000.833322,332.14947731018066L1001.6690211666667,345.7040412902832L1002.5047203333332,342.57458923339846L1002.9225699166667,352.3482521057129L1004.5772542666666,360.9066859436035L1004.99510385,371.37997558593753L1006.2486525999999,348.5363446807861L1016.2269006499998,341.3259378051758L1016.6447502333333,358.8335771179199L1018.3161485666666,354.19962837219236L1018.7339981499999,353.7723567199707L1019.1518477333333,346.4188835906983L1020.3886824999998,363.31883647918704L1020.8065320833333,342.6402547454834L1021.6422312499999,353.8141490936279L1022.8957799999998,348.68119422912594L1023.3136295833333,328.10807136535647L1024.55046435,356.17641052246097L1024.9683139333333,338.8629202270508L1025.3861635166666,325.1331906890869L1027.05756185,351.1879600524902L1027.4754114333332,371.21625762939453L1028.7122462,287.914967880249L1029.1300957833332,355.67550605773926L1030.3836445333334,369.9164946746826L1031.2193437,332.36744194030763L1033.7097272166666,318.7107124328613L1034.1275768,328.7062516784668L1034.5454263833333,362.25310218811035L1034.9632759666665,323.7539560699463L1039.5429073999999,352.85784294128416L1039.9607569833333,346.58168113708496L1041.19759175,343.04900314331053L1042.8689900833333,347.5612564086914L1044.5403884166667,326.7636109924316L1045.3593736,351.84795166015624L1047.4486215166667,336.29002868652344L1048.2843206833331,332.8023069763184L1048.7021702666666,330.2050820922851L1049.9390050333332,338.6603149414062L1050.3568546166666,339.7656700134277L1050.7747041999999,343.73677963256836L1052.4461025333333,312.3747814941406L1052.8639521166667,342.9085543060303L1053.6829372999998,327.00406814575194L1054.1007868833333,324.3691352081299L1054.93648605,332.33163223266604L1056.1900348,345.4229135131836L1056.6078843833334,369.9268492889404L1057.0257339666666,317.10879608154295L1057.84471915,342.76197898864746L1059.0982678999999,350.1430644226074L1059.5161174833333,350.57965522766114L1061.1875158166665,348.6232083892822L1062.0065009999998,345.7011074829102L1063.6778993333332,329.12371520996095L1064.0957489166667,337.08641357421874L1064.9314480833334,349.3876953125L1065.3492976666666,322.84421691894534L1066.16828285,359.00068908691406L1067.0039820166667,303.16728591918945L1067.4218316,329.922861328125L1070.7479142833333,342.22258987426756L1071.1657638666666,344.22120300292966L1071.58361345,343.87035415649416L1072.8371622,327.89430610656734L1074.9096961333332,345.3327133178711L1077.4167936333333,306.2210054779053L1077.8346432166666,357.12630256652835L1079.90717715,321.1828190612793L1080.3250267333333,312.596830444336L1081.9964250666665,311.80527770996093L1082.81541025,314.116456375122L1083.2332598333332,368.2079977035522L1083.6511094166667,371.6952448272705L1086.9771921,355.3706777191162L1088.6485904333333,355.0711417388916L1089.4842896,358.53861442565915L1089.9021391833332,344.2720556640625L1093.2282218666667,321.4957297515869L1094.0639210333331,335.24455780029297L1095.3007558,355.60598632812497L1096.1364549666666,325.6114012908935L1098.2257028833333,320.96393402099613L1100.7160864,323.008740234375L1101.5517855666667,347.45276306152346L1101.96963515,375.24080856323246L1102.3874847333334,367.97371017456055L1104.0421690833334,355.8208158111572L1105.2957178333334,364.0213107681274L1106.1314169999998,357.77174018859864L1106.5492665833333,335.5685709381104L1107.7861013499999,351.62817497253417L1108.2039509333333,372.31902404785154L1108.6218005166666,339.8376058197021L1110.7110484333332,310.13211585998533L1111.1288980166667,331.99809860229493L1111.9478832,332.21942848205566L1112.7835823666667,361.4647996520996L1113.6192815333334,339.0712493133545L1116.5275146333333,311.69051406860353L1117.7810633833333,339.08890968322754L1119.0346121333332,347.75552047729497L1120.6892964833332,372.6807883834839L1121.52499565,315.2626834106445L1126.1046270833333,361.07342399597167L1127.3581758333332,334.9315608215332L1127.7760254166665,345.6495932769775L1130.6842585166667,338.668109664917L1131.5199576833331,334.20302742004395L1131.9378072666666,335.467412109375L1135.26388995,326.61392929077147L1136.0995891166667,357.13915954589845L1138.17212305,320.7699000549316L1138.5899726333332,356.70866645812987L1140.2613709666666,335.54996139526367L1143.1696040666666,315.3183394622803L1143.5874536499998,348.18423027038574L1144.0053032333333,315.15395996093747L1147.3313859166667,373.5921957778931L1149.8217694333332,354.20575485229494L1150.2396190166667,354.0849222564697L1150.6574686,356.82739936828614L1151.4931677666666,380.4024543380737L1152.3288669333333,296.37598205566405L1154.4014008666666,349.98064079284666L1154.8192504499998,349.85517738342287L1156.0727992,360.58897186279296L1158.5631827166665,344.4286404418946L1161.0702802166666,358.2298455810547L1162.3071149833333,349.3959502410888L1163.5606637333333,334.54570762634273L1166.05104725,332.25630241394043L1166.8867464166665,334.6369145202637L1167.304596,323.4194445037842L1167.7224455833332,337.9351467895508L1168.5581447499999,332.7513967895508L1168.9759943333333,347.6205078125L1169.3938439166666,349.64227500915524L1171.0485282666666,348.38214721679685L1171.4663778499998,342.4868626403809L1171.8842274333333,340.47067543029783L1173.5556257666665,328.0963648986816L1174.7924605333333,356.2161319732666L1176.0460092833332,326.1517683410645L1177.2995580333331,342.2232514190674L1178.9542423833332,338.5740264892578L1180.207791133333,368.17464721679687L1181.0434903,303.5396781158447L1183.5338738166665,336.09904357910153L1186.0409713166666,337.39354293823243L1188.5313548333334,323.9296105957031L1189.3670539999998,335.52643341064453L1190.2027531666665,328.58098960876464L1191.0217383499999,337.8318307495117L1191.4395879333333,337.1933249664306L1191.8574375166666,338.27428916931154L1192.2752870999998,355.0340377044678L1192.6931366833333,341.0037079620362L1193.9466854333334,317.5788668060303L1197.2727681166666,344.62091987609864L1198.5263168666665,371.8461345672607L1199.34530205,346.3754229736328L1200.5988507999998,317.0554698181152L1202.2702491333332,351.2894065093994L1206.4320309833333,358.904736328125L1208.0867153333334,323.7139182281494L1209.7581136666665,329.82906578063967L1210.17596325,322.82091903686523L1211.0116624166665,315.1964138793945L1211.8306476,318.17014404296873L1212.6663467666665,327.4119536590576L1213.08419635,349.2533729553223L1214.3377451,391.0063703155517L1215.99242945,356.53232162475587L1217.6638277833333,363.49444786071774L1218.49952695,364.1067938613892L1219.3352261166667,314.93199729919434" style="fill: none;" fill="none"></path></g></g></g></g></g></g><g transform="translate(30, 377)" clip-path="url(#clip_1)"><clipPath id="clip_1"><rect width="1253" height="23"></rect></clipPath><g><g><line x1="0" y1="0" x2="0" y2="5" style="visibility: inherit;" fill="rgb(0, 0, 0)" stroke="rgb(204, 204, 204)" stroke-width="1px"></line><line x1="83.56991666666666" y1="0" x2="83.56991666666666" y2="5" style="visibility: inherit;" fill="rgb(0, 0, 0)" stroke="rgb(204, 204, 204)" stroke-width="1px"></line><line x1="167.1398333333333" y1="0" x2="167.1398333333333" y2="5" style="visibility: inherit;" fill="rgb(0, 0, 0)" stroke="rgb(204, 204, 204)" stroke-width="1px"></line><line x1="250.70974999999999" y1="0" x2="250.70974999999999" y2="5" style="visibility: inherit;" fill="rgb(0, 0, 0)" stroke="rgb(204, 204, 204)" stroke-width="1px"></line><line x1="334.2796666666666" y1="0" x2="334.2796666666666" y2="5" style="visibility: inherit;" fill="rgb(0, 0, 0)" stroke="rgb(204, 204, 204)" stroke-width="1px"></line><line x1="417.84958333333327" y1="0" x2="417.84958333333327" y2="5" style="visibility: inherit;" fill="rgb(0, 0, 0)" stroke="rgb(204, 204, 204)" stroke-width="1px"></line><line x1="501.41949999999997" y1="0" x2="501.41949999999997" y2="5" style="visibility: inherit;" fill="rgb(0, 0, 0)" stroke="rgb(204, 204, 204)" stroke-width="1px"></line><line x1="584.9894166666667" y1="0" x2="584.9894166666667" y2="5" style="visibility: inherit;" fill="rgb(0, 0, 0)" stroke="rgb(204, 204, 204)" stroke-width="1px"></line><line x1="668.5593333333333" y1="0" x2="668.5593333333333" y2="5" style="visibility: inherit;" fill="rgb(0, 0, 0)" stroke="rgb(204, 204, 204)" stroke-width="1px"></line><line x1="752.12925" y1="0" x2="752.12925" y2="5" style="visibility: inherit;" fill="rgb(0, 0, 0)" stroke="rgb(204, 204, 204)" stroke-width="1px"></line><line x1="835.6991666666665" y1="0" x2="835.6991666666665" y2="5" style="visibility: inherit;" fill="rgb(0, 0, 0)" stroke="rgb(204, 204, 204)" stroke-width="1px"></line><line x1="919.2690833333332" y1="0" x2="919.2690833333332" y2="5" style="visibility: inherit;" fill="rgb(0, 0, 0)" stroke="rgb(204, 204, 204)" stroke-width="1px"></line><line x1="1002.8389999999999" y1="0" x2="1002.8389999999999" y2="5" style="visibility: inherit;" fill="rgb(0, 0, 0)" stroke="rgb(204, 204, 204)" stroke-width="1px"></line><line x1="1086.4089166666665" y1="0" x2="1086.4089166666665" y2="5" style="visibility: inherit;" fill="rgb(0, 0, 0)" stroke="rgb(204, 204, 204)" stroke-width="1px"></line><line x1="1169.9788333333333" y1="0" x2="1169.9788333333333" y2="5" style="visibility: inherit;" fill="rgb(0, 0, 0)" stroke="rgb(204, 204, 204)" stroke-width="1px"></line><line x1="1253.54875" y1="0" x2="1253.54875" y2="5" style="visibility: inherit;" fill="rgb(0, 0, 0)" stroke="rgb(204, 204, 204)" stroke-width="1px"></line></g><g transform="translate(0, 8)"><text x="0" y="0" dx="0em" dy="0.95em" style="text-anchor: middle; visibility: hidden; font-family: Roboto, sans-serif; font-size: 12px; font-weight: 200;" fill="rgb(255, 255, 255)" stroke="none" stroke-width="1px">-20k</text><text x="83.56991666666666" y="0" dx="0em" dy="0.95em" style="text-anchor: middle; visibility: inherit; font-family: Roboto, sans-serif; font-size: 12px; font-weight: 200;" fill="rgb(255, 255, 255)" stroke="none" stroke-width="1px">0</text><text x="167.1398333333333" y="0" dx="0em" dy="0.95em" style="text-anchor: middle; visibility: inherit; font-family: Roboto, sans-serif; font-size: 12px; font-weight: 200;" fill="rgb(255, 255, 255)" stroke="none" stroke-width="1px">20k</text><text x="250.70974999999999" y="0" dx="0em" dy="0.95em" style="text-anchor: middle; visibility: inherit; font-family: Roboto, sans-serif; font-size: 12px; font-weight: 200;" fill="rgb(255, 255, 255)" stroke="none" stroke-width="1px">40k</text><text x="334.2796666666666" y="0" dx="0em" dy="0.95em" style="text-anchor: middle; visibility: inherit; font-family: Roboto, sans-serif; font-size: 12px; font-weight: 200;" fill="rgb(255, 255, 255)" stroke="none" stroke-width="1px">60k</text><text x="417.84958333333327" y="0" dx="0em" dy="0.95em" style="text-anchor: middle; visibility: inherit; font-family: Roboto, sans-serif; font-size: 12px; font-weight: 200;" fill="rgb(255, 255, 255)" stroke="none" stroke-width="1px">80k</text><text x="501.41949999999997" y="0" dx="0em" dy="0.95em" style="text-anchor: middle; visibility: inherit; font-family: Roboto, sans-serif; font-size: 12px; font-weight: 200;" fill="rgb(255, 255, 255)" stroke="none" stroke-width="1px">100k</text><text x="584.9894166666667" y="0" dx="0em" dy="0.95em" style="text-anchor: middle; visibility: inherit; font-family: Roboto, sans-serif; font-size: 12px; font-weight: 200;" fill="rgb(255, 255, 255)" stroke="none" stroke-width="1px">120k</text><text x="668.5593333333333" y="0" dx="0em" dy="0.95em" style="text-anchor: middle; visibility: inherit; font-family: Roboto, sans-serif; font-size: 12px; font-weight: 200;" fill="rgb(255, 255, 255)" stroke="none" stroke-width="1px">140k</text><text x="752.12925" y="0" dx="0em" dy="0.95em" style="text-anchor: middle; visibility: inherit; font-family: Roboto, sans-serif; font-size: 12px; font-weight: 200;" fill="rgb(255, 255, 255)" stroke="none" stroke-width="1px">160k</text><text x="835.6991666666665" y="0" dx="0em" dy="0.95em" style="text-anchor: middle; visibility: inherit; font-family: Roboto, sans-serif; font-size: 12px; font-weight: 200;" fill="rgb(255, 255, 255)" stroke="none" stroke-width="1px">180k</text><text x="919.2690833333332" y="0" dx="0em" dy="0.95em" style="text-anchor: middle; visibility: inherit; font-family: Roboto, sans-serif; font-size: 12px; font-weight: 200;" fill="rgb(255, 255, 255)" stroke="none" stroke-width="1px">200k</text><text x="1002.8389999999999" y="0" dx="0em" dy="0.95em" style="text-anchor: middle; visibility: inherit; font-family: Roboto, sans-serif; font-size: 12px; font-weight: 200;" fill="rgb(255, 255, 255)" stroke="none" stroke-width="1px">220k</text><text x="1086.4089166666665" y="0" dx="0em" dy="0.95em" style="text-anchor: middle; visibility: inherit; font-family: Roboto, sans-serif; font-size: 12px; font-weight: 200;" fill="rgb(255, 255, 255)" stroke="none" stroke-width="1px">240k</text><text x="1169.9788333333333" y="0" dx="0em" dy="0.95em" style="text-anchor: middle; visibility: inherit; font-family: Roboto, sans-serif; font-size: 12px; font-weight: 200;" fill="rgb(255, 255, 255)" stroke="none" stroke-width="1px">260k</text><text x="1253.54875" y="0" dx="0em" dy="0.95em" style="text-anchor: middle; visibility: hidden; font-family: Roboto, sans-serif; font-size: 12px; font-weight: 200;" fill="rgb(255, 255, 255)" stroke="none" stroke-width="1px">280k</text></g><line x1="0" y1="0" x2="1253.54875" y2="0" fill="rgb(0, 0, 0)" stroke="rgb(204, 204, 204)" stroke-width="1px"></line></g></g></g></g></svg>