<svg viewBox="0 0 1284.3333740234375 400" xmlns="http://www.w3.org/2000/svg"><g><g><g><g><g><line x1="30.78125" y1="377" x2="25.78125" y2="377" style="visibility: inherit;" fill="rgb(0, 0, 0)" stroke="rgb(204, 204, 204)" stroke-width="1px"></line><line x1="30.78125" y1="348" x2="25.78125" y2="348" style="visibility: inherit;" fill="rgb(0, 0, 0)" stroke="rgb(204, 204, 204)" stroke-width="1px"></line><line x1="30.78125" y1="319" x2="25.78125" y2="319" style="visibility: inherit;" fill="rgb(0, 0, 0)" stroke="rgb(204, 204, 204)" stroke-width="1px"></line><line x1="30.78125" y1="290" x2="25.78125" y2="290" style="visibility: inherit;" fill="rgb(0, 0, 0)" stroke="rgb(204, 204, 204)" stroke-width="1px"></line><line x1="30.78125" y1="261" x2="25.78125" y2="261" style="visibility: inherit;" fill="rgb(0, 0, 0)" stroke="rgb(204, 204, 204)" stroke-width="1px"></line><line x1="30.78125" y1="232" x2="25.78125" y2="232" style="visibility: inherit;" fill="rgb(0, 0, 0)" stroke="rgb(204, 204, 204)" stroke-width="1px"></line><line x1="30.78125" y1="203" x2="25.78125" y2="203" style="visibility: inherit;" fill="rgb(0, 0, 0)" stroke="rgb(204, 204, 204)" stroke-width="1px"></line><line x1="30.78125" y1="174" x2="25.78125" y2="174" style="visibility: inherit;" fill="rgb(0, 0, 0)" stroke="rgb(204, 204, 204)" stroke-width="1px"></line><line x1="30.78125" y1="145" x2="25.78125" y2="145" style="visibility: inherit;" fill="rgb(0, 0, 0)" stroke="rgb(204, 204, 204)" stroke-width="1px"></line><line x1="30.78125" y1="116" x2="25.78125" y2="116" style="visibility: inherit;" fill="rgb(0, 0, 0)" stroke="rgb(204, 204, 204)" stroke-width="1px"></line><line x1="30.78125" y1="86.99999999999999" x2="25.78125" y2="86.99999999999999" style="visibility: inherit;" fill="rgb(0, 0, 0)" stroke="rgb(204, 204, 204)" stroke-width="1px"></line><line x1="30.78125" y1="58" x2="25.78125" y2="58" style="visibility: inherit;" fill="rgb(0, 0, 0)" stroke="rgb(204, 204, 204)" stroke-width="1px"></line><line x1="30.78125" y1="28.999999999999982" x2="25.78125" y2="28.999999999999982" style="visibility: inherit;" fill="rgb(0, 0, 0)" stroke="rgb(204, 204, 204)" stroke-width="1px"></line><line x1="30.78125" y1="0" x2="25.78125" y2="0" style="visibility: inherit;" fill="rgb(0, 0, 0)" stroke="rgb(204, 204, 204)" stroke-width="1px"></line></g><g transform="translate(20.78125, 0)"><text x="0" y="377" dx="0em" dy="0.3em" style="text-anchor: end; visibility: hidden; font-family: Roboto, sans-serif; font-size: 12px; font-weight: 200;" fill="rgb(255, 255, 255)" stroke="none" stroke-width="1px">2</text><text x="0" y="348" dx="0em" dy="0.3em" style="text-anchor: end; visibility: inherit; font-family: Roboto, sans-serif; font-size: 12px; font-weight: 200;" fill="rgb(255, 255, 255)" stroke="none" stroke-width="1px">3</text><text x="0" y="319" dx="0em" dy="0.3em" style="text-anchor: end; visibility: inherit; font-family: Roboto, sans-serif; font-size: 12px; font-weight: 200;" fill="rgb(255, 255, 255)" stroke="none" stroke-width="1px">4</text><text x="0" y="290" dx="0em" dy="0.3em" style="text-anchor: end; visibility: inherit; font-family: Roboto, sans-serif; font-size: 12px; font-weight: 200;" fill="rgb(255, 255, 255)" stroke="none" stroke-width="1px">5</text><text x="0" y="261" dx="0em" dy="0.3em" style="text-anchor: end; visibility: inherit; font-family: Roboto, sans-serif; font-size: 12px; font-weight: 200;" fill="rgb(255, 255, 255)" stroke="none" stroke-width="1px">6</text><text x="0" y="232" dx="0em" dy="0.3em" style="text-anchor: end; visibility: inherit; font-family: Roboto, sans-serif; font-size: 12px; font-weight: 200;" fill="rgb(255, 255, 255)" stroke="none" stroke-width="1px">7</text><text x="0" y="203" dx="0em" dy="0.3em" style="text-anchor: end; visibility: inherit; font-family: Roboto, sans-serif; font-size: 12px; font-weight: 200;" fill="rgb(255, 255, 255)" stroke="none" stroke-width="1px">8</text><text x="0" y="174" dx="0em" dy="0.3em" style="text-anchor: end; visibility: inherit; font-family: Roboto, sans-serif; font-size: 12px; font-weight: 200;" fill="rgb(255, 255, 255)" stroke="none" stroke-width="1px">9</text><text x="0" y="145" dx="0em" dy="0.3em" style="text-anchor: end; visibility: inherit; font-family: Roboto, sans-serif; font-size: 12px; font-weight: 200;" fill="rgb(255, 255, 255)" stroke="none" stroke-width="1px">10</text><text x="0" y="116" dx="0em" dy="0.3em" style="text-anchor: end; visibility: inherit; font-family: Roboto, sans-serif; font-size: 12px; font-weight: 200;" fill="rgb(255, 255, 255)" stroke="none" stroke-width="1px">11</text><text x="0" y="86.99999999999999" dx="0em" dy="0.3em" style="text-anchor: end; visibility: inherit; font-family: Roboto, sans-serif; font-size: 12px; font-weight: 200;" fill="rgb(255, 255, 255)" stroke="none" stroke-width="1px">12</text><text x="0" y="58" dx="0em" dy="0.3em" style="text-anchor: end; visibility: inherit; font-family: Roboto, sans-serif; font-size: 12px; font-weight: 200;" fill="rgb(255, 255, 255)" stroke="none" stroke-width="1px">13</text><text x="0" y="28.999999999999982" dx="0em" dy="0.3em" style="text-anchor: end; visibility: inherit; font-family: Roboto, sans-serif; font-size: 12px; font-weight: 200;" fill="rgb(255, 255, 255)" stroke="none" stroke-width="1px">14</text><text x="0" y="0" dx="0em" dy="0.3em" style="text-anchor: end; visibility: hidden; font-family: Roboto, sans-serif; font-size: 12px; font-weight: 200;" fill="rgb(255, 255, 255)" stroke="none" stroke-width="1px">15</text></g><line x1="30.78125" y1="0" x2="30.78125" y2="377" fill="rgb(0, 0, 0)" stroke="rgb(204, 204, 204)" stroke-width="1px"></line></g></g><g transform="translate(30, 0)" clip-path="url(#clip_0)"><clipPath id="clip_0"><rect width="1253" height="377"></rect></clipPath><g><g><g><line x1="0" y1="0" x2="0" y2="377" fill="rgb(0, 0, 0)" stroke="rgb(189, 189, 189)" stroke-width="1px" opacity="0.25"></line><line x1="83.56991666666666" y1="0" x2="83.56991666666666" y2="377" fill="rgb(0, 0, 0)" stroke="rgb(189, 189, 189)" stroke-width="1px" opacity="0.25"></line><line x1="167.1398333333333" y1="0" x2="167.1398333333333" y2="377" fill="rgb(0, 0, 0)" stroke="rgb(189, 189, 189)" stroke-width="1px" opacity="0.25"></line><line x1="250.70974999999999" y1="0" x2="250.70974999999999" y2="377" fill="rgb(0, 0, 0)" stroke="rgb(189, 189, 189)" stroke-width="1px" opacity="0.25"></line><line x1="334.2796666666666" y1="0" x2="334.2796666666666" y2="377" fill="rgb(0, 0, 0)" stroke="rgb(189, 189, 189)" stroke-width="1px" opacity="0.25"></line><line x1="417.84958333333327" y1="0" x2="417.84958333333327" y2="377" fill="rgb(0, 0, 0)" stroke="rgb(189, 189, 189)" stroke-width="1px" opacity="0.25"></line><line x1="501.41949999999997" y1="0" x2="501.41949999999997" y2="377" fill="rgb(0, 0, 0)" stroke="rgb(189, 189, 189)" stroke-width="1px" opacity="0.25"></line><line x1="584.9894166666667" y1="0" x2="584.9894166666667" y2="377" fill="rgb(0, 0, 0)" stroke="rgb(189, 189, 189)" stroke-width="1px" opacity="0.25"></line><line x1="668.5593333333333" y1="0" x2="668.5593333333333" y2="377" fill="rgb(0, 0, 0)" stroke="rgb(189, 189, 189)" stroke-width="1px" opacity="0.25"></line><line x1="752.12925" y1="0" x2="752.12925" y2="377" fill="rgb(0, 0, 0)" stroke="rgb(189, 189, 189)" stroke-width="1px" opacity="0.25"></line><line x1="835.6991666666665" y1="0" x2="835.6991666666665" y2="377" fill="rgb(0, 0, 0)" stroke="rgb(189, 189, 189)" stroke-width="1px" opacity="0.25"></line><line x1="919.2690833333332" y1="0" x2="919.2690833333332" y2="377" fill="rgb(0, 0, 0)" stroke="rgb(189, 189, 189)" stroke-width="1px" opacity="0.25"></line><line x1="1002.8389999999999" y1="0" x2="1002.8389999999999" y2="377" fill="rgb(0, 0, 0)" stroke="rgb(189, 189, 189)" stroke-width="1px" opacity="0.25"></line><line x1="1086.4089166666665" y1="0" x2="1086.4089166666665" y2="377" fill="rgb(0, 0, 0)" stroke="rgb(189, 189, 189)" stroke-width="1px" opacity="0.25"></line><line x1="1169.9788333333333" y1="0" x2="1169.9788333333333" y2="377" fill="rgb(0, 0, 0)" stroke="rgb(189, 189, 189)" stroke-width="1px" opacity="0.25"></line><line x1="1253.54875" y1="0" x2="1253.54875" y2="377" fill="rgb(0, 0, 0)" stroke="rgb(189, 189, 189)" stroke-width="1px" opacity="0.25"></line></g><g><line x1="0" y1="377" x2="1253.54875" y2="377" fill="rgb(0, 0, 0)" stroke="rgb(189, 189, 189)" stroke-width="1px" opacity="0.25"></line><line x1="0" y1="348" x2="1253.54875" y2="348" fill="rgb(0, 0, 0)" stroke="rgb(189, 189, 189)" stroke-width="1px" opacity="0.25"></line><line x1="0" y1="319" x2="1253.54875" y2="319" fill="rgb(0, 0, 0)" stroke="rgb(189, 189, 189)" stroke-width="1px" opacity="0.25"></line><line x1="0" y1="290" x2="1253.54875" y2="290" fill="rgb(0, 0, 0)" stroke="rgb(189, 189, 189)" stroke-width="1px" opacity="0.25"></line><line x1="0" y1="261" x2="1253.54875" y2="261" fill="rgb(0, 0, 0)" stroke="rgb(189, 189, 189)" stroke-width="1px" opacity="0.25"></line><line x1="0" y1="232" x2="1253.54875" y2="232" fill="rgb(0, 0, 0)" stroke="rgb(189, 189, 189)" stroke-width="1px" opacity="0.25"></line><line x1="0" y1="203" x2="1253.54875" y2="203" fill="rgb(0, 0, 0)" stroke="rgb(189, 189, 189)" stroke-width="1px" opacity="0.25"></line><line x1="0" y1="174" x2="1253.54875" y2="174" fill="rgb(0, 0, 0)" stroke="rgb(189, 189, 189)" stroke-width="1px" opacity="0.25"></line><line x1="0" y1="145" x2="1253.54875" y2="145" fill="rgb(0, 0, 0)" stroke="rgb(189, 189, 189)" stroke-width="1px" opacity="0.25"></line><line x1="0" y1="116" x2="1253.54875" y2="116" fill="rgb(0, 0, 0)" stroke="rgb(189, 189, 189)" stroke-width="1px" opacity="0.25"></line><line x1="0" y1="86.99999999999999" x2="1253.54875" y2="86.99999999999999" fill="rgb(0, 0, 0)" stroke="rgb(189, 189, 189)" stroke-width="1px" opacity="0.25"></line><line x1="0" y1="58" x2="1253.54875" y2="58" fill="rgb(0, 0, 0)" stroke="rgb(189, 189, 189)" stroke-width="1px" opacity="0.25"></line><line x1="0" y1="28.999999999999982" x2="1253.54875" y2="28.999999999999982" fill="rgb(0, 0, 0)" stroke="rgb(189, 189, 189)" stroke-width="1px" opacity="0.25"></line><line x1="0" y1="0" x2="1253.54875" y2="0" fill="rgb(0, 0, 0)" stroke="rgb(189, 189, 189)" stroke-width="1px" opacity="0.25"></line></g></g></g><g><g><line x1="0" y1="434.99999999999994" x2="1253.54875" y2="434.99999999999994" fill="rgb(0, 0, 0)" stroke="rgb(153, 153, 153)" stroke-width="1.5px"></line></g></g><g><g><line x1="83.56991666666666" y1="0" x2="83.56991666666666" y2="377" fill="rgb(0, 0, 0)" stroke="rgb(153, 153, 153)" stroke-width="1.5px"></line></g></g><g><g><g><g><g><path stroke="rgb(255, 112, 67)" stroke-width="2px" d="M85.241315,-40.21556282043459L85.65916458333332,19.76608792473286L88.56739768333333,51.74431301796271L90.23879601666667,11.526329933585107L90.65664559999999,11.538430831060136L92.31132994999999,12.635477903208127L92.72917953333334,7.958748067771266L93.14702911666666,14.151548510501348L93.98272828333333,11.832446099111484L94.40057786666665,-3.7283726889028905L95.65412661666666,-19.346848903007736L96.4731118,2.127514562141058L98.9802093,3.078197100239035L101.47059281666667,-6.63124212777827L102.30629198333332,9.837286033862938L105.63237466666666,6.023376369970844L106.05022424999999,-5.695539198941497L106.46807383333332,7.311282779028941L107.30377299999999,15.4825649921036L108.95845734999999,-5.616857595798587L110.2120061,-12.359019931777578L111.46555484999999,6.767206941208435L111.88340443333333,9.597817501561805L112.30125401666665,8.534499408596977L113.1202392,32.139409664139926L113.95593836666666,33.66537232162388L114.37378795,25.371647776698502L114.79163753333333,8.565362394705588L115.20948711666665,13.604425088451734L116.04518628333332,-18.948693483541984L119.37126896666666,-0.6088047475840086L120.20696813333332,4.171728916796745L120.62481771666666,-5.313949825979116L121.86165248333333,2.067239611307603L123.11520123333332,4.366195566376338L124.78659956666667,-14.61487639123191L129.7673666,7.5143044581138545L130.18521618333332,9.569276883992986L131.43876493333335,14.24130227433994L132.6923136833333,15.130098111047623L133.11016326666666,17.03646817536331L134.3469980333333,25.239945541310547L137.27194511666667,20.827056110185502L139.7623286333333,23.66420092563352L141.43372696666665,25.360488641824947L142.25271214999998,1.7620783989080655L143.08841131666665,-4.7010751393254L144.34196006666664,-4.079100880874977L146.83234358333334,4.051480777401963L147.25019316666666,14.794529204009269L150.57627585,31.242091259599196L151.41197501666664,29.539345695045558L151.8298246,37.567444507136166L153.08337335,29.58134132990062L156.40945603333333,22.244590840382475L157.66300478333332,35.53717496298064L158.89983955,40.25185303247032L159.73553871666664,40.93006222927495L162.24263621666665,40.15920996875716L163.06162139999998,48.03017371043598L163.4794709833333,60.70970516427293L164.73301973333332,61.064218293836824L165.15086931666667,63.40613358820385L165.5687189,62.81509204228602L167.64125283333334,62.911311118447045L168.89480158333333,42.04363401078693L169.31265116666665,47.458300594008314L169.73050074999998,34.45240383374047L171.80303468333332,17.986825715526926L172.22088426666664,15.510870488186706L172.63873385,22.610220978881053L173.89228260000002,14.515429164101256L175.9648165333333,18.555082088312016L177.2183652833333,23.53727095517396L177.63621486666668,26.407425880783396L178.05406445,35.830172634378464L178.47191403333332,11.354752130671853L179.70874879999997,21.27040891563815L180.54444796666667,7.498024854071391L181.38014713333334,11.552577911919373L182.21584629999998,28.806155353165327L183.05154546666665,0.2974048699545989L183.87053065,30.014438368076714L185.1240794,33.265688904162715L185.54192898333332,18.22168808542193L185.95977856666664,23.710786689855368L186.37762815,40.6888384865489L187.21332731666664,39.85838179913525L189.7037108333333,44.59410675753312L193.4476431,42.945130406542724L194.28334226666664,39.88809532434429L195.11904143333334,25.955858144735036L196.7737257833333,38.4687162751976L197.19157536666668,56.920756002318534L197.60942495,49.74277711116884L200.93550763333334,47.691243912205444L201.35335721666667,54.569768279589944L203.02475554999998,40.81333641097778L203.44260513333333,56.70568487962169L203.86045471666665,49.46169115050693L205.09728948333333,45.24844511211749L208.84122175,67.7990615914522L209.2590713333333,51.211637940524156L210.5126200833333,48.74985487516995L211.34831924999997,46.8821731356719L212.18401841666667,53.04574137166711L213.42085318333332,59.991265309501635L214.25655234999996,76.4435877887947L214.67440193333334,59.6651846470416L215.51010109999999,48.27844930602966L216.34580026666666,48.09583156744344L217.16478544999998,57.10388028828098L218.00048461666663,60.98337351228254L220.08973253333332,66.6499676750284L220.50758211666664,66.96976809822793L221.3265673,52.164121520383034L221.74441688333334,50.005993291044255L225.48834915,30.051022429280327L226.32404831666665,40.900180269588006L226.7418979,37.89303388448189L227.99544664999996,44.58129761592691L230.0679805833333,53.06231299423479L230.90367974999998,57.965711247606244L231.3215293333333,50.52299875833415L232.57507808333332,67.060237562383L233.81191284999997,70.97603908877309L235.90116076666666,57.99882890175296L236.73685993333333,58.1117700673477L237.15470951666666,49.92442005834334L239.64509303333332,52.32840927216358L240.06294261666665,55.397450596502026L240.89864178333332,66.38605633704607L242.55332613333331,73.0236437671395L243.3890253,75.96143531869933L243.8068748833333,86.7079828267272L245.47827321666668,69.44377676044734L246.71510798333333,87.17445474839592L247.13295756666665,104.08312582357199L247.55080714999997,93.9067625241322L249.22220548333334,60.222345346787534L251.29473941666663,74.12645911793436L251.71258899999998,63.56121663783355L252.1304385833333,44.52025652700719L252.54828816666665,50.01344390453736L252.96613775,59.525428551627066L253.38398733333332,56.104878557458534L256.71007001666663,48.1170271842822L257.9636187666667,54.14430449271211L258.78260395,79.07431970541488L262.12540061666664,68.1073902145363L264.19793455,62.37754722701863L264.6157841333333,76.67598807600291L265.03363371666666,74.8765957936744L265.4514833,70.75218650595052L265.8693328833333,93.67367735134559L267.5240172333333,101.97950966992876L269.61326514999996,113.6425803491198L270.44896431666666,94.61645863772493L272.52149825,105.86673594737792L272.93934783333333,90.67403989689869L274.6107461666666,73.74462579846505L275.42973135,73.74373037231054L275.8475809333333,65.84375254937476L277.1011296833333,54.7041475021832L278.35467843333333,38.82503749835439L278.7725280166667,55.97136045829026L280.42721236666665,41.019456181276794L280.84506194999994,60.366704367939874L282.51646028333334,53.42553012802301L285.0068438,63.140628600755L285.4246933833333,81.89506038948599L285.84254296666666,70.81566752441024L286.6782421333333,75.78860995583844L287.09609171666665,38.138080245148906L287.9150769,31.26675810031516L288.7507760666667,38.48845462728241L289.16862564999997,54.542283591728264L289.5864752333333,50.015130035053296L290.00432481666667,53.99469766058461L292.07685875,52.58451944914018L292.91255791666663,72.11061567891227L293.3304075,77.60184913853816L293.7482570833333,90.49429301605626L294.58395624999997,76.32710710098546L296.6564901833333,52.141874846330666L297.07433976666664,65.86722201462382L298.7457381,41.47518256554064L299.16358768333333,44.68980018967725L300.40042244999995,53.552797838767695L301.23612161666665,60.760480673416694L302.90751995,81.0350984075794L303.32536953333334,75.29152063701456L304.9800538833333,89.05615308803056L305.39790346666666,71.9135253394168L305.81575305,82.32351877442649L306.2336026333333,79.56852132386128L307.0693018,72.57262589548343L307.4871513833333,69.94194826096316L309.1418357333333,83.02653421190391L309.5596853166667,74.70257558483783L309.97753489999997,86.09917042495043L310.81323406666667,73.28498688627144L312.06678281666666,79.4439297547162L314.13931675,78.60729538015066L315.8107150833333,95.41862292516312L316.2285646666666,102.14248606363593L317.8832490166667,93.63393128076953L319.1367977666667,84.09541233889095L319.55464735,66.46026369291822L319.97249693333333,57.27677900642944L320.3903465166667,56.54855487481311L321.2093317,72.99662774418681L321.6271812833333,76.27030406326477L322.8807300333333,43.12399010411202L323.29857961666664,36.963249238192155L323.7164292,48.101424716215725L324.1342787833333,61.83066116930142L325.7889631333333,60.156397587187705L328.71391021666665,64.1752774519616L330.3685945666666,68.49378710806624L330.78644414999997,79.35925237411436L331.6221433166666,72.39717292042496L332.03999289999996,78.03779096083193L332.45784248333337,89.40690601938407L333.69467725,100.23431951554028L334.5303764166666,111.09242865965747L335.3660755833333,100.88064625926997L336.20177474999997,70.75031563985081L336.6196243333333,75.81620882097296L338.2743086833333,81.52758511205899L339.11000784999993,89.92309843113296L340.3635566,83.35135507809312L340.78140618333333,91.42960486570038L343.6896392833333,91.30202459922755L344.10748886666664,77.2832980368726L344.52533844999994,79.57730557023828L346.5978723833333,85.14906085580131L347.8514211333333,86.21390909686365L348.6871203,87.82764679108338L350.34180465,110.04859189331528L352.0132029833334,103.97286253470179L353.68460131666666,103.49092284548875L354.5035865,109.1631575007838L354.92143608333333,97.43412697570731L355.75713525,81.95876597344919L356.5928344166666,87.8925149846676L357.01068399999997,90.60817542533303L357.4285335833333,94.0079515536841L358.66536834999994,109.12729746422683L359.5010675166667,92.31580757722315L359.9189171,83.49273144938093L360.33676668333334,68.51540494974729L360.7546162666667,78.90922373047862L362.0081650166667,78.51064255493853L362.82715019999995,93.81906382501707L364.91639811666664,89.79661728722263L365.7520972833333,81.43182710456533L367.4067816333333,85.71674440059438L367.82463121666666,104.32532776223978L368.6603303833333,98.71868068555149L369.49602955,92.8627677182894L370.33172871666665,89.83088404281722L371.56856348333326,96.86882309556655L371.9864130666666,110.96623328435875L373.23996181666666,116.43521110788905L374.0756609833333,111.79693903528795L374.49351056666666,105.8003513356269L376.5660445,98.72599910876697L378.2374428333333,105.94810816672523L379.89212718333334,88.98151867706532L380.3099767666667,98.88037772162033L380.72782635,111.62831636894036L381.14567593333334,116.6904900793215L381.5635255166667,119.10098622111347L384.0539090333333,116.12622652955359L384.88960819999994,117.64291970884062L385.3074577833333,124.94905960429394L385.72530736666664,124.06393717436072L386.14315694999993,108.10818041856739L386.5610065333333,103.91440217342931L388.2156908833333,122.23287260187533L389.05139005,119.25290158745652L392.37747273333326,119.25903518150157L393.63102148333326,123.63200516904327L396.121405,130.79303018235618L396.53925458333333,137.66680707125283L396.9571041666666,125.79160005958767L398.2106529166666,101.56282613454583L399.0463520833333,110.9724436605456L399.4642016666666,121.59915977350252L400.28318685,116.3506293211576L401.5367356,107.6327412068782L403.6259835166666,97.47869460165066L404.8628182833333,113.99128863280706L405.69851744999994,101.97930195675278L406.1163670333333,99.25000235559735L406.95206619999993,98.09883931066123L408.60675055,103.29964730292428L409.0246001333333,104.83903100892812L409.86029929999995,100.18862280411956L411.5316976333333,84.99964412862468L411.94954721666664,88.21716174056219L413.18638198333326,113.4945267796423L414.4399307333333,118.38004936098402L415.2756299,108.7541632147982L416.93031425,99.51964331911483L417.34816383333333,100.20777154835598L418.183863,96.35541637550565L419.0195621666666,95.5411005563293L419.43741174999997,93.43661359774349L420.2731109166666,93.11874234953616L421.0920961,104.56192509130007L421.92779526666664,92.63735505597549L422.34564485,111.5215303903791L422.76349443333334,117.04042842429688L425.25387794999995,114.55090207367404L426.9252762833333,113.2412772035249L427.3431258666667,94.08287061641151L427.76097544999993,81.68774213565064L432.75845646666664,88.48657124361267L433.57744165,94.69409499153103L434.41314081666667,102.74108643044255L436.92023831666666,101.40643683569087L437.7392235,113.63038286017894L438.99277225,133.6148972860303L439.41062183333327,129.43599889337307L440.66417058333326,130.25962990086776L442.31885493333334,133.35149658017406L442.73670451666663,121.56174918616948L443.57240368333333,112.38978805565432L443.9902532666666,94.58766143815241L444.40810285,102.84639480220842L444.8259524333333,103.26911143616138L445.2438020166666,112.47306781320478L448.1520351166666,106.00828789587905L449.40558386666663,96.78836063584949L453.1495161333333,107.2467407507587L455.63989965,105.46029214918832L456.0577492333333,116.60656624835889L456.47559881666666,108.42756516199819L456.8934484,105.26920480453037L458.54813275,116.69533804700914L461.89092941666667,107.96520438345571L462.7099146,117.84458065615705L463.54561376666663,126.24369144847623L464.38131293333333,126.66589689540307L466.0527112666666,98.47069468698113L466.87169644999994,104.54573355337824L468.54309478333334,116.98509337856963L468.96094436666664,115.44821471421139L469.79664353333334,131.89679606868575L470.21449311666663,120.26051567474632L471.03347829999996,132.63752511874574L471.86917746666666,128.75085933422065L472.28702704999995,122.13475089461117L473.54057579999994,123.94012888703105L474.37627496666664,133.70401955746965L476.8666584833333,144.28948632053874L477.28450806666666,130.7525174957578L478.53805681666665,108.00510201448651L480.1927411666666,114.72230014320331L481.4462899166666,110.98551074645202L482.28198908333326,106.89514660027521L483.93667343333334,103.14107129008406L484.35452301666663,96.2499301703928L486.02592135,116.93226770863043L486.44377093333327,99.83827856196535L492.67808671666666,100.29329399773978L493.09593629999995,95.89707015312369L493.5137858833333,119.56435457517364L495.1851842166667,117.74722601329053L496.4220189833333,120.34505737769936L497.6755677333333,124.65967342320911L498.51126689999995,102.24090738638924L498.9291164833333,107.47708501101809L500.58380083333327,99.89741442180569L501.0016504166666,109.50799785359531L501.83734958333326,123.50069479954917L503.0908983333333,132.0856277323651L503.50874791666666,132.847838525357L504.7455826833333,115.74761904782802L505.16343226666663,112.85429704044982L506.4169810166666,111.75215850967476L508.48951494999994,93.90644192982529L508.90736453333335,91.20289447508426L509.7430637,88.22364138982222L510.57876286666664,98.50870904520221L512.6512968,103.36583191590054L513.0691463833333,103.25985173886599L513.90484555,99.96419411454505L514.3226951333334,104.00355860280722L514.7405447166666,82.1622740992051L515.1583942999999,101.3902990418374L515.9940934666666,89.73558783117826L518.0666273999999,91.1508941859874L518.9023265666667,100.4291747239839L519.32017615,108.18501874996502L520.9748605,125.97989192441398L522.6462588333333,127.11418791596796L523.8998075833333,128.43293675968346L525.5544919333332,139.56756083202862L525.9723415166667,154.26258389177673L527.64373985,140.8793396156622L528.4794390166667,137.70064715555458L529.2984242,134.10162625717925L530.1341233666666,130.43250140950545L530.9698225333333,134.65258418901587L531.3876721166666,127.85822084713658L532.6412208666666,128.80791573343748L535.1316043833333,122.10916922919603L535.96730355,136.47320066792625L536.3851531333333,106.59350300264356L537.6219878999999,105.49915113749505L538.0398374833333,126.26385749073502L539.7112358166667,107.7010920930324L541.7837697499999,125.40533517816591L542.6194689166666,131.27994291100154L543.4551680833333,137.47166194199795L544.2908672499999,137.10476253008335L545.1265664166666,149.8525402377332L545.9455516,145.72430864584436L547.19910035,143.33737589248412L547.6169499333333,129.88920296162246L548.0347995166667,123.77893573692351L548.8704986833333,91.26899683332087L551.3608822,117.37325729031309L552.1965813666666,135.78038496543226L553.0322805333333,134.39260889230647L553.4501301166666,128.93956745462555L554.2691153,127.1711669142828L556.3583632166666,124.38160444528364L558.43089715,124.07426556012382L559.2665963166667,127.37201419714037L559.6844458999999,127.77474948038717L562.592679,143.7899695375467L563.0105285833333,147.84931046339202L563.4283781666667,149.84079170028994L563.8462277499999,153.3886381135428L564.2640773333333,141.29013721369017L565.9354756666667,124.0528029854657L567.5901600166667,127.55667348890434L570.0972575166667,112.98510267468545L570.9162427,112.9652068286397L572.1697914499999,132.8284635552248L573.0054906166666,133.79851913511118L573.4233402,136.47220687907492L573.8411897833332,126.17214666395476L575.07802455,132.70858507367333L576.3315733,118.4514962306485L577.1672724666666,110.37187125976938L578.0029716333333,112.34141940561173L578.4208212166666,115.59859441400639L579.2398063999999,101.50735780275615L579.6576559833333,117.7867774493866L580.0755055666666,122.48526722482455L580.49335515,129.48009166324266L581.7469039,127.79699918471663L582.1647534833334,135.7528238792223L583.4015882499999,125.49442523611603L583.8194378333333,138.477274041624L584.2372874166666,140.76699931509873L585.4908361666667,141.75799698989897L585.9086857499999,143.47302705400108L586.3265353333333,143.0048953736528L588.3990692666666,139.37484457008966L591.7251519499999,136.30364943880886L592.5608511166666,124.11060033775703L593.3965502833332,117.0044525163982L593.8143998666666,126.72094884994921L594.23224945,141.25649706163318L595.8869338,130.36632028963982L596.7226329666667,140.07270552141242L597.5583321333334,128.41736000573573L597.9761817166666,136.29713571525767L598.8118808833333,134.58536669333782L601.3022644,142.85604975326865L602.1379635666666,127.30560546708907L602.55581315,140.92068080022895L604.2104975,151.93942723612463L604.6283470833333,150.06294069050085L605.4640462499999,146.60618578742776L605.8818958333333,151.82573996330882L606.717595,149.11052701514865L607.1354445833333,132.82877901344827L608.37227935,150.13499417110816L608.7901289333333,151.97001719815708L609.2079785166667,142.10532686949L610.4615272666666,130.79365745473063L611.7150760166667,133.0557008852731L613.7876099499999,129.23324272921877L614.6233091166666,132.18494788133938L615.4590082833333,136.77604945825226L615.8768578666667,142.85963343211694L616.69584305,140.7393679523476L617.1136926333334,151.86789879131368L620.0386397166666,151.37261084566157L621.2754744833334,154.66427846247697L622.11117365,152.26676227297708L623.3647224,149.18821359825557L626.2729555,145.55184763279254L626.6908050833333,146.33124316061225L627.52650425,154.17270778643368L627.9443538333333,139.92124172964785L628.3622034166666,136.37821042779453L630.43473735,147.52680193355044L631.2704365166666,138.4600545930788L632.1061356833333,140.37102016782242L633.3429704499999,155.80957325977917L633.7608200333333,156.38647533732635L634.1786696166665,145.26433509284834L635.4322183666666,146.77720585253044L635.85006795,157.11527727395637L636.2679175333333,155.48568924710395L637.5047523,149.42874284894927L637.9226018833333,133.9036700469073L639.1761506333332,125.59674549691597L640.8475489666667,129.27322149688902L641.66653415,135.5155820398572L642.0843837333332,136.0817141219308L642.9200829,143.05394165704956L644.5914812333333,138.3554705132367L645.0093308166666,138.53727797910824L647.0818647499999,135.12610269160746L649.1711126666667,115.93670699993942L650.4079474333333,107.97343228856843L652.0793457666666,125.66782504538781L653.3328945166667,115.34352609668235L654.1518796999999,110.99087644028506L656.2411276166666,119.16965148732552L657.0768267833333,134.16813100298089L658.3136615499999,151.78804606838915L658.7315111333334,164.74701369852548L659.1493607166666,152.22534431949762L659.9850598833333,171.04619565163907L661.2386086333333,166.88898435223496L661.6564582166666,157.73210884026565L662.4754433999999,133.726238662246L662.8932929833334,146.7134499569438L663.72899215,157.86952986854232L664.5646913166667,151.6513201770836L664.9825408999999,132.34972133083716L666.63722525,129.28526294321324L667.0550748333333,144.6304379588699L669.5621723333334,143.13431690140908L671.6347062666666,146.28919681114994L673.7239541833333,143.12921818238624L674.1418037666666,135.65334716736763L674.96078895,139.8273464313114L676.6321872833333,146.58158943947902L677.8857360333333,150.49795027700785L680.37611955,149.44998740841353L681.6296682999999,143.13565797589803L684.1200518166667,140.50143326608148L684.5379014,131.34476196469336L685.79145015,127.09442738087007L687.8639840833332,129.34326200459125L689.5353824166667,118.83931971531712L692.0257659333332,139.86690669714534L694.11501385,130.58437108021363L694.9507130166667,138.82774194990566L696.6053973666667,151.8871775054979L697.0232469499999,167.44181068230006L697.8589461166666,161.71021352253192L701.1850287999999,154.90176887342616L705.34681065,151.90138572574156L705.7646602333333,138.69396839821684L706.6003593999999,153.7003199815655L707.0182089833334,161.0188636851244L708.6728933333333,146.56105299496184L709.0907429166666,157.33895997397576L709.9264420833333,151.54281063611046L711.5978404166666,156.63577417745503L712.8346751833333,170.8628779704374L714.5060735166666,154.70180100585037L714.9239231,133.0503962364744L715.3417726833333,146.75682983287825L715.7596222666666,128.7260190193063L716.57860745,141.7771825632397L718.2500057833333,136.81626004066675L719.5035545333333,144.65668581188348L719.9214041166666,143.32337559444153L721.99393805,147.756976147768L724.0831859666665,152.09774018744028L724.90217115,163.29964381251315L726.5735694833332,176.23792735790715L727.8271182333333,160.9824400349344L729.8996521666667,167.29563706345556L738.6410654499999,162.16118350087638L739.0589150333333,160.20723524611515L740.7303133666667,138.78983519916662L745.7110803999999,146.01518923154924L746.1289299833334,152.54330887275952L747.8003283166667,149.0206541549624L748.6360274833334,145.04154531081747L749.0538770666666,145.39783209904192L749.8728622499999,145.34596999526934L750.2907118333334,149.6438856922452L751.5442605833333,160.04577890257093L752.7978093333334,163.59154430482823L754.0346441,170.00867368000573L754.8703432666666,165.8298529709625L755.2881928499999,159.38451617833707L756.1238920166666,156.9847400716316L756.5417415999999,154.18639103293012L757.3774407666666,162.52434770071224L758.19642595,163.64031676314872L758.6142755333333,149.00192294422607L759.0321251166666,138.2186151954797L759.4499747,134.10857100777696L760.2856738666666,146.67578741754107L763.61175655,137.06996796321383L764.8653053,152.62369757547037L765.2831548833333,128.4406280672336L766.51998965,129.24847336898736L769.4449367333333,149.56164154811052L771.5174706666667,152.45991391522034L772.3531698333333,154.82959373998284L772.7710194166667,156.78717657074677L774.0245681666667,152.95277254285156L774.84355335,166.36661357433817L776.5149516833333,160.65437120125546L776.9328012666667,143.89983773775987L777.35065085,157.2244046010938L778.1863500166667,169.117654032991L781.5124327,163.9065272681315L781.9302822833332,161.50062848634317L782.3481318666667,158.8502014264937L783.5849666333332,166.32512347001165L784.4206657999999,190.87707626093263L784.8385153833332,214.6323424646078L788.1645980666666,231.19821247340965L790.2538459833333,245.07196325279486L793.1620790833333,255.56166587623008L794.4156278333334,263.62161431358686L794.8334774166666,270.58057231458525L796.4881617666666,285.26939245389656L799.81424445,284.80953581163016L801.0677932,291.05950572610004L801.4856427833333,301.08058907353956L801.9034923666666,294.98596395288763L806.0652742166666,296.8931548562089L807.3188229666666,289.4587428784875L808.13780815,289.30099400595384L808.9735073166665,296.4567253718862L809.8092064833332,295.4088231415612L810.2270560666666,306.0504493180656L810.6449056499999,314.25290242280767L811.0627552333333,321.80714586985454L812.7174395833333,326.82092228063584L813.55313875,313.86892779439734L814.3888379166666,308.4753664318624L814.8066875,305.24334552970845L815.2245370833333,293.934005687248L816.8792214333332,296.35357567144223L818.96846935,281.2798312418754L821.4588528666667,282.49005215358403L821.8767024499999,275.31821765794524L822.2945520333333,280.58420565531566L823.9659503666667,284.51082260175684L824.7849355499999,290.66854112083615L825.2027851333332,300.581215617204L828.9467173999999,304.1777315358331L829.7824165666666,303.81435772518387L830.20026615,299.602836681585L831.0359653166666,294.8974080594642L833.9441984166666,295.09442809806114L834.7798975833333,305.18881399740866L835.6155967499999,305.63129127340574L836.0334463333334,316.4865548990363L838.1059802666666,317.57546851908523L839.7773785999999,303.7999146790579L840.6130777666666,298.7677384225421L842.2677621166666,305.3232001389588L842.6856116999999,312.6983334648478L844.7748596166666,318.94323496614965L845.5938448,316.50388530111866L846.4295439666666,314.40291497559934L847.2652431333333,320.499811822336L847.6830927166666,319.628452898972L848.1009423,320.684213103194L848.5187918833333,312.35805841181406L849.75562665,303.7348090839943L850.5913258166665,307.3773608866128L852.26272415,310.83885516960964L853.0984233166665,310.51287138827325L854.3352580833333,312.7052231694994L855.5888068333333,310.87786804497404L856.0066564166666,311.0358411828887L858.07919035,311.29899529736724L859.3327391,314.4854314852262L860.1684382666665,306.89905725816413L860.58628785,309.7199668450124L861.4219870166665,311.4090136700945L863.0766713666667,294.8590819765979L863.4945209499999,313.6035022686817L863.9123705333333,318.62229127542463L864.3302201166666,316.86209076642393L866.8206036333332,312.1255730926948L867.2384532166667,308.84186692416375L867.6563027999999,305.31222263937985L869.3277011333332,311.1112407364056L869.7455507166667,305.72536965035636L870.9823854833332,310.77286731676526L871.81808465,303.6406908356486L873.0716333999999,317.370691321923L873.9073325666667,315.916699425224L874.7263177499999,308.14254418521176L875.1441673333334,317.98117955979046L875.5620169166666,316.6294734350784L878.0691144166666,320.4860093504549L880.1416483499999,321.8307873425138L880.5594979333333,316.0511866263625L880.9773475166667,319.47334377531746L881.3951970999999,304.26410331323916L883.8855806166666,301.523229481743L887.6295128833333,307.3252417935693L888.0473624666666,309.48826920247416L889.7187607999999,311.64931531627417L890.5544599666666,321.93754791732243L892.2091443166665,316.44116227289965L892.6269939,326.0817223739887L893.0448434833332,326.81260670091564L893.4626930666666,323.0084839046607L894.2983922333333,322.4644523746199L894.7162418166666,318.64742916032657L896.3709261666665,328.7823225979357L898.4601740833333,327.63774820834834L898.8780236666665,326.31304280826754L900.1148584333332,327.6032191257528L901.3684071833333,321.19596206531884L904.6944898666667,320.3480109052874L905.1123394499999,321.28548847972473L905.5301890333333,331.83321073787795L906.7837377833332,332.7842270592468L908.8562717166667,332.18649923421265L909.2741212999999,330.57003890009844L909.6919708833333,328.09275076560664L910.9455196333332,328.2346927726342L911.3633692166667,324.96461257565534L912.6002039833332,326.9885374472535L913.43590315,319.5319010730781L914.2716023166666,331.6905341527202L916.3441362499999,337.331162908369L917.1798354166666,329.0269083351747L919.6869329166666,333.3398094693422L920.9237676833334,322.4628608111261L922.5951660166667,322.9176349320614L925.0855495333333,326.55470328480226L926.7569478666666,332.1109005318598L928.0104966166666,324.2334723427456L928.8294817999999,317.78698396366764L929.6651809666666,309.0345843293006L930.0830305499999,312.96082869374897L930.9187297166666,309.0877018793712L931.3365792999999,307.1010291195912L931.7544288833333,317.0401024790508L932.9912636500001,317.9007536153328L933.4091132333333,323.08762153250296L933.8269628166665,332.05377059959994L937.1530455,337.4598330899928L937.5708950833333,338.4796478839117L937.9887446666665,341.5300456587452L938.40659425,336.1374116751338L939.660143,337.5124929516464L943.82192485,335.2430681624278L945.8944587833332,331.1433171358491L946.3123083666666,336.9887744296342L946.7301579499999,328.7134846643731L947.1480075333333,319.2872871177681L948.8194058666666,323.2377701890569L949.63839105,331.90931227648963L950.4740902166667,323.38980247568384L950.8919397999999,326.22931424571976L951.7276389666666,326.36712230698004L952.9811877166667,317.0628427487514L954.6358720666667,324.81431346290617L955.0537216499999,325.39387737519854L955.8894208166666,327.60693767433486L956.7251199833332,322.40492739216074L957.9619547499999,321.9832700744759L960.0512026666667,324.45415473568875L962.1237365999999,328.75902588776654L963.37728535,330.1413495593104L965.0486836833333,329.4819015778088L966.2855184499999,320.0851975919692L966.7033680333333,311.9464720298173L967.1212176166666,312.74006032809865L968.3747663666667,317.52331218625784L970.8651498833333,326.4003571932909L973.3722473833333,328.5772751674829L973.7900969666666,335.1269596054201L974.6090821499998,333.3759676281444L975.8626308999999,323.22393821921764L977.1161796499999,329.2611011929589L978.770864,333.55691350570265L979.1887135833333,327.96624016314405L980.8601119166666,326.8254470317042L981.2779615000001,331.07038341779844L981.6958110833333,319.60876360310647L983.3504954333333,326.2534344985234L984.1861946,318.9993785218301L985.43974335,325.3142762737604L985.8575929333333,325.48307353556083L987.0944277,334.056186934411L988.34797645,337.2526078840789L990.0193747833333,336.6245066120711L990.4372243666666,338.833706595117L991.25620955,334.2659605108995L991.6740591333332,325.62116901023285L992.0919087166666,338.12671908497975L992.9276078833333,341.67731713187806L993.3454574666665,332.63506941052754L993.76330705,331.40845401720935L994.1811566333332,332.57809761112645L997.0893897333333,329.40225906036295L997.9250889,328.0447178483347L998.7607880666667,330.5151497066257L999.5797732499999,330.95966051401365L999.9976228333333,330.0197599775311L1000.4154724166666,328.0509545199774L1000.833322,327.1583934838465L1001.6690211666667,328.51868526840445L1002.5047203333332,321.026431938936L1002.9225699166667,323.4758163001644L1004.5772542666666,326.67014726346287L1004.99510385,325.62839385114L1006.2486525999999,323.7566243864032L1016.2269006499998,321.91198021966744L1016.6447502333333,314.787675571034L1018.3161485666666,318.67967144460755L1018.7339981499999,331.41829976109557L1019.1518477333333,341.32051931686726L1020.3886824999998,338.65431011127697L1020.8065320833333,331.6754496245095L1021.6422312499999,333.05185593207244L1022.8957799999998,325.3111835671236L1023.3136295833333,328.6476823893128L1024.55046435,337.8241841996567L1024.9683139333333,330.06285356515644L1025.3861635166666,324.85866948886513L1027.05756185,321.67852883583964L1027.4754114333332,328.20329908065656L1028.7122462,322.1908692128744L1029.1300957833332,320.78268905928735L1030.3836445333334,326.4314165345401L1031.2193437,329.49374083698785L1033.7097272166666,333.01419759208653L1034.1275768,332.6507078438033L1034.5454263833333,334.36654566728276L1034.9632759666665,329.61223963998003L1039.5429073999999,334.791493110573L1039.9607569833333,330.5698696622262L1041.19759175,333.7253640705652L1042.8689900833333,328.24497151275625L1044.5403884166667,319.7116843931884L1045.3593736,309.5494441242126L1047.4486215166667,317.53655004062006L1048.2843206833331,328.9075893371346L1048.7021702666666,318.47954638265867L1049.9390050333332,331.94293613855353L1050.3568546166666,337.56303157147784L1050.7747041999999,327.86310808674403L1052.4461025333333,316.12992439042665L1052.8639521166667,318.72005149682155L1053.6829372999998,319.2617589500731L1054.1007868833333,326.0262560672591L1054.93648605,319.1121166108967L1056.1900348,329.00053353421333L1056.6078843833334,338.25782441217416L1057.0257339666666,336.9955576835384L1057.84471915,339.49154739427735L1059.0982678999999,339.46317068133476L1059.5161174833333,332.8124169466456L1061.1875158166665,333.08591595990384L1062.0065009999998,321.4167499442105L1063.6778993333332,330.2414007116798L1064.0957489166667,325.20707320676354L1064.9314480833334,330.8473422016131L1065.3492976666666,330.091129720191L1066.16828285,331.62755556701217L1067.0039820166667,326.89091243206474L1067.4218316,330.4405685434869L1070.7479142833333,332.77090882848614L1071.1657638666666,334.54273497773846L1071.58361345,332.49157761136246L1072.8371622,328.9878045461544L1074.9096961333332,316.59141907487094L1077.4167936333333,315.97462648725156L1077.8346432166666,317.794044051597L1079.90717715,331.65354552251165L1080.3250267333333,333.55674078928877L1081.9964250666665,325.67057678309294L1082.81541025,328.3813983246192L1083.2332598333332,326.7983108909084L1083.6511094166667,323.82603287555844L1086.9771921,323.81993088623534L1088.6485904333333,327.5529492562061L1089.4842896,331.0418048605851L1089.9021391833332,336.46695823807244L1093.2282218666667,325.6310604963412L1094.0639210333331,326.62443544741444L1095.3007558,328.34034761581006L1096.1364549666666,337.0885126963777L1098.2257028833333,339.3414734863108L1100.7160864,332.0262306515382L1101.5517855666667,332.2975601026221L1101.96963515,330.77001656772325L1102.3874847333334,326.5152837989444L1104.0421690833334,332.85230293973285L1105.2957178333334,329.6832333899816L1106.1314169999998,329.60841223677954L1106.5492665833333,320.466949108806L1107.7861013499999,322.3253958369262L1108.2039509333333,330.9491116624551L1108.6218005166666,335.1646737789148L1110.7110484333332,328.9203856283947L1111.1288980166667,328.97067353389326L1111.9478832,318.11881335261626L1112.7835823666667,326.3151398954612L1113.6192815333334,317.42176818057646L1116.5275146333333,322.2048792068494L1117.7810633833333,306.46175140709016L1119.0346121333332,315.1428397039496L1120.6892964833332,326.0291186330662L1121.52499565,324.8174904774191L1126.1046270833333,325.7736568225815L1127.3581758333332,324.7137174210325L1127.7760254166665,328.57481524556505L1130.6842585166667,326.357799915937L1131.5199576833331,325.7181821425032L1131.9378072666666,331.61172374799753L1135.26388995,336.73940175871485L1136.0995891166667,336.8694246120284L1138.17212305,332.42815003145944L1138.5899726333332,330.5602288896287L1140.2613709666666,329.738436219902L1143.1696040666666,325.0553034290351L1143.5874536499998,326.6101038636043L1144.0053032333333,319.3519875414066L1147.3313859166667,332.6576308314825L1149.8217694333332,333.2545184228199L1150.2396190166667,333.7952924841011L1150.6574686,327.29078910662287L1151.4931677666666,327.00215309599525L1152.3288669333333,326.50924735484165L1154.4014008666666,326.5717561846211L1154.8192504499998,328.45694734490553L1156.0727992,330.58491519774645L1158.5631827166665,327.7207569855447L1161.0702802166666,325.0276377523538L1162.3071149833333,324.9371939408002L1163.5606637333333,324.2631663814239L1166.05104725,318.6944541607834L1166.8867464166665,324.46430046679336L1167.304596,325.1826804908637L1167.7224455833332,321.3783961914744L1168.5581447499999,311.35122124234204L1168.9759943333333,315.68449007586196L1169.3938439166666,323.87092462163054L1171.0485282666666,333.1862327663761L1171.4663778499998,334.19563450476164L1171.8842274333333,338.8051668668036L1173.5556257666665,339.18468981434614L1174.7924605333333,336.8434759518981L1176.0460092833332,331.23281650334957L1177.2995580333331,335.715046103927L1178.9542423833332,332.5298163446712L1180.207791133333,332.6859171318064L1181.0434903,314.8585564801032L1183.5338738166665,326.47594588163037L1186.0409713166666,324.3061194182811L1188.5313548333334,331.73113229999586L1189.3670539999998,329.494721076794L1190.2027531666665,321.43024835917873L1191.0217383499999,322.06040158026883L1191.4395879333333,319.5055385143302L1191.8574375166666,325.5155279037873L1192.2752870999998,336.0904153404895L1192.6931366833333,331.35299718308295L1193.9466854333334,334.6228639240016L1197.2727681166666,331.2889433749978L1198.5263168666665,334.99279369055483L1199.34530205,335.9639525850363L1200.5988507999998,334.52068207937714L1202.2702491333332,332.2704172968344L1206.4320309833333,336.95550685998137L1208.0867153333334,335.64531626019317L1209.7581136666665,329.15773639678366L1210.17596325,326.7220699262578L1211.0116624166665,307.1260868420572L1211.8306476,305.1482559161643L1212.6663467666665,312.9634175938449L1213.08419635,319.5298173635659L1214.3377451,322.7957852747659L1215.99242945,325.89741565054993L1217.6638277833333,324.6712913601243L1218.49952695,327.5314517082821L1219.3352261166667,323.1087207837338" style="fill: none;" fill="none"></path></g></g></g></g><g opacity="0.2"><g><g><g><path stroke="rgb(255, 112, 67)" stroke-width="2px" d="M85.241315,-40.21556282043459L85.65916458333332,61.75324344635011L88.56739768333333,89.79840087890624L90.23879601666667,-50.127838134765625L90.65664559999999,11.559886932373066L92.31132994999999,14.765032768249512L92.72917953333334,-1.669792175292988L93.14702911666666,27.411407470703118L93.98272828333333,6.7331542968750036L94.40057786666665,-38.57176780700686L95.65412661666666,-54.76053237915038L96.4731118,51.24358654022219L98.9802093,5.265752792358398L101.47059281666667,-29.067094802856463L102.30629198333332,48.00323390960691L105.63237466666666,-2.8334970474243164L106.05022424999999,-32.948802947998054L106.46807383333332,37.58993244171141L107.30377299999999,34.51784229278564L108.95845734999999,-54.79272460937501L110.2120061,-28.078179359436042L111.46555484999999,51.370142936706564L111.88340443333333,16.199993133544933L112.30125401666665,6.054102897644023L113.1202392,87.20698165893555L113.95593836666666,37.22547435760499L114.37378795,6.0214405059814355L114.79163753333333,-30.6467266082764L115.20948711666665,25.361697196960442L116.04518628333332,-94.9035243988037L116.46303586666666,-39.97981834411625L119.37126896666666,56.90538120269775L120.20696813333332,15.32618427276612L120.62481771666666,-27.44702911376955L121.86165248333333,19.289921760559086L123.11520123333332,9.730405807495108L124.78659956666667,-58.90392684936525L129.7673666,59.14896392822264L130.18521618333332,14.364206314086923L131.43876493333335,25.14268493652342L132.6923136833333,17.20395374298097L133.11016326666666,21.484663009643562L134.3469980333333,44.38138675689697L137.27194511666667,10.530316352844219L139.7623286333333,30.28420448303224L141.43372696666665,29.31849288940431L142.25271214999998,-53.30087471008297L143.92411048333332,-12.884193420410137L144.34196006666664,3.1003551483154235L146.83234358333334,23.02283763885498L147.25019316666666,39.86164188385011L150.57627585,69.61973571777345L151.41197501666664,25.566272735595696L151.8298246,56.299674987792976L153.08337335,10.947100639343278L156.40945603333333,5.125506401062028L157.66300478333332,66.55320453643799L158.89983955,51.25276851654052L159.73553871666664,42.51255035400389L162.24263621666665,38.36055469512939L163.06162139999998,66.39575576782225L163.4794709833333,90.29527854919432L164.73301973333332,61.891415596008294L165.15086931666667,68.87060260772706L165.5687189,61.43599510192872L167.64125283333334,63.13582229614258L168.89480158333333,-6.647612571716296L169.31265116666665,60.09252262115477L169.73050074999998,4.1053113937377965L171.80303468333332,-20.432856559753436L172.22088426666664,9.733641624450675L172.63873385,39.17537212371827L173.89228260000002,-4.372418403625508L175.9648165333333,27.980938911438006L177.2183652833333,35.16237831115724L177.63621486666668,33.10445404052732L178.05406445,57.81658172607421L178.47191403333332,-45.75456237792971L179.70874879999997,44.40694141387938L180.54444796666667,-24.637537956237818L181.38014713333334,21.013201713561998L182.21584629999998,69.06450271606444L183.05154546666665,-66.22301292419438L183.87053065,99.35418319702148L185.1240794,40.85194015502932L185.54192898333332,-16.880980491638176L185.95977856666664,36.51868343353273L186.37762815,80.304292678833L187.21332731666664,37.92064952850344L189.7037108333333,55.64413166046142L193.4476431,39.09751892089844L194.28334226666664,32.755013465881355L195.11904143333334,-6.552695274353015L196.7737257833333,67.66538524627686L197.19157536666668,99.97551536560059L197.60942495,32.99415969848634L200.93550763333334,42.90433311462403L201.35335721666667,70.61965847015382L203.02475554999998,8.714995384216305L203.44260513333333,93.78783130645753L203.86045471666665,32.55903911590574L205.09728948333333,35.41753768920898L208.84122175,120.41716670989992L209.2590713333333,12.507649421691898L210.5126200833333,43.00569438934324L211.34831924999997,42.52424907684326L212.18401841666667,67.42740058898924L213.42085318333332,76.19748783111574L214.25655234999996,114.8323402404785L214.67440193333334,20.515577316284183L215.51010109999999,21.709400177001942L216.34580026666666,47.66972351074217L217.16478544999998,78.12266063690187L218.00048461666663,70.03552436828613L220.08973253333332,79.87202072143556L220.50758211666664,67.71596908569335L221.3265673,17.6176128387451L221.74441688333334,44.97036075592042L225.48834915,-16.510576248168945L226.32404831666665,66.21488189697266L226.7418979,30.876358985900893L227.99544664999996,60.18724632263185L230.0679805833333,72.85134887695311L230.90367974999998,69.40697383880615L231.3215293333333,33.15666961669923L232.57507808333332,105.64712810516357L233.81191284999997,80.11290931701662L235.90116076666666,27.718671798706044L236.73685993333333,58.375299453735344L237.15470951666666,30.82060337066649L239.64509303333332,57.93771743774415L240.06294261666665,62.558547019958496L240.89864178333332,92.02613639831543L242.55332613333331,88.5113477706909L243.3890253,82.81628227233887L243.8068748833333,111.78326034545897L245.47827321666668,29.160629272460923L246.71510798333333,128.5460367202759L247.13295756666665,143.5366916656494L247.55080714999997,70.16191482543947L249.22220548333334,-18.37462806701664L251.29473941666663,106.56939125061035L251.71258899999998,38.90898418426513L252.1304385833333,0.09134960174558937L252.54828816666665,62.83088111877441L252.96613775,81.72005939483643L253.38398733333332,48.12359523773192L256.71007001666663,29.47870731353761L257.9636187666667,68.20795154571532L258.78260395,137.2443552017212L262.12540061666664,42.517888069152846L264.19793455,49.007913589477525L264.6157841333333,110.0390167236328L265.03363371666666,70.6780138015747L265.4514833,61.12856483459471L265.8693328833333,147.15715599060061L267.5240172333333,121.35978507995607L269.61326514999996,140.85641193389893L270.44896431666666,50.222174644470215L272.52149825,132.11738300323486L272.93934783333333,55.224415779113755L274.6107461666666,34.24265956878661L275.42973135,73.74164104461669L275.8475809333333,47.410470962524414L277.1011296833333,28.71173572540285L278.35467843333333,1.7737808227539191L278.7725280166667,95.97944736480713L280.42721236666665,6.131679534912097L280.84506194999994,105.51028347015381L282.51646028333334,37.229456901550286L285.0068438,85.80919170379639L285.4246933833333,125.6554012298584L285.84254296666666,44.963750839233406L286.6782421333333,87.3921422958374L287.09609171666665,-49.71315574646L287.9150769,15.233673095703113L288.7507760666667,55.33907985687256L289.16862564999997,92.00121784210206L289.5864752333333,39.451771736145034L290.00432481666667,63.28035545349121L292.07685875,49.29410362243651L292.91255791666663,117.67150688171385L293.3304075,90.41472721099852L293.7482570833333,120.57666206359865L294.58395624999997,43.27033996582032L296.6564901833333,-4.2903337478637695L297.07433976666664,97.89303207397461L298.7457381,-15.439576148986784L299.16358768333333,52.19057464599609L300.40042244999995,74.2331256866455L301.23612161666665,77.57840728759767L302.90751995,128.3425397872925L303.32536953333334,61.88983917236327L304.9800538833333,121.17362880706789L305.39790346666666,31.914060592651374L305.81575305,106.61350345611571L306.2336026333333,73.14019393920897L307.0693018,56.24886989593505L307.4871513833333,63.80370044708252L309.1418357333333,113.55723476409914L309.5596853166667,55.280005455017076L309.97753489999997,112.69122505187987L310.81323406666667,43.38522529602053L312.06678281666666,93.81479644775392L314.13931675,76.65514850616455L315.8107150833333,134.6450538635254L316.2285646666666,117.83150005340575L317.8832490166667,73.78063678741456L319.1367977666667,61.838868141174295L319.55464735,25.311583518981923L319.97249693333333,35.848648071289084L320.3903465166667,54.84936523437502L321.2093317,111.37546443939209L321.6271812833333,83.9088821411133L322.8807300333333,-34.217409133911126L323.29857961666664,22.588187217712385L323.7164292,74.090500831604L324.1342787833333,93.86554622650145L325.7889631333333,56.24978256225586L328.71391021666665,73.55266380310057L330.3685945666666,78.57030963897705L330.78644414999997,104.71200466156004L331.6221433166666,56.15232086181643L332.03999289999996,91.19923305511473L332.45784248333337,115.93484115600587L333.69467725,125.49828433990479L334.5303764166666,136.42801666259766L335.3660755833333,77.05315399169922L336.20177474999997,0.4462108612060386L336.6196243333333,87.63662624359131L338.2743086833333,94.85412979125978L339.11000784999993,109.51262950897217L340.3635566,68.01728725433351L340.78140618333333,110.2788543701172L343.6896392833333,91.00433731079102L344.10748886666664,44.57293605804444L344.52533844999994,84.9299898147583L346.5978723833333,98.14982318878172L347.8514211333333,88.69855499267578L348.6871203,91.5930347442627L350.34180465,161.89746379852295L352.0132029833334,89.79616069793701L353.68460131666666,102.36639690399169L354.5035865,122.39837169647217L354.92143608333333,70.06638908386229L355.75713525,45.84959030151367L356.5928344166666,101.73792934417723L357.01068399999997,96.94471645355225L357.4285335833333,101.94076251983641L358.66536834999994,144.40577125549314L359.5010675166667,53.08899784088133L359.9189171,62.90555381774904L360.33676668333334,33.56830978393554L360.7546162666667,103.16146755218504L362.0081650166667,77.58061981201173L362.82715019999995,129.53871345520022L364.91639811666664,80.41090869903564L365.7520972833333,61.91398334503174L367.4067816333333,95.7148847579956L367.82463121666666,147.74535560607913L368.6603303833333,85.6365041732788L369.49602955,79.19897079467775L370.33172871666665,82.75648880004884L371.56856348333326,113.29068088531496L371.9864130666666,143.86019039154053L373.23996181666666,129.19615936279297L374.0756609833333,100.97430419921875L374.49351056666666,91.80831336975098L376.5660445,82.21917724609374L378.2374428333333,122.79969596862793L379.89212718333334,49.39280986785889L380.3099767666667,121.97771549224854L380.72782635,141.3735065460205L381.14567593333334,128.5022287368774L381.5635255166667,124.72547721862794L384.0539090333333,109.18512058258055L384.88960819999994,121.18187046051024L385.3074577833333,141.99671936035156L385.72530736666664,121.9986515045166L386.14315694999993,70.8780813217163L386.5610065333333,94.12891960144043L388.2156908833333,164.9759702682495L389.05139005,112.29963588714598L392.37747273333326,119.27334690093996L393.63102148333326,133.83560180664062L396.121405,147.5020885467529L396.53925458333333,153.70561981201172L396.9571041666666,98.08278369903564L398.2106529166666,45.02902030944826L399.0463520833333,132.92821788787842L399.4642016666666,146.39483070373535L400.28318685,104.10405826568604L401.5367356,87.29100227355956L403.6259835166666,73.78591918945311L404.8628182833333,152.52067470550537L405.69851744999994,73.95133304595949L406.1163670333333,92.88163661956786L406.95206619999993,95.41279220581056L408.60675055,115.4348659515381L409.0246001333333,108.43092632293701L409.86029929999995,89.33767032623291L411.5316976333333,49.55869388580322L411.94954721666664,95.724702835083L413.18638198333326,172.47504520416257L414.4399307333333,129.77960205078128L415.2756299,86.29376220703125L416.93031425,77.972430229187L417.34816383333333,101.81340408325195L418.183863,87.36658763885497L419.0195621666666,93.64103031158447L419.43741174999997,88.52614402770995L420.2731109166666,92.37704277038574L421.0920961,131.26268482208255L421.92779526666664,64.81335830688475L422.34564485,155.5846061706543L422.76349443333334,129.91785717010498L425.25387794999995,108.7420072555542L426.9252762833333,110.18548583984374L427.3431258666667,49.37992191314698L427.76097544999993,52.76577568054198L432.75845646666664,104.35050582885742L433.57744165,109.17831707000734L434.41314081666667,121.51739978790282L436.92023831666666,98.29225444793701L437.7392235,142.15292358398435L438.99277225,180.2454309463501L439.41062183333327,119.68523597717285L440.66417058333326,132.181435585022L442.31885493333334,140.56585216522217L442.73670451666663,94.05233860015869L443.57240368333333,90.98854541778563L443.9902532666666,53.049365997314446L444.40810285,122.11677265167236L444.8259524333333,104.25545024871825L445.2438020166666,133.94896602630615L448.1520351166666,90.92380142211914L449.40558386666663,75.27519702911376L453.1495161333333,131.64962768554688L455.63989965,101.29191207885744L456.0577492333333,142.61453914642334L456.47559881666666,89.34322929382323L456.8934484,97.89969730377199L458.54813275,143.35631561279297L461.89092941666667,87.59489250183104L462.7099146,140.89645862579346L463.54561376666663,145.84161663055423L464.38131293333333,127.65104293823242L466.0527112666666,32.68188953399658L466.87169644999994,118.72082424163818L468.54309478333334,146.0102663040161L468.96094436666664,111.8621644973755L469.79664353333334,170.27681922912598L470.21449311666663,93.1091947555542L471.03347829999996,161.51721382141116L471.86917746666666,119.6819725036621L472.28702704999995,106.69716453552248L473.54057579999994,128.15267753601074L474.37627496666664,156.48643112182617L476.8666584833333,168.9889087677002L477.28450806666666,99.16625690460206L478.53805681666665,54.9277992248535L480.1927411666666,130.39576244354245L481.4462899166666,102.26633548736572L482.28198908333326,97.35096359252931L483.93667343333334,94.3815622329712L484.35452301666663,80.17060089111328L486.02592135,165.19105529785156L486.44377093333327,59.95230388641356L492.67808671666666,101.35499668121338L493.09593629999995,85.63921451568604L493.5137858833333,174.78801822662356L495.1851842166667,113.5072593688965L496.4220189833333,126.40666389465333L497.6755677333333,134.72711086273193L498.51126689999995,49.930453300476074L498.9291164833333,119.69483280181883L500.58380083333327,82.21151638031007L501.0016504166666,131.932692527771L501.83734958333326,156.1503210067749L503.0908983333333,152.11713790893555L503.50874791666666,134.6263303756714L504.7455826833333,75.84710693359375L505.16343226666663,106.1032123565674L506.4169810166666,109.18050193786621L508.48951494999994,52.266436576843255L508.90736453333335,84.89461708068848L509.7430637,81.27205085754396L510.57876286666664,122.50720024108885L512.6512968,114.69911861419679L513.0691463833333,103.01256465911867L513.90484555,92.2743263244629L514.3226951333334,113.42874240875246L514.7405447166666,31.199276924133283L515.1583942999999,146.255690574646L515.9940934666666,62.541261672973654L518.0666273999999,94.45327568054199L518.9023265666667,122.0784959793091L519.32017615,126.2819881439209L520.9748605,167.50126266479492L522.6462588333333,129.76087856292725L523.8998075833333,131.51001739501953L525.5544919333332,165.54835033416748L525.9723415166667,188.55097103118896L527.64373985,109.65176963806152L528.4794390166667,130.28369808197021L529.2984242,125.70391082763673L530.1341233666666,121.8712100982666L530.9698225333333,144.49944400787354L531.3876721166666,112.00470638275146L532.6412208666666,131.02387046813962L535.1316043833333,106.4787607192993L535.96730355,169.98927402496338L536.3851531333333,36.87420845031739L537.6219878999999,102.94566345214842L538.0398374833333,174.71483898162842L539.7112358166667,64.38797283172606L541.7837697499999,166.71523571014404L542.6194689166666,144.9873609542847L543.4551680833333,151.91900634765625L544.2908672499999,136.24866390228271L545.1265664166666,179.59735488891602L545.9455516,136.0917682647705L547.19910035,137.76786613464355L547.6169499333333,98.51013278961182L548.0347995166667,109.52164554595946L548.8704986833333,15.412472724914558L551.3608822,178.28319835662845L552.1965813666666,178.73034954071045L553.0322805333333,131.15446472167972L553.4501301166666,116.21580410003662L554.2691153,123.0448989868164L556.3583632166666,117.87262535095215L558.43089715,123.35714149475096L559.2665963166667,135.0667610168457L559.6844458999999,128.7144651412964L562.592679,181.15881633758545L563.0105285833333,157.32110595703125L563.4283781666667,154.4875812530518L563.8462277499999,161.6669464111328L564.2640773333333,113.06030178070068L565.9354756666667,83.83235645294188L567.5901600166667,135.73237133026123L570.0972575166667,78.98477077484131L570.9162427,112.91878318786621L572.1697914499999,179.1760625839233L573.0054906166666,136.0619821548462L573.4233402,142.71081161499023L573.8411897833332,102.13867282867433L575.07802455,147.96027469635007L576.3315733,85.18495559692383L577.1672724666666,91.51941299438477L578.0029716333333,116.93703174591064L578.4208212166666,123.19866943359376L579.2398063999999,68.62780570983887L579.6576559833333,155.77208995819092L580.0755055666666,133.4484100341797L580.49335515,145.8013486862183L581.7469039,123.86978340148927L582.1647534833334,154.31641483306885L583.4015882499999,101.55816173553465L583.8194378333333,168.77058792114258L584.2372874166666,146.10969161987308L585.4908361666667,144.07032489776608L585.9086857499999,147.47476387023923L586.3265353333333,141.91258811950684L588.3990692666666,130.9047260284424L591.7251519499999,129.13752746582028L592.5608511166666,95.66015243530275L593.3965502833332,100.42344093322754L593.8143998666666,149.39277362823486L594.23224945,175.17277622222898L595.8869338,104.95590782165526L596.7226329666667,162.72093772888186L597.5583321333334,101.22155380249022L597.9761817166666,154.6832790374756L598.8118808833333,130.5912389755249L601.3022644,162.15431022644046L602.1379635666666,91.02123546600342L602.55581315,172.6891899108887L604.2104975,177.64983558654782L604.6283470833333,145.6844720840454L605.4640462499999,138.54042434692383L605.8818958333333,164.00469970703125L606.717595,142.7750301361084L607.1354445833333,94.83803367614748L608.37227935,190.51616287231442L608.7901289333333,156.25173759460446L609.2079785166667,119.08771610260008L610.4615272666666,104.39976215362549L611.7150760166667,138.3338022232056L613.7876099499999,120.31417369842528L614.6233091166666,139.0722599029541L615.4590082833333,147.48861980438232L615.8768578666667,157.0546627044678L616.69584305,135.79208183288574L617.1136926333334,177.83447074890137L620.0386397166666,150.21693897247312L621.2754744833334,162.3448362350464L622.11117365,146.67255783081055L623.3647224,142.00493335723874L626.2729555,137.0669937133789L626.6908050833333,148.14983272552493L627.52650425,172.4694585800171L627.9443538333333,106.66782093048097L628.3622034166666,128.11113739013675L630.43473735,173.54018211364746L631.2704365166666,117.30431079864503L632.1061356833333,144.82993984222412L633.3429704499999,191.8328638076782L633.7608200333333,157.73258018493652L634.1786696166665,119.31267452239992L635.4322183666666,150.30723762512207L635.85006795,181.2374439239502L636.2679175333333,151.68331718444824L637.5047523,135.29586791992185L637.9226018833333,97.67850017547609L639.1761506333332,106.21392154693602L640.8475489666667,137.8516654968262L641.66653415,150.0810899734497L642.0843837333332,137.40268898010254L642.9200829,159.32247257232666L644.5914812333333,127.39237117767335L645.0093308166666,138.9614953994751L647.0818647499999,127.16669368743895L649.1711126666667,71.16145038604736L650.4079474333333,89.39245796203613L652.0793457666666,166.95474147796628L653.3328945166667,91.25349521636963L654.1518796999999,100.83469390869139L656.2411276166666,138.25345993041992L657.0768267833333,169.16458320617673L658.3136615499999,192.90118122100833L658.7315111333334,194.98460483551028L659.1493607166666,123.00811576843263L659.9850598833333,214.96151542663574L661.2386086333333,157.18882465362546L661.6564582166666,136.36606597900393L662.4754433999999,77.7125415802002L662.8932929833334,177.01694297790527L663.72899215,183.90038299560547L664.5646913166667,137.1421642303467L664.9825408999999,87.31265735626219L666.63722525,122.13486003875731L667.0550748333333,180.43584632873535L669.5621723333334,139.64336776733396L671.6347062666666,153.65058326721194L673.7239541833333,135.75593471527102L674.1418037666666,118.20964813232422L674.96078895,149.56667804718015L676.6321872833333,162.34148979187012L677.8857360333333,159.63612556457522L680.37611955,147.00474071502686L681.6296682999999,128.40222263336184L684.1200518166667,134.35490894317627L684.5379014,109.97919559478758L685.79145015,117.17698001861572L687.8639840833332,134.59054279327395L689.5353824166667,94.33012104034422L692.0257659333332,188.93127632141113L694.11501385,108.92512130737306L694.9507130166667,158.062273979187L696.6053973666667,182.35919380187988L697.0232469499999,203.73595476150516L697.8589461166666,148.33648681640625L701.1850287999999,139.01539802551267L705.34681065,144.9004917144775L705.7646602333333,107.87666130065918L706.6003593999999,188.7151403427124L707.0182089833334,178.09546566009521L708.6728933333333,112.82616138458253L709.0907429166666,182.4874095916748L709.9264420833333,138.0184621810913L711.5978404166666,168.51935577392578L712.8346751833333,204.05945348739627L714.5060735166666,116.99262142181396L714.9239231,82.53045177459717L715.3417726833333,178.73850822448728L715.7596222666666,86.65412712097167L716.57860745,172.22989749908447L718.2500057833333,125.24077415466309L719.5035545333333,162.95101261138916L719.9214041166666,140.21231842041016L721.99393805,158.10204410552976L724.0831859666665,162.22618961334229L724.90217115,189.43741893768313L726.5735694833332,206.4272556304932L727.8271182333333,125.38630294799806L729.8996521666667,182.02643013000488L738.6410654499999,150.1807918548584L739.0589150333333,155.64802265167236L740.7303133666667,88.81590175628662L745.7110803999999,162.8743486404419L746.1289299833334,167.7755880355835L747.8003283166667,140.80112648010254L748.6360274833334,135.7569580078125L749.0538770666666,146.22916793823242L749.8728622499999,145.2249584197998L750.2907118333334,159.67235565185544L751.5442605833333,184.31686305999756L752.7978093333334,171.86499691009524L754.0346441,184.9819755554199L754.8703432666666,156.07927131652832L755.2881928499999,144.34539699554443L756.1238920166666,151.38526248931885L756.5417415999999,147.65690994262698L757.3774407666666,181.97957992553714L758.19642595,166.2442445755005L758.6142755333333,114.84567070007326L759.0321251166666,113.05756378173828L759.4499747,124.5184679031372L760.2856738666666,175.99929237365725L763.61175655,114.65638923645018L764.8653053,188.91573333740237L765.2831548833333,72.01346588134766L766.51998965,131.1334457397461L769.4449367333333,196.95903396606442L771.5174706666667,159.22254943847656L772.3531698333333,160.35884666442868L772.7710194166667,161.3548698425293L774.0245681666667,144.00582981109622L774.84355335,197.66557598114014L776.5149516833333,147.3258056640625L776.9328012666667,104.80592632293703L777.35065085,188.31506061553955L778.1863500166667,196.8685693740845L781.5124327,151.74723148345947L781.9302822833332,155.8868646621704L782.3481318666667,152.6658716201782L783.5849666333332,183.7666082382202L784.4206657999999,248.1649661064148L784.8385153833332,270.06129693984985L788.1645980666666,269.851909160614L790.2538459833333,277.4440484046936L793.1620790833333,280.0376386642456L794.4156278333334,282.42816066741943L794.8334774166666,286.81814098358154L796.4881617666666,319.54330611228943L799.81424445,283.7365369796753L801.0677932,305.6427688598633L801.4856427833333,324.46311688423157L801.9034923666666,280.7651720046997L806.0652742166666,301.34326696395874L807.3188229666666,272.11178159713745L808.13780815,288.93291330337524L808.9735073166665,313.153431892395L809.8092064833332,292.9637179374695L810.2270560666666,330.8809103965759L810.6449056499999,333.3919596672058L811.0627552333333,339.43371391296387L812.7174395833333,338.51973390579224L813.55313875,283.64760732650757L814.3888379166666,295.890389919281L814.8066875,297.7019634246826L815.2245370833333,267.5455460548401L816.8792214333332,301.9992389678955L818.96846935,246.10776090621945L821.4588528666667,285.3139009475708L821.8767024499999,258.58393716812134L822.2945520333333,292.8715109825134L823.9659503666667,293.67292881011963L824.7849355499999,305.03655099868774L825.2027851333332,323.7107894420624L828.9467173999999,312.5696020126343L829.7824165666666,302.9664855003357L830.20026615,289.775954246521L831.0359653166666,283.9180746078491L833.9441984166666,295.55414152145386L834.7798975833333,328.74238109588623L835.6155967499999,306.6637382507324L836.0334463333334,341.81550335884094L838.1059802666666,320.1162669658661L839.7773785999999,271.65695571899414L840.6130777666666,287.0259938240051L842.2677621166666,320.6192774772644L842.6856116999999,329.906977891922L844.7748596166666,333.51467180252075L845.5938448,310.81206941604614L846.4295439666666,309.50065088272095L847.2652431333333,334.7259044647217L847.6830927166666,317.5952820777893L848.1009423,323.1476535797119L848.5187918833333,292.9303641319275L849.75562665,283.6138939857483L850.5913258166665,315.8766484260559L852.26272415,318.91567516326904L853.0984233166665,309.75224256515503L854.3352580833333,317.8207106590271L855.5888068333333,306.61403942108154L856.0066564166666,311.4044451713562L858.07919035,311.91302156448364L859.3327391,321.920449256897L860.1684382666665,289.19751739501953L860.58628785,316.30208921432495L861.4219870166665,315.3501229286194L863.0766713666667,256.24257469177246L863.4945209499999,357.34048295021057L863.9123705333333,330.3327989578247L864.3302201166666,312.75495624542236L866.8206036333332,301.0736985206604L867.2384532166667,301.1798858642578L867.6563027999999,297.07638597488403L869.3277011333332,324.6422829627991L869.7455507166667,293.15833711624146L870.9823854833332,322.55036187171936L871.81808465,286.9989457130432L873.0716333999999,349.40735912323L873.9073325666667,312.52405166625977L874.7263177499999,290.0028486251831L875.1441673333334,340.9379954338074L875.5620169166666,313.475492477417L878.0691144166666,329.4845931529999L880.1416483499999,324.9686026573181L880.5594979333333,302.5654516220093L880.9773475166667,327.458377122879L881.3951970999999,268.7758755683899L883.8855806166666,295.12785720825195L887.6295128833333,320.86327052116394L888.0473624666666,314.5353331565857L889.7187607999999,316.6917562484741L890.5544599666666,345.94342398643494L892.2091443166665,303.6162624359131L892.6269939,348.5763626098633L893.0448434833332,328.5180034637451L893.4626930666666,314.1321973800659L894.2983922333333,321.1950454711914L894.7162418166666,309.74104166030884L896.3709261666665,352.4304072856903L898.4601740833333,324.96707463264465L898.8780236666665,323.22206354141235L900.1148584333332,330.6136305332184L901.3684071833333,306.2456955909729L904.6944898666667,318.36945819854736L905.1123394499999,323.47293615341187L905.5301890333333,356.4445626735687L906.7837377833332,335.0032651424408L908.8562717166667,330.79180097579956L909.2741212999999,326.79829812049866L909.6919708833333,322.31241178512573L910.9455196333332,328.565890789032L911.3633692166667,317.33442544937134L912.6002039833332,331.7110288143158L913.43590315,302.1330828666687L914.2716023166666,360.0606780052185L916.3441362499999,350.4926300048828L917.1798354166666,309.6503143310547L919.6869329166666,343.40324544906616L920.9237676833334,297.08331394195557L922.5951660166667,323.9787745475769L925.0855495333333,335.0411961078644L926.7569478666666,345.0753607749939L928.0104966166666,305.85280656814575L928.8294817999999,302.7451777458191L929.6651809666666,288.6123185157776L930.0830305499999,322.1220655441284L930.9187297166666,300.0504059791565L931.3365792999999,302.46545934677124L931.7544288833333,340.23127365112305L932.9912636500001,319.90893959999084L933.4091132333333,335.1903133392334L933.8269628166665,352.9747850894928L937.1530455,350.0739789009094L937.5708950833333,340.85921573638916L937.9887446666665,348.64764046669006L938.40659425,323.55459904670715L939.660143,340.7210159301758L943.82192485,329.9477436542511L945.8944587833332,321.5772314071655L946.3123083666666,350.6281747817993L946.7301579499999,309.40447521209717L947.1480075333333,297.2928261756897L948.8194058666666,332.4555640220642L949.63839105,352.14291048049927L950.4740902166667,303.5109462738037L950.8919397999999,332.85484170913696L951.7276389666666,326.68867444992065L952.9811877166667,295.3528571128845L954.6358720666667,342.9010784626007L955.0537216499999,326.7461931705475L955.8894208166666,332.7707450389862L956.7251199833332,310.26690340042114L957.9619547499999,320.99940299987793L960.0512026666667,330.2195522785187L962.1237365999999,338.80372524261475L963.37728535,333.36677145957947L965.0486836833333,327.9431896209717L966.2855184499999,298.1595549583435L966.7033680333333,292.95611238479614L967.1212176166666,314.5917663574219L968.3747663666667,328.68423318862915L970.8651498833333,347.11346220970154L973.3722473833333,333.65675044059753L973.7900969666666,350.40955662727356L974.6090821499998,329.2903196811676L975.8626308999999,299.5358695983887L977.1161796499999,343.3478147983551L978.770864,343.58047556877136L979.1887135833333,314.9213356971741L980.8601119166666,324.16359639167786L981.2779615000001,340.97523498535156L981.6958110833333,292.86498403549194L983.3504954333333,341.7576665878296L984.1861946,302.0732479095459L985.43974335,340.04903769493103L985.8575929333333,325.8769338130951L987.0944277,354.0601181983948L988.34797645,344.71092343330383L990.0193747833333,335.1589369773865L990.4372243666666,343.98850655555725L991.25620955,323.6078863143921L991.6740591333332,305.4499888420105L992.0919087166666,367.3063359260559L992.9276078833333,349.96204590797424L993.3454574666665,311.53649139404297L993.76330705,328.5463514328003L994.1811566333332,335.307265996933L997.0893897333333,321.99196910858154L997.9250889,324.8771216869354L998.7607880666667,336.2794907093048L999.5797732499999,331.9968523979187L999.9976228333333,327.8266587257385L1000.4154724166666,323.45707511901855L1000.833322,325.0757510662079L1001.6690211666667,331.69269943237305L1002.5047203333332,303.5445075035095L1002.9225699166667,329.19104647636414L1004.5772542666666,334.1235861778259L1004.99510385,323.19763588905334L1006.2486525999999,319.3891623020172L1016.2269006499998,317.60781049728394L1016.6447502333333,298.16429805755615L1018.3161485666666,327.7609951496124L1018.7339981499999,361.141765832901L1019.1518477333333,364.4256982803345L1020.3886824999998,332.43315529823303L1020.8065320833333,315.391441822052L1021.6422312499999,336.26347064971924L1022.8957799999998,307.2496147155762L1023.3136295833333,336.4328463077545L1024.55046435,359.23602175712585L1024.9683139333333,311.95308208465576L1025.3861635166666,312.71557331085205L1027.05756185,314.2582006454468L1027.4754114333332,343.4277629852295L1028.7122462,308.1618661880493L1029.1300957833332,317.49693536758423L1030.3836445333334,339.61178064346313L1031.2193437,336.63916420936584L1033.7097272166666,341.2285966873169L1034.1275768,331.80256509780884L1034.5454263833333,338.3701672554016L1034.9632759666665,318.51885890960693L1039.5429073999999,346.8764178752899L1039.9607569833333,320.7194149494171L1041.19759175,341.08818435668945L1042.8689900833333,315.45738887786865L1044.5403884166667,299.8006811141968L1045.3593736,285.83755016326904L1047.4486215166667,336.17313051223755L1048.2843206833331,355.4400143623352L1048.7021702666666,294.1474461555481L1049.9390050333332,363.3575122356415L1050.3568546166666,350.6765875816345L1050.7747041999999,305.229953289032L1052.4461025333333,288.75249576568604L1052.8639521166667,324.76368141174316L1053.6829372999998,320.5257430076599L1054.1007868833333,341.8100826740265L1054.93648605,302.979124546051L1056.1900348,352.07350635528564L1056.6078843833334,359.85816979408264L1057.0257339666666,334.05026865005493L1057.84471915,345.3155233860016L1059.0982678999999,339.39695835113525L1059.5161174833333,317.29399156570435L1061.1875158166665,333.724080324173L1062.0065009999998,294.1886959075928L1063.6778993333332,350.8322525024414L1064.0957489166667,313.4603090286255L1064.9314480833334,344.0079698562622L1065.3492976666666,328.3266339302063L1066.16828285,335.2125492095947L1067.0039820166667,315.8387451171875L1067.4218316,338.72309947013855L1070.7479142833333,338.2083694934845L1071.1657638666666,338.6769959926605L1071.58361345,327.705543756485L1072.8371622,320.81233406066895L1074.9096961333332,287.6665196418762L1077.4167936333333,314.5354437828064L1077.8346432166666,322.03935170173645L1079.90717715,363.9923822879791L1080.3250267333333,337.99752974510193L1081.9964250666665,307.26952743530273L1082.81541025,334.70664858818054L1083.2332598333332,323.10444021224976L1083.6511094166667,316.8907175064087L1086.9771921,323.80569291114807L1088.6485904333333,336.26332545280457L1089.4842896,339.1824679374695L1089.9021391833332,349.1256494522095L1093.2282218666667,300.3472990989685L1094.0639210333331,328.94231033325195L1095.3007558,332.3441426753998L1096.1364549666666,357.5008978843689L1098.2257028833333,344.5983819961548L1100.7160864,314.95733070373535L1101.5517855666667,332.93066215515137L1101.96963515,327.20574831962585L1102.3874847333334,316.58757400512695L1104.0421690833334,347.638680934906L1105.2957178333334,322.28873777389526L1106.1314169999998,329.43382954597473L1106.5492665833333,299.1368684768677L1107.7861013499999,326.6617715358734L1108.2039509333333,351.07111525535583L1108.6218005166666,345.0009853839874L1110.7110484333332,314.35037994384766L1111.1288980166667,329.08801198005676L1111.9478832,292.79780626296997L1112.7835823666667,345.43990182876587L1113.6192815333334,296.6705675125122L1116.5275146333333,333.3654716014862L1117.7810633833333,269.7277865409851L1119.0346121333332,335.3987123966217L1120.6892964833332,351.4304361343384L1121.52499565,321.99035811424255L1126.1046270833333,328.0047116279602L1127.3581758333332,322.2405254840851L1127.7760254166665,337.5840435028076L1130.6842585166667,321.1847641468048L1131.5199576833331,324.22574067115784L1131.9378072666666,345.36332082748413L1135.26388995,348.7039837837219L1136.0995891166667,337.17281126976013L1138.17212305,322.06517601013184L1138.5899726333332,326.20174622535706L1140.2613709666666,327.82091999053955L1143.1696040666666,314.1279935836792L1143.5874536499998,330.23797154426575L1144.0053032333333,302.4163827896118L1147.3313859166667,363.70413184165955L1149.8217694333332,334.64725613594055L1150.2396190166667,335.05709862709045L1150.6574686,312.1136145591736L1151.4931677666666,326.3286690711975L1152.3288669333333,325.3591339588165L1154.4014008666666,326.7176101207733L1154.8192504499998,332.8557267189026L1156.0727992,335.55017352104187L1158.5631827166665,321.037721157074L1161.0702802166666,318.74369287490845L1162.3071149833333,324.7261583805084L1163.5606637333333,322.6904354095459L1166.05104725,305.70079231262207L1166.8867464166665,337.92727518081665L1167.304596,326.8589005470276L1167.7224455833332,312.5017328262329L1168.5581447499999,287.95447969436646L1168.9759943333333,325.79545068740845L1169.3938439166666,342.9726052284241L1171.0485282666666,354.92195177078247L1171.4663778499998,336.55090522766113L1171.8842274333333,349.56074237823486L1173.5556257666665,340.07024335861206L1174.7924605333333,331.3806436061859L1176.0460092833332,318.1412777900696L1177.2995580333331,346.1735818386078L1178.9542423833332,325.09761357307434L1180.207791133333,333.05015230178833L1181.0434903,273.26138162612915L1183.5338738166665,353.5831878185272L1186.0409713166666,319.24319100379944L1188.5313548333334,349.0561623573303L1189.3670539999998,324.27642822265625L1190.2027531666665,302.6131453514099L1191.0217383499999,323.53075909614563L1191.4395879333333,313.54419136047363L1191.8574375166666,339.538836479187L1192.2752870999998,360.7651526927948L1192.6931366833333,320.29902148246765L1193.9466854333334,342.252552986145L1197.2727681166666,323.5097954273224L1198.5263168666665,343.6351110935211L1199.34530205,338.22999000549316L1200.5988507999998,331.1530508995056L1202.2702491333332,327.0197994709015L1206.4320309833333,347.8873825073242L1208.0867153333334,332.58820486068726L1209.7581136666665,314.0200500488281L1210.17596325,321.0388481616974L1211.0116624166665,261.40212631225586L1211.8306476,300.5333170890808L1212.6663467666665,331.19879484176636L1213.08419635,334.85141682624817L1214.3377451,330.4163770675659L1215.99242945,333.134553194046L1217.6638277833333,321.8103346824646L1218.49952695,334.2051591873169L1219.3352261166667,312.78901529312134" style="fill: none;" fill="none"></path></g></g></g></g></g></g><g transform="translate(30, 377)" clip-path="url(#clip_1)"><clipPath id="clip_1"><rect width="1253" height="23"></rect></clipPath><g><g><line x1="0" y1="0" x2="0" y2="5" style="visibility: inherit;" fill="rgb(0, 0, 0)" stroke="rgb(204, 204, 204)" stroke-width="1px"></line><line x1="83.56991666666666" y1="0" x2="83.56991666666666" y2="5" style="visibility: inherit;" fill="rgb(0, 0, 0)" stroke="rgb(204, 204, 204)" stroke-width="1px"></line><line x1="167.1398333333333" y1="0" x2="167.1398333333333" y2="5" style="visibility: inherit;" fill="rgb(0, 0, 0)" stroke="rgb(204, 204, 204)" stroke-width="1px"></line><line x1="250.70974999999999" y1="0" x2="250.70974999999999" y2="5" style="visibility: inherit;" fill="rgb(0, 0, 0)" stroke="rgb(204, 204, 204)" stroke-width="1px"></line><line x1="334.2796666666666" y1="0" x2="334.2796666666666" y2="5" style="visibility: inherit;" fill="rgb(0, 0, 0)" stroke="rgb(204, 204, 204)" stroke-width="1px"></line><line x1="417.84958333333327" y1="0" x2="417.84958333333327" y2="5" style="visibility: inherit;" fill="rgb(0, 0, 0)" stroke="rgb(204, 204, 204)" stroke-width="1px"></line><line x1="501.41949999999997" y1="0" x2="501.41949999999997" y2="5" style="visibility: inherit;" fill="rgb(0, 0, 0)" stroke="rgb(204, 204, 204)" stroke-width="1px"></line><line x1="584.9894166666667" y1="0" x2="584.9894166666667" y2="5" style="visibility: inherit;" fill="rgb(0, 0, 0)" stroke="rgb(204, 204, 204)" stroke-width="1px"></line><line x1="668.5593333333333" y1="0" x2="668.5593333333333" y2="5" style="visibility: inherit;" fill="rgb(0, 0, 0)" stroke="rgb(204, 204, 204)" stroke-width="1px"></line><line x1="752.12925" y1="0" x2="752.12925" y2="5" style="visibility: inherit;" fill="rgb(0, 0, 0)" stroke="rgb(204, 204, 204)" stroke-width="1px"></line><line x1="835.6991666666665" y1="0" x2="835.6991666666665" y2="5" style="visibility: inherit;" fill="rgb(0, 0, 0)" stroke="rgb(204, 204, 204)" stroke-width="1px"></line><line x1="919.2690833333332" y1="0" x2="919.2690833333332" y2="5" style="visibility: inherit;" fill="rgb(0, 0, 0)" stroke="rgb(204, 204, 204)" stroke-width="1px"></line><line x1="1002.8389999999999" y1="0" x2="1002.8389999999999" y2="5" style="visibility: inherit;" fill="rgb(0, 0, 0)" stroke="rgb(204, 204, 204)" stroke-width="1px"></line><line x1="1086.4089166666665" y1="0" x2="1086.4089166666665" y2="5" style="visibility: inherit;" fill="rgb(0, 0, 0)" stroke="rgb(204, 204, 204)" stroke-width="1px"></line><line x1="1169.9788333333333" y1="0" x2="1169.9788333333333" y2="5" style="visibility: inherit;" fill="rgb(0, 0, 0)" stroke="rgb(204, 204, 204)" stroke-width="1px"></line><line x1="1253.54875" y1="0" x2="1253.54875" y2="5" style="visibility: inherit;" fill="rgb(0, 0, 0)" stroke="rgb(204, 204, 204)" stroke-width="1px"></line></g><g transform="translate(0, 8)"><text x="0" y="0" dx="0em" dy="0.95em" style="text-anchor: middle; visibility: hidden; font-family: Roboto, sans-serif; font-size: 12px; font-weight: 200;" fill="rgb(255, 255, 255)" stroke="none" stroke-width="1px">-20k</text><text x="83.56991666666666" y="0" dx="0em" dy="0.95em" style="text-anchor: middle; visibility: inherit; font-family: Roboto, sans-serif; font-size: 12px; font-weight: 200;" fill="rgb(255, 255, 255)" stroke="none" stroke-width="1px">0</text><text x="167.1398333333333" y="0" dx="0em" dy="0.95em" style="text-anchor: middle; visibility: inherit; font-family: Roboto, sans-serif; font-size: 12px; font-weight: 200;" fill="rgb(255, 255, 255)" stroke="none" stroke-width="1px">20k</text><text x="250.70974999999999" y="0" dx="0em" dy="0.95em" style="text-anchor: middle; visibility: inherit; font-family: Roboto, sans-serif; font-size: 12px; font-weight: 200;" fill="rgb(255, 255, 255)" stroke="none" stroke-width="1px">40k</text><text x="334.2796666666666" y="0" dx="0em" dy="0.95em" style="text-anchor: middle; visibility: inherit; font-family: Roboto, sans-serif; font-size: 12px; font-weight: 200;" fill="rgb(255, 255, 255)" stroke="none" stroke-width="1px">60k</text><text x="417.84958333333327" y="0" dx="0em" dy="0.95em" style="text-anchor: middle; visibility: inherit; font-family: Roboto, sans-serif; font-size: 12px; font-weight: 200;" fill="rgb(255, 255, 255)" stroke="none" stroke-width="1px">80k</text><text x="501.41949999999997" y="0" dx="0em" dy="0.95em" style="text-anchor: middle; visibility: inherit; font-family: Roboto, sans-serif; font-size: 12px; font-weight: 200;" fill="rgb(255, 255, 255)" stroke="none" stroke-width="1px">100k</text><text x="584.9894166666667" y="0" dx="0em" dy="0.95em" style="text-anchor: middle; visibility: inherit; font-family: Roboto, sans-serif; font-size: 12px; font-weight: 200;" fill="rgb(255, 255, 255)" stroke="none" stroke-width="1px">120k</text><text x="668.5593333333333" y="0" dx="0em" dy="0.95em" style="text-anchor: middle; visibility: inherit; font-family: Roboto, sans-serif; font-size: 12px; font-weight: 200;" fill="rgb(255, 255, 255)" stroke="none" stroke-width="1px">140k</text><text x="752.12925" y="0" dx="0em" dy="0.95em" style="text-anchor: middle; visibility: inherit; font-family: Roboto, sans-serif; font-size: 12px; font-weight: 200;" fill="rgb(255, 255, 255)" stroke="none" stroke-width="1px">160k</text><text x="835.6991666666665" y="0" dx="0em" dy="0.95em" style="text-anchor: middle; visibility: inherit; font-family: Roboto, sans-serif; font-size: 12px; font-weight: 200;" fill="rgb(255, 255, 255)" stroke="none" stroke-width="1px">180k</text><text x="919.2690833333332" y="0" dx="0em" dy="0.95em" style="text-anchor: middle; visibility: inherit; font-family: Roboto, sans-serif; font-size: 12px; font-weight: 200;" fill="rgb(255, 255, 255)" stroke="none" stroke-width="1px">200k</text><text x="1002.8389999999999" y="0" dx="0em" dy="0.95em" style="text-anchor: middle; visibility: inherit; font-family: Roboto, sans-serif; font-size: 12px; font-weight: 200;" fill="rgb(255, 255, 255)" stroke="none" stroke-width="1px">220k</text><text x="1086.4089166666665" y="0" dx="0em" dy="0.95em" style="text-anchor: middle; visibility: inherit; font-family: Roboto, sans-serif; font-size: 12px; font-weight: 200;" fill="rgb(255, 255, 255)" stroke="none" stroke-width="1px">240k</text><text x="1169.9788333333333" y="0" dx="0em" dy="0.95em" style="text-anchor: middle; visibility: inherit; font-family: Roboto, sans-serif; font-size: 12px; font-weight: 200;" fill="rgb(255, 255, 255)" stroke="none" stroke-width="1px">260k</text><text x="1253.54875" y="0" dx="0em" dy="0.95em" style="text-anchor: middle; visibility: hidden; font-family: Roboto, sans-serif; font-size: 12px; font-weight: 200;" fill="rgb(255, 255, 255)" stroke="none" stroke-width="1px">280k</text></g><line x1="0" y1="0" x2="1253.54875" y2="0" fill="rgb(0, 0, 0)" stroke="rgb(204, 204, 204)" stroke-width="1px"></line></g></g></g></g></svg>