<svg viewBox="0 0 1284.3333740234375 400" xmlns="http://www.w3.org/2000/svg"><g><g><g><g><g><line x1="30.78125" y1="377" x2="25.78125" y2="377" style="visibility: inherit;" fill="rgb(0, 0, 0)" stroke="rgb(204, 204, 204)" stroke-width="1px"></line><line x1="30.78125" y1="329.875" x2="25.78125" y2="329.875" style="visibility: inherit;" fill="rgb(0, 0, 0)" stroke="rgb(204, 204, 204)" stroke-width="1px"></line><line x1="30.78125" y1="282.75" x2="25.78125" y2="282.75" style="visibility: inherit;" fill="rgb(0, 0, 0)" stroke="rgb(204, 204, 204)" stroke-width="1px"></line><line x1="30.78125" y1="235.625" x2="25.78125" y2="235.625" style="visibility: inherit;" fill="rgb(0, 0, 0)" stroke="rgb(204, 204, 204)" stroke-width="1px"></line><line x1="30.78125" y1="188.5" x2="25.78125" y2="188.5" style="visibility: inherit;" fill="rgb(0, 0, 0)" stroke="rgb(204, 204, 204)" stroke-width="1px"></line><line x1="30.78125" y1="141.375" x2="25.78125" y2="141.375" style="visibility: inherit;" fill="rgb(0, 0, 0)" stroke="rgb(204, 204, 204)" stroke-width="1px"></line><line x1="30.78125" y1="94.25" x2="25.78125" y2="94.25" style="visibility: inherit;" fill="rgb(0, 0, 0)" stroke="rgb(204, 204, 204)" stroke-width="1px"></line><line x1="30.78125" y1="47.125" x2="25.78125" y2="47.125" style="visibility: inherit;" fill="rgb(0, 0, 0)" stroke="rgb(204, 204, 204)" stroke-width="1px"></line><line x1="30.78125" y1="0" x2="25.78125" y2="0" style="visibility: inherit;" fill="rgb(0, 0, 0)" stroke="rgb(204, 204, 204)" stroke-width="1px"></line></g><g transform="translate(20.78125, 0)"><text x="0" y="377" dx="0em" dy="0.3em" style="text-anchor: end; visibility: hidden; font-family: Roboto, sans-serif; font-size: 12px; font-weight: 200;" fill="rgb(255, 255, 255)" stroke="none" stroke-width="1px">83</text><text x="0" y="329.875" dx="0em" dy="0.3em" style="text-anchor: end; visibility: inherit; font-family: Roboto, sans-serif; font-size: 12px; font-weight: 200;" fill="rgb(255, 255, 255)" stroke="none" stroke-width="1px">84</text><text x="0" y="282.75" dx="0em" dy="0.3em" style="text-anchor: end; visibility: inherit; font-family: Roboto, sans-serif; font-size: 12px; font-weight: 200;" fill="rgb(255, 255, 255)" stroke="none" stroke-width="1px">85</text><text x="0" y="235.625" dx="0em" dy="0.3em" style="text-anchor: end; visibility: inherit; font-family: Roboto, sans-serif; font-size: 12px; font-weight: 200;" fill="rgb(255, 255, 255)" stroke="none" stroke-width="1px">86</text><text x="0" y="188.5" dx="0em" dy="0.3em" style="text-anchor: end; visibility: inherit; font-family: Roboto, sans-serif; font-size: 12px; font-weight: 200;" fill="rgb(255, 255, 255)" stroke="none" stroke-width="1px">87</text><text x="0" y="141.375" dx="0em" dy="0.3em" style="text-anchor: end; visibility: inherit; font-family: Roboto, sans-serif; font-size: 12px; font-weight: 200;" fill="rgb(255, 255, 255)" stroke="none" stroke-width="1px">88</text><text x="0" y="94.25" dx="0em" dy="0.3em" style="text-anchor: end; visibility: inherit; font-family: Roboto, sans-serif; font-size: 12px; font-weight: 200;" fill="rgb(255, 255, 255)" stroke="none" stroke-width="1px">89</text><text x="0" y="47.125" dx="0em" dy="0.3em" style="text-anchor: end; visibility: inherit; font-family: Roboto, sans-serif; font-size: 12px; font-weight: 200;" fill="rgb(255, 255, 255)" stroke="none" stroke-width="1px">90</text><text x="0" y="0" dx="0em" dy="0.3em" style="text-anchor: end; visibility: hidden; font-family: Roboto, sans-serif; font-size: 12px; font-weight: 200;" fill="rgb(255, 255, 255)" stroke="none" stroke-width="1px">91</text></g><line x1="30.78125" y1="0" x2="30.78125" y2="377" fill="rgb(0, 0, 0)" stroke="rgb(204, 204, 204)" stroke-width="1px"></line></g></g><g transform="translate(30, 0)" clip-path="url(#clip_0)"><clipPath id="clip_0"><rect width="1253" height="377"></rect></clipPath><g><g><g><line x1="0" y1="0" x2="0" y2="377" fill="rgb(0, 0, 0)" stroke="rgb(189, 189, 189)" stroke-width="1px" opacity="0.25"></line><line x1="83.56991666666666" y1="0" x2="83.56991666666666" y2="377" fill="rgb(0, 0, 0)" stroke="rgb(189, 189, 189)" stroke-width="1px" opacity="0.25"></line><line x1="167.1398333333333" y1="0" x2="167.1398333333333" y2="377" fill="rgb(0, 0, 0)" stroke="rgb(189, 189, 189)" stroke-width="1px" opacity="0.25"></line><line x1="250.70974999999999" y1="0" x2="250.70974999999999" y2="377" fill="rgb(0, 0, 0)" stroke="rgb(189, 189, 189)" stroke-width="1px" opacity="0.25"></line><line x1="334.2796666666666" y1="0" x2="334.2796666666666" y2="377" fill="rgb(0, 0, 0)" stroke="rgb(189, 189, 189)" stroke-width="1px" opacity="0.25"></line><line x1="417.84958333333327" y1="0" x2="417.84958333333327" y2="377" fill="rgb(0, 0, 0)" stroke="rgb(189, 189, 189)" stroke-width="1px" opacity="0.25"></line><line x1="501.41949999999997" y1="0" x2="501.41949999999997" y2="377" fill="rgb(0, 0, 0)" stroke="rgb(189, 189, 189)" stroke-width="1px" opacity="0.25"></line><line x1="584.9894166666667" y1="0" x2="584.9894166666667" y2="377" fill="rgb(0, 0, 0)" stroke="rgb(189, 189, 189)" stroke-width="1px" opacity="0.25"></line><line x1="668.5593333333333" y1="0" x2="668.5593333333333" y2="377" fill="rgb(0, 0, 0)" stroke="rgb(189, 189, 189)" stroke-width="1px" opacity="0.25"></line><line x1="752.12925" y1="0" x2="752.12925" y2="377" fill="rgb(0, 0, 0)" stroke="rgb(189, 189, 189)" stroke-width="1px" opacity="0.25"></line><line x1="835.6991666666665" y1="0" x2="835.6991666666665" y2="377" fill="rgb(0, 0, 0)" stroke="rgb(189, 189, 189)" stroke-width="1px" opacity="0.25"></line><line x1="919.2690833333332" y1="0" x2="919.2690833333332" y2="377" fill="rgb(0, 0, 0)" stroke="rgb(189, 189, 189)" stroke-width="1px" opacity="0.25"></line><line x1="1002.8389999999999" y1="0" x2="1002.8389999999999" y2="377" fill="rgb(0, 0, 0)" stroke="rgb(189, 189, 189)" stroke-width="1px" opacity="0.25"></line><line x1="1086.4089166666665" y1="0" x2="1086.4089166666665" y2="377" fill="rgb(0, 0, 0)" stroke="rgb(189, 189, 189)" stroke-width="1px" opacity="0.25"></line><line x1="1169.9788333333333" y1="0" x2="1169.9788333333333" y2="377" fill="rgb(0, 0, 0)" stroke="rgb(189, 189, 189)" stroke-width="1px" opacity="0.25"></line><line x1="1253.54875" y1="0" x2="1253.54875" y2="377" fill="rgb(0, 0, 0)" stroke="rgb(189, 189, 189)" stroke-width="1px" opacity="0.25"></line></g><g><line x1="0" y1="377" x2="1253.54875" y2="377" fill="rgb(0, 0, 0)" stroke="rgb(189, 189, 189)" stroke-width="1px" opacity="0.25"></line><line x1="0" y1="329.875" x2="1253.54875" y2="329.875" fill="rgb(0, 0, 0)" stroke="rgb(189, 189, 189)" stroke-width="1px" opacity="0.25"></line><line x1="0" y1="282.75" x2="1253.54875" y2="282.75" fill="rgb(0, 0, 0)" stroke="rgb(189, 189, 189)" stroke-width="1px" opacity="0.25"></line><line x1="0" y1="235.625" x2="1253.54875" y2="235.625" fill="rgb(0, 0, 0)" stroke="rgb(189, 189, 189)" stroke-width="1px" opacity="0.25"></line><line x1="0" y1="188.5" x2="1253.54875" y2="188.5" fill="rgb(0, 0, 0)" stroke="rgb(189, 189, 189)" stroke-width="1px" opacity="0.25"></line><line x1="0" y1="141.375" x2="1253.54875" y2="141.375" fill="rgb(0, 0, 0)" stroke="rgb(189, 189, 189)" stroke-width="1px" opacity="0.25"></line><line x1="0" y1="94.25" x2="1253.54875" y2="94.25" fill="rgb(0, 0, 0)" stroke="rgb(189, 189, 189)" stroke-width="1px" opacity="0.25"></line><line x1="0" y1="47.125" x2="1253.54875" y2="47.125" fill="rgb(0, 0, 0)" stroke="rgb(189, 189, 189)" stroke-width="1px" opacity="0.25"></line><line x1="0" y1="0" x2="1253.54875" y2="0" fill="rgb(0, 0, 0)" stroke="rgb(189, 189, 189)" stroke-width="1px" opacity="0.25"></line></g></g></g><g><g><line x1="0" y1="4288.375" x2="1253.54875" y2="4288.375" fill="rgb(0, 0, 0)" stroke="rgb(153, 153, 153)" stroke-width="1.5px"></line></g></g><g><g><line x1="83.56991666666666" y1="0" x2="83.56991666666666" y2="377" fill="rgb(0, 0, 0)" stroke="rgb(153, 153, 153)" stroke-width="1.5px"></line></g></g><g><g><g><g><g><path stroke="rgb(255, 112, 67)" stroke-width="2px" d="M85.241315,-144.4824628829956L85.65916458333332,31.54111519981695L88.56739768333333,43.28585504070263L90.23879601666667,55.16983213360652L90.65664559999999,34.21801564831978L92.31132994999999,47.14465391587904L92.72917953333334,64.24989700208657L93.14702911666666,81.36131229589368L93.98272828333333,38.862212028933136L94.40057786666665,59.607223923824655L95.65412661666666,53.76884223818057L96.4731118,57.56566958844867L98.9802093,101.0715189944649L101.47059281666667,52.265686315008324L102.30629198333332,56.1859225687335L105.63237466666666,141.30547391696672L106.05022424999999,110.03150472403419L106.46807383333332,94.5971754198271L107.30377299999999,53.97603293436418L108.95845734999999,23.40668855666456L110.2120061,24.929383574146676L111.46555484999999,-7.991078215424787L111.88340443333333,96.59327722364817L112.30125401666665,137.47200976015333L113.1202392,121.38920764051186L113.95593836666666,122.4871001477254L114.37378795,67.30138447588865L114.79163753333333,36.44332627335699L115.20948711666665,97.96818339998255L116.04518628333332,5.246709837796331L116.46303586666666,-25.853437050624386L119.37126896666666,54.327211119622355L120.20696813333332,39.31484538137235L120.62481771666666,87.82107397997125L121.86165248333333,58.25219752806527L123.11520123333332,57.28739958760337L124.78659956666667,111.11527355806277L129.7673666,103.86212175209654L130.18521618333332,47.34757216019734L131.43876493333335,-55.13168491187338L132.6923136833333,22.744383570453664L133.11016326666666,38.69766544485473L134.3469980333333,57.370331425569304L137.27194511666667,38.491489053047644L139.7623286333333,7.184522747905033L141.43372696666665,4.016462839703605L142.25271214999998,-140.80428684737916L143.08841131666665,3.393390207230084L143.92411048333332,71.2352854715752L144.34196006666664,74.58785147883766L146.83234358333334,51.56271444572597L147.25019316666666,37.4642684684483L150.57627585,83.67087806738137L151.41197501666664,130.89832121096444L151.8298246,104.09373098232055L153.08337335,5.680451891533956L156.40945603333333,41.6688380448566L157.66300478333332,68.71860656224553L158.89983955,67.16004497055377L159.73553871666664,67.1775348859214L162.24263621666665,167.08138877070576L163.06162139999998,130.05243121001834L163.4794709833333,158.3638059435904L164.73301973333332,170.2632927210775L165.15086931666667,165.35833425461604L165.5687189,149.24682463507455L167.64125283333334,135.80238845004527L168.89480158333333,109.86111220281583L169.31265116666665,182.8333946361491L169.73050074999998,106.15692799438699L171.80303468333332,78.36885838485406L172.22088426666664,-31.89318882559165L173.89228260000002,-48.09844929636971L175.9648165333333,24.76702747498622L177.2183652833333,68.10354358787878L177.63621486666668,101.17002651680394L178.05406445,139.995392043546L178.47191403333332,121.66041168709393L179.70874879999997,166.8552330891256L180.54444796666667,174.85774032990085L181.38014713333334,187.91719059650381L182.21584629999998,228.65645049366913L183.05154546666665,70.18027712152325L183.87053065,96.16181353005072L185.1240794,58.8696208466136L185.54192898333332,-78.90446721630468L185.95977856666664,79.33673416990362L186.37762815,133.34265838457114L187.21332731666664,204.77201294973622L189.7037108333333,163.90639874987409L193.4476431,108.8068939045748L194.28334226666664,107.82880469133218L195.11904143333334,46.32804116784326L196.7737257833333,107.89686190312314L197.19157536666668,175.55175915417743L197.60942495,127.11706207732735L200.93550763333334,61.68480733810144L201.35335721666667,138.10227124934158L203.02475554999998,129.87268974712788L203.44260513333333,178.73570086193007L203.86045471666665,200.79114960374784L205.09728948333333,195.93092893679614L208.84122175,228.97119218690958L209.2590713333333,128.6120804529257L210.5126200833333,134.67722941503996L211.34831924999997,112.2916287019477L212.18401841666667,86.76562547725844L213.42085318333332,130.5052208426562L214.25655234999996,89.1167343284765L214.67440193333334,18.584176512386207L215.51010109999999,97.54841664262386L216.34580026666666,70.66502148687297L217.16478544999998,127.29985609000528L218.00048461666663,58.0152083679232L220.08973253333332,86.98529585907178L220.50758211666664,97.76076270437733L221.3265673,42.93224693246192L221.74441688333334,26.95201304589921L225.48834915,-10.976991346233188L226.32404831666665,8.546963906757728L226.7418979,27.307016332478614L227.99544664999996,87.98895175027016L230.0679805833333,79.56032633718843L230.90367974999998,102.46261885122355L231.3215293333333,61.84833556859798L232.57507808333332,96.35400631144049L233.81191284999997,62.847227731149474L235.90116076666666,110.94588734225468L236.73685993333333,150.05673030477004L237.15470951666666,140.88814079784268L239.64509303333332,179.72691124693566L240.06294261666665,79.82216232430122L240.89864178333332,40.6635066766321L242.55332613333331,142.31343843829077L243.3890253,129.88378717108557L243.8068748833333,181.3625393025359L245.47827321666668,134.63086109942202L246.71510798333333,131.31230827878122L247.13295756666665,8.35353505707942L247.55080714999997,32.60325847931716L249.22220548333334,7.158769659277301L251.29473941666663,-26.074491846110604L252.1304385833333,-12.689015300172901L252.54828816666665,21.923206009697083L252.96613775,44.972952809692764L253.38398733333332,31.58881967140543L256.71007001666663,-21.29587924667913L258.78260395,-33.82045647593788L262.12540061666664,36.28925163383527L264.19793455,-17.33651778713176L264.6157841333333,32.50900408495761L265.03363371666666,92.92876866070954L265.4514833,107.028930729886L265.8693328833333,131.06480364638813L267.5240172333333,37.67507694608728L269.61326514999996,128.42256254069784L270.44896431666666,58.020084530899645L272.52149825,116.7513220881949L272.93934783333333,93.65994197556095L274.6107461666666,102.08861620128276L275.42973135,97.23563697368012L275.8475809333333,150.4420503546903L277.1011296833333,108.2169246434246L278.35467843333333,56.95725162738087L278.7725280166667,107.28292938013361L280.42721236666665,45.244942636863925L280.84506194999994,68.97999790122506L282.51646028333334,81.47135076092984L285.0068438,30.723292986721663L285.4246933833333,57.24450117758844L285.84254296666666,51.423798891786205L286.6782421333333,66.15846409104091L287.09609171666665,17.130219697865606L287.9150769,30.348590540825327L288.7507760666667,65.28024632688116L289.16862564999997,49.82712421485793L289.5864752333333,72.84288579988772L290.00432481666667,74.37483775553915L292.07685875,99.31685506062159L292.91255791666663,109.63794710963522L293.3304075,149.1124812315968L293.7482570833333,263.4335935439414L294.58395624999997,222.27993941188055L296.6564901833333,209.49517633831653L297.07433976666664,165.54681455315452L298.7457381,75.13833382780257L299.16358768333333,62.48462741115112L300.40042244999995,44.38230387744201L301.23612161666665,26.120911473669523L302.90751995,97.6620323263075L303.32536953333334,193.95443110085762L304.9800538833333,199.1812695333568L305.39790346666666,100.66428233866316L305.81575305,138.1441586134737L306.2336026333333,91.47582167014829L307.0693018,41.496149376409576L307.4871513833333,55.87611010547876L309.1418357333333,99.60169775102025L309.5596853166667,128.41243636577772L309.97753489999997,207.20109196880077L310.81323406666667,134.70286850795193L312.06678281666666,157.59202998544285L314.13931675,180.8429345167269L315.8107150833333,192.96086648241806L316.2285646666666,131.29328019415647L317.8832490166667,172.5049663553312L319.1367977666667,228.18238365240614L319.55464735,66.39149921845818L319.97249693333333,118.84622362055379L320.3903465166667,114.23214640178911L321.2093317,136.4869395273036L321.6271812833333,178.3711922371366L322.8807300333333,114.8885567568523L323.29857961666664,163.1117819813834L323.7164292,218.06717084125296L324.1342787833333,165.62944079630486L325.7889631333333,206.1034122073156L328.71391021666665,98.30404929264894L330.3685945666666,128.79398694397162L330.78644414999997,110.226700551637L331.6221433166666,199.70900166544297L332.03999289999996,163.3406446373369L332.45784248333337,164.743419126385L333.69467725,137.26937124033725L334.5303764166666,138.24392028083392L335.3660755833333,152.12349192302446L336.20177474999997,31.652784220384422L336.6196243333333,165.69973059336834L338.2743086833333,159.44100865809492L339.11000784999993,99.60037361742901L340.3635566,23.215208107365036L340.78140618333333,0.6459184069363975L343.6896392833333,5.724690892820499L344.10748886666664,68.74325335916618L344.52533844999994,58.90795177844886L346.5978723833333,147.6656846149705L347.8514211333333,115.33558973081483L348.6871203,94.4165940630964L350.34180465,60.491387439168435L352.0132029833334,105.6465818908588L353.68460131666666,98.66907155699992L354.5035865,145.08459345232637L354.92143608333333,102.97617966147085L355.75713525,127.44362372903282L356.5928344166666,165.03845542593544L357.01068399999997,135.7947818810402L357.4285335833333,150.06102899931523L358.66536834999994,168.75336750105893L359.5010675166667,90.75914102225587L359.9189171,53.493355216586465L360.33676668333334,23.592600543700637L360.7546162666667,53.78603868045657L362.0081650166667,137.72768173864273L362.82715019999995,125.70570890879206L364.91639811666664,108.33876390201755L365.7520972833333,118.36784991085591L367.4067816333333,29.615686332404977L367.82463121666666,35.91817945306976L368.6603303833333,33.35382686302896L369.49602955,-11.385256815233708L370.33172871666665,2.2275659225435263L371.56856348333326,7.248401656492138L371.9864130666666,61.701540766478224L373.23996181666666,160.67205111267626L374.0756609833333,233.6563109085733L374.49351056666666,167.43398485859677L376.5660445,98.94429004188702L378.2374428333333,149.25740910766L379.89212718333334,120.27658186791558L380.3099767666667,129.15603892909255L380.72782635,152.46658770873876L381.14567593333334,168.11318699960216L381.5635255166667,213.7999285887777L384.0539090333333,221.72127003091305L384.88960819999994,205.12254286837953L385.3074577833333,170.94342590096278L385.72530736666664,157.21949627901964L386.14315694999993,151.27288596266578L386.5610065333333,125.56500298484029L388.2156908833333,114.04866905105833L389.05139005,170.84551891252298L392.37747273333326,194.4188360094568L393.63102148333326,238.1252890312349L396.121405,270.92134814248254L396.53925458333333,202.629845700165L396.9571041666666,164.8741921037935L398.2106529166666,112.75845670852634L399.0463520833333,98.02903494941665L399.4642016666666,86.73787931993813L400.28318685,237.26182573513853L401.5367356,220.8527158045137L403.6259835166666,199.59643671913494L404.8628182833333,180.61542764705888L405.69851744999994,216.12268377524333L406.1163670333333,192.73054579126054L406.95206619999993,187.84330725529853L408.60675055,220.84276230237236L409.0246001333333,219.10619137457007L409.86029929999995,232.62941437601728L411.5316976333333,191.84710041630007L411.94954721666664,156.3408562815526L413.18638198333326,161.59274206294998L414.4399307333333,91.4914647779269L415.2756299,122.12661611527054L416.93031425,99.49799292924888L417.34816383333333,134.58496971478118L418.183863,129.8036810327078L419.0195621666666,117.0548970697278L419.43741174999997,118.77820398793307L420.2731109166666,141.80255395640876L421.0920961,205.84884326188754L421.92779526666664,65.4026813225976L422.34564485,156.27628925263159L422.76349443333334,175.0426276164599L425.25387794999995,82.51335392655353L426.9252762833333,87.27226345522193L427.3431258666667,34.448269793868775L427.76097544999993,70.02765852276116L432.75845646666664,17.191649669851472L433.57744165,121.36475159735646L434.41314081666667,110.95694898573375L436.92023831666666,176.52331725861083L437.7392235,156.86330999606704L438.99277225,302.8559609410338L439.41062183333327,235.1550023744521L440.66417058333326,218.07724889646101L442.31885493333334,238.85990518302816L442.73670451666663,200.89649558643276L443.57240368333333,85.84980385706645L443.9902532666666,102.90914330526289L444.40810285,93.82844104320645L444.8259524333333,71.21693084404443L445.2438020166666,135.92264111872396L448.1520351166666,96.54393742904203L449.40558386666663,131.99271279670373L453.1495161333333,127.92276694246414L455.63989965,77.59563340055769L456.0577492333333,127.37500288203833L456.47559881666666,117.47244884054709L456.8934484,140.39225889282014L458.54813275,153.18628710037078L461.89092941666667,137.75030291346624L462.7099146,172.04150842614493L463.54561376666663,200.04611636888245L464.38131293333333,166.66909519417936L466.0527112666666,70.7461917053529L466.87169644999994,104.01122665361642L468.54309478333334,131.73089895217865L468.96094436666664,142.7110830018769L469.79664353333334,65.79408101925192L470.21449311666663,83.54635554236421L471.03347829999996,114.58849479335144L471.86917746666666,167.88317094946257L472.28702704999995,160.9488155394099L473.54057579999994,173.42677311147352L474.37627496666664,186.71575577687776L476.8666584833333,247.75854104103706L477.28450806666666,241.12394585747995L478.53805681666665,181.13593392945947L480.1927411666666,200.0685029403803L481.4462899166666,156.7320400022971L482.28198908333326,99.46545858785052L483.93667343333334,136.76211976332655L484.35452301666663,95.67631773478031L486.02592135,25.578371125741555L486.44377093333327,-27.210518114965467L492.67808671666666,-20.113132925074147L493.09593629999995,2.32510459038755L493.5137858833333,49.929691514662885L495.1851842166667,99.63196062734146L496.4220189833333,80.7595741488862L497.6755677333333,174.89130664436362L498.51126689999995,45.8033285418933L498.9291164833333,180.49184238472102L500.58380083333327,188.99757975032875L501.0016504166666,145.335196618077L501.83734958333326,160.34542159108864L503.0908983333333,150.23913073845685L503.50874791666666,164.04426748966753L504.7455826833333,189.89794977099632L505.16343226666663,183.5119340947636L506.4169810166666,82.89923759817643L508.48951494999994,49.43675439321717L508.90736453333335,115.24638530944405L509.7430637,59.22817144924606L510.57876286666664,55.14107768430243L512.6512968,51.314975711561615L513.0691463833333,111.64992511769152L513.90484555,104.94977704634275L514.3226951333334,131.10844220285645L514.7405447166666,18.871874927436387L515.1583942999999,-14.42647658659158L515.9940934666666,33.23078119346317L518.0666273999999,102.66741631937157L518.9023265666667,48.321985067511655L519.32017615,159.16109206190694L520.9748605,230.94006766217592L522.6462588333333,207.3547937128576L523.8998075833333,220.84597885186858L525.5544919333332,191.255932793049L525.9723415166667,128.22380780132596L527.64373985,117.63387569652375L528.4794390166667,146.00517577138015L529.2984242,128.12704699779096L530.1341233666666,133.53587055485605L530.9698225333333,161.84209718899726L531.3876721166666,125.36877272742734L532.6412208666666,112.47654663277098L535.1316043833333,101.2361009153392L535.96730355,188.5165550493069L536.3851531333333,130.30592885891676L537.6219878999999,179.94014326230774L538.0398374833333,191.93856521891828L539.7112358166667,87.18644254121284L541.7837697499999,45.929599210611215L542.6194689166666,100.98441991358399L543.4551680833333,96.42883135482238L544.2908672499999,207.53889740629234L545.1265664166666,237.9008706290149L545.9455516,172.42238495300586L547.19910035,157.6659567901021L547.6169499333333,93.72673608302732L548.0347995166667,13.549597750184684L548.8704986833333,25.74664011702381L551.3608822,136.7439092971267L552.1965813666666,159.56664085826904L553.0322805333333,136.05091705629343L553.4501301166666,116.17666280961441L554.2691153,108.44412447698373L556.3583632166666,126.39124954920233L558.43089715,119.93906662093463L559.2665963166667,4.513618092326084L559.6844458999999,26.020471595139465L562.592679,1.0381822741903992L563.0105285833333,28.144128238142663L563.4283781666667,-10.356613933556016L563.8462277499999,68.2540602031757L564.2640773333333,110.87638063633322L565.9354756666667,161.80316771649026L567.5901600166667,118.04324481395787L570.0972575166667,138.90112822707044L570.9162427,98.72131490924805L572.1697914499999,218.2765135303453L573.0054906166666,144.59475432979286L573.4233402,166.16499879959335L573.8411897833332,179.88905558290298L575.07802455,106.21340927393786L576.3315733,71.44534863470076L577.1672724666666,66.36836731241792L578.0029716333333,120.54868153199223L578.4208212166666,147.21706285501745L579.2398063999999,109.98985913294189L579.6576559833333,150.923445006493L580.0755055666666,120.64474667529116L580.49335515,109.39235260281849L581.7469039,30.146605840680223L582.1647534833334,103.17966046924445L583.4015882499999,31.266791304911678L583.8194378333333,92.27019498018032L584.2372874166666,99.69893692023864L585.4908361666667,107.75833200078299L585.9086857499999,123.12299920581556L586.3265353333333,87.16741486612887L588.3990692666666,109.96970791575112L591.7251519499999,145.17892304728161L592.5608511166666,133.69995812345357L593.3965502833332,92.16577978370795L593.8143998666666,78.26287488149364L594.23224945,89.7507897417216L595.8869338,21.832497857046647L596.7226329666667,45.678502932610876L597.5583321333334,60.01168806433301L597.9761817166666,206.71654985105755L598.8118808833333,140.48887480128823L601.3022644,176.85877148489476L602.1379635666666,106.2608549289523L602.55581315,198.19099536188756L604.2104975,174.77864828759226L604.6283470833333,169.02915576435754L605.4640462499999,182.1147560351726L605.8818958333333,148.56588325217794L606.717595,223.72436572830665L607.1354445833333,88.19584537749037L608.37227935,167.56373027208593L608.7901289333333,136.41224920620715L609.2079785166667,112.23759444861747L610.4615272666666,99.72564676817645L611.7150760166667,191.03298125258578L613.7876099499999,92.07445539945356L614.6233091166666,22.180592538314862L615.4590082833333,-10.148390578251618L615.8768578666667,61.87036937781691L616.69584305,69.16375962114265L617.1136926333334,67.05638893694808L620.0386397166666,133.61730104462117L621.2754744833334,181.83280958377415L622.11117365,186.6373414034664L623.3647224,179.43427699054408L626.2729555,169.03254041742898L626.6908050833333,205.85982434322574L627.52650425,172.3172301477105L627.9443538333333,85.80650429111117L628.3622034166666,-12.725688714514156L630.43473735,91.6915176976614L631.2704365166666,84.21118068975404L632.1061356833333,58.32956972318441L633.3429704499999,52.99510548728988L633.7608200333333,66.27253314209806L634.1786696166665,-4.483495999903033L635.4322183666666,20.58278759849934L635.85006795,64.48599382612103L636.2679175333333,105.04099199633933L637.5047523,67.15985160492667L637.9226018833333,135.86904763178012L639.1761506333332,115.51361078517793L640.8475489666667,173.9938897703886L641.66653415,113.89180848304018L642.0843837333332,109.44146955522422L642.9200829,99.85912853835814L644.5914812333333,171.23250798832544L645.0093308166666,202.43142042871128L647.0818647499999,172.8409080269044L649.1711126666667,109.3072285486737L650.4079474333333,120.97324346338054L652.0793457666666,149.81643211030985L653.3328945166667,101.43797710566511L654.1518796999999,17.462010762295993L656.2411276166666,84.19347751422893L657.0768267833333,121.29059773881144L658.3136615499999,88.77377907772112L658.7315111333334,168.61533939279605L659.1493607166666,149.04226797427972L659.9850598833333,157.40043719137094L661.2386086333333,173.4019134329464L661.6564582166666,207.93512854185656L662.4754433999999,197.7218916341154L662.8932929833334,168.36284110020986L663.72899215,173.237476757665L664.5646913166667,169.42274026875668L664.9825408999999,69.77056828502346L666.63722525,144.9496330137494L667.0550748333333,137.69338118640695L669.5621723333334,19.523388776438036L671.6347062666666,80.70106624293277L673.7239541833333,156.7270796448945L674.1418037666666,177.08826435662L674.96078895,146.2785674287845L676.6321872833333,186.66559389509553L677.8857360333333,217.11853165521657L680.37611955,254.94925633833896L681.6296682999999,123.10666226383312L684.1200518166667,164.99193796441335L684.5379014,169.63313364036657L685.79145015,136.00109969907462L687.8639840833332,128.96091097129823L689.5353824166667,210.79603321823885L692.0257659333332,196.88024180364L694.11501385,160.46818227829527L694.9507130166667,189.74324606938526L696.6053973666667,140.47351865131012L697.0232469499999,157.4895315221034L697.8589461166666,148.0721766507385L701.1850287999999,89.15514230023096L705.34681065,141.9129457901237L705.7646602333333,149.13030331743005L706.6003593999999,222.8801418800016L707.0182089833334,213.77251973760167L708.6728933333333,210.4962339968323L709.0907429166666,222.3166046539534L709.9264420833333,289.26507008470253L711.5978404166666,167.3983993438679L712.8346751833333,183.64007901504212L714.5060735166666,135.5026888325633L714.9239231,145.6615429036196L715.3417726833333,216.1503145296041L715.7596222666666,102.57316965650213L716.57860745,146.71750007821618L718.2500057833333,169.94845872250653L719.5035545333333,152.9012771963004L719.9214041166666,111.48715328805143L721.99393805,62.82080294830321L724.0831859666665,51.028535166381964L724.90217115,133.34511146873191L726.5735694833332,183.44991209259618L727.8271182333333,223.25123254364382L729.8996521666667,267.7706818494599L738.6410654499999,202.89945568436207L739.0589150333333,235.35209002550093L740.7303133666667,209.80521412411312L745.7110803999999,214.89616207483735L746.1289299833334,267.5395107561577L747.8003283166667,266.633371850447L748.6360274833334,117.14588591100471L749.0538770666666,93.39316656638398L749.8728622499999,83.63978540216351L750.2907118333334,73.48330224275739L751.5442605833333,81.93114051127512L752.7978093333334,154.25524016850022L754.0346441,146.92399025006102L754.8703432666666,161.3259872439517L755.2881928499999,110.31742609045001L756.1238920166666,256.97150656333366L756.5417415999999,283.5047196639137L757.3774407666666,276.72663731423876L758.19642595,275.85708619488804L758.6142755333333,215.49030362102863L759.0321251166666,214.84691689186707L759.4499747,140.43159504772635L760.2856738666666,155.026095625053L763.61175655,210.89746606091987L764.8653053,172.6087331396169L765.2831548833333,165.32150857203018L766.51998965,140.16863300390014L769.4449367333333,82.01812797974412L771.5174706666667,-5.668483357294349L772.3531698333333,41.61630942974041L772.7710194166667,23.749497979754924L774.0245681666667,12.363185515913077L774.84355335,106.47146637999889L776.5149516833333,147.6428791347618L776.9328012666667,88.95052208149812L777.35065085,113.1532250876334L778.1863500166667,143.83989687408751L781.5124327,158.28331240963945L781.9302822833332,192.46677924659278L782.3481318666667,241.5789222342425L783.5849666333332,205.0608885502675L784.4206657999999,193.34551219057033L784.8385153833332,217.28385348655476L788.1645980666666,162.54466959711291L790.2538459833333,242.47272913667996L793.1620790833333,262.95695409684737L794.4156278333334,283.1432485288042L794.8334774166666,276.45095680097387L796.4881617666666,256.0691888189091L799.81424445,214.88815156410578L801.0677932,211.71498230947367L801.4856427833333,261.98281355199515L801.9034923666666,185.07285937515996L806.0652742166666,173.73964148952243L807.3188229666666,218.37115680710065L808.13780815,248.9248514023913L808.9735073166665,269.12651070487976L809.8092064833332,270.12701956006634L810.2270560666666,269.2299607882993L810.6449056499999,296.52927718590394L811.0627552333333,293.2695960503968L812.7174395833333,298.64850803728L813.55313875,266.0906224962131L814.3888379166666,258.93222646924266L814.8066875,214.78640824465597L815.2245370833333,191.50953814323796L816.8792214333332,240.43426697507715L818.96846935,209.0466974729167L821.4588528666667,178.45701608138322L821.8767024499999,163.34642407053622L822.2945520333333,163.67338922150697L823.9659503666667,152.2999195513072L824.7849355499999,143.23971520462257L825.2027851333332,169.56336004951658L828.9467173999999,279.6554284850094L829.7824165666666,228.56836596047222L830.20026615,165.93935540557672L831.0359653166666,207.14516217577994L833.9441984166666,194.4628014579215L834.7798975833333,260.3952954779422L835.6155967499999,320.183126779323L836.0334463333334,388.57553438380154L838.1059802666666,370.3501374048426L839.7773785999999,352.09740302619383L840.6130777666666,305.1836986855663L842.2677621166666,248.59871008209342L842.6856116999999,306.9067649041448L844.7748596166666,351.8948813832189L845.5938448,327.2178500165016L846.4295439666666,294.0676078884433L847.2652431333333,337.7336158814074L847.6830927166666,332.790829090618L848.1009423,291.13917797390604L848.5187918833333,278.0559721738973L849.75562665,211.68751359439068L850.5913258166665,216.17483403999918L852.26272415,199.75015968783214L853.0984233166665,198.15966483247763L854.3352580833333,266.21665172382933L855.5888068333333,256.04187742097474L856.0066564166666,250.04452110386228L858.07919035,232.54209454794176L859.3327391,257.04485429085935L860.1684382666665,176.67799977591005L860.58628785,292.7959752131626L861.4219870166665,274.47461123808097L863.0766713666667,260.1598863291814L863.4945209499999,207.45947683072632L863.9123705333333,235.68774134071234L864.3302201166666,257.34468597875116L866.8206036333332,279.52098485126334L867.2384532166667,158.3143014411724L867.6563027999999,152.7919006000376L869.3277011333332,170.16784827662428L869.7455507166667,207.2173562738011L870.9823854833332,223.91634311724698L871.81808465,210.56968668018092L873.0716333999999,232.72026285767527L873.9073325666667,159.78496431577145L874.7263177499999,115.5968746372812L875.1441673333334,139.49235505462943L875.5620169166666,212.99052122653433L878.0691144166666,213.92576193804206L880.1416483499999,208.1726499795544L880.5594979333333,184.9951518416144L880.9773475166667,201.80374053595602L881.3951970999999,225.77007687126283L883.8855806166666,353.8206486585166L887.6295128833333,270.1527037061944L888.0473624666666,194.97634097003774L889.7187607999999,219.1359111750588L890.5544599666666,260.3494585393988L892.2091443166665,282.08284090632037L892.6269939,357.7744903472233L893.0448434833332,392.4441367084796L893.4626930666666,320.01049944425733L894.2983922333333,325.2034261948428L894.7162418166666,284.58436363027414L896.3709261666665,265.49325482805716L898.4601740833333,293.3293023321241L898.8780236666665,319.69582392267847L900.1148584333332,333.96254538143376L901.3684071833333,322.11093749057505L904.6944898666667,290.22570636089495L905.1123394499999,230.80308875194314L905.5301890333333,315.0988722932915L906.7837377833332,306.33971631972054L908.8562717166667,358.94313074661966L909.2741212999999,294.00177410701474L909.6919708833333,334.9275960924393L910.9455196333332,346.6040272714214L911.3633692166667,370.17764487277094L912.6002039833332,404.93490143306514L913.43590315,297.8898418841881L914.2716023166666,342.5215209870227L916.3441362499999,454.6832810147682L917.1798354166666,332.22207913526455L919.6869329166666,308.71094674676624L920.9237676833334,311.5830616828499L922.5951660166667,153.01116413212654L925.0855495333333,119.24202061529742L926.7569478666666,168.31879091844033L928.0104966166666,190.2113990347536L928.8294817999999,204.57065693663253L929.6651809666666,255.86844903716093L930.0830305499999,259.1399143908625L930.9187297166666,299.307981978053L931.3365792999999,279.2148688864068L931.7544288833333,268.34462752361605L932.9912636500001,217.23378258241868L933.4091132333333,362.85037304267814L933.8269628166665,359.9264165253825L937.1530455,395.00795001427025L937.5708950833333,353.9223778113499L937.9887446666665,302.69177786363616L938.40659425,314.01245209274106L939.660143,278.0718658217609L943.82192485,304.57305740656244L945.8944587833332,311.153310270501L946.3123083666666,328.47117846406945L946.7301579499999,243.8167648319227L947.1480075333333,234.97658643749145L948.8194058666666,306.8396023466068L949.63839105,362.3043022242894L950.4740902166667,315.300733858486L950.8919397999999,288.78271857688634L951.7276389666666,293.2186768914545L952.9811877166667,293.89536708649973L954.6358720666667,301.27892161051335L955.0537216499999,280.27072921244246L955.8894208166666,272.3288227160133L956.7251199833332,286.21469872072834L957.9619547499999,369.8507943611624L960.0512026666667,377.66050079692405L962.1237365999999,372.223239325089L963.37728535,384.4683184423268L966.7033680333333,387.1281155112179L967.1212176166666,373.094698424534L968.3747663666667,315.42468332924165L970.8651498833333,248.24444849267007L973.3722473833333,264.32717721543816L973.7900969666666,253.83662226018788L974.6090821499998,270.4285718118374L975.8626308999999,306.3673275769409L977.1161796499999,338.9525980157116L978.770864,408.37520131287187L980.8601119166666,383.8700353956265L981.2779615000001,356.98567072344093L981.6958110833333,305.1457505847476L983.3504954333333,280.9727051693023L984.1861946,214.6201549596066L985.43974335,287.96601002201777L985.8575929333333,250.2420311426099L987.0944277,260.4631838161236L988.34797645,246.16851511308997L990.0193747833333,188.16386407113686L990.4372243666666,221.64172530420274L991.25620955,316.9476057308253L991.6740591333332,249.42849363209154L992.0919087166666,304.0303586932516L992.9276078833333,281.0822119502971L993.3454574666665,236.65409282168997L993.76330705,223.6569716684506L994.1811566333332,283.50464659400205L997.0893897333333,276.3017233990352L997.9250889,265.2957429317538L998.7607880666667,245.35596195057386L999.5797732499999,253.14668818550098L999.9976228333333,304.1350441909412L1000.4154724166666,324.8789291079447L1000.833322,280.48750217228377L1001.6690211666667,375.25162034460413L1002.5047203333332,357.9119438534968L1002.9225699166667,327.14524851483014L1004.5772542666666,373.07103087871644L1004.99510385,389.98420514323925L1006.2486525999999,341.25874903163333L1016.2269006499998,351.7421053096921L1016.6447502333333,332.16805722432264L1018.3161485666666,255.9501321224558L1018.7339981499999,242.8157692130136L1019.1518477333333,300.0914356353891L1020.3886824999998,380.659079216928L1020.8065320833333,320.9167032759464L1021.6422312499999,350.2130701427417L1022.8957799999998,392.6654060998888L1023.3136295833333,323.06133633291074L1024.55046435,274.9944954534843L1024.9683139333333,275.77129835628807L1025.3861635166666,250.73991819541004L1027.05756185,334.2733784896557L1027.4754114333332,345.51584566709363L1028.7122462,271.54302517924594L1029.1300957833332,330.55415832447727L1030.3836445333334,316.31117180201784L1031.2193437,252.08538331835777L1033.7097272166666,164.85882523431854L1034.1275768,217.06029965422698L1034.5454263833333,269.2341027633301L1034.9632759666665,195.16363094083118L1039.5429073999999,271.0750322667975L1039.9607569833333,277.47271587746854L1041.19759175,197.8748624484565L1042.8689900833333,227.11716149971662L1044.5403884166667,220.59239932604646L1045.3593736,299.693045521732L1047.4486215166667,223.59570649213543L1048.2843206833331,199.869175788391L1048.7021702666666,178.77759562496325L1049.9390050333332,256.25508983328746L1050.3568546166666,243.25811972991994L1050.7747041999999,236.3968373372504L1052.4461025333333,125.01529729406491L1052.8639521166667,136.2751167896227L1053.6829372999998,260.28603868861876L1054.1007868833333,201.18012715603828L1054.93648605,224.34921198743757L1056.1900348,298.54942037225516L1056.6078843833334,406.6148113359268L1057.0257339666666,245.58376473232852L1057.84471915,176.0936252418289L1059.0982678999999,173.38316500387498L1059.5161174833333,279.79510797402617L1061.1875158166665,302.7428362820443L1062.0065009999998,263.34099980172783L1063.6778993333332,359.8320459801367L1064.0957489166667,369.38745766827367L1064.9314480833334,360.71506773793897L1065.3492976666666,300.85379162584684L1066.16828285,291.8637947897954L1067.0039820166667,181.6507018469366L1067.4218316,188.3724022273043L1070.7479142833333,181.59810040142887L1071.1657638666666,205.34961462838208L1071.58361345,231.50299831008854L1072.8371622,215.884875458908L1074.9096961333332,210.39731437534329L1077.4167936333333,139.27594473162438L1077.8346432166666,243.61790916064794L1079.90717715,238.34792528269253L1080.3250267333333,158.45231930814492L1081.9964250666665,68.58879405937243L1082.81541025,80.74115002033254L1083.2332598333332,158.26993206654004L1083.6511094166667,309.8582451826312L1086.9771921,334.5586355308874L1088.6485904333333,368.2235447571806L1089.4842896,379.6808777495517L1089.9021391833332,315.17459606836303L1093.2282218666667,253.74360816277076L1094.0639210333331,225.8690373144338L1095.3007558,226.37931801768687L1096.1364549666666,248.4540235889435L1098.2257028833333,260.3405550643535L1100.7160864,263.61001682950194L1101.5517855666667,218.0938668297843L1101.96963515,300.5081341299399L1102.3874847333334,288.65771835079676L1104.0421690833334,227.946938490089L1105.2957178333334,311.4998870677269L1106.1314169999998,293.5412069390775L1106.5492665833333,310.6102141620111L1107.7861013499999,290.9180538631452L1108.2039509333333,369.7031459553919L1108.6218005166666,398.7143203557248L1110.7110484333332,292.1719697255396L1111.1288980166667,270.86239235768267L1111.9478832,286.97307410258696L1112.7835823666667,336.8099483538969L1113.6192815333334,318.1442840419721L1116.5275146333333,243.813517998234L1117.7810633833333,256.4234656467065L1119.0346121333332,282.0666461370206L1120.6892964833332,394.2586391237645L1121.52499565,386.4147342152488L1126.1046270833333,360.97993511308846L1127.3581758333332,340.1000395858762L1127.7760254166665,334.49413716903666L1130.6842585166667,333.76526686030587L1131.5199576833331,414.73174211913926L1131.9378072666666,433.38516050054835L1135.26388995,320.6553465270194L1136.0995891166667,326.0070917586719L1138.17212305,282.8881135688386L1138.5899726333332,324.8835011496456L1140.2613709666666,291.3932485304294L1143.1696040666666,252.22885501835853L1143.5874536499998,309.5527068288914L1144.0053032333333,192.924780827587L1147.3313859166667,269.6730795733909L1149.8217694333332,309.7591066939579L1150.2396190166667,274.3644158768718L1150.6574686,311.249860210185L1151.4931677666666,317.53472070105386L1152.3288669333333,256.1666827256007L1154.4014008666666,255.14794040105457L1154.8192504499998,214.6273691442328L1156.0727992,299.38421779579915L1158.5631827166665,280.2604432979715L1161.0702802166666,301.180687536363L1162.3071149833333,265.8707477854637L1163.5606637333333,237.9939068421586L1166.05104725,186.49881344093959L1166.8867464166665,299.5850113504912L1167.304596,255.39039879159594L1167.7224455833332,298.0213313696933L1168.5581447499999,241.80826587068114L1168.9759943333333,232.39064258149267L1169.3938439166666,273.08880033957644L1171.0485282666666,273.5745351156334L1171.4663778499998,248.44316912974085L1171.8842274333333,276.8870729058943L1173.5556257666665,277.34331898838025L1174.7924605333333,339.71390365227904L1176.0460092833332,362.3519359257361L1177.2995580333331,271.29935454910765L1178.9542423833332,350.40348052690496L1180.207791133333,364.71644019878977L1181.0434903,269.84758396007567L1183.5338738166665,257.024621237721L1186.0409713166666,210.902447287822L1188.5313548333334,173.94246434888169L1189.3670539999998,198.2500155906341L1190.2027531666665,234.50989136083183L1191.0217383499999,265.8244590668706L1191.4395879333333,279.2398508962171L1191.8574375166666,295.1425989392725L1192.2752870999998,354.52831933759967L1192.6931366833333,316.81757238809644L1193.9466854333334,249.99822411450793L1197.2727681166666,282.5306709235823L1198.5263168666665,300.8321318207327L1199.34530205,366.34943534778597L1200.5988507999998,299.7514845499686L1202.2702491333332,276.7698068279529L1206.4320309833333,288.55552823553035L1208.0867153333334,251.1792198205657L1209.7581136666665,277.2081292360295L1210.17596325,226.36610882306928L1211.0116624166665,189.59065975921695L1211.8306476,153.08940120065392L1212.6663467666665,196.36661192642578L1213.08419635,229.44982578959878L1214.3377451,283.1179464044649L1215.99242945,314.3945555098588L1217.6638277833333,337.5464832370893L1218.49952695,357.81335148312553L1219.3352261166667,354.0248724854838" style="fill: none;" fill="none"></path></g></g></g></g><g opacity="0.2"><g><g><g><path stroke="rgb(255, 112, 67)" stroke-width="2px" d="M85.241315,-144.4824628829956L85.65916458333332,154.7576198577881L88.56739768333333,57.26209545135498L90.23879601666667,73.38796901702881L90.65664559999999,-2.931650161743164L92.31132994999999,72.23745632171631L92.72917953333334,99.46649646759033L93.14702911666666,117.99981784820557L93.98272828333333,-54.58571529388428L94.40057786666665,106.05893421173096L95.65412661666666,40.53076457977295L96.4731118,66.24975681304932L98.9802093,201.1800880432129L101.47059281666667,-60.51121520996094L102.30629198333332,65.27110195159912L105.63237466666666,338.9748363494873L106.05022424999999,37.301419258117676L106.46807383333332,58.667518615722656L107.30377299999999,-40.65228748321533L108.95845734999999,-47.84047508239746L110.2120061,28.479503631591797L111.46555484999999,-84.7625846862793L111.88340443333333,340.5280284881592L112.30125401666665,232.8296136856079L113.1202392,83.86985874176025L113.95593836666666,125.04850578308105L114.37378795,-61.45319747924805L114.79163753333333,-35.554078102111816L115.20948711666665,241.51957988739014L116.04518628333332,-211.09642887115479L116.46303586666666,-98.41881084442139L119.37126896666666,241.41243839263916L120.20696813333332,4.286378860473633L120.62481771666666,201.00139904022217L121.86165248333333,-10.741474151611328L123.11520123333332,55.03621292114258L124.78659956666667,236.71331310272217L129.7673666,86.93813228607178L130.18521618333332,-84.51953887939453L131.43876493333335,-294.2497339248657L132.6923136833333,204.45509433746338L133.11016326666666,75.92197322845459L134.3469980333333,100.9398717880249L137.27194511666667,-5.559133529663086L142.25271214999998,-478.7193441390991L143.08841131666665,339.8546190261841L143.92411048333332,229.5330352783203L144.34196006666664,82.4105052947998L146.83234358333334,-2.162604331970215L147.25019316666666,4.56789493560791L150.57627585,191.4862995147705L151.41197501666664,241.09568786621094L151.8298246,41.54968738555908L153.08337335,-223.9505319595337L156.40945603333333,125.64173889160156L157.66300478333332,131.83473300933838L158.89983955,63.52340126037598L159.73553871666664,67.21834468841553L162.24263621666665,400.19038105010986L163.06162139999998,43.651530265808105L163.4794709833333,224.42368030548096L164.73301973333332,198.0287618637085L165.15086931666667,153.91343116760254L165.5687189,111.65330219268799L167.64125283333334,104.43203735351562L168.89480158333333,49.331467628479004L169.31265116666665,353.10205364227295L169.73050074999998,-72.75482749938965L171.80303468333332,13.530029296875L172.22088426666664,-289.1712989807129L172.63873385,41.7697229385376L173.89228260000002,-137.47476196289062L175.9648165333333,194.78647327423096L177.2183652833333,169.2220811843872L177.63621486666668,178.32515335083008L178.05406445,230.58791160583496L178.47191403333332,78.87879085540771L179.70874879999997,272.30981636047363L180.54444796666667,193.53025722503662L181.38014713333334,218.3892412185669L182.21584629999998,323.71472358703613L183.05154546666665,-299.59746074676514L183.87053065,156.78539848327637L185.1240794,-28.145495414733887L185.95977856666664,448.5662040710449L186.37762815,259.356481552124L187.21332731666664,371.44050693511963L189.7037108333333,68.55329895019531L193.4476431,-19.758617401123047L194.28334226666664,105.54659652709961L195.11904143333334,-97.17374038696289L196.7737257833333,251.5574436187744L197.19157536666668,333.4131860733032L197.60942495,14.102768898010254L200.93550763333334,-90.99045372009277L201.35335721666667,316.4096870422363L203.02475554999998,110.67033290863037L203.44260513333333,292.74939346313477L203.86045471666665,252.25386333465576L205.09728948333333,184.5904140472412L208.84122175,306.0651397705078L209.2590713333333,-105.55918025970459L210.5126200833333,148.82924365997314L211.34831924999997,60.058560371398926L212.18401841666667,27.204951286315918L213.42085318333332,232.56427669525146L214.25655234999996,-7.4564008712768555L214.67440193333334,-145.9917917251587L215.51010109999999,281.7983102798462L216.34580026666666,7.937099456787109L217.16478544999998,259.44780349731445L218.00048461666663,-103.64896965026855L220.08973253333332,154.58216667175293L220.50758211666664,122.90351867675781L221.3265673,-85.00095653533936L225.48834915,-99.47800159454346L226.32404831666665,54.10285949707031L226.7418979,71.08047199249268L227.99544664999996,229.58013439178467L230.0679805833333,59.89353370666504L230.90367974999998,155.90130138397217L231.3215293333333,-32.918325424194336L232.57507808333332,176.86723804473877L233.81191284999997,-15.33525562286377L235.90116076666666,223.17609310150146L236.73685993333333,241.31536388397217L237.15470951666666,119.49476528167725L239.64509303333332,270.3507089614868L240.06294261666665,-153.28891849517822L242.55332613333331,379.4966125488281L243.3890253,100.88126754760742L243.8068748833333,301.47962760925293L245.47827321666668,25.59027862548828L246.71510798333333,123.56901836395264L247.13295756666665,-278.5502691268921L247.55080714999997,89.18594646453857L249.22220548333334,-52.21170425415039L251.29473941666663,-103.6187686920166L251.71258899999998,49.767943382263184L252.1304385833333,-34.54594135284424L252.54828816666665,102.68505573272705L252.96613775,98.75569534301758L253.38398733333332,0.3591756820678711L256.71007001666663,-144.693510055542L257.9636187666667,-165.77198123931885L258.78260395,38.08880138397217L262.12540061666664,199.87857055664062L264.19793455,-142.46331310272217L264.6157841333333,148.81522178649902L265.03363371666666,233.90821933746338L265.4514833,139.9293088912964L265.8693328833333,187.1485071182251L267.5240172333333,-180.23428535461426L269.61326514999996,340.1666955947876L270.44896431666666,-106.25236415863037L272.52149825,253.7908763885498L272.93934783333333,39.78005504608154L274.6107461666666,121.75552272796631L275.42973135,85.91201877593994L275.8475809333333,274.5903482437134L277.1011296833333,9.691631317138672L278.35467843333333,-62.64865207672119L278.7725280166667,224.70951080322266L280.42721236666665,-99.51035976409912L280.84506194999994,124.3617935180664L282.51646028333334,110.61784076690674L285.0068438,-87.68884181976318L285.4246933833333,119.12732028961182L285.84254296666666,37.84216022491455L286.6782421333333,100.53934955596924L287.09609171666665,-97.26901721954346L287.9150769,61.19145584106445L288.7507760666667,146.78744316101074L289.16862564999997,13.7698392868042L289.5864752333333,126.54632949829102L290.00432481666667,77.94939231872559L292.07685875,157.51489543914795L292.91255791666663,133.72049522399902L293.3304075,241.21972751617432L293.7482570833333,530.1828556060791L294.58395624999997,126.25474643707275L296.6564901833333,179.6640625L297.07433976666664,63.00063705444336L298.7457381,-135.81478786468506L299.16358768333333,32.959312438964844L300.40042244999995,2.1435489654541016L301.23612161666665,-16.489004135131836L302.90751995,264.5913143157959L303.32536953333334,418.6366949081421L304.9800538833333,211.3772258758545L305.39790346666666,-129.2086877822876L305.81575305,225.5972032546997L306.2336026333333,-17.416964530944824L307.0693018,-75.12308597564697L307.4871513833333,89.42935180664062L309.1418357333333,201.6280689239502L309.5596853166667,195.63749313354492L309.97753489999997,391.0412883758545L310.81323406666667,-34.4596529006958L312.06678281666666,211.00007343292236L314.13931675,235.09504508972168L315.8107150833333,221.23604106903076L316.2285646666666,-12.59775447845459L317.8832490166667,268.6655673980713L319.1367977666667,358.09635734558105L319.55464735,-311.1205644607544L319.97249693333333,241.24058055877686L320.3903465166667,103.46596622467041L321.2093317,188.41479015350342L321.6271812833333,276.1011152267456L322.8807300333333,-33.237592697143555L323.29857961666664,275.63264083862305L323.7164292,346.2964115142822L324.1342787833333,43.27473735809326L325.7889631333333,300.5426788330078L328.71391021666665,-153.22779750823975L330.3685945666666,199.9371747970581L330.78644414999997,66.90303230285645L331.6221433166666,408.50103759765625L332.03999289999996,78.48114490509033L332.45784248333337,168.01655960083008L333.69467725,73.16325950622559L334.5303764166666,140.5178680419922L335.3660755833333,184.50915908813477L336.20177474999997,-249.4455337524414L336.6196243333333,478.47593879699707L338.2743086833333,144.83732414245605L339.11000784999993,-40.027774810791016L340.78140618333333,-52.01575756072998L343.6896392833333,17.575160026550293L344.10748886666664,215.78656578063965L344.52533844999994,35.9589147567749L346.5978723833333,354.7670612335205L347.8514211333333,39.898701667785645L348.6871203,45.60560417175293L350.34180465,-18.667428016662598L352.0132029833334,211.0087022781372L353.68460131666666,82.38821411132812L354.5035865,253.38747787475586L354.92143608333333,4.723214149475098L355.75713525,184.53432655334473L356.5928344166666,252.75972938537598L357.01068399999997,67.55954360961914L357.4285335833333,183.34893894195557L358.66536834999994,212.36882400512695L359.5010675166667,-91.22738742828369L360.33676668333334,-46.17582702636719L360.7546162666667,124.23739433288574L362.0081650166667,333.59151554107666L362.82715019999995,97.65443897247314L364.91639811666664,67.81589221954346L365.7520972833333,141.76905059814453L367.4067816333333,-177.47269535064697L367.82463121666666,50.62399673461914L368.6603303833333,27.37033748626709L369.49602955,-115.77645206451416L370.33172871666665,33.99081897735596L371.56856348333326,18.963685035705566L371.9864130666666,188.7588653564453L373.23996181666666,391.6032419204712L374.0756609833333,403.952917098999L374.49351056666666,12.915224075317383L376.5660445,-60.86499786376953L378.2374428333333,266.6546869277954L379.89212718333334,52.6546516418457L380.3099767666667,149.87477207183838L380.72782635,206.85786819458008L381.14567593333334,204.6219186782837L381.5635255166667,320.402325630188L384.0539090333333,240.20440006256104L384.88960819999994,166.39217948913574L385.3074577833333,91.19215297698975L385.72530736666664,125.19699382781982L386.14315694999993,137.39746189117432L386.5610065333333,65.57994270324707L388.2156908833333,87.1772232055664L389.05139005,303.3715019226074L392.37747273333326,249.42324256896973L393.63102148333326,340.10701274871826L396.121405,347.4454860687256L396.53925458333333,43.28300666809082L396.9571041666666,76.77766704559326L398.2106529166666,-8.844925880432129L399.0463520833333,63.66038417816162L399.4642016666666,60.391849517822266L400.28318685,588.4843673706055L401.5367356,182.56479263305664L403.6259835166666,149.99845218658447L404.8628182833333,136.32640647888184L405.69851744999994,298.9729480743408L406.1163670333333,138.1488904953003L406.95206619999993,176.43975067138672L408.60675055,297.84149074554443L409.0246001333333,215.05419254302979L409.86029929999995,264.18360137939453L411.5316976333333,96.68836784362793L411.94954721666664,73.49295330047607L413.18638198333326,173.84714221954346L414.4399307333333,-72.07818222045898L415.2756299,193.60863590240479L416.93031425,46.697872161865234L417.34816383333333,216.45458221435547L418.183863,118.64734077453613L419.0195621666666,87.30773448944092L419.43741174999997,122.79925346374512L420.2731109166666,195.52603721618652L421.0920961,355.2901849746704L421.92779526666664,-262.3050298690796L422.34564485,368.3147077560425L422.76349443333334,218.83075046539307L425.25387794999995,-133.38828468322754L426.9252762833333,98.37638568878174L427.3431258666667,-88.80771541595459L427.76097544999993,153.04623222351074L432.75845646666664,-106.09237098693848L433.57744165,364.43532276153564L434.41314081666667,86.67207622528076L436.92023831666666,329.5115098953247L437.7392235,110.98995971679688L438.99277225,643.5054798126221L439.41062183333327,77.1860990524292L440.66417058333326,178.22915744781494L442.31885493333334,287.35276985168457L442.73670451666663,112.31520652770996L443.57240368333333,-182.5924768447876L443.9902532666666,142.7142686843872L444.40810285,72.64013576507568L444.8259524333333,18.456740379333496L445.2438020166666,286.90263175964355L448.1520351166666,4.660295486450195L449.40558386666663,214.70652198791504L453.1495161333333,118.42622661590576L455.63989965,-39.8343448638916L456.0577492333333,243.52686500549316L456.47559881666666,94.36648941040039L456.8934484,193.87181568145752L458.54813275,183.03901958465576L461.89092941666667,101.73300647735596L462.7099146,252.0543212890625L463.54561376666663,265.3902015686035L464.38131293333333,88.78937911987305L466.0527112666666,-153.0739164352417L466.87169644999994,181.62964153289795L468.54309478333334,196.41013431549072L468.96094436666664,168.33151245117188L469.79664353333334,-113.67892360687256L470.21449311666663,124.96832942962646L471.03347829999996,187.0201530456543L471.86917746666666,292.2374153137207L472.28702704999995,144.7686529159546L473.54057579999994,202.54200744628906L474.37627496666664,217.72338199615479L476.8666584833333,390.19170665740967L477.28450806666666,225.6432237625122L478.53805681666665,41.16390609741211L480.1927411666666,244.24449729919434L481.4462899166666,55.61362648010254L482.28198908333326,-34.156564712524414L483.93667343333334,223.78766250610352L484.35452301666663,-0.1905536651611328L492.67808671666666,-3.552567481994629L493.09593629999995,54.680992126464844L493.5137858833333,161.00706100463867L495.1851842166667,215.6039218902588L496.4220189833333,36.724005699157715L497.6755677333333,394.5320158004761L498.9291164833333,494.76504135131836L500.58380083333327,208.84430027008057L501.0016504166666,43.456302642822266L501.83734958333326,195.3692798614502L503.0908983333333,126.65778541564941L503.50874791666666,196.25625324249268L504.7455826833333,250.2232084274292L505.16343226666663,168.61123085021973L506.4169810166666,-151.86372089385986L508.48951494999994,-28.642373085021973L508.90736453333335,268.80219078063965L509.7430637,-71.48099422454834L510.57876286666664,45.604525566101074L512.6512968,42.387404441833496L513.0691463833333,252.43147373199463L513.90484555,89.3160982131958L514.3226951333334,192.1453275680542L514.7405447166666,-243.01344871520996L515.1583942999999,-92.12263011932373L515.9940934666666,144.43104934692383L518.0666273999999,264.6862316131592L518.9023265666667,-78.48402118682861L520.9748605,398.4243440628052L522.6462588333333,152.32248783111572L523.8998075833333,252.3254108428955L525.5544919333332,122.21249198913574L525.9723415166667,-18.851150512695312L527.64373985,92.92403411865234L528.4794390166667,212.20487594604492L529.2984242,86.41141319274902L530.1341233666666,146.1564588546753L530.9698225333333,227.88995933532715L531.3876721166666,40.26434898376465L532.6412208666666,82.39468574523926L535.1316043833333,75.00839424133301L535.96730355,392.17094802856445L536.3851531333333,-5.518865585327148L537.6219878999999,295.75331020355225L538.0398374833333,219.93488311767578L539.7112358166667,-157.2351770401001L541.7837697499999,-50.336368560791016L542.6194689166666,229.44566822052002L543.4551680833333,85.7991247177124L544.2908672499999,466.7957181930542L545.1265664166666,308.74547481536865L545.9455516,19.639251708984375L547.19910035,123.23429107666016L547.6169499333333,-55.464778900146484L548.0347995166667,-173.53039169311523L548.8704986833333,54.20640563964844L551.3608822,395.7375373840332L552.1965813666666,212.81968116760254L553.0322805333333,81.18089485168457L553.4501301166666,69.8034029006958L554.2691153,90.40153503417969L556.3583632166666,168.2678747177124L558.43089715,104.88397312164307L559.2665963166667,-264.81242847442627L559.6844458999999,76.20312976837158L562.592679,-57.25382614135742L563.0105285833333,91.39133548736572L563.4283781666667,-100.19167900085449L563.8462277499999,251.6789665222168L564.2640773333333,210.3284616470337L565.9354756666667,280.63233757019043L567.5901600166667,15.936758041381836L570.0972575166667,187.56952285766602L570.9162427,4.968417167663574L572.1697914499999,497.23864364624023L573.0054906166666,-27.329350471496582L573.4233402,216.49556922912598L573.8411897833332,211.91185474395752L575.07802455,-65.69643211364746L576.3315733,-9.680126190185547L577.1672724666666,54.522077560424805L578.0029716333333,246.96941471099854L578.4208212166666,209.44328594207764L579.2398063999999,23.126383781433105L579.6576559833333,246.4351453781128L580.0755055666666,49.99445056915283L580.49335515,83.13676643371582L581.7469039,-154.76013660430908L582.1647534833334,273.5901212692261L583.4015882499999,-136.52990341186523L583.8194378333333,234.61147022247314L584.2372874166666,117.0326681137085L585.4908361666667,126.5635871887207L585.9086857499999,158.9738893508911L586.3265353333333,3.2710514068603516L588.3990692666666,163.17505836486816L591.7251519499999,227.333758354187L592.5608511166666,106.91570663452148L593.3965502833332,-4.747303009033203L593.8143998666666,45.822763442993164L594.23224945,116.55592441558838L595.8869338,-136.64351654052734L596.7226329666667,101.31918144226074L597.5583321333334,93.45578670501709L597.9761817166666,549.0278940200806L598.8118808833333,-14.042366981506348L601.3022644,261.72186374664307L602.1379635666666,-58.46761703491211L602.55581315,412.6946563720703L604.2104975,120.1498384475708L604.6283470833333,155.61367321014404L605.4640462499999,212.64782333374023L605.8818958333333,70.28518009185791L606.717595,399.0941581726074L607.1354445833333,-228.03736877441406L608.37227935,352.75546169281006L608.7901289333333,63.725460052490234L609.2079785166667,55.8300666809082L610.4615272666666,70.53110218048096L611.7150760166667,404.08342838287354L615.4590082833333,-85.58268451690674L615.8768578666667,229.91414260864258L616.69584305,86.18167018890381L617.1136926333334,62.139190673828125L620.0386397166666,288.9260959625244L621.2754744833334,294.3356628417969L622.11117365,197.84791564941406L623.3647224,162.6271266937256L626.2729555,144.76182174682617L626.6908050833333,291.79015350341797L627.52650425,94.05117702484131L627.9443538333333,-116.05185604095459L628.3622034166666,-242.63413906097412L630.43473735,335.3316659927368L631.2704365166666,66.75706100463867L632.1061356833333,-2.0608558654785156L633.3429704499999,40.54802227020264L633.7608200333333,97.25319766998291L634.1786696166665,-169.5808973312378L635.4322183666666,79.07078266143799L635.85006795,166.92680835723877L636.2679175333333,199.66932106018066L637.5047523,-21.22947597503662L637.9226018833333,296.190505027771L639.1761506333332,68.01759147644043L640.8475489666667,310.44787406921387L641.66653415,-26.346381187438965L642.0843837333332,99.05734539031982L642.9200829,77.50033283233643L644.5914812333333,337.77039337158203L645.0093308166666,275.2288827896118L647.0818647499999,103.79637908935547L649.1711126666667,-38.93802356719971L650.4079474333333,148.19394493103027L652.0793457666666,217.117205619812L653.3328945166667,-11.445084571838379L654.1518796999999,-178.4819107055664L656.2411276166666,239.9002332687378L657.0768267833333,207.8505449295044L658.3136615499999,12.901202201843262L658.7315111333334,354.9123134613037L659.1493607166666,103.3717679977417L659.9850598833333,176.90283203125L661.2386086333333,210.73869132995605L661.6564582166666,288.5126304626465L662.4754433999999,173.89100551605225L662.8932929833334,99.85838985443115L663.72899215,184.61162662506104L664.5646913166667,160.5216884613037L664.9825408999999,-162.75116634368896L666.63722525,320.3674507141113L667.0550748333333,120.76212692260742L669.5621723333334,-256.20659351348877L671.6347062666666,223.4489803314209L673.7239541833333,334.1211109161377L674.1418037666666,224.59769535064697L674.96078895,74.38927459716797L676.6321872833333,280.9019889831543L677.8857360333333,288.175386428833L680.37611955,343.220947265625L681.6296682999999,-184.52605724334717L684.1200518166667,262.7242479324341L684.5379014,180.46259021759033L685.79145015,57.52635383605957L687.8639840833332,112.53380393981934L689.5353824166667,401.7446517944336L692.0257659333332,164.41006183624268L694.11501385,75.50671005249023L694.9507130166667,258.0517282485962L696.6053973666667,25.51082134246826L697.0232469499999,197.19356155395508L697.8589461166666,126.09834861755371L701.1850287999999,-48.31793785095215L705.34681065,265.0144872665405L705.7646602333333,165.97080421447754L706.6003593999999,394.963098526001L707.0182089833334,192.52140140533447L708.6728933333333,202.85156726837158L709.0907429166666,249.89746952056885L709.9264420833333,445.4781560897827L711.5978404166666,-116.95716571807861L712.8346751833333,221.53733158111572L714.5060735166666,23.182111740112305L714.9239231,169.36553573608398L715.3417726833333,380.6241149902344L715.7596222666666,-162.4401683807373L716.57860745,249.72093772888184L718.2500057833333,224.1540288925171L719.5035545333333,113.12452030181885L719.9214041166666,14.85419750213623L721.99393805,-50.7340145111084L724.0831859666665,23.513243675231934L724.90217115,325.41712284088135L726.5735694833332,300.3611135482788L727.8271182333333,316.12098026275635L729.8996521666667,371.6493968963623L738.6410654499999,51.5332612991333L739.0589150333333,311.0749034881592L740.7303133666667,150.19583702087402L745.7110803999999,226.77504062652588L746.1289299833334,390.37399101257324L747.8003283166667,264.5190477371216L748.6360274833334,-231.65824794769287L749.0538770666666,37.970154762268066L749.8728622499999,60.881896018981934L750.2907118333334,49.784841537475586L751.5442605833333,101.64276313781738L752.7978093333334,323.01147270202637L754.0346441,129.81774044036865L754.8703432666666,194.9306468963623L755.2881928499999,-8.702549934387207L756.1238920166666,599.164361000061L756.5417415999999,345.4155502319336L757.3774407666666,260.91111183166504L758.19642595,273.82813358306885L758.6142755333333,74.63447761535645L759.0321251166666,213.34568119049072L759.4499747,-33.204155921936035L760.2856738666666,189.07993030548096L763.61175655,341.2639970779419L764.8653053,83.26835632324219L765.2831548833333,148.31798458099365L766.51998965,81.47859001159668L769.4449367333333,-53.66638374328613L771.5174706666667,-210.27057647705078L772.3531698333333,151.9474925994873L772.7710194166667,-17.93972873687744L774.0245681666667,-14.204876899719238L774.84355335,326.0574550628662L776.5149516833333,243.70950889587402L776.9328012666667,-47.998311042785645L777.35065085,169.62619876861572L778.1863500166667,215.44213104248047L781.5124327,191.98461532592773L781.9302822833332,272.2282018661499L782.3481318666667,356.1739225387573L783.5849666333332,119.85214328765869L784.4206657999999,166.00963401794434L784.8385153833332,273.13998317718506L788.1645980666666,34.81990718841553L790.2538459833333,428.9715347290039L793.1620790833333,310.75347900390625L794.4156278333334,330.24460220336914L794.8334774166666,260.83560943603516L796.4881617666666,208.5117301940918L799.81424445,118.79906463623047L801.0677932,204.31092071533203L801.4856427833333,379.2744197845459L801.9034923666666,5.616299629211426L806.0652742166666,147.29546642303467L807.3188229666666,322.5113592147827L808.13780815,320.21680545806885L808.9735073166665,316.26371574401855L809.8092064833332,272.46154022216797L810.2270560666666,267.1368236541748L810.6449056499999,360.22768211364746L811.0627552333333,285.6636734008789L812.7174395833333,311.19930267333984L813.55313875,190.12222290039062L814.3888379166666,242.22930240631104L814.8066875,111.77949905395508L815.2245370833333,137.1968412399292L816.8792214333332,354.59196758270264L818.96846935,135.8090353012085L821.4588528666667,107.08109283447266L821.8767024499999,128.08837604522705L822.2945520333333,164.4363079071045L823.9659503666667,125.7618236541748L824.7849355499999,122.09923839569092L825.2027851333332,230.98519802093506L828.9467173999999,536.5369215011597L829.7824165666666,109.36522006988525L830.20026615,19.804997444152832L831.0359653166666,303.2920446395874L833.9441984166666,164.87062644958496L834.7798975833333,414.2377815246582L836.0334463333334,548.1578187942505L838.1059802666666,327.82421112060547L839.7773785999999,309.5076894760132L840.6130777666666,195.71838855743408L842.2677621166666,116.56707000732422L842.6856116999999,442.9588928222656L844.7748596166666,456.8671531677246L845.5938448,269.63811016082764L846.4295439666666,216.71704292297363L847.2652431333333,439.62096786499023L847.6830927166666,321.2576599121094L848.1009423,193.9519920349121L848.5187918833333,247.52849197387695L849.75562665,56.82777690887451L850.5913258166665,226.64524841308594L852.26272415,161.42591953277588L853.0984233166665,194.4485101699829L854.3352580833333,425.0162878036499L855.5888068333333,232.30073738098145L856.0066564166666,236.05068969726562L858.07919035,191.70309925079346L859.3327391,314.217960357666L860.1684382666665,-10.844660758972168L860.58628785,563.7379179000854L861.4219870166665,231.72476196289062L863.0766713666667,226.75886154174805L863.4945209499999,84.49185466766357L863.9123705333333,301.5536918640137L864.3302201166666,307.8775568008423L866.8206036333332,331.265682220459L867.2384532166667,-124.50129318237305L867.6563027999999,139.90629863739014L869.3277011333332,210.71172618865967L869.7455507166667,293.6662082672119L870.9823854833332,262.8806457519531L871.81808465,179.42748832702637L873.0716333999999,284.4049406051636L873.9073325666667,-10.397398948669434L874.7263177499999,12.491332054138184L875.1441673333334,195.24847602844238L875.5620169166666,384.4862422943115L878.0691144166666,216.10799026489258L880.1416483499999,194.74872207641602L880.5594979333333,130.91432285308838L880.9773475166667,241.0237808227539L881.3951970999999,281.6915283203125L883.8855806166666,652.6053161621094L887.6295128833333,74.92749881744385L888.0473624666666,19.564827919006348L889.7187607999999,275.5082416534424L890.5544599666666,356.51440238952637L892.2091443166665,332.7940664291382L892.6269939,534.3883390426636L893.0448434833332,473.3399782180786L893.4626930666666,150.99867916107178L894.2983922333333,337.320255279541L894.7162418166666,189.80655097961426L896.3709261666665,220.94733428955078L898.4601740833333,358.28007984161377L898.8780236666665,381.21770763397217L900.1148584333332,367.2515621185303L901.3684071833333,294.45718574523926L904.6944898666667,215.8268337249756L905.1123394499999,92.15031433105469L905.5301890333333,511.7890338897705L906.7837377833332,285.9016857147217L908.8562717166667,481.6844310760498L909.2741212999999,142.471941947937L909.6919708833333,430.42118072509766L910.9455196333332,373.8490333557129L911.3633692166667,425.18275260925293L912.6002039833332,486.0351667404175L913.43590315,48.1180362701416L914.2716023166666,446.66210556030273L916.3441362499999,716.3940544128418L917.1798354166666,46.47927474975586L919.6869329166666,253.851637840271L920.9237676833334,318.2846632003784L922.5951660166667,-216.98993015289307L925.0855495333333,40.44735240936279L926.7569478666666,282.83125495910645L928.0104966166666,241.29415130615234L928.8294817999999,238.07559204101562L929.6651809666666,375.5632972717285L930.0830305499999,266.7733335494995L930.9187297166666,393.03347301483154L931.3365792999999,232.3309383392334L931.7544288833333,242.980731010437L932.9912636500001,97.9751443862915L933.4091132333333,702.6224174499512L933.8269628166665,353.1038513183594L937.1530455,476.8648614883423L937.5708950833333,258.0560426712036L937.9887446666665,183.15371131896973L938.40659425,340.42735862731934L939.660143,194.21049785614014L943.82192485,366.40917110443115L945.8944587833332,326.50723361968994L946.3123083666666,368.87953758239746L946.7301579499999,46.28979969024658L947.1480075333333,214.34950351715088L948.8194058666666,474.5199728012085L949.63839105,491.7219352722168L950.4740902166667,205.62574100494385L950.8919397999999,226.90734958648682L951.7276389666666,303.56924629211426L952.9811877166667,295.47431087493896L954.6358720666667,318.50721549987793L955.0537216499999,231.25161361694336L955.8894208166666,253.79770755767822L956.7251199833332,318.6150760650635L957.9619547499999,565.0016841888428L960.0512026666667,395.8831491470337L962.1237365999999,359.5362958908081L963.37728535,413.04016971588135L965.0486836833333,459.5604314804077L966.2855184499999,347.72736167907715L966.7033680333333,382.2578430175781L967.1212176166666,340.350058555603L968.3747663666667,180.86131477355957L970.8651498833333,91.49056720733643L973.3722473833333,301.8535442352295L973.7900969666666,229.358660697937L974.6090821499998,309.14312076568604L975.8626308999999,390.2244243621826L978.770864,570.3612756729126L979.1887135833333,359.70491790771484L980.8601119166666,360.76051330566406L981.2779615000001,294.2554864883423L981.6958110833333,184.1859369277954L983.3504954333333,224.56893253326416L984.1861946,59.7975378036499L985.43974335,459.10633850097656L985.8575929333333,162.21941375732422L987.0944277,284.3125400543213L988.34797645,212.81428813934326L990.0193747833333,52.81967830657959L990.4372243666666,299.75673484802246L991.25620955,539.3279933929443L991.6740591333332,91.88389873504639L992.0919087166666,431.4347105026245L992.9276078833333,227.53653621673584L993.3454574666665,132.98848152160645L993.76330705,193.33035564422607L994.1811566333332,423.1492214202881L997.0893897333333,259.4949026107788L997.9250889,239.61512184143066L998.7607880666667,198.82980632781982L999.5797732499999,271.3250494003296L999.9976228333333,423.1078748703003L1000.4154724166666,373.28132724761963L1000.833322,176.9075059890747L1001.6690211666667,596.3678960800171L1002.5047203333332,317.45269870758057L1002.9225699166667,255.35629272460938L1004.5772542666666,480.2311897277832L1004.99510385,429.448278427124L1006.2486525999999,227.56601810455322L1016.2269006499998,376.2032699584961L1016.6447502333333,286.4952783584595L1018.3161485666666,78.10830688476562L1018.7339981499999,212.1689224243164L1019.1518477333333,433.73465728759766L1020.3886824999998,568.6502475738525L1020.8065320833333,181.51782608032227L1021.6422312499999,418.5712594985962L1022.8957799999998,491.72085666656494L1023.3136295833333,160.65184020996094L1024.55046435,162.83853340148926L1024.9683139333333,277.5838384628296L1025.3861635166666,192.33336448669434L1027.05756185,529.1847858428955L1027.4754114333332,371.7482690811157L1028.7122462,98.93977737426758L1029.1300957833332,468.2468023300171L1030.3836445333334,283.0775365829468L1031.2193437,102.22521018981934L1033.7097272166666,-38.66981029510498L1034.1275768,338.8637399673462L1034.5454263833333,390.9729766845703L1034.9632759666665,22.33253002166748L1039.5429073999999,448.2016353607178L1039.9607569833333,292.40064430236816L1041.19759175,12.146537780761719L1042.8689900833333,295.34919261932373L1044.5403884166667,205.3679542541504L1045.3593736,484.2612199783325L1047.4486215166667,46.03524875640869L1048.2843206833331,144.50727081298828L1048.7021702666666,129.56390857696533L1049.9390050333332,437.03590965270996L1050.3568546166666,212.9318561553955L1050.7747041999999,220.3871784210205L1052.4461025333333,-134.87496280670166L1052.8639521166667,162.54802894592285L1053.6829372999998,549.6448564529419L1054.1007868833333,63.26633358001709L1054.93648605,278.41040992736816L1056.1900348,471.6832399368286L1057.0257339666666,-130.1553440093994L1057.84471915,13.949966430664062L1059.0982678999999,167.05875778198242L1059.5161174833333,528.0896415710449L1061.1875158166665,356.28753566741943L1062.0065009999998,171.40338134765625L1063.6778993333332,584.9778203964233L1064.0957489166667,391.6834182739258L1064.9314480833334,340.4794912338257L1065.3492976666666,161.17748069763184L1066.16828285,270.88713550567627L1067.0039820166667,-75.51318168640137L1067.4218316,204.05636978149414L1070.7479142833333,165.79139614105225L1071.1657638666666,260.769814491272L1071.58361345,292.5275602340698L1072.8371622,179.44258880615234L1074.9096961333332,197.5930051803589L1077.4167936333333,-26.673917770385742L1077.8346432166666,487.08249282836914L1079.90717715,226.05129623413086L1080.3250267333333,-27.9707612991333L1081.9964250666665,-141.09276485443115L1082.81541025,109.09664726257324L1083.2332598333332,339.17042350769043L1083.6511094166667,663.5643091201782L1089.4842896,406.4146547317505L1089.9021391833332,164.65993881225586L1093.2282218666667,110.40463638305664L1094.0639210333331,160.82837200164795L1095.3007558,227.56997299194336L1096.1364549666666,299.961669921875L1098.2257028833333,288.075795173645L1100.7160864,271.23876094818115L1101.5517855666667,111.88951683044434L1101.96963515,492.80809116363525L1102.3874847333334,261.0067481994629L1104.0421690833334,86.2884521484375L1105.2957178333334,506.45676708221436L1106.1314169999998,251.637619972229L1106.5492665833333,350.43789768218994L1107.7861013499999,244.9696798324585L1108.2039509333333,553.5350275039673L1108.6218005166666,466.40706062316895L1110.7110484333332,43.57315158843994L1111.1288980166667,221.14004516601562L1111.9478832,324.56466484069824L1112.7835823666667,453.0959882736206L1113.6192815333334,274.59106731414795L1116.5275146333333,70.3750638961792L1117.7810633833333,285.84667682647705L1119.0346121333332,341.9007339477539L1120.6892964833332,656.0399560928345L1121.52499565,368.11228942871094L1126.1046270833333,301.63207054138184L1127.3581758333332,291.3802833557129L1127.7760254166665,321.41369819641113L1130.6842585166667,332.0645694732666L1131.5199576833331,603.6535177230835L1131.9378072666666,476.90980339050293L1135.26388995,57.61911392211914L1136.0995891166667,338.49449729919434L1138.17212305,182.27716445922852L1138.5899726333332,422.8727388381958L1140.2613709666666,213.2493257522583L1143.1696040666666,160.84527015686035L1143.5874536499998,443.3083610534668L1149.8217694333332,403.29316997528076L1150.2396190166667,191.7768039703369L1150.6574686,397.31589698791504L1151.4931677666666,332.19939517974854L1152.3288669333333,112.97459411621094L1154.4014008666666,252.77087497711182L1154.8192504499998,120.07936954498291L1156.0727992,497.1501979827881L1158.5631827166665,235.63830280303955L1161.0702802166666,349.99459075927734L1162.3071149833333,183.48088836669922L1163.5606637333333,172.94794464111328L1166.05104725,66.34359550476074L1166.8867464166665,563.4528064727783L1167.304596,152.2696361541748L1167.7224455833332,397.4935073852539L1168.5581447499999,110.64444637298584L1168.9759943333333,210.41618824005127L1169.3938439166666,368.05116844177246L1171.0485282666666,274.7079162597656L1171.4663778499998,189.8033151626587L1171.8842274333333,343.25618171691895L1173.5556257666665,278.40789318084717L1174.7924605333333,485.245267868042L1176.0460092833332,415.17401123046875L1177.2995580333331,58.8433313369751L1178.9542423833332,534.9797744750977L1180.207791133333,398.1133460998535L1181.0434903,48.48691940307617L1183.5338738166665,227.10437488555908L1186.0409713166666,103.28404140472412L1188.5313548333334,87.70250415802002L1189.3670539999998,254.96763515472412L1190.2027531666665,319.116268157959L1191.0217383499999,338.89178371429443L1191.4395879333333,310.54243183135986L1191.8574375166666,332.2490110397339L1192.2752870999998,493.0950002670288L1192.6931366833333,228.8258295059204L1193.9466854333334,94.08641147613525L1197.2727681166666,358.4397134780884L1198.5263168666665,343.5355405807495L1199.34530205,519.2231435775757L1200.5988507999998,144.35626602172852L1202.2702491333332,223.1458921432495L1206.4320309833333,316.05554485321045L1208.0867153333334,163.96783351898193L1209.7581136666665,337.94225120544434L1210.17596325,107.73472785949707L1211.0116624166665,103.78127861022949L1211.8306476,67.91979789733887L1212.6663467666665,297.34677028656006L1213.08419635,306.6439914703369L1214.3377451,408.34356117248535L1218.49952695,405.10271072387695L1219.3352261166667,345.1850881576538" style="fill: none;" fill="none"></path></g></g></g></g></g><g><g opacity="0.103754"><span fill="rgb(0, 0, 0)" stroke="none" stroke-width="1px">Alt + Scroll to Zoom</span></g></g></g><g transform="translate(30, 377)" clip-path="url(#clip_1)"><clipPath id="clip_1"><rect width="1253" height="23"></rect></clipPath><g><g><line x1="0" y1="0" x2="0" y2="5" style="visibility: inherit;" fill="rgb(0, 0, 0)" stroke="rgb(204, 204, 204)" stroke-width="1px"></line><line x1="83.56991666666666" y1="0" x2="83.56991666666666" y2="5" style="visibility: inherit;" fill="rgb(0, 0, 0)" stroke="rgb(204, 204, 204)" stroke-width="1px"></line><line x1="167.1398333333333" y1="0" x2="167.1398333333333" y2="5" style="visibility: inherit;" fill="rgb(0, 0, 0)" stroke="rgb(204, 204, 204)" stroke-width="1px"></line><line x1="250.70974999999999" y1="0" x2="250.70974999999999" y2="5" style="visibility: inherit;" fill="rgb(0, 0, 0)" stroke="rgb(204, 204, 204)" stroke-width="1px"></line><line x1="334.2796666666666" y1="0" x2="334.2796666666666" y2="5" style="visibility: inherit;" fill="rgb(0, 0, 0)" stroke="rgb(204, 204, 204)" stroke-width="1px"></line><line x1="417.84958333333327" y1="0" x2="417.84958333333327" y2="5" style="visibility: inherit;" fill="rgb(0, 0, 0)" stroke="rgb(204, 204, 204)" stroke-width="1px"></line><line x1="501.41949999999997" y1="0" x2="501.41949999999997" y2="5" style="visibility: inherit;" fill="rgb(0, 0, 0)" stroke="rgb(204, 204, 204)" stroke-width="1px"></line><line x1="584.9894166666667" y1="0" x2="584.9894166666667" y2="5" style="visibility: inherit;" fill="rgb(0, 0, 0)" stroke="rgb(204, 204, 204)" stroke-width="1px"></line><line x1="668.5593333333333" y1="0" x2="668.5593333333333" y2="5" style="visibility: inherit;" fill="rgb(0, 0, 0)" stroke="rgb(204, 204, 204)" stroke-width="1px"></line><line x1="752.12925" y1="0" x2="752.12925" y2="5" style="visibility: inherit;" fill="rgb(0, 0, 0)" stroke="rgb(204, 204, 204)" stroke-width="1px"></line><line x1="835.6991666666665" y1="0" x2="835.6991666666665" y2="5" style="visibility: inherit;" fill="rgb(0, 0, 0)" stroke="rgb(204, 204, 204)" stroke-width="1px"></line><line x1="919.2690833333332" y1="0" x2="919.2690833333332" y2="5" style="visibility: inherit;" fill="rgb(0, 0, 0)" stroke="rgb(204, 204, 204)" stroke-width="1px"></line><line x1="1002.8389999999999" y1="0" x2="1002.8389999999999" y2="5" style="visibility: inherit;" fill="rgb(0, 0, 0)" stroke="rgb(204, 204, 204)" stroke-width="1px"></line><line x1="1086.4089166666665" y1="0" x2="1086.4089166666665" y2="5" style="visibility: inherit;" fill="rgb(0, 0, 0)" stroke="rgb(204, 204, 204)" stroke-width="1px"></line><line x1="1169.9788333333333" y1="0" x2="1169.9788333333333" y2="5" style="visibility: inherit;" fill="rgb(0, 0, 0)" stroke="rgb(204, 204, 204)" stroke-width="1px"></line><line x1="1253.54875" y1="0" x2="1253.54875" y2="5" style="visibility: inherit;" fill="rgb(0, 0, 0)" stroke="rgb(204, 204, 204)" stroke-width="1px"></line></g><g transform="translate(0, 8)"><text x="0" y="0" dx="0em" dy="0.95em" style="text-anchor: middle; visibility: hidden; font-family: Roboto, sans-serif; font-size: 12px; font-weight: 200;" fill="rgb(255, 255, 255)" stroke="none" stroke-width="1px">-20k</text><text x="83.56991666666666" y="0" dx="0em" dy="0.95em" style="text-anchor: middle; visibility: inherit; font-family: Roboto, sans-serif; font-size: 12px; font-weight: 200;" fill="rgb(255, 255, 255)" stroke="none" stroke-width="1px">0</text><text x="167.1398333333333" y="0" dx="0em" dy="0.95em" style="text-anchor: middle; visibility: inherit; font-family: Roboto, sans-serif; font-size: 12px; font-weight: 200;" fill="rgb(255, 255, 255)" stroke="none" stroke-width="1px">20k</text><text x="250.70974999999999" y="0" dx="0em" dy="0.95em" style="text-anchor: middle; visibility: inherit; font-family: Roboto, sans-serif; font-size: 12px; font-weight: 200;" fill="rgb(255, 255, 255)" stroke="none" stroke-width="1px">40k</text><text x="334.2796666666666" y="0" dx="0em" dy="0.95em" style="text-anchor: middle; visibility: inherit; font-family: Roboto, sans-serif; font-size: 12px; font-weight: 200;" fill="rgb(255, 255, 255)" stroke="none" stroke-width="1px">60k</text><text x="417.84958333333327" y="0" dx="0em" dy="0.95em" style="text-anchor: middle; visibility: inherit; font-family: Roboto, sans-serif; font-size: 12px; font-weight: 200;" fill="rgb(255, 255, 255)" stroke="none" stroke-width="1px">80k</text><text x="501.41949999999997" y="0" dx="0em" dy="0.95em" style="text-anchor: middle; visibility: inherit; font-family: Roboto, sans-serif; font-size: 12px; font-weight: 200;" fill="rgb(255, 255, 255)" stroke="none" stroke-width="1px">100k</text><text x="584.9894166666667" y="0" dx="0em" dy="0.95em" style="text-anchor: middle; visibility: inherit; font-family: Roboto, sans-serif; font-size: 12px; font-weight: 200;" fill="rgb(255, 255, 255)" stroke="none" stroke-width="1px">120k</text><text x="668.5593333333333" y="0" dx="0em" dy="0.95em" style="text-anchor: middle; visibility: inherit; font-family: Roboto, sans-serif; font-size: 12px; font-weight: 200;" fill="rgb(255, 255, 255)" stroke="none" stroke-width="1px">140k</text><text x="752.12925" y="0" dx="0em" dy="0.95em" style="text-anchor: middle; visibility: inherit; font-family: Roboto, sans-serif; font-size: 12px; font-weight: 200;" fill="rgb(255, 255, 255)" stroke="none" stroke-width="1px">160k</text><text x="835.6991666666665" y="0" dx="0em" dy="0.95em" style="text-anchor: middle; visibility: inherit; font-family: Roboto, sans-serif; font-size: 12px; font-weight: 200;" fill="rgb(255, 255, 255)" stroke="none" stroke-width="1px">180k</text><text x="919.2690833333332" y="0" dx="0em" dy="0.95em" style="text-anchor: middle; visibility: inherit; font-family: Roboto, sans-serif; font-size: 12px; font-weight: 200;" fill="rgb(255, 255, 255)" stroke="none" stroke-width="1px">200k</text><text x="1002.8389999999999" y="0" dx="0em" dy="0.95em" style="text-anchor: middle; visibility: inherit; font-family: Roboto, sans-serif; font-size: 12px; font-weight: 200;" fill="rgb(255, 255, 255)" stroke="none" stroke-width="1px">220k</text><text x="1086.4089166666665" y="0" dx="0em" dy="0.95em" style="text-anchor: middle; visibility: inherit; font-family: Roboto, sans-serif; font-size: 12px; font-weight: 200;" fill="rgb(255, 255, 255)" stroke="none" stroke-width="1px">240k</text><text x="1169.9788333333333" y="0" dx="0em" dy="0.95em" style="text-anchor: middle; visibility: inherit; font-family: Roboto, sans-serif; font-size: 12px; font-weight: 200;" fill="rgb(255, 255, 255)" stroke="none" stroke-width="1px">260k</text><text x="1253.54875" y="0" dx="0em" dy="0.95em" style="text-anchor: middle; visibility: hidden; font-family: Roboto, sans-serif; font-size: 12px; font-weight: 200;" fill="rgb(255, 255, 255)" stroke="none" stroke-width="1px">280k</text></g><line x1="0" y1="0" x2="1253.54875" y2="0" fill="rgb(0, 0, 0)" stroke="rgb(204, 204, 204)" stroke-width="1px"></line></g></g></g></g></svg>