<svg viewBox="0 0 1284.3333740234375 400" xmlns="http://www.w3.org/2000/svg"><g><g><g><g><g><line x1="41.171875" y1="377" x2="36.171875" y2="377" style="visibility: inherit;" fill="rgb(0, 0, 0)" stroke="rgb(204, 204, 204)" stroke-width="1px"></line><line x1="41.171875" y1="350.07142857142856" x2="36.171875" y2="350.07142857142856" style="visibility: inherit;" fill="rgb(0, 0, 0)" stroke="rgb(204, 204, 204)" stroke-width="1px"></line><line x1="41.171875" y1="323.1428571428571" x2="36.171875" y2="323.1428571428571" style="visibility: inherit;" fill="rgb(0, 0, 0)" stroke="rgb(204, 204, 204)" stroke-width="1px"></line><line x1="41.171875" y1="296.2142857142857" x2="36.171875" y2="296.2142857142857" style="visibility: inherit;" fill="rgb(0, 0, 0)" stroke="rgb(204, 204, 204)" stroke-width="1px"></line><line x1="41.171875" y1="269.2857142857143" x2="36.171875" y2="269.2857142857143" style="visibility: inherit;" fill="rgb(0, 0, 0)" stroke="rgb(204, 204, 204)" stroke-width="1px"></line><line x1="41.171875" y1="242.35714285714286" x2="36.171875" y2="242.35714285714286" style="visibility: inherit;" fill="rgb(0, 0, 0)" stroke="rgb(204, 204, 204)" stroke-width="1px"></line><line x1="41.171875" y1="215.42857142857142" x2="36.171875" y2="215.42857142857142" style="visibility: inherit;" fill="rgb(0, 0, 0)" stroke="rgb(204, 204, 204)" stroke-width="1px"></line><line x1="41.171875" y1="188.5" x2="36.171875" y2="188.5" style="visibility: inherit;" fill="rgb(0, 0, 0)" stroke="rgb(204, 204, 204)" stroke-width="1px"></line><line x1="41.171875" y1="161.57142857142858" x2="36.171875" y2="161.57142857142858" style="visibility: inherit;" fill="rgb(0, 0, 0)" stroke="rgb(204, 204, 204)" stroke-width="1px"></line><line x1="41.171875" y1="134.64285714285714" x2="36.171875" y2="134.64285714285714" style="visibility: inherit;" fill="rgb(0, 0, 0)" stroke="rgb(204, 204, 204)" stroke-width="1px"></line><line x1="41.171875" y1="107.71428571428575" x2="36.171875" y2="107.71428571428575" style="visibility: inherit;" fill="rgb(0, 0, 0)" stroke="rgb(204, 204, 204)" stroke-width="1px"></line><line x1="41.171875" y1="80.78571428571429" x2="36.171875" y2="80.78571428571429" style="visibility: inherit;" fill="rgb(0, 0, 0)" stroke="rgb(204, 204, 204)" stroke-width="1px"></line><line x1="41.171875" y1="53.85714285714292" x2="36.171875" y2="53.85714285714292" style="visibility: inherit;" fill="rgb(0, 0, 0)" stroke="rgb(204, 204, 204)" stroke-width="1px"></line><line x1="41.171875" y1="26.92857142857146" x2="36.171875" y2="26.92857142857146" style="visibility: inherit;" fill="rgb(0, 0, 0)" stroke="rgb(204, 204, 204)" stroke-width="1px"></line><line x1="41.171875" y1="0" x2="36.171875" y2="0" style="visibility: inherit;" fill="rgb(0, 0, 0)" stroke="rgb(204, 204, 204)" stroke-width="1px"></line></g><g transform="translate(31.171875, 0)"><text x="0" y="377" dx="0em" dy="0.3em" style="text-anchor: end; visibility: hidden; font-family: Roboto, sans-serif; font-size: 12px; font-weight: 200;" fill="rgb(255, 255, 255)" stroke="none" stroke-width="1px">1.4</text><text x="0" y="350.07142857142856" dx="0em" dy="0.3em" style="text-anchor: end; visibility: inherit; font-family: Roboto, sans-serif; font-size: 12px; font-weight: 200;" fill="rgb(255, 255, 255)" stroke="none" stroke-width="1px">1.6</text><text x="0" y="323.1428571428571" dx="0em" dy="0.3em" style="text-anchor: end; visibility: inherit; font-family: Roboto, sans-serif; font-size: 12px; font-weight: 200;" fill="rgb(255, 255, 255)" stroke="none" stroke-width="1px">1.8</text><text x="0" y="296.2142857142857" dx="0em" dy="0.3em" style="text-anchor: end; visibility: inherit; font-family: Roboto, sans-serif; font-size: 12px; font-weight: 200;" fill="rgb(255, 255, 255)" stroke="none" stroke-width="1px">2</text><text x="0" y="269.2857142857143" dx="0em" dy="0.3em" style="text-anchor: end; visibility: inherit; font-family: Roboto, sans-serif; font-size: 12px; font-weight: 200;" fill="rgb(255, 255, 255)" stroke="none" stroke-width="1px">2.2</text><text x="0" y="242.35714285714286" dx="0em" dy="0.3em" style="text-anchor: end; visibility: inherit; font-family: Roboto, sans-serif; font-size: 12px; font-weight: 200;" fill="rgb(255, 255, 255)" stroke="none" stroke-width="1px">2.4</text><text x="0" y="215.42857142857142" dx="0em" dy="0.3em" style="text-anchor: end; visibility: inherit; font-family: Roboto, sans-serif; font-size: 12px; font-weight: 200;" fill="rgb(255, 255, 255)" stroke="none" stroke-width="1px">2.6</text><text x="0" y="188.5" dx="0em" dy="0.3em" style="text-anchor: end; visibility: inherit; font-family: Roboto, sans-serif; font-size: 12px; font-weight: 200;" fill="rgb(255, 255, 255)" stroke="none" stroke-width="1px">2.8</text><text x="0" y="161.57142857142858" dx="0em" dy="0.3em" style="text-anchor: end; visibility: inherit; font-family: Roboto, sans-serif; font-size: 12px; font-weight: 200;" fill="rgb(255, 255, 255)" stroke="none" stroke-width="1px">3</text><text x="0" y="134.64285714285714" dx="0em" dy="0.3em" style="text-anchor: end; visibility: inherit; font-family: Roboto, sans-serif; font-size: 12px; font-weight: 200;" fill="rgb(255, 255, 255)" stroke="none" stroke-width="1px">3.2</text><text x="0" y="107.71428571428575" dx="0em" dy="0.3em" style="text-anchor: end; visibility: inherit; font-family: Roboto, sans-serif; font-size: 12px; font-weight: 200;" fill="rgb(255, 255, 255)" stroke="none" stroke-width="1px">3.4</text><text x="0" y="80.78571428571429" dx="0em" dy="0.3em" style="text-anchor: end; visibility: inherit; font-family: Roboto, sans-serif; font-size: 12px; font-weight: 200;" fill="rgb(255, 255, 255)" stroke="none" stroke-width="1px">3.6</text><text x="0" y="53.85714285714292" dx="0em" dy="0.3em" style="text-anchor: end; visibility: inherit; font-family: Roboto, sans-serif; font-size: 12px; font-weight: 200;" fill="rgb(255, 255, 255)" stroke="none" stroke-width="1px">3.8</text><text x="0" y="26.92857142857146" dx="0em" dy="0.3em" style="text-anchor: end; visibility: inherit; font-family: Roboto, sans-serif; font-size: 12px; font-weight: 200;" fill="rgb(255, 255, 255)" stroke="none" stroke-width="1px">4</text><text x="0" y="0" dx="0em" dy="0.3em" style="text-anchor: end; visibility: hidden; font-family: Roboto, sans-serif; font-size: 12px; font-weight: 200;" fill="rgb(255, 255, 255)" stroke="none" stroke-width="1px">4.2</text></g><line x1="41.171875" y1="0" x2="41.171875" y2="377" fill="rgb(0, 0, 0)" stroke="rgb(204, 204, 204)" stroke-width="1px"></line></g></g><g transform="translate(41, 0)" clip-path="url(#clip_0)"><clipPath id="clip_0"><rect width="1243" height="377"></rect></clipPath><g><g><g><line x1="0" y1="0" x2="0" y2="377" fill="rgb(0, 0, 0)" stroke="rgb(189, 189, 189)" stroke-width="1px" opacity="0.25"></line><line x1="82.87720833333333" y1="0" x2="82.87720833333333" y2="377" fill="rgb(0, 0, 0)" stroke="rgb(189, 189, 189)" stroke-width="1px" opacity="0.25"></line><line x1="165.75441666666666" y1="0" x2="165.75441666666666" y2="377" fill="rgb(0, 0, 0)" stroke="rgb(189, 189, 189)" stroke-width="1px" opacity="0.25"></line><line x1="248.63162499999999" y1="0" x2="248.63162499999999" y2="377" fill="rgb(0, 0, 0)" stroke="rgb(189, 189, 189)" stroke-width="1px" opacity="0.25"></line><line x1="331.5088333333333" y1="0" x2="331.5088333333333" y2="377" fill="rgb(0, 0, 0)" stroke="rgb(189, 189, 189)" stroke-width="1px" opacity="0.25"></line><line x1="414.38604166666664" y1="0" x2="414.38604166666664" y2="377" fill="rgb(0, 0, 0)" stroke="rgb(189, 189, 189)" stroke-width="1px" opacity="0.25"></line><line x1="497.26324999999997" y1="0" x2="497.26324999999997" y2="377" fill="rgb(0, 0, 0)" stroke="rgb(189, 189, 189)" stroke-width="1px" opacity="0.25"></line><line x1="580.1404583333333" y1="0" x2="580.1404583333333" y2="377" fill="rgb(0, 0, 0)" stroke="rgb(189, 189, 189)" stroke-width="1px" opacity="0.25"></line><line x1="663.0176666666666" y1="0" x2="663.0176666666666" y2="377" fill="rgb(0, 0, 0)" stroke="rgb(189, 189, 189)" stroke-width="1px" opacity="0.25"></line><line x1="745.894875" y1="0" x2="745.894875" y2="377" fill="rgb(0, 0, 0)" stroke="rgb(189, 189, 189)" stroke-width="1px" opacity="0.25"></line><line x1="828.7720833333333" y1="0" x2="828.7720833333333" y2="377" fill="rgb(0, 0, 0)" stroke="rgb(189, 189, 189)" stroke-width="1px" opacity="0.25"></line><line x1="911.6492916666665" y1="0" x2="911.6492916666665" y2="377" fill="rgb(0, 0, 0)" stroke="rgb(189, 189, 189)" stroke-width="1px" opacity="0.25"></line><line x1="994.5264999999999" y1="0" x2="994.5264999999999" y2="377" fill="rgb(0, 0, 0)" stroke="rgb(189, 189, 189)" stroke-width="1px" opacity="0.25"></line><line x1="1077.4037083333333" y1="0" x2="1077.4037083333333" y2="377" fill="rgb(0, 0, 0)" stroke="rgb(189, 189, 189)" stroke-width="1px" opacity="0.25"></line><line x1="1160.2809166666666" y1="0" x2="1160.2809166666666" y2="377" fill="rgb(0, 0, 0)" stroke="rgb(189, 189, 189)" stroke-width="1px" opacity="0.25"></line><line x1="1243.158125" y1="0" x2="1243.158125" y2="377" fill="rgb(0, 0, 0)" stroke="rgb(189, 189, 189)" stroke-width="1px" opacity="0.25"></line></g><g><line x1="0" y1="377" x2="1243.158125" y2="377" fill="rgb(0, 0, 0)" stroke="rgb(189, 189, 189)" stroke-width="1px" opacity="0.25"></line><line x1="0" y1="350.07142857142856" x2="1243.158125" y2="350.07142857142856" fill="rgb(0, 0, 0)" stroke="rgb(189, 189, 189)" stroke-width="1px" opacity="0.25"></line><line x1="0" y1="323.1428571428571" x2="1243.158125" y2="323.1428571428571" fill="rgb(0, 0, 0)" stroke="rgb(189, 189, 189)" stroke-width="1px" opacity="0.25"></line><line x1="0" y1="296.2142857142857" x2="1243.158125" y2="296.2142857142857" fill="rgb(0, 0, 0)" stroke="rgb(189, 189, 189)" stroke-width="1px" opacity="0.25"></line><line x1="0" y1="269.2857142857143" x2="1243.158125" y2="269.2857142857143" fill="rgb(0, 0, 0)" stroke="rgb(189, 189, 189)" stroke-width="1px" opacity="0.25"></line><line x1="0" y1="242.35714285714286" x2="1243.158125" y2="242.35714285714286" fill="rgb(0, 0, 0)" stroke="rgb(189, 189, 189)" stroke-width="1px" opacity="0.25"></line><line x1="0" y1="215.42857142857142" x2="1243.158125" y2="215.42857142857142" fill="rgb(0, 0, 0)" stroke="rgb(189, 189, 189)" stroke-width="1px" opacity="0.25"></line><line x1="0" y1="188.5" x2="1243.158125" y2="188.5" fill="rgb(0, 0, 0)" stroke="rgb(189, 189, 189)" stroke-width="1px" opacity="0.25"></line><line x1="0" y1="161.57142857142858" x2="1243.158125" y2="161.57142857142858" fill="rgb(0, 0, 0)" stroke="rgb(189, 189, 189)" stroke-width="1px" opacity="0.25"></line><line x1="0" y1="134.64285714285714" x2="1243.158125" y2="134.64285714285714" fill="rgb(0, 0, 0)" stroke="rgb(189, 189, 189)" stroke-width="1px" opacity="0.25"></line><line x1="0" y1="107.71428571428575" x2="1243.158125" y2="107.71428571428575" fill="rgb(0, 0, 0)" stroke="rgb(189, 189, 189)" stroke-width="1px" opacity="0.25"></line><line x1="0" y1="80.78571428571429" x2="1243.158125" y2="80.78571428571429" fill="rgb(0, 0, 0)" stroke="rgb(189, 189, 189)" stroke-width="1px" opacity="0.25"></line><line x1="0" y1="53.85714285714292" x2="1243.158125" y2="53.85714285714292" fill="rgb(0, 0, 0)" stroke="rgb(189, 189, 189)" stroke-width="1px" opacity="0.25"></line><line x1="0" y1="26.92857142857146" x2="1243.158125" y2="26.92857142857146" fill="rgb(0, 0, 0)" stroke="rgb(189, 189, 189)" stroke-width="1px" opacity="0.25"></line><line x1="0" y1="0" x2="1243.158125" y2="0" fill="rgb(0, 0, 0)" stroke="rgb(189, 189, 189)" stroke-width="1px" opacity="0.25"></line></g></g></g><g><g><line x1="0" y1="565.5" x2="1243.158125" y2="565.5" fill="rgb(0, 0, 0)" stroke="rgb(153, 153, 153)" stroke-width="1.5px"></line></g></g><g><g><line x1="82.87720833333333" y1="0" x2="82.87720833333333" y2="377" fill="rgb(0, 0, 0)" stroke="rgb(153, 153, 153)" stroke-width="1.5px"></line></g></g><g><g><g><g><g><path stroke="rgb(255, 112, 67)" stroke-width="2px" d="M84.5347525,15.798195736748838L84.94913854166666,55.067353505046384L87.83326539166666,63.3352201054941L89.49080955833334,75.25237101550083L89.90519559999998,66.58638633255961L91.54616432499999,69.31441127011028L91.96055036666667,51.98579597761982L92.37493640833333,48.30054812519486L93.20370849166666,32.475555927777144L93.61809453333332,6.214535010795653L94.86125265833333,30.125862445017177L95.6734493,40.50436609620527L98.15976555,41.372026124023925L100.62950635833333,51.817391086263115L101.45827844166665,55.022392361830775L104.75679133333333,61.06578711988822L105.17117737499998,53.232868523665566L105.58556341666666,45.96174412683916L106.41433549999999,-0.9560993561725346L108.05530422499999,8.852164783247716L109.29846235,16.848551027838788L110.54162047499999,15.845865043111896L110.95600651666666,32.86156845186569L111.37039255833332,38.77999315661618L112.1825892,50.50077389244787L113.01136128333333,67.46890643735405L113.42574732499999,76.88070272251694L113.84013336666666,59.45376234469394L114.25451940833332,70.48294754058921L115.08329149166666,52.59349670888995L115.49767753333333,52.060112573711905L118.38180438333333,59.00590969510643L119.21057646666665,48.849239938338116L119.62496250833333,39.737014837970534L120.85154519166666,48.31584293460642L122.09470331666665,56.859751922026184L123.75224748333333,54.816194277634054L128.6917291,50.79531545749149L129.10611514166666,24.17826216399168L130.34927326666667,13.371086888581294L131.59243139166665,28.473322275639067L132.0068174333333,35.87072916799816L133.23340011666664,46.58680287553095L136.13410240833332,31.50350166656816L138.60384321666666,38.70020820499185L140.26138738333333,35.416632509107515L141.073584025,6.706417600069145L141.90235610833332,20.0634079917955L142.73112819166667,35.44339052371758L143.14551423333333,24.91552567182917L145.61525504166667,28.13370025764342L146.02964108333333,24.964820720629202L149.328153975,42.638915111315306L150.1569260583333,43.09500070375611L150.5713121,21.987903734700375L151.814470225,12.83925115392558L155.11298311666667,39.024233722722656L156.35614124166665,58.51798962981795L157.582723925,74.6306595334741L158.41149600833333,71.30706659519603L160.89781225833332,74.46413452320775L161.7100089,71.51648838642244L162.12439494166665,70.35659351993222L163.36755306666666,78.9441760677331L163.78193910833335,73.55486286976388L164.19632515,81.97431446585917L166.25167991666666,82.08098013063986L167.49483804166667,71.21826698239833L167.90922408333333,66.65183685937008L168.323610125,53.26955219107763L170.37896489166667,76.46668509209991L170.7933509333333,61.43656477331155L171.207736975,69.83007297817359L172.4508951,63.78805339579418L174.50624986666665,61.09599943671071L175.74940799166666,73.96886121632254L176.16379403333335,54.00799661115685L176.57818007499998,44.79208083386996L176.99256611666664,45.85349556780389L178.21914879999997,59.6227678173908L179.04792088333332,58.251439352818906L179.87669296666667,64.15237552295868L180.70546505,75.70194053652429L181.53423713333333,56.24881293094036L182.346433775,73.3465278216893L183.5895919,63.30193514790661L184.00397794166665,21.76322672071194L184.4183639833333,45.642673271015894L184.832750025,43.14329212391177L185.66152210833332,49.44663363932243L188.13126291666663,58.05288038675206L191.84416185,57.738374367666644L192.67293393333333,74.88627505515751L193.50170601666667,39.85323835930957L195.14267474166664,57.32913882598501L195.55706078333333,60.62854449382797L195.971446825,57.25155574780664L199.26995971666668,53.92495029886509L199.68434575833334,78.77514726495134L201.34188992499998,62.003197603309985L201.75627596666666,79.31232177631283L202.17066200833332,79.85652200599446L203.39724469166666,79.88616415812528L207.11014362499998,97.42308423444538L207.52452966666664,74.53940798536954L208.76768779166665,71.75636604330441L209.596459875,59.394328006417034L210.42523195833334,66.61273763417083L211.65181464166668,62.01523367196391L212.48058672499997,39.26063972511087L212.89497276666665,14.148154619210008L213.72374484999997,6.194583709194285L214.55251693333332,22.54215518495226L215.364713575,35.46176781273721L216.19348565833332,34.757000988271315L218.26541586666664,47.504877583920674L218.6798019083333,65.87211335528815L219.49199854999998,25.847685712379633L219.90638459166667,22.33246200130555L223.61928352500001,25.63278264622792L224.4480556083333,38.221531504992086L224.86244165,48.218234363277276L226.10559977499997,59.49841453987783L228.16095454166665,50.668313907947294L228.989726625,64.84488506034647L229.40411266666663,78.76090516573846L230.64727079166664,98.87321112473897L231.87385347499998,88.57080164212337L233.94578368333333,95.36889268646054L234.77455576666668,78.18252510666584L235.1889418083333,80.17855424017381L237.65868261666665,82.75738712523707L238.0730686583333,56.9203534112576L238.90184074166666,57.981519539759226L240.54280946666663,83.41061451350906L241.37158154999997,90.08355541817461L241.78596759166663,87.11779712407554L243.44351175833333,61.04117265594418L244.67009444166666,66.96039792176778L245.08448048333332,44.474218451630236L245.49886652499998,33.89973976638924L247.15641069166665,24.667191634706615L249.2117654583333,8.551657791030838L249.6261515,17.906840779093447L250.04053754166665,37.181445806192116L250.4549235833333,46.90220909855724L250.869309625,51.0904409385233L251.28369566666666,51.84915953268455L254.58220855833332,55.594545912757155L255.82536668333333,26.132863830508516L256.637563325,35.334297926058454L259.9526516583333,60.27304202759086L262.00800642499996,60.83450838210285L262.4223924666666,76.25521770514517L262.83677850833334,95.04959752538032L263.25116455,80.32737648437895L263.66555059166666,68.72390283141442L265.30651931666665,31.305299447363502L267.37844952499995,64.96217861846668L268.2072216083333,50.361214987820595L270.262576375,45.42152854355924L270.67696241666664,47.097236806875856L272.33450658333334,64.73987639690576L273.146703225,68.53664131171816L273.5610892666666,56.575080942136665L274.80424739166665,59.00979066235835L276.04740551666663,36.40506073985894L276.46179155833335,65.19081864762393L278.10276028333334,59.83501318159505L278.51714632499994,77.71167487162597L280.17469049166664,81.25011596944417L282.6444313,59.7544844530108L283.05881734166667,68.63225807224288L283.4732033833333,27.068928107229638L284.30197546666665,51.90347368498331L284.7163615083333,40.055631907497805L285.52855815,25.814922967894255L286.3573302333333,37.642456354524775L286.77171627499996,48.31943156761046L287.1861023166666,60.78196166067802L287.60048835833334,62.36790573815007L289.655843125,77.16294321314999L290.4846152083333,91.45812317869901L290.89900125,93.79008472532752L291.31338729166663,121.71260383525988L292.14215937499995,105.23797514341777L294.19751414166666,85.59735559293524L294.6119001833333,80.82399953668686L296.26944435,41.19683456449324L296.6838303916666,41.44376432574964L297.91041307499995,56.740842869761714L298.7391851583333,71.50398914605769L300.39672932499997,59.32123921214534L300.8111153666667,79.5033313264521L302.4520840916667,88.8734900140671L302.8664701333333,87.75394967739284L303.280856175,83.31973061301599L303.69524221666666,91.71391575529125L304.5240143,81.96700328995827L304.93840034166664,60.959729809717366L306.57936906666663,66.58745277749141L306.99375510833335,58.17778718194866L307.40814115,58.99081879319944L308.2369132333333,54.715104353945506L309.4800713583333,64.4383929918711L311.53542612499996,74.98867971212347L313.19297029166665,93.2197899181251L313.60735633333326,66.6095523865047L315.2483250583333,71.00687055292599L316.49148318333334,85.79729276109886L316.90586922499995,51.183692028302275L317.32025526666666,59.44344944015484L317.7346413083333,56.9397584447566L318.54683795,60.575512998751016L318.96122399166666,54.291248667795216L320.20438211666664,46.71991106668224L320.6187681583333,73.87028804154006L321.0331542,63.937920172130724L321.4475402416666,50.434389758630445L323.0885089666666,44.6740915499652L325.9892112583333,52.7124912409608L327.6301799833333,42.18403483198168L328.044566025,60.91125837415996L328.8733381083333,84.84599086912993L329.28772415,81.59199542635302L329.7021101916667,78.4673776148114L330.92869287499997,89.42115412836887L331.7574649583333,88.12584474194554L332.58623704166666,96.26448851524603L333.415009125,53.71929309925031L333.82939516666664,86.03246364336206L335.47036389166664,77.08173343989237L336.29913597499996,82.71400343963022L337.54229409999994,48.45956453480004L337.95668014166665,61.21763904592629L340.8408069916666,69.35419668375887L341.25519303333334,90.30177172867347L341.66957907499994,71.36229971669212L343.7249338416666,99.48650189943018L344.96809196666663,69.47354850522652L345.79686405,7.00946707076216L347.437832775,6.040653671079179L349.0953769416667,20.075695836223506L350.7529211083333,38.016078014319724L351.56511774999996,63.39992014990156L351.9795037916667,57.04034566891606L352.808275875,54.31016556544082L353.6370479583333,71.68381515883628L354.051434,80.17411403874819L354.4658200416667,79.94525280254126L355.69240272499997,88.76433605440955L356.52117480833334,78.73736487370684L356.93556084999994,72.95380632204042L357.34994689166666,72.07561662849768L357.7643329333333,91.65843917213627L359.00749105833336,83.3638323259999L359.8196877,101.55121915045218L361.89161790833333,101.42501571073973L362.72038999166665,103.02104122361214L364.36135871666664,74.0778951513076L364.7757447583333,10.06497915230749L365.6045168416666,23.72638953789147L366.433288925,50.02906687318425L367.2620610083333,36.56360807357772L368.4886436916666,8.328291124188935L368.9030297333333,27.41334619178826L370.1461878583333,65.94579754963777L370.9749599416666,72.90096974998258L371.3893459833333,66.48626767494102L373.44470075,53.15034090195285L375.1022449166667,82.42539344302178L376.74321364166667,77.56404279151084L377.15759968333333,77.1746733746993L377.571985725,85.8514599628978L377.98637176666665,84.81076621662855L378.40075780833337,104.34091196839474L380.8704986166666,105.86754033123286L381.69927069999994,94.01532232145287L382.11365674166666,77.04718475080834L382.5280427833333,85.50175392206621L382.942428825,86.04195714894212L383.35681486666664,80.7840092909138L384.99778359166663,89.3973641189198L385.826555675,95.55180186291638L389.12506856666664,87.68672637524281L390.3682266916666,115.2949063486601L392.8379675,111.06810301206015L393.25235354166665,100.5061338716197L393.6667395833333,95.26737619737638L394.9098977083333,94.07993132779896L395.73866979166667,71.88890921765639L396.15305583333327,76.74964275317672L396.96525247499994,102.07250480417785L398.2084106,76.82876589066282L400.2803408083333,88.43236314883657L401.50692349166667,92.82684451084916L402.33569557499993,82.50059358979087L402.75008161666665,87.83305265087968L403.57885369999997,75.96880883395316L405.219822425,90.67785434759267L405.6342084666666,94.31630021291032L406.46298054999994,90.78644438015503L408.12052471666664,99.68724616310811L408.5349107583333,103.76669215547886L409.76149344166663,118.37223947473994L411.0046515666666,110.97693555823439L411.83342365,116.66919714472152L413.474392375,114.76638465194632L413.8887784166667,110.78026594042318L414.71755049999996,102.34617876902324L415.5463225833333,103.23902606891167L415.960708625,109.04614151154276L416.7894807083333,104.17873628921186L417.60167735,97.05318484410746L418.4304494333333,67.52509417130129L418.84483547499997,75.77918503478676L419.2592215166667,78.92816886220378L421.72896232499994,78.46554728473731L423.38650649166664,81.92267761942176L423.80089253333335,67.80550626026805L424.21527857499996,73.0839147221835L429.17133563333334,54.78939241644567L429.983532275,84.88283089305172L430.81230435833334,85.42509767721882L433.2986206083333,84.1060827630231L434.11081724999997,91.0988229189827L435.353975375,103.0903883929071L435.7683614166666,76.39301238229709L437.0115195416666,71.8580717783274L438.65248826666664,86.03478615186609L439.0668743083333,84.22115729229763L439.8956463916667,49.81660107500193L440.3100324333333,57.084298425432486L440.724418475,56.226113675070806L441.13880451666665,37.665916487484L441.5531905583333,61.02159475315948L444.4373174083333,66.74933744675168L445.68047553333327,50.57337483836163L449.3933744666666,58.60730103943663L451.863115275,63.671744197664076L452.27750131666664,66.8124158106079L452.6918873583333,79.8380354074774L453.1062734,93.2151902363113L454.747242125,97.511225505138L458.0623304583333,107.79278820880486L458.87452709999997,111.83778227912296L459.7032991833333,99.23336227504956L460.53207126666666,90.58769890192846L462.1896154333333,68.34663413900161L463.001812075,82.56063697621418L464.65935624166667,92.94698533903625L465.0737422833333,74.75123194925305L465.90251436666665,69.26897360363795L466.31690040833325,78.16580593422495L467.1290970499999,90.58978318883361L467.9578691333333,102.14398624697692L468.37225517499996,98.69744474203377L469.61541329999994,90.32927716900033L470.4441853833333,93.76997843233273L472.91392619166663,117.90722093348401L473.3283122333333,119.121693502561L474.57147035833333,97.0405718383916L476.2124390833333,115.27581583458561L477.4555972083333,96.45143031888357L478.2843692916666,97.31090104279694L479.9253380166667,103.85258522164126L480.3397240583333,84.5771482030598L481.99726822499997,77.81037304850186L482.41165426666663,67.68165189546296L488.59429400833335,69.4051420426901L489.00868004999995,70.31495896108133L489.42306609166667,88.4330526245821L491.0806102583333,96.31934183297587L492.30719294166664,86.99805346605945L493.5503510666666,113.11402178015182L494.37912314999994,70.74680244384595L494.79350919166666,88.5422437596124L496.4344779166666,99.87172679671544L496.8488639583333,96.80152142329953L497.67763604166663,92.64388874285464L498.9207941666666,80.03568688581946L499.3351802083333,85.90951084323973L500.5617628916666,89.45055707156438L500.9761489333333,89.92882264187352L502.2193070583333,60.26499478334333L504.27466182499995,58.02296938149605L504.68904786666667,79.03962136290968L505.51781995,66.24845153606257L506.3465920333333,58.07490754231099L508.40194679999996,57.89154672695195L508.8163328416666,68.03391793335862L509.64510492499994,69.49961598108273L510.05949096666666,83.71445746111202L510.47387700833326,55.37166860294903L510.88826305,39.826878194444994L511.7170351333333,64.59261348726137L513.7723898999999,74.76893054888467L514.6011619833333,64.86658153829764L515.0155480249999,90.63767314028053L516.65651675,93.22337772044315L518.3140609166667,88.31432221362215L519.5572190416666,109.22529095573539L521.1981877666666,95.49101783576498L521.6125738083333,71.61090677996499L523.270117975,65.07665452545332L524.0988900583333,74.59676021764488L524.9110866999999,88.80393763313138L525.7398587833333,98.88604104583364L526.5686308666667,99.56977261690584L526.9830169083333,75.62387977239999L528.2261750333333,90.2596282424924L530.6959158416666,91.15744596216996L531.524687925,106.28756911658137L531.9390739666667,90.81331190212023L533.16565665,85.10262853026802L533.5800426916667,104.69353349548017L535.2375868583333,76.10437850065607L537.2929416249999,71.16939393444741L538.1217137083333,60.76561224012577L538.9504857916667,65.38234484392987L539.779257875,95.26648036720229L540.6080299583333,112.28100575152062L541.4202266,110.31282201097244L542.663384725,127.91257238212165L543.0777707666666,110.54927603734727L543.4921568083333,88.01745322890604L544.3209288916667,79.56429667385262L546.7906697,108.60021812241422L547.6194417833333,121.61119375506135L548.4482138666666,95.46571031185488L548.8625999083333,96.24740093969915L549.67479655,88.33604329244818L551.7467267583332,73.09334821721058L553.802081525,79.32782206958068L554.6308536083334,61.2854044317136L555.04523965,60.113932533019444L557.9293664999999,61.604689617735005L558.3437525416666,70.22327670042439L558.7581385833333,47.86472890897192L559.1725246249999,66.85329115959246L559.5869106666667,70.49768685159789L561.2444548333333,104.59757467565471L562.8854235583333,103.92318893762128L565.3717398083334,97.13789558457381L566.18393645,91.03975019487672L567.427094575,124.64911722682969L568.2558666583333,123.47261929534868L568.6702527,108.72990556630732L569.0846387416666,112.19209191112135L570.311221425,84.1186831531797L571.55437955,86.84869173248018L572.3831516333332,99.74154044317223L573.2119237166667,114.32596661295544L573.6263097583333,118.1680461384933L574.4385063999999,88.98691978779003L574.8528924416667,103.774939814863L575.2672784833333,102.64732946701291L575.681664525,88.76995085330589L576.92482265,44.76377263834608L577.3392086916666,73.13798482238627L578.5657913749999,66.79120278982175L578.9801774166666,84.31042656483608L579.3945634583333,99.83553854651893L580.6377215833334,93.81710245514978L581.052107625,105.00789933104579L581.4664936666667,109.90882468085408L583.5218484333333,115.3055297688622L586.820361325,126.87952943819332L587.6491334083333,116.05584478785603L588.4779054916667,81.05379075267352L588.8922915333333,59.584140068074575L589.306677575,91.41923040553559L590.9476463,78.2592325349403L591.7764183833333,88.11109777128114L592.6051904666666,91.53880026850467L593.0195765083333,120.3761359093806L593.8483485916666,105.79977373945266L596.3180894,101.29486353066851L597.1468614833333,94.96826486083681L597.561247525,102.1602541728173L599.20221625,111.6149941518823L599.6166022916666,103.19744341587891L600.4453743749999,107.65368574088214L600.8597604166666,120.34529531229742L601.6885325,124.28058667342312L602.1029185416667,108.0452343243448L603.329501225,125.39335534868681L603.7438872666667,121.10741060362025L604.1582733083333,72.89508578265037L605.4014314333333,86.53384207332878L606.6445895583333,114.86152789161214L608.6999443249999,87.08320946425411L609.5287164083333,23.93844745039666L610.3574884916666,43.00921944500526L610.7718745333333,66.36651570830385L611.584071175,67.2291941890331L611.9984572166667,95.25488435059984L614.8991595083332,74.53645413981732L616.1257421916666,67.75934525550485L616.954514275,78.60431206663921L618.1976724,90.00822644540001L621.0817992499999,90.00769566954716L621.4961852916666,115.18776791572799L622.324957375,104.77117903668703L622.7393434166667,90.55942556720579L623.1537294583333,59.65184867660465L625.209084225,76.24720214119026L626.0378563083333,90.12316614747232L626.8666283916666,100.75091187097473L628.093211075,89.47197063493645L628.5075971166666,85.93822707032425L628.9219831583332,76.05876534374951L630.1651412833332,92.84663772276863L630.579527325,92.83775464082038L630.9939133666666,109.83439669748564L632.22049605,103.16482251162763L632.6348820916666,124.90636742207215L633.8780402166666,92.48497808214417L635.5355843833333,94.29946994434982L636.347781025,97.41272017713216L636.7621670666666,91.1708972781096L637.5909391499999,106.97176843786599L639.2484833166666,111.09383328660809L639.6628693583333,108.85933988992939L641.718224125,113.18971661719877L643.7901543333334,102.80149847831994L645.0167370166668,91.67358611960736L646.6742811833333,102.55369047892053L647.9174393083333,105.59143886339464L648.7296359499999,80.94010990733454L650.8015661583333,91.05366322821848L651.6303382416667,100.775272140318L652.8569209249999,88.47007754673953L653.2713069666667,97.57963677336625L653.6856930083333,104.86454308209002L654.5144650916667,95.54414669057891L655.7576232166667,103.17936121532992L656.1720092583333,110.43550283630317L656.9842058999999,97.02293628497655L657.3985919416666,39.45582028742955L658.2273640249999,67.76360935785945L659.0561361083332,83.27897877666355L659.4705221499999,56.984555851203616L661.1114908750001,90.44031382016254L661.5258769166667,98.95143490294392L664.0121931666666,101.82319406522583L666.0675479333332,111.56893482333284L668.1394781416666,107.40113667132844L668.5538641833333,114.39018935683751L669.366060825,103.68052437382738L671.0236049916666,115.59172672564249L672.2667631166667,109.74634704876351L674.736503925,113.02710129597807L675.97966205,77.97991326070576L678.4494028583333,94.64808630208466L678.8637888999999,95.82755200689107L680.106947025,114.34405379446181L682.1623017916666,82.95080784426422L683.8198459583333,90.83893851408621L686.2895867666666,90.17073364633801L688.361516975,77.6285007475878L689.1902890583333,97.86654037503149L690.8312577833333,101.94797413961086L691.2456438249999,110.46811007621515L692.0744159083333,110.94198689900254L695.3729288,103.16022672313716L699.5002137749999,111.68997111389396L699.9145998166666,100.40445964520866L700.7433718999999,121.03638873161293L701.1577579416667,112.70526159737928L702.7987266666667,102.22680093359189L703.2131127083333,89.70537430077098L704.0418847916667,113.72039558822706L705.6994289583333,94.72237775757269L706.9260116416666,124.55207228656093L708.5835558083332,129.08315174746772L708.9979418500001,108.32882417148703L709.4123278916667,132.12473228437725L709.8267139333333,99.44253550204324L710.638910575,100.51123739614395L712.2964547416666,93.93678088605135L713.5396128666666,91.57457857321654L713.9539989083332,79.6712304223942L716.0093536749999,80.99092421815364L718.0812838833332,75.39014724385072L718.893480525,105.6596690522879L720.5510246916666,124.4529437735751L721.7941828166666,123.51822747054368L723.8495375833334,126.71654172992004L732.518493575,122.34573368976646L732.9328796166666,143.18814635003704L734.5904237833333,127.20425722918765L739.5299054,115.85373436640717L739.9442914416667,136.544481682539L741.6018356083333,141.16761343394344L742.4306076916666,98.35715771104849L742.8449937333332,98.31581992860521L743.6571903749999,94.45425090517858L744.0715764166666,94.02259015710388L745.3147345416667,91.25627597852697L746.5578926666667,99.61293200673418L747.78447535,100.70193405223257L748.6132474333333,119.49366825767163L749.0276334749999,113.89737265840066L749.8564055583332,124.4234873492391L750.2707915999999,136.90697789348974L751.0995636833333,142.76680576740745L751.911760325,126.79781796208634L752.3261463666666,112.87343503036803L752.7405324083333,92.85138656084544L753.15491845,63.97207336026363L753.9836905333333,65.3675065908402L757.282203425,95.71771754821839L758.52536155,83.39299777775072L758.9397475916667,85.96936345239821L760.166330275,91.02739641423409L763.0670325666666,55.28547129835596L765.1223873333333,51.07212819889752L765.9511594166665,27.88156843207322L766.3655454583334,36.226353953719155L767.6087035833334,72.63914385142162L768.420900225,93.74806220537273L770.0784443916666,108.2952072866029L770.4928304333333,105.2283281038433L770.9072164749999,121.9972222310607L771.7359885583334,125.49659589167564L775.03450145,119.61439105308772L775.4488874916666,125.84545254954261L775.8632735333333,124.99106829509563L777.0898562166666,155.83757062471L777.9186282999999,191.15546584896938L778.3330143416665,216.4145314048957L781.6315272333333,223.3184496207043L783.7034574416667,246.07088665069173L786.5875842916666,256.59230480352335L787.8307424166667,264.25011005376143L788.2451284583333,285.12559856550234L789.8860971833333,293.06126482305643L793.184610075,288.67560409248847L794.4277682000001,278.776498048406L794.8421542416667,290.5789888915016L795.2565402833333,280.21724801491143L799.3838252583332,279.3658910093267L800.6269833833333,294.24903007601046L801.439180025,294.06278113076553L802.2679521083332,282.3801551214178L803.0967241916666,289.8094662306063L803.5111102333333,299.38237203783973L803.925496275,300.1946381665031L804.3398823166666,294.27909027636224L805.9808510416666,297.80907198671906L806.809623125,297.0483688580615L807.6383952083332,291.6946731211366L808.05278125,285.6512258232768L808.4671672916666,281.95205488953656L810.1081360166665,289.90244704719515L812.180066225,289.8574650091175L814.6498070333333,286.34743583359887L815.0641930749999,277.6010947459893L815.4785791166665,285.51157072110385L817.1361232833333,278.27882451659826L817.948319925,286.42438660597134L818.3627059666666,284.95153491330024L822.0756048999999,305.6757209989232L822.9043769833333,293.22430421503856L823.318763025,292.5378285246281L824.1475351083333,296.79015454403304L827.0316619583333,296.8492266974045L827.8604340416666,301.6466165985642L828.6892061249999,313.5432437384312L829.1035921666667,323.29331801574153L831.1589469333333,322.6502826389522L832.8164910999999,304.13971037391497L833.6452631833333,300.4695281887991L835.2862319083333,294.45805961254405L835.7006179499999,301.4260088860698L837.7725481583333,310.1879019812823L838.5847448000001,308.6248028126897L839.4135168833333,309.75454490146404L840.2422889666666,320.4048312143637L840.6566750083333,319.6587909618609L841.07106105,306.4110529244231L841.4854470916666,308.55407040742756L842.712029775,306.180683435139L843.5408018583332,300.14429060725524L845.198346025,294.0947779055577L846.0271181083333,293.48961740245556L847.2537007916666,304.91954891511324L848.4968589166666,293.21368714043035L848.9112449583332,299.81776934458503L850.9665997249999,303.35996995881777L852.20975785,291.22116317397973L853.0385299333332,287.5485148316742L853.452915975,309.52758754977145L854.2816880583332,302.91611962470836L855.9226567833333,307.8099216524643L856.3370428249999,304.3726416237159L856.7514288666666,298.2807093310117L857.1658149083333,305.3765492549116L859.6355557166665,308.0706635833044L860.0499417583334,286.5070837325889L860.4643278,295.2781965215502L862.1218719666666,304.9420257138289L862.5362580083333,304.8863455474757L863.7628406916665,309.7565515665763L864.5916127749999,299.85172949291285L865.8347709,300.5643968991997L866.6635429833333,291.20966215107495L867.475739625,286.46632697291443L867.8901256666667,299.034272522764L868.3045117083333,303.92475878114914L870.7908279583334,300.90789408610766L872.846182725,312.6273476159571L873.2605687666667,297.46929118679236L873.6749548083333,301.0466689525144L874.0893408499999,303.3596986887664L876.5590816583333,314.3205411963984L880.2719805916666,309.1408512205352L880.6863666333333,300.42573006680044L882.3439107999999,296.9845245370966L883.1726828833332,303.294262019219L884.8136516083332,301.2991047206901L885.22803765,318.6589750075138L885.6424236916666,325.5077269127908L886.0568097333332,320.3847628518176L886.8855818166667,324.2206601732222L887.2999678583333,313.4621774639816L888.9409365833333,320.8103974810958L891.0128667916666,326.6133095568621L891.4272528333332,327.3392448047286L892.6538355166666,334.89813387472685L893.8969936416667,326.2888595918649L897.1955065333334,327.32634380081134L897.609892575,329.75604776602745L898.0242786166666,336.7909451520196L899.2674367416666,334.65978520028904L901.3227915083334,336.7434450354949L901.73717755,323.8639767947254L902.1515635916666,332.2409277600056L903.3947217166666,331.096254670135L903.8091077583333,338.99663941877344L905.0356904416666,340.9177064387636L905.8644625249999,332.2093671570834L906.6932346083333,334.04524411377486L908.7485893749999,351.0466053717536L909.5773614583333,335.9660741542449L912.0636777083333,339.99075094813224L913.2902603916667,328.72631750727714L914.9478045583332,306.5222377347132L917.4175453666667,311.73188464612025L919.0750895333333,315.59968422988237L920.3182476583332,304.3799903384021L921.1304442999999,295.6753484719813L921.9592163833332,303.3047799513129L922.3736024249998,310.9953892356214L923.2023745083333,318.8628156596377L923.6167605499999,326.9660879499625L924.0311465916667,325.9341077007263L925.257729275,319.01915275152675L925.6721153166666,332.2611228241397L926.0865013583333,325.8053993268805L929.38501425,330.2461485293874L929.7994002916666,328.8559002861254L930.2137863333332,320.66250176069104L930.628172375,322.0945440231351L931.8713305,326.8133912387786L935.998615475,335.75007901172063L938.0539702416665,340.59543541094104L938.4683562833333,333.21323379420124L938.882742325,320.9059155172679L939.2971283666666,320.24747400900026L940.9546725333332,317.1534766880663L941.766869175,331.4319414298756L942.5956412583333,318.9579846013871L943.0100272999999,309.9117146002609L943.8387993833334,322.1544124528064L945.0819575083333,317.76734350291093L946.7229262333333,321.5591970452514L947.137312275,322.243560942686L947.9660843583333,320.988381499636L948.7948564416665,318.6107155327967L950.0214391249999,328.40878310714965L952.0933693333333,334.6228335217103L954.1487240999999,342.9351578037764L955.3918822249999,347.3847934688279L957.0494263916665,351.1352127492035L958.2760090749999,346.1656345584288L958.6903951166667,341.0089853860884L959.1047811583333,330.3427268355226L960.3479392833333,328.35116516120047L962.8176800916666,314.5646249603336L965.3039963416667,325.74099262272193L965.7183823833333,327.43916405439785L966.5305790249998,336.11544411165664L967.7737371499999,334.9027578541742L969.0168952749999,335.65413341457815L970.657864,348.2575134420996L971.0722500416666,336.7276116340581L972.7297942083333,330.29396522631527L973.14418025,324.0098322330378L973.5585662916666,320.28539991921565L975.1995350166666,323.86914223131294L976.0283071,321.9935139720129L977.271465225,323.6882564202943L977.6858512666666,323.90738948303164L978.9124339499999,325.7813271737904L980.155592075,316.028530096417L981.8131362416666,312.35000759441033L982.2275222833332,316.3079925593649L983.039718925,324.0259631821496L983.4541049666666,312.88367088337765L983.8684910083332,311.70493298163035L984.6972630916666,307.59598228251804L985.1116491333332,308.4838386491477L985.526035175,317.5481238456871L985.9404212166666,320.88528235174783L988.8245480666666,320.6344069213329L989.6533201499999,324.873599281144L990.4820922333333,325.4098086416914L991.2942888749999,317.85242473220467L991.7086749166666,328.4221842501343L992.1230609583333,326.39174900008845L992.5374469999999,326.5717162737005L993.3662190833334,334.91382264692L994.1949911666666,331.1943808331833L994.6093772083333,330.8834827022929L996.2503459333333,329.4931785373202L996.6647319749999,332.5525110138417L997.9078900999999,335.1605647678532L1007.8034287749999,338.69350031684206L1008.2178148166666,339.1765518494799L1009.8753589833333,335.11259971446844L1010.2897450249999,333.60800555759465L1010.7041310666666,343.53777837146976L1011.9307137499999,348.6771926377633L1012.3450997916666,338.6166496453207L1013.1738718749999,343.1841303965855L1014.4170299999998,340.22955884792833L1014.8314160416667,334.9004160748583L1016.057998725,327.87124038841955L1016.4723847666667,331.4729336304643L1016.8867708083333,329.04036242274407L1018.544314975,342.37312312564535L1018.9587010166666,333.2706289354425L1020.1852837,325.0507307394766L1020.5996697416666,327.23231083676467L1021.8428278666667,332.2509452583871L1022.67159995,326.3827203924338L1025.1413407583332,314.81852840856305L1025.5557268,319.76652693043206L1025.9701128416666,318.77173350981485L1026.3844988833332,316.2344823646899L1030.9261698999999,328.31717463880693L1031.3405559416665,332.6413945588251L1032.5671386249999,336.0417338513281L1034.2246827916665,325.1099937482169L1035.8822269583334,326.16572024375347L1036.6944236,329.00623300154393L1038.7663538083334,326.8167333196302L1039.5951258916666,327.9407422300525L1040.0095119333332,328.9406790180731L1041.2360946166666,335.46519677857947L1041.6504806583332,334.58375868456693L1042.0648666999998,337.0984498224939L1043.7224108666665,318.0356447942937L1044.1367969083333,324.830086640157L1044.9489935499998,325.35033819008794L1045.3633795916667,323.21864968786883L1046.1921516749999,325.3207284629717L1047.4353098,332.0298926509539L1047.8496958416667,345.30629292439687L1048.2640818833333,327.1289535616483L1049.076278525,315.1170424326228L1050.31943665,309.15903666231515L1050.7338226916665,315.5596010415413L1052.3913668583332,325.4362072159907L1053.2035635,326.7598036608426L1054.8611076666666,334.11047717387487L1055.2754937083332,342.83366913459065L1056.1042657916666,345.3705421993004L1056.5186518333333,341.5464880059652L1057.330848475,338.383926017418L1058.1596205583332,328.92665525111966L1058.5740066,330.4004032654191L1061.8725194916667,328.61562380150474L1062.2869055333333,331.30399294507225L1062.701291575,334.58320904356725L1063.9444497,332.73923184169786L1065.9998044666665,335.05318641052065L1068.4861207166666,321.7179764960331L1068.9005067583332,331.75778839254946L1070.955861525,320.2247265659576L1071.3702475666666,309.3037561934015L1073.0277917333333,299.7794524977324L1073.8399883749998,303.68677673330785L1074.2543744166667,320.1973157808828L1074.6687604583333,339.371305446393L1077.96727335,340.07005855111527L1079.6248175166666,340.20343846746056L1080.4535896,343.39243633615416L1080.8679756416666,332.4716445162615L1084.1664885333332,318.715773216573L1084.9952606166667,312.75873772690255L1086.2218432999998,318.5909253323487L1087.0506153833333,320.5940253394788L1089.1225455916665,321.05267060489786L1091.5922864,323.42184996745067L1092.4210584833334,311.6859579283443L1092.835444525,327.5714293158109L1093.2498305666666,331.98473973439803L1094.8907992916666,330.58618114859814L1096.1339574166666,336.79594272163325L1096.9627294999998,341.35868474607724L1097.3771155416666,334.7374757090477L1098.6036982249998,333.21514341491195L1099.0180842666666,343.2090709035778L1099.4324703083332,342.0207793820955L1101.5044005166667,329.4984164705501L1101.9187865583333,330.96360669173043L1102.7309832,322.23488889481695L1103.5597552833333,337.58238429724565L1104.3885273666667,333.1639844190606L1107.2726542166665,325.3502738807384L1108.5158123416666,327.4593209541347L1109.7589704666666,330.53367077638535L1111.3999391916666,344.11467410626324L1112.228711275,337.26140371328495L1116.7703822916667,332.25714734834276L1118.0135404166665,335.1553987092135L1118.427926458333,332.1127972013773L1121.3120533083334,332.6712033097858L1122.1408253916666,332.98084546710885L1122.5552114333334,340.39691211747356L1125.853724325,337.862621715295L1126.6824964083332,345.8031765412824L1128.7378511749998,325.1502197024159L1129.1522372166664,327.10358115975305L1130.8097813833333,324.109943736489L1133.6939082333333,316.7968641987283L1134.108294275,320.77088383985574L1134.5226803166668,301.59553196423076L1137.8211932083332,318.2688639492149L1140.2909340166666,322.76360214521117L1140.7053200583332,319.8231160592056L1141.1197060999998,321.9254152425695L1141.9484781833332,331.9949851685761L1142.7772502666667,323.17192490646653L1144.8326050333333,320.609862828499L1145.2469910749999,321.75476748415474L1146.4901492,328.04407888690116L1148.9598900083333,326.74058999276366L1151.4462062583332,334.7423467742764L1152.6727889416666,332.29948484111515L1153.9159470666666,328.4470865662929L1156.385687875,320.75734478812245L1157.2144599583332,332.4013076899251L1157.628846,330.3415768827884L1158.0432320416667,333.0856027228613L1158.8720041249999,323.12067767825295L1159.2863901666665,313.3000995672149L1159.7007762083333,315.276617303723L1161.3417449333333,311.7385984339382L1161.756130975,307.3263455243696L1162.1705170166665,317.7536940526078L1163.8280611833331,321.5225809846667L1165.0546438666665,330.0788799190565L1166.2978019916666,327.66192081959207L1167.5409601166666,326.98092444513054L1169.1819288416666,337.453918572397L1170.4250869666666,336.6049558714801L1171.2538590499998,324.48114836470415L1173.7235998583333,313.9380058698073L1176.2099161083333,314.09156324375033L1178.6796569166668,309.59937812480325L1179.508429,317.54119561485686L1180.3372010833332,313.8448227488199L1181.149397725,316.66812921268144L1181.5637837666666,318.7259169857299L1181.9781698083332,317.46395567256667L1182.3925558499998,333.3349977119656L1182.8069418916666,323.0858361420329L1184.0501000166666,311.555979714461L1187.3486129083333,317.42061226989154L1188.5917710333333,329.525430179755L1189.403967675,328.5959712729409L1190.6471258,329.75991143926575L1192.3046699666666,328.29237851799746L1196.4319549416666,328.44510968664713L1198.0729236666666,322.38509850542204L1199.7304678333333,323.99663058394225L1200.144853875,325.76918436150146L1200.9736259583333,326.9522425273996L1201.7858225999998,324.03460731400924L1202.6145946833333,326.74994885813624L1203.0289807249999,320.9601092612005L1204.27213885,327.37191617529675L1205.913107575,329.73957970596683L1207.5706517416666,325.92330940649754L1208.399423825,331.4716127293744L1209.2281959083334,331.35575305974834" style="fill: none;" fill="none"></path></g></g></g></g><g opacity="0.2"><g><g><g><path stroke="rgb(255, 112, 67)" stroke-width="2px" d="M84.5347525,15.798195736748838L84.94913854166666,82.55576394285478L87.83326539166666,73.17398136002679L89.49080955833334,93.52136336054124L89.90519559999998,51.22072889123645L91.54616432499999,74.60997143813543L91.96055036666667,16.309313569750117L92.37493640833333,40.4097938197L93.20370849166666,-2.3207741464886746L93.61809453333332,-52.58848432132177L94.86125265833333,84.34294288499017L95.6734493,64.24203511646819L98.15976555,43.36854394844603L100.62950635833333,75.9537664140974L101.45827844166665,62.45000886917114L104.75679133333333,75.10009498255596L105.17117737499998,35.01679766178131L105.58556341666666,29.03525519371037L106.41433549999999,-110.25279695647097L108.05530422499999,31.712026987757014L109.29846235,35.49189777033672L110.54162047499999,13.507571186338183L110.95600651666666,72.54935312271118L111.37039255833332,52.585871270724724L112.1825892,77.84402281897411L113.01136128333333,107.0559061084475L113.42574732499999,98.83949915000372L113.84013336666666,18.793573515755796L114.25451940833332,96.21652923311505L115.08329149166666,10.852788822991513L115.49767753333333,50.81557764325824L118.38180438333333,75.21251394067492L119.21057646666665,25.150605576378965L119.62496250833333,18.47532064574108L120.85154519166666,68.3330001660756L122.09470331666665,76.79546403884888L123.75224748333333,50.047905751637074L128.6917291,41.413282292229795L129.10611514166666,-37.92811482293263L130.34927326666667,-11.845632484980968L131.59243139166665,63.71184907640733L132.0068174333333,53.1313375575202L133.23340011666664,71.59096705913544L136.13410240833332,-3.6908601352146215L138.60384321666666,55.49252089432311L140.26138738333333,27.75495670522966L141.073584025,-60.28407883644104L141.90235610833332,51.22971727166858L142.73112819166667,71.33001511437554L143.14551423333333,0.3505083152226398L145.61525504166667,35.642774156161735L146.02964108333333,17.570768560682055L149.328153975,83.8784683261599L150.1569260583333,44.15920041288652L150.5713121,-27.261988980429464L151.814470225,-8.507604803357793L155.11298311666667,100.12252625397277L156.35614124166665,104.00342001233783L157.582723925,112.22688926969256L158.41149600833333,63.552016411508845L160.89781225833332,81.83062635149278L161.7100089,64.63864740303588L162.12439494166665,67.65017216546197L163.36755306666666,98.98186867577691L163.78193910833335,60.97979874270305L164.19632515,101.61970152173724L166.25167991666666,82.32986668178015L167.49483804166667,45.87193630422868L167.90922408333333,55.99683323928289L168.323610125,22.044221299035215L170.37896489166667,130.59332852704185L170.7933509333333,26.3662840298244L171.207736975,89.41492545604706L172.4508951,49.690007703644895L174.50624986666665,54.814540198871086L175.74940799166666,104.00553870201111L176.16379403333335,7.432645865849111L176.57818007499998,23.288277353559252L176.99256611666664,48.33012994698119L178.21914879999997,91.75106973307476L179.04792088333332,55.05167293548584L179.87669296666667,77.92122658661437L180.70546505,102.65092556817193L181.53423713333333,10.85818185125079L182.346433775,113.24119590009961L183.5895919,39.86455224241533L184.00397794166665,-75.1604262760707L184.4183639833333,101.36138188838959L184.832750025,37.31140278066911L185.66152210833332,64.15443050861359L188.13126291666663,78.13412279742107L191.84416185,57.004526989800596L192.67293393333333,114.89804332596917L193.50170601666667,-41.89051393100195L195.14267474166664,98.1062399148941L195.55706078333333,68.32715771879472L195.971446825,49.371915340423584L199.26995971666668,46.16287091800146L199.68434575833334,136.75894018581937L201.34188992499998,22.868648392813583L201.75627596666666,119.70027817998614L202.17066200833332,81.12632254191809L203.39724469166666,79.9553291797638L207.11014362499998,138.34256441252575L207.52452966666664,21.144163404192255L208.76768779166665,65.26260151181903L209.596459875,30.549572587013287L210.42523195833334,83.45569343226299L211.65181464166668,51.287724426814506L212.48058672499997,-13.833412817546275L213.72374484999997,-12.363748414175802L214.55251693333332,60.68648862838745L215.364713575,65.60753061090197L216.19348565833332,33.11254506451745L218.26541586666664,77.24992297376909L218.6798019083333,108.72899682181225L219.49199854999998,-67.54264545440674L219.90638459166667,14.130273342132611L223.61928352500001,33.33353081771307L224.4480556083333,67.59527884210863L224.86244165,71.54387436594286L226.10559977499997,85.81883495194573L228.16095454166665,30.064745766775985L228.989726625,97.92355108261108L229.40411266666663,111.23161874498639L230.64727079166664,145.80192502907346L231.87385347499998,64.53184618268695L233.94578368333333,111.23110512324743L234.77455576666668,38.08100075381145L235.1889418083333,84.83595555169244L237.65868261666665,88.77466385705132L238.0730686583333,-3.366058588027954L238.90184074166666,60.457573839596364L240.54280946666663,142.74516945225852L241.37158154999997,105.65375086239409L241.78596759166663,80.19769443784442L243.44351175833333,0.19571556363787568L244.67009444166666,80.7719235420227L245.08448048333332,-7.993533645357417L245.49886652499998,9.225956167493578L247.15641069166665,3.12457932744708L249.2117654583333,-29.051254510879517L249.6261515,39.735601084572934L250.04053754166665,82.15552420275554L250.4549235833333,69.5839901140758L250.869309625,60.862981898444076L251.28369566666666,53.61950291906085L254.58220855833332,64.33378079959326L255.82536668333333,-42.61106102807179L256.637563325,56.804310815674924L259.9526516583333,118.4634449311665L262.00800642499996,62.14459654263091L262.4223924666666,112.23687279224396L262.83677850833334,138.9031504392624L263.25116455,45.97552738870897L263.66555059166666,41.649130974497126L265.30651931666665,-56.00477511542178L267.37844952499995,143.49489668437414L268.2072216083333,16.29229984964647L270.262576375,33.895593506949325L270.67696241666664,51.00722275461473L272.33450658333334,105.90603544030871L273.146703225,77.39575944628038L273.5610892666666,28.66477341311321L274.80424739166665,64.69078000954222L276.04740551666663,-16.339309079306418L276.46179155833335,132.35758709907532L278.10276028333334,47.33813376086101L278.51714632499994,119.42388548169818L280.17469049166664,89.50647853102006L282.6444313,9.598010914666318L283.05881734166667,89.34706318378448L283.4732033833333,-69.91217514446802L284.30197546666665,109.85074669974193L284.7163615083333,12.4106677600316L285.52855815,-7.413397891180808L286.3573302333333,65.24003425666265L286.77171627499996,73.23237373147693L287.1861023166666,89.86119854450226L287.60048835833334,66.06844191891808L289.655843125,111.68469732148309L290.4846152083333,124.81354309831347L290.89900125,99.23132833412718L291.31338729166663,186.86514842510223L292.14215937499995,66.79717486245293L294.19751414166666,39.769243308476064L294.6119001833333,69.68616873877392L296.26944435,-51.266550370625026L296.6838303916666,42.01993376868114L297.91041307499995,92.4340261391231L298.7391851583333,105.95133045741491L300.39672932499997,30.89482269968309L300.8111153666667,126.59487959316802L302.4520840916667,110.73719361850195L302.8664701333333,85.14168889181957L303.280856175,72.97321946280346L303.69524221666666,111.30034775393352L304.5240143,59.22420753751483L304.93840034166664,11.942758355821894L306.57936906666663,79.7188063689641L306.99375510833335,38.555234125682304L307.40814115,60.887892552784535L308.2369132333333,44.73843732901983L309.4800713583333,87.12606648036413L311.53542612499996,99.60601539271221L313.19297029166665,135.7590470654624L313.60735633333326,4.518998146057171L315.2483250583333,81.2672796079091L316.49148318333334,120.30827791350231L316.90586922499995,-29.581376348223017L317.32025526666666,78.71621673447747L317.7346413083333,51.097812788827085L318.54683795,69.05894029140472L318.96122399166666,39.62796522889819L320.20438211666664,29.05345666408543L320.6187681583333,137.2211676495416L321.0331542,40.76239514350891L321.4475402416666,18.926152127129697L323.0885089666666,31.23339572974615L325.9892112583333,71.46875718661718L327.6301799833333,17.617636544363876L328.044566025,104.6081133059093L328.8733381083333,140.69370002405986L329.28772415,73.99933939320702L329.7021101916667,71.1766027212143L330.92869287499997,114.9799659933363L331.7574649583333,85.10345617362432L332.58623704166666,115.25465731961388L333.415009125,-45.55282953807287L333.82939516666664,161.42986157962255L335.47036389166664,56.19669629846301L336.29913597499996,95.85596677235198L337.54229409999994,-31.467459576470475L337.95668014166665,90.98647957188744L340.8408069916666,88.33949783870153L341.25519303333334,139.1794468334743L341.66957907499994,27.170198355402277L343.7249338416666,165.10964032581873L344.96809196666663,-0.5566760812486682L345.79686405,-138.7400562763214L347.437832775,3.7800890718187783L349.0953769416667,52.824127554893494L350.7529211083333,79.87696976321087L351.56511774999996,122.62888513292584L351.9795037916667,42.2013385466167L352.808275875,47.939745323998594L353.6370479583333,112.22233087675914L354.051434,99.98481142520905L354.4658200416667,79.41124325139184L355.69240272499997,109.34219697543554L356.52117480833334,55.34109878540039L356.93556084999994,59.45883636815209L357.34994689166666,70.02650734356475L357.7643329333333,137.35169177395957L359.00749105833336,64.00974968501501L359.8196877,143.98845507417406L361.89161790833333,101.13054101807732L362.72038999166665,106.74510075364795L364.36135871666664,6.543887649263667L364.7757447583333,-139.29849151202603L365.6045168416666,55.603013770920896L366.433288925,111.40198065553393L367.2620610083333,5.144204207829091L368.4886436916666,-57.554115091051386L368.9030297333333,71.94514134952001L370.1461878583333,155.8548507179533L370.9749599416666,89.12970488412041L371.3893459833333,51.51862949984417L373.44470075,22.0331784316472L375.1022449166667,150.7338493721826L376.74321364166667,66.22089127131872L377.15759968333333,76.26614473547258L377.571985725,106.09729533536095L377.98637176666665,82.3824808086668L378.40075780833337,149.91125205584936L380.8704986166666,109.42967317785535L381.69927069999994,66.36014696529936L382.11365674166666,37.45486375263762L382.5280427833333,105.22908198833466L382.942428825,87.30243134498596L383.35681486666664,68.51546428884782L384.99778359166663,109.49519205093384L385.826555675,109.91215659890857L389.12506856666664,69.33488357067108L390.3682266916666,179.71399295330048L392.8379675,101.2055618933269L393.25235354166665,75.86153921059203L393.6667395833333,83.04360829080858L394.9098977083333,91.30922663211823L395.73866979166667,20.10985762732372L396.15305583333327,88.09135433605742L396.96525247499994,161.1591829231807L398.2084106,17.92670842579436L400.2803408083333,115.50742341790881L401.50692349166667,103.08063435554504L402.33569557499993,58.40600810732164L402.75008161666665,100.27545712675366L403.57885369999997,48.28557326112475L405.219822425,124.99896054608483L405.6342084666666,102.80600723198485L406.46298054999994,82.550114103726L408.12052471666664,120.45578365666528L408.5349107583333,113.28539947101049L409.76149344166663,152.4518498863493L411.0046515666666,93.72122641972136L411.83342365,129.95114084652494L413.474392375,110.32648883547101L413.8887784166667,101.47932228020262L414.71755049999996,82.66664203575682L415.5463225833333,105.322336435318L415.960708625,122.59607754434857L416.7894807083333,92.82145743710656L417.60167735,80.4268981388637L418.4304494333333,-1.373784065246582L418.84483547499997,95.03873038291931L419.2592215166667,86.27579779284343L421.72896232499994,77.38609693731584L423.38650649166664,89.9893150670188L423.80089253333335,34.865439755576034L424.21527857499996,85.40020113331933L429.17133563333334,12.102173703057431L429.983532275,155.10085400513242L430.81230435833334,86.69038684027538L433.2986206083333,81.02838129656658L434.11081724999997,107.41521661622185L435.353975375,131.07070783206396L435.7683614166666,14.099135024207015L437.0115195416666,61.27654370239806L438.65248826666664,119.11378635678973L439.0668743083333,79.98935661997118L439.8956463916667,-30.46069676535464L440.3100324333333,74.04225890977044L440.724418475,54.22368259089336L441.13880451666665,-5.641210283551885L441.5531905583333,115.51817737306867L444.4373174083333,80.11407039846696L445.68047553333327,12.82946208545141L449.3933744666666,77.35312884194512L451.863115275,75.48877823352814L452.27750131666664,74.14064957414355L452.6918873583333,110.23114780017309L453.1062734,124.4285515035902L454.747242125,107.53530779906683L458.0623304583333,131.78310118402754L458.87452709999997,121.27610177653179L459.7032991833333,69.82304893221178L460.53207126666666,70.41448436464586L462.1896154333333,16.450816358838793L463.001812075,115.7266435963767L464.65935624166667,117.18179818562102L465.0737422833333,32.29447403975897L465.90251436666665,56.47703746386938L466.31690040833325,98.92508137226105L467.1290970499999,119.57906344958715L467.9578691333333,129.10379338264465L468.37225517499996,90.655514563833L469.61541329999994,70.80355283192229L470.4441853833333,101.79828138010845L472.91392619166663,174.2274534361703L473.3283122333333,121.95546283040728L474.57147035833333,45.51795462199621L476.2124390833333,157.8247184923717L477.4555972083333,52.527864115578794L478.2843692916666,99.31633273192816L479.9253380166667,119.11651497227807L480.3397240583333,39.601128493036555L481.99726822499997,62.02123102119994L482.41165426666663,44.047969205038925L488.59429400833335,73.42661905288696L489.00868004999995,72.43786510399413L489.42306609166667,130.7086045060839L491.0806102583333,114.72068331922803L492.30719294166664,65.24838060992107L493.5503510666666,174.05128117970057L494.37912314999994,-28.110042674200827L494.79350919166666,130.06494016306743L496.4344779166666,126.3071872166225L496.8488639583333,89.63770888532915L497.67763604166663,82.94274582181659L498.9207941666666,50.61654921940398L499.3351802083333,99.61510007722039L500.5617628916666,97.71299827098846L500.9761489333333,91.04477563926153L502.2193070583333,-8.950603553226957L504.27466182499995,52.791576777185725L504.68904786666667,128.07847598620825L505.51781995,36.40238860675268L506.3465920333333,39.00330489022393L508.40194679999996,57.46370482444763L508.8163328416666,91.69945074830737L509.64510492499994,72.91957809243884L510.05949096666666,116.88242091451373L510.47387700833326,-10.761505399431513L510.88826305,3.5557005746024117L511.7170351333333,122.37932917049956L513.7723898999999,98.51367035933905L514.6011619833333,41.76110051359453L515.0155480249999,150.770220211574L516.65651675,99.25668840748925L518.3140609166667,76.85985936437335L519.5572190416666,158.01755135399955L521.1981877666666,63.4443805558341L521.6125738083333,15.890647649765057L523.270117975,49.8300659315927L524.0988900583333,96.81034016609192L524.9110866999999,121.95401826926641L525.7398587833333,122.41094900880542L526.5686308666667,101.16514628274102L526.9830169083333,19.75012980188646L528.2261750333333,124.40970800604138L530.6959158416666,93.25235397475109L531.524687925,141.59118981020794L531.9390739666667,54.70671173504424L533.16565665,71.77770066261292L533.5800426916667,150.40564508097515L535.2375868583333,9.396350179399775L537.2929416249999,59.65442994662695L538.1217137083333,36.49012162004199L538.9504857916667,76.15472091947284L539.779257875,164.99612992150443L540.6080299583333,151.98156498159682L541.4202266,105.72039328302655L542.663384725,168.97865658146995L543.0777707666666,70.03491789954052L543.4921568083333,35.443200009209775L544.3209288916667,59.84026471206121L546.7906697,176.35070150239127L547.6194417833333,151.97013689790452L548.4482138666666,34.459582277706716L548.8625999083333,98.07134573800225L549.67479655,69.87620878219604L551.7467267583332,37.52705970832281L553.802081525,93.87492772511077L554.6308536083334,19.186429943357226L555.04523965,57.380498102733085L557.9293664999999,65.08312281540465L558.3437525416666,90.33331322669983L558.7581385833333,-4.305215937750632L559.1725246249999,111.15993641104016L559.5869106666667,79.00127679961071L561.2444548333333,184.1639795984541L562.8854235583333,102.3496222155435L565.3717398083334,81.305544427463L566.18393645,76.8107442855835L567.427094575,203.07097363471985L568.2558666583333,120.72745745522637L568.6702527,74.33024019854412L569.0846387416666,120.27052671568737L570.311221425,18.61406271798272L571.55437955,93.21871175084796L572.3831516333332,129.82485410145352L573.2119237166667,148.35629434244976L573.6263097583333,127.13289836474829L574.4385063999999,20.897624969482465L574.8528924416667,138.28031987803325L575.2672784833333,100.01623865536284L575.681664525,56.38940075465612L576.92482265,-57.917309863226706L577.3392086916666,139.34447991847992L578.5657913749999,51.982044713837766L578.9801774166666,125.18861537320275L579.3945634583333,136.06079983711243L580.6377215833334,79.77408490862169L581.052107625,131.11975870813643L581.4664936666667,121.34431716373992L583.5218484333333,127.89784164088115L586.820361325,153.88552866663252L587.6491334083333,90.80058060373582L588.4779054916667,-0.6176686627524359L588.8922915333333,9.488288470676991L589.306677575,165.7011078596115L590.9476463,47.55257083688464L591.7764183833333,111.09878332274303L592.6051904666666,99.53677276202612L593.0195765083333,187.6632524047579L593.8483485916666,71.78826200962067L596.3180894,90.78340637683868L597.1468614833333,80.20620129789629L597.561247525,118.94156256743841L599.20221625,133.6760541030339L599.6166022916666,83.55649169853758L600.4453743749999,118.0515844992229L600.8597604166666,149.95905097893308L601.6885325,133.46293318271637L602.1029185416667,70.16274550982885L603.329501225,165.87230440548487L603.7438872666667,111.10687286513195L604.1582733083333,-39.600338799612814L605.4014314333333,118.35760675157819L606.6445895583333,180.95946146760667L608.6999443249999,22.26713313375201L609.5287164083333,-123.3993305819375L610.3574884916666,87.5076874324254L610.7718745333333,120.86687365600042L611.584071175,69.24211064406805L611.9984572166667,160.6481613942555L614.8991595083332,26.193450314658065L616.1257421916666,51.94609119210925L616.954514275,103.90923462595258L618.1976724,116.61735999584198L621.0817992499999,90.00645719255724L621.4961852916666,173.94126982348308L622.324957375,80.46580498559136L622.7393434166667,57.39866747174945L623.1537294583333,-12.465830734797862L625.209084225,114.9696935585567L626.0378563083333,122.5004154954638L626.8666283916666,125.54898522581372L628.093211075,63.15444108418059L628.5075971166666,77.69282541956224L628.9219831583332,53.006687981741806L630.1651412833332,132.01833994047985L630.579527325,92.81702744960785L630.9939133666666,149.493228163038L632.22049605,87.60248274462566L632.6348820916666,175.636638879776L633.8780402166666,16.835069622312304L635.5355843833333,98.53328428949628L636.347781025,104.67697072029114L636.7621670666666,76.60664384705682L637.5909391499999,143.8404678106308L639.2484833166666,120.71198460033965L639.6628693583333,103.64552196434569L641.718224125,123.29392898082733L643.7901543333334,78.56232282093596L645.0167370166668,65.70845728261132L646.6742811833333,127.94060065065112L647.9174393083333,112.67951842716765L648.7296359499999,23.42034234319415L650.8015661583333,114.65195431028094L651.6303382416667,123.45902626855035L652.8569209249999,59.75795682838988L653.2713069666667,118.83527496882849L653.6856930083333,121.86265780244555L654.5144650916667,73.79655511038646L655.7576232166667,120.9948617730822L656.1720092583333,127.36649995190758L656.9842058999999,65.72694766521454L657.3985919416666,-94.86745037351332L658.2273640249999,133.81511718886242L659.0561361083332,119.48150742053986L659.4705221499999,-4.369097641536143L661.1114908750001,168.5037490810667L661.5258769166667,118.81071742943358L664.0121931666666,108.52396544388365L666.0675479333332,134.3089965922492L668.1394781416666,97.67627431665149L668.5538641833333,130.69797895635878L669.366060825,78.69130608013701L671.0236049916666,143.38453221321106L672.2667631166667,96.10712780271258L674.736503925,120.68219453947887L675.97966205,-3.7968588215964303L678.4494028583333,133.54049006530218L678.8637888999999,98.57963865143914L680.106947025,157.54922463212694L682.1623017916666,9.699900627136273L683.8198459583333,109.24457674367089L686.2895867666666,88.61158895492554L688.361516975,48.36329065050401L689.1902890583333,145.08863283906663L690.8312577833333,111.47131959029608L691.2456438249999,130.34842726162503L692.0744159083333,112.04769948550634L695.3729288,85.00278631278448L699.5002137749999,131.59270802565985L699.9145998166666,74.07159955160961L700.7433718999999,169.17755659988947L701.1577579416667,93.26596495083403L702.7987266666667,77.77705938475475L703.2131127083333,60.48871215752196L704.0418847916667,169.755445258958L705.6994289583333,50.39366948604584L706.9260116416666,194.15469285420008L708.5835558083332,139.6556704895837L708.9979418500001,59.9020598275321L709.4123278916667,187.64851788112097L709.8267139333333,23.18407634326391L710.638910575,103.0048751490457L712.2964547416666,78.596382362502L713.5396128666666,86.06277317660198L713.9539989083332,51.896751403808594L716.0093536749999,84.07020974159241L718.0812838833332,62.32166763714385L718.893480525,176.28855327197485L720.5510246916666,168.30391812324524L721.7941828166666,121.33722276347027L723.8495375833334,134.17927500179837L732.518493575,112.14718159607482L732.9328796166666,191.8204425573349L734.5904237833333,89.90851594720569L739.5299054,89.3691810199193L739.9442914416667,184.82289208684648L741.6018356083333,151.9549208538873L742.4306076916666,-1.5339056423731854L742.8449937333332,98.21936510290418L743.6571903749999,85.4439231838499L744.0715764166666,93.01538174492974L745.3147345416667,84.80154289518084L746.5578926666667,119.1117960725512L747.78447535,103.24293882506237L748.6132474333333,163.34104807036266L749.0276334749999,100.83934959343505L749.8564055583332,148.9844216278621L750.2707915999999,166.03512249674117L751.0995636833333,156.4397374732154L751.911760325,89.53684641633716L752.3261463666666,80.38320818969183L752.7405324083333,46.13327346529283L753.15491845,-3.4129907744271293L753.9836905333333,68.62351746218548L757.282203425,166.53487644876753L758.52536155,54.63531831332617L758.9397475916667,91.98088335990906L760.166330275,102.82947332518444L763.0670325666666,-28.112353972026256L765.1223873333333,41.24099430016112L765.9511594166665,-26.229737690516856L766.3655454583334,55.697520170893L767.6087035833334,157.60232027939387L768.420900225,143.0022050312587L770.0784443916666,142.23854580947332L770.4928304333333,98.07227667740416L770.9072164749999,161.12464186123438L771.7359885583334,133.66180109977722L775.03450145,105.88924642971587L775.4488874916666,140.38459604127067L775.8632735333333,122.99750503471923L777.0898562166666,227.81274272714342L777.9186282999999,273.56388803890775L778.3330143416665,275.3523510353906L781.6315272333333,239.42759212425776L783.7034574416667,299.1599063873291L786.5875842916666,281.1422804934638L787.8307424166667,282.1183223043169L788.2451284583333,333.8350717595645L789.8860971833333,311.5778194240161L793.184610075,278.44239572116305L794.4277682000001,255.67858394554682L794.8421542416667,318.118134192058L795.2565402833333,256.03985263620103L799.3838252583332,277.3793913296291L800.6269833833333,328.97635456493924L801.439180025,293.6282002585275L802.2679521083332,255.1206944329398L803.0967241916666,307.14452548537935L803.5111102333333,321.7191522547177L803.925496275,302.089925800051L804.3398823166666,280.47614519936695L805.9808510416666,306.0456959775516L806.809623125,295.2733948911939L807.6383952083332,279.2027164016451L808.05278125,271.54984879493713L808.4671672916666,273.3206560441426L810.1081360166665,308.45336208173205L812.180066225,289.7525069202695L814.6498070333333,278.1573677573885L815.0641930749999,257.1929655415671L815.4785791166665,303.96934799637114L817.1361232833333,261.4024167060852L817.948319925,305.43069814784184L818.3627059666666,281.51488096373424L822.0756048999999,354.0321551987103L822.9043769833333,264.1709983859743L823.318763025,290.9360519136701L824.1475351083333,306.71224858931134L827.0316619583333,296.987061721938L827.8604340416666,312.84052636793683L828.6892061249999,341.3020403981209L829.1035921666667,346.0434913294656L831.1589469333333,321.14986675977707L832.8164910999999,260.94837508882796L833.6452631833333,291.90576975686207L835.2862319083333,280.4312996012824L835.7006179499999,317.6845571909632L837.7725481583333,330.63231920344487L838.5847448000001,304.97757141930714L839.4135168833333,312.3906097752707L840.2422889666666,345.25549927779605L840.6566750083333,317.9180303726877L841.07106105,275.49966417040145L841.4854470916666,313.554444534438L842.712029775,300.6427804997989L843.5408018583332,286.0593740088599L845.198346025,279.9792482682637L846.0271181083333,292.07757622855047L847.2537007916666,331.5893891113145L848.4968589166666,265.9000096661704L848.9112449583332,315.2272944876126L850.9665997249999,311.62510472536087L852.20975785,262.8972806760243L853.0385299333332,278.97900203296115L853.452915975,360.81209055866515L854.2816880583332,287.48936113289426L855.9226567833333,319.22879305056165L856.3370428249999,296.35232155663624L856.7514288666666,284.0662006480353L857.1658149083333,321.93350907734464L859.6355557166665,314.3569303495543L860.0499417583334,236.19206408091955L860.4643278,315.74412636246L862.1218719666666,327.49096049581254L862.5362580083333,304.7564251593181L863.7628406916665,321.12036561114445L864.5916127749999,276.74047798769817L865.8347709,302.22728751386916L866.6635429833333,269.3819477387837L867.475739625,275.39854489054L867.8901256666667,328.35947880574633L868.3045117083333,315.3358933840479L870.7908279583334,293.8685431310109L872.846182725,339.97273918560575L873.2605687666667,262.10049285207475L873.6749548083333,309.39388373919894L874.0893408499999,308.75676807335446L876.5590816583333,339.895840380873L880.2719805916666,297.05490794352124L880.6863666333333,280.0904473747526L882.3439107999999,288.9550449677876L883.1726828833332,318.0169828108379L884.8136516083332,296.64373769078935L885.22803765,359.1653390101024L885.6424236916666,341.48814802510395L886.0568097333332,308.43118004287993L886.8855818166667,333.1710872564997L887.2999678583333,288.35905114242007L888.9409365833333,337.95624418769563L891.0128667916666,340.1534377336502L891.4272528333332,329.03309371641706L892.6538355166666,352.5355417047228L893.8969936416667,306.2005529318537L897.1955065333334,329.74714028835297L897.609892575,335.42535701819827L898.0242786166666,353.20570571933473L899.2674367416666,329.6870786462511L901.3227915083334,341.6053179843085L901.73717755,293.81188423292974L902.1515635916666,351.78714667899266L903.3947217166666,328.42535079377035L903.8091077583333,357.4308704989297L905.0356904416666,345.400196152074L905.8644625249999,311.88990883316313L906.6932346083333,338.32895701272145L908.7485893749999,390.71644830703735L909.5773614583333,300.77816798005784L912.0636777083333,349.3816634672029L913.2902603916667,302.4426394786153L914.9478045583332,254.7127182653972L917.4175453666667,323.88772743940353L919.0750895333333,324.6245499253273L920.3182476583332,278.20070459161485L921.1304442999999,275.36451745033264L921.9592163833332,321.1067867364202L922.3736024249998,328.9401442323412L923.2023745083333,337.2201439823423L923.6167605499999,345.8737232940538L924.0311465916667,323.5261537858418L925.257729275,302.88425787006105L925.6721153166666,363.15905299357007L926.0865013583333,310.7420444999422L929.38501425,340.6078966685704L929.7994002916666,325.611987718514L930.2137863333332,301.5445718680109L930.628172375,325.43597596883774L931.8713305,337.8240347419466L935.998615475,356.60235048191885L938.0539702416665,351.901267009122L938.4683562833333,315.9880966884749L938.882742325,292.1888395377568L939.2971283666666,318.71111048970903L940.9546725333332,309.9341496058873L941.766869175,364.74835916076387L942.5956412583333,289.8520853349141L943.0100272999999,288.80375126429965L943.8387993833334,350.7207074420793L945.0819575083333,307.5308492864881L946.7229262333333,330.40685531071256L947.137312275,323.8404100367001L947.9660843583333,318.0596294658525L948.7948564416665,313.06282827683856L950.0214391249999,351.27094078063965L952.0933693333333,349.12228448901857L954.1487240999999,362.33058112859726L955.3918822249999,357.7672766872815L957.0494263916665,359.8861910700798L958.2760090749999,334.5699521132878L958.6903951166667,328.97680398396085L959.1047811583333,305.45479021753584L960.3479392833333,323.7041879211153L962.8176800916666,282.396031158311L965.3039963416667,351.81918383496145L965.7183823833333,331.4015640616417L966.5305790249998,356.36009757859364L967.7737371499999,332.07315658671513L969.0168952749999,337.40734305552076L970.657864,377.6654001729829L971.0722500416666,309.82450741529465L972.7297942083333,315.2821236082486L973.14418025,309.3468552487237L973.5585662916666,311.5950578536306L975.1995350166666,332.2312076262065L976.0283071,317.61704803364614L977.271465225,327.64265546628405L977.6858512666666,324.4186999627522L978.9124339499999,330.15384845222746L980.155592075,293.27200358254566L981.8131362416666,303.76678842306137L982.2275222833332,325.5432908109256L983.039718925,342.0345613019807L983.4541049666666,286.8849888529096L983.8684910083332,308.95454454421997L984.6972630916666,298.008430651256L985.1116491333332,310.55550350461687L985.526035175,338.69812263761247L985.9404212166666,328.6719855325563L988.8245480666666,320.0490309170314L989.6533201499999,334.765048120703L990.4820922333333,326.66096381630217L991.2942888749999,300.2185289434024L991.7086749166666,353.08495645863667L992.1230609583333,321.65406674998144L992.5374469999999,326.99163991212845L993.3662190833334,354.37873751776556L994.1949911666666,322.5156832677977L994.6093772083333,330.15805373021533L996.2503459333333,326.2491354857172L996.6647319749999,339.6909534590585L997.9078900999999,341.2460235272135L1007.8034287749999,346.9370165978159L1008.2178148166666,340.3036720923015L1009.8753589833333,325.630044732775L1010.2897450249999,330.0972858582224L1010.7041310666666,366.7072482705116L1011.9307137499999,360.66915925911496L1012.3450997916666,315.14204932962144L1013.1738718749999,353.84158548286985L1014.4170299999998,333.3355585677283L1014.8314160416667,322.4657496043614L1016.057998725,311.46983045339584L1016.4723847666667,339.8768845285688L1016.8867708083333,323.3643629380635L1018.544314975,373.48289809908186L1018.9587010166666,312.03147582496916L1020.1852837,305.87096828222275L1020.5996697416666,332.32266439710344L1021.8428278666667,343.96109224217275L1022.67159995,312.6901957052095L1025.1413407583332,287.8354137795312L1025.5557268,331.31185681479315L1025.9701128416666,316.45054886170794L1026.3844988833332,310.3142296927316L1030.9261698999999,356.5101232784135L1031.3405559416665,342.7312410388674L1032.5671386249999,343.9758588671684L1034.2246827916665,299.6026001742908L1035.8822269583334,328.6290820666722L1036.6944236,335.63409610305513L1038.7663538083334,321.7079007284982L1039.5951258916666,330.56342968770434L1040.0095119333332,331.27386485678807L1041.2360946166666,350.68907155309404L1041.6504806583332,332.52706979853764L1042.0648666999998,342.96606247765675L1043.7224108666665,273.5557663951601L1044.1367969083333,340.6837842805045L1044.9489935499998,326.56425847326005L1045.3633795916667,318.2447098493576L1046.1921516749999,330.2255789382117L1047.4353098,347.6846090895789L1047.8496958416667,376.2845602290971L1048.2640818833333,284.715161715235L1049.076278525,287.08924979822973L1050.31943665,295.257023198264L1050.7338226916665,330.4942512597356L1052.3913668583332,348.48162162303925L1053.2035635,329.848195365497L1054.8611076666666,351.2620487042836L1055.2754937083332,363.18778370959416L1056.1042657916666,351.2899126836232L1056.5186518333333,332.623694888183L1057.330848475,331.0046147108078L1058.1596205583332,306.8596901297569L1058.5740066,333.83914863211766L1061.8725194916667,324.45113838570455L1062.2869055333333,337.57685428006306L1062.701291575,342.234713273389L1063.9444497,328.43661837066924L1065.9998044666665,340.4524137377739L1068.4861207166666,290.6024866955621L1068.9005067583332,355.18401615108763L1070.955861525,293.31424897057667L1071.3702475666666,283.8214919907706L1073.0277917333333,277.5560772078378L1073.8399883749998,312.8038666163172L1074.2543744166667,358.7219068918909L1074.6687604583333,384.110614665917L1077.96727335,341.70048246213366L1079.6248175166666,340.5146582722664L1080.4535896,350.8334313631058L1080.8679756416666,306.989796936512L1084.1664885333332,286.6187401839665L1084.9952606166667,298.8589882510049L1086.2218432999998,332.19936307838987L1087.0506153833333,325.2679253561156L1089.1225455916665,322.1228428908757L1091.5922864,328.9499351467405L1092.4210584833334,284.3022098370961L1092.835444525,364.6375292198999L1093.2498305666666,342.2824640444347L1094.8907992916666,327.32287778173173L1096.1339574166666,351.2853863920484L1096.9627294999998,352.0050828031131L1097.3771155416666,319.2879879559789L1098.6036982249998,329.66303472859516L1099.0180842666666,366.5282350437982L1099.4324703083332,339.24809916530336L1101.5044005166667,300.27956967694416L1101.9187865583333,334.38238387448445L1102.7309832,301.86788070201874L1103.5597552833333,373.39320690291265L1104.3885273666667,322.8543847032956L1107.2726542166665,307.1182826246534L1108.5158123416666,332.3804307920592L1109.7589704666666,337.70715369497026L1111.3999391916666,375.8036818759782L1112.228711275,321.27043946300233L1116.7703822916667,320.58054916347777L1118.0135404166665,341.91798521791185L1118.427926458333,325.01339368309294L1121.3120533083334,333.9741508960724L1122.1408253916666,333.70334383419583L1122.5552114333334,357.7010676349912L1125.853724325,331.9492774435452L1126.6824964083332,364.3311378019197L1128.7378511749998,276.9599870783942L1129.1522372166664,331.6614245602063L1130.8097813833333,317.124789748873L1133.6939082333333,299.7330119439534L1134.108294275,330.04359633581976L1134.5226803166668,256.8530442544392L1137.8211932083332,357.17330524751117L1140.2909340166666,333.25132460253576L1140.7053200583332,312.961981858526L1141.1197060999998,326.830780003752L1141.9484781833332,355.49064832925797L1142.7772502666667,302.58478429487775L1144.8326050333333,314.631717979908L1145.2469910749999,324.4262116806848L1146.4901492,342.71913882664273L1148.9598900083333,323.6991159064429L1151.4462062583332,353.4131125978061L1152.6727889416666,326.59947366373876L1153.9159470666666,319.45815725837434L1156.385687875,302.8146139723914L1157.2144599583332,359.570554460798L1157.628846,325.5355383328029L1158.0432320416667,339.48832968303134L1158.8720041249999,299.86918590750014L1159.2863901666665,290.3854173081262L1159.7007762083333,319.88849202224185L1161.3417449333333,303.48322107110704L1161.756130975,297.0310887353761L1162.1705170166665,342.08417395183017L1163.8280611833331,330.3166504928044L1165.0546438666665,350.04357743263245L1166.2978019916666,322.0223495875086L1167.5409601166666,325.3919329047203L1169.1819288416666,361.8909048693521L1170.4250869666666,334.624042902674L1171.2538590499998,296.192264182227L1173.7235998583333,289.33734004838124L1176.2099161083333,314.4498637829508L1178.6796569166668,299.11761284726003L1179.508429,336.0721030916486L1180.3372010833332,305.21995272806714L1181.149397725,323.2558442950249L1181.5637837666666,323.5274217895099L1181.9781698083332,314.5193792751857L1182.3925558499998,370.3674291372299L1182.8069418916666,299.1711258121899L1184.0501000166666,284.6529813834599L1187.3486129083333,331.1047548992293L1188.5917710333333,357.7700053027698L1189.403967675,326.4272338237081L1190.6471258,332.47577182735716L1192.3046699666666,324.868135035038L1196.4319549416666,328.8014824134963L1198.0729236666666,308.2450724158968L1199.7304678333333,327.7568721004895L1200.144853875,329.9051431758063L1200.9736259583333,329.712711581162L1201.7858225999998,317.22679181609834L1202.6145946833333,333.0857457944325L1203.0289807249999,307.45048353501727L1204.27213885,342.3327989748546L1205.913107575,335.26412794419696L1207.5706517416666,317.0186787077359L1208.399423825,344.4176538160869L1209.2281959083334,331.0854138306209" style="fill: none;" fill="none"></path></g></g></g></g></g></g><g transform="translate(41, 377)" clip-path="url(#clip_1)"><clipPath id="clip_1"><rect width="1243" height="23"></rect></clipPath><g><g><line x1="0" y1="0" x2="0" y2="5" style="visibility: inherit;" fill="rgb(0, 0, 0)" stroke="rgb(204, 204, 204)" stroke-width="1px"></line><line x1="82.87720833333333" y1="0" x2="82.87720833333333" y2="5" style="visibility: inherit;" fill="rgb(0, 0, 0)" stroke="rgb(204, 204, 204)" stroke-width="1px"></line><line x1="165.75441666666666" y1="0" x2="165.75441666666666" y2="5" style="visibility: inherit;" fill="rgb(0, 0, 0)" stroke="rgb(204, 204, 204)" stroke-width="1px"></line><line x1="248.63162499999999" y1="0" x2="248.63162499999999" y2="5" style="visibility: inherit;" fill="rgb(0, 0, 0)" stroke="rgb(204, 204, 204)" stroke-width="1px"></line><line x1="331.5088333333333" y1="0" x2="331.5088333333333" y2="5" style="visibility: inherit;" fill="rgb(0, 0, 0)" stroke="rgb(204, 204, 204)" stroke-width="1px"></line><line x1="414.38604166666664" y1="0" x2="414.38604166666664" y2="5" style="visibility: inherit;" fill="rgb(0, 0, 0)" stroke="rgb(204, 204, 204)" stroke-width="1px"></line><line x1="497.26324999999997" y1="0" x2="497.26324999999997" y2="5" style="visibility: inherit;" fill="rgb(0, 0, 0)" stroke="rgb(204, 204, 204)" stroke-width="1px"></line><line x1="580.1404583333333" y1="0" x2="580.1404583333333" y2="5" style="visibility: inherit;" fill="rgb(0, 0, 0)" stroke="rgb(204, 204, 204)" stroke-width="1px"></line><line x1="663.0176666666666" y1="0" x2="663.0176666666666" y2="5" style="visibility: inherit;" fill="rgb(0, 0, 0)" stroke="rgb(204, 204, 204)" stroke-width="1px"></line><line x1="745.894875" y1="0" x2="745.894875" y2="5" style="visibility: inherit;" fill="rgb(0, 0, 0)" stroke="rgb(204, 204, 204)" stroke-width="1px"></line><line x1="828.7720833333333" y1="0" x2="828.7720833333333" y2="5" style="visibility: inherit;" fill="rgb(0, 0, 0)" stroke="rgb(204, 204, 204)" stroke-width="1px"></line><line x1="911.6492916666665" y1="0" x2="911.6492916666665" y2="5" style="visibility: inherit;" fill="rgb(0, 0, 0)" stroke="rgb(204, 204, 204)" stroke-width="1px"></line><line x1="994.5264999999999" y1="0" x2="994.5264999999999" y2="5" style="visibility: inherit;" fill="rgb(0, 0, 0)" stroke="rgb(204, 204, 204)" stroke-width="1px"></line><line x1="1077.4037083333333" y1="0" x2="1077.4037083333333" y2="5" style="visibility: inherit;" fill="rgb(0, 0, 0)" stroke="rgb(204, 204, 204)" stroke-width="1px"></line><line x1="1160.2809166666666" y1="0" x2="1160.2809166666666" y2="5" style="visibility: inherit;" fill="rgb(0, 0, 0)" stroke="rgb(204, 204, 204)" stroke-width="1px"></line><line x1="1243.158125" y1="0" x2="1243.158125" y2="5" style="visibility: inherit;" fill="rgb(0, 0, 0)" stroke="rgb(204, 204, 204)" stroke-width="1px"></line></g><g transform="translate(0, 8)"><text x="0" y="0" dx="0em" dy="0.95em" style="text-anchor: middle; visibility: hidden; font-family: Roboto, sans-serif; font-size: 12px; font-weight: 200;" fill="rgb(255, 255, 255)" stroke="none" stroke-width="1px">-20k</text><text x="82.87720833333333" y="0" dx="0em" dy="0.95em" style="text-anchor: middle; visibility: inherit; font-family: Roboto, sans-serif; font-size: 12px; font-weight: 200;" fill="rgb(255, 255, 255)" stroke="none" stroke-width="1px">0</text><text x="165.75441666666666" y="0" dx="0em" dy="0.95em" style="text-anchor: middle; visibility: inherit; font-family: Roboto, sans-serif; font-size: 12px; font-weight: 200;" fill="rgb(255, 255, 255)" stroke="none" stroke-width="1px">20k</text><text x="248.63162499999999" y="0" dx="0em" dy="0.95em" style="text-anchor: middle; visibility: inherit; font-family: Roboto, sans-serif; font-size: 12px; font-weight: 200;" fill="rgb(255, 255, 255)" stroke="none" stroke-width="1px">40k</text><text x="331.5088333333333" y="0" dx="0em" dy="0.95em" style="text-anchor: middle; visibility: inherit; font-family: Roboto, sans-serif; font-size: 12px; font-weight: 200;" fill="rgb(255, 255, 255)" stroke="none" stroke-width="1px">60k</text><text x="414.38604166666664" y="0" dx="0em" dy="0.95em" style="text-anchor: middle; visibility: inherit; font-family: Roboto, sans-serif; font-size: 12px; font-weight: 200;" fill="rgb(255, 255, 255)" stroke="none" stroke-width="1px">80k</text><text x="497.26324999999997" y="0" dx="0em" dy="0.95em" style="text-anchor: middle; visibility: inherit; font-family: Roboto, sans-serif; font-size: 12px; font-weight: 200;" fill="rgb(255, 255, 255)" stroke="none" stroke-width="1px">100k</text><text x="580.1404583333333" y="0" dx="0em" dy="0.95em" style="text-anchor: middle; visibility: inherit; font-family: Roboto, sans-serif; font-size: 12px; font-weight: 200;" fill="rgb(255, 255, 255)" stroke="none" stroke-width="1px">120k</text><text x="663.0176666666666" y="0" dx="0em" dy="0.95em" style="text-anchor: middle; visibility: inherit; font-family: Roboto, sans-serif; font-size: 12px; font-weight: 200;" fill="rgb(255, 255, 255)" stroke="none" stroke-width="1px">140k</text><text x="745.894875" y="0" dx="0em" dy="0.95em" style="text-anchor: middle; visibility: inherit; font-family: Roboto, sans-serif; font-size: 12px; font-weight: 200;" fill="rgb(255, 255, 255)" stroke="none" stroke-width="1px">160k</text><text x="828.7720833333333" y="0" dx="0em" dy="0.95em" style="text-anchor: middle; visibility: inherit; font-family: Roboto, sans-serif; font-size: 12px; font-weight: 200;" fill="rgb(255, 255, 255)" stroke="none" stroke-width="1px">180k</text><text x="911.6492916666665" y="0" dx="0em" dy="0.95em" style="text-anchor: middle; visibility: inherit; font-family: Roboto, sans-serif; font-size: 12px; font-weight: 200;" fill="rgb(255, 255, 255)" stroke="none" stroke-width="1px">200k</text><text x="994.5264999999999" y="0" dx="0em" dy="0.95em" style="text-anchor: middle; visibility: inherit; font-family: Roboto, sans-serif; font-size: 12px; font-weight: 200;" fill="rgb(255, 255, 255)" stroke="none" stroke-width="1px">220k</text><text x="1077.4037083333333" y="0" dx="0em" dy="0.95em" style="text-anchor: middle; visibility: inherit; font-family: Roboto, sans-serif; font-size: 12px; font-weight: 200;" fill="rgb(255, 255, 255)" stroke="none" stroke-width="1px">240k</text><text x="1160.2809166666666" y="0" dx="0em" dy="0.95em" style="text-anchor: middle; visibility: inherit; font-family: Roboto, sans-serif; font-size: 12px; font-weight: 200;" fill="rgb(255, 255, 255)" stroke="none" stroke-width="1px">260k</text><text x="1243.158125" y="0" dx="0em" dy="0.95em" style="text-anchor: middle; visibility: hidden; font-family: Roboto, sans-serif; font-size: 12px; font-weight: 200;" fill="rgb(255, 255, 255)" stroke="none" stroke-width="1px">280k</text></g><line x1="0" y1="0" x2="1243.158125" y2="0" fill="rgb(0, 0, 0)" stroke="rgb(204, 204, 204)" stroke-width="1px"></line></g></g></g></g></svg>