<svg viewBox="0 0 1284.3333740234375 400" xmlns="http://www.w3.org/2000/svg"><g><g><g><g><g><line x1="41.171875" y1="377" x2="36.171875" y2="377" style="visibility: inherit;" fill="rgb(0, 0, 0)" stroke="rgb(204, 204, 204)" stroke-width="1px"></line><line x1="41.171875" y1="348" x2="36.171875" y2="348" style="visibility: inherit;" fill="rgb(0, 0, 0)" stroke="rgb(204, 204, 204)" stroke-width="1px"></line><line x1="41.171875" y1="319" x2="36.171875" y2="319" style="visibility: inherit;" fill="rgb(0, 0, 0)" stroke="rgb(204, 204, 204)" stroke-width="1px"></line><line x1="41.171875" y1="290" x2="36.171875" y2="290" style="visibility: inherit;" fill="rgb(0, 0, 0)" stroke="rgb(204, 204, 204)" stroke-width="1px"></line><line x1="41.171875" y1="261" x2="36.171875" y2="261" style="visibility: inherit;" fill="rgb(0, 0, 0)" stroke="rgb(204, 204, 204)" stroke-width="1px"></line><line x1="41.171875" y1="232" x2="36.171875" y2="232" style="visibility: inherit;" fill="rgb(0, 0, 0)" stroke="rgb(204, 204, 204)" stroke-width="1px"></line><line x1="41.171875" y1="203" x2="36.171875" y2="203" style="visibility: inherit;" fill="rgb(0, 0, 0)" stroke="rgb(204, 204, 204)" stroke-width="1px"></line><line x1="41.171875" y1="174" x2="36.171875" y2="174" style="visibility: inherit;" fill="rgb(0, 0, 0)" stroke="rgb(204, 204, 204)" stroke-width="1px"></line><line x1="41.171875" y1="145" x2="36.171875" y2="145" style="visibility: inherit;" fill="rgb(0, 0, 0)" stroke="rgb(204, 204, 204)" stroke-width="1px"></line><line x1="41.171875" y1="116" x2="36.171875" y2="116" style="visibility: inherit;" fill="rgb(0, 0, 0)" stroke="rgb(204, 204, 204)" stroke-width="1px"></line><line x1="41.171875" y1="86.99999999999999" x2="36.171875" y2="86.99999999999999" style="visibility: inherit;" fill="rgb(0, 0, 0)" stroke="rgb(204, 204, 204)" stroke-width="1px"></line><line x1="41.171875" y1="58" x2="36.171875" y2="58" style="visibility: inherit;" fill="rgb(0, 0, 0)" stroke="rgb(204, 204, 204)" stroke-width="1px"></line><line x1="41.171875" y1="28.999999999999982" x2="36.171875" y2="28.999999999999982" style="visibility: inherit;" fill="rgb(0, 0, 0)" stroke="rgb(204, 204, 204)" stroke-width="1px"></line><line x1="41.171875" y1="0" x2="36.171875" y2="0" style="visibility: inherit;" fill="rgb(0, 0, 0)" stroke="rgb(204, 204, 204)" stroke-width="1px"></line></g><g transform="translate(31.171875, 0)"><text x="0" y="377" dx="0em" dy="0.3em" style="text-anchor: end; visibility: hidden; font-family: Roboto, sans-serif; font-size: 12px; font-weight: 200;" fill="rgb(255, 255, 255)" stroke="none" stroke-width="1px">120</text><text x="0" y="348" dx="0em" dy="0.3em" style="text-anchor: end; visibility: inherit; font-family: Roboto, sans-serif; font-size: 12px; font-weight: 200;" fill="rgb(255, 255, 255)" stroke="none" stroke-width="1px">125</text><text x="0" y="319" dx="0em" dy="0.3em" style="text-anchor: end; visibility: inherit; font-family: Roboto, sans-serif; font-size: 12px; font-weight: 200;" fill="rgb(255, 255, 255)" stroke="none" stroke-width="1px">130</text><text x="0" y="290" dx="0em" dy="0.3em" style="text-anchor: end; visibility: inherit; font-family: Roboto, sans-serif; font-size: 12px; font-weight: 200;" fill="rgb(255, 255, 255)" stroke="none" stroke-width="1px">135</text><text x="0" y="261" dx="0em" dy="0.3em" style="text-anchor: end; visibility: inherit; font-family: Roboto, sans-serif; font-size: 12px; font-weight: 200;" fill="rgb(255, 255, 255)" stroke="none" stroke-width="1px">140</text><text x="0" y="232" dx="0em" dy="0.3em" style="text-anchor: end; visibility: inherit; font-family: Roboto, sans-serif; font-size: 12px; font-weight: 200;" fill="rgb(255, 255, 255)" stroke="none" stroke-width="1px">145</text><text x="0" y="203" dx="0em" dy="0.3em" style="text-anchor: end; visibility: inherit; font-family: Roboto, sans-serif; font-size: 12px; font-weight: 200;" fill="rgb(255, 255, 255)" stroke="none" stroke-width="1px">150</text><text x="0" y="174" dx="0em" dy="0.3em" style="text-anchor: end; visibility: inherit; font-family: Roboto, sans-serif; font-size: 12px; font-weight: 200;" fill="rgb(255, 255, 255)" stroke="none" stroke-width="1px">155</text><text x="0" y="145" dx="0em" dy="0.3em" style="text-anchor: end; visibility: inherit; font-family: Roboto, sans-serif; font-size: 12px; font-weight: 200;" fill="rgb(255, 255, 255)" stroke="none" stroke-width="1px">160</text><text x="0" y="116" dx="0em" dy="0.3em" style="text-anchor: end; visibility: inherit; font-family: Roboto, sans-serif; font-size: 12px; font-weight: 200;" fill="rgb(255, 255, 255)" stroke="none" stroke-width="1px">165</text><text x="0" y="86.99999999999999" dx="0em" dy="0.3em" style="text-anchor: end; visibility: inherit; font-family: Roboto, sans-serif; font-size: 12px; font-weight: 200;" fill="rgb(255, 255, 255)" stroke="none" stroke-width="1px">170</text><text x="0" y="58" dx="0em" dy="0.3em" style="text-anchor: end; visibility: inherit; font-family: Roboto, sans-serif; font-size: 12px; font-weight: 200;" fill="rgb(255, 255, 255)" stroke="none" stroke-width="1px">175</text><text x="0" y="28.999999999999982" dx="0em" dy="0.3em" style="text-anchor: end; visibility: inherit; font-family: Roboto, sans-serif; font-size: 12px; font-weight: 200;" fill="rgb(255, 255, 255)" stroke="none" stroke-width="1px">180</text><text x="0" y="0" dx="0em" dy="0.3em" style="text-anchor: end; visibility: hidden; font-family: Roboto, sans-serif; font-size: 12px; font-weight: 200;" fill="rgb(255, 255, 255)" stroke="none" stroke-width="1px">185</text></g><line x1="41.171875" y1="0" x2="41.171875" y2="377" fill="rgb(0, 0, 0)" stroke="rgb(204, 204, 204)" stroke-width="1px"></line></g></g><g transform="translate(41, 0)" clip-path="url(#clip_0)"><clipPath id="clip_0"><rect width="1243" height="377"></rect></clipPath><g><g><g><line x1="0" y1="0" x2="0" y2="377" fill="rgb(0, 0, 0)" stroke="rgb(189, 189, 189)" stroke-width="1px" opacity="0.25"></line><line x1="82.87720833333333" y1="0" x2="82.87720833333333" y2="377" fill="rgb(0, 0, 0)" stroke="rgb(189, 189, 189)" stroke-width="1px" opacity="0.25"></line><line x1="165.75441666666666" y1="0" x2="165.75441666666666" y2="377" fill="rgb(0, 0, 0)" stroke="rgb(189, 189, 189)" stroke-width="1px" opacity="0.25"></line><line x1="248.63162499999999" y1="0" x2="248.63162499999999" y2="377" fill="rgb(0, 0, 0)" stroke="rgb(189, 189, 189)" stroke-width="1px" opacity="0.25"></line><line x1="331.5088333333333" y1="0" x2="331.5088333333333" y2="377" fill="rgb(0, 0, 0)" stroke="rgb(189, 189, 189)" stroke-width="1px" opacity="0.25"></line><line x1="414.38604166666664" y1="0" x2="414.38604166666664" y2="377" fill="rgb(0, 0, 0)" stroke="rgb(189, 189, 189)" stroke-width="1px" opacity="0.25"></line><line x1="497.26324999999997" y1="0" x2="497.26324999999997" y2="377" fill="rgb(0, 0, 0)" stroke="rgb(189, 189, 189)" stroke-width="1px" opacity="0.25"></line><line x1="580.1404583333333" y1="0" x2="580.1404583333333" y2="377" fill="rgb(0, 0, 0)" stroke="rgb(189, 189, 189)" stroke-width="1px" opacity="0.25"></line><line x1="663.0176666666666" y1="0" x2="663.0176666666666" y2="377" fill="rgb(0, 0, 0)" stroke="rgb(189, 189, 189)" stroke-width="1px" opacity="0.25"></line><line x1="745.894875" y1="0" x2="745.894875" y2="377" fill="rgb(0, 0, 0)" stroke="rgb(189, 189, 189)" stroke-width="1px" opacity="0.25"></line><line x1="828.7720833333333" y1="0" x2="828.7720833333333" y2="377" fill="rgb(0, 0, 0)" stroke="rgb(189, 189, 189)" stroke-width="1px" opacity="0.25"></line><line x1="911.6492916666665" y1="0" x2="911.6492916666665" y2="377" fill="rgb(0, 0, 0)" stroke="rgb(189, 189, 189)" stroke-width="1px" opacity="0.25"></line><line x1="994.5264999999999" y1="0" x2="994.5264999999999" y2="377" fill="rgb(0, 0, 0)" stroke="rgb(189, 189, 189)" stroke-width="1px" opacity="0.25"></line><line x1="1077.4037083333333" y1="0" x2="1077.4037083333333" y2="377" fill="rgb(0, 0, 0)" stroke="rgb(189, 189, 189)" stroke-width="1px" opacity="0.25"></line><line x1="1160.2809166666666" y1="0" x2="1160.2809166666666" y2="377" fill="rgb(0, 0, 0)" stroke="rgb(189, 189, 189)" stroke-width="1px" opacity="0.25"></line><line x1="1243.158125" y1="0" x2="1243.158125" y2="377" fill="rgb(0, 0, 0)" stroke="rgb(189, 189, 189)" stroke-width="1px" opacity="0.25"></line></g><g><line x1="0" y1="377" x2="1243.158125" y2="377" fill="rgb(0, 0, 0)" stroke="rgb(189, 189, 189)" stroke-width="1px" opacity="0.25"></line><line x1="0" y1="348" x2="1243.158125" y2="348" fill="rgb(0, 0, 0)" stroke="rgb(189, 189, 189)" stroke-width="1px" opacity="0.25"></line><line x1="0" y1="319" x2="1243.158125" y2="319" fill="rgb(0, 0, 0)" stroke="rgb(189, 189, 189)" stroke-width="1px" opacity="0.25"></line><line x1="0" y1="290" x2="1243.158125" y2="290" fill="rgb(0, 0, 0)" stroke="rgb(189, 189, 189)" stroke-width="1px" opacity="0.25"></line><line x1="0" y1="261" x2="1243.158125" y2="261" fill="rgb(0, 0, 0)" stroke="rgb(189, 189, 189)" stroke-width="1px" opacity="0.25"></line><line x1="0" y1="232" x2="1243.158125" y2="232" fill="rgb(0, 0, 0)" stroke="rgb(189, 189, 189)" stroke-width="1px" opacity="0.25"></line><line x1="0" y1="203" x2="1243.158125" y2="203" fill="rgb(0, 0, 0)" stroke="rgb(189, 189, 189)" stroke-width="1px" opacity="0.25"></line><line x1="0" y1="174" x2="1243.158125" y2="174" fill="rgb(0, 0, 0)" stroke="rgb(189, 189, 189)" stroke-width="1px" opacity="0.25"></line><line x1="0" y1="145" x2="1243.158125" y2="145" fill="rgb(0, 0, 0)" stroke="rgb(189, 189, 189)" stroke-width="1px" opacity="0.25"></line><line x1="0" y1="116" x2="1243.158125" y2="116" fill="rgb(0, 0, 0)" stroke="rgb(189, 189, 189)" stroke-width="1px" opacity="0.25"></line><line x1="0" y1="86.99999999999999" x2="1243.158125" y2="86.99999999999999" fill="rgb(0, 0, 0)" stroke="rgb(189, 189, 189)" stroke-width="1px" opacity="0.25"></line><line x1="0" y1="58" x2="1243.158125" y2="58" fill="rgb(0, 0, 0)" stroke="rgb(189, 189, 189)" stroke-width="1px" opacity="0.25"></line><line x1="0" y1="28.999999999999982" x2="1243.158125" y2="28.999999999999982" fill="rgb(0, 0, 0)" stroke="rgb(189, 189, 189)" stroke-width="1px" opacity="0.25"></line><line x1="0" y1="0" x2="1243.158125" y2="0" fill="rgb(0, 0, 0)" stroke="rgb(189, 189, 189)" stroke-width="1px" opacity="0.25"></line></g></g></g><g><g><line x1="0" y1="1073" x2="1243.158125" y2="1073" fill="rgb(0, 0, 0)" stroke="rgb(153, 153, 153)" stroke-width="1.5px"></line></g></g><g><g><line x1="82.87720833333333" y1="0" x2="82.87720833333333" y2="377" fill="rgb(0, 0, 0)" stroke="rgb(153, 153, 153)" stroke-width="1.5px"></line></g></g><g><g><g><g><g><path stroke="rgb(255, 112, 67)" stroke-width="2px" d="M84.5347525,-50.87673339843749L84.94913854166666,9.570058306525583L87.83326539166666,20.68048469160237L89.49080955833334,7.172111593759271L89.90519559999998,0.0038894601047985145L91.54616432499999,15.23938181175236L91.96055036666667,20.11551273956523L92.37493640833333,13.73845713049366L93.20370849166666,1.3218403650978008L93.61809453333332,2.6517454691450175L94.86125265833333,-4.963660472148826L95.6734493,11.000699702421848L98.15976555,14.214733888561678L100.62950635833333,-1.545643566737669L101.45827844166665,12.405803104017467L104.75679133333333,33.09188645914265L105.17117737499998,18.005336663614614L105.58556341666666,17.27409549961994L106.41433549999999,9.129446863793628L108.05530422499999,-2.2934382977288372L110.54162047499999,-2.2898430220639883L110.95600651666666,20.05605160373057L111.37039255833332,25.83740884666274L112.1825892,36.74724827601778L113.01136128333333,32.202139919910735L113.42574732499999,23.253758740589063L113.84013336666666,0.16786924740527687L114.25451940833332,11.828580958595492L115.08329149166666,-18.15045022553357L115.49767753333333,-21.276409704869288L118.38180438333333,1.8600832465825288L119.21057646666665,1.2009496612250723L119.62496250833333,15.085848241104703L120.85154519166666,11.432496005852288L122.09470331666665,13.487591826020706L123.75224748333333,16.818239711089873L128.6917291,15.992218933947006L129.10611514166666,-0.15048126515384563L130.34927326666667,-12.97058155914699L131.59243139166665,0.036854198868263244L132.0068174333333,4.739326017582473L133.23340011666664,8.895028814660268L136.13410240833332,0.8128345475543216L138.60384321666666,-2.789628262747284L140.26138738333333,1.862750066515578L141.073584025,-42.598632826692054L141.90235610833332,-10.236076702978856L142.73112819166667,4.096796847058445L143.14551423333333,11.060328718958777L145.61525504166667,7.07287061703686L146.02964108333333,10.242403197650175L149.328153975,22.881986393473802L150.1569260583333,32.35726386839774L150.5713121,22.825529015004456L151.814470225,1.0176297858447718L155.11298311666667,16.971899589541714L156.35614124166665,27.024430980425823L157.582723925,32.81708276960351L158.41149600833333,27.89207237713834L160.89781225833332,46.11552488922726L161.7100089,42.68717509982848L162.12439494166665,64.6843148100412L163.36755306666666,62.4785656548457L163.78193910833335,62.85062278947854L164.19632515,57.85407822528546L166.25167991666666,50.83032607088258L167.49483804166667,33.77108237509478L167.90922408333333,45.840130282442665L168.323610125,31.35227637816591L170.37896489166667,23.831743916300653L170.7933509333333,-5.816285118172968L171.207736975,6.03093379136061L172.4508951,-1.6786445028122956L174.50624986666665,18.71589733440877L175.74940799166666,28.531733602852558L176.16379403333335,25.129103475605916L176.57818007499998,38.70714794563093L176.99256611666664,25.16702748771492L178.21914879999997,44.87841490791243L179.04792088333332,46.52551177342979L179.87669296666667,52.46186001142148L180.70546505,62.193821112000336L181.53423713333333,17.219635044508887L182.346433775,37.087405114653876L183.5895919,29.09738383660496L184.00397794166665,-9.845852310471818L184.4183639833333,25.57986749399885L184.832750025,43.12337550751829L185.66152210833332,58.840607240028646L188.13126291666663,47.62041939175037L191.84416185,36.11248968018209L192.67293393333333,40.5254078151902L193.50170601666667,17.85806440129711L195.14267474166664,42.64478570590806L195.55706078333333,60.74264241356924L195.971446825,46.72876143266251L199.26995971666668,40.37514948235599L199.68434575833334,57.644459801223434L201.34188992499998,51.94834293019241L201.75627596666666,61.33415163560742L202.17066200833332,67.73331349355799L203.39724469166666,72.16992772185783L207.11014362499998,85.85730969582788L207.52452966666664,51.25432912838827L208.76768779166665,42.070780023660866L209.596459875,40.13080852876965L210.42523195833334,44.12982799406446L211.65181464166668,57.514823077290494L212.48058672499997,51.75572374931823L212.89497276666665,33.893005647960166L213.72374484999997,47.848514292927554L214.55251693333332,36.864015241865694L215.364713575,54.58384143102475L216.19348565833332,46.49676120630722L218.26541586666664,55.972498774590804L218.6798019083333,56.31575066809253L219.49199854999998,42.729616776258425L219.90638459166667,34.860396660373134L223.61928352500001,22.164406568511218L224.4480556083333,29.683223636043692L224.86244165,30.11525117413682L226.10559977499997,50.1601496988489L228.16095454166665,52.87162230628405L228.989726625,55.10434612465278L229.40411266666663,42.99687865200299L230.64727079166664,56.99352733667552L231.87385347499998,50.95217934075098L233.94578368333333,61.57748745258828L234.77455576666668,71.26547321144072L235.1889418083333,61.89582972212962L237.65868261666665,71.4003251292213L238.0730686583333,41.90792961682208L238.90184074166666,43.56247211849419L240.54280946666663,73.07254151810218L241.37158154999997,76.17427088396057L241.78596759166663,86.05441210412391L243.44351175833333,64.37547372679299L244.67009444166666,72.72598010729021L245.08448048333332,49.508667032134355L245.49886652499998,47.687853421517545L247.15641069166665,23.32002492191773L249.2117654583333,24.462558399932217L249.6261515,25.970614000069766L250.04053754166665,18.994629995361336L250.4549235833333,25.02690383854968L250.869309625,35.619707320773784L251.28369566666666,36.354058491240814L254.58220855833332,35.549908814962365L255.82536668333333,22.925418348207952L256.637563325,38.62029436962453L259.9526516583333,47.19708264565125L262.00800642499996,30.262576077053517L262.4223924666666,45.35906631546085L262.83677850833334,60.86722074943591L263.25116455,62.665084004585545L263.66555059166666,77.01811312449891L265.30651931666665,59.544952136368025L267.37844952499995,81.82067731088723L268.2072216083333,54.0341170619571L270.262576375,70.75033396973723L270.67696241666664,62.95312409864036L272.33450658333334,58.96612272109908L273.146703225,59.194892777327965L273.5610892666666,65.9257514211804L274.80424739166665,48.708509698439514L276.04740551666663,30.987342286954558L276.46179155833335,57.684415968055774L278.10276028333334,41.97375487392814L278.51714632499994,55.834163201788655L280.17469049166664,54.6120123857833L282.6444313,45.06500290832952L283.05881734166667,60.643932821963574L283.4732033833333,52.42137034597992L284.30197546666665,62.26613050683435L284.7163615083333,40.59314407695195L285.52855815,40.092258654159316L286.3573302333333,47.46110998857556L286.77171627499996,48.12816456524507L287.1861023166666,50.69055809117943L287.60048835833334,46.83313645239972L289.655843125,57.053667928789224L290.4846152083333,71.12874552866805L290.89900125,79.58987864497L291.31338729166663,116.80413026143992L292.14215937499995,103.81691858779318L294.19751414166666,91.5237988830372L294.6119001833333,80.70307279234478L296.26944435,46.75809669438743L296.6838303916666,51.385540732946154L297.91041307499995,51.54032437487874L298.7391851583333,50.69623426456343L300.39672932499997,72.11813943685456L300.8111153666667,89.07437149495829L302.4520840916667,94.31932963875592L302.8664701333333,63.58687760992216L303.280856175,79.82079235428927L303.69524221666666,72.9187010713424L304.5240143,57.76142998333812L304.93840034166664,58.1216823237858L306.57936906666663,71.0272241354391L306.99375510833335,69.879809458284L307.40814115,88.88451835419727L308.2369132333333,79.34707544559434L309.4800713583333,88.10282494326361L311.53542612499996,89.12317497005012L313.19297029166665,94.50626245706243L313.60735633333326,85.78235155441641L315.2483250583333,87.53694326826727L316.49148318333334,97.6061660739198L316.90586922499995,53.27871658133363L317.32025526666666,59.74236540087881L317.7346413083333,55.18563081723627L318.54683795,73.82692155253419L318.96122399166666,82.74847582407858L320.20438211666664,67.76201138496045L320.6187681583333,76.79290778636678L321.0331542,84.54639256715603L321.4475402416666,71.0505885055054L323.0885089666666,87.22840816967404L325.9892112583333,70.81725113625232L327.6301799833333,73.11270720406803L328.044566025,68.00254128308202L328.8733381083333,87.93987795821607L329.28772415,84.20714644330997L329.7021101916667,83.55837195611775L330.92869287499997,86.73506202943862L331.7574649583333,92.71879757099771L332.58623704166666,94.87304935194439L333.415009125,53.81105581100955L333.82939516666664,88.18569835725751L335.47036389166664,90.2290202221505L336.29913597499996,87.897832771228L337.54229409999994,65.94002651896126L337.95668014166665,60.88830695438619L340.8408069916666,63.76721159658593L341.25519303333334,72.12491158196558L341.66957907499994,71.86403478706345L343.7249338416666,100.82296949254595L344.96809196666663,91.93130233862978L345.79686405,80.34564881965801L347.437832775,85.34346479387784L349.0953769416667,93.67902765063639L350.7529211083333,89.90245009275021L351.56511774999996,106.25669553367517L351.9795037916667,89.69660398783057L352.808275875,81.02239055271181L353.6370479583333,92.91535173162487L354.051434,87.73697210325074L354.4658200416667,94.61298618516611L355.69240272499997,111.27025518557328L356.52117480833334,82.56505692579972L356.93556084999994,67.82809905216142L357.34994689166666,54.07109816952094L357.7643329333333,67.06114445108658L359.00749105833336,91.22234426761617L359.8196877,98.63984356301489L361.89161790833333,97.74727037692296L362.72038999166665,92.16805172722505L364.36135871666664,69.20676310114742L364.7757447583333,80.95721402920155L365.6045168416666,82.04905006458175L366.433288925,71.20477724491425L367.2620610083333,70.3990587931197L368.4886436916666,66.54335055459785L368.9030297333333,82.01192375735923L370.1461878583333,112.81963111501479L370.9749599416666,127.13480501293218L371.3893459833333,101.80456126295879L373.44470075,88.51015699539919L375.1022449166667,105.37472433769742L376.74321364166667,96.99208761500151L377.15759968333333,97.62462978753243L377.571985725,104.3604924992219L377.98637176666665,108.1451944809006L378.40075780833337,121.46287148819292L380.8704986166666,124.52051791527019L381.69927069999994,123.44300145670474L382.11365674166666,116.4718560856113L382.5280427833333,113.3295054977209L382.942428825,101.94802536940074L383.35681486666664,96.11465047342428L384.99778359166663,105.05726003110401L385.826555675,115.37646721464388L389.12506856666664,124.11227003120769L390.3682266916666,140.61521377770467L392.8379675,145.68632133628785L393.25235354166665,132.67447522837014L393.6667395833333,124.42073068232004L394.9098977083333,100.96058783260456L395.73866979166667,104.99548857022567L396.15305583333327,102.22975490198989L396.96525247499994,125.60904742553355L398.2084106,113.63506153039299L400.2803408083333,102.628535991197L401.50692349166667,103.4849242294824L402.33569557499993,108.2688018190361L402.75008161666665,107.6742400697121L403.57885369999997,107.33244076608356L405.219822425,116.63655130969596L405.6342084666666,118.46354093387701L406.46298054999994,115.58582600478817L408.12052471666664,107.54169471946504L408.5349107583333,99.592032983313L409.76149344166663,117.51580950189329L411.0046515666666,98.19979162691129L411.83342365,100.350314343916L413.474392375,93.72985688156157L413.8887784166667,101.1641847292025L414.71755049999996,105.52840190565655L415.5463225833333,96.78328862155723L415.960708625,95.20053500628141L416.7894807083333,99.54420568115485L417.60167735,113.78984839575375L418.4304494333333,84.65072102546522L418.84483547499997,104.3533809995639L419.2592215166667,108.84865789842522L421.72896232499994,96.4548811465734L423.38650649166664,93.07509160728888L423.80089253333335,76.42597782139123L424.21527857499996,84.6711755028058L429.17133563333334,75.36081375772588L429.983532275,100.24143254544728L430.81230435833334,99.17036569685207L433.2986206083333,113.20602570215195L434.11081724999997,116.74624130693606L435.353975375,154.44019636846858L435.7683614166666,132.41628473576003L437.0115195416666,130.6292456895437L438.65248826666664,136.32894610377437L439.0668743083333,131.55952924041554L439.8956463916667,101.56988610549787L440.3100324333333,97.86129698283284L440.724418475,104.71522417216266L441.13880451666665,92.76324298008423L441.5531905583333,112.00430212951602L444.4373174083333,107.29488099749712L445.68047553333327,103.02245673731059L449.3933744666666,100.89706035332439L451.863115275,84.93695713990519L452.27750131666664,100.06682641883211L452.6918873583333,94.98735374953012L453.1062734,95.1582954518196L454.747242125,100.09117760484794L458.0623304583333,93.87348985073723L458.87452709999997,108.46580446778171L459.7032991833333,122.77790486328695L460.53207126666666,118.236380328129L462.1896154333333,89.51242667890911L463.001812075,94.30940912445513L464.65935624166667,111.1371366190521L465.0737422833333,111.97960403177409L465.90251436666665,107.40590989499576L466.31690040833325,104.15719722923146L467.1290970499999,115.83665793350893L467.9578691333333,123.28421829271407L468.37225517499996,119.02041001925527L469.61541329999994,118.24361349052953L470.4441853833333,126.40216579590962L472.91392619166663,150.91158289063284L473.3283122333333,140.37340495947805L474.57147035833333,123.62971049800198L476.2124390833333,137.51268699703883L477.4555972083333,125.09504789011474L478.2843692916666,110.32032044934988L479.9253380166667,112.84085822567782L480.3397240583333,104.80092833365809L481.99726822499997,92.95529705035752L482.41165426666663,77.82301732245742L488.59429400833335,77.68741370042733L489.00868004999995,81.48325074752569L489.42306609166667,102.64304999836565L491.0806102583333,114.56663585334822L492.30719294166664,117.21123158416007L493.5503510666666,134.2349055659434L494.37912314999994,94.95884856901189L494.79350919166666,118.64172317311306L496.4344779166666,126.16457212694097L496.8488639583333,114.65710020809698L497.67763604166663,120.11482732340235L498.9207941666666,115.23579386026843L499.3351802083333,115.59679825589888L500.5617628916666,124.22112730940263L500.9761489333333,128.26271727820298L502.2193070583333,100.58628704347262L504.27466182499995,88.83364922144638L504.68904786666667,108.64412452337183L505.51781995,87.2255868733916L506.3465920333333,87.5936542195772L508.40194679999996,94.77564431845012L508.8163328416666,108.57145749264171L509.64510492499994,106.20185465647022L510.05949096666666,108.28229008081824L510.47387700833326,80.62943777336972L510.88826305,85.30616460786268L511.7170351333333,97.59409610929296L513.7723898999999,111.07288387806753L514.6011619833333,98.7887805554676L515.0155480249999,124.48210732632728L516.65651675,139.3042872622182L518.3140609166667,135.22493101519336L519.5572190416666,132.8495436906159L521.1981877666666,130.63739390130232L521.6125738083333,120.57482075044294L523.270117975,106.96890223527109L524.0988900583333,114.74065557592029L524.9110866999999,115.79551792414038L525.7398587833333,120.83111303517948L526.5686308666667,129.62626276720374L526.9830169083333,120.10707015530424L528.2261750333333,118.21575843488485L530.6959158416666,120.36281313098192L531.524687925,142.3395319358279L531.9390739666667,122.78196099033339L533.16565665,129.98169733922944L533.5800426916667,145.14102419703096L535.2375868583333,109.94517323674972L537.2929416249999,103.35391344101782L538.1217137083333,119.4527912885952L538.9504857916667,118.07158769107905L539.779257875,145.44699706490763L540.6080299583333,154.7052764854743L541.4202266,148.01975524637498L542.663384725,142.1073461285172L543.0777707666666,128.4874439257042L543.4921568083333,101.57061077240691L544.3209288916667,92.34799870767709L546.7906697,125.34654282095985L547.6194417833333,133.04481386139062L548.4482138666666,124.89614021078593L548.8625999083333,116.62330126034323L549.67479655,115.97053909268958L551.7467267583332,121.48301414466785L553.802081525,117.05362137587689L554.6308536083334,95.5907045187778L555.04523965,104.9989591665624L557.9293664999999,104.72002642147659L558.3437525416666,114.8108083509906L558.7581385833333,99.93736198827158L559.1725246249999,118.65642652411435L559.5869106666667,120.39802517820823L561.2444548333333,132.06901221703092L562.8854235583333,121.3605421334646L565.3717398083334,127.36150760621815L566.18393645,121.0679411886105L567.427094575,151.49863274560153L568.2558666583333,138.0274370869602L568.6702527,137.39806643450495L569.0846387416666,137.00840388940742L570.311221425,119.62612686321019L571.55437955,110.25409294243074L572.3831516333332,108.64346686634212L573.2119237166667,119.58470323466206L573.6263097583333,122.82605129746659L574.4385063999999,109.90939557619527L574.8528924416667,125.48041570948915L575.2672784833333,122.61852885064638L575.681664525,125.4771507984798L576.92482265,106.59566388413114L577.3392086916666,120.35629607875505L578.5657913749999,105.2665129680192L578.9801774166666,129.4572548783947L579.3945634583333,138.8311092986654L580.6377215833334,128.36100685574547L581.052107625,132.17464174970542L581.4664936666667,121.10494057000867L583.5218484333333,113.89721816463106L586.820361325,124.16291508096442L587.6491334083333,124.36397219730009L588.4779054916667,113.05290706398894L588.8922915333333,110.05947085787827L589.306677575,113.93352718352254L590.9476463,105.70882303237202L591.7764183833333,117.22706235312913L592.6051904666666,115.63056779269822L593.0195765083333,153.2723605896543L593.8483485916666,141.51913080631272L596.3180894,154.19934951119626L597.1468614833333,131.73330655969292L597.561247525,159.46255165233188L599.20221625,156.78734786317528L599.6166022916666,147.94697907551188L600.4453743749999,147.7800353162371L600.8597604166666,150.40138604949092L601.6885325,159.7456571242921L602.1029185416667,130.1446623185475L603.329501225,154.18263569329568L603.7438872666667,147.38874891597106L604.1582733083333,134.8807939799492L605.4014314333333,118.67624877912849L606.6445895583333,137.21653698718683L608.6999443249999,114.58317592765192L609.5287164083333,102.05730884271568L610.3574884916666,100.64989890474476L610.7718745333333,112.88614718986435L611.584071175,108.50971343329567L611.9984572166667,118.95465371238909L614.8991595083332,132.23745864847712L616.1257421916666,137.04882084641451L616.954514275,141.76921975850576L618.1976724,137.20901016640315L621.0817992499999,145.01218937966587L621.4961852916666,156.11037826889114L622.324957375,148.87230079896608L622.7393434166667,129.887611291698L623.1537294583333,103.53895638319256L625.209084225,132.19113512985587L626.0378563083333,124.84497012800841L626.8666283916666,119.53942342554342L628.093211075,125.54220455217734L628.5075971166666,125.0617151225593L628.9219831583332,103.18087178940488L630.1651412833332,113.46319777699748L630.579527325,129.52766800932795L630.9939133666666,130.6671715616076L632.22049605,119.48612836949248L632.6348820916666,132.79762628442603L633.8780402166666,123.33983864323883L635.5355843833333,133.18194955026712L636.347781025,138.0463035889957L636.7621670666666,130.40855356454298L637.5909391499999,131.37055780768011L639.2484833166666,150.86960530912611L639.6628693583333,151.64313503230616L641.718224125,148.827135440583L643.7901543333334,133.19987218877927L645.0167370166668,133.18798578849314L646.6742811833333,142.71594643622265L647.9174393083333,126.30298623582452L648.7296359499999,107.72225119271384L650.8015661583333,120.39863155999743L651.6303382416667,122.21261386934205L652.8569209249999,124.89936407133246L653.2713069666667,142.79211954719833L653.6856930083333,137.29024906389824L654.5144650916667,144.77331289453352L655.7576232166667,152.726994990529L656.1720092583333,163.2317321867297L656.9842058999999,152.96584900532002L657.3985919416666,134.79260889112638L658.2273640249999,142.43812364810486L659.0561361083332,136.35506484957196L659.4705221499999,115.36261918620431L661.1114908750001,138.22510204606562L661.5258769166667,149.400217916621L664.0121931666666,124.4070351710293L666.0675479333332,139.94722167782604L668.1394781416666,151.16917852652895L668.5538641833333,147.01749692901942L669.366060825,142.20410606564556L671.0236049916666,145.97158396274884L672.2667631166667,159.79995282909994L674.736503925,167.5435247196277L675.97966205,137.80166664455956L678.4494028583333,151.32867458576195L678.8637888999999,148.89540241022868L680.106947025,141.12396277846875L682.1623017916666,138.31495631797506L683.8198459583333,146.17807470822711L686.2895867666666,150.04439655845428L688.361516975,141.86461762998056L689.1902890583333,153.76758280485353L690.8312577833333,148.4371431684755L691.2456438249999,157.93481094791335L692.0744159083333,152.44661467281662L695.3729288,140.30485744382318L699.5002137749999,148.3952062409496L699.9145998166666,145.0230670981569L700.7433718999999,162.421934932577L701.1577579416667,162.96024611540147L702.7987266666667,165.28630680226547L703.2131127083333,163.66641299156638L704.0418847916667,174.78258009751437L705.6994289583333,148.27974271376786L706.9260116416666,165.35097492893433L708.5835558083332,151.13586891265643L708.9979418500001,148.68814199130085L709.4123278916667,169.43614824644968L709.8267139333333,139.9019309697804L710.638910575,150.67680089759625L712.2964547416666,156.55604639491887L713.5396128666666,151.17848754236115L713.9539989083332,138.74735766148876L716.0093536749999,128.77006412036627L718.0812838833332,121.05765755515482L718.893480525,148.2616707134131L720.5510246916666,169.3650481614986L721.7941828166666,172.53907619351773L723.8495375833334,179.26310864552102L732.518493575,164.92702578330997L732.9328796166666,173.064275103981L734.5904237833333,159.15702046585307L739.5299054,167.15307747306974L739.9442914416667,180.08024261005505L741.6018356083333,179.87653420692132L742.4306076916666,139.5610086372278L742.8449937333332,135.1293094396142L743.6571903749999,137.3358510803861L744.0715764166666,134.86846855900473L745.3147345416667,139.36368055477985L746.5578926666667,156.08424588297487L747.78447535,161.99252680558232L748.6132474333333,155.75084939134908L749.0276334749999,144.0533960876162L749.8564055583332,166.408848208597L750.2707915999999,174.3997371420139L751.0995636833333,175.4408603109332L751.911760325,177.32713310144229L752.3261463666666,163.13702875450568L752.7405324083333,164.56280825071266L753.15491845,149.31082673741295L753.9836905333333,152.41396207800557L757.282203425,161.5963899707172L758.52536155,160.67860579200206L758.9397475916667,149.26934931074913L760.166330275,146.48401906586417L763.0670325666666,139.62001451797997L765.1223873333333,120.75701705955869L765.9511594166665,124.46930525223789L766.3655454583334,114.8815083665079L767.6087035833334,118.30615589317665L768.420900225,141.71329319504792L770.0784443916666,148.94417309542035L770.4928304333333,141.45825332011464L770.9072164749999,151.1017258104083L771.7359885583334,162.99805468593814L775.03450145,162.42789761853564L775.4488874916666,161.0577107060217L775.8632735333333,173.53220505036762L777.0898562166666,178.20531575205428L777.9186282999999,196.13424623395758L778.3330143416665,213.91267506152428L781.6315272333333,216.80963853427798L783.7034574416667,236.5670552015337L786.5875842916666,251.38563462496023L787.8307424166667,267.7935749137416L788.2451284583333,281.7153348981153L789.8860971833333,285.3543977587588L793.184610075,280.61121716404136L794.4277682000001,275.4505509894384L794.8421542416667,294.59554880906194L795.2565402833333,278.57976075325746L799.3838252583332,283.36988037884277L800.6269833833333,292.2835247246626L801.439180025,299.5279778053107L802.2679521083332,303.66205547201827L803.0967241916666,301.304925646819L803.5111102333333,309.1954108433984L803.925496275,312.37589952885537L804.3398823166666,315.69858285623394L805.9808510416666,317.6212153357896L806.809623125,308.92154232440805L807.6383952083332,306.00705350403877L808.05278125,300.1959201188429L808.4671672916666,292.9870412389518L810.1081360166665,303.31963187019596L812.180066225,287.3238329463442L814.6498070333333,286.71402162445264L815.0641930749999,278.1126370975661L815.4785791166665,283.0994990444681L817.1361232833333,280.24680021003394L817.948319925,286.6966477813011L818.3627059666666,293.9122103316765L822.0756048999999,317.0393533539998L822.9043769833333,303.51659764076857L823.318763025,289.1426876844755L824.1475351083333,292.7936194772775L827.0316619583333,293.07194690313725L827.8604340416666,310.0650668116883L828.6892061249999,328.0489497833184L829.1035921666667,340.89898912200454L831.1589469333333,338.5215039942899L832.8164910999999,325.33515411436235L833.6452631833333,317.50648501628416L835.2862319083333,310.43377077360594L835.7006179499999,329.15082414235417L837.7725481583333,336.4982111769916L838.5847448000001,333.9813570768238L839.4135168833333,331.7464860865892L840.2422889666666,343.6241180194015L840.6566750083333,337.7883755335029L841.07106105,330.2851383251122L841.4854470916666,327.368103297305L842.712029775,310.4580943662191L843.5408018583332,309.04292771406824L845.198346025,310.1364559550235L846.0271181083333,311.53477850689535L847.2537007916666,330.8480020288014L848.4968589166666,324.7732352092234L848.9112449583332,323.59555511276494L850.9665997249999,319.82279556135717L852.20975785,324.1314296102352L853.0385299333332,307.62068877648096L853.452915975,331.5754083520328L854.2816880583332,328.3851399723995L855.9226567833333,318.9556810495273L856.3370428249999,317.0282034192394L856.7514288666666,321.925191001866L857.1658149083333,325.1314670142945L859.6355557166665,327.7883986751429L860.0499417583334,304.0232886795337L860.4643278,310.4733772709861L862.1218719666666,314.7628148953543L862.5362580083333,312.63595773143544L863.7628406916665,320.85432980531533L864.5916127749999,313.08890946479494L865.8347709,320.357443687124L866.6635429833333,301.55407013909223L867.475739625,298.0366866828139L867.8901256666667,308.19055372484473L868.3045117083333,318.7493075597839L870.7908279583334,316.53781820932915L872.846182725,317.5769424120578L873.2605687666667,312.52265790621385L873.6749548083333,319.0565389401114L874.0893408499999,322.98720756813657L876.5590816583333,342.31588202865254L880.2719805916666,326.2789903448615L880.6863666333333,312.74634396161787L882.3439107999999,320.5130613480836L883.1726828833332,331.91590640191043L884.8136516083332,330.67752547254827L885.22803765,354.54317270749283L885.6424236916666,358.6139608244442L886.0568097333332,340.58725609761876L886.8855818166667,349.87758576857726L887.2999678583333,334.819204142008L888.9409365833333,337.56740911644664L891.0128667916666,343.52747416227436L891.4272528333332,348.31155704786937L892.6538355166666,353.5384633160769L893.8969936416667,350.8413699694472L897.1955065333334,343.4980230044919L897.609892575,330.55197364708954L898.0242786166666,351.2051190407557L899.2674367416666,352.44064662198605L901.3227915083334,358.438218565566L901.73717755,342.1784561819313L902.1515635916666,351.400632217977L903.3947217166666,349.0105138111287L903.8091077583333,351.98330739117887L905.0356904416666,362.8819337956513L905.8644625249999,338.98474287814736L906.6932346083333,348.19561533330665L908.7485893749999,375.82372226773845L909.5773614583333,356.6308374599755L912.0636777083333,355.3384618323344L913.2902603916667,355.4260895423998L914.9478045583332,320.4078278041916L917.4175453666667,314.40898867924267L919.0750895333333,329.75222408230576L920.3182476583332,330.53659363129566L921.1304442999999,329.2652713036257L921.9592163833332,332.23700613568263L922.3736024249998,332.8376788921458L923.2023745083333,341.8785918687892L923.6167605499999,339.70711483305485L924.0311465916667,338.3337845518395L925.257729275,327.36547535816266L925.6721153166666,357.61831016770606L926.0865013583333,360.61628238839035L929.38501425,366.11227825659L929.7994002916666,360.88583309138056L930.2137863333332,353.5706425511735L930.628172375,355.3104455743956L931.8713305,349.08638004782887L935.998615475,356.02591387893926L938.0539702416665,356.87774573332393L938.4683562833333,366.24258088783847L938.882742325,346.59609202187755L939.2971283666666,344.75527238040223L940.9546725333332,355.95600954445536L941.766869175,372.9743379067047L942.5956412583333,357.5935196889901L943.0100272999999,345.918687964422L943.8387993833334,350.99056097573026L945.0819575083333,342.5882620677767L946.7229262333333,344.44407196062724L947.137312275,337.27290512097426L947.9660843583333,332.5930382843891L948.7948564416665,335.7423023972168L950.0214391249999,351.3712791585205L952.0933693333333,356.20637612385497L954.1487240999999,362.0826491692668L955.3918822249999,364.05548930618215L957.0494263916665,369.1542618258509L958.2760090749999,366.4593786943555L958.6903951166667,355.0099830547988L959.1047811583333,353.6000835363083L960.3479392833333,345.64938373176346L962.8176800916666,334.4569309779571L965.3039963416667,343.18833572387655L965.7183823833333,343.952240432739L966.5305790249998,353.16824249725323L967.7737371499999,348.0567648042296L969.0168952749999,361.12721110148607L970.657864,376.0696514087355L971.0722500416666,367.3556540268863L972.7297942083333,362.56720137961133L973.14418025,359.49622645156785L973.5585662916666,349.2229774125819L975.1995350166666,343.83444142757685L976.0283071,330.44555187039754L977.271465225,347.2085879694346L977.6858512666666,340.4586913271393L978.9124339499999,346.0386757869077L980.155592075,340.9631787026908L981.8131362416666,334.07922478670775L982.2275222833332,340.63574421592983L983.039718925,354.53115895163916L983.4541049666666,333.84559758206547L983.8684910083332,346.4767796050532L984.6972630916666,345.6212718160665L985.1116491333332,336.69891279321916L985.526035175,334.7486209742965L985.9404212166666,346.29340373107976L988.8245480666666,345.3229868292852L989.6533201499999,345.1169672453434L990.4820922333333,340.03463799703337L991.2942888749999,339.3102822119371L991.7086749166666,347.19560819288716L992.1230609583333,349.5152693934683L992.5374469999999,342.52482950560363L993.3662190833334,356.99819471031896L994.1949911666666,354.00830264243814L994.6093772083333,353.51561745273403L996.2503459333333,363.69426504162084L996.6647319749999,370.87932201595106L997.9078900999999,362.9747273764977L1007.8034287749999,361.232375234105L1008.2178148166666,359.4883206228578L1009.8753589833333,351.0899956701314L1010.2897450249999,352.12307234751L1010.7041310666666,360.00030866327654L1011.9307137499999,372.3982942198111L1012.3450997916666,360.39991419971733L1013.1738718749999,365.08482015830793L1014.4170299999998,367.87481295358907L1014.8314160416667,354.4666049073561L1016.057998725,352.8649936438895L1016.4723847666667,349.5153270936914L1016.8867708083333,340.68679311353316L1018.544314975,353.69730470950253L1018.9587010166666,362.56955998244274L1020.1852837,337.2882653519677L1020.5996697416666,349.7663113506255L1021.8428278666667,356.4275913463167L1022.67159995,345.1652233662499L1025.1413407583332,328.88190269426553L1025.5557268,333.7262376782222L1025.9701128416666,346.98488767602504L1026.3844988833332,332.49979307731905L1030.9261698999999,347.09936504181866L1031.3405559416665,348.37058122507386L1032.5671386249999,339.3355613375322L1034.2246827916665,342.39777074388985L1035.8822269583334,335.85517658126975L1036.6944236,346.6143941757365L1038.7663538083334,337.21506981949994L1039.5951258916666,334.7370320279469L1040.0095119333332,328.18291674329345L1041.2360946166666,341.3025548123464L1041.6504806583332,341.4712158588769L1042.0648666999998,340.18906924086224L1043.7224108666665,317.05118269711926L1044.1367969083333,321.91084986063987L1044.9489935499998,335.49841109507486L1045.3633795916667,327.6126112162595L1046.1921516749999,329.6987854319481L1047.4353098,344.4876863319047L1047.8496958416667,368.2390798647063L1048.2640818833333,340.81499964308733L1049.076278525,333.56550982096195L1050.31943665,335.5978759176421L1050.7338226916665,349.58083858180265L1052.3913668583332,353.7922225358262L1053.2035635,346.62645457878926L1054.8611076666666,356.73064955280876L1055.2754937083332,356.4159139154818L1056.1042657916666,358.8228433846361L1056.5186518333333,346.57979530088585L1057.330848475,350.79650841350093L1058.1596205583332,326.598953289353L1058.5740066,327.87931643584784L1061.8725194916667,330.0489094140291L1062.2869055333333,335.73348494187115L1062.701291575,340.20621793221017L1063.9444497,334.88300001348466L1065.9998044666665,334.0176875643709L1068.4861207166666,317.0734893883214L1068.9005067583332,337.2142161619128L1070.955861525,335.0976512034758L1071.3702475666666,320.57301190932753L1073.0277917333333,304.1216286612363L1073.8399883749998,304.4785265985099L1074.2543744166667,325.60331059893736L1074.6687604583333,353.12830847760574L1077.96727335,358.4755680400368L1079.6248175166666,364.89699018784023L1080.4535896,369.0104447061951L1080.8679756416666,359.70126057412176L1084.1664885333332,342.73553907913134L1084.9952606166667,337.7679999139857L1086.2218432999998,342.0887957710888L1087.0506153833333,342.2842731286293L1089.1225455916665,340.09495646103665L1091.5922864,336.7223932898155L1092.4210584833334,334.62027857435527L1092.835444525,354.32081167074983L1093.2498305666666,356.94934874813816L1094.8907992916666,351.20341482071814L1096.1339574166666,363.37627602513743L1096.9627294999998,361.4843468919126L1097.3771155416666,356.44357941491495L1098.6036982249998,354.5124803829209L1099.0180842666666,371.26967025852315L1099.4324703083332,371.57020030279233L1101.5044005166667,346.97050404252104L1101.9187865583333,342.6780012062296L1102.7309832,340.94548615930216L1103.5597552833333,355.3102736916385L1104.3885273666667,350.0276534676919L1107.2726542166665,334.4692326104898L1108.5158123416666,334.3651246620596L1109.7589704666666,342.3710253432757L1111.3999391916666,366.78035662579106L1112.228711275,357.5142359356612L1116.7703822916667,359.496963903742L1118.0135404166665,354.4034956127463L1118.427926458333,355.122528410856L1121.3120533083334,353.5398612267105L1122.1408253916666,361.6084392051329L1122.5552114333334,364.44683868748956L1125.853724325,348.7767513146412L1126.6824964083332,354.94936907820784L1128.7378511749998,343.07371301783144L1129.1522372166664,352.89294447991364L1130.8097813833333,347.0529712921895L1133.6939082333333,335.31492139623185L1134.108294275,346.4704156804873L1134.5226803166668,324.74888417702465L1137.8211932083332,347.49715059505985L1140.2909340166666,355.2160867764052L1140.7053200583332,352.5440041211691L1141.1197060999998,357.6981829507364L1141.9484781833332,365.56549198153107L1142.7772502666667,342.84553158189595L1144.8326050333333,344.7107809513212L1145.2469910749999,341.5829813888253L1146.4901492,356.19124157422846L1148.9598900083333,351.9153466105049L1151.4462062583332,356.5758598148535L1152.6727889416666,351.6638617580927L1153.9159470666666,344.19515519599685L1156.385687875,333.2680933173736L1157.2144599583332,347.1903736046322L1157.628846,338.0612470579106L1158.0432320416667,343.39392793321315L1158.8720041249999,333.3543710742453L1159.2863901666665,335.5897864365421L1159.7007762083333,344.8534187428841L1161.3417449333333,348.1055959398431L1161.756130975,344.7010741403121L1162.1705170166665,348.8814068054451L1163.8280611833331,345.83612035341116L1165.0546438666665,357.56424359797376L1166.2978019916666,355.09225582741954L1167.5409601166666,345.6393266988226L1169.1819288416666,354.9676919582187L1170.4250869666666,363.3997168292492L1171.2538590499998,337.3931159894588L1173.7235998583333,338.0280124609316L1176.2099161083333,332.46348476024974L1178.6796569166668,326.47657708852256L1179.508429,330.1286318855497L1180.3372010833332,331.7523451763301L1181.149397725,337.2420641393002L1181.5637837666666,339.2950988892093L1181.9781698083332,343.22641083621613L1182.3925558499998,357.7801999266599L1182.8069418916666,351.62440792351543L1184.0501000166666,338.0642092647226L1187.3486129083333,344.0490324838409L1188.5917710333333,355.5229462433274L1189.403967675,363.4344130478194L1190.6471258,348.0186167213642L1192.3046699666666,347.69053857141006L1196.4319549416666,353.95164726365886L1198.0729236666666,343.4143269126862L1199.7304678333333,343.01111938453465L1200.144853875,333.0605451048188L1200.9736259583333,320.6089764220059L1201.7858225999998,313.4415038323183L1202.6145946833333,321.0730317170466L1203.0289807249999,331.6865822544228L1204.27213885,352.69112622433624L1205.913107575,358.73620336558025L1207.5706517416666,363.8140346776835L1208.399423825,369.1073483832652L1209.2281959083334,357.79503904040484" style="fill: none;" fill="none"></path></g></g></g></g><g opacity="0.2"><g><g><g><path stroke="rgb(255, 112, 67)" stroke-width="2px" d="M84.5347525,-50.87673339843749L84.94913854166666,51.88281249999999L87.83326539166666,33.90189208984376L89.49080955833334,-13.536224365234368L89.90519559999998,-12.706085205078145L91.54616432499999,44.81406250000002L91.96055036666667,30.15458374023438L92.37493640833333,0.08407592773436534L93.20370849166666,-25.98008117675779L93.61809453333332,5.629635620117177L94.86125265833333,-22.231002807617227L95.6734493,47.514315795898426L98.15976555,21.610345458984362L100.62950635833333,-37.96355590820309L101.45827844166665,44.738394165039054L104.75679133333333,81.13026123046876L105.17117737499998,-17.079626464843745L105.58556341666666,15.571835327148442L106.41433549999999,-9.843786621093733L109.29846235,-11.827005004882816L110.54162047499999,4.392037963867188L110.95600651666666,72.17608642578126L111.37039255833332,39.32355041503908L112.1825892,62.19866333007814L113.01136128333333,21.598309326171872L113.42574732499999,2.3761627197265573L113.84013336666666,-53.69566650390623L114.25451940833332,39.03565673828127L115.08329149166666,-88.09927062988282L115.49767753333333,-28.57015075683598L118.38180438333333,55.844381713867165L119.21057646666665,-0.33701171875003477L119.62496250833333,47.483694458007825L120.85154519166666,2.9080535888671855L122.09470331666665,18.282797241210922L123.75224748333333,24.589730834960932L128.6917291,14.06484069824219L129.10611514166666,-37.81673278808594L130.34927326666667,-42.88412170410158L131.59243139166665,30.38751831054688L132.0068174333333,15.71175537109377L133.23340011666664,18.59166564941407L136.13410240833332,-18.04561462402344L138.60384321666666,-11.195373535156238L140.26138738333333,12.71829833984376L141.073584025,-146.3418518066406L141.90235610833332,65.27655029296876L142.73112819166667,37.54016723632814L143.14551423333333,27.308569335937484L145.61525504166667,-2.231198120117199L146.02964108333333,17.637979125976553L149.328153975,52.37434692382812L150.1569260583333,54.46624450683592L150.5713121,0.5848144531249865L151.814470225,-49.86746826171877L155.11298311666667,54.198529052734365L156.35614124166665,50.48033752441408L157.582723925,46.333270263671885L158.41149600833333,16.400381469726565L160.89781225833332,88.63691406249998L161.7100089,34.68769226074219L162.12439494166665,116.01097412109377L163.36755306666666,57.33181762695314L163.78193910833335,63.71875610351562L164.19632515,46.19547424316407L166.25167991666666,34.44157104492186L167.49483804166667,-6.033819580078134L167.90922408333333,74.00124206542968L168.323610125,-2.452716064453094L170.37896489166667,6.283834838867199L170.7933509333333,-74.99501953125002L171.207736975,33.67444458007814L172.4508951,-19.66766052246094L174.50624986666665,66.30316162109376L175.74940799166666,51.43535156250002L176.16379403333335,17.189633178710924L176.57818007499998,70.38925170898436L176.99256611666664,-6.426586914062486L178.21914879999997,90.87165222167967L179.04792088333332,50.36873779296876L179.87669296666667,66.31333923339842L180.70546505,84.9017303466797L181.53423713333333,-87.72013244628907L182.346433775,83.44553527832034L183.5895919,10.454000854492206L184.00397794166665,-100.71340332031254L184.4183639833333,108.23988037109376L184.832750025,84.05822753906251L185.66152210833332,95.51414794921877L188.13126291666663,21.43998107910156L191.84416185,9.260653686523451L192.67293393333333,50.82221679687498L193.50170601666667,-35.03240356445313L195.14267474166664,100.48046875L195.55706078333333,102.97097473144531L195.971446825,14.029705810546886L199.26995971666668,25.550054931640624L199.68434575833334,97.93951721191408L201.34188992499998,38.65740356445312L201.75627596666666,83.23437194824218L202.17066200833332,82.66469116210936L203.39724469166666,82.52202758789065L207.11014362499998,117.79453430175782L207.52452966666664,-29.485958862304713L208.76768779166665,20.642498779296883L209.596459875,35.60420837402346L210.42523195833334,53.46087341308595L211.65181464166668,88.74647827148439L212.48058672499997,38.31782531738281L212.89497276666665,-7.786669921875033L213.72374484999997,80.41136779785157L214.55251693333332,11.233517456054706L215.364713575,95.93010253906249L216.19348565833332,27.62690734863281L218.26541586666664,78.08255310058594L218.6798019083333,57.1166717529297L219.49199854999998,11.028637695312486L219.90638459166667,16.49888305664062L223.61928352500001,-7.459570312500022L224.4480556083333,47.22713012695314L224.86244165,31.123315429687512L226.10559977499997,96.93157958984374L228.16095454166665,59.19839172363283L228.989726625,60.31403503417967L229.40411266666663,14.74612121582032L230.64727079166664,89.65237426757814L231.87385347499998,36.85570068359377L233.94578368333333,86.36987304687499L234.77455576666668,93.87077331542969L235.1889418083333,40.033328247070294L237.65868261666665,93.57748107910156L238.0730686583333,-26.907659912109416L238.90184074166666,47.42307128906251L240.54280946666663,141.92937011718752L241.37158154999997,83.41163940429688L241.78596759166663,109.10807495117189L243.44351175833333,13.791284179687507L244.67009444166666,92.21049499511719L245.08448048333332,-4.665063476562504L245.49886652499998,43.43928833007814L247.15641069166665,-33.538241577148426L249.2117654583333,27.12846984863282L249.6261515,29.489410400390643L250.04053754166665,2.717333984375011L250.4549235833333,39.10220947265626L250.869309625,60.33624877929687L251.28369566666666,38.067544555664064L254.58220855833332,33.673559570312484L255.82536668333333,-6.531726074218713L256.637563325,75.24167175292968L259.9526516583333,67.20958862304688L262.00800642499996,-9.251272583007795L262.4223924666666,80.58421020507814L262.83677850833334,97.05291442871092L263.25116455,66.86009826660155L263.66555059166666,110.50851440429689L265.30651931666665,18.77424316406249L267.37844952499995,133.7973693847656L268.2072216083333,-10.801190185546906L270.262576375,109.75484008789064L270.67696241666664,44.759634399414075L272.33450658333334,49.66311950683592L273.146703225,59.72868957519532L273.5610892666666,81.63108825683595L274.80424739166665,8.534945678710923L276.04740551666663,-10.362048339843726L276.46179155833335,119.97758789062502L278.10276028333334,5.315545654296873L278.51714632499994,88.17511596679688L280.17469049166664,51.76032714843752L282.6444313,22.7886474609375L283.05881734166667,96.99476928710936L283.4732033833333,33.235391235351564L284.30197546666665,85.23723754882815L284.7163615083333,-9.977157592773406L285.52855815,38.92352600097658L286.3573302333333,64.65509643554688L286.77171627499996,49.684625244140626L287.1861023166666,56.66947631835936L287.60048835833334,37.83248596191405L289.655843125,80.90157470703124L290.4846152083333,103.97059326171876L290.89900125,99.33252258300782L291.31338729166663,203.63738403320312L292.14215937499995,73.51342468261717L294.19751414166666,62.83985290527345L294.6119001833333,55.4547119140625L296.26944435,-32.44684753417965L296.6838303916666,62.18291015624999L297.91041307499995,51.9014862060547L298.7391851583333,48.72669067382813L300.39672932499997,122.1025848388672L300.8111153666667,128.6389129638672L302.4520840916667,106.55756530761718L302.8664701333333,-8.122177124023445L303.280856175,117.6999267578125L303.69524221666666,56.813821411132835L304.5240143,22.39446411132813L304.93840034166664,58.96227111816404L306.57936906666663,101.14015502929689L306.99375510833335,67.20250854492186L307.40814115,133.22883911132814L308.2369132333333,57.093041992187516L309.4800713583333,108.5329071044922L311.53542612499996,91.50399169921874L313.19297029166665,107.06679992675781L313.60735633333326,65.42655944824219L315.2483250583333,91.63099060058592L316.49148318333334,121.10101928710937L316.90586922499995,-50.15199890136717L317.32025526666666,74.82421264648437L317.7346413083333,44.55325012207032L318.54683795,117.32326660156251L318.96122399166666,103.56543579101563L320.20438211666664,32.79359436035155L320.6187681583333,97.86499938964845L321.0331542,102.63785705566406L321.4475402416666,39.56037902832031L323.0885089666666,124.97665405273439L325.9892112583333,32.52455139160157L327.6301799833333,78.46877136230468L328.044566025,56.07882080078125L328.8733381083333,134.4603302001953L329.28772415,75.4974395751953L329.7021101916667,82.04456481933596L330.92869287499997,94.14733886718749L331.7574649583333,106.68084716796875L332.58623704166666,99.8996368408203L333.415009125,-42.000262451171864L333.82939516666664,168.39319763183593L335.47036389166664,94.9967712402344L336.29913597499996,82.45839538574216L337.54229409999994,14.705145263671893L337.95668014166665,49.10096130371094L340.8408069916666,70.48465576171873L341.25519303333334,91.62621154785157L341.66957907499994,71.25532226562498L343.7249338416666,168.3938171386719L344.96809196666663,71.1840789794922L345.79686405,53.312457275390614L347.437832775,97.00503540039062L349.0953769416667,113.12867431640626L350.7529211083333,81.09043579101564L351.56511774999996,144.41660156249998L351.9795037916667,51.05639038085938L352.808275875,60.782559204101545L353.6370479583333,120.66559448242188L354.051434,75.65408630371095L354.4658200416667,110.65701904296874L355.69240272499997,150.13721618652343L356.52117480833334,15.58626098632813L356.93556084999994,33.44186401367188L357.34994689166666,21.971429443359384L357.7643329333333,97.37125244140624L359.00749105833336,147.59847717285157L359.8196877,115.94734191894533L361.89161790833333,95.664599609375L362.72038999166665,79.14987487792968L364.36135871666664,15.630422973632802L364.7757447583333,108.37493286132813L365.6045168416666,84.59666748046875L366.433288925,45.90147399902345L367.2620610083333,68.51904907226562L368.4886436916666,57.54669799804686L368.9030297333333,118.10526123046876L370.1461878583333,184.70428161621092L370.9749599416666,160.53687744140626L371.3893459833333,42.700659179687506L373.44470075,57.48988037109377L375.1022449166667,144.72538146972656L376.74321364166667,77.43260192871094L377.15759968333333,99.10056152343748L377.571985725,120.07750549316404L377.98637176666665,116.97616577148436L378.40075780833337,152.537451171875L380.8704986166666,131.6550262451172L381.69927069999994,120.92879638671873L382.11365674166666,100.20585021972657L382.5280427833333,105.99735412597656L382.942428825,75.3912384033203L383.35681486666664,82.5034423828125L384.99778359166663,125.92334899902345L385.826555675,139.4546173095703L389.12506856666664,144.49580993652344L390.3682266916666,179.12208251953126L392.8379675,157.51890563964844L393.25235354166665,102.31350097656248L393.6667395833333,105.16199340820313L394.9098977083333,46.22025451660154L395.73866979166667,114.4102569580078L396.15305583333327,95.77637634277345L396.96525247499994,180.16072998046877L398.2084106,85.69576110839844L400.2803408083333,76.94664306640624L401.50692349166667,105.48316345214842L402.33569557499993,119.43118286132814L402.75008161666665,106.28692932128907L403.57885369999997,106.53490905761718L405.219822425,138.346142578125L405.6342084666666,122.7265167236328L406.46298054999994,108.87115783691405L408.12052471666664,88.77205505371091L408.5349107583333,81.04282226562499L409.76149344166663,159.33795471191405L411.0046515666666,53.129083251953105L411.83342365,105.36820068359373L413.474392375,78.28212280273436L413.8887784166667,118.51094970703126L414.71755049999996,115.71157531738282L415.5463225833333,76.37802429199218L415.960708625,91.50744323730467L416.7894807083333,109.67943725585936L417.60167735,147.02968139648436L418.4304494333333,16.659423828125L418.84483547499997,150.32625427246094L419.2592215166667,119.33763732910155L421.72896232499994,67.53606872558592L423.38650649166664,85.18891601562501L423.80089253333335,37.578045654296886L424.21527857499996,103.90997009277342L429.17133563333334,53.636636352539064L429.983532275,158.29620971679688L430.81230435833334,96.67120971679688L433.2986206083333,145.95589904785157L434.11081724999997,125.00674438476561L435.353975375,242.39275817871095L435.7683614166666,81.02715759277345L437.0115195416666,126.45948791503905L438.65248826666664,149.62824707031248L439.0668743083333,120.43088989257811L439.8956463916667,31.594052124023424L440.3100324333333,89.20792236328126L440.724418475,120.70772094726564L441.13880451666665,64.87528686523436L441.5531905583333,156.90010681152344L444.4373174083333,96.30623168945313L445.68047553333327,93.053466796875L449.3933744666666,95.93780212402345L451.863115275,47.69671630859376L452.27750131666664,135.3698547363281L452.6918873583333,83.1352508544922L453.1062734,95.55715942382811L454.747242125,111.60123596191409L458.0623304583333,79.3655517578125L458.87452709999997,142.51453857421873L459.7032991833333,156.1728057861328L460.53207126666666,107.63948974609374L462.1896154333333,22.489868164062496L463.001812075,105.50236816406249L464.65935624166667,150.4018341064453L465.0737422833333,113.94536132812502L465.90251436666665,96.73395690917971L466.31690040833325,96.57686767578124L467.1290970499999,143.08873291015627L467.9578691333333,140.66185913085937L468.37225517499996,109.07152404785157L469.61541329999994,116.43108825683595L470.4441853833333,145.43878784179688L472.91392619166663,208.1002227783203L473.3283122333333,115.7843231201172L474.57147035833333,84.5610900878906L476.2124390833333,169.90629882812502L477.4555972083333,96.12055664062498L478.2843692916666,75.84595642089842L479.9253380166667,118.72211303710937L480.3397240583333,86.04109191894531L481.99726822499997,65.31549072265624L482.41165426666663,42.514364624023436L488.59429400833335,77.37100524902345L489.00868004999995,90.34020385742188L489.42306609166667,152.01591491699222L491.0806102583333,142.38833618164062L492.30719294166664,123.38195495605467L493.5503510666666,173.95681152343752L494.37912314999994,3.314715576171857L494.79350919166666,173.90176391601565L496.4344779166666,143.71788635253907L496.8488639583333,87.80633239746095L497.67763604166663,132.84952392578126L498.9207941666666,103.85138244628905L499.3351802083333,116.43914184570315L500.5617628916666,144.3445617675781L500.9761489333333,137.6930938720703L502.2193070583333,36.00794982910156L504.27466182499995,61.41082763671876L504.68904786666667,154.86856689453123L505.51781995,37.248999023437484L506.3465920333333,88.45247802734373L508.40194679999996,111.53362121582032L508.8163328416666,140.76168823242188L509.64510492499994,100.67278137207032L510.05949096666666,113.13663940429686L510.47387700833326,16.106115722656266L510.88826305,96.21852722167966L511.7170351333333,126.26593627929688L513.7723898999999,142.52338867187498L514.6011619833333,70.12587280273439L515.0155480249999,184.433203125L516.65651675,173.88937377929688L518.3140609166667,125.70643310546873L519.5572190416666,127.30697326660156L521.1981877666666,125.4757110595703L521.6125738083333,97.0954833984375L523.270117975,75.22175903320311L524.0988900583333,132.87474670410157L524.9110866999999,118.2568634033203L525.7398587833333,132.58083496093752L526.5686308666667,150.14827880859374L526.9830169083333,97.89562072753904L528.2261750333333,113.80269775390626L530.6959158416666,125.37260742187499L531.524687925,193.61854248046876L531.9390739666667,77.14762878417969L533.16565665,146.78108215332034L533.5800426916667,180.51278686523438L535.2375868583333,27.82152099609376L537.2929416249999,87.97430725097655L538.1217137083333,157.01683959960937L538.9504857916667,114.84877929687502L539.779257875,209.32295227050784L540.6080299583333,176.30792846679688L541.4202266,132.42020568847659L542.663384725,128.3117248535156L543.0777707666666,96.70767211914061L543.4921568083333,38.764666748046864L544.3209288916667,70.82857055664063L546.7906697,202.34314575195313L547.6194417833333,151.0074462890625L548.4482138666666,105.88256835937499L548.8625999083333,97.32001037597655L549.67479655,114.44742736816406L551.7467267583332,134.3454559326172L553.802081525,106.71837158203125L554.6308536083334,45.51056518554689L555.04523965,126.95155334472655L557.9293664999999,104.06918334960938L558.3437525416666,138.35596618652343L558.7581385833333,65.23265380859377L559.1725246249999,162.33424377441406L559.5869106666667,124.46175537109376L561.2444548333333,159.30131530761716L562.8854235583333,96.37411193847655L565.3717398083334,141.36376037597657L566.18393645,106.38295288085936L567.427094575,222.50357971191406L568.2558666583333,106.59464721679689L568.6702527,135.92953491210938L569.0846387416666,136.0991912841797L570.311221425,79.06748046874998L571.55437955,88.3860137939453L572.3831516333332,104.88533935546877L573.2119237166667,145.1142547607422L573.6263097583333,130.38919677734376L574.4385063999999,79.77053222656251L574.8528924416667,161.81279602050782L575.2672784833333,115.94079284667967L575.681664525,132.14726867675782L576.92482265,62.53886108398438L577.3392086916666,152.46443786621091L578.5657913749999,70.05701904296876L578.9801774166666,185.9023193359375L579.3945634583333,160.70343627929688L580.6377215833334,103.93076782226564L581.052107625,141.0731231689453L581.4664936666667,95.27563781738283L583.5218484333333,97.07919921875002L586.820361325,148.1162078857422L587.6491334083333,124.83310546875L588.4779054916667,86.66042175292968L588.8922915333333,103.07478637695311L589.306677575,122.97299194335938L590.9476463,86.51784667968751L591.7764183833333,144.1029541015625L592.6051904666666,111.90541381835936L593.0195765083333,241.10321044921872L593.8483485916666,114.09492797851564L596.3180894,183.7865264892578L597.1468614833333,79.31253967285157L597.561247525,224.16412353515628L599.20221625,150.54520568847656L599.6166022916666,127.31945190429687L600.4453743749999,147.39049987792967L600.8597604166666,156.51787109375002L601.6885325,181.5489562988281L602.1029185416667,61.075674438476554L603.329501225,210.271240234375L603.7438872666667,131.53634643554685L604.1582733083333,105.69556579589843L605.4014314333333,80.86564331054689L606.6445895583333,180.47720947265626L608.6999443249999,61.772000122070295L609.5287164083333,72.83028564453124L610.3574884916666,97.36594238281249L610.7718745333333,141.43739318847656L611.584071175,98.29803466796874L611.9984572166667,143.32618103027343L614.8991595083332,163.23067016601564L616.1257421916666,148.27533264160155L616.954514275,152.78348388671873L618.1976724,126.56852111816406L621.0817992499999,163.21960754394533L621.4961852916666,182.00615234375L622.324957375,131.98345336914062L622.7393434166667,85.59000244140624L623.1537294583333,42.0587615966797L625.209084225,199.04621887207028L626.0378563083333,107.70391845703126L626.8666283916666,107.15981445312498L628.093211075,139.54869384765624L628.5075971166666,123.94057312011721L628.9219831583332,52.12557067871096L630.1651412833332,137.45529174804688L630.579527325,167.0114318847656L630.9939133666666,133.32601318359377L632.22049605,93.3970275878906L632.6348820916666,163.85778808593753L633.8780402166666,101.27166748046874L635.5355843833333,156.14687500000002L636.347781025,149.3964630126953L636.7621670666666,112.5871368408203L637.5909391499999,133.615234375L639.2484833166666,196.36738281250004L639.6628693583333,153.44803771972656L641.718224125,142.25646972656247L643.7901543333334,96.73625793457029L645.0167370166668,133.16025085449218L646.6742811833333,164.94785461425784L647.9174393083333,88.00607910156249L648.7296359499999,64.36720275878908L650.8015661583333,149.97685241699222L651.6303382416667,126.44523925781249L652.8569209249999,131.16844787597654L653.2713069666667,184.54188232421876L653.6856930083333,124.45255126953127L654.5144650916667,162.23379516601562L655.7576232166667,171.28558654785155L656.1720092583333,187.74278564453127L656.9842058999999,129.01212158203126L657.3985919416666,92.38838195800783L658.2273640249999,160.27765808105468L659.0561361083332,122.16126098632813L659.4705221499999,66.38024597167967L661.1114908750001,191.5708953857422L661.5258769166667,175.47548828125002L664.0121931666666,66.08960876464842L666.0675479333332,176.20765686035156L668.1394781416666,177.35374450683594L668.5538641833333,137.33023986816409L669.366060825,130.97286071777341L671.0236049916666,154.76236572265623L672.2667631166667,192.06614685058594L674.736503925,185.6118591308594L675.97966205,68.40399780273437L678.4494028583333,182.89169311523438L678.8637888999999,143.2177673339844L680.106947025,122.9906036376953L682.1623017916666,131.76060791015624L683.8198459583333,164.52535095214844L686.2895867666666,159.0658142089844L688.361516975,122.77846679687502L689.1902890583333,181.54116821289065L690.8312577833333,135.99945068359375L691.2456438249999,180.09603576660155L692.0744159083333,139.6408233642578L695.3729288,111.97409057617188L699.5002137749999,167.27268676757814L699.9145998166666,137.15474243164064L700.7433718999999,203.01929321289063L701.1577579416667,164.21630554199217L702.7987266666667,170.71378173828123L703.2131127083333,159.88666076660155L704.0418847916667,200.72030334472655L705.6994289583333,86.43978881835939L706.9260116416666,205.18385009765623L708.5835558083332,117.96728820800782L708.9979418500001,142.9767791748047L709.4123278916667,217.8481628417969L709.8267139333333,70.98875732421877L710.638910575,175.81816406250002L712.2964547416666,170.27428588867187L713.5396128666666,138.63085021972657L713.9539989083332,109.74138793945313L716.0093536749999,105.48971252441407L718.0812838833332,103.06204223632814L718.893480525,211.73770141601562L720.5510246916666,218.60626220703125L721.7941828166666,179.9451416015625L723.8495375833334,194.95251770019533L732.518493575,131.47616577148435L732.9328796166666,192.05119018554686L734.5904237833333,126.70675964355468L739.5299054,185.8105438232422L739.9442914416667,210.2436279296875L741.6018356083333,179.4012145996094L742.4306076916666,45.49144897460937L742.8449937333332,124.78867797851561L743.6571903749999,142.4844482421875L744.0715764166666,129.11124267578123L745.3147345416667,149.85250854492185L746.5578926666667,195.09889831542966L747.78447535,175.77851562499998L748.6132474333333,141.18693542480472L749.0276334749999,116.75933837890625L749.8564055583332,218.57156982421876L750.2707915999999,193.0451446533203L751.0995636833333,177.87014770507812L751.911760325,181.7284362792969L752.3261463666666,130.02678527832032L752.7405324083333,167.8896270751953L753.15491845,113.72286987304688L753.9836905333333,159.65461120605468L757.282203425,183.02205505371091L758.52536155,158.537109375L758.9397475916667,122.64775085449219L760.166330275,139.98491516113282L763.0670325666666,123.60400390625001L765.1223873333333,76.74335632324217L765.9511594166665,133.13131103515624L766.3655454583334,92.50998229980469L767.6087035833334,126.29700012207032L768.420900225,196.32994689941404L770.0784443916666,165.81622619628908L770.4928304333333,123.99110717773436L770.9072164749999,173.60316162109376L771.7359885583334,190.7561553955078L775.03450145,161.0975311279297L775.4488874916666,157.86060791015626L775.8632735333333,202.6393585205078L777.0898562166666,189.10924072265627L777.9186282999999,237.9684173583984L778.3330143416665,255.3956756591797L781.6315272333333,223.5692199707031L783.7034574416667,282.6676940917969L786.5875842916666,285.9623199462891L787.8307424166667,306.0787689208984L788.2451284583333,314.19944152832034L789.8860971833333,293.8455444335938L793.184610075,269.5437957763672L794.4277682000001,263.40899658203125L794.8421542416667,339.26721038818357L795.2565402833333,241.2095886230469L799.3838252583332,294.546826171875L800.6269833833333,313.0820281982422L801.439180025,316.43170166015625L802.2679521083332,313.3082366943359L803.0967241916666,295.8049560546875L803.5111102333333,327.60654296875L803.925496275,319.7970397949219L804.3398823166666,323.4515106201172L805.9808510416666,322.10735778808595L806.809623125,288.6223052978516L807.6383952083332,299.2065795898438L808.05278125,286.63660888671876L808.4671672916666,276.16632385253905L810.1081360166665,327.42901000976565L812.180066225,250.00030212402345L814.6498070333333,285.2911285400391L815.0641930749999,258.04273986816406L815.4785791166665,294.7355102539062L817.1361232833333,273.59050292968755L817.948319925,301.7462921142578L818.3627059666666,310.74852294921874L822.0756048999999,371.00268707275393L822.9043769833333,271.9635009765625L823.318763025,255.603564453125L824.1475351083333,301.3124603271485L827.0316619583333,293.72137756347655L827.8604340416666,349.71567993164064L828.6892061249999,370.01134338378904L829.1035921666667,370.88241424560545L831.1589469333333,332.9740386962891L832.8164910999999,294.56700439453124L833.6452631833333,299.2395904541016L835.2862319083333,293.93077087402344L835.7006179499999,372.8239486694336L837.7725481583333,353.64211425781247L838.5847448000001,328.10869750976565L839.4135168833333,326.531787109375L840.2422889666666,371.3385925292969L840.6566750083333,324.17164306640626L841.07106105,312.7775848388672L841.4854470916666,320.5616882324219L842.712029775,271.0014068603516L843.5408018583332,305.7408721923828L845.198346025,312.6880218505859L846.0271181083333,314.7975311279297L847.2537007916666,375.91219024658204L848.4968589166666,310.59877929687497L848.9112449583332,320.84763488769534L850.9665997249999,311.0196899414062L852.20975785,334.1849090576172L853.0385299333332,269.0956268310547L853.452915975,387.4697540283203L854.2816880583332,320.94118041992186L855.9226567833333,296.9536102294922L856.3370428249999,312.5307556152344L856.7514288666666,333.35149536132815L857.1658149083333,332.61277770996094L859.6355557166665,333.98790588378904L860.0499417583334,248.5713653564453L860.4643278,325.52358398437497L862.1218719666666,324.77150268554686L862.5362580083333,307.673291015625L863.7628406916665,340.0305313110352L864.5916127749999,294.96959533691404L865.8347709,337.31735687255855L866.6635429833333,257.6795318603516L867.475739625,289.82945861816404L867.8901256666667,331.88291015625L868.3045117083333,343.38639984130856L870.7908279583334,311.37767639160154L872.846182725,320.0015655517578L873.2605687666667,300.7293273925781L873.6749548083333,334.30226135253906L874.0893408499999,332.1587677001953L876.5590816583333,387.41612243652344L880.2719805916666,288.8595764160156L880.6863666333333,281.1701690673828L882.3439107999999,338.6354019165039L883.1726828833332,358.52254486083984L884.8136516083332,327.7879699707031L885.22803765,410.2296829223633L885.6424236916666,368.1124664306641L886.0568097333332,298.52494506835933L886.8855818166667,371.55502166748045L887.2999678583333,299.6829803466797L888.9409365833333,343.97988739013675L891.0128667916666,357.4342926025391L891.4272528333332,359.47441711425785L892.6538355166666,365.73457794189454L893.8969936416667,344.5481521606445L897.1955065333334,326.36354675292966L897.609892575,300.3445251464844L898.0242786166666,399.3957916259765L899.2674367416666,355.32354431152345L901.3227915083334,372.43255310058595L901.73717755,304.2390106201172L902.1515635916666,372.91904296875L903.3947217166666,343.4335708618164L903.8091077583333,358.9198257446289L905.0356904416666,388.3120620727539L905.8644625249999,283.22463073730466L906.6932346083333,369.68765106201175L908.7485893749999,440.28930511474607L909.5773614583333,311.8474395751953L912.0636777083333,352.32291870117183L913.2902603916667,355.63055419921875L914.9478045583332,238.69855041503905L917.4175453666667,300.4116973876953L919.0750895333333,365.5531066894531L920.3182476583332,332.36678924560545L921.1304442999999,326.2988525390625L921.9592163833332,339.1710540771484L922.3736024249998,334.23924865722654L923.2023745083333,362.9740554809571L923.6167605499999,334.6403350830078L924.0311465916667,335.12934722900394L925.257729275,301.77275390625L925.6721153166666,428.20825805664066L926.0865013583333,367.61155090332034L929.38501425,378.93626861572267L929.7994002916666,348.6907943725586L930.2137863333332,336.5018646240234L930.628172375,359.3699859619141L931.8713305,334.56356048583984L935.998615475,372.21815948486324L938.0539702416665,358.8653533935547L938.4683562833333,388.0938629150391L938.882742325,300.75428466796876L939.2971283666666,340.460026550293L940.9546725333332,382.0910629272461L941.766869175,412.6837707519531L942.5956412583333,321.7049438476563L943.0100272999999,318.6774139404297L943.8387993833334,362.8249313354492L945.0819575083333,322.98289794921874L946.7229262333333,348.7742950439453L947.137312275,320.54018249511716L947.9660843583333,321.6733489990234L948.7948564416665,343.09058532714846L950.0214391249999,387.83889160156247L952.0933693333333,367.48826904296874L954.1487240999999,375.79395294189453L955.3918822249999,368.6587829589844L957.0494263916665,381.0513977050781L958.2760090749999,360.1713180541992L958.6903951166667,328.2947265625L959.1047811583333,350.31031799316406L960.3479392833333,327.0977508544922L962.8176800916666,308.34120788574216L965.3039963416667,363.5616134643555L965.7183823833333,345.734684753418L966.5305790249998,374.67224731445316L967.7737371499999,336.12998352050784L969.0168952749999,391.62491912841796L970.657864,410.9353454589844L971.0722500416666,347.0229934692383L972.7297942083333,351.39414520263676L973.14418025,352.3306182861328L973.5585662916666,325.25206298828124L975.1995350166666,331.2611907958984L976.0283071,299.20480957031253L977.271465225,386.3223388671875L977.6858512666666,324.7089324951172L978.9124339499999,359.0586395263672L980.155592075,329.1203521728516L981.8131362416666,318.01666564941405L982.2275222833332,355.9342895507813L983.039718925,386.9537933349609L983.4541049666666,285.57928771972655L983.8684910083332,375.94953765869144L984.6972630916666,343.6250869750977L985.1116491333332,315.88007507324215L985.526035175,330.19794006347655L985.9404212166666,373.23123016357425L988.8245480666666,343.0586807250977L989.6533201499999,344.6362548828125L990.4820922333333,328.1758697509766L991.2942888749999,337.62011871337893L991.7086749166666,365.59470214843753L992.1230609583333,354.9278121948242L992.5374469999999,326.21380310058595L993.3662190833334,390.76938018798825L994.1949911666666,347.0318878173828L994.6093772083333,352.36601867675785L996.2503459333333,387.4444427490235L996.6647319749999,387.64445495605463L997.9078900999999,344.5306732177734L1007.8034287749999,357.1668869018555L1008.2178148166666,355.4188598632813L1009.8753589833333,331.49390411376953L1010.2897450249999,354.53358459472656L1010.7041310666666,378.3805267333984L1011.9307137499999,401.32692718505854L1012.3450997916666,332.40369415283203L1013.1738718749999,376.01626739501955L1014.4170299999998,374.3847961425781L1014.8314160416667,323.1807861328125L1016.057998725,349.1279006958008L1016.4723847666667,341.6994384765625L1016.8867708083333,320.0868804931641L1018.544314975,384.05516510009767L1018.9587010166666,383.27148895263673L1020.1852837,278.29857788085934L1020.5996697416666,378.8817520141602L1021.8428278666667,371.97057800292964L1022.67159995,318.88636474609376L1025.1413407583332,290.8874877929687L1025.5557268,345.0296859741211L1025.9701128416666,377.92173767089844L1026.3844988833332,298.7012390136719L1030.9261698999999,381.1650329589844L1031.3405559416665,351.336752319336L1032.5671386249999,318.25384826660155L1034.2246827916665,349.5429260253906L1035.8822269583334,320.58912353515626L1036.6944236,371.7192352294922L1038.7663538083334,315.28331298828124L1039.5951258916666,328.95494384765624L1040.0095119333332,312.8899810791016L1041.2360946166666,371.91504364013673L1041.6504806583332,341.8647583007812L1042.0648666999998,337.19739379882816L1043.7224108666665,263.0627807617188L1044.1367969083333,333.25007324218745L1044.9489935499998,367.20272064208984L1045.3633795916667,309.2124114990234L1046.1921516749999,334.5665252685547L1047.4353098,378.9951217651367L1047.8496958416667,423.6589981079101L1048.2640818833333,276.8254791259765L1049.076278525,316.65003356933596L1050.31943665,340.3400634765625L1050.7338226916665,382.20775146484374L1052.3913668583332,363.61878509521483L1053.2035635,329.9063293457031L1054.8611076666666,380.30710449218753L1055.2754937083332,355.68153076171876L1056.1042657916666,364.4390121459961L1056.5186518333333,318.01268310546874L1057.330848475,360.63550567626953L1058.1596205583332,270.1379913330078L1058.5740066,330.86683044433596L1061.8725194916667,335.1112930297852L1062.2869055333333,348.99749450683595L1062.701291575,350.64259490966793L1063.9444497,322.462158203125L1065.9998044666665,331.99862518310545L1068.4861207166666,277.5370269775391L1068.9005067583332,384.209245300293L1070.955861525,330.15899963378905L1071.3702475666666,286.68218688964845L1073.0277917333333,265.7350677490234L1073.8399883749998,305.31128845214846L1074.2543744166667,374.89447326660155L1074.6687604583333,417.353303527832L1077.96727335,370.95250701904297L1079.6248175166666,379.8803085327148L1080.4535896,378.6085052490235L1080.8679756416666,337.9798309326172L1084.1664885333332,303.1488555908203L1084.9952606166667,326.1770751953125L1086.2218432999998,352.17065277099607L1087.0506153833333,342.7403869628906L1089.1225455916665,334.9865509033203L1091.5922864,328.85307922363285L1092.4210584833334,329.7153442382812L1092.835444525,400.2887222290039L1093.2498305666666,363.0826019287109L1094.8907992916666,337.7962356567383L1096.1339574166666,391.77961883544924L1096.9627294999998,357.0698455810547L1097.3771155416666,344.6817886352539L1098.6036982249998,350.00658264160154L1099.0180842666666,410.3697799682617L1099.4324703083332,372.2714370727539L1101.5044005166667,289.5712127685547L1101.9187865583333,332.6621612548828L1102.7309832,336.90295104980464L1103.5597552833333,388.82811126708987L1104.3885273666667,337.70153961181643L1107.2726542166665,298.1662506103516L1108.5158123416666,334.1222061157227L1109.7589704666666,361.0514602661133L1111.3999391916666,423.73546295166017L1112.228711275,335.8932876586914L1116.7703822916667,364.12332916259766L1118.0135404166665,342.5187362670899L1118.427926458333,356.8002716064453L1121.3120533083334,349.8469711303711L1122.1408253916666,380.4351211547852L1122.5552114333334,371.0697708129883L1125.853724325,312.21321411132817L1126.6824964083332,369.3521438598633L1128.7378511749998,315.3638488769531L1129.1522372166664,375.80448455810546L1130.8097813833333,333.42636718750003L1133.6939082333333,307.92613830566404L1134.108294275,372.49990234374997L1134.5226803166668,274.0653106689453L1137.8211932083332,400.5764389038086L1140.2909340166666,373.2269378662109L1140.7053200583332,346.3091445922852L1141.1197060999998,369.7246002197266L1141.9484781833332,383.9225463867187L1142.7772502666667,289.83229064941406L1144.8326050333333,349.06302947998046L1145.2469910749999,334.28478240966797L1146.4901492,390.2771820068359L1148.9598900083333,341.9382583618164L1151.4462062583332,367.450390625L1152.6727889416666,340.2025329589844L1153.9159470666666,326.76817321777344L1156.385687875,307.7716156005859L1157.2144599583332,379.67569427490236L1157.628846,316.75995178222655L1158.0432320416667,355.83684997558595L1158.8720041249999,309.9287384033203L1159.2863901666665,340.8057556152344L1159.7007762083333,366.46856079101565L1161.3417449333333,355.694009399414L1161.756130975,336.75718994140624L1162.1705170166665,358.63551635742186L1163.8280611833331,338.73045196533207L1165.0546438666665,384.9298645019531L1166.2978019916666,349.324284362793L1167.5409601166666,323.5824920654297L1169.1819288416666,376.73387756347654L1170.4250869666666,383.07444152832034L1171.2538590499998,276.71104736328124L1173.7235998583333,339.50943756103516L1176.2099161083333,319.4795867919922L1178.6796569166668,312.5071258544922L1179.508429,338.6500930786133L1180.3372010833332,335.5410095214844L1181.149397725,350.0514083862305L1181.5637837666666,344.0855133056641L1181.9781698083332,352.39947204589845L1182.3925558499998,391.7390411376953L1182.8069418916666,337.26089324951175L1184.0501000166666,306.4237457275391L1187.3486129083333,358.0136199951172L1188.5917710333333,382.29541168212893L1189.403967675,381.89450225830075L1190.6471258,312.0484252929687L1192.3046699666666,346.9250228881836L1196.4319549416666,368.56090087890624L1198.0729236666666,318.82724609375L1199.7304678333333,342.07030181884767L1200.144853875,309.8425384521484L1200.9736259583333,291.55531616210936L1201.7858225999998,296.7174011230469L1202.6145946833333,338.8799301147461L1203.0289807249999,356.45153350830077L1204.27213885,401.70172882080084L1205.913107575,372.8413833618164L1207.5706517416666,375.6623077392578L1208.399423825,381.4584136962891L1209.2281959083334,331.39965057373047" style="fill: none;" fill="none"></path></g></g></g></g></g></g><g transform="translate(41, 377)" clip-path="url(#clip_1)"><clipPath id="clip_1"><rect width="1243" height="23"></rect></clipPath><g><g><line x1="0" y1="0" x2="0" y2="5" style="visibility: inherit;" fill="rgb(0, 0, 0)" stroke="rgb(204, 204, 204)" stroke-width="1px"></line><line x1="82.87720833333333" y1="0" x2="82.87720833333333" y2="5" style="visibility: inherit;" fill="rgb(0, 0, 0)" stroke="rgb(204, 204, 204)" stroke-width="1px"></line><line x1="165.75441666666666" y1="0" x2="165.75441666666666" y2="5" style="visibility: inherit;" fill="rgb(0, 0, 0)" stroke="rgb(204, 204, 204)" stroke-width="1px"></line><line x1="248.63162499999999" y1="0" x2="248.63162499999999" y2="5" style="visibility: inherit;" fill="rgb(0, 0, 0)" stroke="rgb(204, 204, 204)" stroke-width="1px"></line><line x1="331.5088333333333" y1="0" x2="331.5088333333333" y2="5" style="visibility: inherit;" fill="rgb(0, 0, 0)" stroke="rgb(204, 204, 204)" stroke-width="1px"></line><line x1="414.38604166666664" y1="0" x2="414.38604166666664" y2="5" style="visibility: inherit;" fill="rgb(0, 0, 0)" stroke="rgb(204, 204, 204)" stroke-width="1px"></line><line x1="497.26324999999997" y1="0" x2="497.26324999999997" y2="5" style="visibility: inherit;" fill="rgb(0, 0, 0)" stroke="rgb(204, 204, 204)" stroke-width="1px"></line><line x1="580.1404583333333" y1="0" x2="580.1404583333333" y2="5" style="visibility: inherit;" fill="rgb(0, 0, 0)" stroke="rgb(204, 204, 204)" stroke-width="1px"></line><line x1="663.0176666666666" y1="0" x2="663.0176666666666" y2="5" style="visibility: inherit;" fill="rgb(0, 0, 0)" stroke="rgb(204, 204, 204)" stroke-width="1px"></line><line x1="745.894875" y1="0" x2="745.894875" y2="5" style="visibility: inherit;" fill="rgb(0, 0, 0)" stroke="rgb(204, 204, 204)" stroke-width="1px"></line><line x1="828.7720833333333" y1="0" x2="828.7720833333333" y2="5" style="visibility: inherit;" fill="rgb(0, 0, 0)" stroke="rgb(204, 204, 204)" stroke-width="1px"></line><line x1="911.6492916666665" y1="0" x2="911.6492916666665" y2="5" style="visibility: inherit;" fill="rgb(0, 0, 0)" stroke="rgb(204, 204, 204)" stroke-width="1px"></line><line x1="994.5264999999999" y1="0" x2="994.5264999999999" y2="5" style="visibility: inherit;" fill="rgb(0, 0, 0)" stroke="rgb(204, 204, 204)" stroke-width="1px"></line><line x1="1077.4037083333333" y1="0" x2="1077.4037083333333" y2="5" style="visibility: inherit;" fill="rgb(0, 0, 0)" stroke="rgb(204, 204, 204)" stroke-width="1px"></line><line x1="1160.2809166666666" y1="0" x2="1160.2809166666666" y2="5" style="visibility: inherit;" fill="rgb(0, 0, 0)" stroke="rgb(204, 204, 204)" stroke-width="1px"></line><line x1="1243.158125" y1="0" x2="1243.158125" y2="5" style="visibility: inherit;" fill="rgb(0, 0, 0)" stroke="rgb(204, 204, 204)" stroke-width="1px"></line></g><g transform="translate(0, 8)"><text x="0" y="0" dx="0em" dy="0.95em" style="text-anchor: middle; visibility: hidden; font-family: Roboto, sans-serif; font-size: 12px; font-weight: 200;" fill="rgb(255, 255, 255)" stroke="none" stroke-width="1px">-20k</text><text x="82.87720833333333" y="0" dx="0em" dy="0.95em" style="text-anchor: middle; visibility: inherit; font-family: Roboto, sans-serif; font-size: 12px; font-weight: 200;" fill="rgb(255, 255, 255)" stroke="none" stroke-width="1px">0</text><text x="165.75441666666666" y="0" dx="0em" dy="0.95em" style="text-anchor: middle; visibility: inherit; font-family: Roboto, sans-serif; font-size: 12px; font-weight: 200;" fill="rgb(255, 255, 255)" stroke="none" stroke-width="1px">20k</text><text x="248.63162499999999" y="0" dx="0em" dy="0.95em" style="text-anchor: middle; visibility: inherit; font-family: Roboto, sans-serif; font-size: 12px; font-weight: 200;" fill="rgb(255, 255, 255)" stroke="none" stroke-width="1px">40k</text><text x="331.5088333333333" y="0" dx="0em" dy="0.95em" style="text-anchor: middle; visibility: inherit; font-family: Roboto, sans-serif; font-size: 12px; font-weight: 200;" fill="rgb(255, 255, 255)" stroke="none" stroke-width="1px">60k</text><text x="414.38604166666664" y="0" dx="0em" dy="0.95em" style="text-anchor: middle; visibility: inherit; font-family: Roboto, sans-serif; font-size: 12px; font-weight: 200;" fill="rgb(255, 255, 255)" stroke="none" stroke-width="1px">80k</text><text x="497.26324999999997" y="0" dx="0em" dy="0.95em" style="text-anchor: middle; visibility: inherit; font-family: Roboto, sans-serif; font-size: 12px; font-weight: 200;" fill="rgb(255, 255, 255)" stroke="none" stroke-width="1px">100k</text><text x="580.1404583333333" y="0" dx="0em" dy="0.95em" style="text-anchor: middle; visibility: inherit; font-family: Roboto, sans-serif; font-size: 12px; font-weight: 200;" fill="rgb(255, 255, 255)" stroke="none" stroke-width="1px">120k</text><text x="663.0176666666666" y="0" dx="0em" dy="0.95em" style="text-anchor: middle; visibility: inherit; font-family: Roboto, sans-serif; font-size: 12px; font-weight: 200;" fill="rgb(255, 255, 255)" stroke="none" stroke-width="1px">140k</text><text x="745.894875" y="0" dx="0em" dy="0.95em" style="text-anchor: middle; visibility: inherit; font-family: Roboto, sans-serif; font-size: 12px; font-weight: 200;" fill="rgb(255, 255, 255)" stroke="none" stroke-width="1px">160k</text><text x="828.7720833333333" y="0" dx="0em" dy="0.95em" style="text-anchor: middle; visibility: inherit; font-family: Roboto, sans-serif; font-size: 12px; font-weight: 200;" fill="rgb(255, 255, 255)" stroke="none" stroke-width="1px">180k</text><text x="911.6492916666665" y="0" dx="0em" dy="0.95em" style="text-anchor: middle; visibility: inherit; font-family: Roboto, sans-serif; font-size: 12px; font-weight: 200;" fill="rgb(255, 255, 255)" stroke="none" stroke-width="1px">200k</text><text x="994.5264999999999" y="0" dx="0em" dy="0.95em" style="text-anchor: middle; visibility: inherit; font-family: Roboto, sans-serif; font-size: 12px; font-weight: 200;" fill="rgb(255, 255, 255)" stroke="none" stroke-width="1px">220k</text><text x="1077.4037083333333" y="0" dx="0em" dy="0.95em" style="text-anchor: middle; visibility: inherit; font-family: Roboto, sans-serif; font-size: 12px; font-weight: 200;" fill="rgb(255, 255, 255)" stroke="none" stroke-width="1px">240k</text><text x="1160.2809166666666" y="0" dx="0em" dy="0.95em" style="text-anchor: middle; visibility: inherit; font-family: Roboto, sans-serif; font-size: 12px; font-weight: 200;" fill="rgb(255, 255, 255)" stroke="none" stroke-width="1px">260k</text><text x="1243.158125" y="0" dx="0em" dy="0.95em" style="text-anchor: middle; visibility: hidden; font-family: Roboto, sans-serif; font-size: 12px; font-weight: 200;" fill="rgb(255, 255, 255)" stroke="none" stroke-width="1px">280k</text></g><line x1="0" y1="0" x2="1243.158125" y2="0" fill="rgb(0, 0, 0)" stroke="rgb(204, 204, 204)" stroke-width="1px"></line></g></g></g></g></svg>