<svg viewBox="0 0 1284.3333740234375 400" xmlns="http://www.w3.org/2000/svg"><g><g><g><g><g><line x1="72.34375" y1="377" x2="67.34375" y2="377" style="visibility: inherit;" fill="rgb(0, 0, 0)" stroke="rgb(204, 204, 204)" stroke-width="1px"></line><line x1="72.34375" y1="345.5833333333333" x2="67.34375" y2="345.5833333333333" style="visibility: inherit;" fill="rgb(0, 0, 0)" stroke="rgb(204, 204, 204)" stroke-width="1px"></line><line x1="72.34375" y1="314.1666666666667" x2="67.34375" y2="314.1666666666667" style="visibility: inherit;" fill="rgb(0, 0, 0)" stroke="rgb(204, 204, 204)" stroke-width="1px"></line><line x1="72.34375" y1="282.75" x2="67.34375" y2="282.75" style="visibility: inherit;" fill="rgb(0, 0, 0)" stroke="rgb(204, 204, 204)" stroke-width="1px"></line><line x1="72.34375" y1="251.33333333333337" x2="67.34375" y2="251.33333333333337" style="visibility: inherit;" fill="rgb(0, 0, 0)" stroke="rgb(204, 204, 204)" stroke-width="1px"></line><line x1="72.34375" y1="219.91666666666669" x2="67.34375" y2="219.91666666666669" style="visibility: inherit;" fill="rgb(0, 0, 0)" stroke="rgb(204, 204, 204)" stroke-width="1px"></line><line x1="72.34375" y1="188.5" x2="67.34375" y2="188.5" style="visibility: inherit;" fill="rgb(0, 0, 0)" stroke="rgb(204, 204, 204)" stroke-width="1px"></line><line x1="72.34375" y1="157.08333333333337" x2="67.34375" y2="157.08333333333337" style="visibility: inherit;" fill="rgb(0, 0, 0)" stroke="rgb(204, 204, 204)" stroke-width="1px"></line><line x1="72.34375" y1="125.66666666666669" x2="67.34375" y2="125.66666666666669" style="visibility: inherit;" fill="rgb(0, 0, 0)" stroke="rgb(204, 204, 204)" stroke-width="1px"></line><line x1="72.34375" y1="94.25" x2="67.34375" y2="94.25" style="visibility: inherit;" fill="rgb(0, 0, 0)" stroke="rgb(204, 204, 204)" stroke-width="1px"></line><line x1="72.34375" y1="62.833333333333364" x2="67.34375" y2="62.833333333333364" style="visibility: inherit;" fill="rgb(0, 0, 0)" stroke="rgb(204, 204, 204)" stroke-width="1px"></line><line x1="72.34375" y1="31.416666666666682" x2="67.34375" y2="31.416666666666682" style="visibility: inherit;" fill="rgb(0, 0, 0)" stroke="rgb(204, 204, 204)" stroke-width="1px"></line><line x1="72.34375" y1="0" x2="67.34375" y2="0" style="visibility: inherit;" fill="rgb(0, 0, 0)" stroke="rgb(204, 204, 204)" stroke-width="1px"></line></g><g transform="translate(62.34375, 0)"><text x="0" y="377" dx="0em" dy="0.3em" style="text-anchor: end; visibility: hidden; font-family: Roboto, sans-serif; font-size: 12px; font-weight: 200;" fill="rgb(255, 255, 255)" stroke="none" stroke-width="1px">-1e-4</text><text x="0" y="345.5833333333333" dx="0em" dy="0.3em" style="text-anchor: end; visibility: inherit; font-family: Roboto, sans-serif; font-size: 12px; font-weight: 200;" fill="rgb(255, 255, 255)" stroke="none" stroke-width="1px">0</text><text x="0" y="314.1666666666667" dx="0em" dy="0.3em" style="text-anchor: end; visibility: inherit; font-family: Roboto, sans-serif; font-size: 12px; font-weight: 200;" fill="rgb(255, 255, 255)" stroke="none" stroke-width="1px">1e-4</text><text x="0" y="282.75" dx="0em" dy="0.3em" style="text-anchor: end; visibility: inherit; font-family: Roboto, sans-serif; font-size: 12px; font-weight: 200;" fill="rgb(255, 255, 255)" stroke="none" stroke-width="1px">2e-4</text><text x="0" y="251.33333333333337" dx="0em" dy="0.3em" style="text-anchor: end; visibility: inherit; font-family: Roboto, sans-serif; font-size: 12px; font-weight: 200;" fill="rgb(255, 255, 255)" stroke="none" stroke-width="1px">3e-4</text><text x="0" y="219.91666666666669" dx="0em" dy="0.3em" style="text-anchor: end; visibility: inherit; font-family: Roboto, sans-serif; font-size: 12px; font-weight: 200;" fill="rgb(255, 255, 255)" stroke="none" stroke-width="1px">4e-4</text><text x="0" y="188.5" dx="0em" dy="0.3em" style="text-anchor: end; visibility: inherit; font-family: Roboto, sans-serif; font-size: 12px; font-weight: 200;" fill="rgb(255, 255, 255)" stroke="none" stroke-width="1px">5e-4</text><text x="0" y="157.08333333333337" dx="0em" dy="0.3em" style="text-anchor: end; visibility: inherit; font-family: Roboto, sans-serif; font-size: 12px; font-weight: 200;" fill="rgb(255, 255, 255)" stroke="none" stroke-width="1px">6e-4</text><text x="0" y="125.66666666666669" dx="0em" dy="0.3em" style="text-anchor: end; visibility: inherit; font-family: Roboto, sans-serif; font-size: 12px; font-weight: 200;" fill="rgb(255, 255, 255)" stroke="none" stroke-width="1px">7e-4</text><text x="0" y="94.25" dx="0em" dy="0.3em" style="text-anchor: end; visibility: inherit; font-family: Roboto, sans-serif; font-size: 12px; font-weight: 200;" fill="rgb(255, 255, 255)" stroke="none" stroke-width="1px">8e-4</text><text x="0" y="62.833333333333364" dx="0em" dy="0.3em" style="text-anchor: end; visibility: inherit; font-family: Roboto, sans-serif; font-size: 12px; font-weight: 200;" fill="rgb(255, 255, 255)" stroke="none" stroke-width="1px">9e-4</text><text x="0" y="31.416666666666682" dx="0em" dy="0.3em" style="text-anchor: end; visibility: inherit; font-family: Roboto, sans-serif; font-size: 12px; font-weight: 200;" fill="rgb(255, 255, 255)" stroke="none" stroke-width="1px">1e-3</text><text x="0" y="0" dx="0em" dy="0.3em" style="text-anchor: end; visibility: hidden; font-family: Roboto, sans-serif; font-size: 12px; font-weight: 200;" fill="rgb(255, 255, 255)" stroke="none" stroke-width="1px">1.1e-3</text></g><line x1="72.34375" y1="0" x2="72.34375" y2="377" fill="rgb(0, 0, 0)" stroke="rgb(204, 204, 204)" stroke-width="1px"></line></g></g><g transform="translate(72, 0)" clip-path="url(#clip_0)"><clipPath id="clip_0"><rect width="1211" height="377"></rect></clipPath><g><g><g><line x1="0" y1="0" x2="0" y2="377" fill="rgb(0, 0, 0)" stroke="rgb(189, 189, 189)" stroke-width="1px" opacity="0.25"></line><line x1="80.79908333333333" y1="0" x2="80.79908333333333" y2="377" fill="rgb(0, 0, 0)" stroke="rgb(189, 189, 189)" stroke-width="1px" opacity="0.25"></line><line x1="161.59816666666666" y1="0" x2="161.59816666666666" y2="377" fill="rgb(0, 0, 0)" stroke="rgb(189, 189, 189)" stroke-width="1px" opacity="0.25"></line><line x1="242.39724999999999" y1="0" x2="242.39724999999999" y2="377" fill="rgb(0, 0, 0)" stroke="rgb(189, 189, 189)" stroke-width="1px" opacity="0.25"></line><line x1="323.1963333333333" y1="0" x2="323.1963333333333" y2="377" fill="rgb(0, 0, 0)" stroke="rgb(189, 189, 189)" stroke-width="1px" opacity="0.25"></line><line x1="403.99541666666664" y1="0" x2="403.99541666666664" y2="377" fill="rgb(0, 0, 0)" stroke="rgb(189, 189, 189)" stroke-width="1px" opacity="0.25"></line><line x1="484.79449999999997" y1="0" x2="484.79449999999997" y2="377" fill="rgb(0, 0, 0)" stroke="rgb(189, 189, 189)" stroke-width="1px" opacity="0.25"></line><line x1="565.5935833333333" y1="0" x2="565.5935833333333" y2="377" fill="rgb(0, 0, 0)" stroke="rgb(189, 189, 189)" stroke-width="1px" opacity="0.25"></line><line x1="646.3926666666666" y1="0" x2="646.3926666666666" y2="377" fill="rgb(0, 0, 0)" stroke="rgb(189, 189, 189)" stroke-width="1px" opacity="0.25"></line><line x1="727.19175" y1="0" x2="727.19175" y2="377" fill="rgb(0, 0, 0)" stroke="rgb(189, 189, 189)" stroke-width="1px" opacity="0.25"></line><line x1="807.9908333333333" y1="0" x2="807.9908333333333" y2="377" fill="rgb(0, 0, 0)" stroke="rgb(189, 189, 189)" stroke-width="1px" opacity="0.25"></line><line x1="888.7899166666665" y1="0" x2="888.7899166666665" y2="377" fill="rgb(0, 0, 0)" stroke="rgb(189, 189, 189)" stroke-width="1px" opacity="0.25"></line><line x1="969.5889999999999" y1="0" x2="969.5889999999999" y2="377" fill="rgb(0, 0, 0)" stroke="rgb(189, 189, 189)" stroke-width="1px" opacity="0.25"></line><line x1="1050.3880833333333" y1="0" x2="1050.3880833333333" y2="377" fill="rgb(0, 0, 0)" stroke="rgb(189, 189, 189)" stroke-width="1px" opacity="0.25"></line><line x1="1131.1871666666666" y1="0" x2="1131.1871666666666" y2="377" fill="rgb(0, 0, 0)" stroke="rgb(189, 189, 189)" stroke-width="1px" opacity="0.25"></line><line x1="1211.98625" y1="0" x2="1211.98625" y2="377" fill="rgb(0, 0, 0)" stroke="rgb(189, 189, 189)" stroke-width="1px" opacity="0.25"></line></g><g><line x1="0" y1="377" x2="1211.98625" y2="377" fill="rgb(0, 0, 0)" stroke="rgb(189, 189, 189)" stroke-width="1px" opacity="0.25"></line><line x1="0" y1="345.5833333333333" x2="1211.98625" y2="345.5833333333333" fill="rgb(0, 0, 0)" stroke="rgb(189, 189, 189)" stroke-width="1px" opacity="0.25"></line><line x1="0" y1="314.1666666666667" x2="1211.98625" y2="314.1666666666667" fill="rgb(0, 0, 0)" stroke="rgb(189, 189, 189)" stroke-width="1px" opacity="0.25"></line><line x1="0" y1="282.75" x2="1211.98625" y2="282.75" fill="rgb(0, 0, 0)" stroke="rgb(189, 189, 189)" stroke-width="1px" opacity="0.25"></line><line x1="0" y1="251.33333333333337" x2="1211.98625" y2="251.33333333333337" fill="rgb(0, 0, 0)" stroke="rgb(189, 189, 189)" stroke-width="1px" opacity="0.25"></line><line x1="0" y1="219.91666666666669" x2="1211.98625" y2="219.91666666666669" fill="rgb(0, 0, 0)" stroke="rgb(189, 189, 189)" stroke-width="1px" opacity="0.25"></line><line x1="0" y1="188.5" x2="1211.98625" y2="188.5" fill="rgb(0, 0, 0)" stroke="rgb(189, 189, 189)" stroke-width="1px" opacity="0.25"></line><line x1="0" y1="157.08333333333337" x2="1211.98625" y2="157.08333333333337" fill="rgb(0, 0, 0)" stroke="rgb(189, 189, 189)" stroke-width="1px" opacity="0.25"></line><line x1="0" y1="125.66666666666669" x2="1211.98625" y2="125.66666666666669" fill="rgb(0, 0, 0)" stroke="rgb(189, 189, 189)" stroke-width="1px" opacity="0.25"></line><line x1="0" y1="94.25" x2="1211.98625" y2="94.25" fill="rgb(0, 0, 0)" stroke="rgb(189, 189, 189)" stroke-width="1px" opacity="0.25"></line><line x1="0" y1="62.833333333333364" x2="1211.98625" y2="62.833333333333364" fill="rgb(0, 0, 0)" stroke="rgb(189, 189, 189)" stroke-width="1px" opacity="0.25"></line><line x1="0" y1="31.416666666666682" x2="1211.98625" y2="31.416666666666682" fill="rgb(0, 0, 0)" stroke="rgb(189, 189, 189)" stroke-width="1px" opacity="0.25"></line><line x1="0" y1="0" x2="1211.98625" y2="0" fill="rgb(0, 0, 0)" stroke="rgb(189, 189, 189)" stroke-width="1px" opacity="0.25"></line></g></g></g><g><g><line x1="0" y1="345.5833333333333" x2="1211.98625" y2="345.5833333333333" fill="rgb(0, 0, 0)" stroke="rgb(153, 153, 153)" stroke-width="1.5px"></line></g></g><g><g><line x1="80.79908333333333" y1="0" x2="80.79908333333333" y2="377" fill="rgb(0, 0, 0)" stroke="rgb(153, 153, 153)" stroke-width="1.5px"></line></g></g><g><g><g><g><g><path stroke="rgb(255, 112, 67)" stroke-width="2px" d="M82.415065,31.41665174455073L82.81906041666666,31.416651744550645L85.63086851666667,31.416651744550645L87.24685018333334,31.41665174455073L87.65084559999998,31.41665174455073L89.25066745,31.416651744550812L89.65466286666667,31.41665174455073L90.05865828333332,31.41665174455073L90.86664911666666,31.41665174455073L91.27064453333332,31.41665174455073L92.48263078333332,31.41665174455073L93.2744618,31.41665174455073L95.6984343,31.41665174455073L98.10624698333332,31.416651744550645L98.91423781666666,31.41665174455073L102.13004133333334,31.41665174455073L102.53403674999998,31.416651744550645L102.93803216666666,31.416651744550645L103.746023,31.41665174455073L105.34584484999999,31.416651744550645L106.55783109999999,31.416651744550645L107.76981735,31.41665174455073L108.17381276666667,31.416651744550645L108.57780818333332,31.41665174455073L109.3696392,31.416651744550645L110.17763003333333,31.416651744550645L110.58162544999999,31.416651744550645L110.98562086666666,31.416651744550645L111.38961628333332,31.41665174455073L112.19760711666665,31.41665174455073L112.60160253333332,31.41665174455073L115.41341063333333,31.41665174455073L116.22140146666666,31.41665174455073L116.62539688333332,31.41665174455073L117.82122331666666,31.41665174455073L119.03320956666666,31.416651744550645L120.64919123333333,31.41665174455073L125.46481659999999,31.41665174455073L125.86881201666667,31.41665174455073L127.08079826666666,31.41665174455073L128.29278451666664,31.41665174455073L128.69677993333332,31.416651744550645L129.89260636666666,31.41665174455073L132.72057428333332,31.41665174455073L135.12838696666665,31.416651744550645L136.74436863333332,31.41665174455073L137.53619965,31.41665174455073L138.3441904833333,31.41665174455073L139.15218131666666,31.41665174455073L139.55617673333333,31.41665174455073L141.96398941666666,31.41665174455073L142.3679848333333,31.416651744550645L145.58378835,31.416651744550645L146.3917791833333,31.41665174455073L146.7957746,31.416651744550645L148.00776085,31.416651744550645L151.22356436666666,31.416651744550645L152.43555061666663,31.416651744550645L153.63137705,31.41665174455073L154.43936788333332,31.41665174455073L156.8633403833333,31.41665174455073L157.6551714,31.416651744550645L158.05916681666665,31.41665174455073L159.27115306666664,31.41665174455073L159.67514848333334,31.416651744550645L160.0791439,31.416651744550645L162.08296116666668,31.416651744550645L163.29494741666667,31.416651744550645L163.69894283333332,31.416651744550645L164.10293825,31.416651744550645L166.10675551666665,31.416651744550645L166.5107509333333,31.416651744550645L166.91474635,31.416651744550645L168.1267326,31.41665174455073L170.13054986666666,31.416651744550645L171.34253611666665,31.416651744550645L171.74653153333333,31.416651744550645L172.15052695,31.416651744550645L172.55452236666665,31.416651744550645L173.75034879999998,31.41665174455073L174.55833963333333,31.416651744550645L175.36633046666665,31.41665174455073L176.17432129999997,31.41665174455073L176.98231213333332,31.41665174455073L177.77414315,31.41665174455073L178.9861294,31.41665174455073L179.39012481666666,31.41665174455073L179.7941202333333,31.41665174455073L180.19811565,31.416651744550812L181.0061064833333,31.41665174455073L183.41391916666663,31.41665174455073L187.03371810000002,31.41665174455073L187.8417089333333,31.41665174455073L188.64969976666666,31.41665174455073L190.24952161666664,31.41665174455073L190.65351703333334,31.41665174455073L191.05751245,31.41665174455073L194.27331596666667,31.41665174455073L194.67731138333332,31.41665174455073L196.29329305,31.416651744550645L196.69728846666666,31.41665174455073L197.10128388333334,31.41665174455073L198.29711031666665,31.41665174455073L201.91690924999997,31.41665174455073L202.32090466666665,31.416651744550812L203.53289091666664,31.416651744550812L204.34088175,31.416651744550812L205.14887258333334,31.416651744550812L206.34469901666665,31.416651744550812L207.15268984999997,31.416651744550812L207.55668526666668,31.416651744550812L208.36467609999997,31.416651744550812L209.17266693333332,31.416651744550812L209.96449794999998,31.416651744550812L210.7724887833333,31.416651744550812L212.79246586666665,31.416651744550812L213.19646128333332,31.416651744550812L213.98829229999998,31.416651744550812L214.39228771666666,31.416651744550812L218.01208665000001,31.416651744550812L218.8200774833333,31.416651744550812L219.2240729,31.416651744550812L220.43605914999998,31.416651744550812L222.43987641666664,31.416651744550812L223.24786724999998,31.416651744550812L223.65186266666666,31.416651744550812L224.86384891666665,31.416651744550812L226.05967534999996,31.416651744550812L228.0796524333333,31.416651744550812L228.88764326666666,31.416651744550812L229.29163868333333,31.416651744550812L231.69945136666666,31.416651744550812L232.1034467833333,31.416651744550812L232.91143761666666,31.416651744550812L234.51125946666664,31.416651744550812L235.3192503,31.416651744550812L235.72324571666664,31.416651744550812L237.33922738333334,31.416651744550812L238.53505381666665,31.416651744550812L238.93904923333332,31.416651744550812L239.34304464999997,31.416651744550812L240.95902631666667,31.416651744550812L242.9628435833333,31.416651744550812L243.366839,31.416651744550812L243.77083441666664,31.416651744550812L244.1748298333333,31.416651744550812L244.57882525,31.416651744550812L244.98282066666664,31.416651744550812L248.19862418333332,31.416651744550812L249.41061043333332,31.416651744550812L250.20244145,31.416651744550812L253.43440478333332,31.416651744550812L255.43822204999998,31.416651744550812L255.84221746666665,31.416651744550812L256.2462128833333,31.416651744550812L256.6502083,31.416651744550812L257.0542037166666,31.416651744550812L258.6540255666667,31.416651744550812L260.67400265,31.416651744550812L261.4819934833333,31.416651744550812L263.48581075,31.416651744550812L263.88980616666663,31.416651744550812L265.50578783333333,31.416651744550812L266.29761885,31.416651744550812L266.70161426666664,31.416651744550812L267.91360051666663,31.416651744550812L269.12558676666663,31.416651744550812L269.52958218333333,31.416651744550812L271.1294040333333,31.416651744550812L271.53339945,31.416651744550812L273.1493811166667,31.416651744550812L275.5571938,31.416651744550812L275.96118921666664,31.416651744550812L276.3651846333333,31.416651744550812L277.17317546666663,31.416651744550812L277.5771708833333,31.416651744550812L278.3690019,31.416651744550812L279.17699273333335,31.416651744550812L279.58098815,31.416651744550812L279.98498356666664,31.416651744550812L280.38897898333335,31.416651744550812L282.39279625,31.416651744550812L283.2007870833333,31.416651744550812L283.6047825,31.416651744550812L284.00877791666665,31.416651744550812L284.81676875,31.416651744550812L286.82058601666665,31.416651744550812L287.22458143333336,31.416651744550812L288.8405631,31.416651744550812L289.24455851666664,31.416651744550812L290.44038494999995,31.416651744550812L291.2483757833333,31.416651744550812L292.86435745,31.416651744550812L293.26835286666665,31.416651744550812L294.86817471666666,31.416651744550812L295.2721701333333,31.416651744550812L295.67616555,31.416651744550812L296.08016096666665,31.416651744550812L296.8881518,31.416651744550812L297.29214721666665,31.416651744550812L298.89196906666666,31.416651744550812L299.2959644833333,31.416651744550812L299.69995989999995,31.416651744550812L300.5079507333333,31.416651744550812L301.71993698333335,31.416651744550812L303.72375424999996,31.416651744550812L305.33973591666665,31.416651744550812L305.7437313333333,31.416651744550812L307.3435531833333,31.416651744550812L308.5555394333333,31.416651744550812L308.95953484999995,31.416651744550812L309.36353026666666,31.416651744550812L309.76752568333336,31.416651744550812L310.5593567,31.416651744550812L310.9633521166666,31.416651744550812L312.1753383666666,31.416651744550812L312.5793337833333,31.416651744550812L312.9833292,31.416651744550812L313.38732461666666,31.416651744550812L314.9871464666666,31.416651744550812L317.8151143833333,31.416651744550812L319.4149362333333,31.416651744550812L319.81893164999997,31.416651744550812L320.6269224833333,31.416651744550812L321.03091789999996,31.416651744550812L321.43491331666667,31.416651744550812L322.63073975,31.416651744550812L323.43873058333327,31.416651744550812L324.2467214166667,31.416651744550812L325.05471224999997,31.416651744550812L325.45870766666667,31.416651744550812L327.0585295166666,31.416651744550812L327.86652035,31.416651744550812L329.07850659999997,31.416651744550812L329.4825020166667,31.416651744550812L332.2943101166666,31.416651744550812L332.6983055333333,31.416651744550812L333.10230095,31.416651744550812L335.10611821666663,31.416651744550812L336.3181044666666,31.416651744550812L337.1260953,31.416651744550812L338.72591715,31.416651744550812L340.3418988166667,31.416651744550812L341.9578804833333,31.416651744550812L342.7497115,31.416651744550812L343.15370691666664,31.416651744550812L343.96169775,31.416651744550812L344.7696885833333,31.416651744550812L345.173684,31.416651744550812L345.5776794166667,31.416651744550812L346.77350584999994,31.416651744550812L347.58149668333334,31.416651744550812L347.9854921,31.416651744550812L348.38948751666663,31.416651744550812L348.79348293333334,31.416651744550812L350.00546918333333,31.416651744550812L350.79730019999994,31.416651744550812L352.81727728333334,31.416651744550812L353.62526811666663,31.416651744550812L355.22508996666664,31.416651744550812L355.6290853833333,31.416651744550812L356.43707621666664,31.416651744550812L357.24506705,31.416651744550812L358.05305788333334,31.416651744550812L359.2488843166666,31.416651744550812L359.6528797333333,31.416651744550812L360.8648659833333,31.416651744550812L361.67285681666664,31.416651744550812L362.0768522333333,31.416651744550812L364.0806695,31.416651744550812L365.69665116666664,31.416651744550812L367.29647301666665,31.416651744550812L367.70046843333336,31.416651744550812L368.10446384999995,31.416651744550812L368.50845926666665,31.416651744550812L368.91245468333335,31.416651744550812L371.32026736666666,31.416651744550812L372.12825819999995,31.416651744550812L372.53225361666665,31.416651744550812L372.93624903333335,31.416651744550812L373.34024444999994,31.416651744550812L373.74423986666665,31.416651744550812L375.3440617166666,31.416651744550812L376.15205255,31.416651744550812L379.3678560666666,31.416651744550812L380.5798423166666,31.416651744550812L382.98765499999996,31.416651744550812L383.39165041666666,31.416651744550812L383.7956458333333,31.416651744550812L385.0076320833333,31.416651744550812L385.81562291666665,31.416651744550812L386.2196183333333,31.416651744550812L387.01144934999996,31.416651744550812L388.22343559999996,31.416651744550812L390.2434126833333,31.416651744550812L391.43923911666667,31.416651744550812L392.24722994999996,31.416651744550812L392.65122536666667,31.416651744550812L393.45921619999996,31.416651744550812L395.05903805,31.416651744550812L395.4630334666666,31.416651744550812L396.27102429999997,31.416651744550812L397.8870059666666,31.416651744550812L398.2910013833333,31.416651744550812L399.4868278166666,31.416651744550812L400.6988140666666,31.416651744550812L401.5068049,31.416651744550812L403.10662675,31.416651744550812L403.5106221666667,31.416651744550812L404.31861299999997,31.416651744550812L405.1266038333333,31.416651744550812L405.53059924999997,31.416651744550812L406.3385900833333,31.416651744550812L407.1304211,31.416651744550812L407.93841193333327,31.416651744550812L408.34240735,31.416651744550812L408.7464027666667,31.416651744550812L411.15421545,31.416651744550812L412.7701971166666,31.416651744550812L413.1741925333333,31.416651744550812L413.57818795,31.416651744550812L418.4099731333333,31.416651744550812L419.20180415,31.416651744550812L420.00979498333334,31.416651744550812L422.4337674833333,31.416651744550812L423.2255985,31.416651744550812L424.43758475,31.416651744550812L424.84158016666663,31.416651744550812L426.0535664166666,31.416651744550812L427.65338826666664,31.416651744550812L428.0573836833333,31.416651744550812L428.8653745166667,31.416651744550812L429.2693699333333,31.416651744550812L429.67336535,31.416651744550812L430.0773607666667,31.416651744550812L430.4813561833333,31.416651744550812L433.2931642833333,31.416651744550812L434.5051505333333,31.416651744550812L438.12494946666664,31.416651744550812L440.53276215,31.416651744550812L440.93675756666664,31.416651744550812L441.3407529833333,31.416651744550812L441.7447484,31.416651744550812L443.34457025,31.416651744550812L446.5765335833333,31.416651744550812L447.36836459999995,31.416651744550812L448.1763554333333,31.416651744550812L448.98434626666665,31.416651744550812L450.6003279333333,31.416651744550812L451.39215894999995,31.416651744550812L453.00814061666665,31.416651744550812L453.4121360333333,31.416651744550812L454.22012686666665,31.416651744550812L454.6241222833333,31.416651744550812L455.41595329999996,31.416651744550812L456.2239441333333,31.416651744550812L456.62793954999995,31.416651744550812L457.83992579999995,31.416651744550812L458.64791663333335,31.416651744550812L461.05572931666666,31.416651744550812L461.4597247333333,31.416651744550812L462.6717109833333,31.416651744550812L464.2715328333333,31.416651744550812L465.4835190833333,31.416651744550812L466.2915099166666,31.416651744550812L467.89133176666667,31.416651744550812L468.2953271833333,31.416651744550812L469.91130884999995,31.416651744550812L470.3153042666666,31.416651744550812L476.3429158833333,31.416651744550812L476.74691129999997,31.416651744550812L477.15090671666667,31.416651744550812L478.7668883833333,31.416651744550812L479.9627148166666,31.416651744550812L481.1747010666666,31.416651744550812L481.98269189999996,31.416651744550812L482.3866873166666,31.416651744550812L483.9865091666666,31.416651744550812L484.3905045833333,31.416651744550812L485.1984954166666,31.416651744550812L486.4104816666666,31.416651744550812L486.8144770833333,31.416651744550812L488.0103035166666,31.416651744550812L488.41429893333327,31.416651744550812L489.6262851833333,31.416651744550812L491.63010245,31.416651744550812L492.0340978666667,31.416651744550812L492.8420887,31.416651744550812L493.65007953333327,31.416651744550812L495.6538968,31.416651744550812L496.05789221666663,31.416651744550812L496.86588305,31.416651744550812L497.2698784666666,31.416651744550812L497.6738738833333,31.416651744550812L498.0778693,31.416651744550812L498.88586013333327,31.416651744550812L500.8896773999999,31.416651744550812L501.69766823333333,31.416651744550812L502.1016636499999,31.416651744550812L503.7014855,31.416651744550812L505.31746716666663,31.416651744550812L506.5294534166666,31.416651744550812L508.1292752666666,31.416651744550812L508.5332706833333,31.416651744550812L510.14925235,31.416651744550812L510.9572431833333,31.416651744550812L511.7490742,31.416651744550812L512.5570650333333,31.416651744550812L513.3650558666667,31.416651744550812L513.7690512833333,31.416651744550812L514.9810375333333,31.416651744550812L517.3888502166667,31.416651744550812L518.19684105,31.416651744550812L518.6008364666667,31.416651744550812L519.7966629,31.416651744550812L520.2006583166666,31.416651744550812L521.8166399833333,31.416651744550812L523.8204572499999,31.416651744550812L524.6284480833333,31.416651744550812L525.4364389166666,31.416651744550812L526.24442975,31.416651744550812L527.0524205833333,31.416651744550812L527.8442516,31.416651744550812L529.05623785,31.416651744550812L529.4602332666666,31.416651744550812L529.8642286833333,31.416651744550812L530.6722195166666,31.416651744550812L533.0800322,31.416651744550812L533.8880230333333,31.416651744550812L534.6960138666666,31.416651744550812L535.1000092833333,31.416651744550812L535.8918403,31.416651744550812L537.9118173833333,31.416651744550812L539.9156346499999,31.416651744550812L540.7236254833333,31.416651744550812L541.1276208999999,31.416651744550812L543.9394289999999,31.416651744550812L544.3434244166666,31.416651744550812L544.7474198333333,31.416651744550812L545.1514152499999,31.416651744550812L545.5554106666666,31.416651744550812L547.1713923333333,31.416651744550812L548.7712141833333,31.416651744550812L551.1951866833333,31.416651744550812L551.9870177,31.416651744550812L553.19900395,31.416651744550812L554.0069947833333,31.416651744550812L554.4109902,31.416651744550812L554.8149856166666,31.416651744550812L556.0108120499999,31.416651744550812L557.2227983,31.416651744550812L558.0307891333333,31.416651744550812L558.8387799666666,31.416651744550812L559.2427753833333,31.416651744550812L560.0346063999999,31.416651744550812L560.4386018166666,31.416651744550812L560.8425972333333,31.416651744550812L561.2465926499999,31.416651744550812L562.4585788999999,31.416651744550812L562.8625743166666,31.416651744550812L564.0584007499999,31.416651744550812L564.4623961666666,31.416651744550812L564.8663915833333,31.416651744550812L566.0783778333333,31.416651744550812L566.4823732499999,31.416651744550812L566.8863686666666,31.416651744550812L568.8901859333333,31.416651744550812L572.10598945,31.416651744550812L572.9139802833333,31.416651744550812L573.7219711166666,31.416651744550812L574.1259665333333,31.416651744550812L574.52996195,31.416651744550812L576.1297837999999,31.416651744550812L576.9377746333333,31.416651744550812L577.7457654666666,31.416651744550812L578.1497608833333,31.416651744550812L578.9577517166666,31.416651744550812L581.3655643999999,31.416651744550812L582.1735552333332,31.416651744550812L582.5775506499999,31.416651744550812L584.1773724999999,31.416651744550812L584.5813679166666,31.416651744550812L585.3893587499999,31.416651744550812L585.7933541666666,31.416651744550812L586.6013449999999,31.416651744550812L587.0053404166666,31.416651744550812L588.2011668499999,31.416651744550812L588.6051622666666,31.416651744550812L589.0091576833333,31.416651744550812L590.2211439333333,31.416651744550812L591.4331301833333,31.416651744550812L593.4369474499999,31.416651744550812L594.2449382833333,31.416651744550812L595.0529291166666,31.416651744550812L595.4569245333333,31.416651744550812L596.2487555499999,31.416651744550812L596.6527509666666,31.416651744550812L599.4807188833333,31.416651744550812L600.6765453166666,31.416651744550812L601.4845361499999,31.416651744550812L602.6965223999999,31.416651744550812L605.5083304999999,31.416651744550812L605.9123259166666,31.416651744550812L606.72031675,31.416651744550812L607.1243121666666,31.416651744550812L607.5283075833332,31.416651744550812L609.5321248500001,31.416651744550812L610.3401156833332,31.416651744550812L611.1481065166666,31.416651744550812L612.34393295,31.416651744550812L612.7479283666667,31.416651744550812L613.1519237833332,31.416651744550812L614.3639100333332,31.416651744550812L614.76790545,31.416651744550812L615.1719008666666,31.416651744550812L616.3677273,31.416651744550812L616.7717227166665,31.416651744550812L617.9837089666667,31.416651744550812L619.5996906333334,31.416651744550812L620.39152165,31.416651744550812L620.7955170666665,31.416651744550812L621.6035079,31.416651744550812L623.2194895666665,31.416651744550812L623.6234849833334,31.416651744550812L625.62730225,31.416651744550812L627.6472793333334,31.416651744550812L628.8431057666667,31.416651744550812L630.4590874333334,31.416651744550812L631.6710736833334,31.416651744550812L632.4629047,31.416651744550812L634.4828817833333,31.416651744550812L635.2908726166667,31.416651744550812L636.48669905,31.416651744550812L636.8906944666667,31.416651744550812L637.2946898833333,31.416651744550812L638.1026807166667,31.416651744550812L639.3146669666667,31.416651744550812L639.7186623833333,31.416651744550812L640.5104933999999,31.416651744550812L640.9144888166667,31.416651744550812L641.7224796499999,31.416651744550812L642.5304704833333,31.416651744550812L642.9344658999999,31.416651744550812L644.53428775,31.416651744550812L644.9382831666667,31.416651744550812L647.3622556666667,31.416651744550812L649.3660729333333,31.416651744550812L651.3860500166667,31.416651744550812L651.7900454333333,31.416651744550812L652.58187645,31.416651744550812L654.1978581166666,31.416651744550812L655.4098443666667,31.416651744550812L657.81765705,31.416651744550812L659.0296433,31.416651744550812L661.4374559833334,31.416651744550812L661.8414514,31.416651744550812L663.05343765,31.416651744550812L665.0572549166666,31.416651744550812L666.6732365833334,31.416651744550812L669.0810492666666,31.416651744550812L671.10102635,31.416651744550812L671.9090171833333,31.416651744550812L673.5088390333333,31.416651744550812L673.9128344499999,31.416651744550812L674.7208252833333,31.416651744550812L677.9366287999999,31.416651744550812L681.9604231499999,31.416651744550812L682.3644185666667,31.416651744550812L683.1724093999999,31.416651744550812L683.5764048166667,31.416651744550812L685.1762266666667,31.416651744550812L685.5802220833333,31.416651744550812L686.3882129166667,31.416651744550812L688.0041945833333,31.416651744550812L689.2000210166666,31.416651744550812L690.8160026833333,31.416651744550812L691.2199981,31.416651744550812L691.6239935166666,31.416651744550812L692.0279889333333,31.416651744550812L692.81981995,31.416651744550812L694.4358016166666,31.416651744550812L695.6477878666666,31.416651744550812L696.0517832833333,31.416651744550812L698.05560055,31.416651744550812L700.0755776333332,31.416651744550812L700.86740865,31.416651744550812L702.4833903166666,31.416651744550812L703.6953765666666,31.416651744550812L705.6991938333333,31.416651744550812L714.1507779499999,31.416651744550812L714.5547733666666,31.416651744550812L716.1707550333333,31.416651744550812L720.9863803999999,31.416651744550812L721.3903758166666,31.416651744550812L723.0063574833333,31.416651744550812L723.8143483166667,31.416651744550812L724.2183437333333,31.416651744550812L725.0101747499999,31.416651744550812L725.4141701666666,31.416651744550812L726.6261564166666,31.416651744550812L727.8381426666666,31.416651744550812L729.0339691,31.416651744550812L729.8419599333332,31.416651744550812L730.2459553499999,31.416651744550812L731.0539461833333,31.416651744550812L731.4579415999999,31.416651744550812L732.2659324333333,31.416651744550812L733.05776345,31.416651744550812L733.4617588666666,31.416651744550812L733.8657542833332,31.416651744550812L734.2697497,31.416651744550812L735.0777405333332,31.416651744550812L738.29354405,31.416651744550812L739.5055303,31.416651744550812L739.9095257166666,31.416651744550812L741.1053521499999,31.416651744550812L743.9333200666666,31.416651744550812L745.9371373333333,31.416651744550812L746.7451281666666,31.416651744550812L747.1491235833333,31.416651744550812L748.3611098333333,31.416651744550812L749.1529408499999,31.416651744550812L750.7689225166666,31.416651744550812L751.1729179333333,31.416651744550812L751.5769133499999,31.416651744550812L752.3849041833333,31.416651744550812L755.6007076999999,31.416651744550812L756.0047031166665,31.416651744550812L756.4086985333333,31.416651744550812L757.6045249666665,116.24165645928113L758.4125157999999,175.6191597595923L758.8165112166665,217.18341206981015L762.0323147333334,246.27838868696264L764.0522918166666,266.6448723189694L766.8640999166666,280.9014108613741L768.0760861666666,290.88098784105745L768.4800815833333,297.8666917268357L770.0799034333332,302.7566844468805L773.2957069500001,306.1796793509119L774.5076932000001,308.5757757837339L774.9116886166667,310.2530432867092L775.3156840333332,311.42713053879197L779.3394783833332,312.2489916152499L780.5514646333332,312.8242943687705L781.34329565,313.2270062962349L782.1512864833333,313.50890464545995L782.9592773166667,313.7062334899175L783.3632727333332,313.84436368103775L783.76726815,313.941054814822L784.1712635666667,314.0087386084709L785.7710854166666,314.0561172640252L786.57907625,314.08928232291316L787.3870670833332,314.11249786413475L787.7910625,314.12874874298984L788.1950579166667,314.1401243581884L789.7948797666666,314.1480872888274L791.81485685,314.1536613402747L794.2226695333334,314.15756317628785L794.62666495,314.160294461497L795.0306603666666,314.16220636114343L796.6466420333334,314.16354469089595L797.43847305,314.1644815217227L797.8424684666666,314.1651373033014L801.4622674,314.16559635040653L802.2702582333333,314.1659176833801L802.67425365,314.1661426164616L803.4822444833333,314.1663000696186L806.2940525833333,314.1664102868286L807.1020434166667,314.16648743887555L807.91003425,314.1665414453084L808.3140296666667,314.1665792498114L810.3178469333333,314.16660571296353L811.9338285999999,314.16662423717L812.7418194333333,314.1666372041145L814.3416412833333,314.16664628097567L814.7456366999999,314.16665263477853L816.7656137833333,314.16665708244045L817.5574448,314.16666019580384L818.3654356333333,314.16666237515824L819.1734264666667,314.1666639007063L819.5774218833333,314.16666496858994L819.9814173,314.16666571610847L820.3854127166667,314.16666623937147L821.58123915,314.16666660565556L822.3892299833333,314.1666668620544L824.00521165,314.16666704153363L824.8132024833333,314.16666716716907L826.0090289166666,314.16666725511385L827.2210151666666,314.1666673166752L827.6250105833333,314.1666673597682L829.62882785,314.16666738993325L830.8408141,314.1666674110488L831.6488049333332,314.1666674258297L832.05280035,314.1666674361763L832.8607911833332,314.166667443419L834.4606130333333,314.1666674484888L834.86460845,314.16666745203764L835.2686038666666,314.1666674545219L835.6725992833333,314.1666674562609L838.0804119666666,314.1666674574781L838.4844073833333,314.1666674583302L838.8884028,314.16666745892667L840.5043844666666,314.1666674593442L840.9083798833333,314.16666745963647L842.1042063166666,314.16666745984105L842.9121971499999,314.16666745998424L844.1241833999999,314.1666674600845L844.9321742333333,314.16666746015466L845.7240052499999,314.1666674602038L846.1280006666667,314.16666746023816L846.5319960833333,314.16666746026226L848.9559685833333,314.16666746027914L850.9597858499999,314.1666674602909L851.3637812666667,314.16666746029915L851.7677766833333,314.16666746030495L852.1717720999999,314.166667460309L854.5795847833333,314.1666674603118L858.1993837166666,314.1666674603138L858.6033791333333,314.1666674603152L860.2193607999999,314.16666746031615L861.0273516333333,314.16666746031683L862.6271734833332,314.16666746031734L863.0311689,314.1666674603177L863.4351643166666,314.16666746031785L863.8391597333333,314.166667460318L864.6471505666666,314.1666674603182L865.0511459833333,314.16666746031825L866.6509678333332,314.1666674603183L868.6709449166666,314.16666746031837L869.0749403333332,314.16666746031837L870.2707667666666,322.6491672460324L871.4827530166666,328.58691709603227L874.6985565333333,332.74334199103214L875.10255195,335.65283941753205L875.5065473666666,337.689487616082L876.7185336166666,339.11514135506695L878.7223508833333,340.1130989723564L879.1263462999999,340.81166930445903L879.5303417166666,341.30066853693086L880.7423279666666,341.64296799966115L881.1463233833333,341.8825776235724L882.3421498166665,342.05030436031024L883.1501406499999,342.1677130760267L883.9581314833333,342.2498991770282L885.9619487499999,342.3074294477293L886.7699395833333,342.3477006372201L889.1939120833333,342.37589046986363L890.3897385166666,342.3956233527141L892.0057201833333,342.40943637070944L894.4135328666666,342.41910548330617L896.0295145333333,342.42587386212386L897.2415007833333,342.43061172729625L898.0333317999999,342.4339282329169L898.8413226333332,342.4362497868514L899.2453180499999,342.43787487460554L900.0533088833332,342.4390124360334L900.4573042999999,342.43980872903296L900.8612997166666,342.4403661341326L902.05712615,342.4407563177024L902.4611215666666,342.4410294462012L902.8651169833332,342.4412206361504L906.0809205,342.44135446911486L906.4849159166666,342.44144815218993L906.8889113333332,342.44151373034254L907.29290675,342.4415596350493L908.504893,342.4415917683441L912.52868735,342.4416142616504L914.5325046166666,342.44163000696483L914.9365000333332,342.44164102868496L915.3404954499999,342.441648743889L915.7444908666666,342.44165414453187L917.3604725333332,342.4416579249819L918.1523035499999,342.4416605712969L918.9602943833333,342.44166242371733L919.3642897999999,342.4416637204117L920.1722806333333,342.4416646280978L921.3842668833333,342.44166526347794L922.9840887333334,342.4416657082441L923.3880841499999,342.4416660195804L924.1960749833333,342.4416662375159L925.0040658166665,342.4416663900707L926.19989225,342.441666496859L928.2198693333333,342.4416665716109L930.2236866,342.4416666239371L931.43567285,342.44166666056555L933.0516545166665,342.44166668620545L934.24748095,342.44166670415336L934.6514763666667,342.4416667167169L935.0554717833332,342.44166672551137L936.2674580333332,342.4416667316675L938.6752707166667,342.4416667359768L941.0992432166667,342.4416667389933L941.5032386333332,342.4416667411049L942.2950696499998,342.441666742583L943.5070558999998,342.44166674361765L944.7190421499998,342.4416667443419L946.318864,342.4416667448489L946.7228594166667,342.44166674520375L948.3388410833333,342.4416667454522L948.7428365,342.4416667456261L949.1468319166667,342.4416667457478L950.7466537666667,342.441666745833L951.5546446,342.4416667458927L952.76663085,342.4416667459344L953.1706262666667,342.4416667459637L954.3664527,342.44166674598415L955.57843895,342.4416667459984L957.1944206166665,342.4416667460084L957.5984160333333,342.44166674601547L958.39024705,343.28991672244877L958.7942424666666,343.8836917059521L959.1982378833333,344.2993341944044L960.0062287166666,344.59028393632104L960.4102241333333,344.7939487556627L960.81421955,344.93651412920184L961.2182149666666,345.03630989067926L964.0300230666666,345.10616692371343L964.8380139,345.15506684683737L965.6460047333334,345.18929679302414L966.43783575,345.21325775535485L966.8418311666666,345.23003042898637L967.2458265833333,345.2417713005284L967.649822,345.24998991060784L968.4578128333333,345.25574293766346L969.2658036666666,345.25977005660235L969.6697990833334,345.2625890398596L971.2696209333333,345.2645623281397L971.67361635,345.26594362993575L972.8856026,345.266910541193L982.5330131499999,345.267587379073L982.9370085666667,345.2680611655891L984.5529902333333,345.2683928161503L984.9569856499999,345.2686249715432L985.3609810666667,345.26878748031817L986.5568074999999,345.2689012364607L986.9608029166666,345.26898086576045L987.7687937499999,345.2690366062703L988.9807799999999,345.2690756246272L989.3847754166667,345.269102937477L990.58060185,345.2691220564718L990.9845972666666,345.26913543976826L991.3885926833333,345.26914480807574L993.00457435,345.269151365891L993.4085697666666,345.2691559563616L994.6043962,345.26915916969114L995.0083916166666,345.2691614190217L996.2203778666666,345.26916299355315L997.0283687,345.26916409572516L999.4361813833332,345.26916486724554L999.8401768,345.26916540730986L1000.2441722166666,345.26916578535486L1000.6481676333332,345.2691660499863L1005.0759574,345.2691662352284L1005.4799528166666,345.26916636489784L1006.6757792499999,345.26916645566644L1008.2917609166666,345.2691665192045L1009.9077425833333,345.2691665636811L1010.6995735999999,345.26916659481475L1012.7195506833333,345.26916661660823L1013.5275415166666,345.26916663186375L1013.9315369333333,345.2691666425426L1015.1273633666665,345.2691666500178L1015.5313587833333,345.2691666552504L1015.9353541999999,345.2691666589132L1017.5513358666666,345.26916666147724L1017.9553312833333,345.269166663272L1018.7471622999999,345.26916666452837L1019.1511577166667,345.2691666654078L1019.9591485499999,345.2691666660234L1021.1711347999999,345.26916666645434L1021.5751302166667,345.269166666756L1021.9791256333333,345.2691666669672L1022.7709566499999,345.269166667115L1023.9829428999999,345.2691666672184L1024.3869383166666,345.2691666672909L1026.0029199833332,345.26916666734155L1026.794751,345.2691666673771L1028.4107326666667,345.26916666740186L1028.8147280833332,345.2691666674193L1029.6227189166666,345.2691666674315L1030.0267143333333,345.26916666743995L1030.81854535,345.269166667446L1031.6265361833332,345.2691666674501L1032.0305316,345.269166667453L1035.2463351166666,345.26916666745507L1035.6503305333333,345.26916666745655L1036.05432595,345.26916666745757L1037.2663122,345.2691666674582L1039.2701294666665,345.2691666674587L1041.6941019666665,345.26916666745905L1042.0980973833332,345.26916666745933L1044.10191465,345.26916666745944L1044.5059100666665,345.2691666674596L1046.1218917333333,345.2691666674597L1046.91372275,345.26916666745973L1047.3177181666665,345.2691666674598L1047.7217135833334,345.2691666674598L1050.9375171,345.2691666674598L1052.5534987666665,345.2691666674598L1053.3614896,345.26916666745984L1053.7654850166666,345.26916666745984L1056.9812885333333,345.26916666745984L1057.7892793666665,345.26916666745984L1058.9851058,345.26916666745984L1059.7930966333333,345.26916666745984L1061.8130737166666,345.26916666745984L1064.2208864,345.26916666745984L1065.0288772333333,345.26916666745984L1065.4328726499998,345.26916666745984L1065.8368680666667,345.26916666745984L1067.4366899166666,345.26916666745984L1068.6486761666667,345.26916666745984L1069.456667,345.26916666745984L1069.8606624166666,345.26916666745984L1071.0564888499998,345.35399166711176L1071.4604842666665,345.41336916686805L1071.8644796833332,345.4549334166975L1073.8844567666667,345.48402839157814L1074.2884521833332,345.50439487399456L1075.0802832,345.51865141168605L1075.8882740333333,345.52863098807006L1076.6962648666665,345.5356166915389L1079.5080729666665,345.5405066839671L1080.7200592166666,345.5439296786668L1081.9320454666665,345.54632577495664L1083.5318673166666,345.5480030423595L1084.33985815,345.5491771295415L1088.7676479166666,345.5499989905689L1089.9796341666665,345.5505742932881L1090.3836295833332,345.5509770051915L1093.1954376833332,345.55125890352394L1094.0034285166666,345.5514562323566L1094.4074239333333,345.5515943625395L1097.6232274499998,345.55169105366747L1098.4312182833332,345.5517587374571L1100.4350355499998,345.55180611610984L1100.8390309666665,345.5518392811668L1102.4550126333334,345.5518624967066L1105.2668207333334,345.55187874758445L1105.6708161499998,345.551890123199L1106.0748115666668,345.55189808612914L1109.2906150833333,345.55190366018024L1111.6984277666666,345.551907562016L1112.1024231833333,345.5519102933011L1112.5064186,345.5519122052006L1113.3144094333334,345.5519135435303L1114.1224002666665,345.55191448036106L1116.1262175333331,345.5519151361426L1116.5302129499999,345.55191559518966L1117.7421992,345.55191591652266L1120.1500118833333,345.5519161414557L1122.5739843833333,345.55191629890885L1123.7698108166667,345.5519164091261L1124.9817970666666,345.5519164862781L1127.3896097499999,345.5519165402845L1128.1976005833333,345.551916578089L1128.601596,345.55191660455216L1129.0055914166667,345.5519166230764L1129.8135822499999,345.5519166360433L1130.2175776666666,345.55191664512023L1130.6215730833333,345.55191665147396L1132.2213949333334,345.5519166559217L1132.6253903499999,345.55191665903504L1133.0293857666666,345.55191666121436L1134.6453674333331,345.5519166627399L1135.8411938666666,345.5519166638078L1137.0531801166665,345.5519166645553L1138.2651663666666,345.5519166650786L1139.8649882166665,345.5519166654449L1141.0769744666666,345.55191666570124L1141.8849653,345.55191666588075L1144.2927779833333,345.5519166660064L1146.7167504833333,345.5519166660943L1149.1245631666666,345.5519166661559L1149.932554,345.55191666619896L1150.7405448333334,345.55191666622915L1151.5323758499999,345.5519166662503L1151.9363712666666,345.5519166662651L1152.3403666833333,345.5519166662754L1152.7443621,345.55191666628264L1153.1483575166667,345.5519166662877L1154.3603437666666,345.5519166662913L1157.5761472833333,345.5519166662937L1158.7881335333332,345.5519166662955L1159.5799645499999,345.5519166662967L1160.7919507999998,345.55191666629753L1162.4079324666666,345.5519166662981L1166.4317268166667,345.55191666629855L1168.0315486666666,345.55191666629884L1169.6475303333332,345.55191666629906L1170.0515257499999,345.55191666629923L1170.8595165833333,345.5519166662993L1171.6513476,345.55191666629935L1172.4593384333332,345.5519166662994L1172.86333385,345.55191666629946L1174.0753201,345.55191666629946L1175.67514195,345.5519166662995L1177.2911236166665,345.5519166662995L1178.09911445,345.5519166662995L1178.9071052833333,345.5519166662995" style="fill: none;" fill="none"></path></g></g></g></g><g opacity="0.2"><g><g><g><path stroke="rgb(255, 112, 67)" stroke-width="2px" d="M82.415065,31.41665174455073L82.81906041666666,31.41665174455073L85.63086851666667,31.41665174455073L87.24685018333334,31.41665174455073L87.65084559999998,31.41665174455073L89.25066745,31.41665174455073L89.65466286666667,31.41665174455073L90.05865828333332,31.41665174455073L90.86664911666666,31.41665174455073L91.27064453333332,31.41665174455073L92.48263078333332,31.41665174455073L93.2744618,31.41665174455073L95.6984343,31.41665174455073L98.10624698333332,31.41665174455073L98.91423781666666,31.41665174455073L102.13004133333334,31.41665174455073L102.53403674999998,31.41665174455073L102.93803216666666,31.41665174455073L103.746023,31.41665174455073L105.34584484999999,31.41665174455073L106.55783109999999,31.41665174455073L107.76981735,31.41665174455073L108.17381276666667,31.41665174455073L108.57780818333332,31.41665174455073L109.3696392,31.41665174455073L110.17763003333333,31.41665174455073L110.58162544999999,31.41665174455073L110.98562086666666,31.41665174455073L111.38961628333332,31.41665174455073L112.19760711666665,31.41665174455073L112.60160253333332,31.41665174455073L115.41341063333333,31.41665174455073L116.22140146666666,31.41665174455073L116.62539688333332,31.41665174455073L117.82122331666666,31.41665174455073L119.03320956666666,31.41665174455073L120.64919123333333,31.41665174455073L125.46481659999999,31.41665174455073L125.86881201666667,31.41665174455073L127.08079826666666,31.41665174455073L128.29278451666664,31.41665174455073L128.69677993333332,31.41665174455073L129.89260636666666,31.41665174455073L132.72057428333332,31.41665174455073L135.12838696666665,31.41665174455073L136.74436863333332,31.41665174455073L137.53619965,31.41665174455073L138.3441904833333,31.41665174455073L139.15218131666666,31.41665174455073L139.55617673333333,31.41665174455073L141.96398941666666,31.41665174455073L142.3679848333333,31.41665174455073L145.58378835,31.41665174455073L146.3917791833333,31.41665174455073L146.7957746,31.41665174455073L148.00776085,31.41665174455073L151.22356436666666,31.41665174455073L152.43555061666663,31.41665174455073L153.63137705,31.41665174455073L154.43936788333332,31.41665174455073L156.8633403833333,31.41665174455073L157.6551714,31.41665174455073L158.05916681666665,31.41665174455073L159.27115306666664,31.41665174455073L159.67514848333334,31.41665174455073L160.0791439,31.41665174455073L162.08296116666668,31.41665174455073L163.29494741666667,31.41665174455073L163.69894283333332,31.41665174455073L164.10293825,31.41665174455073L166.10675551666665,31.41665174455073L166.5107509333333,31.41665174455073L166.91474635,31.41665174455073L168.1267326,31.41665174455073L170.13054986666666,31.41665174455073L171.34253611666665,31.41665174455073L171.74653153333333,31.41665174455073L172.15052695,31.41665174455073L172.55452236666665,31.41665174455073L173.75034879999998,31.41665174455073L174.55833963333333,31.41665174455073L175.36633046666665,31.41665174455073L176.17432129999997,31.41665174455073L176.98231213333332,31.41665174455073L177.77414315,31.41665174455073L178.9861294,31.41665174455073L179.39012481666666,31.41665174455073L179.7941202333333,31.41665174455073L180.19811565,31.41665174455073L181.0061064833333,31.41665174455073L183.41391916666663,31.41665174455073L187.03371810000002,31.41665174455073L187.8417089333333,31.41665174455073L188.64969976666666,31.41665174455073L190.24952161666664,31.41665174455073L190.65351703333334,31.41665174455073L191.05751245,31.41665174455073L194.27331596666667,31.41665174455073L194.67731138333332,31.41665174455073L196.29329305,31.41665174455073L196.69728846666666,31.41665174455073L197.10128388333334,31.41665174455073L198.29711031666665,31.41665174455073L201.91690924999997,31.41665174455073L202.32090466666665,31.41665174455073L203.53289091666664,31.41665174455073L204.34088175,31.41665174455073L205.14887258333334,31.41665174455073L206.34469901666665,31.41665174455073L207.15268984999997,31.41665174455073L207.55668526666668,31.41665174455073L208.36467609999997,31.41665174455073L209.17266693333332,31.41665174455073L209.96449794999998,31.41665174455073L210.7724887833333,31.41665174455073L212.79246586666665,31.41665174455073L213.19646128333332,31.41665174455073L213.98829229999998,31.41665174455073L214.39228771666666,31.41665174455073L218.01208665000001,31.41665174455073L218.8200774833333,31.41665174455073L219.2240729,31.41665174455073L220.43605914999998,31.41665174455073L222.43987641666664,31.41665174455073L223.24786724999998,31.41665174455073L223.65186266666666,31.41665174455073L224.86384891666665,31.41665174455073L226.05967534999996,31.41665174455073L228.0796524333333,31.41665174455073L228.88764326666666,31.41665174455073L229.29163868333333,31.41665174455073L231.69945136666666,31.41665174455073L232.1034467833333,31.41665174455073L232.91143761666666,31.41665174455073L234.51125946666664,31.41665174455073L235.3192503,31.41665174455073L235.72324571666664,31.41665174455073L237.33922738333334,31.41665174455073L238.53505381666665,31.41665174455073L238.93904923333332,31.41665174455073L239.34304464999997,31.41665174455073L240.95902631666667,31.41665174455073L242.9628435833333,31.41665174455073L243.366839,31.41665174455073L243.77083441666664,31.41665174455073L244.1748298333333,31.41665174455073L244.57882525,31.41665174455073L244.98282066666664,31.41665174455073L248.19862418333332,31.41665174455073L249.41061043333332,31.41665174455073L250.20244145,31.41665174455073L253.43440478333332,31.41665174455073L255.43822204999998,31.41665174455073L255.84221746666665,31.41665174455073L256.2462128833333,31.41665174455073L256.6502083,31.41665174455073L257.0542037166666,31.41665174455073L258.6540255666667,31.41665174455073L260.67400265,31.41665174455073L261.4819934833333,31.41665174455073L263.48581075,31.41665174455073L263.88980616666663,31.41665174455073L265.50578783333333,31.41665174455073L266.29761885,31.41665174455073L266.70161426666664,31.41665174455073L267.91360051666663,31.41665174455073L269.12558676666663,31.41665174455073L269.52958218333333,31.41665174455073L271.1294040333333,31.41665174455073L271.53339945,31.41665174455073L273.1493811166667,31.41665174455073L275.5571938,31.41665174455073L275.96118921666664,31.41665174455073L276.3651846333333,31.41665174455073L277.17317546666663,31.41665174455073L277.5771708833333,31.41665174455073L278.3690019,31.41665174455073L279.17699273333335,31.41665174455073L279.58098815,31.41665174455073L279.98498356666664,31.41665174455073L280.38897898333335,31.41665174455073L282.39279625,31.41665174455073L283.2007870833333,31.41665174455073L283.6047825,31.41665174455073L284.00877791666665,31.41665174455073L284.81676875,31.41665174455073L286.82058601666665,31.41665174455073L287.22458143333336,31.41665174455073L288.8405631,31.41665174455073L289.24455851666664,31.41665174455073L290.44038494999995,31.41665174455073L291.2483757833333,31.41665174455073L292.86435745,31.41665174455073L293.26835286666665,31.41665174455073L294.86817471666666,31.41665174455073L295.2721701333333,31.41665174455073L295.67616555,31.41665174455073L296.08016096666665,31.41665174455073L296.8881518,31.41665174455073L297.29214721666665,31.41665174455073L298.89196906666666,31.41665174455073L299.2959644833333,31.41665174455073L299.69995989999995,31.41665174455073L300.5079507333333,31.41665174455073L301.71993698333335,31.41665174455073L303.72375424999996,31.41665174455073L305.33973591666665,31.41665174455073L305.7437313333333,31.41665174455073L307.3435531833333,31.41665174455073L308.5555394333333,31.41665174455073L308.95953484999995,31.41665174455073L309.36353026666666,31.41665174455073L309.76752568333336,31.41665174455073L310.5593567,31.41665174455073L310.9633521166666,31.41665174455073L312.1753383666666,31.41665174455073L312.5793337833333,31.41665174455073L312.9833292,31.41665174455073L313.38732461666666,31.41665174455073L314.9871464666666,31.41665174455073L317.8151143833333,31.41665174455073L319.4149362333333,31.41665174455073L319.81893164999997,31.41665174455073L320.6269224833333,31.41665174455073L321.03091789999996,31.41665174455073L321.43491331666667,31.41665174455073L322.63073975,31.41665174455073L323.43873058333327,31.41665174455073L324.2467214166667,31.41665174455073L325.05471224999997,31.41665174455073L325.45870766666667,31.41665174455073L327.0585295166666,31.41665174455073L327.86652035,31.41665174455073L329.07850659999997,31.41665174455073L329.4825020166667,31.41665174455073L332.2943101166666,31.41665174455073L332.6983055333333,31.41665174455073L333.10230095,31.41665174455073L335.10611821666663,31.41665174455073L336.3181044666666,31.41665174455073L337.1260953,31.41665174455073L338.72591715,31.41665174455073L340.3418988166667,31.41665174455073L341.9578804833333,31.41665174455073L342.7497115,31.41665174455073L343.15370691666664,31.41665174455073L343.96169775,31.41665174455073L344.7696885833333,31.41665174455073L345.173684,31.41665174455073L345.5776794166667,31.41665174455073L346.77350584999994,31.41665174455073L347.58149668333334,31.41665174455073L347.9854921,31.41665174455073L348.38948751666663,31.41665174455073L348.79348293333334,31.41665174455073L350.00546918333333,31.41665174455073L350.79730019999994,31.41665174455073L352.81727728333334,31.41665174455073L353.62526811666663,31.41665174455073L355.22508996666664,31.41665174455073L355.6290853833333,31.41665174455073L356.43707621666664,31.41665174455073L357.24506705,31.41665174455073L358.05305788333334,31.41665174455073L359.2488843166666,31.41665174455073L359.6528797333333,31.41665174455073L360.8648659833333,31.41665174455073L361.67285681666664,31.41665174455073L362.0768522333333,31.41665174455073L364.0806695,31.41665174455073L365.69665116666664,31.41665174455073L367.29647301666665,31.41665174455073L367.70046843333336,31.41665174455073L368.10446384999995,31.41665174455073L368.50845926666665,31.41665174455073L368.91245468333335,31.41665174455073L371.32026736666666,31.41665174455073L372.12825819999995,31.41665174455073L372.53225361666665,31.41665174455073L372.93624903333335,31.41665174455073L373.34024444999994,31.41665174455073L373.74423986666665,31.41665174455073L375.3440617166666,31.41665174455073L376.15205255,31.41665174455073L379.3678560666666,31.41665174455073L380.5798423166666,31.41665174455073L382.98765499999996,31.41665174455073L383.39165041666666,31.41665174455073L383.7956458333333,31.41665174455073L385.0076320833333,31.41665174455073L385.81562291666665,31.41665174455073L386.2196183333333,31.41665174455073L387.01144934999996,31.41665174455073L388.22343559999996,31.41665174455073L390.2434126833333,31.41665174455073L391.43923911666667,31.41665174455073L392.24722994999996,31.41665174455073L392.65122536666667,31.41665174455073L393.45921619999996,31.41665174455073L395.05903805,31.41665174455073L395.4630334666666,31.41665174455073L396.27102429999997,31.41665174455073L397.8870059666666,31.41665174455073L398.2910013833333,31.41665174455073L399.4868278166666,31.41665174455073L400.6988140666666,31.41665174455073L401.5068049,31.41665174455073L403.10662675,31.41665174455073L403.5106221666667,31.41665174455073L404.31861299999997,31.41665174455073L405.1266038333333,31.41665174455073L405.53059924999997,31.41665174455073L406.3385900833333,31.41665174455073L407.1304211,31.41665174455073L407.93841193333327,31.41665174455073L408.34240735,31.41665174455073L408.7464027666667,31.41665174455073L411.15421545,31.41665174455073L412.7701971166666,31.41665174455073L413.1741925333333,31.41665174455073L413.57818795,31.41665174455073L418.4099731333333,31.41665174455073L419.20180415,31.41665174455073L420.00979498333334,31.41665174455073L422.4337674833333,31.41665174455073L423.2255985,31.41665174455073L424.43758475,31.41665174455073L424.84158016666663,31.41665174455073L426.0535664166666,31.41665174455073L427.65338826666664,31.41665174455073L428.0573836833333,31.41665174455073L428.8653745166667,31.41665174455073L429.2693699333333,31.41665174455073L429.67336535,31.41665174455073L430.0773607666667,31.41665174455073L430.4813561833333,31.41665174455073L433.2931642833333,31.41665174455073L434.5051505333333,31.41665174455073L438.12494946666664,31.41665174455073L440.53276215,31.41665174455073L440.93675756666664,31.41665174455073L441.3407529833333,31.41665174455073L441.7447484,31.41665174455073L443.34457025,31.41665174455073L446.5765335833333,31.41665174455073L447.36836459999995,31.41665174455073L448.1763554333333,31.41665174455073L448.98434626666665,31.41665174455073L450.6003279333333,31.41665174455073L451.39215894999995,31.41665174455073L453.00814061666665,31.41665174455073L453.4121360333333,31.41665174455073L454.22012686666665,31.41665174455073L454.6241222833333,31.41665174455073L455.41595329999996,31.41665174455073L456.2239441333333,31.41665174455073L456.62793954999995,31.41665174455073L457.83992579999995,31.41665174455073L458.64791663333335,31.41665174455073L461.05572931666666,31.41665174455073L461.4597247333333,31.41665174455073L462.6717109833333,31.41665174455073L464.2715328333333,31.41665174455073L465.4835190833333,31.41665174455073L466.2915099166666,31.41665174455073L467.89133176666667,31.41665174455073L468.2953271833333,31.41665174455073L469.91130884999995,31.41665174455073L470.3153042666666,31.41665174455073L476.3429158833333,31.41665174455073L476.74691129999997,31.41665174455073L477.15090671666667,31.41665174455073L478.7668883833333,31.41665174455073L479.9627148166666,31.41665174455073L481.1747010666666,31.41665174455073L481.98269189999996,31.41665174455073L482.3866873166666,31.41665174455073L483.9865091666666,31.41665174455073L484.3905045833333,31.41665174455073L485.1984954166666,31.41665174455073L486.4104816666666,31.41665174455073L486.8144770833333,31.41665174455073L488.0103035166666,31.41665174455073L488.41429893333327,31.41665174455073L489.6262851833333,31.41665174455073L491.63010245,31.41665174455073L492.0340978666667,31.41665174455073L492.8420887,31.41665174455073L493.65007953333327,31.41665174455073L495.6538968,31.41665174455073L496.05789221666663,31.41665174455073L496.86588305,31.41665174455073L497.2698784666666,31.41665174455073L497.6738738833333,31.41665174455073L498.0778693,31.41665174455073L498.88586013333327,31.41665174455073L500.8896773999999,31.41665174455073L501.69766823333333,31.41665174455073L502.1016636499999,31.41665174455073L503.7014855,31.41665174455073L505.31746716666663,31.41665174455073L506.5294534166666,31.41665174455073L508.1292752666666,31.41665174455073L508.5332706833333,31.41665174455073L510.14925235,31.41665174455073L510.9572431833333,31.41665174455073L511.7490742,31.41665174455073L512.5570650333333,31.41665174455073L513.3650558666667,31.41665174455073L513.7690512833333,31.41665174455073L514.9810375333333,31.41665174455073L517.3888502166667,31.41665174455073L518.19684105,31.41665174455073L518.6008364666667,31.41665174455073L519.7966629,31.41665174455073L520.2006583166666,31.41665174455073L521.8166399833333,31.41665174455073L523.8204572499999,31.41665174455073L524.6284480833333,31.41665174455073L525.4364389166666,31.41665174455073L526.24442975,31.41665174455073L527.0524205833333,31.41665174455073L527.8442516,31.41665174455073L529.05623785,31.41665174455073L529.4602332666666,31.41665174455073L529.8642286833333,31.41665174455073L530.6722195166666,31.41665174455073L533.0800322,31.41665174455073L533.8880230333333,31.41665174455073L534.6960138666666,31.41665174455073L535.1000092833333,31.41665174455073L535.8918403,31.41665174455073L537.9118173833333,31.41665174455073L539.9156346499999,31.41665174455073L540.7236254833333,31.41665174455073L541.1276208999999,31.41665174455073L543.9394289999999,31.41665174455073L544.3434244166666,31.41665174455073L544.7474198333333,31.41665174455073L545.1514152499999,31.41665174455073L545.5554106666666,31.41665174455073L547.1713923333333,31.41665174455073L548.7712141833333,31.41665174455073L551.1951866833333,31.41665174455073L551.9870177,31.41665174455073L553.19900395,31.41665174455073L554.0069947833333,31.41665174455073L554.4109902,31.41665174455073L554.8149856166666,31.41665174455073L556.0108120499999,31.41665174455073L557.2227983,31.41665174455073L558.0307891333333,31.41665174455073L558.8387799666666,31.41665174455073L559.2427753833333,31.41665174455073L560.0346063999999,31.41665174455073L560.4386018166666,31.41665174455073L560.8425972333333,31.41665174455073L561.2465926499999,31.41665174455073L562.4585788999999,31.41665174455073L562.8625743166666,31.41665174455073L564.0584007499999,31.41665174455073L564.4623961666666,31.41665174455073L564.8663915833333,31.41665174455073L566.0783778333333,31.41665174455073L566.4823732499999,31.41665174455073L566.8863686666666,31.41665174455073L568.8901859333333,31.41665174455073L572.10598945,31.41665174455073L572.9139802833333,31.41665174455073L573.7219711166666,31.41665174455073L574.1259665333333,31.41665174455073L574.52996195,31.41665174455073L576.1297837999999,31.41665174455073L576.9377746333333,31.41665174455073L577.7457654666666,31.41665174455073L578.1497608833333,31.41665174455073L578.9577517166666,31.41665174455073L581.3655643999999,31.41665174455073L582.1735552333332,31.41665174455073L582.5775506499999,31.41665174455073L584.1773724999999,31.41665174455073L584.5813679166666,31.41665174455073L585.3893587499999,31.41665174455073L585.7933541666666,31.41665174455073L586.6013449999999,31.41665174455073L587.0053404166666,31.41665174455073L588.2011668499999,31.41665174455073L588.6051622666666,31.41665174455073L589.0091576833333,31.41665174455073L590.2211439333333,31.41665174455073L591.4331301833333,31.41665174455073L593.4369474499999,31.41665174455073L594.2449382833333,31.41665174455073L595.0529291166666,31.41665174455073L595.4569245333333,31.41665174455073L596.2487555499999,31.41665174455073L596.6527509666666,31.41665174455073L599.4807188833333,31.41665174455073L600.6765453166666,31.41665174455073L601.4845361499999,31.41665174455073L602.6965223999999,31.41665174455073L605.5083304999999,31.41665174455073L605.9123259166666,31.41665174455073L606.72031675,31.41665174455073L607.1243121666666,31.41665174455073L607.5283075833332,31.41665174455073L609.5321248500001,31.41665174455073L610.3401156833332,31.41665174455073L611.1481065166666,31.41665174455073L612.34393295,31.41665174455073L612.7479283666667,31.41665174455073L613.1519237833332,31.41665174455073L614.3639100333332,31.41665174455073L614.76790545,31.41665174455073L615.1719008666666,31.41665174455073L616.3677273,31.41665174455073L616.7717227166665,31.41665174455073L617.9837089666667,31.41665174455073L619.5996906333334,31.41665174455073L620.39152165,31.41665174455073L620.7955170666665,31.41665174455073L621.6035079,31.41665174455073L623.2194895666665,31.41665174455073L623.6234849833334,31.41665174455073L625.62730225,31.41665174455073L627.6472793333334,31.41665174455073L628.8431057666667,31.41665174455073L630.4590874333334,31.41665174455073L631.6710736833334,31.41665174455073L632.4629047,31.41665174455073L634.4828817833333,31.41665174455073L635.2908726166667,31.41665174455073L636.48669905,31.41665174455073L636.8906944666667,31.41665174455073L637.2946898833333,31.41665174455073L638.1026807166667,31.41665174455073L639.3146669666667,31.41665174455073L639.7186623833333,31.41665174455073L640.5104933999999,31.41665174455073L640.9144888166667,31.41665174455073L641.7224796499999,31.41665174455073L642.5304704833333,31.41665174455073L642.9344658999999,31.41665174455073L644.53428775,31.41665174455073L644.9382831666667,31.41665174455073L647.3622556666667,31.41665174455073L649.3660729333333,31.41665174455073L651.3860500166667,31.41665174455073L651.7900454333333,31.41665174455073L652.58187645,31.41665174455073L654.1978581166666,31.41665174455073L655.4098443666667,31.41665174455073L657.81765705,31.41665174455073L659.0296433,31.41665174455073L661.4374559833334,31.41665174455073L661.8414514,31.41665174455073L663.05343765,31.41665174455073L665.0572549166666,31.41665174455073L666.6732365833334,31.41665174455073L669.0810492666666,31.41665174455073L671.10102635,31.41665174455073L671.9090171833333,31.41665174455073L673.5088390333333,31.41665174455073L673.9128344499999,31.41665174455073L674.7208252833333,31.41665174455073L677.9366287999999,31.41665174455073L681.9604231499999,31.41665174455073L682.3644185666667,31.41665174455073L683.1724093999999,31.41665174455073L683.5764048166667,31.41665174455073L685.1762266666667,31.41665174455073L685.5802220833333,31.41665174455073L686.3882129166667,31.41665174455073L688.0041945833333,31.41665174455073L689.2000210166666,31.41665174455073L690.8160026833333,31.41665174455073L691.2199981,31.41665174455073L691.6239935166666,31.41665174455073L692.0279889333333,31.41665174455073L692.81981995,31.41665174455073L694.4358016166666,31.41665174455073L695.6477878666666,31.41665174455073L696.0517832833333,31.41665174455073L698.05560055,31.41665174455073L700.0755776333332,31.41665174455073L700.86740865,31.41665174455073L702.4833903166666,31.41665174455073L703.6953765666666,31.41665174455073L705.6991938333333,31.41665174455073L714.1507779499999,31.41665174455073L714.5547733666666,31.41665174455073L716.1707550333333,31.41665174455073L720.9863803999999,31.41665174455073L721.3903758166666,31.41665174455073L723.0063574833333,31.41665174455073L723.8143483166667,31.41665174455073L724.2183437333333,31.41665174455073L725.0101747499999,31.41665174455073L725.4141701666666,31.41665174455073L726.6261564166666,31.41665174455073L727.8381426666666,31.41665174455073L729.0339691,31.41665174455073L729.8419599333332,31.41665174455073L730.2459553499999,31.41665174455073L731.0539461833333,31.41665174455073L731.4579415999999,31.41665174455073L732.2659324333333,31.41665174455073L733.05776345,31.41665174455073L733.4617588666666,31.41665174455073L733.8657542833332,31.41665174455073L734.2697497,31.41665174455073L735.0777405333332,31.41665174455073L738.29354405,31.41665174455073L739.5055303,31.41665174455073L739.9095257166666,31.41665174455073L741.1053521499999,31.41665174455073L743.9333200666666,31.41665174455073L745.9371373333333,31.41665174455073L746.7451281666666,31.41665174455073L747.1491235833333,31.41665174455073L748.3611098333333,31.41665174455073L749.1529408499999,31.41665174455073L750.7689225166666,31.41665174455073L751.1729179333333,31.41665174455073L751.5769133499999,31.41665174455073L752.3849041833333,31.41665174455073L755.6007076999999,31.41665174455073L756.0047031166665,31.41665174455073L756.4086985333333,31.41665174455073L757.6045249666665,314.1666674603184L758.4125157999999,314.1666674603184L758.8165112166665,314.1666674603184L762.0323147333334,314.1666674603184L764.0522918166666,314.1666674603184L766.8640999166666,314.1666674603184L768.0760861666666,314.1666674603184L768.4800815833333,314.1666674603184L770.0799034333332,314.1666674603184L773.2957069500001,314.1666674603184L774.5076932000001,314.1666674603184L774.9116886166667,314.1666674603184L775.3156840333332,314.1666674603184L779.3394783833332,314.1666674603184L780.5514646333332,314.1666674603184L781.34329565,314.1666674603184L782.1512864833333,314.1666674603184L782.9592773166667,314.1666674603184L783.3632727333332,314.1666674603184L783.76726815,314.1666674603184L784.1712635666667,314.1666674603184L785.7710854166666,314.1666674603184L786.57907625,314.1666674603184L787.3870670833332,314.1666674603184L787.7910625,314.1666674603184L788.1950579166667,314.1666674603184L789.7948797666666,314.1666674603184L791.81485685,314.1666674603184L794.2226695333334,314.1666674603184L794.62666495,314.1666674603184L795.0306603666666,314.1666674603184L796.6466420333334,314.1666674603184L797.43847305,314.1666674603184L797.8424684666666,314.1666674603184L801.4622674,314.1666674603184L802.2702582333333,314.1666674603184L802.67425365,314.1666674603184L803.4822444833333,314.1666674603184L806.2940525833333,314.1666674603184L807.1020434166667,314.1666674603184L807.91003425,314.1666674603184L808.3140296666667,314.1666674603184L810.3178469333333,314.1666674603184L811.9338285999999,314.1666674603184L812.7418194333333,314.1666674603184L814.3416412833333,314.1666674603184L814.7456366999999,314.1666674603184L816.7656137833333,314.1666674603184L817.5574448,314.1666674603184L818.3654356333333,314.1666674603184L819.1734264666667,314.1666674603184L819.5774218833333,314.1666674603184L819.9814173,314.1666674603184L820.3854127166667,314.1666674603184L821.58123915,314.1666674603184L822.3892299833333,314.1666674603184L824.00521165,314.1666674603184L824.8132024833333,314.1666674603184L826.0090289166666,314.1666674603184L827.2210151666666,314.1666674603184L827.6250105833333,314.1666674603184L829.62882785,314.1666674603184L830.8408141,314.1666674603184L831.6488049333332,314.1666674603184L832.05280035,314.1666674603184L832.8607911833332,314.1666674603184L834.4606130333333,314.1666674603184L834.86460845,314.1666674603184L835.2686038666666,314.1666674603184L835.6725992833333,314.1666674603184L838.0804119666666,314.1666674603184L838.4844073833333,314.1666674603184L838.8884028,314.1666674603184L840.5043844666666,314.1666674603184L840.9083798833333,314.1666674603184L842.1042063166666,314.1666674603184L842.9121971499999,314.1666674603184L844.1241833999999,314.1666674603184L844.9321742333333,314.1666674603184L845.7240052499999,314.1666674603184L846.1280006666667,314.1666674603184L846.5319960833333,314.1666674603184L848.9559685833333,314.1666674603184L850.9597858499999,314.1666674603184L851.3637812666667,314.1666674603184L851.7677766833333,314.1666674603184L852.1717720999999,314.1666674603184L854.5795847833333,314.1666674603184L858.1993837166666,314.1666674603184L858.6033791333333,314.1666674603184L860.2193607999999,314.1666674603184L861.0273516333333,314.1666674603184L862.6271734833332,314.1666674603184L863.0311689,314.1666674603184L863.4351643166666,314.1666674603184L863.8391597333333,314.1666674603184L864.6471505666666,314.1666674603184L865.0511459833333,314.1666674603184L866.6509678333332,314.1666674603184L868.6709449166666,314.1666674603184L869.0749403333332,314.1666674603184L870.2707667666666,342.44166674603184L871.4827530166666,342.44166674603184L874.6985565333333,342.44166674603184L875.10255195,342.44166674603184L875.5065473666666,342.44166674603184L876.7185336166666,342.44166674603184L878.7223508833333,342.44166674603184L879.1263462999999,342.44166674603184L879.5303417166666,342.44166674603184L880.7423279666666,342.44166674603184L881.1463233833333,342.44166674603184L882.3421498166665,342.44166674603184L883.1501406499999,342.44166674603184L883.9581314833333,342.44166674603184L885.9619487499999,342.44166674603184L886.7699395833333,342.44166674603184L889.1939120833333,342.44166674603184L890.3897385166666,342.44166674603184L892.0057201833333,342.44166674603184L894.4135328666666,342.44166674603184L896.0295145333333,342.44166674603184L897.2415007833333,342.44166674603184L898.0333317999999,342.44166674603184L898.8413226333332,342.44166674603184L899.2453180499999,342.44166674603184L900.0533088833332,342.44166674603184L900.4573042999999,342.44166674603184L900.8612997166666,342.44166674603184L902.05712615,342.44166674603184L902.4611215666666,342.44166674603184L902.8651169833332,342.44166674603184L906.0809205,342.44166674603184L906.4849159166666,342.44166674603184L906.8889113333332,342.44166674603184L907.29290675,342.44166674603184L908.504893,342.44166674603184L912.52868735,342.44166674603184L914.5325046166666,342.44166674603184L914.9365000333332,342.44166674603184L915.3404954499999,342.44166674603184L915.7444908666666,342.44166674603184L917.3604725333332,342.44166674603184L918.1523035499999,342.44166674603184L918.9602943833333,342.44166674603184L919.3642897999999,342.44166674603184L920.1722806333333,342.44166674603184L921.3842668833333,342.44166674603184L922.9840887333334,342.44166674603184L923.3880841499999,342.44166674603184L924.1960749833333,342.44166674603184L925.0040658166665,342.44166674603184L926.19989225,342.44166674603184L928.2198693333333,342.44166674603184L930.2236866,342.44166674603184L931.43567285,342.44166674603184L933.0516545166665,342.44166674603184L934.24748095,342.44166674603184L934.6514763666667,342.44166674603184L935.0554717833332,342.44166674603184L936.2674580333332,342.44166674603184L938.6752707166667,342.44166674603184L941.0992432166667,342.44166674603184L941.5032386333332,342.44166674603184L942.2950696499998,342.44166674603184L943.5070558999998,342.44166674603184L944.7190421499998,342.44166674603184L946.318864,342.44166674603184L946.7228594166667,342.44166674603184L948.3388410833333,342.44166674603184L948.7428365,342.44166674603184L949.1468319166667,342.44166674603184L950.7466537666667,342.44166674603184L951.5546446,342.44166674603184L952.76663085,342.44166674603184L953.1706262666667,342.44166674603184L954.3664527,342.44166674603184L955.57843895,342.44166674603184L957.1944206166665,342.44166674603184L957.5984160333333,342.44166674603184L958.39024705,345.26916666745984L958.7942424666666,345.26916666745984L959.1982378833333,345.26916666745984L960.0062287166666,345.26916666745984L960.4102241333333,345.26916666745984L960.81421955,345.26916666745984L961.2182149666666,345.26916666745984L964.0300230666666,345.26916666745984L964.8380139,345.26916666745984L965.6460047333334,345.26916666745984L966.43783575,345.26916666745984L966.8418311666666,345.26916666745984L967.2458265833333,345.26916666745984L967.649822,345.26916666745984L968.4578128333333,345.26916666745984L969.2658036666666,345.26916666745984L969.6697990833334,345.26916666745984L971.2696209333333,345.26916666745984L971.67361635,345.26916666745984L972.8856026,345.26916666745984L982.5330131499999,345.26916666745984L982.9370085666667,345.26916666745984L984.5529902333333,345.26916666745984L984.9569856499999,345.26916666745984L985.3609810666667,345.26916666745984L986.5568074999999,345.26916666745984L986.9608029166666,345.26916666745984L987.7687937499999,345.26916666745984L988.9807799999999,345.26916666745984L989.3847754166667,345.26916666745984L990.58060185,345.26916666745984L990.9845972666666,345.26916666745984L991.3885926833333,345.26916666745984L993.00457435,345.26916666745984L993.4085697666666,345.26916666745984L994.6043962,345.26916666745984L995.0083916166666,345.26916666745984L996.2203778666666,345.26916666745984L997.0283687,345.26916666745984L999.4361813833332,345.26916666745984L999.8401768,345.26916666745984L1000.2441722166666,345.26916666745984L1000.6481676333332,345.26916666745984L1005.0759574,345.26916666745984L1005.4799528166666,345.26916666745984L1006.6757792499999,345.26916666745984L1008.2917609166666,345.26916666745984L1009.9077425833333,345.26916666745984L1010.6995735999999,345.26916666745984L1012.7195506833333,345.26916666745984L1013.5275415166666,345.26916666745984L1013.9315369333333,345.26916666745984L1015.1273633666665,345.26916666745984L1015.5313587833333,345.26916666745984L1015.9353541999999,345.26916666745984L1017.5513358666666,345.26916666745984L1017.9553312833333,345.26916666745984L1018.7471622999999,345.26916666745984L1019.1511577166667,345.26916666745984L1019.9591485499999,345.26916666745984L1021.1711347999999,345.26916666745984L1021.5751302166667,345.26916666745984L1021.9791256333333,345.26916666745984L1022.7709566499999,345.26916666745984L1023.9829428999999,345.26916666745984L1024.3869383166666,345.26916666745984L1026.0029199833332,345.26916666745984L1026.794751,345.26916666745984L1028.4107326666667,345.26916666745984L1028.8147280833332,345.26916666745984L1029.6227189166666,345.26916666745984L1030.0267143333333,345.26916666745984L1030.81854535,345.26916666745984L1031.6265361833332,345.26916666745984L1032.0305316,345.26916666745984L1035.2463351166666,345.26916666745984L1035.6503305333333,345.26916666745984L1036.05432595,345.26916666745984L1037.2663122,345.26916666745984L1039.2701294666665,345.26916666745984L1041.6941019666665,345.26916666745984L1042.0980973833332,345.26916666745984L1044.10191465,345.26916666745984L1044.5059100666665,345.26916666745984L1046.1218917333333,345.26916666745984L1046.91372275,345.26916666745984L1047.3177181666665,345.26916666745984L1047.7217135833334,345.26916666745984L1050.9375171,345.26916666745984L1052.5534987666665,345.26916666745984L1053.3614896,345.26916666745984L1053.7654850166666,345.26916666745984L1056.9812885333333,345.26916666745984L1057.7892793666665,345.26916666745984L1058.9851058,345.26916666745984L1059.7930966333333,345.26916666745984L1061.8130737166666,345.26916666745984L1064.2208864,345.26916666745984L1065.0288772333333,345.26916666745984L1065.4328726499998,345.26916666745984L1065.8368680666667,345.26916666745984L1067.4366899166666,345.26916666745984L1068.6486761666667,345.26916666745984L1069.456667,345.26916666745984L1069.8606624166666,345.26916666745984L1071.0564888499998,345.5519166662995L1071.4604842666665,345.5519166662995L1071.8644796833332,345.5519166662995L1073.8844567666667,345.5519166662995L1074.2884521833332,345.5519166662995L1075.0802832,345.5519166662995L1075.8882740333333,345.5519166662995L1076.6962648666665,345.5519166662995L1079.5080729666665,345.5519166662995L1080.7200592166666,345.5519166662995L1081.9320454666665,345.5519166662995L1083.5318673166666,345.5519166662995L1084.33985815,345.5519166662995L1088.7676479166666,345.5519166662995L1089.9796341666665,345.5519166662995L1090.3836295833332,345.5519166662995L1093.1954376833332,345.5519166662995L1094.0034285166666,345.5519166662995L1094.4074239333333,345.5519166662995L1097.6232274499998,345.5519166662995L1098.4312182833332,345.5519166662995L1100.4350355499998,345.5519166662995L1100.8390309666665,345.5519166662995L1102.4550126333334,345.5519166662995L1105.2668207333334,345.5519166662995L1105.6708161499998,345.5519166662995L1106.0748115666668,345.5519166662995L1109.2906150833333,345.5519166662995L1111.6984277666666,345.5519166662995L1112.1024231833333,345.5519166662995L1112.5064186,345.5519166662995L1113.3144094333334,345.5519166662995L1114.1224002666665,345.5519166662995L1116.1262175333331,345.5519166662995L1116.5302129499999,345.5519166662995L1117.7421992,345.5519166662995L1120.1500118833333,345.5519166662995L1122.5739843833333,345.5519166662995L1123.7698108166667,345.5519166662995L1124.9817970666666,345.5519166662995L1127.3896097499999,345.5519166662995L1128.1976005833333,345.5519166662995L1128.601596,345.5519166662995L1129.0055914166667,345.5519166662995L1129.8135822499999,345.5519166662995L1130.2175776666666,345.5519166662995L1130.6215730833333,345.5519166662995L1132.2213949333334,345.5519166662995L1132.6253903499999,345.5519166662995L1133.0293857666666,345.5519166662995L1134.6453674333331,345.5519166662995L1135.8411938666666,345.5519166662995L1137.0531801166665,345.5519166662995L1138.2651663666666,345.5519166662995L1139.8649882166665,345.5519166662995L1141.0769744666666,345.5519166662995L1141.8849653,345.5519166662995L1144.2927779833333,345.5519166662995L1146.7167504833333,345.5519166662995L1149.1245631666666,345.5519166662995L1149.932554,345.5519166662995L1150.7405448333334,345.5519166662995L1151.5323758499999,345.5519166662995L1151.9363712666666,345.5519166662995L1152.3403666833333,345.5519166662995L1152.7443621,345.5519166662995L1153.1483575166667,345.5519166662995L1154.3603437666666,345.5519166662995L1157.5761472833333,345.5519166662995L1158.7881335333332,345.5519166662995L1159.5799645499999,345.5519166662995L1160.7919507999998,345.5519166662995L1162.4079324666666,345.5519166662995L1166.4317268166667,345.5519166662995L1168.0315486666666,345.5519166662995L1169.6475303333332,345.5519166662995L1170.0515257499999,345.5519166662995L1170.8595165833333,345.5519166662995L1171.6513476,345.5519166662995L1172.4593384333332,345.5519166662995L1172.86333385,345.5519166662995L1174.0753201,345.5519166662995L1175.67514195,345.5519166662995L1177.2911236166665,345.5519166662995L1178.09911445,345.5519166662995L1178.9071052833333,345.5519166662995" style="fill: none;" fill="none"></path></g></g></g></g></g></g><g transform="translate(72, 377)" clip-path="url(#clip_1)"><clipPath id="clip_1"><rect width="1211" height="23"></rect></clipPath><g><g><line x1="0" y1="0" x2="0" y2="5" style="visibility: inherit;" fill="rgb(0, 0, 0)" stroke="rgb(204, 204, 204)" stroke-width="1px"></line><line x1="80.79908333333333" y1="0" x2="80.79908333333333" y2="5" style="visibility: inherit;" fill="rgb(0, 0, 0)" stroke="rgb(204, 204, 204)" stroke-width="1px"></line><line x1="161.59816666666666" y1="0" x2="161.59816666666666" y2="5" style="visibility: inherit;" fill="rgb(0, 0, 0)" stroke="rgb(204, 204, 204)" stroke-width="1px"></line><line x1="242.39724999999999" y1="0" x2="242.39724999999999" y2="5" style="visibility: inherit;" fill="rgb(0, 0, 0)" stroke="rgb(204, 204, 204)" stroke-width="1px"></line><line x1="323.1963333333333" y1="0" x2="323.1963333333333" y2="5" style="visibility: inherit;" fill="rgb(0, 0, 0)" stroke="rgb(204, 204, 204)" stroke-width="1px"></line><line x1="403.99541666666664" y1="0" x2="403.99541666666664" y2="5" style="visibility: inherit;" fill="rgb(0, 0, 0)" stroke="rgb(204, 204, 204)" stroke-width="1px"></line><line x1="484.79449999999997" y1="0" x2="484.79449999999997" y2="5" style="visibility: inherit;" fill="rgb(0, 0, 0)" stroke="rgb(204, 204, 204)" stroke-width="1px"></line><line x1="565.5935833333333" y1="0" x2="565.5935833333333" y2="5" style="visibility: inherit;" fill="rgb(0, 0, 0)" stroke="rgb(204, 204, 204)" stroke-width="1px"></line><line x1="646.3926666666666" y1="0" x2="646.3926666666666" y2="5" style="visibility: inherit;" fill="rgb(0, 0, 0)" stroke="rgb(204, 204, 204)" stroke-width="1px"></line><line x1="727.19175" y1="0" x2="727.19175" y2="5" style="visibility: inherit;" fill="rgb(0, 0, 0)" stroke="rgb(204, 204, 204)" stroke-width="1px"></line><line x1="807.9908333333333" y1="0" x2="807.9908333333333" y2="5" style="visibility: inherit;" fill="rgb(0, 0, 0)" stroke="rgb(204, 204, 204)" stroke-width="1px"></line><line x1="888.7899166666665" y1="0" x2="888.7899166666665" y2="5" style="visibility: inherit;" fill="rgb(0, 0, 0)" stroke="rgb(204, 204, 204)" stroke-width="1px"></line><line x1="969.5889999999999" y1="0" x2="969.5889999999999" y2="5" style="visibility: inherit;" fill="rgb(0, 0, 0)" stroke="rgb(204, 204, 204)" stroke-width="1px"></line><line x1="1050.3880833333333" y1="0" x2="1050.3880833333333" y2="5" style="visibility: inherit;" fill="rgb(0, 0, 0)" stroke="rgb(204, 204, 204)" stroke-width="1px"></line><line x1="1131.1871666666666" y1="0" x2="1131.1871666666666" y2="5" style="visibility: inherit;" fill="rgb(0, 0, 0)" stroke="rgb(204, 204, 204)" stroke-width="1px"></line><line x1="1211.98625" y1="0" x2="1211.98625" y2="5" style="visibility: inherit;" fill="rgb(0, 0, 0)" stroke="rgb(204, 204, 204)" stroke-width="1px"></line></g><g transform="translate(0, 8)"><text x="0" y="0" dx="0em" dy="0.95em" style="text-anchor: middle; visibility: hidden; font-family: Roboto, sans-serif; font-size: 12px; font-weight: 200;" fill="rgb(255, 255, 255)" stroke="none" stroke-width="1px">-20k</text><text x="80.79908333333333" y="0" dx="0em" dy="0.95em" style="text-anchor: middle; visibility: inherit; font-family: Roboto, sans-serif; font-size: 12px; font-weight: 200;" fill="rgb(255, 255, 255)" stroke="none" stroke-width="1px">0</text><text x="161.59816666666666" y="0" dx="0em" dy="0.95em" style="text-anchor: middle; visibility: inherit; font-family: Roboto, sans-serif; font-size: 12px; font-weight: 200;" fill="rgb(255, 255, 255)" stroke="none" stroke-width="1px">20k</text><text x="242.39724999999999" y="0" dx="0em" dy="0.95em" style="text-anchor: middle; visibility: inherit; font-family: Roboto, sans-serif; font-size: 12px; font-weight: 200;" fill="rgb(255, 255, 255)" stroke="none" stroke-width="1px">40k</text><text x="323.1963333333333" y="0" dx="0em" dy="0.95em" style="text-anchor: middle; visibility: inherit; font-family: Roboto, sans-serif; font-size: 12px; font-weight: 200;" fill="rgb(255, 255, 255)" stroke="none" stroke-width="1px">60k</text><text x="403.99541666666664" y="0" dx="0em" dy="0.95em" style="text-anchor: middle; visibility: inherit; font-family: Roboto, sans-serif; font-size: 12px; font-weight: 200;" fill="rgb(255, 255, 255)" stroke="none" stroke-width="1px">80k</text><text x="484.79449999999997" y="0" dx="0em" dy="0.95em" style="text-anchor: middle; visibility: inherit; font-family: Roboto, sans-serif; font-size: 12px; font-weight: 200;" fill="rgb(255, 255, 255)" stroke="none" stroke-width="1px">100k</text><text x="565.5935833333333" y="0" dx="0em" dy="0.95em" style="text-anchor: middle; visibility: inherit; font-family: Roboto, sans-serif; font-size: 12px; font-weight: 200;" fill="rgb(255, 255, 255)" stroke="none" stroke-width="1px">120k</text><text x="646.3926666666666" y="0" dx="0em" dy="0.95em" style="text-anchor: middle; visibility: inherit; font-family: Roboto, sans-serif; font-size: 12px; font-weight: 200;" fill="rgb(255, 255, 255)" stroke="none" stroke-width="1px">140k</text><text x="727.19175" y="0" dx="0em" dy="0.95em" style="text-anchor: middle; visibility: inherit; font-family: Roboto, sans-serif; font-size: 12px; font-weight: 200;" fill="rgb(255, 255, 255)" stroke="none" stroke-width="1px">160k</text><text x="807.9908333333333" y="0" dx="0em" dy="0.95em" style="text-anchor: middle; visibility: inherit; font-family: Roboto, sans-serif; font-size: 12px; font-weight: 200;" fill="rgb(255, 255, 255)" stroke="none" stroke-width="1px">180k</text><text x="888.7899166666665" y="0" dx="0em" dy="0.95em" style="text-anchor: middle; visibility: inherit; font-family: Roboto, sans-serif; font-size: 12px; font-weight: 200;" fill="rgb(255, 255, 255)" stroke="none" stroke-width="1px">200k</text><text x="969.5889999999999" y="0" dx="0em" dy="0.95em" style="text-anchor: middle; visibility: inherit; font-family: Roboto, sans-serif; font-size: 12px; font-weight: 200;" fill="rgb(255, 255, 255)" stroke="none" stroke-width="1px">220k</text><text x="1050.3880833333333" y="0" dx="0em" dy="0.95em" style="text-anchor: middle; visibility: inherit; font-family: Roboto, sans-serif; font-size: 12px; font-weight: 200;" fill="rgb(255, 255, 255)" stroke="none" stroke-width="1px">240k</text><text x="1131.1871666666666" y="0" dx="0em" dy="0.95em" style="text-anchor: middle; visibility: inherit; font-family: Roboto, sans-serif; font-size: 12px; font-weight: 200;" fill="rgb(255, 255, 255)" stroke="none" stroke-width="1px">260k</text><text x="1211.98625" y="0" dx="0em" dy="0.95em" style="text-anchor: middle; visibility: hidden; font-family: Roboto, sans-serif; font-size: 12px; font-weight: 200;" fill="rgb(255, 255, 255)" stroke="none" stroke-width="1px">280k</text></g><line x1="0" y1="0" x2="1211.98625" y2="0" fill="rgb(0, 0, 0)" stroke="rgb(204, 204, 204)" stroke-width="1px"></line></g></g></g></g></svg>