<svg viewBox="0 0 1017 400" xmlns="http://www.w3.org/2000/svg"><g><g><g><g><g><line x1="51.5625" y1="377" x2="46.5625" y2="377" style="visibility: inherit;" fill="rgb(0, 0, 0)" stroke="rgb(204, 204, 204)" stroke-width="1px"></line><line x1="51.5625" y1="323.14285714285717" x2="46.5625" y2="323.14285714285717" style="visibility: inherit;" fill="rgb(0, 0, 0)" stroke="rgb(204, 204, 204)" stroke-width="1px"></line><line x1="51.5625" y1="269.2857142857143" x2="46.5625" y2="269.2857142857143" style="visibility: inherit;" fill="rgb(0, 0, 0)" stroke="rgb(204, 204, 204)" stroke-width="1px"></line><line x1="51.5625" y1="215.42857142857142" x2="46.5625" y2="215.42857142857142" style="visibility: inherit;" fill="rgb(0, 0, 0)" stroke="rgb(204, 204, 204)" stroke-width="1px"></line><line x1="51.5625" y1="161.57142857142858" x2="46.5625" y2="161.57142857142858" style="visibility: inherit;" fill="rgb(0, 0, 0)" stroke="rgb(204, 204, 204)" stroke-width="1px"></line><line x1="51.5625" y1="107.71428571428571" x2="46.5625" y2="107.71428571428571" style="visibility: inherit;" fill="rgb(0, 0, 0)" stroke="rgb(204, 204, 204)" stroke-width="1px"></line><line x1="51.5625" y1="53.857142857142875" x2="46.5625" y2="53.857142857142875" style="visibility: inherit;" fill="rgb(0, 0, 0)" stroke="rgb(204, 204, 204)" stroke-width="1px"></line><line x1="51.5625" y1="0" x2="46.5625" y2="0" style="visibility: inherit;" fill="rgb(0, 0, 0)" stroke="rgb(204, 204, 204)" stroke-width="1px"></line></g><g transform="translate(41.5625, 0)"><text x="0" y="377" dx="0em" dy="0.3em" style="text-anchor: end; visibility: hidden; font-family: Roboto, sans-serif; font-size: 12px; font-weight: 200;" fill="rgb(255, 255, 255)" stroke="none" stroke-width="1px">95</text><text x="0" y="323.14285714285717" dx="0em" dy="0.3em" style="text-anchor: end; visibility: inherit; font-family: Roboto, sans-serif; font-size: 12px; font-weight: 200;" fill="rgb(255, 255, 255)" stroke="none" stroke-width="1px">95.5</text><text x="0" y="269.2857142857143" dx="0em" dy="0.3em" style="text-anchor: end; visibility: inherit; font-family: Roboto, sans-serif; font-size: 12px; font-weight: 200;" fill="rgb(255, 255, 255)" stroke="none" stroke-width="1px">96</text><text x="0" y="215.42857142857142" dx="0em" dy="0.3em" style="text-anchor: end; visibility: inherit; font-family: Roboto, sans-serif; font-size: 12px; font-weight: 200;" fill="rgb(255, 255, 255)" stroke="none" stroke-width="1px">96.5</text><text x="0" y="161.57142857142858" dx="0em" dy="0.3em" style="text-anchor: end; visibility: inherit; font-family: Roboto, sans-serif; font-size: 12px; font-weight: 200;" fill="rgb(255, 255, 255)" stroke="none" stroke-width="1px">97</text><text x="0" y="107.71428571428571" dx="0em" dy="0.3em" style="text-anchor: end; visibility: inherit; font-family: Roboto, sans-serif; font-size: 12px; font-weight: 200;" fill="rgb(255, 255, 255)" stroke="none" stroke-width="1px">97.5</text><text x="0" y="53.857142857142875" dx="0em" dy="0.3em" style="text-anchor: end; visibility: inherit; font-family: Roboto, sans-serif; font-size: 12px; font-weight: 200;" fill="rgb(255, 255, 255)" stroke="none" stroke-width="1px">98</text><text x="0" y="0" dx="0em" dy="0.3em" style="text-anchor: end; visibility: hidden; font-family: Roboto, sans-serif; font-size: 12px; font-weight: 200;" fill="rgb(255, 255, 255)" stroke="none" stroke-width="1px">98.5</text></g><line x1="51.5625" y1="0" x2="51.5625" y2="377" fill="rgb(0, 0, 0)" stroke="rgb(204, 204, 204)" stroke-width="1px"></line></g></g><g transform="translate(51, 0)" clip-path="url(#clip_0)"><clipPath id="clip_0"><rect width="965" height="377"></rect></clipPath><g><g><g><line x1="0" y1="0" x2="0" y2="377" fill="rgb(0, 0, 0)" stroke="rgb(189, 189, 189)" stroke-width="1px" opacity="0.25"></line><line x1="96.54375" y1="0" x2="96.54375" y2="377" fill="rgb(0, 0, 0)" stroke="rgb(189, 189, 189)" stroke-width="1px" opacity="0.25"></line><line x1="193.0875" y1="0" x2="193.0875" y2="377" fill="rgb(0, 0, 0)" stroke="rgb(189, 189, 189)" stroke-width="1px" opacity="0.25"></line><line x1="289.63124999999997" y1="0" x2="289.63124999999997" y2="377" fill="rgb(0, 0, 0)" stroke="rgb(189, 189, 189)" stroke-width="1px" opacity="0.25"></line><line x1="386.175" y1="0" x2="386.175" y2="377" fill="rgb(0, 0, 0)" stroke="rgb(189, 189, 189)" stroke-width="1px" opacity="0.25"></line><line x1="482.71875" y1="0" x2="482.71875" y2="377" fill="rgb(0, 0, 0)" stroke="rgb(189, 189, 189)" stroke-width="1px" opacity="0.25"></line><line x1="579.2624999999999" y1="0" x2="579.2624999999999" y2="377" fill="rgb(0, 0, 0)" stroke="rgb(189, 189, 189)" stroke-width="1px" opacity="0.25"></line><line x1="675.80625" y1="0" x2="675.80625" y2="377" fill="rgb(0, 0, 0)" stroke="rgb(189, 189, 189)" stroke-width="1px" opacity="0.25"></line><line x1="772.35" y1="0" x2="772.35" y2="377" fill="rgb(0, 0, 0)" stroke="rgb(189, 189, 189)" stroke-width="1px" opacity="0.25"></line><line x1="868.8937500000001" y1="0" x2="868.8937500000001" y2="377" fill="rgb(0, 0, 0)" stroke="rgb(189, 189, 189)" stroke-width="1px" opacity="0.25"></line><line x1="965.4375" y1="0" x2="965.4375" y2="377" fill="rgb(0, 0, 0)" stroke="rgb(189, 189, 189)" stroke-width="1px" opacity="0.25"></line></g><g><line x1="0" y1="377" x2="965.4375" y2="377" fill="rgb(0, 0, 0)" stroke="rgb(189, 189, 189)" stroke-width="1px" opacity="0.25"></line><line x1="0" y1="323.14285714285717" x2="965.4375" y2="323.14285714285717" fill="rgb(0, 0, 0)" stroke="rgb(189, 189, 189)" stroke-width="1px" opacity="0.25"></line><line x1="0" y1="269.2857142857143" x2="965.4375" y2="269.2857142857143" fill="rgb(0, 0, 0)" stroke="rgb(189, 189, 189)" stroke-width="1px" opacity="0.25"></line><line x1="0" y1="215.42857142857142" x2="965.4375" y2="215.42857142857142" fill="rgb(0, 0, 0)" stroke="rgb(189, 189, 189)" stroke-width="1px" opacity="0.25"></line><line x1="0" y1="161.57142857142858" x2="965.4375" y2="161.57142857142858" fill="rgb(0, 0, 0)" stroke="rgb(189, 189, 189)" stroke-width="1px" opacity="0.25"></line><line x1="0" y1="107.71428571428571" x2="965.4375" y2="107.71428571428571" fill="rgb(0, 0, 0)" stroke="rgb(189, 189, 189)" stroke-width="1px" opacity="0.25"></line><line x1="0" y1="53.857142857142875" x2="965.4375" y2="53.857142857142875" fill="rgb(0, 0, 0)" stroke="rgb(189, 189, 189)" stroke-width="1px" opacity="0.25"></line><line x1="0" y1="0" x2="965.4375" y2="0" fill="rgb(0, 0, 0)" stroke="rgb(189, 189, 189)" stroke-width="1px" opacity="0.25"></line></g></g></g><g><g><line x1="0" y1="10609.857142857143" x2="965.4375" y2="10609.857142857143" fill="rgb(0, 0, 0)" stroke="rgb(153, 153, 153)" stroke-width="1.5px"></line></g></g><g><g><line x1="96.54375" y1="0" x2="96.54375" y2="377" fill="rgb(0, 0, 0)" stroke="rgb(153, 153, 153)" stroke-width="1.5px"></line></g></g><g><g><g><g><g><path stroke="rgb(0, 119, 187)" stroke-width="2px" d="M111.0253125,529.4070414996347L115.85249999999999,370.1781364889716L120.6796875,270.71201697574975L125.50687500000001,370.6973724669627L130.33406250000002,398.3978782150297L135.16125000000002,334.27340069466953L139.9884375,382.5661215624351L144.81562499999998,369.9548234905805L149.6428125,269.53300867088615L154.47,332.85406994163196L159.2971875,343.37327899633954L164.12437500000001,218.08571988510403L168.9515625,200.85761725017701L173.77875,175.79522318757327L178.6059375,143.92910611485607L183.433125,166.89305481512184L188.2603125,233.2680025111603L193.0875,220.49359338262883L201.245446875,248.59454033580792L206.072634375,361.17863015960035L210.89982187500001,268.838480107688L215.72700937500002,198.70822451071876L220.55419687499997,210.27719974021926L225.38138437499998,194.07678328061016L230.208571875,198.0312302657044L235.035759375,297.1785088666215L239.862946875,299.8643607738808L244.690134375,195.23421833333282L249.51732187500002,132.45614767284277L254.34450937500003,244.15874213659347L259.171696875,357.46377747820884L263.99888437500005,299.21911303243394L268.82607187499997,325.28236112464936L273.653259375,267.28749643374886L278.480446875,220.9197073947239L283.30763437499996,202.5661100829691L288.134821875,257.8234831371768L292.962009375,193.15145586728434L301.11995625000003,286.8873021669813L305.94714375,293.68963576774684L310.77433125000005,279.88878145666337L315.60151875,307.37277780733274L320.42870624999995,281.7872827531703L325.25589375,332.70551697650757L330.08308124999996,307.5058994706765L334.91026875,300.8013075393963L339.73745625,212.62676666530743L344.56464375,311.19525642855183L349.39183125,339.8313279644139L354.21901875000003,265.49790392128966L359.04620625,216.69026020983185L363.87339375,196.87274987587952L368.70058125,200.76070349695996L373.52776875,276.72628816963334L378.35495625000004,216.0640095089103L383.18214374999997,340.606932491077L388.00933125,340.6479764589319L392.83651875,305.9599912325008L400.994465625,264.1092536680716L405.821653125,261.08865487941347L410.648840625,210.88901882050462L415.476028125,249.14256307801796L420.303215625,171.1125467753828L425.13040312500004,195.82355485094337L429.957590625,196.97549451771042L434.78477812499995,145.07179224634115L439.611965625,268.55847713351926L444.43915312499996,182.762095208683L449.266340625,135.49185533949552L454.093528125,201.80047034655414L458.920715625,226.85907685079022L463.747903125,120.9260487890477L468.57509062500003,197.26857570200065L473.402278125,159.974203456915L478.229465625,175.46588368129278L483.05665312499997,233.14816860163282L487.88384062499995,267.75753955383624L492.711028125,262.225729089444L500.86897500000003,186.3257276322378L505.6961625,261.75391872220047L510.52335000000005,269.14252980474913L515.3505375000001,235.70739288284946L520.1777249999999,208.28302947971028L525.0049124999999,217.07394715211188L529.8321,220.24470311269602L534.6592875,218.99146472476076L539.4864749999999,134.0877359777136L544.3136625,90.50877997948501L549.14085,121.16386173769162L553.9680374999999,127.986040256901L558.795225,83.69207058271296L563.6224125,86.56881377819981L568.4496,109.33280612406273L573.2767875,89.33048724586652L578.103975,67.86202002609133L582.9311625,54.980939694226834L587.7583500000001,45.148496852250375L592.5855375,121.2970222184928L600.743484375,100.71660618823853L605.570671875,109.40630299865741L610.3978593749999,133.554272870623L615.225046875,84.9292155080881L620.052234375,150.42494001913857L624.879421875,146.59458454719743L629.706609375,133.77739804974826L634.533796875,146.07313525841977L639.360984375,194.4745731193388L644.188171875,136.20795815731788L649.015359375,171.7251097158193L653.842546875,91.0013604723484L658.6697343750001,120.40751271197988L663.496921875,97.02720852004566L668.324109375,106.14076707631436L673.1512968750001,64.27352274578924L677.978484375,86.48855561175955L682.805671875,72.46824497419888L687.6328593750001,107.18384877023392L692.4600468750001,105.92336729785555L700.61799375,115.68605162871272L705.44518125,67.89689883437082L710.27236875,67.62463483633768L715.09955625,47.47522733037465L719.92674375,138.4715203267956L724.75393125,117.33268898179286L729.5811187500001,89.9228276747903L734.40830625,117.65659839058908L739.23549375,147.9715259986401L744.0626812500001,83.06059417061199L748.8898687499999,156.66704846665414L753.7170562499999,117.73103265142136L758.54424375,81.74665530513947L763.37143125,110.64710032594202L768.1986187499999,83.80767983842267L773.02580625,68.75592486733963L777.85299375,79.71092099183296L782.68018125,68.40166420224385L787.50736875,37.42247173563233L792.33455625,127.18038036280765L800.4925031250001,110.5580050034001L805.3196906249999,99.53268246632516L810.146878125,159.1870201940802L814.974065625,93.99747997359161L819.801253125,93.80395673415435L824.6284406249999,136.81563296906526L829.455628125,134.22141103143977L834.282815625,154.75472161886387L839.1100031249999,224.92906064988972L843.937190625,179.72618638993325L848.764378125,122.09943951253261L853.591565625,69.6411369218059L858.418753125,87.60532947451333L863.245940625,83.65728250613594L868.073128125,41.31635611082474L872.900315625,42.20923330935166L877.727503125,29.07029444989672L882.554690625,21.18693113422374L887.3818781250001,123.75043993053455L892.209065625,148.47213895832041" style="fill: none;" fill="none"></path></g></g></g></g><g opacity="0.2"><g><g><g><path stroke="rgb(0, 119, 187)" stroke-width="2px" d="M106.198125,651.0192522321429L111.0253125,340.7095424107143L115.85249999999999,182.92494419642858L120.6796875,140.84905133928572L125.50687500000001,509.01311383928567L130.33406250000002,438.01004464285717L135.16125000000002,240.779296875L139.9884375,453.7885044642857L144.81562499999998,351.228515625L149.6428125,119.81110491071429L154.47,427.49107142857144L159.2971875,359.1177455357143L164.12437500000001,30.399832589285708L168.9515625,175.03571428571428L173.77875,138.21930803571428L178.6059375,96.14341517857142L183.433125,201.33314732142858L188.2603125,332.8203125L193.0875,201.33314732142858L201.245446875,290.74441964285717L206.072634375,530.0510602678571L210.89982187500001,130.330078125L215.72700937500002,93.513671875L220.55419687499997,227.63058035714283L225.38138437499998,169.77622767857142L230.208571875,203.962890625L235.035759375,445.89927455357144L239.862946875,303.8931361607143L244.690134375,38.2890625L249.51732187500002,38.2890625L254.34450937500003,411.71261160714283L259.171696875,527.4213169642857L263.99888437500005,211.85212053571428L268.82607187499997,364.3772321428571L273.653259375,180.29520089285714L278.480446875,151.36802455357142L283.30763437499996,175.03571428571428L288.134821875,340.7095424107143L292.962009375,96.14341517857142L301.11995625000003,427.49107142857144L305.94714375,303.8931361607143L310.77433125000005,259.1875L315.60151875,348.59877232142856L320.42870624999995,243.40904017857142L325.25589375,409.08286830357144L330.08308124999996,269.7064732142857L334.91026875,290.74441964285717L339.73745625,80.36495535714288L344.56464375,459.04799107142856L349.39183125,382.78543526785717L354.21901875000003,153.99776785714286L359.04620625,143.47879464285714L363.87339375,167.146484375L368.70058125,206.59263392857142L373.52776875,390.67466517857144L378.35495625000004,125.07059151785712L383.18214374999997,527.4213169642857L388.00933125,340.7095424107143L392.83651875,253.92801339285717L400.994465625,201.33314732142858L405.821653125,256.55775669642856L410.648840625,135.58956473214286L415.476028125,306.5228794642857L420.303215625,54.067522321428584L425.13040312500004,232.89006696428572L429.957590625,198.70340401785717L434.78477812499995,67.21623883928571L439.611965625,453.7885044642857L444.43915312499996,54.067522321428584L449.266340625,64.58649553571429L454.093528125,301.26339285714283L458.920715625,264.44698660714283L463.747903125,-37.973493303571416L468.57509062500003,311.78236607142856L473.402278125,104.03264508928571L478.229465625,198.70340401785717L483.05665312499997,319.67159598214283L487.88384062499995,319.67159598214283L492.711028125,253.92801339285717L500.86897500000003,72.47572544642858L505.6961625,374.8962053571429L510.52335000000005,280.22544642857144L515.3505375000001,185.5546875L520.1777249999999,167.146484375L525.0049124999999,230.26032366071428L529.8321,225.00083705357142L534.6592875,217.11160714285717L539.4864749999999,6.732142857142875L544.3136625,25.140345982142875L549.14085,167.146484375L553.9680374999999,138.21930803571428L558.795225,17.251116071428584L563.6224125,90.88392857142858L568.4496,143.47879464285714L573.2767875,59.327008928571416L578.103975,35.659319196428584L582.9311625,35.659319196428584L587.7583500000001,30.399832589285708L592.5855375,235.51981026785717L600.743484375,69.84598214285712L605.570671875,122.44084821428571L610.3978593749999,169.77622767857142L615.225046875,11.991629464285708L620.052234375,248.66852678571428L624.879421875,140.84905133928572L629.706609375,114.55161830357142L634.533796875,164.51674107142858L639.360984375,267.0767299107143L644.188171875,48.80803571428571L649.015359375,225.00083705357142L653.842546875,-30.084263392857167L658.6697343750001,164.51674107142858L663.496921875,61.956752232142875L668.324109375,119.81110491071429L673.1512968750001,1.47265625L677.978484375,119.81110491071429L682.805671875,51.437779017857125L687.6328593750001,159.25725446428572L692.4600468750001,104.03264508928571L700.61799375,130.330078125L705.44518125,-3.7868303571428332L710.27236875,67.21623883928571L715.09955625,17.251116071428584L719.92674375,274.96595982142856L724.75393125,85.62444196428571L729.5811187500001,48.80803571428571L734.40830625,159.25725446428572L739.23549375,193.44391741071428L744.0626812500001,-14.305803571428584L748.8898687499999,267.0767299107143L753.7170562499999,59.327008928571416L758.54424375,27.770089285714292L763.37143125,153.99776785714286L768.1986187499999,43.548549107142875L773.02580625,46.17829241071429L777.85299375,96.14341517857142L782.68018125,51.437779017857125L787.50736875,-9.04631696428575L792.33455625,261.81724330357144L800.4925031250001,85.62444196428571L805.3196906249999,82.99469866071429L810.146878125,248.66852678571428L814.974065625,-3.7868303571428332L819.801253125,93.513671875L824.6284406249999,201.33314732142858L829.455628125,130.330078125L834.282815625,185.5546875L839.1100031249999,330.19056919642856L843.937190625,111.921875L848.764378125,35.659319196428584L853.591565625,-9.04631696428575L858.418753125,114.55161830357142L863.245940625,77.73521205357142L868.073128125,-22.195033482142833L872.900315625,43.548549107142875L877.727503125,9.361886160714292L882.554690625,9.361886160714292L887.3818781250001,277.595703125L892.209065625,185.5546875" style="fill: none;" fill="none"></path></g></g></g></g></g></g><g transform="translate(51, 377)" clip-path="url(#clip_1)"><clipPath id="clip_1"><rect width="965" height="23"></rect></clipPath><g><g><line x1="0" y1="0" x2="0" y2="5" style="visibility: inherit;" fill="rgb(0, 0, 0)" stroke="rgb(204, 204, 204)" stroke-width="1px"></line><line x1="96.54375" y1="0" x2="96.54375" y2="5" style="visibility: inherit;" fill="rgb(0, 0, 0)" stroke="rgb(204, 204, 204)" stroke-width="1px"></line><line x1="193.0875" y1="0" x2="193.0875" y2="5" style="visibility: inherit;" fill="rgb(0, 0, 0)" stroke="rgb(204, 204, 204)" stroke-width="1px"></line><line x1="289.63124999999997" y1="0" x2="289.63124999999997" y2="5" style="visibility: inherit;" fill="rgb(0, 0, 0)" stroke="rgb(204, 204, 204)" stroke-width="1px"></line><line x1="386.175" y1="0" x2="386.175" y2="5" style="visibility: inherit;" fill="rgb(0, 0, 0)" stroke="rgb(204, 204, 204)" stroke-width="1px"></line><line x1="482.71875" y1="0" x2="482.71875" y2="5" style="visibility: inherit;" fill="rgb(0, 0, 0)" stroke="rgb(204, 204, 204)" stroke-width="1px"></line><line x1="579.2624999999999" y1="0" x2="579.2624999999999" y2="5" style="visibility: inherit;" fill="rgb(0, 0, 0)" stroke="rgb(204, 204, 204)" stroke-width="1px"></line><line x1="675.80625" y1="0" x2="675.80625" y2="5" style="visibility: inherit;" fill="rgb(0, 0, 0)" stroke="rgb(204, 204, 204)" stroke-width="1px"></line><line x1="772.35" y1="0" x2="772.35" y2="5" style="visibility: inherit;" fill="rgb(0, 0, 0)" stroke="rgb(204, 204, 204)" stroke-width="1px"></line><line x1="868.8937500000001" y1="0" x2="868.8937500000001" y2="5" style="visibility: inherit;" fill="rgb(0, 0, 0)" stroke="rgb(204, 204, 204)" stroke-width="1px"></line><line x1="965.4375" y1="0" x2="965.4375" y2="5" style="visibility: inherit;" fill="rgb(0, 0, 0)" stroke="rgb(204, 204, 204)" stroke-width="1px"></line></g><g transform="translate(0, 8)"><text x="0" y="0" dx="0em" dy="0.95em" style="text-anchor: middle; visibility: hidden; font-family: Roboto, sans-serif; font-size: 12px; font-weight: 200;" fill="rgb(255, 255, 255)" stroke="none" stroke-width="1px">-2k</text><text x="96.54375" y="0" dx="0em" dy="0.95em" style="text-anchor: middle; visibility: inherit; font-family: Roboto, sans-serif; font-size: 12px; font-weight: 200;" fill="rgb(255, 255, 255)" stroke="none" stroke-width="1px">0</text><text x="193.0875" y="0" dx="0em" dy="0.95em" style="text-anchor: middle; visibility: inherit; font-family: Roboto, sans-serif; font-size: 12px; font-weight: 200;" fill="rgb(255, 255, 255)" stroke="none" stroke-width="1px">2k</text><text x="289.63124999999997" y="0" dx="0em" dy="0.95em" style="text-anchor: middle; visibility: inherit; font-family: Roboto, sans-serif; font-size: 12px; font-weight: 200;" fill="rgb(255, 255, 255)" stroke="none" stroke-width="1px">4k</text><text x="386.175" y="0" dx="0em" dy="0.95em" style="text-anchor: middle; visibility: inherit; font-family: Roboto, sans-serif; font-size: 12px; font-weight: 200;" fill="rgb(255, 255, 255)" stroke="none" stroke-width="1px">6k</text><text x="482.71875" y="0" dx="0em" dy="0.95em" style="text-anchor: middle; visibility: inherit; font-family: Roboto, sans-serif; font-size: 12px; font-weight: 200;" fill="rgb(255, 255, 255)" stroke="none" stroke-width="1px">8k</text><text x="579.2624999999999" y="0" dx="0em" dy="0.95em" style="text-anchor: middle; visibility: inherit; font-family: Roboto, sans-serif; font-size: 12px; font-weight: 200;" fill="rgb(255, 255, 255)" stroke="none" stroke-width="1px">10k</text><text x="675.80625" y="0" dx="0em" dy="0.95em" style="text-anchor: middle; visibility: inherit; font-family: Roboto, sans-serif; font-size: 12px; font-weight: 200;" fill="rgb(255, 255, 255)" stroke="none" stroke-width="1px">12k</text><text x="772.35" y="0" dx="0em" dy="0.95em" style="text-anchor: middle; visibility: inherit; font-family: Roboto, sans-serif; font-size: 12px; font-weight: 200;" fill="rgb(255, 255, 255)" stroke="none" stroke-width="1px">14k</text><text x="868.8937500000001" y="0" dx="0em" dy="0.95em" style="text-anchor: middle; visibility: inherit; font-family: Roboto, sans-serif; font-size: 12px; font-weight: 200;" fill="rgb(255, 255, 255)" stroke="none" stroke-width="1px">16k</text><text x="965.4375" y="0" dx="0em" dy="0.95em" style="text-anchor: middle; visibility: hidden; font-family: Roboto, sans-serif; font-size: 12px; font-weight: 200;" fill="rgb(255, 255, 255)" stroke="none" stroke-width="1px">18k</text></g><line x1="0" y1="0" x2="965.4375" y2="0" fill="rgb(0, 0, 0)" stroke="rgb(204, 204, 204)" stroke-width="1px"></line></g></g></g></g></svg>