<svg viewBox="0 0 1017 400" xmlns="http://www.w3.org/2000/svg"><g><g><g><g><g><line x1="61.953125" y1="377" x2="56.953125" y2="377" style="visibility: inherit;" fill="rgb(0, 0, 0)" stroke="rgb(204, 204, 204)" stroke-width="1px"></line><line x1="61.953125" y1="345.5833333333333" x2="56.953125" y2="345.5833333333333" style="visibility: inherit;" fill="rgb(0, 0, 0)" stroke="rgb(204, 204, 204)" stroke-width="1px"></line><line x1="61.953125" y1="314.1666666666667" x2="56.953125" y2="314.1666666666667" style="visibility: inherit;" fill="rgb(0, 0, 0)" stroke="rgb(204, 204, 204)" stroke-width="1px"></line><line x1="61.953125" y1="282.75" x2="56.953125" y2="282.75" style="visibility: inherit;" fill="rgb(0, 0, 0)" stroke="rgb(204, 204, 204)" stroke-width="1px"></line><line x1="61.953125" y1="251.33333333333337" x2="56.953125" y2="251.33333333333337" style="visibility: inherit;" fill="rgb(0, 0, 0)" stroke="rgb(204, 204, 204)" stroke-width="1px"></line><line x1="61.953125" y1="219.91666666666663" x2="56.953125" y2="219.91666666666663" style="visibility: inherit;" fill="rgb(0, 0, 0)" stroke="rgb(204, 204, 204)" stroke-width="1px"></line><line x1="61.953125" y1="188.5" x2="56.953125" y2="188.5" style="visibility: inherit;" fill="rgb(0, 0, 0)" stroke="rgb(204, 204, 204)" stroke-width="1px"></line><line x1="61.953125" y1="157.08333333333331" x2="56.953125" y2="157.08333333333331" style="visibility: inherit;" fill="rgb(0, 0, 0)" stroke="rgb(204, 204, 204)" stroke-width="1px"></line><line x1="61.953125" y1="125.66666666666669" x2="56.953125" y2="125.66666666666669" style="visibility: inherit;" fill="rgb(0, 0, 0)" stroke="rgb(204, 204, 204)" stroke-width="1px"></line><line x1="61.953125" y1="94.24999999999996" x2="56.953125" y2="94.24999999999996" style="visibility: inherit;" fill="rgb(0, 0, 0)" stroke="rgb(204, 204, 204)" stroke-width="1px"></line><line x1="61.953125" y1="62.8333333333334" x2="56.953125" y2="62.8333333333334" style="visibility: inherit;" fill="rgb(0, 0, 0)" stroke="rgb(204, 204, 204)" stroke-width="1px"></line><line x1="61.953125" y1="31.416666666666682" x2="56.953125" y2="31.416666666666682" style="visibility: inherit;" fill="rgb(0, 0, 0)" stroke="rgb(204, 204, 204)" stroke-width="1px"></line><line x1="61.953125" y1="0" x2="56.953125" y2="0" style="visibility: inherit;" fill="rgb(0, 0, 0)" stroke="rgb(204, 204, 204)" stroke-width="1px"></line></g><g transform="translate(51.953125, 0)"><text x="0" y="377" dx="0em" dy="0.3em" style="text-anchor: end; visibility: hidden; font-family: Roboto, sans-serif; font-size: 12px; font-weight: 200;" fill="rgb(255, 255, 255)" stroke="none" stroke-width="1px">-2e-3</text><text x="0" y="345.5833333333333" dx="0em" dy="0.3em" style="text-anchor: end; visibility: inherit; font-family: Roboto, sans-serif; font-size: 12px; font-weight: 200;" fill="rgb(255, 255, 255)" stroke="none" stroke-width="1px">0</text><text x="0" y="314.1666666666667" dx="0em" dy="0.3em" style="text-anchor: end; visibility: inherit; font-family: Roboto, sans-serif; font-size: 12px; font-weight: 200;" fill="rgb(255, 255, 255)" stroke="none" stroke-width="1px">2e-3</text><text x="0" y="282.75" dx="0em" dy="0.3em" style="text-anchor: end; visibility: inherit; font-family: Roboto, sans-serif; font-size: 12px; font-weight: 200;" fill="rgb(255, 255, 255)" stroke="none" stroke-width="1px">4e-3</text><text x="0" y="251.33333333333337" dx="0em" dy="0.3em" style="text-anchor: end; visibility: inherit; font-family: Roboto, sans-serif; font-size: 12px; font-weight: 200;" fill="rgb(255, 255, 255)" stroke="none" stroke-width="1px">6e-3</text><text x="0" y="219.91666666666663" dx="0em" dy="0.3em" style="text-anchor: end; visibility: inherit; font-family: Roboto, sans-serif; font-size: 12px; font-weight: 200;" fill="rgb(255, 255, 255)" stroke="none" stroke-width="1px">8e-3</text><text x="0" y="188.5" dx="0em" dy="0.3em" style="text-anchor: end; visibility: inherit; font-family: Roboto, sans-serif; font-size: 12px; font-weight: 200;" fill="rgb(255, 255, 255)" stroke="none" stroke-width="1px">0.01</text><text x="0" y="157.08333333333331" dx="0em" dy="0.3em" style="text-anchor: end; visibility: inherit; font-family: Roboto, sans-serif; font-size: 12px; font-weight: 200;" fill="rgb(255, 255, 255)" stroke="none" stroke-width="1px">0.012</text><text x="0" y="125.66666666666669" dx="0em" dy="0.3em" style="text-anchor: end; visibility: inherit; font-family: Roboto, sans-serif; font-size: 12px; font-weight: 200;" fill="rgb(255, 255, 255)" stroke="none" stroke-width="1px">0.014</text><text x="0" y="94.24999999999996" dx="0em" dy="0.3em" style="text-anchor: end; visibility: inherit; font-family: Roboto, sans-serif; font-size: 12px; font-weight: 200;" fill="rgb(255, 255, 255)" stroke="none" stroke-width="1px">0.016</text><text x="0" y="62.8333333333334" dx="0em" dy="0.3em" style="text-anchor: end; visibility: inherit; font-family: Roboto, sans-serif; font-size: 12px; font-weight: 200;" fill="rgb(255, 255, 255)" stroke="none" stroke-width="1px">0.018</text><text x="0" y="31.416666666666682" dx="0em" dy="0.3em" style="text-anchor: end; visibility: inherit; font-family: Roboto, sans-serif; font-size: 12px; font-weight: 200;" fill="rgb(255, 255, 255)" stroke="none" stroke-width="1px">0.02</text><text x="0" y="0" dx="0em" dy="0.3em" style="text-anchor: end; visibility: hidden; font-family: Roboto, sans-serif; font-size: 12px; font-weight: 200;" fill="rgb(255, 255, 255)" stroke="none" stroke-width="1px">0.022</text></g><line x1="61.953125" y1="0" x2="61.953125" y2="377" fill="rgb(0, 0, 0)" stroke="rgb(204, 204, 204)" stroke-width="1px"></line></g></g><g transform="translate(61, 0)" clip-path="url(#clip_0)"><clipPath id="clip_0"><rect width="955" height="377"></rect></clipPath><g><g><g><line x1="0" y1="0" x2="0" y2="377" fill="rgb(0, 0, 0)" stroke="rgb(189, 189, 189)" stroke-width="1px" opacity="0.25"></line><line x1="95.5046875" y1="0" x2="95.5046875" y2="377" fill="rgb(0, 0, 0)" stroke="rgb(189, 189, 189)" stroke-width="1px" opacity="0.25"></line><line x1="191.009375" y1="0" x2="191.009375" y2="377" fill="rgb(0, 0, 0)" stroke="rgb(189, 189, 189)" stroke-width="1px" opacity="0.25"></line><line x1="286.51406249999997" y1="0" x2="286.51406249999997" y2="377" fill="rgb(0, 0, 0)" stroke="rgb(189, 189, 189)" stroke-width="1px" opacity="0.25"></line><line x1="382.01875" y1="0" x2="382.01875" y2="377" fill="rgb(0, 0, 0)" stroke="rgb(189, 189, 189)" stroke-width="1px" opacity="0.25"></line><line x1="477.5234375" y1="0" x2="477.5234375" y2="377" fill="rgb(0, 0, 0)" stroke="rgb(189, 189, 189)" stroke-width="1px" opacity="0.25"></line><line x1="573.0281249999999" y1="0" x2="573.0281249999999" y2="377" fill="rgb(0, 0, 0)" stroke="rgb(189, 189, 189)" stroke-width="1px" opacity="0.25"></line><line x1="668.5328125" y1="0" x2="668.5328125" y2="377" fill="rgb(0, 0, 0)" stroke="rgb(189, 189, 189)" stroke-width="1px" opacity="0.25"></line><line x1="764.0375" y1="0" x2="764.0375" y2="377" fill="rgb(0, 0, 0)" stroke="rgb(189, 189, 189)" stroke-width="1px" opacity="0.25"></line><line x1="859.5421875000001" y1="0" x2="859.5421875000001" y2="377" fill="rgb(0, 0, 0)" stroke="rgb(189, 189, 189)" stroke-width="1px" opacity="0.25"></line><line x1="955.046875" y1="0" x2="955.046875" y2="377" fill="rgb(0, 0, 0)" stroke="rgb(189, 189, 189)" stroke-width="1px" opacity="0.25"></line></g><g><line x1="0" y1="377" x2="955.046875" y2="377" fill="rgb(0, 0, 0)" stroke="rgb(189, 189, 189)" stroke-width="1px" opacity="0.25"></line><line x1="0" y1="345.5833333333333" x2="955.046875" y2="345.5833333333333" fill="rgb(0, 0, 0)" stroke="rgb(189, 189, 189)" stroke-width="1px" opacity="0.25"></line><line x1="0" y1="314.1666666666667" x2="955.046875" y2="314.1666666666667" fill="rgb(0, 0, 0)" stroke="rgb(189, 189, 189)" stroke-width="1px" opacity="0.25"></line><line x1="0" y1="282.75" x2="955.046875" y2="282.75" fill="rgb(0, 0, 0)" stroke="rgb(189, 189, 189)" stroke-width="1px" opacity="0.25"></line><line x1="0" y1="251.33333333333337" x2="955.046875" y2="251.33333333333337" fill="rgb(0, 0, 0)" stroke="rgb(189, 189, 189)" stroke-width="1px" opacity="0.25"></line><line x1="0" y1="219.91666666666663" x2="955.046875" y2="219.91666666666663" fill="rgb(0, 0, 0)" stroke="rgb(189, 189, 189)" stroke-width="1px" opacity="0.25"></line><line x1="0" y1="188.5" x2="955.046875" y2="188.5" fill="rgb(0, 0, 0)" stroke="rgb(189, 189, 189)" stroke-width="1px" opacity="0.25"></line><line x1="0" y1="157.08333333333331" x2="955.046875" y2="157.08333333333331" fill="rgb(0, 0, 0)" stroke="rgb(189, 189, 189)" stroke-width="1px" opacity="0.25"></line><line x1="0" y1="125.66666666666669" x2="955.046875" y2="125.66666666666669" fill="rgb(0, 0, 0)" stroke="rgb(189, 189, 189)" stroke-width="1px" opacity="0.25"></line><line x1="0" y1="94.24999999999996" x2="955.046875" y2="94.24999999999996" fill="rgb(0, 0, 0)" stroke="rgb(189, 189, 189)" stroke-width="1px" opacity="0.25"></line><line x1="0" y1="62.8333333333334" x2="955.046875" y2="62.8333333333334" fill="rgb(0, 0, 0)" stroke="rgb(189, 189, 189)" stroke-width="1px" opacity="0.25"></line><line x1="0" y1="31.416666666666682" x2="955.046875" y2="31.416666666666682" fill="rgb(0, 0, 0)" stroke="rgb(189, 189, 189)" stroke-width="1px" opacity="0.25"></line><line x1="0" y1="0" x2="955.046875" y2="0" fill="rgb(0, 0, 0)" stroke="rgb(189, 189, 189)" stroke-width="1px" opacity="0.25"></line></g></g></g><g><g><line x1="0" y1="345.5833333333333" x2="955.046875" y2="345.5833333333333" fill="rgb(0, 0, 0)" stroke="rgb(153, 153, 153)" stroke-width="1.5px"></line></g></g><g><g><line x1="95.5046875" y1="0" x2="95.5046875" y2="377" fill="rgb(0, 0, 0)" stroke="rgb(153, 153, 153)" stroke-width="1.5px"></line></g></g><g><g><g><g><g><path stroke="rgb(0, 119, 187)" stroke-width="2px" d="M100.279921875,283.00183698131394L105.05515625,243.69165293100139L109.830390625,199.56797695616072L114.60562499999999,151.19710222438354L119.380859375,99.24514675268651L124.15609375000001,70.78596598945826L128.93132812500002,54.584717808121454L133.70656250000002,45.15918744433338L138.481796875,39.606220832725626L143.25703124999998,36.31047385348112L148.032265625,34.3458261034262L152.8075,33.17160912280927L157.582734375,32.46871692322661L162.35796875,32.047569600892786L167.133203125,31.795092525141257L171.9084375,31.643682276124867L176.683671875,31.552863468620256L181.45890625,31.49838202357453L186.234140625,31.465696697968056L191.009375,31.446086777346622L199.07952109375,31.434321283844508L203.85475546875,31.427262152928833L208.62998984375,31.423026733844434L213.40522421875002,31.420485503800936L218.18045859375,31.41896077348117L222.95569296875,31.418045938063774L227.73092734374998,31.41749703781208L232.50616171875,31.417167698020485L237.28139609375,31.416970094275L242.05663046875,31.416851532074418L246.83186484375003,31.416780394770722L251.60709921875002,31.416737712394674L256.38233359375005,31.416712102971115L261.15756796875,31.4166967373178L265.93280234375,31.41668751792606L270.70803671875,31.416681986291145L275.48327109375,31.416678667310187L280.25850546875,31.41667667592166L285.03373984374997,31.416675481088635L289.80897421875,31.416674764188663L297.8791203125,31.416674334048796L302.6543546875,31.416674075964753L307.42958906250004,31.416673921114477L312.2048234375,31.416673828204303L316.9800578125,31.41667377245813L321.7552921875,31.416673739010427L326.5305265625,31.416673718941848L331.3057609375,31.416673706900674L336.08099531249997,31.41667369967593L340.8562296875,31.416673695341046L345.6314640625,31.416673692740236L350.4066984375,31.4166736911797L355.1819328125,31.41667369024331L359.95716718750003,31.41667368968165L364.7324015625,31.416673689344506L369.5076359375,31.41667368914222L374.28287031250005,31.41667368902088L379.05810468749996,31.416673688948094L383.8333390625,31.416673688904353L388.6085734375,31.416673688878195L396.67871953125,31.4166736888625L401.45395390625,31.41667368885304L406.22918828125,31.416673688847347L411.00442265625003,31.416673688844L415.77965703125,31.416673688841907L420.55489140625,31.416673688840692L425.33012578125005,31.41667368883994L430.10536015624996,31.416673688839605L434.88059453125,31.41667368883931L439.65582890625,31.41667368883906L444.43106328125,31.41667368883906L449.20629765625,31.416673688838976L453.98153203124997,31.416673688838852L458.75676640625,31.416673688838852L463.53200078125,31.416673688838852L468.30723515625,31.416673688838852L473.08246953125,31.416673688838852L477.85770390625,31.416673688838852L482.63293828124995,31.416673688838852L487.40817265625,31.416673688838852L495.47831875,144.51667028308538L500.25355312500005,212.37666823963326L505.0287875,253.092667013562L509.80402187500005,277.52226627791924L514.57925625,292.18002583653356L519.3544906249999,300.97468157170215L524.129725,306.2514750128033L528.904959375,309.41755107746405L533.68019375,311.31719671626047L538.455428125,312.45698409953826L543.2306625,313.140856529505L548.005896875,313.55117998748506L552.7811312499999,313.7973740622731L557.556365625,313.9450905071459L562.3316,314.03372037406956L567.106834375,314.0868982942238L571.88206875,314.1188050463163L576.657303125,314.1379490975718L581.4325375,314.1494355283251L586.207771875,314.1563273867771L594.27791796875,314.1604625018483L599.05315234375,314.162943570891L603.8283867187499,314.1644322123166L608.60362109375,314.165325397172L613.37885546875,314.1658613080852L618.15408984375,314.1661828546332L622.92932421875,314.16637578256194L627.70455859375,314.16649153931917L632.47979296875,314.16656099337354L637.25502734375,314.1666026658062L642.03026171875,314.1666276692657L646.80549609375,314.1666426713415L651.5807304687501,314.1666516725869L656.35596484375,314.1666570733342L661.13119921875,314.16666031378253L665.9064335937501,314.1666622580516L670.68166796875,314.1666634246129L675.45690234375,314.1666641245498L680.2321367187501,314.1666645445119L685.0073710937501,314.1666647964892L693.0775171875,325.47666557630623L697.8527515625,332.2626660441965L702.6279859375001,336.33426632493064L707.4032203125,338.77722649337113L712.1784546875,340.2430025944354L716.9536890625001,341.122468255074L721.7289234375,341.65014765145713L726.5041578125,341.96675528928705L731.2793921875001,342.15671987198493L736.0546265625001,342.27069862160374L740.8298609374999,342.33908587137495L745.6050953125,342.3801182212377L750.3803296875,342.40473763115534L755.1555640624999,342.419509277106L759.9307984375,342.4283722646763L764.7060328125,342.43369005721854L769.4812671875,342.4368807327439L774.2565015624999,342.43879513805905L779.0317359375,342.4399437812482L783.8069703125,342.44063296716166L791.87711640625,342.4410464787097L796.65235078125,342.44129458563856L801.42758515625,342.4414434497959L806.2028195312499,342.44153276829024L810.97805390625,342.4415863593869L815.75328828125,342.4416185140449L820.52852265625,342.44163780683965L825.30375703125,342.4416493825165L830.07899140625,342.44165632792266L834.85422578125,342.44166049516633L839.6294601562499,342.44166299551256L844.40469453125,342.44166449572026L849.17992890625,342.4416653958449L853.95516328125,342.4416659359197L858.73039765625,342.4416662599645L863.50563203125,342.44166645439145L868.28086640625,342.4416665710476L873.05610078125,342.4416666410413L877.83133515625,342.4416666830375L882.60656953125,342.44166670823523" style="fill: none;" fill="none"></path></g></g></g></g><g opacity="0.2"><g><g><g><path stroke="rgb(0, 119, 187)" stroke-width="2px" d="M100.279921875,283.00183698131394L105.05515625,220.10554250081384L109.830390625,157.20924802031368L114.60562499999999,94.31295353981353L119.380859375,31.416673688838852L124.15609375000001,31.416673688838852L128.93132812500002,31.416673688838852L133.70656250000002,31.416673688838852L138.481796875,31.416673688838852L143.25703124999998,31.416673688838852L148.032265625,31.416673688838852L152.8075,31.416673688838852L157.582734375,31.416673688838852L162.35796875,31.416673688838852L167.133203125,31.416673688838852L171.9084375,31.416673688838852L176.683671875,31.416673688838852L181.45890625,31.416673688838852L186.234140625,31.416673688838852L191.009375,31.416673688838852L199.07952109375,31.416673688838852L203.85475546875,31.416673688838852L208.62998984375,31.416673688838852L213.40522421875002,31.416673688838852L218.18045859375,31.416673688838852L222.95569296875,31.416673688838852L227.73092734374998,31.416673688838852L232.50616171875,31.416673688838852L237.28139609375,31.416673688838852L242.05663046875,31.416673688838852L246.83186484375003,31.416673688838852L251.60709921875002,31.416673688838852L256.38233359375005,31.416673688838852L261.15756796875,31.416673688838852L265.93280234375,31.416673688838852L270.70803671875,31.416673688838852L275.48327109375,31.416673688838852L280.25850546875,31.416673688838852L285.03373984374997,31.416673688838852L289.80897421875,31.416673688838852L297.8791203125,31.416673688838852L302.6543546875,31.416673688838852L307.42958906250004,31.416673688838852L312.2048234375,31.416673688838852L316.9800578125,31.416673688838852L321.7552921875,31.416673688838852L326.5305265625,31.416673688838852L331.3057609375,31.416673688838852L336.08099531249997,31.416673688838852L340.8562296875,31.416673688838852L345.6314640625,31.416673688838852L350.4066984375,31.416673688838852L355.1819328125,31.416673688838852L359.95716718750003,31.416673688838852L364.7324015625,31.416673688838852L369.5076359375,31.416673688838852L374.28287031250005,31.416673688838852L379.05810468749996,31.416673688838852L383.8333390625,31.416673688838852L388.6085734375,31.416673688838852L396.67871953125,31.416673688838852L401.45395390625,31.416673688838852L406.22918828125,31.416673688838852L411.00442265625003,31.416673688838852L415.77965703125,31.416673688838852L420.55489140625,31.416673688838852L425.33012578125005,31.416673688838852L430.10536015624996,31.416673688838852L434.88059453125,31.416673688838852L439.65582890625,31.416673688838852L444.43106328125,31.416673688838852L449.20629765625,31.416673688838852L453.98153203124997,31.416673688838852L458.75676640625,31.416673688838852L463.53200078125,31.416673688838852L468.30723515625,31.416673688838852L473.08246953125,31.416673688838852L477.85770390625,31.416673688838852L482.63293828124995,31.416673688838852L487.40817265625,31.416673688838852L495.47831875,314.1666651744551L500.25355312500005,314.1666651744551L505.0287875,314.1666651744551L509.80402187500005,314.1666651744551L514.57925625,314.1666651744551L519.3544906249999,314.1666651744551L524.129725,314.1666651744551L528.904959375,314.1666651744551L533.68019375,314.1666651744551L538.455428125,314.1666651744551L543.2306625,314.1666651744551L548.005896875,314.1666651744551L552.7811312499999,314.1666651744551L557.556365625,314.1666651744551L562.3316,314.1666651744551L567.106834375,314.1666651744551L571.88206875,314.1666651744551L576.657303125,314.1666651744551L581.4325375,314.1666651744551L586.207771875,314.1666651744551L594.27791796875,314.1666651744551L599.05315234375,314.1666651744551L603.8283867187499,314.1666651744551L608.60362109375,314.1666651744551L613.37885546875,314.1666651744551L618.15408984375,314.1666651744551L622.92932421875,314.1666651744551L627.70455859375,314.1666651744551L632.47979296875,314.1666651744551L637.25502734375,314.1666651744551L642.03026171875,314.1666651744551L646.80549609375,314.1666651744551L651.5807304687501,314.1666651744551L656.35596484375,314.1666651744551L661.13119921875,314.1666651744551L665.9064335937501,314.1666651744551L670.68166796875,314.1666651744551L675.45690234375,314.1666651744551L680.2321367187501,314.1666651744551L685.0073710937501,314.1666651744551L693.0775171875,342.44166674603184L697.8527515625,342.44166674603184L702.6279859375001,342.44166674603184L707.4032203125,342.44166674603184L712.1784546875,342.44166674603184L716.9536890625001,342.44166674603184L721.7289234375,342.44166674603184L726.5041578125,342.44166674603184L731.2793921875001,342.44166674603184L736.0546265625001,342.44166674603184L740.8298609374999,342.44166674603184L745.6050953125,342.44166674603184L750.3803296875,342.44166674603184L755.1555640624999,342.44166674603184L759.9307984375,342.44166674603184L764.7060328125,342.44166674603184L769.4812671875,342.44166674603184L774.2565015624999,342.44166674603184L779.0317359375,342.44166674603184L783.8069703125,342.44166674603184L791.87711640625,342.44166674603184L796.65235078125,342.44166674603184L801.42758515625,342.44166674603184L806.2028195312499,342.44166674603184L810.97805390625,342.44166674603184L815.75328828125,342.44166674603184L820.52852265625,342.44166674603184L825.30375703125,342.44166674603184L830.07899140625,342.44166674603184L834.85422578125,342.44166674603184L839.6294601562499,342.44166674603184L844.40469453125,342.44166674603184L849.17992890625,342.44166674603184L853.95516328125,342.44166674603184L858.73039765625,342.44166674603184L863.50563203125,342.44166674603184L868.28086640625,342.44166674603184L873.05610078125,342.44166674603184L877.83133515625,342.44166674603184L882.60656953125,342.44166674603184" style="fill: none;" fill="none"></path></g></g></g></g></g></g><g transform="translate(61, 377)" clip-path="url(#clip_1)"><clipPath id="clip_1"><rect width="955" height="23"></rect></clipPath><g><g><line x1="0" y1="0" x2="0" y2="5" style="visibility: inherit;" fill="rgb(0, 0, 0)" stroke="rgb(204, 204, 204)" stroke-width="1px"></line><line x1="95.5046875" y1="0" x2="95.5046875" y2="5" style="visibility: inherit;" fill="rgb(0, 0, 0)" stroke="rgb(204, 204, 204)" stroke-width="1px"></line><line x1="191.009375" y1="0" x2="191.009375" y2="5" style="visibility: inherit;" fill="rgb(0, 0, 0)" stroke="rgb(204, 204, 204)" stroke-width="1px"></line><line x1="286.51406249999997" y1="0" x2="286.51406249999997" y2="5" style="visibility: inherit;" fill="rgb(0, 0, 0)" stroke="rgb(204, 204, 204)" stroke-width="1px"></line><line x1="382.01875" y1="0" x2="382.01875" y2="5" style="visibility: inherit;" fill="rgb(0, 0, 0)" stroke="rgb(204, 204, 204)" stroke-width="1px"></line><line x1="477.5234375" y1="0" x2="477.5234375" y2="5" style="visibility: inherit;" fill="rgb(0, 0, 0)" stroke="rgb(204, 204, 204)" stroke-width="1px"></line><line x1="573.0281249999999" y1="0" x2="573.0281249999999" y2="5" style="visibility: inherit;" fill="rgb(0, 0, 0)" stroke="rgb(204, 204, 204)" stroke-width="1px"></line><line x1="668.5328125" y1="0" x2="668.5328125" y2="5" style="visibility: inherit;" fill="rgb(0, 0, 0)" stroke="rgb(204, 204, 204)" stroke-width="1px"></line><line x1="764.0375" y1="0" x2="764.0375" y2="5" style="visibility: inherit;" fill="rgb(0, 0, 0)" stroke="rgb(204, 204, 204)" stroke-width="1px"></line><line x1="859.5421875000001" y1="0" x2="859.5421875000001" y2="5" style="visibility: inherit;" fill="rgb(0, 0, 0)" stroke="rgb(204, 204, 204)" stroke-width="1px"></line><line x1="955.046875" y1="0" x2="955.046875" y2="5" style="visibility: inherit;" fill="rgb(0, 0, 0)" stroke="rgb(204, 204, 204)" stroke-width="1px"></line></g><g transform="translate(0, 8)"><text x="0" y="0" dx="0em" dy="0.95em" style="text-anchor: middle; visibility: hidden; font-family: Roboto, sans-serif; font-size: 12px; font-weight: 200;" fill="rgb(255, 255, 255)" stroke="none" stroke-width="1px">-2k</text><text x="95.5046875" y="0" dx="0em" dy="0.95em" style="text-anchor: middle; visibility: inherit; font-family: Roboto, sans-serif; font-size: 12px; font-weight: 200;" fill="rgb(255, 255, 255)" stroke="none" stroke-width="1px">0</text><text x="191.009375" y="0" dx="0em" dy="0.95em" style="text-anchor: middle; visibility: inherit; font-family: Roboto, sans-serif; font-size: 12px; font-weight: 200;" fill="rgb(255, 255, 255)" stroke="none" stroke-width="1px">2k</text><text x="286.51406249999997" y="0" dx="0em" dy="0.95em" style="text-anchor: middle; visibility: inherit; font-family: Roboto, sans-serif; font-size: 12px; font-weight: 200;" fill="rgb(255, 255, 255)" stroke="none" stroke-width="1px">4k</text><text x="382.01875" y="0" dx="0em" dy="0.95em" style="text-anchor: middle; visibility: inherit; font-family: Roboto, sans-serif; font-size: 12px; font-weight: 200;" fill="rgb(255, 255, 255)" stroke="none" stroke-width="1px">6k</text><text x="477.5234375" y="0" dx="0em" dy="0.95em" style="text-anchor: middle; visibility: inherit; font-family: Roboto, sans-serif; font-size: 12px; font-weight: 200;" fill="rgb(255, 255, 255)" stroke="none" stroke-width="1px">8k</text><text x="573.0281249999999" y="0" dx="0em" dy="0.95em" style="text-anchor: middle; visibility: inherit; font-family: Roboto, sans-serif; font-size: 12px; font-weight: 200;" fill="rgb(255, 255, 255)" stroke="none" stroke-width="1px">10k</text><text x="668.5328125" y="0" dx="0em" dy="0.95em" style="text-anchor: middle; visibility: inherit; font-family: Roboto, sans-serif; font-size: 12px; font-weight: 200;" fill="rgb(255, 255, 255)" stroke="none" stroke-width="1px">12k</text><text x="764.0375" y="0" dx="0em" dy="0.95em" style="text-anchor: middle; visibility: inherit; font-family: Roboto, sans-serif; font-size: 12px; font-weight: 200;" fill="rgb(255, 255, 255)" stroke="none" stroke-width="1px">14k</text><text x="859.5421875000001" y="0" dx="0em" dy="0.95em" style="text-anchor: middle; visibility: inherit; font-family: Roboto, sans-serif; font-size: 12px; font-weight: 200;" fill="rgb(255, 255, 255)" stroke="none" stroke-width="1px">16k</text><text x="955.046875" y="0" dx="0em" dy="0.95em" style="text-anchor: middle; visibility: hidden; font-family: Roboto, sans-serif; font-size: 12px; font-weight: 200;" fill="rgb(255, 255, 255)" stroke="none" stroke-width="1px">18k</text></g><line x1="0" y1="0" x2="955.046875" y2="0" fill="rgb(0, 0, 0)" stroke="rgb(204, 204, 204)" stroke-width="1px"></line></g></g></g></g></svg>