<svg viewBox="0 0 1017 400" xmlns="http://www.w3.org/2000/svg"><g><g><g><g><g><line x1="72.34375" y1="377" x2="67.34375" y2="377" style="visibility: inherit;" fill="rgb(0, 0, 0)" stroke="rgb(204, 204, 204)" stroke-width="1px"></line><line x1="72.34375" y1="339.29999999999995" x2="67.34375" y2="339.29999999999995" style="visibility: inherit;" fill="rgb(0, 0, 0)" stroke="rgb(204, 204, 204)" stroke-width="1px"></line><line x1="72.34375" y1="301.5999999999999" x2="67.34375" y2="301.5999999999999" style="visibility: inherit;" fill="rgb(0, 0, 0)" stroke="rgb(204, 204, 204)" stroke-width="1px"></line><line x1="72.34375" y1="263.9000000000001" x2="67.34375" y2="263.9000000000001" style="visibility: inherit;" fill="rgb(0, 0, 0)" stroke="rgb(204, 204, 204)" stroke-width="1px"></line><line x1="72.34375" y1="226.20000000000005" x2="67.34375" y2="226.20000000000005" style="visibility: inherit;" fill="rgb(0, 0, 0)" stroke="rgb(204, 204, 204)" stroke-width="1px"></line><line x1="72.34375" y1="188.5" x2="67.34375" y2="188.5" style="visibility: inherit;" fill="rgb(0, 0, 0)" stroke="rgb(204, 204, 204)" stroke-width="1px"></line><line x1="72.34375" y1="150.79999999999995" x2="67.34375" y2="150.79999999999995" style="visibility: inherit;" fill="rgb(0, 0, 0)" stroke="rgb(204, 204, 204)" stroke-width="1px"></line><line x1="72.34375" y1="113.10000000000007" x2="67.34375" y2="113.10000000000007" style="visibility: inherit;" fill="rgb(0, 0, 0)" stroke="rgb(204, 204, 204)" stroke-width="1px"></line><line x1="72.34375" y1="75.40000000000006" x2="67.34375" y2="75.40000000000006" style="visibility: inherit;" fill="rgb(0, 0, 0)" stroke="rgb(204, 204, 204)" stroke-width="1px"></line><line x1="72.34375" y1="37.70000000000003" x2="67.34375" y2="37.70000000000003" style="visibility: inherit;" fill="rgb(0, 0, 0)" stroke="rgb(204, 204, 204)" stroke-width="1px"></line><line x1="72.34375" y1="0" x2="67.34375" y2="0" style="visibility: inherit;" fill="rgb(0, 0, 0)" stroke="rgb(204, 204, 204)" stroke-width="1px"></line></g><g transform="translate(62.34375, 0)"><text x="0" y="377" dx="0em" dy="0.3em" style="text-anchor: end; visibility: hidden; font-family: Roboto, sans-serif; font-size: 12px; font-weight: 200;" fill="rgb(255, 255, 255)" stroke="none" stroke-width="1px">7.5e-3</text><text x="0" y="339.29999999999995" dx="0em" dy="0.3em" style="text-anchor: end; visibility: inherit; font-family: Roboto, sans-serif; font-size: 12px; font-weight: 200;" fill="rgb(255, 255, 255)" stroke="none" stroke-width="1px">8e-3</text><text x="0" y="301.5999999999999" dx="0em" dy="0.3em" style="text-anchor: end; visibility: inherit; font-family: Roboto, sans-serif; font-size: 12px; font-weight: 200;" fill="rgb(255, 255, 255)" stroke="none" stroke-width="1px">8.5e-3</text><text x="0" y="263.9000000000001" dx="0em" dy="0.3em" style="text-anchor: end; visibility: inherit; font-family: Roboto, sans-serif; font-size: 12px; font-weight: 200;" fill="rgb(255, 255, 255)" stroke="none" stroke-width="1px">9e-3</text><text x="0" y="226.20000000000005" dx="0em" dy="0.3em" style="text-anchor: end; visibility: inherit; font-family: Roboto, sans-serif; font-size: 12px; font-weight: 200;" fill="rgb(255, 255, 255)" stroke="none" stroke-width="1px">9.5e-3</text><text x="0" y="188.5" dx="0em" dy="0.3em" style="text-anchor: end; visibility: inherit; font-family: Roboto, sans-serif; font-size: 12px; font-weight: 200;" fill="rgb(255, 255, 255)" stroke="none" stroke-width="1px">0.01</text><text x="0" y="150.79999999999995" dx="0em" dy="0.3em" style="text-anchor: end; visibility: inherit; font-family: Roboto, sans-serif; font-size: 12px; font-weight: 200;" fill="rgb(255, 255, 255)" stroke="none" stroke-width="1px">0.0105</text><text x="0" y="113.10000000000007" dx="0em" dy="0.3em" style="text-anchor: end; visibility: inherit; font-family: Roboto, sans-serif; font-size: 12px; font-weight: 200;" fill="rgb(255, 255, 255)" stroke="none" stroke-width="1px">0.011</text><text x="0" y="75.40000000000006" dx="0em" dy="0.3em" style="text-anchor: end; visibility: inherit; font-family: Roboto, sans-serif; font-size: 12px; font-weight: 200;" fill="rgb(255, 255, 255)" stroke="none" stroke-width="1px">0.0115</text><text x="0" y="37.70000000000003" dx="0em" dy="0.3em" style="text-anchor: end; visibility: inherit; font-family: Roboto, sans-serif; font-size: 12px; font-weight: 200;" fill="rgb(255, 255, 255)" stroke="none" stroke-width="1px">0.012</text><text x="0" y="0" dx="0em" dy="0.3em" style="text-anchor: end; visibility: hidden; font-family: Roboto, sans-serif; font-size: 12px; font-weight: 200;" fill="rgb(255, 255, 255)" stroke="none" stroke-width="1px">0.0125</text></g><line x1="72.34375" y1="0" x2="72.34375" y2="377" fill="rgb(0, 0, 0)" stroke="rgb(204, 204, 204)" stroke-width="1px"></line></g></g><g transform="translate(72, 0)" clip-path="url(#clip_0)"><clipPath id="clip_0"><rect width="944" height="377"></rect></clipPath><g><g><g><line x1="0" y1="0" x2="0" y2="377" fill="rgb(0, 0, 0)" stroke="rgb(189, 189, 189)" stroke-width="1px" opacity="0.25"></line><line x1="94.465625" y1="0" x2="94.465625" y2="377" fill="rgb(0, 0, 0)" stroke="rgb(189, 189, 189)" stroke-width="1px" opacity="0.25"></line><line x1="188.93125" y1="0" x2="188.93125" y2="377" fill="rgb(0, 0, 0)" stroke="rgb(189, 189, 189)" stroke-width="1px" opacity="0.25"></line><line x1="283.39687499999997" y1="0" x2="283.39687499999997" y2="377" fill="rgb(0, 0, 0)" stroke="rgb(189, 189, 189)" stroke-width="1px" opacity="0.25"></line><line x1="377.8625" y1="0" x2="377.8625" y2="377" fill="rgb(0, 0, 0)" stroke="rgb(189, 189, 189)" stroke-width="1px" opacity="0.25"></line><line x1="472.328125" y1="0" x2="472.328125" y2="377" fill="rgb(0, 0, 0)" stroke="rgb(189, 189, 189)" stroke-width="1px" opacity="0.25"></line><line x1="566.7937499999999" y1="0" x2="566.7937499999999" y2="377" fill="rgb(0, 0, 0)" stroke="rgb(189, 189, 189)" stroke-width="1px" opacity="0.25"></line><line x1="661.259375" y1="0" x2="661.259375" y2="377" fill="rgb(0, 0, 0)" stroke="rgb(189, 189, 189)" stroke-width="1px" opacity="0.25"></line><line x1="755.725" y1="0" x2="755.725" y2="377" fill="rgb(0, 0, 0)" stroke="rgb(189, 189, 189)" stroke-width="1px" opacity="0.25"></line><line x1="850.1906250000001" y1="0" x2="850.1906250000001" y2="377" fill="rgb(0, 0, 0)" stroke="rgb(189, 189, 189)" stroke-width="1px" opacity="0.25"></line><line x1="944.65625" y1="0" x2="944.65625" y2="377" fill="rgb(0, 0, 0)" stroke="rgb(189, 189, 189)" stroke-width="1px" opacity="0.25"></line></g><g><line x1="0" y1="377" x2="944.65625" y2="377" fill="rgb(0, 0, 0)" stroke="rgb(189, 189, 189)" stroke-width="1px" opacity="0.25"></line><line x1="0" y1="339.29999999999995" x2="944.65625" y2="339.29999999999995" fill="rgb(0, 0, 0)" stroke="rgb(189, 189, 189)" stroke-width="1px" opacity="0.25"></line><line x1="0" y1="301.5999999999999" x2="944.65625" y2="301.5999999999999" fill="rgb(0, 0, 0)" stroke="rgb(189, 189, 189)" stroke-width="1px" opacity="0.25"></line><line x1="0" y1="263.9000000000001" x2="944.65625" y2="263.9000000000001" fill="rgb(0, 0, 0)" stroke="rgb(189, 189, 189)" stroke-width="1px" opacity="0.25"></line><line x1="0" y1="226.20000000000005" x2="944.65625" y2="226.20000000000005" fill="rgb(0, 0, 0)" stroke="rgb(189, 189, 189)" stroke-width="1px" opacity="0.25"></line><line x1="0" y1="188.5" x2="944.65625" y2="188.5" fill="rgb(0, 0, 0)" stroke="rgb(189, 189, 189)" stroke-width="1px" opacity="0.25"></line><line x1="0" y1="150.79999999999995" x2="944.65625" y2="150.79999999999995" fill="rgb(0, 0, 0)" stroke="rgb(189, 189, 189)" stroke-width="1px" opacity="0.25"></line><line x1="0" y1="113.10000000000007" x2="944.65625" y2="113.10000000000007" fill="rgb(0, 0, 0)" stroke="rgb(189, 189, 189)" stroke-width="1px" opacity="0.25"></line><line x1="0" y1="75.40000000000006" x2="944.65625" y2="75.40000000000006" fill="rgb(0, 0, 0)" stroke="rgb(189, 189, 189)" stroke-width="1px" opacity="0.25"></line><line x1="0" y1="37.70000000000003" x2="944.65625" y2="37.70000000000003" fill="rgb(0, 0, 0)" stroke="rgb(189, 189, 189)" stroke-width="1px" opacity="0.25"></line><line x1="0" y1="0" x2="944.65625" y2="0" fill="rgb(0, 0, 0)" stroke="rgb(189, 189, 189)" stroke-width="1px" opacity="0.25"></line></g></g></g><g><g><line x1="0" y1="942.4999999999999" x2="944.65625" y2="942.4999999999999" fill="rgb(0, 0, 0)" stroke="rgb(153, 153, 153)" stroke-width="1.5px"></line></g></g><g><g><line x1="94.465625" y1="0" x2="94.465625" y2="377" fill="rgb(0, 0, 0)" stroke="rgb(153, 153, 153)" stroke-width="1.5px"></line></g></g><g><g><g><g><g><path stroke="rgb(0, 119, 187)" stroke-width="2px" d="M99.18890625,242.15215120464563L103.9121875,161.1244032578543L108.63546875,108.0746643374465L113.35875,92.31343423851831L118.08203125,79.55256092468757L122.8053125,12.591928100332469L127.52859375000001,2.8913983047269673L132.251875,17.804586330955512L136.97515625,2.8365855786250638L141.69843749999998,51.069305038578044L146.42171875,62.189339912320314L151.145,42.53944824893605L155.86828125,51.786024166643564L160.5915625,92.91218229562571L165.31484375,57.8117224752717L170.03812499999998,78.48809851605972L174.76140625,75.61735802574782L179.4846875,50.47249717758294L184.20796875000002,47.832077215805306L188.93125,72.2707465991866L196.9135953125,76.82330515882431L201.6368765625,63.78591596866673L206.3601578125,72.99889864923337L211.08343906250002,100.39887365411543L215.80672031249998,123.12248592343326L220.5300015625,134.4822950113704L225.2532828125,169.7733583267328L229.9765640625,141.70684226169206L234.6998453125,146.804217728479L239.42312656250002,125.0570938685443L244.1464078125,125.19896368769551L248.86968906250002,96.21229029325004L253.59297031250003,120.25686394726777L258.31625156250004,106.97226120649685L263.0395328125,109.87061476396393L267.76281406249996,76.10164755434148L272.48609531249997,29.794468779983188L277.2093765625,22.575744735986845L281.9326578125,61.98154827659308L286.6559390625,66.03934935697916L294.638284375,81.85430165587127L299.361565625,95.33411394087422L304.08484687500004,82.37728148639378L308.808128125,81.7325687552778L313.53140937499995,81.7718184378956L318.25469062499997,91.3669260381017L322.977971875,80.98774106990327L327.701253125,125.16504516814601L332.424534375,118.16308243929535L337.147815625,109.02225606946209L341.871096875,122.35319318365401L346.594378125,126.46796053346007L351.317659375,141.4516519945883L356.040940625,148.6237703080268L360.76422187500003,139.64797319860443L365.48750312500005,155.1976969503891L370.210784375,152.50756667038917L374.93406562499996,107.2703221945768L379.657346875,95.90918400936073L384.380628125,85.46470648975773L392.3629734375,87.00378234345689L397.0862546875,88.50136065577853L401.8095359375,99.83154108581195L406.53281718750003,108.37974319134507L411.2560984375,123.1802460657021L415.9793796875,159.11930868664155L420.7026609375,128.8350152351784L425.42594218749997,142.26337146033802L430.1492234375,140.11812398594586L434.8725046875,142.10906593359687L439.5957859375,141.92655504260776L444.31906718749997,158.70916465231363L449.0423484375,154.24592369382722L453.7656296875,160.80839935591914L458.4889109375,167.82462976068916L463.2121921875,93.50948900992073L467.93547343750004,127.64712887116909L472.65875468749994,180.91202154522315L477.38203593749995,184.34939351537932L482.10531718749996,142.48928114389835L490.0876625,158.6017912156311L494.81094375000004,167.13010430496493L499.53422500000005,207.55687731600742L504.25750625000006,252.24577693996986L508.98078749999996,279.17911159311626L513.7040687499999,277.22581240424455L518.4273499999999,276.52934630446987L523.15063125,270.71562951644273L527.8739125,285.7103746583463L532.59719375,263.00896784367563L537.320475,288.2308199298525L542.04375625,274.27388057363896L546.7670375,280.92960921080635L551.49031875,294.62690190763317L556.2136,239.1464792566957L560.9368812499999,283.87498027845993L565.6601625,295.28088554301723L570.38344375,283.684429180973L575.106725,257.2876939787585L579.83000625,257.88344586575744L587.8123515625,277.30696530452195L592.5356328125,296.5338155705382L597.2589140625,312.0273972796588L601.9821953125,323.6780806480162L606.7054765624999,316.01686879088356L611.4287578125,315.32039656692666L616.1520390625,324.32902103337005L620.8753203125,307.4819993416807L625.5986015625,314.38120653869754L630.3218828125,320.94368924583216L635.0451640625,307.59978158703575L639.7684453125,298.0179705228277L644.4917265625,272.1956675503175L649.2150078125001,300.7808258982612L653.9382890625001,264.3523536832401L658.6615703125001,276.1410815841716L663.3848515625,289.63053325276155L668.1081328125,287.94200938618525L672.8314140625,293.5875434677382L677.5546953125,284.2183858752597L685.537040625,296.43520303668663L690.260321875,271.7793550825243L694.9836031250001,315.638427361019L699.7068843750001,324.5012447978065L704.430165625,337.36566373676095L709.153446875,322.4517136154773L713.876728125,308.83494727839246L718.600009375,289.53367714899304L723.323290625,323.4804663945289L728.046571875,336.37242642873827L732.7698531249999,340.0203892459529L737.493134375,338.53297551691867L742.216415625,289.6741474581977L746.939696875,316.149292590512L751.662978125,308.45584945517373L756.386259375,325.71488929770936L761.109540625,324.0461353688392L765.8328218749999,339.96576197319945L770.5561031249999,321.18444940372535L775.279384375,347.2809210921778L783.2617296875001,322.24396787616337L787.9850109375,326.65905627627814L792.7082921875,313.32713406097673L797.4315734375,341.37849270291196L802.1548546875,328.66037237040433L806.8781359375,332.69181142683163L811.6014171874999,330.6941779579838L816.3246984374999,337.00013714290384L821.0479796875,333.28866736445855L825.7712609375,315.40613343628667L830.4945421875,318.3612818438555L835.2178234375,342.39212882034457L839.9411046875,316.4631174147873L844.6643859375,321.0930512482375L849.3876671875,334.8641238367229L854.1109484375,321.83378569815574L858.8342296875,338.78014387210607L863.5575109375001,333.6722343207622L868.2807921875,337.20903268702176L873.0040734375,338.13840980081164" style="fill: none;" fill="none"></path></g></g></g></g><g opacity="0.2"><g><g><g><path stroke="rgb(0, 119, 187)" stroke-width="2px" d="M99.18890625,242.15215120464563L103.9121875,112.50775448977951L108.63546875,57.14691497385506L113.35875,73.77822764217858L118.08203125,62.89196472615008L122.8053125,-80.03873292356721L127.52859375000001,-10.980514511465943L132.251875,39.548157639801545L136.97515625,-19.23830814659587L141.69843749999998,122.68927220255141L146.42171875,78.76853432506327L151.145,13.171544596552891L155.86828125,65.62569636851553L160.5915625,154.52084906399253L165.31484375,5.202292017638725L170.03812499999998,109.48807999491696L174.76140625,71.31246209144597L179.4846875,12.761590182781262L184.20796875000002,43.87184951454405L188.93125,108.92651688307528L196.9135953125,83.65189332515006L201.6368765625,44.23026118427519L206.3601578125,86.81819077581171L211.08343906250002,141.49851158261302L215.80672031249998,157.20774281769994L220.5300015625,151.52196019887927L225.2532828125,222.70986299961805L229.9765640625,99.60711125284438L234.6998453125,154.4502762332559L239.42312656250002,92.43642009794716L244.1464078125,125.4117683693767L248.86968906250002,52.732285968959374L253.59297031250003,156.32372155785563L258.31625156250004,87.04535804688935L263.0395328125,114.21814497560267L267.76281406249996,25.44819761067633L272.48609531249997,-39.66629866510621L277.2093765625,11.747658737003846L281.9326578125,121.0902533680201L286.6559390625,72.12605096399788L294.638284375,105.57673007249836L299.361565625,115.55383235216145L304.08484687500004,62.94203281402592L308.808128125,80.76549965888266L313.53140937499995,81.83069296181206L318.25469062499997,105.75958743691449L322.977971875,65.41896361857657L327.701253125,191.43100131303072L332.424534375,107.66013834625487L337.147815625,95.31101651489739L341.871096875,142.34959885478023L346.594378125,132.64011155813935L351.317659375,163.9271891862154L356.040940625,159.38194777816537L360.76422187500003,126.1842775344849L365.48750312500005,178.5222825780511L370.210784375,148.47237125039103L374.93406562499996,39.41445548087363L379.657346875,78.86747673153882L384.380628125,69.79799021035437L392.3629734375,89.31239612400536L397.0862546875,90.74772812426095L401.8095359375,116.8268117308617L406.53281718750003,121.2020463496447L411.2560984375,145.38100037723783L415.9793796875,213.02790261805058L420.7026609375,83.40857505798344L425.42594218749997,162.40590579807758L430.1492234375,136.90025277435782L434.8725046875,145.09547885507348L439.5957859375,141.65278870612386L444.31906718749997,183.8830790668726L449.0423484375,147.55106225609782L453.7656296875,170.65211284905672L458.4889109375,178.3489753678441L463.2121921875,-17.963222116231833L467.93547343750004,178.8535886630416L472.65875468749994,260.80936055630445L477.38203593749995,189.50545147061348L482.10531718749996,79.69911258667712L490.0876625,182.77055632323027L494.81094375000004,179.9225739389658L499.53422500000005,268.19703683257103L504.25750625000006,319.2791263759136L508.98078749999996,319.5791135728359L513.7040687499999,274.29586362093687L518.4273499999999,275.48464715480804L523.15063125,261.9950543344021L527.8739125,308.2024923712015L532.59719375,228.95685762166977L537.320475,326.0635980591178L542.04375625,253.33847153931856L546.7670375,290.9132021665573L551.49031875,315.17284095287323L556.2136,155.92584528028968L560.9368812499999,350.9677318111062L565.6601625,312.3897434398532L570.38344375,266.28974463790655L575.106725,217.69259117543697L579.83000625,258.7770736962557L587.8123515625,306.4422444626689L592.5356328125,325.37409096956253L597.2589140625,335.2677698433399L601.9821953125,341.15410570055246L606.7054765624999,304.52505100518465L611.4287578125,314.27568823099136L616.1520390625,337.8419577330351L620.8753203125,282.21146680414677L625.5986015625,324.7300173342228L630.3218828125,330.7874133065343L635.0451640625,287.5839200988412L639.7684453125,283.6452539265156L644.4917265625,233.46221309155226L649.2150078125001,343.6585634201765L653.9382890625001,209.70964536070824L658.6615703125001,293.8241734355688L663.3848515625,309.86471075564623L668.1081328125,285.4092235863209L672.8314140625,302.05584459006786L677.5546953125,270.16464948654175L685.537040625,314.7604287788272L690.260321875,234.79558315128088L694.9836031250001,381.4270357787609L699.7068843750001,337.79547095298767L704.430165625,356.6622921451926L709.153446875,300.0807884335518L713.876728125,288.40979777276516L718.600009375,260.58177195489407L723.323290625,374.40065026283264L728.046571875,355.71036648005247L732.7698531249999,345.49233347177505L737.493134375,336.3018549233675L742.216415625,216.38590537011623L746.939696875,355.8620102889836L751.662978125,296.91568475216627L756.386259375,351.60344906151295L761.109540625,321.54300447553396L765.8328218749999,363.84520187973976L770.5561031249999,293.0124805495143L775.279384375,386.4256286248565L783.2617296875001,284.68853805214167L787.9850109375,333.28168887645006L792.7082921875,293.3292507380247L797.4315734375,383.4555306658149L802.1548546875,309.58319187164307L806.8781359375,338.7389700114727L811.6014171874999,327.6977277547121L816.3246984374999,346.4590759202838L821.0479796875,327.7214626967907L825.7712609375,288.58233254402876L830.4945421875,322.7940044552088L835.2178234375,378.43839928507805L839.9411046875,277.5696003064513L844.6643859375,328.0379519984126L849.3876671875,355.5207327194512L854.1109484375,302.28827849030495L858.8342296875,364.19968113303185L863.5575109375001,326.0103699937463L868.2807921875,342.5142302364111L873.0040734375,339.5324754714966" style="fill: none;" fill="none"></path></g></g></g></g></g><g><g opacity="0.981033"><span fill="rgb(0, 0, 0)" stroke="none" stroke-width="1px">Alt + Scroll to Zoom</span></g></g></g><g transform="translate(72, 377)" clip-path="url(#clip_1)"><clipPath id="clip_1"><rect width="944" height="23"></rect></clipPath><g><g><line x1="0" y1="0" x2="0" y2="5" style="visibility: inherit;" fill="rgb(0, 0, 0)" stroke="rgb(204, 204, 204)" stroke-width="1px"></line><line x1="94.465625" y1="0" x2="94.465625" y2="5" style="visibility: inherit;" fill="rgb(0, 0, 0)" stroke="rgb(204, 204, 204)" stroke-width="1px"></line><line x1="188.93125" y1="0" x2="188.93125" y2="5" style="visibility: inherit;" fill="rgb(0, 0, 0)" stroke="rgb(204, 204, 204)" stroke-width="1px"></line><line x1="283.39687499999997" y1="0" x2="283.39687499999997" y2="5" style="visibility: inherit;" fill="rgb(0, 0, 0)" stroke="rgb(204, 204, 204)" stroke-width="1px"></line><line x1="377.8625" y1="0" x2="377.8625" y2="5" style="visibility: inherit;" fill="rgb(0, 0, 0)" stroke="rgb(204, 204, 204)" stroke-width="1px"></line><line x1="472.328125" y1="0" x2="472.328125" y2="5" style="visibility: inherit;" fill="rgb(0, 0, 0)" stroke="rgb(204, 204, 204)" stroke-width="1px"></line><line x1="566.7937499999999" y1="0" x2="566.7937499999999" y2="5" style="visibility: inherit;" fill="rgb(0, 0, 0)" stroke="rgb(204, 204, 204)" stroke-width="1px"></line><line x1="661.259375" y1="0" x2="661.259375" y2="5" style="visibility: inherit;" fill="rgb(0, 0, 0)" stroke="rgb(204, 204, 204)" stroke-width="1px"></line><line x1="755.725" y1="0" x2="755.725" y2="5" style="visibility: inherit;" fill="rgb(0, 0, 0)" stroke="rgb(204, 204, 204)" stroke-width="1px"></line><line x1="850.1906250000001" y1="0" x2="850.1906250000001" y2="5" style="visibility: inherit;" fill="rgb(0, 0, 0)" stroke="rgb(204, 204, 204)" stroke-width="1px"></line><line x1="944.65625" y1="0" x2="944.65625" y2="5" style="visibility: inherit;" fill="rgb(0, 0, 0)" stroke="rgb(204, 204, 204)" stroke-width="1px"></line></g><g transform="translate(0, 8)"><text x="0" y="0" dx="0em" dy="0.95em" style="text-anchor: middle; visibility: hidden; font-family: Roboto, sans-serif; font-size: 12px; font-weight: 200;" fill="rgb(255, 255, 255)" stroke="none" stroke-width="1px">-2k</text><text x="94.465625" y="0" dx="0em" dy="0.95em" style="text-anchor: middle; visibility: inherit; font-family: Roboto, sans-serif; font-size: 12px; font-weight: 200;" fill="rgb(255, 255, 255)" stroke="none" stroke-width="1px">0</text><text x="188.93125" y="0" dx="0em" dy="0.95em" style="text-anchor: middle; visibility: inherit; font-family: Roboto, sans-serif; font-size: 12px; font-weight: 200;" fill="rgb(255, 255, 255)" stroke="none" stroke-width="1px">2k</text><text x="283.39687499999997" y="0" dx="0em" dy="0.95em" style="text-anchor: middle; visibility: inherit; font-family: Roboto, sans-serif; font-size: 12px; font-weight: 200;" fill="rgb(255, 255, 255)" stroke="none" stroke-width="1px">4k</text><text x="377.8625" y="0" dx="0em" dy="0.95em" style="text-anchor: middle; visibility: inherit; font-family: Roboto, sans-serif; font-size: 12px; font-weight: 200;" fill="rgb(255, 255, 255)" stroke="none" stroke-width="1px">6k</text><text x="472.328125" y="0" dx="0em" dy="0.95em" style="text-anchor: middle; visibility: inherit; font-family: Roboto, sans-serif; font-size: 12px; font-weight: 200;" fill="rgb(255, 255, 255)" stroke="none" stroke-width="1px">8k</text><text x="566.7937499999999" y="0" dx="0em" dy="0.95em" style="text-anchor: middle; visibility: inherit; font-family: Roboto, sans-serif; font-size: 12px; font-weight: 200;" fill="rgb(255, 255, 255)" stroke="none" stroke-width="1px">10k</text><text x="661.259375" y="0" dx="0em" dy="0.95em" style="text-anchor: middle; visibility: inherit; font-family: Roboto, sans-serif; font-size: 12px; font-weight: 200;" fill="rgb(255, 255, 255)" stroke="none" stroke-width="1px">12k</text><text x="755.725" y="0" dx="0em" dy="0.95em" style="text-anchor: middle; visibility: inherit; font-family: Roboto, sans-serif; font-size: 12px; font-weight: 200;" fill="rgb(255, 255, 255)" stroke="none" stroke-width="1px">14k</text><text x="850.1906250000001" y="0" dx="0em" dy="0.95em" style="text-anchor: middle; visibility: inherit; font-family: Roboto, sans-serif; font-size: 12px; font-weight: 200;" fill="rgb(255, 255, 255)" stroke="none" stroke-width="1px">16k</text><text x="944.65625" y="0" dx="0em" dy="0.95em" style="text-anchor: middle; visibility: hidden; font-family: Roboto, sans-serif; font-size: 12px; font-weight: 200;" fill="rgb(255, 255, 255)" stroke="none" stroke-width="1px">18k</text></g><line x1="0" y1="0" x2="944.65625" y2="0" fill="rgb(0, 0, 0)" stroke="rgb(204, 204, 204)" stroke-width="1px"></line></g></g></g></g></svg>