<svg viewBox="0 0 1017 400" xmlns="http://www.w3.org/2000/svg"><g><g><g><g><g><line x1="61.953125" y1="377" x2="56.953125" y2="377" style="visibility: inherit;" fill="rgb(0, 0, 0)" stroke="rgb(204, 204, 204)" stroke-width="1px"></line><line x1="61.953125" y1="335.1111111111111" x2="56.953125" y2="335.1111111111111" style="visibility: inherit;" fill="rgb(0, 0, 0)" stroke="rgb(204, 204, 204)" stroke-width="1px"></line><line x1="61.953125" y1="293.22222222222223" x2="56.953125" y2="293.22222222222223" style="visibility: inherit;" fill="rgb(0, 0, 0)" stroke="rgb(204, 204, 204)" stroke-width="1px"></line><line x1="61.953125" y1="251.33333333333331" x2="56.953125" y2="251.33333333333331" style="visibility: inherit;" fill="rgb(0, 0, 0)" stroke="rgb(204, 204, 204)" stroke-width="1px"></line><line x1="61.953125" y1="209.44444444444446" x2="56.953125" y2="209.44444444444446" style="visibility: inherit;" fill="rgb(0, 0, 0)" stroke="rgb(204, 204, 204)" stroke-width="1px"></line><line x1="61.953125" y1="167.55555555555554" x2="56.953125" y2="167.55555555555554" style="visibility: inherit;" fill="rgb(0, 0, 0)" stroke="rgb(204, 204, 204)" stroke-width="1px"></line><line x1="61.953125" y1="125.66666666666664" x2="56.953125" y2="125.66666666666664" style="visibility: inherit;" fill="rgb(0, 0, 0)" stroke="rgb(204, 204, 204)" stroke-width="1px"></line><line x1="61.953125" y1="83.77777777777777" x2="56.953125" y2="83.77777777777777" style="visibility: inherit;" fill="rgb(0, 0, 0)" stroke="rgb(204, 204, 204)" stroke-width="1px"></line><line x1="61.953125" y1="41.888888888888864" x2="56.953125" y2="41.888888888888864" style="visibility: inherit;" fill="rgb(0, 0, 0)" stroke="rgb(204, 204, 204)" stroke-width="1px"></line><line x1="61.953125" y1="0" x2="56.953125" y2="0" style="visibility: inherit;" fill="rgb(0, 0, 0)" stroke="rgb(204, 204, 204)" stroke-width="1px"></line></g><g transform="translate(51.953125, 0)"><text x="0" y="377" dx="0em" dy="0.3em" style="text-anchor: end; visibility: hidden; font-family: Roboto, sans-serif; font-size: 12px; font-weight: 200;" fill="rgb(255, 255, 255)" stroke="none" stroke-width="1px">2e-3</text><text x="0" y="335.1111111111111" dx="0em" dy="0.3em" style="text-anchor: end; visibility: inherit; font-family: Roboto, sans-serif; font-size: 12px; font-weight: 200;" fill="rgb(255, 255, 255)" stroke="none" stroke-width="1px">3e-3</text><text x="0" y="293.22222222222223" dx="0em" dy="0.3em" style="text-anchor: end; visibility: inherit; font-family: Roboto, sans-serif; font-size: 12px; font-weight: 200;" fill="rgb(255, 255, 255)" stroke="none" stroke-width="1px">4e-3</text><text x="0" y="251.33333333333331" dx="0em" dy="0.3em" style="text-anchor: end; visibility: inherit; font-family: Roboto, sans-serif; font-size: 12px; font-weight: 200;" fill="rgb(255, 255, 255)" stroke="none" stroke-width="1px">5e-3</text><text x="0" y="209.44444444444446" dx="0em" dy="0.3em" style="text-anchor: end; visibility: inherit; font-family: Roboto, sans-serif; font-size: 12px; font-weight: 200;" fill="rgb(255, 255, 255)" stroke="none" stroke-width="1px">6e-3</text><text x="0" y="167.55555555555554" dx="0em" dy="0.3em" style="text-anchor: end; visibility: inherit; font-family: Roboto, sans-serif; font-size: 12px; font-weight: 200;" fill="rgb(255, 255, 255)" stroke="none" stroke-width="1px">7e-3</text><text x="0" y="125.66666666666664" dx="0em" dy="0.3em" style="text-anchor: end; visibility: inherit; font-family: Roboto, sans-serif; font-size: 12px; font-weight: 200;" fill="rgb(255, 255, 255)" stroke="none" stroke-width="1px">8e-3</text><text x="0" y="83.77777777777777" dx="0em" dy="0.3em" style="text-anchor: end; visibility: inherit; font-family: Roboto, sans-serif; font-size: 12px; font-weight: 200;" fill="rgb(255, 255, 255)" stroke="none" stroke-width="1px">9e-3</text><text x="0" y="41.888888888888864" dx="0em" dy="0.3em" style="text-anchor: end; visibility: inherit; font-family: Roboto, sans-serif; font-size: 12px; font-weight: 200;" fill="rgb(255, 255, 255)" stroke="none" stroke-width="1px">0.01</text><text x="0" y="0" dx="0em" dy="0.3em" style="text-anchor: end; visibility: hidden; font-family: Roboto, sans-serif; font-size: 12px; font-weight: 200;" fill="rgb(255, 255, 255)" stroke="none" stroke-width="1px">0.011</text></g><line x1="61.953125" y1="0" x2="61.953125" y2="377" fill="rgb(0, 0, 0)" stroke="rgb(204, 204, 204)" stroke-width="1px"></line></g></g><g transform="translate(61, 0)" clip-path="url(#clip_0)"><clipPath id="clip_0"><rect width="955" height="377"></rect></clipPath><g><g><g><line x1="0" y1="0" x2="0" y2="377" fill="rgb(0, 0, 0)" stroke="rgb(189, 189, 189)" stroke-width="1px" opacity="0.25"></line><line x1="95.5046875" y1="0" x2="95.5046875" y2="377" fill="rgb(0, 0, 0)" stroke="rgb(189, 189, 189)" stroke-width="1px" opacity="0.25"></line><line x1="191.009375" y1="0" x2="191.009375" y2="377" fill="rgb(0, 0, 0)" stroke="rgb(189, 189, 189)" stroke-width="1px" opacity="0.25"></line><line x1="286.51406249999997" y1="0" x2="286.51406249999997" y2="377" fill="rgb(0, 0, 0)" stroke="rgb(189, 189, 189)" stroke-width="1px" opacity="0.25"></line><line x1="382.01875" y1="0" x2="382.01875" y2="377" fill="rgb(0, 0, 0)" stroke="rgb(189, 189, 189)" stroke-width="1px" opacity="0.25"></line><line x1="477.5234375" y1="0" x2="477.5234375" y2="377" fill="rgb(0, 0, 0)" stroke="rgb(189, 189, 189)" stroke-width="1px" opacity="0.25"></line><line x1="573.0281249999999" y1="0" x2="573.0281249999999" y2="377" fill="rgb(0, 0, 0)" stroke="rgb(189, 189, 189)" stroke-width="1px" opacity="0.25"></line><line x1="668.5328125" y1="0" x2="668.5328125" y2="377" fill="rgb(0, 0, 0)" stroke="rgb(189, 189, 189)" stroke-width="1px" opacity="0.25"></line><line x1="764.0375" y1="0" x2="764.0375" y2="377" fill="rgb(0, 0, 0)" stroke="rgb(189, 189, 189)" stroke-width="1px" opacity="0.25"></line><line x1="859.5421875000001" y1="0" x2="859.5421875000001" y2="377" fill="rgb(0, 0, 0)" stroke="rgb(189, 189, 189)" stroke-width="1px" opacity="0.25"></line><line x1="955.046875" y1="0" x2="955.046875" y2="377" fill="rgb(0, 0, 0)" stroke="rgb(189, 189, 189)" stroke-width="1px" opacity="0.25"></line></g><g><line x1="0" y1="377" x2="955.046875" y2="377" fill="rgb(0, 0, 0)" stroke="rgb(189, 189, 189)" stroke-width="1px" opacity="0.25"></line><line x1="0" y1="335.1111111111111" x2="955.046875" y2="335.1111111111111" fill="rgb(0, 0, 0)" stroke="rgb(189, 189, 189)" stroke-width="1px" opacity="0.25"></line><line x1="0" y1="293.22222222222223" x2="955.046875" y2="293.22222222222223" fill="rgb(0, 0, 0)" stroke="rgb(189, 189, 189)" stroke-width="1px" opacity="0.25"></line><line x1="0" y1="251.33333333333331" x2="955.046875" y2="251.33333333333331" fill="rgb(0, 0, 0)" stroke="rgb(189, 189, 189)" stroke-width="1px" opacity="0.25"></line><line x1="0" y1="209.44444444444446" x2="955.046875" y2="209.44444444444446" fill="rgb(0, 0, 0)" stroke="rgb(189, 189, 189)" stroke-width="1px" opacity="0.25"></line><line x1="0" y1="167.55555555555554" x2="955.046875" y2="167.55555555555554" fill="rgb(0, 0, 0)" stroke="rgb(189, 189, 189)" stroke-width="1px" opacity="0.25"></line><line x1="0" y1="125.66666666666664" x2="955.046875" y2="125.66666666666664" fill="rgb(0, 0, 0)" stroke="rgb(189, 189, 189)" stroke-width="1px" opacity="0.25"></line><line x1="0" y1="83.77777777777777" x2="955.046875" y2="83.77777777777777" fill="rgb(0, 0, 0)" stroke="rgb(189, 189, 189)" stroke-width="1px" opacity="0.25"></line><line x1="0" y1="41.888888888888864" x2="955.046875" y2="41.888888888888864" fill="rgb(0, 0, 0)" stroke="rgb(189, 189, 189)" stroke-width="1px" opacity="0.25"></line><line x1="0" y1="0" x2="955.046875" y2="0" fill="rgb(0, 0, 0)" stroke="rgb(189, 189, 189)" stroke-width="1px" opacity="0.25"></line></g></g></g><g><g><line x1="0" y1="460.7777777777778" x2="955.046875" y2="460.7777777777778" fill="rgb(0, 0, 0)" stroke="rgb(153, 153, 153)" stroke-width="1.5px"></line></g></g><g><g><line x1="95.5046875" y1="0" x2="95.5046875" y2="377" fill="rgb(0, 0, 0)" stroke="rgb(153, 153, 153)" stroke-width="1.5px"></line></g></g><g><g><g><g><g><path stroke="rgb(0, 119, 187)" stroke-width="2px" d="M100.279921875,77.3411149084568L105.05515625,37.152613772182896L109.830390625,36.6401947394284L114.60562499999999,76.11622131693494L119.380859375,56.473855182160804L124.15609375000001,17.951000211505086L128.93132812500002,17.90627933877073L133.70656250000002,1.9517505885811044L138.481796875,-2.43744902471901L143.25703124999998,20.491833763006625L148.032265625,-14.569598666213022L152.8075,-13.010325876329262L157.582734375,7.036615489941635L162.35796875,38.214865745669975L167.133203125,40.93542368056118L171.9084375,64.82329866507914L176.683671875,66.2624221698539L181.45890625,50.178175597659774L186.234140625,40.88904179560874L191.009375,61.74786264692077L199.07952109375,100.60289009474424L203.85475546875,95.3704560740539L208.62998984375,83.97160478898334L213.40522421875002,96.8034529967101L218.18045859375,101.49270220671616L222.95569296875,101.33854332242011L227.73092734374998,113.57359333027577L232.50616171875,96.15713613547955L237.28139609375,91.07598658035957L242.05663046875,86.87686311997676L246.83186484375003,90.18217302705679L251.60709921875002,72.61932803925846L256.38233359375005,92.16292381504225L261.15756796875,96.74339605909658L265.93280234375,109.49306288416061L270.70803671875,82.44914965715995L275.48327109375,42.13214763716748L280.25850546875,49.93738205247774L285.03373984374997,54.068548736320814L289.80897421875,103.05036710433048L297.8791203125,113.98907509567627L302.6543546875,115.50476249602234L307.42958906250004,128.64745433638566L312.2048234375,145.25936680001422L316.9800578125,151.83102092672922L321.7552921875,148.74780734146668L326.5305265625,146.1534197020787L331.3057609375,154.93033485991472L336.08099531249997,138.0076681485443L340.8562296875,132.89594095607444L345.6314640625,157.12641315037416L350.4066984375,152.8022368238043L355.1819328125,154.51454628206943L359.95716718750003,159.26958185436754L364.7324015625,134.68394122421645L369.5076359375,156.4828071644647L374.28287031250005,161.64932461186828L379.05810468749996,143.94835941489376L383.8333390625,105.76498972572075L388.6085734375,99.46658728869377L396.67871953125,130.08976047944097L401.45395390625,151.316562298702L406.22918828125,139.20664542177647L411.00442265625003,164.3799397306867L415.77965703125,189.46057385812242L420.55489140625,192.32905124872283L425.33012578125005,175.98929801019975L430.10536015624996,176.83073144001864L434.88059453125,181.88239338867393L439.65582890625,181.7961468813172L444.43106328125,163.46460017201744L449.20629765625,174.95204079597326L453.98153203124997,171.62676865378495L458.75676640625,157.94316851094388L463.53200078125,137.88125924928664L468.30723515625,150.44549039054124L473.08246953125,162.457979830559L477.85770390625,187.96189144035864L482.63293828124995,179.37924030987833L487.40817265625,173.35546721525705L495.47831875,207.73811478155815L500.25355312500005,210.07610726713582L505.0287875,229.24147176542877L509.80402187500005,250.7516084044781L514.57925625,268.56071927260336L519.3544906249999,277.0151168429181L524.129725,279.37494981593505L528.904959375,274.758553991887L533.68019375,277.3015515500676L538.455428125,283.36232351676847L543.2306625,283.2078904350572L548.005896875,293.69623187356365L552.7811312499999,299.4503708458997L557.556365625,298.51143740477505L562.3316,291.6138361295138L567.106834375,294.01142353208974L571.88206875,293.8437750174132L576.657303125,283.8740612303332L581.4325375,280.6275875024732L586.207771875,280.8448184144141L594.27791796875,300.2419727866337L599.05315234375,304.7137602499483L603.8283867187499,318.05997002311693L608.60362109375,324.6105873504899L613.37885546875,321.149657249544L618.15408984375,313.45444463530157L622.92932421875,303.3877135066858L627.70455859375,307.3137327927718L632.47979296875,318.3903087750761L637.25502734375,319.0764236726277L642.03026171875,312.9593840447646L646.80549609375,300.9531591405023L651.5807304687501,301.20523114950083L656.35596484375,314.3464747332405L661.13119921875,301.2000140682912L665.9064335937501,319.815930053754L670.68166796875,327.86503307771153L675.45690234375,324.1633280927196L680.2321367187501,312.90309584639664L685.0073710937501,307.6143681222497L693.0775171875,315.04461152878855L697.8527515625,307.8280802715136L702.6279859375001,313.62277622775787L707.4032203125,319.28949721807174L712.1784546875,322.0388826434879L716.9536890625001,324.4187573895396L721.7289234375,322.0154318924571L726.5041578125,320.815416747447L731.2793921875001,324.40533217643997L736.0546265625001,332.086284936516L740.8298609374999,331.4589845474022L745.6050953125,332.0799244212218L750.3803296875,327.29138292838445L755.1555640624999,319.06721065961574L759.9307984375,315.77926233755835L764.7060328125,314.33030447810927L769.4812671875,311.70819167696794L774.2565015624999,325.559823577275L779.0317359375,314.79359724576483L783.8069703125,311.47058775009174L791.87711640625,308.7297984835725L796.65235078125,319.0970508862369L801.42758515625,322.6287296238342L806.2028195312499,330.5138882461866L810.97805390625,322.41515098701325L815.75328828125,331.50484124237545L820.52852265625,323.365828841248L825.30375703125,316.7691245156937L830.07899140625,323.02407506343866L834.85422578125,320.0441047493016L839.6294601562499,320.66640514865884L844.40469453125,333.93436614986484L849.17992890625,336.0163869381587L853.95516328125,338.2212000130664L858.73039765625,334.96734810638065L863.50563203125,339.8427184119216L868.28086640625,335.4651350725825L873.05610078125,325.69576023414544L877.83133515625,321.56121517953164L882.60656953125,326.3828840427147" style="fill: none;" fill="none"></path></g></g></g></g><g opacity="0.2"><g><g><g><path stroke="rgb(0, 119, 187)" stroke-width="2px" d="M100.279921875,77.3411149084568L105.05515625,13.039513090418398L109.830390625,36.14827246798406L114.60562499999999,122.54002857208252L119.380859375,30.828781956599812L124.15609375000001,-35.33997644070121L128.93132812500002,17.842327775226693L133.70656250000002,-21.310105492671358L138.481796875,-8.910665896203792L143.25703124999998,54.5391464324461L148.032265625,-66.84374269843102L152.8075,-10.67990218516854L157.582734375,37.04157079756256L162.35796875,84.92115969128076L167.133203125,45.01306266917119L171.9084375,100.63826356165937L176.683671875,68.42049843817945L181.45890625,26.055889527830804L186.234140625,26.95675619857178L191.009375,93.03418734504113L199.07952109375,158.88330036443136L203.85475546875,87.52197721848883L208.62998984375,66.87355291181139L213.40522421875002,116.05107330282527L218.18045859375,108.52654269254867L222.95569296875,101.10730565339327L227.73092734374998,131.9261370359195L232.50616171875,70.03247708164982L237.28139609375,83.45426692813635L242.05663046875,80.57818025019431L246.83186484375003,95.14013679160009L251.60709921875002,46.27506405197909L256.38233359375005,121.47831514560512L261.15756796875,103.61410409708816L265.93280234375,128.617562573817L270.70803671875,41.883280514015055L275.48327109375,-18.343354769051075L280.25850546875,61.64523360298739L285.03373984374997,60.26529873907562L289.80897421875,176.52309449265397L297.8791203125,130.39713706076145L302.6543546875,117.77829359471798L307.42958906250004,148.36149208744365L312.2048234375,170.1772354882624L316.9800578125,161.68850211509397L321.7552921875,144.12298696405355L326.5305265625,142.26183824323942L331.3057609375,168.09570759617617L336.08099531249997,112.62366808205843L340.8562296875,125.22835016747314L345.6314640625,193.47212144152985L350.4066984375,146.31597233398094L355.1819328125,157.0830104694598L359.95716718750003,166.4021352128022L364.7324015625,97.80548027902842L369.5076359375,189.18110607481663L374.28287031250005,169.39910078297055L379.05810468749996,117.39691161943803L383.8333390625,48.489935191969046L388.6085734375,90.01898363315395L396.67871953125,176.02452026555932L401.45395390625,183.15676502759254L406.22918828125,121.04177010638843L411.00442265625003,202.13988119405178L415.77965703125,227.0815250492758L420.55489140625,196.63176733462342L425.33012578125005,151.47966815241506L430.10536015624996,178.09288158474698L434.88059453125,189.45988631165687L439.65582890625,181.66677712028223L444.43106328125,135.9672801080677L449.20629765625,192.183201731907L453.98153203124997,166.63886044050253L458.75676640625,137.41776829668214L463.53200078125,107.78839535680079L468.30723515625,169.29183710242307L473.08246953125,180.47671399058567L477.85770390625,226.21775885505804L482.63293828124995,166.5052636141578L487.40817265625,164.31980757332508L495.47831875,259.3120861310098L500.25355312500005,213.58309599550233L505.0287875,257.98951851286824L509.80402187500005,283.01681336305205L514.57925625,295.27438557479115L519.3544906249999,289.6967131983903L524.129725,282.9146992754605L528.904959375,267.8339602558149L533.68019375,281.11604788733854L538.455428125,292.4534814668198L543.2306625,282.97624081249035L548.005896875,309.42874403132333L552.7811312499999,308.0815793044037L557.556365625,297.10303724308807L562.3316,281.26743421662184L567.106834375,297.6078046359536L571.88206875,293.59230224539834L576.657303125,268.9194905497134L581.4325375,275.7578769106832L586.207771875,281.1706647823254L594.27791796875,329.337704344963L599.05315234375,311.42144144492016L603.8283867187499,338.0792846828699L608.60362109375,334.43651334154936L613.37885546875,315.95826209812526L618.15408984375,301.91162571393784L622.92932421875,288.2876168137623L627.70455859375,313.20276172190074L632.47979296875,335.0051727485326L637.25502734375,320.1055960189551L642.03026171875,303.78382460296984L646.80549609375,282.9438217841089L651.5807304687501,301.58333916299875L656.35596484375,334.05834010884996L661.13119921875,281.4803230708672L665.9064335937501,347.73980403194827L670.68166796875,339.93868761364786L675.45690234375,318.6107706152317L680.2321367187501,296.0127474769122L685.0073710937501,299.68127653602926L693.0775171875,326.18997663859693L697.8527515625,297.0032833856013L702.6279859375001,322.3148201621241L707.4032203125,327.78957870354253L712.1784546875,326.16296078161236L716.9536890625001,327.9885695086171L721.7289234375,318.4104436468333L726.5041578125,319.0153940299319L731.2793921875001,329.79020531992944L736.0546265625001,343.6077140766299L740.8298609374999,330.51803396373157L745.6050953125,333.0113342319512L750.3803296875,320.1085706891285L755.1555640624999,306.7309522564626L759.9307984375,310.84733985447224L764.7060328125,312.1568676889357L769.4812671875,307.77502247525587L774.2565015624999,346.3372714277357L779.0317359375,298.6442577484995L783.8069703125,306.4860735065821L791.87711640625,304.6186145837936L796.65235078125,334.6479294902335L801.42758515625,327.9262477302303L806.2028195312499,342.341626179715L810.97805390625,310.26704509825345L815.75328828125,345.13937662541866L820.52852265625,311.15731023955675L825.30375703125,306.8740680273622L830.07899140625,332.4065008850561L834.85422578125,315.574149278096L839.6294601562499,321.59985574769473L844.40469453125,353.83630765167374L849.17992890625,339.13941812059943L853.95516328125,341.528419625428L858.73039765625,330.0865702463521L863.50563203125,347.155773870233L868.28086640625,328.8987600635737L873.05610078125,311.04169797648984L877.83133515625,315.35939759761095L882.60656953125,333.61538733748927" style="fill: none;" fill="none"></path></g></g></g></g></g></g><g transform="translate(61, 377)" clip-path="url(#clip_1)"><clipPath id="clip_1"><rect width="955" height="23"></rect></clipPath><g><g><line x1="0" y1="0" x2="0" y2="5" style="visibility: inherit;" fill="rgb(0, 0, 0)" stroke="rgb(204, 204, 204)" stroke-width="1px"></line><line x1="95.5046875" y1="0" x2="95.5046875" y2="5" style="visibility: inherit;" fill="rgb(0, 0, 0)" stroke="rgb(204, 204, 204)" stroke-width="1px"></line><line x1="191.009375" y1="0" x2="191.009375" y2="5" style="visibility: inherit;" fill="rgb(0, 0, 0)" stroke="rgb(204, 204, 204)" stroke-width="1px"></line><line x1="286.51406249999997" y1="0" x2="286.51406249999997" y2="5" style="visibility: inherit;" fill="rgb(0, 0, 0)" stroke="rgb(204, 204, 204)" stroke-width="1px"></line><line x1="382.01875" y1="0" x2="382.01875" y2="5" style="visibility: inherit;" fill="rgb(0, 0, 0)" stroke="rgb(204, 204, 204)" stroke-width="1px"></line><line x1="477.5234375" y1="0" x2="477.5234375" y2="5" style="visibility: inherit;" fill="rgb(0, 0, 0)" stroke="rgb(204, 204, 204)" stroke-width="1px"></line><line x1="573.0281249999999" y1="0" x2="573.0281249999999" y2="5" style="visibility: inherit;" fill="rgb(0, 0, 0)" stroke="rgb(204, 204, 204)" stroke-width="1px"></line><line x1="668.5328125" y1="0" x2="668.5328125" y2="5" style="visibility: inherit;" fill="rgb(0, 0, 0)" stroke="rgb(204, 204, 204)" stroke-width="1px"></line><line x1="764.0375" y1="0" x2="764.0375" y2="5" style="visibility: inherit;" fill="rgb(0, 0, 0)" stroke="rgb(204, 204, 204)" stroke-width="1px"></line><line x1="859.5421875000001" y1="0" x2="859.5421875000001" y2="5" style="visibility: inherit;" fill="rgb(0, 0, 0)" stroke="rgb(204, 204, 204)" stroke-width="1px"></line><line x1="955.046875" y1="0" x2="955.046875" y2="5" style="visibility: inherit;" fill="rgb(0, 0, 0)" stroke="rgb(204, 204, 204)" stroke-width="1px"></line></g><g transform="translate(0, 8)"><text x="0" y="0" dx="0em" dy="0.95em" style="text-anchor: middle; visibility: hidden; font-family: Roboto, sans-serif; font-size: 12px; font-weight: 200;" fill="rgb(255, 255, 255)" stroke="none" stroke-width="1px">-2k</text><text x="95.5046875" y="0" dx="0em" dy="0.95em" style="text-anchor: middle; visibility: inherit; font-family: Roboto, sans-serif; font-size: 12px; font-weight: 200;" fill="rgb(255, 255, 255)" stroke="none" stroke-width="1px">0</text><text x="191.009375" y="0" dx="0em" dy="0.95em" style="text-anchor: middle; visibility: inherit; font-family: Roboto, sans-serif; font-size: 12px; font-weight: 200;" fill="rgb(255, 255, 255)" stroke="none" stroke-width="1px">2k</text><text x="286.51406249999997" y="0" dx="0em" dy="0.95em" style="text-anchor: middle; visibility: inherit; font-family: Roboto, sans-serif; font-size: 12px; font-weight: 200;" fill="rgb(255, 255, 255)" stroke="none" stroke-width="1px">4k</text><text x="382.01875" y="0" dx="0em" dy="0.95em" style="text-anchor: middle; visibility: inherit; font-family: Roboto, sans-serif; font-size: 12px; font-weight: 200;" fill="rgb(255, 255, 255)" stroke="none" stroke-width="1px">6k</text><text x="477.5234375" y="0" dx="0em" dy="0.95em" style="text-anchor: middle; visibility: inherit; font-family: Roboto, sans-serif; font-size: 12px; font-weight: 200;" fill="rgb(255, 255, 255)" stroke="none" stroke-width="1px">8k</text><text x="573.0281249999999" y="0" dx="0em" dy="0.95em" style="text-anchor: middle; visibility: inherit; font-family: Roboto, sans-serif; font-size: 12px; font-weight: 200;" fill="rgb(255, 255, 255)" stroke="none" stroke-width="1px">10k</text><text x="668.5328125" y="0" dx="0em" dy="0.95em" style="text-anchor: middle; visibility: inherit; font-family: Roboto, sans-serif; font-size: 12px; font-weight: 200;" fill="rgb(255, 255, 255)" stroke="none" stroke-width="1px">12k</text><text x="764.0375" y="0" dx="0em" dy="0.95em" style="text-anchor: middle; visibility: inherit; font-family: Roboto, sans-serif; font-size: 12px; font-weight: 200;" fill="rgb(255, 255, 255)" stroke="none" stroke-width="1px">14k</text><text x="859.5421875000001" y="0" dx="0em" dy="0.95em" style="text-anchor: middle; visibility: inherit; font-family: Roboto, sans-serif; font-size: 12px; font-weight: 200;" fill="rgb(255, 255, 255)" stroke="none" stroke-width="1px">16k</text><text x="955.046875" y="0" dx="0em" dy="0.95em" style="text-anchor: middle; visibility: hidden; font-family: Roboto, sans-serif; font-size: 12px; font-weight: 200;" fill="rgb(255, 255, 255)" stroke="none" stroke-width="1px">18k</text></g><line x1="0" y1="0" x2="955.046875" y2="0" fill="rgb(0, 0, 0)" stroke="rgb(204, 204, 204)" stroke-width="1px"></line></g></g></g></g></svg>