<svg viewBox="0 0 1017 400" xmlns="http://www.w3.org/2000/svg"><g><g><g><g><g><line x1="51.5625" y1="339.3" x2="46.5625" y2="339.3" style="visibility: inherit;" fill="rgb(0, 0, 0)" stroke="rgb(204, 204, 204)" stroke-width="1px"></line><line x1="51.5625" y1="301.6" x2="46.5625" y2="301.6" style="visibility: inherit;" fill="rgb(0, 0, 0)" stroke="rgb(204, 204, 204)" stroke-width="1px"></line><line x1="51.5625" y1="263.9" x2="46.5625" y2="263.9" style="visibility: inherit;" fill="rgb(0, 0, 0)" stroke="rgb(204, 204, 204)" stroke-width="1px"></line><line x1="51.5625" y1="226.20000000000005" x2="46.5625" y2="226.20000000000005" style="visibility: inherit;" fill="rgb(0, 0, 0)" stroke="rgb(204, 204, 204)" stroke-width="1px"></line><line x1="51.5625" y1="188.50000000000003" x2="46.5625" y2="188.50000000000003" style="visibility: inherit;" fill="rgb(0, 0, 0)" stroke="rgb(204, 204, 204)" stroke-width="1px"></line><line x1="51.5625" y1="150.8" x2="46.5625" y2="150.8" style="visibility: inherit;" fill="rgb(0, 0, 0)" stroke="rgb(204, 204, 204)" stroke-width="1px"></line><line x1="51.5625" y1="113.09999999999998" x2="46.5625" y2="113.09999999999998" style="visibility: inherit;" fill="rgb(0, 0, 0)" stroke="rgb(204, 204, 204)" stroke-width="1px"></line><line x1="51.5625" y1="75.40000000000006" x2="46.5625" y2="75.40000000000006" style="visibility: inherit;" fill="rgb(0, 0, 0)" stroke="rgb(204, 204, 204)" stroke-width="1px"></line><line x1="51.5625" y1="37.70000000000003" x2="46.5625" y2="37.70000000000003" style="visibility: inherit;" fill="rgb(0, 0, 0)" stroke="rgb(204, 204, 204)" stroke-width="1px"></line><line x1="51.5625" y1="0" x2="46.5625" y2="0" style="visibility: inherit;" fill="rgb(0, 0, 0)" stroke="rgb(204, 204, 204)" stroke-width="1px"></line></g><g transform="translate(41.5625, 0)"><text x="0" y="339.3" dx="0em" dy="0.3em" style="text-anchor: end; visibility: inherit; font-family: Roboto, sans-serif; font-size: 12px; font-weight: 200;" fill="rgb(255, 255, 255)" stroke="none" stroke-width="1px">0.16</text><text x="0" y="301.6" dx="0em" dy="0.3em" style="text-anchor: end; visibility: inherit; font-family: Roboto, sans-serif; font-size: 12px; font-weight: 200;" fill="rgb(255, 255, 255)" stroke="none" stroke-width="1px">0.18</text><text x="0" y="263.9" dx="0em" dy="0.3em" style="text-anchor: end; visibility: inherit; font-family: Roboto, sans-serif; font-size: 12px; font-weight: 200;" fill="rgb(255, 255, 255)" stroke="none" stroke-width="1px">0.2</text><text x="0" y="226.20000000000005" dx="0em" dy="0.3em" style="text-anchor: end; visibility: inherit; font-family: Roboto, sans-serif; font-size: 12px; font-weight: 200;" fill="rgb(255, 255, 255)" stroke="none" stroke-width="1px">0.22</text><text x="0" y="188.50000000000003" dx="0em" dy="0.3em" style="text-anchor: end; visibility: inherit; font-family: Roboto, sans-serif; font-size: 12px; font-weight: 200;" fill="rgb(255, 255, 255)" stroke="none" stroke-width="1px">0.24</text><text x="0" y="150.8" dx="0em" dy="0.3em" style="text-anchor: end; visibility: inherit; font-family: Roboto, sans-serif; font-size: 12px; font-weight: 200;" fill="rgb(255, 255, 255)" stroke="none" stroke-width="1px">0.26</text><text x="0" y="113.09999999999998" dx="0em" dy="0.3em" style="text-anchor: end; visibility: inherit; font-family: Roboto, sans-serif; font-size: 12px; font-weight: 200;" fill="rgb(255, 255, 255)" stroke="none" stroke-width="1px">0.28</text><text x="0" y="75.40000000000006" dx="0em" dy="0.3em" style="text-anchor: end; visibility: inherit; font-family: Roboto, sans-serif; font-size: 12px; font-weight: 200;" fill="rgb(255, 255, 255)" stroke="none" stroke-width="1px">0.3</text><text x="0" y="37.70000000000003" dx="0em" dy="0.3em" style="text-anchor: end; visibility: inherit; font-family: Roboto, sans-serif; font-size: 12px; font-weight: 200;" fill="rgb(255, 255, 255)" stroke="none" stroke-width="1px">0.32</text><text x="0" y="0" dx="0em" dy="0.3em" style="text-anchor: end; visibility: hidden; font-family: Roboto, sans-serif; font-size: 12px; font-weight: 200;" fill="rgb(255, 255, 255)" stroke="none" stroke-width="1px">0.34</text></g><line x1="51.5625" y1="0" x2="51.5625" y2="377" fill="rgb(0, 0, 0)" stroke="rgb(204, 204, 204)" stroke-width="1px"></line></g></g><g transform="translate(51, 0)" clip-path="url(#clip_0)"><clipPath id="clip_0"><rect width="965" height="377"></rect></clipPath><g><g><g><line x1="0" y1="0" x2="0" y2="377" fill="rgb(0, 0, 0)" stroke="rgb(189, 189, 189)" stroke-width="1px" opacity="0.25"></line><line x1="96.54375" y1="0" x2="96.54375" y2="377" fill="rgb(0, 0, 0)" stroke="rgb(189, 189, 189)" stroke-width="1px" opacity="0.25"></line><line x1="193.0875" y1="0" x2="193.0875" y2="377" fill="rgb(0, 0, 0)" stroke="rgb(189, 189, 189)" stroke-width="1px" opacity="0.25"></line><line x1="289.63124999999997" y1="0" x2="289.63124999999997" y2="377" fill="rgb(0, 0, 0)" stroke="rgb(189, 189, 189)" stroke-width="1px" opacity="0.25"></line><line x1="386.175" y1="0" x2="386.175" y2="377" fill="rgb(0, 0, 0)" stroke="rgb(189, 189, 189)" stroke-width="1px" opacity="0.25"></line><line x1="482.71875" y1="0" x2="482.71875" y2="377" fill="rgb(0, 0, 0)" stroke="rgb(189, 189, 189)" stroke-width="1px" opacity="0.25"></line><line x1="579.2624999999999" y1="0" x2="579.2624999999999" y2="377" fill="rgb(0, 0, 0)" stroke="rgb(189, 189, 189)" stroke-width="1px" opacity="0.25"></line><line x1="675.80625" y1="0" x2="675.80625" y2="377" fill="rgb(0, 0, 0)" stroke="rgb(189, 189, 189)" stroke-width="1px" opacity="0.25"></line><line x1="772.35" y1="0" x2="772.35" y2="377" fill="rgb(0, 0, 0)" stroke="rgb(189, 189, 189)" stroke-width="1px" opacity="0.25"></line><line x1="868.8937500000001" y1="0" x2="868.8937500000001" y2="377" fill="rgb(0, 0, 0)" stroke="rgb(189, 189, 189)" stroke-width="1px" opacity="0.25"></line><line x1="965.4375" y1="0" x2="965.4375" y2="377" fill="rgb(0, 0, 0)" stroke="rgb(189, 189, 189)" stroke-width="1px" opacity="0.25"></line></g><g><line x1="0" y1="339.3" x2="965.4375" y2="339.3" fill="rgb(0, 0, 0)" stroke="rgb(189, 189, 189)" stroke-width="1px" opacity="0.25"></line><line x1="0" y1="301.6" x2="965.4375" y2="301.6" fill="rgb(0, 0, 0)" stroke="rgb(189, 189, 189)" stroke-width="1px" opacity="0.25"></line><line x1="0" y1="263.9" x2="965.4375" y2="263.9" fill="rgb(0, 0, 0)" stroke="rgb(189, 189, 189)" stroke-width="1px" opacity="0.25"></line><line x1="0" y1="226.20000000000005" x2="965.4375" y2="226.20000000000005" fill="rgb(0, 0, 0)" stroke="rgb(189, 189, 189)" stroke-width="1px" opacity="0.25"></line><line x1="0" y1="188.50000000000003" x2="965.4375" y2="188.50000000000003" fill="rgb(0, 0, 0)" stroke="rgb(189, 189, 189)" stroke-width="1px" opacity="0.25"></line><line x1="0" y1="150.8" x2="965.4375" y2="150.8" fill="rgb(0, 0, 0)" stroke="rgb(189, 189, 189)" stroke-width="1px" opacity="0.25"></line><line x1="0" y1="113.09999999999998" x2="965.4375" y2="113.09999999999998" fill="rgb(0, 0, 0)" stroke="rgb(189, 189, 189)" stroke-width="1px" opacity="0.25"></line><line x1="0" y1="75.40000000000006" x2="965.4375" y2="75.40000000000006" fill="rgb(0, 0, 0)" stroke="rgb(189, 189, 189)" stroke-width="1px" opacity="0.25"></line><line x1="0" y1="37.70000000000003" x2="965.4375" y2="37.70000000000003" fill="rgb(0, 0, 0)" stroke="rgb(189, 189, 189)" stroke-width="1px" opacity="0.25"></line><line x1="0" y1="0" x2="965.4375" y2="0" fill="rgb(0, 0, 0)" stroke="rgb(189, 189, 189)" stroke-width="1px" opacity="0.25"></line></g></g></g><g><g><line x1="0" y1="640.9000000000001" x2="965.4375" y2="640.9000000000001" fill="rgb(0, 0, 0)" stroke="rgb(153, 153, 153)" stroke-width="1.5px"></line></g></g><g><g><line x1="96.54375" y1="0" x2="96.54375" y2="377" fill="rgb(0, 0, 0)" stroke="rgb(153, 153, 153)" stroke-width="1.5px"></line></g></g><g><g><g><g><g><path stroke="rgb(0, 119, 187)" stroke-width="2px" d="M111.0253125,-66.35195937618917L115.85249999999999,0.8926241147607072L120.6796875,33.22247820213228L125.50687500000001,34.98107435144702L130.33406250000002,40.37904170393855L135.16125000000002,40.33678913195393L139.9884375,41.078692675590034L144.81562499999998,78.37532435926084L149.6428125,85.62503840885962L154.47,70.29265651001175L159.2971875,72.74393770897359L164.12437500000001,94.57412563070616L168.9515625,84.7761973775507L173.77875,92.18516610386362L178.6059375,105.14172526101976L183.433125,89.7465556993092L188.2603125,94.17360304736341L193.0875,103.11917089700381L201.245446875,107.643443358275L206.072634375,112.67497604902968L210.89982187500001,120.4893044650014L215.72700937500002,141.18918713062203L220.55419687499997,147.70883955645596L225.38138437499998,143.18916685705793L230.208571875,135.32715573855887L235.035759375,119.92188695297214L239.862946875,123.27563695993128L244.690134375,121.90029966518146L249.51732187500002,128.735378309446L254.34450937500003,108.23767504895827L259.171696875,128.59145988505145L263.99888437500005,122.52783547600515L268.82607187499997,128.55019262867938L273.653259375,124.43429620215495L278.480446875,102.2556892974466L283.30763437499996,112.77696903698052L288.134821875,107.67950470356394L292.962009375,123.29649875289599L301.11995625000003,140.0578628753534L305.94714375,145.5204055058368L310.77433125000005,130.8406300566373L315.60151875,134.10283392615668L320.42870624999995,147.7966216432236L325.25589375,163.03334745783366L330.08308124999996,150.16076070390906L334.91026875,163.9113146363173L339.73745625,160.27239036903683L344.56464375,154.06183689795418L349.39183125,168.32609655007187L354.21901875000003,166.2094787308183L359.04620625,161.1830166762149L363.87339375,162.3024910417256L368.70058125,160.39206114334095L373.52776875,166.87271365238811L378.35495625000004,172.0534657318222L383.18214374999997,148.45354000561088L388.00933125,144.59447078366625L392.83651875,148.7569325569843L400.994465625,157.60544193766006L405.821653125,167.75007152903984L410.648840625,170.5129686710174L415.476028125,172.69195437293862L420.303215625,186.52190123475572L425.13040312500004,192.052111071807L429.957590625,179.7939017525088L434.78477812499995,199.55905466501542L439.611965625,185.0711809803524L444.43915312499996,171.97806030329932L449.266340625,181.8703405405096L454.093528125,172.406804091037L458.920715625,169.81767398256102L463.747903125,178.37892153702998L468.57509062500003,179.3290397610833L473.402278125,169.1623217372042L478.229465625,182.47983299302706L483.05665312499997,197.4473004055479L487.88384062499995,186.72140841319916L492.711028125,189.8138148917839L500.86897500000003,209.2527892347625L505.6961625,221.54079886772936L510.52335000000005,239.69547033368772L515.3505375000001,259.8049697438433L520.1777249999999,278.09471836206643L525.0049124999999,279.0902293510278L529.8321,274.5084311394119L534.6592875,276.655738746418L539.4864749999999,279.88554607110825L544.3136625,280.2466550640917L549.14085,280.6959060390387L553.9680374999999,284.51764209983315L558.795225,288.99372539828755L563.6224125,296.45180090970126L568.4496,280.2557980853697L573.2767875,292.8786923645962L578.103975,290.8639505159276L582.9311625,288.8846663779865L587.7583500000001,287.7017136756689L592.5855375,285.94039142752354L600.743484375,300.3997336222211L605.570671875,300.4783462973523L610.3978593749999,305.948507174974L615.225046875,311.7270027763398L620.052234375,312.5393932120056L624.879421875,310.40132154918024L629.706609375,307.8049503415603L634.533796875,297.251208180772L639.360984375,308.31275986467995L644.188171875,310.26544135472295L649.015359375,309.9544056609936L653.842546875,308.4977260896961L658.6697343750001,303.4122464018703L663.496921875,315.1345977316881L668.324109375,303.4773118430724L673.1512968750001,305.448962145707L677.978484375,310.74033878425416L682.805671875,312.7314624773244L687.6328593750001,302.56593613903397L692.4600468750001,306.28108910727906L700.61799375,320.17528977756746L705.44518125,314.4512529633346L710.27236875,325.16729436647313L715.09955625,326.2186655994142L719.92674375,328.17683618401793L724.75393125,327.28820862612315L729.5811187500001,322.42183500433674L734.40830625,314.1861927598996L739.23549375,326.2842262596061L744.0626812500001,332.2537530702454L748.8898687499999,332.87401127827775L753.7170562499999,336.0050596929348L758.54424375,316.18425529579855L763.37143125,324.35204010594214L768.1986187499999,323.8481326638956L773.02580625,331.41642981763476L777.85299375,329.6874397492158L782.68018125,332.86780951951425L787.50736875,326.42173624714906L792.33455625,326.7321499245208L800.4925031250001,327.49884526829965L805.3196906249999,329.9274863213363L810.146878125,328.6496191424169L814.974065625,329.85515174043405L819.801253125,318.3354320190682L824.6284406249999,323.6736841095885L829.455628125,326.2311572941184L834.282815625,334.67390816641097L839.1100031249999,327.834246568872L843.937190625,325.48512753188226L848.764378125,329.158933543799L853.591565625,341.46796566822394L858.418753125,335.9963606308595L863.245940625,326.7687973839459L868.073128125,335.9119138254176L872.900315625,334.6271288331419L877.727503125,338.8810321507496L882.554690625,333.75988141165027L887.3818781250001,330.3365767184845L892.209065625,329.3497281339139" style="fill: none;" fill="none"></path></g></g></g></g><g opacity="0.2"><g><g><g><path stroke="rgb(0, 119, 187)" stroke-width="2px" d="M106.198125,-36.21424767971032L111.0253125,41.86242010593417L115.85249999999999,79.97225430011751L120.6796875,75.4323356986046L125.50687500000001,37.41384592056277L130.33406250000002,48.098221385479L135.16125000000002,40.27518447637561L139.9884375,42.17285629510882L144.81562499999998,133.75647571086887L149.6428125,96.4338551104069L154.47,47.377521806955365L159.2971875,76.41285564899447L164.12437500000001,127.27663990259173L168.9515625,70.0908220946789L173.77875,103.29339381456377L178.6059375,124.57108121514322L183.433125,66.65771018862726L188.2603125,100.8134996533394L193.0875,116.5367050111294L201.245446875,114.42960392832758L206.072634375,120.22210952043535L210.89982187500001,132.2106428086758L215.72700937500002,172.23876591920856L220.55419687499997,157.48827185630802L225.38138437499998,136.40967708230022L230.208571875,123.53415917754175L235.035759375,96.81400742530825L239.862946875,128.3062588810921L244.690134375,119.83729448318483L249.51732187500002,138.9879940092564L254.34450937500003,77.49112423658373L259.171696875,159.12213470935825L263.99888437500005,113.43239929676058L268.82607187499997,137.58372809886936L273.653259375,118.26045166850092L278.480446875,68.98777928352358L283.30763437499996,128.55888854861263L288.134821875,100.03330823183062L292.962009375,146.721989774704L301.11995625000003,165.1999090254307L305.94714375,153.7142194449902L310.77433125000005,108.82096689343454L315.60151875,138.996139729023L320.42870624999995,168.3373032152653L325.25589375,185.88843617737297L330.08308124999996,130.8518805742264L334.91026875,184.5371455341578L339.73745625,154.81400396823886L344.56464375,144.74600669145588L349.39183125,189.72248602807525L354.21901875000003,163.03455200195316L359.04620625,153.64332359433178L363.87339375,163.98170258998874L368.70058125,157.52641629576686L373.52776875,176.59369241595272L378.35495625000004,179.8245938509703L383.18214374999997,113.05365141630175L388.00933125,138.80586695075039L392.83651875,155.00062521696094L400.994465625,170.87820600867275L405.821653125,182.96701591610912L410.648840625,174.65731438398365L415.476028125,175.96043292582038L420.303215625,207.2668215274811L425.13040312500004,200.34742582738403L429.957590625,161.4065877735615L434.78477812499995,229.20678403377536L439.611965625,163.33937045335773L444.43915312499996,152.33837928771976L449.266340625,196.70876089632515L454.093528125,158.2114994168282L458.920715625,165.93397881984714L463.747903125,191.22079286873344L468.57509062500003,180.75421709716323L473.402278125,153.91224470138553L478.229465625,202.45609987676147L483.05665312499997,219.89850152432922L487.88384062499995,170.63257042467598L492.711028125,194.45242460966114L500.86897500000003,238.41125074923042L505.6961625,239.9728133171797L510.52335000000005,266.92747753262523L515.3505375000001,289.96921885907653L520.1777249999999,305.5293412894011L525.0049124999999,280.58349583446983L529.8321,267.63573382198814L534.6592875,279.87670015692714L539.4864749999999,284.73025705814365L544.3136625,280.78831855356697L549.14085,281.36978250145916L553.9680374999999,290.2502461910248L558.795225,295.70785034596923L563.6224125,307.63891417682174L568.4496,255.96179384887222L573.2767875,311.81303378343586L578.103975,287.8418377429247L582.9311625,285.9157401710749L587.7583500000001,285.9272846221924L592.5855375,283.2984080553055L600.743484375,322.0887469142676L605.570671875,300.5962653100491L610.3978593749999,314.1537484914065L615.225046875,320.39474617838863L620.052234375,313.7579788655043L624.879421875,307.19421405494217L629.706609375,303.9103935301304L634.533796875,281.42059493958953L639.360984375,324.90508739054206L644.188171875,313.1944635897875L649.015359375,309.4878521203995L653.842546875,306.31270673275L658.6697343750001,295.7840268701315L663.496921875,332.7181247264147L668.324109375,285.99138301014904L673.1512968750001,308.406437599659L677.978484375,318.677403742075L682.805671875,315.71814801692966L687.6328593750001,287.3176466315985L692.4600468750001,311.85381855964664L700.61799375,341.016590783L705.44518125,305.86519774198536L710.27236875,341.24135647118095L715.09955625,327.79572244882587L719.92674375,331.1140920609236L724.75393125,325.9552672892809L729.5811187500001,315.1222745716572L734.40830625,301.8327293932438L739.23549375,344.4312765091658L744.0626812500001,341.2080432862044L748.8898687499999,333.80439859032634L753.7170562499999,340.70163231492046L758.54424375,286.45304870009426L763.37143125,336.6037173211575L768.1986187499999,323.0922715008259L773.02580625,342.76887554824356L777.85299375,327.0939546465874L782.68018125,337.6383641749621L787.50736875,316.75262633860115L792.33455625,327.1977704405785L800.4925031250001,328.648888283968L805.3196906249999,333.57044790089134L810.146878125,326.7328183740378L814.974065625,331.6634506374598L819.801253125,301.0558524370194L824.6284406249999,331.681062245369L829.455628125,330.06736707091335L834.282815625,347.33803447484974L839.1100031249999,317.5747541725636L843.937190625,321.96144897639755L848.764378125,334.66964256167415L853.591565625,359.9315138548613L858.418753125,327.7889530748129L863.245940625,312.9274525135756L868.073128125,349.62658848762516L872.900315625,332.6999513447285L877.727503125,345.26188712716106L882.554690625,326.07815530300144L887.3818781250001,325.20161967873577L892.209065625,327.8694552570582" style="fill: none;" fill="none"></path></g></g></g></g></g></g><g transform="translate(51, 377)" clip-path="url(#clip_1)"><clipPath id="clip_1"><rect width="965" height="23"></rect></clipPath><g><g><line x1="0" y1="0" x2="0" y2="5" style="visibility: inherit;" fill="rgb(0, 0, 0)" stroke="rgb(204, 204, 204)" stroke-width="1px"></line><line x1="96.54375" y1="0" x2="96.54375" y2="5" style="visibility: inherit;" fill="rgb(0, 0, 0)" stroke="rgb(204, 204, 204)" stroke-width="1px"></line><line x1="193.0875" y1="0" x2="193.0875" y2="5" style="visibility: inherit;" fill="rgb(0, 0, 0)" stroke="rgb(204, 204, 204)" stroke-width="1px"></line><line x1="289.63124999999997" y1="0" x2="289.63124999999997" y2="5" style="visibility: inherit;" fill="rgb(0, 0, 0)" stroke="rgb(204, 204, 204)" stroke-width="1px"></line><line x1="386.175" y1="0" x2="386.175" y2="5" style="visibility: inherit;" fill="rgb(0, 0, 0)" stroke="rgb(204, 204, 204)" stroke-width="1px"></line><line x1="482.71875" y1="0" x2="482.71875" y2="5" style="visibility: inherit;" fill="rgb(0, 0, 0)" stroke="rgb(204, 204, 204)" stroke-width="1px"></line><line x1="579.2624999999999" y1="0" x2="579.2624999999999" y2="5" style="visibility: inherit;" fill="rgb(0, 0, 0)" stroke="rgb(204, 204, 204)" stroke-width="1px"></line><line x1="675.80625" y1="0" x2="675.80625" y2="5" style="visibility: inherit;" fill="rgb(0, 0, 0)" stroke="rgb(204, 204, 204)" stroke-width="1px"></line><line x1="772.35" y1="0" x2="772.35" y2="5" style="visibility: inherit;" fill="rgb(0, 0, 0)" stroke="rgb(204, 204, 204)" stroke-width="1px"></line><line x1="868.8937500000001" y1="0" x2="868.8937500000001" y2="5" style="visibility: inherit;" fill="rgb(0, 0, 0)" stroke="rgb(204, 204, 204)" stroke-width="1px"></line><line x1="965.4375" y1="0" x2="965.4375" y2="5" style="visibility: inherit;" fill="rgb(0, 0, 0)" stroke="rgb(204, 204, 204)" stroke-width="1px"></line></g><g transform="translate(0, 8)"><text x="0" y="0" dx="0em" dy="0.95em" style="text-anchor: middle; visibility: hidden; font-family: Roboto, sans-serif; font-size: 12px; font-weight: 200;" fill="rgb(255, 255, 255)" stroke="none" stroke-width="1px">-2k</text><text x="96.54375" y="0" dx="0em" dy="0.95em" style="text-anchor: middle; visibility: inherit; font-family: Roboto, sans-serif; font-size: 12px; font-weight: 200;" fill="rgb(255, 255, 255)" stroke="none" stroke-width="1px">0</text><text x="193.0875" y="0" dx="0em" dy="0.95em" style="text-anchor: middle; visibility: inherit; font-family: Roboto, sans-serif; font-size: 12px; font-weight: 200;" fill="rgb(255, 255, 255)" stroke="none" stroke-width="1px">2k</text><text x="289.63124999999997" y="0" dx="0em" dy="0.95em" style="text-anchor: middle; visibility: inherit; font-family: Roboto, sans-serif; font-size: 12px; font-weight: 200;" fill="rgb(255, 255, 255)" stroke="none" stroke-width="1px">4k</text><text x="386.175" y="0" dx="0em" dy="0.95em" style="text-anchor: middle; visibility: inherit; font-family: Roboto, sans-serif; font-size: 12px; font-weight: 200;" fill="rgb(255, 255, 255)" stroke="none" stroke-width="1px">6k</text><text x="482.71875" y="0" dx="0em" dy="0.95em" style="text-anchor: middle; visibility: inherit; font-family: Roboto, sans-serif; font-size: 12px; font-weight: 200;" fill="rgb(255, 255, 255)" stroke="none" stroke-width="1px">8k</text><text x="579.2624999999999" y="0" dx="0em" dy="0.95em" style="text-anchor: middle; visibility: inherit; font-family: Roboto, sans-serif; font-size: 12px; font-weight: 200;" fill="rgb(255, 255, 255)" stroke="none" stroke-width="1px">10k</text><text x="675.80625" y="0" dx="0em" dy="0.95em" style="text-anchor: middle; visibility: inherit; font-family: Roboto, sans-serif; font-size: 12px; font-weight: 200;" fill="rgb(255, 255, 255)" stroke="none" stroke-width="1px">12k</text><text x="772.35" y="0" dx="0em" dy="0.95em" style="text-anchor: middle; visibility: inherit; font-family: Roboto, sans-serif; font-size: 12px; font-weight: 200;" fill="rgb(255, 255, 255)" stroke="none" stroke-width="1px">14k</text><text x="868.8937500000001" y="0" dx="0em" dy="0.95em" style="text-anchor: middle; visibility: inherit; font-family: Roboto, sans-serif; font-size: 12px; font-weight: 200;" fill="rgb(255, 255, 255)" stroke="none" stroke-width="1px">16k</text><text x="965.4375" y="0" dx="0em" dy="0.95em" style="text-anchor: middle; visibility: hidden; font-family: Roboto, sans-serif; font-size: 12px; font-weight: 200;" fill="rgb(255, 255, 255)" stroke="none" stroke-width="1px">18k</text></g><line x1="0" y1="0" x2="965.4375" y2="0" fill="rgb(0, 0, 0)" stroke="rgb(204, 204, 204)" stroke-width="1px"></line></g></g></g></g></svg>