<svg viewBox="0 0 1017 400" xmlns="http://www.w3.org/2000/svg"><g><g><g><g><g><line x1="61.953125" y1="377" x2="56.953125" y2="377" style="visibility: inherit;" fill="rgb(0, 0, 0)" stroke="rgb(204, 204, 204)" stroke-width="1px"></line><line x1="61.953125" y1="350.0714285714286" x2="56.953125" y2="350.0714285714286" style="visibility: inherit;" fill="rgb(0, 0, 0)" stroke="rgb(204, 204, 204)" stroke-width="1px"></line><line x1="61.953125" y1="323.14285714285717" x2="56.953125" y2="323.14285714285717" style="visibility: inherit;" fill="rgb(0, 0, 0)" stroke="rgb(204, 204, 204)" stroke-width="1px"></line><line x1="61.953125" y1="296.2142857142857" x2="56.953125" y2="296.2142857142857" style="visibility: inherit;" fill="rgb(0, 0, 0)" stroke="rgb(204, 204, 204)" stroke-width="1px"></line><line x1="61.953125" y1="269.28571428571433" x2="56.953125" y2="269.28571428571433" style="visibility: inherit;" fill="rgb(0, 0, 0)" stroke="rgb(204, 204, 204)" stroke-width="1px"></line><line x1="61.953125" y1="242.35714285714286" x2="56.953125" y2="242.35714285714286" style="visibility: inherit;" fill="rgb(0, 0, 0)" stroke="rgb(204, 204, 204)" stroke-width="1px"></line><line x1="61.953125" y1="215.42857142857142" x2="56.953125" y2="215.42857142857142" style="visibility: inherit;" fill="rgb(0, 0, 0)" stroke="rgb(204, 204, 204)" stroke-width="1px"></line><line x1="61.953125" y1="188.50000000000003" x2="56.953125" y2="188.50000000000003" style="visibility: inherit;" fill="rgb(0, 0, 0)" stroke="rgb(204, 204, 204)" stroke-width="1px"></line><line x1="61.953125" y1="161.57142857142858" x2="56.953125" y2="161.57142857142858" style="visibility: inherit;" fill="rgb(0, 0, 0)" stroke="rgb(204, 204, 204)" stroke-width="1px"></line><line x1="61.953125" y1="134.64285714285714" x2="56.953125" y2="134.64285714285714" style="visibility: inherit;" fill="rgb(0, 0, 0)" stroke="rgb(204, 204, 204)" stroke-width="1px"></line><line x1="61.953125" y1="107.71428571428567" x2="56.953125" y2="107.71428571428567" style="visibility: inherit;" fill="rgb(0, 0, 0)" stroke="rgb(204, 204, 204)" stroke-width="1px"></line><line x1="61.953125" y1="80.7857142857142" x2="56.953125" y2="80.7857142857142" style="visibility: inherit;" fill="rgb(0, 0, 0)" stroke="rgb(204, 204, 204)" stroke-width="1px"></line><line x1="61.953125" y1="53.85714285714292" x2="56.953125" y2="53.85714285714292" style="visibility: inherit;" fill="rgb(0, 0, 0)" stroke="rgb(204, 204, 204)" stroke-width="1px"></line><line x1="61.953125" y1="26.92857142857146" x2="56.953125" y2="26.92857142857146" style="visibility: inherit;" fill="rgb(0, 0, 0)" stroke="rgb(204, 204, 204)" stroke-width="1px"></line><line x1="61.953125" y1="0" x2="56.953125" y2="0" style="visibility: inherit;" fill="rgb(0, 0, 0)" stroke="rgb(204, 204, 204)" stroke-width="1px"></line></g><g transform="translate(51.953125, 0)"><text x="0" y="377" dx="0em" dy="0.3em" style="text-anchor: end; visibility: hidden; font-family: Roboto, sans-serif; font-size: 12px; font-weight: 200;" fill="rgb(255, 255, 255)" stroke="none" stroke-width="1px">0.085</text><text x="0" y="350.0714285714286" dx="0em" dy="0.3em" style="text-anchor: end; visibility: inherit; font-family: Roboto, sans-serif; font-size: 12px; font-weight: 200;" fill="rgb(255, 255, 255)" stroke="none" stroke-width="1px">0.09</text><text x="0" y="323.14285714285717" dx="0em" dy="0.3em" style="text-anchor: end; visibility: inherit; font-family: Roboto, sans-serif; font-size: 12px; font-weight: 200;" fill="rgb(255, 255, 255)" stroke="none" stroke-width="1px">0.095</text><text x="0" y="296.2142857142857" dx="0em" dy="0.3em" style="text-anchor: end; visibility: inherit; font-family: Roboto, sans-serif; font-size: 12px; font-weight: 200;" fill="rgb(255, 255, 255)" stroke="none" stroke-width="1px">0.1</text><text x="0" y="269.28571428571433" dx="0em" dy="0.3em" style="text-anchor: end; visibility: inherit; font-family: Roboto, sans-serif; font-size: 12px; font-weight: 200;" fill="rgb(255, 255, 255)" stroke="none" stroke-width="1px">0.105</text><text x="0" y="242.35714285714286" dx="0em" dy="0.3em" style="text-anchor: end; visibility: inherit; font-family: Roboto, sans-serif; font-size: 12px; font-weight: 200;" fill="rgb(255, 255, 255)" stroke="none" stroke-width="1px">0.11</text><text x="0" y="215.42857142857142" dx="0em" dy="0.3em" style="text-anchor: end; visibility: inherit; font-family: Roboto, sans-serif; font-size: 12px; font-weight: 200;" fill="rgb(255, 255, 255)" stroke="none" stroke-width="1px">0.115</text><text x="0" y="188.50000000000003" dx="0em" dy="0.3em" style="text-anchor: end; visibility: inherit; font-family: Roboto, sans-serif; font-size: 12px; font-weight: 200;" fill="rgb(255, 255, 255)" stroke="none" stroke-width="1px">0.12</text><text x="0" y="161.57142857142858" dx="0em" dy="0.3em" style="text-anchor: end; visibility: inherit; font-family: Roboto, sans-serif; font-size: 12px; font-weight: 200;" fill="rgb(255, 255, 255)" stroke="none" stroke-width="1px">0.125</text><text x="0" y="134.64285714285714" dx="0em" dy="0.3em" style="text-anchor: end; visibility: inherit; font-family: Roboto, sans-serif; font-size: 12px; font-weight: 200;" fill="rgb(255, 255, 255)" stroke="none" stroke-width="1px">0.13</text><text x="0" y="107.71428571428567" dx="0em" dy="0.3em" style="text-anchor: end; visibility: inherit; font-family: Roboto, sans-serif; font-size: 12px; font-weight: 200;" fill="rgb(255, 255, 255)" stroke="none" stroke-width="1px">0.135</text><text x="0" y="80.7857142857142" dx="0em" dy="0.3em" style="text-anchor: end; visibility: inherit; font-family: Roboto, sans-serif; font-size: 12px; font-weight: 200;" fill="rgb(255, 255, 255)" stroke="none" stroke-width="1px">0.14</text><text x="0" y="53.85714285714292" dx="0em" dy="0.3em" style="text-anchor: end; visibility: inherit; font-family: Roboto, sans-serif; font-size: 12px; font-weight: 200;" fill="rgb(255, 255, 255)" stroke="none" stroke-width="1px">0.145</text><text x="0" y="26.92857142857146" dx="0em" dy="0.3em" style="text-anchor: end; visibility: inherit; font-family: Roboto, sans-serif; font-size: 12px; font-weight: 200;" fill="rgb(255, 255, 255)" stroke="none" stroke-width="1px">0.15</text><text x="0" y="0" dx="0em" dy="0.3em" style="text-anchor: end; visibility: hidden; font-family: Roboto, sans-serif; font-size: 12px; font-weight: 200;" fill="rgb(255, 255, 255)" stroke="none" stroke-width="1px">0.155</text></g><line x1="61.953125" y1="0" x2="61.953125" y2="377" fill="rgb(0, 0, 0)" stroke="rgb(204, 204, 204)" stroke-width="1px"></line></g></g><g transform="translate(61, 0)" clip-path="url(#clip_0)"><clipPath id="clip_0"><rect width="955" height="377"></rect></clipPath><g><g><g><line x1="0" y1="0" x2="0" y2="377" fill="rgb(0, 0, 0)" stroke="rgb(189, 189, 189)" stroke-width="1px" opacity="0.25"></line><line x1="95.5046875" y1="0" x2="95.5046875" y2="377" fill="rgb(0, 0, 0)" stroke="rgb(189, 189, 189)" stroke-width="1px" opacity="0.25"></line><line x1="191.009375" y1="0" x2="191.009375" y2="377" fill="rgb(0, 0, 0)" stroke="rgb(189, 189, 189)" stroke-width="1px" opacity="0.25"></line><line x1="286.51406249999997" y1="0" x2="286.51406249999997" y2="377" fill="rgb(0, 0, 0)" stroke="rgb(189, 189, 189)" stroke-width="1px" opacity="0.25"></line><line x1="382.01875" y1="0" x2="382.01875" y2="377" fill="rgb(0, 0, 0)" stroke="rgb(189, 189, 189)" stroke-width="1px" opacity="0.25"></line><line x1="477.5234375" y1="0" x2="477.5234375" y2="377" fill="rgb(0, 0, 0)" stroke="rgb(189, 189, 189)" stroke-width="1px" opacity="0.25"></line><line x1="573.0281249999999" y1="0" x2="573.0281249999999" y2="377" fill="rgb(0, 0, 0)" stroke="rgb(189, 189, 189)" stroke-width="1px" opacity="0.25"></line><line x1="668.5328125" y1="0" x2="668.5328125" y2="377" fill="rgb(0, 0, 0)" stroke="rgb(189, 189, 189)" stroke-width="1px" opacity="0.25"></line><line x1="764.0375" y1="0" x2="764.0375" y2="377" fill="rgb(0, 0, 0)" stroke="rgb(189, 189, 189)" stroke-width="1px" opacity="0.25"></line><line x1="859.5421875000001" y1="0" x2="859.5421875000001" y2="377" fill="rgb(0, 0, 0)" stroke="rgb(189, 189, 189)" stroke-width="1px" opacity="0.25"></line><line x1="955.046875" y1="0" x2="955.046875" y2="377" fill="rgb(0, 0, 0)" stroke="rgb(189, 189, 189)" stroke-width="1px" opacity="0.25"></line></g><g><line x1="0" y1="377" x2="955.046875" y2="377" fill="rgb(0, 0, 0)" stroke="rgb(189, 189, 189)" stroke-width="1px" opacity="0.25"></line><line x1="0" y1="350.0714285714286" x2="955.046875" y2="350.0714285714286" fill="rgb(0, 0, 0)" stroke="rgb(189, 189, 189)" stroke-width="1px" opacity="0.25"></line><line x1="0" y1="323.14285714285717" x2="955.046875" y2="323.14285714285717" fill="rgb(0, 0, 0)" stroke="rgb(189, 189, 189)" stroke-width="1px" opacity="0.25"></line><line x1="0" y1="296.2142857142857" x2="955.046875" y2="296.2142857142857" fill="rgb(0, 0, 0)" stroke="rgb(189, 189, 189)" stroke-width="1px" opacity="0.25"></line><line x1="0" y1="269.28571428571433" x2="955.046875" y2="269.28571428571433" fill="rgb(0, 0, 0)" stroke="rgb(189, 189, 189)" stroke-width="1px" opacity="0.25"></line><line x1="0" y1="242.35714285714286" x2="955.046875" y2="242.35714285714286" fill="rgb(0, 0, 0)" stroke="rgb(189, 189, 189)" stroke-width="1px" opacity="0.25"></line><line x1="0" y1="215.42857142857142" x2="955.046875" y2="215.42857142857142" fill="rgb(0, 0, 0)" stroke="rgb(189, 189, 189)" stroke-width="1px" opacity="0.25"></line><line x1="0" y1="188.50000000000003" x2="955.046875" y2="188.50000000000003" fill="rgb(0, 0, 0)" stroke="rgb(189, 189, 189)" stroke-width="1px" opacity="0.25"></line><line x1="0" y1="161.57142857142858" x2="955.046875" y2="161.57142857142858" fill="rgb(0, 0, 0)" stroke="rgb(189, 189, 189)" stroke-width="1px" opacity="0.25"></line><line x1="0" y1="134.64285714285714" x2="955.046875" y2="134.64285714285714" fill="rgb(0, 0, 0)" stroke="rgb(189, 189, 189)" stroke-width="1px" opacity="0.25"></line><line x1="0" y1="107.71428571428567" x2="955.046875" y2="107.71428571428567" fill="rgb(0, 0, 0)" stroke="rgb(189, 189, 189)" stroke-width="1px" opacity="0.25"></line><line x1="0" y1="80.7857142857142" x2="955.046875" y2="80.7857142857142" fill="rgb(0, 0, 0)" stroke="rgb(189, 189, 189)" stroke-width="1px" opacity="0.25"></line><line x1="0" y1="53.85714285714292" x2="955.046875" y2="53.85714285714292" fill="rgb(0, 0, 0)" stroke="rgb(189, 189, 189)" stroke-width="1px" opacity="0.25"></line><line x1="0" y1="26.92857142857146" x2="955.046875" y2="26.92857142857146" fill="rgb(0, 0, 0)" stroke="rgb(189, 189, 189)" stroke-width="1px" opacity="0.25"></line><line x1="0" y1="0" x2="955.046875" y2="0" fill="rgb(0, 0, 0)" stroke="rgb(189, 189, 189)" stroke-width="1px" opacity="0.25"></line></g></g></g><g><g><line x1="0" y1="834.7857142857143" x2="955.046875" y2="834.7857142857143" fill="rgb(0, 0, 0)" stroke="rgb(153, 153, 153)" stroke-width="1.5px"></line></g></g><g><g><line x1="95.5046875" y1="0" x2="95.5046875" y2="377" fill="rgb(0, 0, 0)" stroke="rgb(153, 153, 153)" stroke-width="1.5px"></line></g></g><g><g><g><g><g><path stroke="rgb(0, 119, 187)" stroke-width="2px" d="M124.15609375000001,-11.282430768594947L128.93132812500002,8.59035936540022L133.70656250000002,25.866532483912124L138.481796875,21.94179024211808L143.25703124999998,69.32469892995118L148.032265625,83.37366806390457L152.8075,55.94555418412137L157.582734375,59.9917116900114L162.35796875,100.17809607806655L167.133203125,81.88419374786437L171.9084375,81.63033911969279L176.683671875,104.80882670588306L181.45890625,77.51724223608389L186.234140625,95.84675381061689L191.009375,104.67695336890012L199.07952109375,102.76695819114835L203.85475546875,103.20273896633181L208.62998984375,121.97219566605531L213.40522421875002,149.3609960158754L218.18045859375,152.89820608401482L222.95569296875,141.95187976814074L227.73092734374998,129.40765146011205L232.50616171875,114.24179716758573L237.28139609375,110.04558229037187L242.05663046875,115.90024366477928L246.83186484375003,122.29789284477323L251.60709921875002,98.696141916756L256.38233359375005,124.9251363445153L261.15756796875,106.48326763705228L265.93280234375,112.42782237562491L270.70803671875,116.59058108624012L275.48327109375,90.61596812358093L280.25850546875,105.63727796108292L285.03373984374997,98.79443230485175L289.80897421875,108.7688944811869L297.8791203125,130.6903555137055L302.6543546875,141.16633192119448L307.42958906250004,112.37986723198267L312.2048234375,112.22353404016545L316.9800578125,132.51644029211667L321.7552921875,161.3122130837192L326.5305265625,138.9051425128712L331.3057609375,156.52044136297013L336.08099531249997,152.0023673063753L340.8562296875,144.21944399728332L345.6314640625,158.1624108931482L350.4066984375,155.24998858201866L355.1819328125,148.96908501760083L359.95716718750003,156.26403538996857L364.7324015625,163.66639816276492L369.5076359375,168.33793441618153L374.28287031250005,170.5560175650063L379.05810468749996,140.73678438074873L383.8333390625,134.01311454896566L388.6085734375,145.41610292713278L396.67871953125,146.86550972192876L401.45395390625,150.067349608716L406.22918828125,155.344714794145L411.00442265625003,154.7214401070647L415.77965703125,170.3602750346543L420.55489140625,183.70727520430407L425.33012578125005,175.1776738956232L430.10536015624996,199.1292503166421L434.88059453125,177.13829700621176L439.65582890625,153.13994855140385L444.43106328125,174.32389917304104L449.20629765625,163.91443765189814L453.98153203124997,161.23791820337587L458.75676640625,169.3105982795031L463.53200078125,173.51355950987926L468.30723515625,154.76195845492921L473.08246953125,168.96535287449845L477.85770390625,192.39957813284278L482.63293828124995,177.13817049012042L487.40817265625,184.5847103907536L495.47831875,194.40136271542386L500.25355312500005,208.27574849876558L505.0287875,230.75573089230872L509.80402187500005,259.50504331210834L514.57925625,282.9841401772304L519.3544906249999,284.9389700342606L524.129725,273.3859584258772L528.904959375,277.9137105353172L533.68019375,283.78919969841803L538.455428125,283.5479444775537L543.2306625,278.2089989014599L548.005896875,283.98571378671215L552.7811312499999,287.7305751194116L557.556365625,300.01207168142196L562.3316,276.850234108892L567.106834375,300.46169126068594L571.88206875,290.7891977533658L576.657303125,290.05908062913346L581.4325375,287.2197484714715L586.207771875,285.2402379989667L594.27791796875,303.1226488058934L599.05315234375,299.8016516066976L603.8283867187499,311.71317897764027L608.60362109375,318.094638502334L613.37885546875,320.72815592375326L618.15408984375,321.34614050474215L622.92932421875,315.40346073644946L627.70455859375,291.89116003408014L632.47979296875,310.72112188173867L637.25502734375,316.71794481961626L642.03026171875,320.4563696718394L646.80549609375,315.8446930574796L651.5807304687501,305.78234836452316L656.35596484375,322.67169982105645L661.13119921875,308.03911246859275L665.9064335937501,304.159928764635L670.68166796875,314.0948325974716L675.45690234375,315.8268061065743L680.2321367187501,300.3230686348548L685.0073710937501,308.6593189489253L693.0775171875,328.44682654278495L697.8527515625,319.9206992794438L702.6279859375001,339.3554839667725L707.4032203125,334.7291044732446L712.1784546875,337.980579732006L716.9536890625001,336.73081497013703L721.7289234375,328.49227090530815L726.5041578125,314.4360663064655L731.2793921875001,336.50569659793683L736.0546265625001,344.0992567626665L740.8298609374999,347.58201973111466L745.6050953125,355.5157298610017L750.3803296875,319.1963287486165L755.1555640624999,335.6809196681185L759.9307984375,334.5873757606986L764.7060328125,344.3509010267573L769.4812671875,343.2590559801563L774.2565015624999,348.21091671643717L779.0317359375,338.4062220735264L783.8069703125,339.30374191471833L791.87711640625,340.3063752633183L796.65235078125,341.81671263552516L801.42758515625,338.1773305675283L806.2028195312499,337.0961101360514L810.97805390625,320.1049934876967L815.75328828125,329.489937303501L820.52852265625,336.2293635084172L825.30375703125,352.27570119344824L830.07899140625,334.56388410832665L834.85422578125,333.2769730792243L839.6294601562499,341.33639175670993L844.40469453125,358.95928213157276L849.17992890625,350.38569549842066L853.95516328125,332.5853581469942L858.73039765625,348.7325501024027L863.50563203125,347.2752253877699L868.28086640625,353.50842448705487L873.05610078125,346.7065145649555L877.83133515625,342.9002364954463L882.60656953125,342.88723951380405" style="fill: none;" fill="none"></path></g></g></g></g><g opacity="0.2"><g><g><g><path stroke="rgb(0, 119, 187)" stroke-width="2px" d="M109.830390625,-49.46539128678188L114.60562499999999,35.45987666504722L119.380859375,45.65494717018943L124.15609375000001,7.20546455042701L128.93132812500002,37.00876722165518L133.70656250000002,51.055358741964625L138.481796875,16.153557777404785L143.25703124999998,139.6827961376735L148.032265625,104.31969864879336L152.8075,14.952645948954967L157.582734375,66.04773654256549L162.35796875,160.37894334963391L167.133203125,54.464844048023224L171.9084375,81.24973621538706L176.683671875,139.566749726023L181.45890625,36.58679486172538L186.234140625,123.33822885581426L191.009375,117.92144559110913L199.07952109375,99.90207017319545L203.85475546875,103.85639578955517L208.62998984375,150.12601014545987L213.40522421875002,190.44387209415436L218.18045859375,158.20399604524886L222.95569296875,125.53243697541103L227.73092734374998,110.59134109531131L232.50616171875,91.49303901195526L237.28139609375,103.75126383985791L242.05663046875,124.68223249060769L246.83186484375003,131.8943644932338L251.60709921875002,63.29352022068839L256.38233359375005,164.26862485493933L261.15756796875,78.82046589681082L265.93280234375,121.34465422800608L270.70803671875,122.8347190448216L275.48327109375,51.654049081461764L280.25850546875,128.16924257789339L285.03373984374997,88.53016385861807L289.80897421875,123.73058771235604L297.8791203125,163.57254701852798L302.6543546875,156.88029651982444L307.42958906250004,69.20017021894455L312.2048234375,111.98903425250735L316.9800578125,162.95579966476987L321.7552921875,204.50587226663316L326.5305265625,105.29453665869579L331.3057609375,182.94338963712966L336.08099531249997,145.225256221635L340.8562296875,132.5450590338026L345.6314640625,179.07686123677664L350.4066984375,150.88135511534557L355.1819328125,139.54772967100143L359.95716718750003,167.20646094850133L364.7324015625,174.76994232194767L369.5076359375,175.34523879630225L374.28287031250005,173.88314228824208L379.05810468749996,96.00793460437231L383.8333390625,123.92760980129242L388.6085734375,162.52058549438203L396.67871953125,149.039619914123L401.45395390625,154.87010943889618L406.22918828125,163.2607625722885L411.00442265625003,153.78652807644437L415.77965703125,193.81852742603846L420.55489140625,203.72777545877867L425.33012578125005,162.38327193260193L430.10536015624996,235.05661494817056L434.88059453125,144.15186704056606L439.65582890625,117.14242586919241L444.43106328125,206.09982510549682L449.20629765625,148.3002453701837L453.98153203124997,157.2231390305928L458.75676640625,181.41961839369367L463.53200078125,179.8180013554437L468.30723515625,126.63455687250409L473.08246953125,190.2704445038523L477.85770390625,227.55091602035932L482.63293828124995,154.24605902603696L487.40817265625,195.75452024170332L495.47831875,209.1263412024294L500.25355312500005,229.087327173778L505.0287875,264.47570448262354L509.80402187500005,302.6290119418076L514.57925625,318.20278547491347L519.3544906249999,287.87121481980597L524.129725,256.0564410133021L528.904959375,284.70533869947707L533.68019375,292.60243344306946L538.455428125,283.18606164625714L543.2306625,270.2005805373192L548.005896875,292.6507861145905L552.7811312499999,293.34786711846084L557.556365625,318.4343165244375L562.3316,242.107477750097L567.106834375,335.8788769883769L571.88206875,276.2804574923856L576.657303125,288.963904942785L581.4325375,282.96075023497855L586.207771875,282.2709722902094L594.27791796875,329.9462650162833L599.05315234375,294.82015580790386L603.8283867187499,329.5804700340544L608.60362109375,327.6668277893748L613.37885546875,324.67843205588207L618.15408984375,322.27311737622534L622.92932421875,306.4894410840103L627.70455859375,256.6227089805262L632.47979296875,338.96606465322634L637.25502734375,325.71317922643254L642.03026171875,326.0640069501741L646.80549609375,308.92717813594004L651.5807304687501,290.68883132508824L656.35596484375,348.0057270058564L661.13119921875,286.090231439897L665.9064335937501,298.34115320869853L670.68166796875,328.9971883467266L675.45690234375,318.4247663702284L680.2321367187501,277.06746242727553L685.0073710937501,321.16369442003116L693.0775171875,358.1280879335744L697.8527515625,307.1315083844321L702.6279859375001,368.5076609977654L707.4032203125,327.7895352329527L712.1784546875,342.85779262014796L716.9536890625001,334.8561678273337L721.7289234375,316.1344548080649L726.5041578125,293.3517594082015L731.2793921875001,369.6101420351437L736.0546265625001,355.48959700976104L740.8298609374999,352.80616418378696L745.6050953125,367.41629505583217L750.3803296875,264.71722708003864L755.1555640624999,360.4078060473715L759.9307984375,332.9470598995686L764.7060328125,358.99618892584533L769.4812671875,341.6212884102549L774.2565015624999,355.63870782085826L779.0317359375,323.6991801091603L783.8069703125,340.6500216765063L791.87711640625,341.81032528621813L796.65235078125,344.08221869383544L801.42758515625,332.7182574655329L806.2028195312499,335.47427948883603L810.97805390625,294.61831851516456L815.75328828125,343.56735302720756L820.52852265625,346.33850281579157L825.30375703125,376.345207720995L830.07899140625,307.9961584806442L834.85422578125,331.34660653557097L839.6294601562499,353.42551977293834L844.40469453125,385.393617693867L849.17992890625,337.52531554869245L853.95516328125,305.88485211985454L858.73039765625,372.9533380355154L863.50563203125,345.08923831582075L868.28086640625,362.85822313598226L873.05610078125,336.5036496818066L877.83133515625,337.1908193911825L882.60656953125,342.8677440413407" style="fill: none;" fill="none"></path></g></g></g></g></g><g><g opacity="0.847628"><span fill="rgb(0, 0, 0)" stroke="none" stroke-width="1px">Alt + Scroll to Zoom</span></g></g></g><g transform="translate(61, 377)" clip-path="url(#clip_1)"><clipPath id="clip_1"><rect width="955" height="23"></rect></clipPath><g><g><line x1="0" y1="0" x2="0" y2="5" style="visibility: inherit;" fill="rgb(0, 0, 0)" stroke="rgb(204, 204, 204)" stroke-width="1px"></line><line x1="95.5046875" y1="0" x2="95.5046875" y2="5" style="visibility: inherit;" fill="rgb(0, 0, 0)" stroke="rgb(204, 204, 204)" stroke-width="1px"></line><line x1="191.009375" y1="0" x2="191.009375" y2="5" style="visibility: inherit;" fill="rgb(0, 0, 0)" stroke="rgb(204, 204, 204)" stroke-width="1px"></line><line x1="286.51406249999997" y1="0" x2="286.51406249999997" y2="5" style="visibility: inherit;" fill="rgb(0, 0, 0)" stroke="rgb(204, 204, 204)" stroke-width="1px"></line><line x1="382.01875" y1="0" x2="382.01875" y2="5" style="visibility: inherit;" fill="rgb(0, 0, 0)" stroke="rgb(204, 204, 204)" stroke-width="1px"></line><line x1="477.5234375" y1="0" x2="477.5234375" y2="5" style="visibility: inherit;" fill="rgb(0, 0, 0)" stroke="rgb(204, 204, 204)" stroke-width="1px"></line><line x1="573.0281249999999" y1="0" x2="573.0281249999999" y2="5" style="visibility: inherit;" fill="rgb(0, 0, 0)" stroke="rgb(204, 204, 204)" stroke-width="1px"></line><line x1="668.5328125" y1="0" x2="668.5328125" y2="5" style="visibility: inherit;" fill="rgb(0, 0, 0)" stroke="rgb(204, 204, 204)" stroke-width="1px"></line><line x1="764.0375" y1="0" x2="764.0375" y2="5" style="visibility: inherit;" fill="rgb(0, 0, 0)" stroke="rgb(204, 204, 204)" stroke-width="1px"></line><line x1="859.5421875000001" y1="0" x2="859.5421875000001" y2="5" style="visibility: inherit;" fill="rgb(0, 0, 0)" stroke="rgb(204, 204, 204)" stroke-width="1px"></line><line x1="955.046875" y1="0" x2="955.046875" y2="5" style="visibility: inherit;" fill="rgb(0, 0, 0)" stroke="rgb(204, 204, 204)" stroke-width="1px"></line></g><g transform="translate(0, 8)"><text x="0" y="0" dx="0em" dy="0.95em" style="text-anchor: middle; visibility: hidden; font-family: Roboto, sans-serif; font-size: 12px; font-weight: 200;" fill="rgb(255, 255, 255)" stroke="none" stroke-width="1px">-2k</text><text x="95.5046875" y="0" dx="0em" dy="0.95em" style="text-anchor: middle; visibility: inherit; font-family: Roboto, sans-serif; font-size: 12px; font-weight: 200;" fill="rgb(255, 255, 255)" stroke="none" stroke-width="1px">0</text><text x="191.009375" y="0" dx="0em" dy="0.95em" style="text-anchor: middle; visibility: inherit; font-family: Roboto, sans-serif; font-size: 12px; font-weight: 200;" fill="rgb(255, 255, 255)" stroke="none" stroke-width="1px">2k</text><text x="286.51406249999997" y="0" dx="0em" dy="0.95em" style="text-anchor: middle; visibility: inherit; font-family: Roboto, sans-serif; font-size: 12px; font-weight: 200;" fill="rgb(255, 255, 255)" stroke="none" stroke-width="1px">4k</text><text x="382.01875" y="0" dx="0em" dy="0.95em" style="text-anchor: middle; visibility: inherit; font-family: Roboto, sans-serif; font-size: 12px; font-weight: 200;" fill="rgb(255, 255, 255)" stroke="none" stroke-width="1px">6k</text><text x="477.5234375" y="0" dx="0em" dy="0.95em" style="text-anchor: middle; visibility: inherit; font-family: Roboto, sans-serif; font-size: 12px; font-weight: 200;" fill="rgb(255, 255, 255)" stroke="none" stroke-width="1px">8k</text><text x="573.0281249999999" y="0" dx="0em" dy="0.95em" style="text-anchor: middle; visibility: inherit; font-family: Roboto, sans-serif; font-size: 12px; font-weight: 200;" fill="rgb(255, 255, 255)" stroke="none" stroke-width="1px">10k</text><text x="668.5328125" y="0" dx="0em" dy="0.95em" style="text-anchor: middle; visibility: inherit; font-family: Roboto, sans-serif; font-size: 12px; font-weight: 200;" fill="rgb(255, 255, 255)" stroke="none" stroke-width="1px">12k</text><text x="764.0375" y="0" dx="0em" dy="0.95em" style="text-anchor: middle; visibility: inherit; font-family: Roboto, sans-serif; font-size: 12px; font-weight: 200;" fill="rgb(255, 255, 255)" stroke="none" stroke-width="1px">14k</text><text x="859.5421875000001" y="0" dx="0em" dy="0.95em" style="text-anchor: middle; visibility: inherit; font-family: Roboto, sans-serif; font-size: 12px; font-weight: 200;" fill="rgb(255, 255, 255)" stroke="none" stroke-width="1px">16k</text><text x="955.046875" y="0" dx="0em" dy="0.95em" style="text-anchor: middle; visibility: hidden; font-family: Roboto, sans-serif; font-size: 12px; font-weight: 200;" fill="rgb(255, 255, 255)" stroke="none" stroke-width="1px">18k</text></g><line x1="0" y1="0" x2="955.046875" y2="0" fill="rgb(0, 0, 0)" stroke="rgb(204, 204, 204)" stroke-width="1px"></line></g></g></g></g></svg>