<svg viewBox="0 0 1017 400" xmlns="http://www.w3.org/2000/svg"><g><g><g><g><g><line x1="51.5625" y1="377" x2="46.5625" y2="377" style="visibility: inherit;" fill="rgb(0, 0, 0)" stroke="rgb(204, 204, 204)" stroke-width="1px"></line><line x1="51.5625" y1="339.3" x2="46.5625" y2="339.3" style="visibility: inherit;" fill="rgb(0, 0, 0)" stroke="rgb(204, 204, 204)" stroke-width="1px"></line><line x1="51.5625" y1="301.59999999999997" x2="46.5625" y2="301.59999999999997" style="visibility: inherit;" fill="rgb(0, 0, 0)" stroke="rgb(204, 204, 204)" stroke-width="1px"></line><line x1="51.5625" y1="263.9" x2="46.5625" y2="263.9" style="visibility: inherit;" fill="rgb(0, 0, 0)" stroke="rgb(204, 204, 204)" stroke-width="1px"></line><line x1="51.5625" y1="226.20000000000005" x2="46.5625" y2="226.20000000000005" style="visibility: inherit;" fill="rgb(0, 0, 0)" stroke="rgb(204, 204, 204)" stroke-width="1px"></line><line x1="51.5625" y1="188.49999999999997" x2="46.5625" y2="188.49999999999997" style="visibility: inherit;" fill="rgb(0, 0, 0)" stroke="rgb(204, 204, 204)" stroke-width="1px"></line><line x1="51.5625" y1="150.8" x2="46.5625" y2="150.8" style="visibility: inherit;" fill="rgb(0, 0, 0)" stroke="rgb(204, 204, 204)" stroke-width="1px"></line><line x1="51.5625" y1="113.10000000000002" x2="46.5625" y2="113.10000000000002" style="visibility: inherit;" fill="rgb(0, 0, 0)" stroke="rgb(204, 204, 204)" stroke-width="1px"></line><line x1="51.5625" y1="75.39999999999998" x2="46.5625" y2="75.39999999999998" style="visibility: inherit;" fill="rgb(0, 0, 0)" stroke="rgb(204, 204, 204)" stroke-width="1px"></line><line x1="51.5625" y1="37.69999999999995" x2="46.5625" y2="37.69999999999995" style="visibility: inherit;" fill="rgb(0, 0, 0)" stroke="rgb(204, 204, 204)" stroke-width="1px"></line><line x1="51.5625" y1="0" x2="46.5625" y2="0" style="visibility: inherit;" fill="rgb(0, 0, 0)" stroke="rgb(204, 204, 204)" stroke-width="1px"></line></g><g transform="translate(41.5625, 0)"><text x="0" y="377" dx="0em" dy="0.3em" style="text-anchor: end; visibility: hidden; font-family: Roboto, sans-serif; font-size: 12px; font-weight: 200;" fill="rgb(255, 255, 255)" stroke="none" stroke-width="1px">0.05</text><text x="0" y="339.3" dx="0em" dy="0.3em" style="text-anchor: end; visibility: inherit; font-family: Roboto, sans-serif; font-size: 12px; font-weight: 200;" fill="rgb(255, 255, 255)" stroke="none" stroke-width="1px">0.06</text><text x="0" y="301.59999999999997" dx="0em" dy="0.3em" style="text-anchor: end; visibility: inherit; font-family: Roboto, sans-serif; font-size: 12px; font-weight: 200;" fill="rgb(255, 255, 255)" stroke="none" stroke-width="1px">0.07</text><text x="0" y="263.9" dx="0em" dy="0.3em" style="text-anchor: end; visibility: inherit; font-family: Roboto, sans-serif; font-size: 12px; font-weight: 200;" fill="rgb(255, 255, 255)" stroke="none" stroke-width="1px">0.08</text><text x="0" y="226.20000000000005" dx="0em" dy="0.3em" style="text-anchor: end; visibility: inherit; font-family: Roboto, sans-serif; font-size: 12px; font-weight: 200;" fill="rgb(255, 255, 255)" stroke="none" stroke-width="1px">0.09</text><text x="0" y="188.49999999999997" dx="0em" dy="0.3em" style="text-anchor: end; visibility: inherit; font-family: Roboto, sans-serif; font-size: 12px; font-weight: 200;" fill="rgb(255, 255, 255)" stroke="none" stroke-width="1px">0.1</text><text x="0" y="150.8" dx="0em" dy="0.3em" style="text-anchor: end; visibility: inherit; font-family: Roboto, sans-serif; font-size: 12px; font-weight: 200;" fill="rgb(255, 255, 255)" stroke="none" stroke-width="1px">0.11</text><text x="0" y="113.10000000000002" dx="0em" dy="0.3em" style="text-anchor: end; visibility: inherit; font-family: Roboto, sans-serif; font-size: 12px; font-weight: 200;" fill="rgb(255, 255, 255)" stroke="none" stroke-width="1px">0.12</text><text x="0" y="75.39999999999998" dx="0em" dy="0.3em" style="text-anchor: end; visibility: inherit; font-family: Roboto, sans-serif; font-size: 12px; font-weight: 200;" fill="rgb(255, 255, 255)" stroke="none" stroke-width="1px">0.13</text><text x="0" y="37.69999999999995" dx="0em" dy="0.3em" style="text-anchor: end; visibility: inherit; font-family: Roboto, sans-serif; font-size: 12px; font-weight: 200;" fill="rgb(255, 255, 255)" stroke="none" stroke-width="1px">0.14</text><text x="0" y="0" dx="0em" dy="0.3em" style="text-anchor: end; visibility: hidden; font-family: Roboto, sans-serif; font-size: 12px; font-weight: 200;" fill="rgb(255, 255, 255)" stroke="none" stroke-width="1px">0.15</text></g><line x1="51.5625" y1="0" x2="51.5625" y2="377" fill="rgb(0, 0, 0)" stroke="rgb(204, 204, 204)" stroke-width="1px"></line></g></g><g transform="translate(51, 0)" clip-path="url(#clip_0)"><clipPath id="clip_0"><rect width="965" height="377"></rect></clipPath><g><g><g><line x1="0" y1="0" x2="0" y2="377" fill="rgb(0, 0, 0)" stroke="rgb(189, 189, 189)" stroke-width="1px" opacity="0.25"></line><line x1="96.54375" y1="0" x2="96.54375" y2="377" fill="rgb(0, 0, 0)" stroke="rgb(189, 189, 189)" stroke-width="1px" opacity="0.25"></line><line x1="193.0875" y1="0" x2="193.0875" y2="377" fill="rgb(0, 0, 0)" stroke="rgb(189, 189, 189)" stroke-width="1px" opacity="0.25"></line><line x1="289.63124999999997" y1="0" x2="289.63124999999997" y2="377" fill="rgb(0, 0, 0)" stroke="rgb(189, 189, 189)" stroke-width="1px" opacity="0.25"></line><line x1="386.175" y1="0" x2="386.175" y2="377" fill="rgb(0, 0, 0)" stroke="rgb(189, 189, 189)" stroke-width="1px" opacity="0.25"></line><line x1="482.71875" y1="0" x2="482.71875" y2="377" fill="rgb(0, 0, 0)" stroke="rgb(189, 189, 189)" stroke-width="1px" opacity="0.25"></line><line x1="579.2624999999999" y1="0" x2="579.2624999999999" y2="377" fill="rgb(0, 0, 0)" stroke="rgb(189, 189, 189)" stroke-width="1px" opacity="0.25"></line><line x1="675.80625" y1="0" x2="675.80625" y2="377" fill="rgb(0, 0, 0)" stroke="rgb(189, 189, 189)" stroke-width="1px" opacity="0.25"></line><line x1="772.35" y1="0" x2="772.35" y2="377" fill="rgb(0, 0, 0)" stroke="rgb(189, 189, 189)" stroke-width="1px" opacity="0.25"></line><line x1="868.8937500000001" y1="0" x2="868.8937500000001" y2="377" fill="rgb(0, 0, 0)" stroke="rgb(189, 189, 189)" stroke-width="1px" opacity="0.25"></line><line x1="965.4375" y1="0" x2="965.4375" y2="377" fill="rgb(0, 0, 0)" stroke="rgb(189, 189, 189)" stroke-width="1px" opacity="0.25"></line></g><g><line x1="0" y1="377" x2="965.4375" y2="377" fill="rgb(0, 0, 0)" stroke="rgb(189, 189, 189)" stroke-width="1px" opacity="0.25"></line><line x1="0" y1="339.3" x2="965.4375" y2="339.3" fill="rgb(0, 0, 0)" stroke="rgb(189, 189, 189)" stroke-width="1px" opacity="0.25"></line><line x1="0" y1="301.59999999999997" x2="965.4375" y2="301.59999999999997" fill="rgb(0, 0, 0)" stroke="rgb(189, 189, 189)" stroke-width="1px" opacity="0.25"></line><line x1="0" y1="263.9" x2="965.4375" y2="263.9" fill="rgb(0, 0, 0)" stroke="rgb(189, 189, 189)" stroke-width="1px" opacity="0.25"></line><line x1="0" y1="226.20000000000005" x2="965.4375" y2="226.20000000000005" fill="rgb(0, 0, 0)" stroke="rgb(189, 189, 189)" stroke-width="1px" opacity="0.25"></line><line x1="0" y1="188.49999999999997" x2="965.4375" y2="188.49999999999997" fill="rgb(0, 0, 0)" stroke="rgb(189, 189, 189)" stroke-width="1px" opacity="0.25"></line><line x1="0" y1="150.8" x2="965.4375" y2="150.8" fill="rgb(0, 0, 0)" stroke="rgb(189, 189, 189)" stroke-width="1px" opacity="0.25"></line><line x1="0" y1="113.10000000000002" x2="965.4375" y2="113.10000000000002" fill="rgb(0, 0, 0)" stroke="rgb(189, 189, 189)" stroke-width="1px" opacity="0.25"></line><line x1="0" y1="75.39999999999998" x2="965.4375" y2="75.39999999999998" fill="rgb(0, 0, 0)" stroke="rgb(189, 189, 189)" stroke-width="1px" opacity="0.25"></line><line x1="0" y1="37.69999999999995" x2="965.4375" y2="37.69999999999995" fill="rgb(0, 0, 0)" stroke="rgb(189, 189, 189)" stroke-width="1px" opacity="0.25"></line><line x1="0" y1="0" x2="965.4375" y2="0" fill="rgb(0, 0, 0)" stroke="rgb(189, 189, 189)" stroke-width="1px" opacity="0.25"></line></g></g></g><g><g><line x1="0" y1="565.5" x2="965.4375" y2="565.5" fill="rgb(0, 0, 0)" stroke="rgb(153, 153, 153)" stroke-width="1.5px"></line></g></g><g><g><line x1="96.54375" y1="0" x2="96.54375" y2="377" fill="rgb(0, 0, 0)" stroke="rgb(153, 153, 153)" stroke-width="1.5px"></line></g></g><g><g><g><g><g><path stroke="rgb(0, 119, 187)" stroke-width="2px" d="M111.0253125,-61.98573746608235L115.85249999999999,1.9094158234622893L120.6796875,31.28255177619652L125.50687500000001,32.259683400308475L130.33406250000002,29.63369098225886L135.16125000000002,18.146110921631323L139.9884375,23.520699918177588L144.81562499999998,60.47062811839477L149.6428125,67.73527018502806L154.47,57.112381627957L159.2971875,56.9161071240995L164.12437500000001,67.58364442830094L168.9515625,62.303687942140776L173.77875,74.11558642828687L178.6059375,83.81775528902422L183.433125,74.83634733619425L188.2603125,71.82781522366604L193.0875,80.43859228812074L201.245446875,87.09956760668685L206.072634375,97.98039540651877L210.89982187500001,101.03567403606823L215.72700937500002,120.73842869473111L220.55419687499997,129.74345978201683L225.38138437499998,127.8124367026351L230.208571875,118.00366843333084L235.035759375,100.78004814432003L239.862946875,110.62734346374103L244.690134375,105.24369214835365L249.51732187500002,114.13090792083118L254.34450937500003,92.68671436578968L259.171696875,112.07284683455211L263.99888437500005,113.10689906143989L268.82607187499997,119.69803071542665L273.653259375,112.67469490391248L278.480446875,92.44361290822403L283.30763437499996,102.62971894643074L288.134821875,94.88267061594519L292.962009375,114.523281448413L301.11995625000003,130.92575421059163L305.94714375,133.70724703281286L310.77433125000005,123.96320284567554L315.60151875,129.13419376798024L320.42870624999995,141.72331603292878L325.25589375,151.83745538610273L330.08308124999996,142.52968512391814L334.91026875,154.70132133043776L339.73745625,152.45927222175538L344.56464375,146.40328874942614L349.39183125,162.3244595990772L354.21901875000003,160.3133522669135L359.04620625,153.7537702560106L363.87339375,150.09970565674394L368.70058125,143.75869114421027L373.52776875,150.71053347720294L378.35495625000004,159.18890448650075L383.18214374999997,136.71746280336282L388.00933125,137.7104518922801L392.83651875,139.14236696437814L400.994465625,152.9917593531363L405.821653125,169.0544571538304L410.648840625,171.40946529862495L415.476028125,173.51072171066528L420.303215625,187.2261462553402L425.13040312500004,186.8885418858563L429.957590625,171.3276347390673L434.78477812499995,193.34469613861214L439.611965625,179.4152373339604L444.43915312499996,169.936070589177L449.266340625,176.55082077857983L454.093528125,163.03737207101074L458.920715625,160.25513172654078L463.747903125,172.6301431805359L468.57509062500003,173.04304482641612L473.402278125,168.4206902927327L478.229465625,182.32534105456875L483.05665312499997,190.89772845433356L487.88384062499995,180.7294885344875L492.711028125,184.33687181637117L500.86897500000003,212.44309349873916L505.6961625,226.6702086986259L510.52335000000005,243.49735992915362L515.3505375000001,259.4214805946764L520.1777249999999,276.6161213032017L525.0049124999999,276.57553877899704L529.8321,275.32148893755476L534.6592875,277.15282516528254L539.4864749999999,278.520986192519L544.3136625,280.0016861099568L549.14085,283.39024654856723L553.9680374999999,286.7439219583953L558.795225,292.22402414261603L563.6224125,297.9427794669825L568.4496,285.15887077181094L573.2767875,291.42442516999574L578.103975,293.61046540449337L582.9311625,291.6400723142045L587.7583500000001,292.8737221171031L592.5855375,290.6874076848966L600.743484375,304.3714958742703L605.570671875,305.4896222660211L610.3978593749999,306.1160393243592L615.225046875,312.03392269525295L620.052234375,312.5097839493356L624.879421875,308.5284378623249L629.706609375,307.9511371669341L634.533796875,303.7912678192359L639.360984375,311.39155576648125L644.188171875,310.70925564778935L649.015359375,308.6880117846315L653.842546875,310.5624932582846L658.6697343750001,308.70361284826225L663.496921875,317.7137850428463L668.324109375,307.64662739067325L673.1512968750001,312.04048298853064L677.978484375,314.26991483603376L682.805671875,317.4573489310411L687.6328593750001,308.7100620855133L692.4600468750001,311.2494362586284L700.61799375,323.90701254567773L705.44518125,320.30953036165994L710.27236875,325.42279249976133L715.09955625,329.8108507457379L719.92674375,330.5605020202996L724.75393125,330.18959747420564L729.5811187500001,327.1209627310444L734.40830625,321.5620866191393L739.23549375,328.2889775766137L744.0626812500001,333.57665424246807L748.8898687499999,332.2532779675675L753.7170562499999,332.9802603216143L758.54424375,321.6361491317255L763.37143125,325.84892561344526L768.1986187499999,326.2871806759132L773.02580625,333.85675446024493L777.85299375,331.4824905266223L782.68018125,332.3343125414763L787.50736875,328.21347422193975L792.33455625,327.2002909707516L800.4925031250001,329.53035675451093L805.3196906249999,332.17659014442523L810.146878125,332.5171811579404L814.974065625,333.57285898320305L819.801253125,323.7919910454299L824.6284406249999,326.87939704379716L829.455628125,328.1091368819551L834.282815625,334.040590588765L839.1100031249999,332.3821798619727L843.937190625,329.74708544356224L848.764378125,331.2493466385758L853.591565625,341.1357243805263L858.418753125,337.30308573836885L863.245940625,330.8782685005355L868.073128125,337.4657751860433L872.900315625,336.1290779675372L877.727503125,339.8203004548149L882.554690625,335.47397126848676L887.3818781250001,331.48701913413515L892.209065625,329.04200741205875" style="fill: none;" fill="none"></path></g></g></g></g><g opacity="0.2"><g><g><g><path stroke="rgb(0, 119, 187)" stroke-width="2px" d="M106.198125,-20.12202885746956L111.0253125,68.88484659790993L115.85249999999999,77.05011609196663L120.6796875,69.63211807608604L125.50687500000001,33.611408203840256L130.33406250000002,25.878479808568954L135.16125000000002,1.3971089124679565L139.9884375,31.447174727916718L144.81562499999998,115.33696520328522L149.6428125,78.56634351611137L154.47,41.2358580827713L159.2971875,56.622336238622665L164.12437500000001,83.56405156850815L168.9515625,54.38995960354805L173.77875,91.82510349154472L178.6059375,98.36690294742584L183.433125,61.366515785455704L188.2603125,67.31547537446022L193.0875,93.35397082567215L201.245446875,97.09066528081894L206.072634375,114.30127906799316L210.89982187500001,105.61853165924549L215.72700937500002,150.29232728481293L220.55419687499997,143.25094240903854L225.38138437499998,124.91591031849384L230.208571875,103.2905411273241L235.035759375,74.94464415311813L239.862946875,125.39827737212181L244.690134375,97.1682181507349L249.51732187500002,127.4617286324501L254.34450937500003,60.52042829990387L259.171696875,141.15204322338104L263.99888437500005,114.65797732770443L268.82607187499997,129.58472791314125L273.653259375,102.1396913677454L278.480446875,62.09699022769928L283.30763437499996,117.9088779091835L288.134821875,83.26209816336632L292.962009375,143.9841976314783L301.11995625000003,155.52946332097054L305.94714375,137.8794862627983L310.77433125000005,109.34713657200336L315.60151875,136.89068014919758L320.42870624999995,160.60699942708015L325.25589375,167.0086644142866L330.08308124999996,128.56802973151207L334.91026875,172.958775639534L339.73745625,149.09619855880737L344.56464375,137.31931354105473L349.39183125,186.20621587336063L354.21901875000003,157.29669126868248L359.04620625,143.91439723968506L363.87339375,144.6186087578535L368.70058125,134.24716937541962L373.52776875,161.13829697668552L378.35495625000004,171.9064610004425L383.18214374999997,103.01030027866364L388.00933125,139.19993552565575L392.83651875,141.29023957252502L400.994465625,173.76584793627262L405.821653125,193.1485038548708L410.648840625,174.9419775158167L415.476028125,176.66260632872581L420.303215625,207.7992830723524L425.13040312500004,186.3821353316307L429.957590625,147.9862740188837L434.78477812499995,226.37028823792934L439.611965625,158.5210491269827L444.43915312499996,155.71732047200203L449.266340625,186.47294606268406L454.093528125,142.7671990096569L458.920715625,156.081771209836L463.747903125,191.1926603615284L468.57509062500003,173.6623972952366L473.402278125,161.48715849220753L478.229465625,203.18231719732285L483.05665312499997,203.75630955398083L487.88384062499995,165.4771286547184L492.711028125,189.74794673919678L500.86897500000003,254.60242602229118L505.6961625,248.010881498456L510.52335000000005,268.73808677494526L515.3505375000001,283.30766159296036L520.1777249999999,302.4080823659897L525.0049124999999,276.5146649926901L529.8321,273.4404141753912L534.6592875,279.8998295068741L539.4864749999999,280.57322773337364L544.3136625,282.22273598611355L549.14085,288.4730872064829L553.9680374999999,291.7744350731373L558.795225,300.4441774189472L563.6224125,306.5209124535322L568.4496,265.9830077290535L573.2767875,300.82275676727295L578.103975,296.8895257562399L582.9311625,288.684482678771L587.7583500000001,294.7241968214512L592.5855375,287.40793603658676L600.743484375,324.8976281583309L605.570671875,307.16681185364723L610.3978593749999,307.0556649118662L615.225046875,320.9107477515936L620.052234375,313.2235758304596L624.879421875,302.55641873180866L629.706609375,307.08518612384796L634.533796875,297.5514637976885L639.360984375,322.7919876873493L644.188171875,309.68580546975136L649.015359375,305.65614598989487L653.842546875,313.3742154687643L658.6697343750001,305.9152922332287L663.496921875,331.2290433347225L668.324109375,292.5458909124136L673.1512968750001,318.63126638531685L677.978484375,317.61406260728836L682.805671875,322.23850007355213L687.6328593750001,295.58913181722164L692.4600468750001,315.058497518301L700.61799375,342.8933769762516L705.44518125,314.9133070856333L710.27236875,333.09268570691347L715.09955625,336.3929381147027L719.92674375,331.68497893214226L724.75393125,329.6332406550646L729.5811187500001,322.5180106163025L734.40830625,313.22377245128155L739.23549375,338.3793140128255L744.0626812500001,341.50816924124956L748.8898687499999,330.2682135552168L753.7170562499999,334.0707338526845L758.54424375,304.61998234689236L763.37143125,332.16809033602476L768.1986187499999,326.9445632696152L773.02580625,345.2111151367426L777.85299375,327.9210946261883L782.68018125,333.6120455637574L787.50736875,322.0322167426348L792.33455625,325.68051609396935L800.4925031250001,333.02545543015003L805.3196906249999,336.1459402292967L810.146878125,333.0280676782131L814.974065625,335.156375721097L819.801253125,309.1206891387701L824.6284406249999,331.510506041348L829.455628125,329.9537466391921L834.282815625,342.93777114897966L839.1100031249999,329.8945637717843L843.937190625,325.7944438159466L848.764378125,333.5027384310961L853.591565625,355.9652909934521L858.418753125,331.55412777513266L863.245940625,321.2410426437855L868.073128125,347.3470352143049L872.900315625,334.12403213977814L877.727503125,345.3571341857314L882.554690625,328.9544774889946L887.3818781250001,325.50659093260765L892.209065625,325.3744898289442" style="fill: none;" fill="none"></path></g></g></g></g></g></g><g transform="translate(51, 377)" clip-path="url(#clip_1)"><clipPath id="clip_1"><rect width="965" height="23"></rect></clipPath><g><g><line x1="0" y1="0" x2="0" y2="5" style="visibility: inherit;" fill="rgb(0, 0, 0)" stroke="rgb(204, 204, 204)" stroke-width="1px"></line><line x1="96.54375" y1="0" x2="96.54375" y2="5" style="visibility: inherit;" fill="rgb(0, 0, 0)" stroke="rgb(204, 204, 204)" stroke-width="1px"></line><line x1="193.0875" y1="0" x2="193.0875" y2="5" style="visibility: inherit;" fill="rgb(0, 0, 0)" stroke="rgb(204, 204, 204)" stroke-width="1px"></line><line x1="289.63124999999997" y1="0" x2="289.63124999999997" y2="5" style="visibility: inherit;" fill="rgb(0, 0, 0)" stroke="rgb(204, 204, 204)" stroke-width="1px"></line><line x1="386.175" y1="0" x2="386.175" y2="5" style="visibility: inherit;" fill="rgb(0, 0, 0)" stroke="rgb(204, 204, 204)" stroke-width="1px"></line><line x1="482.71875" y1="0" x2="482.71875" y2="5" style="visibility: inherit;" fill="rgb(0, 0, 0)" stroke="rgb(204, 204, 204)" stroke-width="1px"></line><line x1="579.2624999999999" y1="0" x2="579.2624999999999" y2="5" style="visibility: inherit;" fill="rgb(0, 0, 0)" stroke="rgb(204, 204, 204)" stroke-width="1px"></line><line x1="675.80625" y1="0" x2="675.80625" y2="5" style="visibility: inherit;" fill="rgb(0, 0, 0)" stroke="rgb(204, 204, 204)" stroke-width="1px"></line><line x1="772.35" y1="0" x2="772.35" y2="5" style="visibility: inherit;" fill="rgb(0, 0, 0)" stroke="rgb(204, 204, 204)" stroke-width="1px"></line><line x1="868.8937500000001" y1="0" x2="868.8937500000001" y2="5" style="visibility: inherit;" fill="rgb(0, 0, 0)" stroke="rgb(204, 204, 204)" stroke-width="1px"></line><line x1="965.4375" y1="0" x2="965.4375" y2="5" style="visibility: inherit;" fill="rgb(0, 0, 0)" stroke="rgb(204, 204, 204)" stroke-width="1px"></line></g><g transform="translate(0, 8)"><text x="0" y="0" dx="0em" dy="0.95em" style="text-anchor: middle; visibility: hidden; font-family: Roboto, sans-serif; font-size: 12px; font-weight: 200;" fill="rgb(255, 255, 255)" stroke="none" stroke-width="1px">-2k</text><text x="96.54375" y="0" dx="0em" dy="0.95em" style="text-anchor: middle; visibility: inherit; font-family: Roboto, sans-serif; font-size: 12px; font-weight: 200;" fill="rgb(255, 255, 255)" stroke="none" stroke-width="1px">0</text><text x="193.0875" y="0" dx="0em" dy="0.95em" style="text-anchor: middle; visibility: inherit; font-family: Roboto, sans-serif; font-size: 12px; font-weight: 200;" fill="rgb(255, 255, 255)" stroke="none" stroke-width="1px">2k</text><text x="289.63124999999997" y="0" dx="0em" dy="0.95em" style="text-anchor: middle; visibility: inherit; font-family: Roboto, sans-serif; font-size: 12px; font-weight: 200;" fill="rgb(255, 255, 255)" stroke="none" stroke-width="1px">4k</text><text x="386.175" y="0" dx="0em" dy="0.95em" style="text-anchor: middle; visibility: inherit; font-family: Roboto, sans-serif; font-size: 12px; font-weight: 200;" fill="rgb(255, 255, 255)" stroke="none" stroke-width="1px">6k</text><text x="482.71875" y="0" dx="0em" dy="0.95em" style="text-anchor: middle; visibility: inherit; font-family: Roboto, sans-serif; font-size: 12px; font-weight: 200;" fill="rgb(255, 255, 255)" stroke="none" stroke-width="1px">8k</text><text x="579.2624999999999" y="0" dx="0em" dy="0.95em" style="text-anchor: middle; visibility: inherit; font-family: Roboto, sans-serif; font-size: 12px; font-weight: 200;" fill="rgb(255, 255, 255)" stroke="none" stroke-width="1px">10k</text><text x="675.80625" y="0" dx="0em" dy="0.95em" style="text-anchor: middle; visibility: inherit; font-family: Roboto, sans-serif; font-size: 12px; font-weight: 200;" fill="rgb(255, 255, 255)" stroke="none" stroke-width="1px">12k</text><text x="772.35" y="0" dx="0em" dy="0.95em" style="text-anchor: middle; visibility: inherit; font-family: Roboto, sans-serif; font-size: 12px; font-weight: 200;" fill="rgb(255, 255, 255)" stroke="none" stroke-width="1px">14k</text><text x="868.8937500000001" y="0" dx="0em" dy="0.95em" style="text-anchor: middle; visibility: inherit; font-family: Roboto, sans-serif; font-size: 12px; font-weight: 200;" fill="rgb(255, 255, 255)" stroke="none" stroke-width="1px">16k</text><text x="965.4375" y="0" dx="0em" dy="0.95em" style="text-anchor: middle; visibility: hidden; font-family: Roboto, sans-serif; font-size: 12px; font-weight: 200;" fill="rgb(255, 255, 255)" stroke="none" stroke-width="1px">18k</text></g><line x1="0" y1="0" x2="965.4375" y2="0" fill="rgb(0, 0, 0)" stroke="rgb(204, 204, 204)" stroke-width="1px"></line></g></g></g></g></svg>